<?xml version="1.0" encoding="UTF-8"?>
<svg id="Layer_2" data-name="Layer 2" xmlns="http://www.w3.org/2000/svg" xmlns:xlink="http://www.w3.org/1999/xlink" viewBox="0 0 700 423">
  <defs>
    <style>
      .cls-1, .cls-2 {
        fill: none;
      }

      .cls-3 {
        fill: #000b84;
      }

      .cls-4 {
        font-family: MyriadPro-Regular, 'Myriad Pro';
        font-size: 12px;
      }

      .cls-5 {
        letter-spacing: 0em;
      }

      .cls-6 {
        clip-path: url(#clippath-1);
      }

      .cls-7 {
        clip-path: url(#clippath-3);
      }

      .cls-8 {
        clip-path: url(#clippath-4);
      }

      .cls-9 {
        clip-path: url(#clippath-2);
      }

      .cls-10 {
        letter-spacing: 0em;
      }

      .cls-11 {
        fill: #fff;
      }

      .cls-12 {
        letter-spacing: 0em;
      }

      .cls-13 {
        letter-spacing: 0em;
      }

      .cls-14 {
        font-family: SourceSansRoman-Bold, 'Source Sans Variable';
        font-size: 28px;
        font-variation-settings: 'wght' 700;
        font-weight: 700;
      }

      .cls-15 {
        letter-spacing: -.07em;
      }

      .cls-16 {
        letter-spacing: -.03em;
      }

      .cls-17 {
        letter-spacing: -.02em;
      }

      .cls-18 {
        letter-spacing: -.01em;
      }

      .cls-19 {
        letter-spacing: -.04em;
      }

      .cls-20 {
        stroke-linejoin: round;
      }

      .cls-20, .cls-2 {
        stroke: #000;
        stroke-width: .8px;
      }

      .cls-21 {
        letter-spacing: -.03em;
      }

      .cls-22 {
        letter-spacing: 0em;
      }

      .cls-23 {
        letter-spacing: 0em;
      }

      .cls-24 {
        letter-spacing: 0em;
      }

      .cls-25 {
        letter-spacing: 0em;
      }

      .cls-26 {
        letter-spacing: 0em;
      }

      .cls-27 {
        letter-spacing: 0em;
      }

      .cls-2 {
        stroke-linecap: square;
      }

      .cls-28 {
        letter-spacing: -.01em;
      }

      .cls-29 {
        letter-spacing: -.01em;
      }

      .cls-30 {
        letter-spacing: 0em;
      }

      .cls-31 {
        letter-spacing: 0em;
      }

      .cls-32 {
        letter-spacing: 0em;
      }

      .cls-33 {
        fill: #005f94;
      }

      .cls-34 {
        clip-path: url(#clippath);
      }

      .cls-35 {
        letter-spacing: .01em;
      }

      .cls-36 {
        letter-spacing: 0em;
      }

      .cls-37 {
        letter-spacing: 0em;
      }

      .cls-38 {
        letter-spacing: .01em;
      }

      .cls-39 {
        letter-spacing: 0em;
      }
    </style>
    <clipPath id="clippath">
      <rect class="cls-1" x="75.7" y="100.91" width="434.99" height="251.35"/>
    </clipPath>
    <clipPath id="clippath-1">
      <rect class="cls-1" x="75.7" y="100.91" width="434.99" height="251.35"/>
    </clipPath>
    <clipPath id="clippath-2">
      <rect class="cls-1" x="75.7" y="100.91" width="434.99" height="251.35"/>
    </clipPath>
    <clipPath id="clippath-3">
      <rect class="cls-1" x="75.7" y="100.91" width="434.99" height="251.35"/>
    </clipPath>
    <clipPath id="clippath-4">
      <rect class="cls-1" x="75.7" y="100.91" width="434.99" height="251.35"/>
    </clipPath>
  </defs>
  <g id="ai2html-settings">
    <path class="cls-11" d="M0,0v423h700V0H0ZM72.68,75.65c-6.45,0-6.43-9.95,0-9.95s6.43,9.95,0,9.95ZM270.37,194.94c-6.45,0-6.43-9.95,0-9.95s6.43,9.95,0,9.95ZM305.52,153.41c-6.45,0-6.43-9.95,0-9.95s6.43,9.95,0,9.95ZM470.91,207.33c-6.45,0-6.43-9.95,0-9.95s6.43,9.95,0,9.95Z"/>
    <text class="cls-14" transform="translate(40.74 51.31)"><tspan x="0" y="0">THE </tspan><tspan class="cls-19" x="55.38" y="0">C</tspan><tspan x="70.64" y="0">O</tspan><tspan class="cls-17" x="89.79" y="0">S</tspan><tspan class="cls-10" x="104.8" y="0">T OF ENERG</tspan><tspan class="cls-16" x="249.73" y="0">Y</tspan><tspan x="263.73" y="0"> </tspan><tspan class="cls-19" x="269.33" y="0">C</tspan><tspan class="cls-13" x="284.59" y="0">ONSUM</tspan><tspan class="cls-18" x="377.88" y="0">P</tspan><tspan class="cls-10" x="394.18" y="0">TION PER REGION</tspan></text>
    <g id="figure_1" data-name="figure 1">
      <g id="patch_1" data-name="patch 1">
        <path class="cls-11" d="M6.37,381.31h512V82.31H6.37v299Z"/>
      </g>
      <g id="axes_1" data-name="axes 1">
        <g id="patch_2" data-name="patch 2">
          <path class="cls-11" d="M75.7,352.27h434.99V100.91H75.7v251.35Z"/>
        </g>
        <g id="patch_3" data-name="patch 3">
          <g class="cls-34">
            <path class="cls-33" d="M75.7,340.84h293.52v-38.08H75.7v38.08Z"/>
          </g>
        </g>
        <g id="patch_4" data-name="patch 4">
          <g class="cls-6">
            <path class="cls-33" d="M75.7,293.24h332.01v-38.08H75.7v38.08Z"/>
          </g>
        </g>
        <g id="patch_5" data-name="patch 5">
          <g class="cls-9">
            <path class="cls-33" d="M75.7,245.63h334.95v-38.08H75.7v38.08Z"/>
          </g>
        </g>
        <g id="patch_6" data-name="patch 6">
          <g class="cls-7">
            <path class="cls-33" d="M75.7,198.03h379.02v-38.08H75.7v38.08Z"/>
          </g>
        </g>
        <g id="patch_7" data-name="patch 7">
          <g class="cls-8">
            <path class="cls-3" d="M75.7,150.42h414.28v-38.08H75.7v38.08Z"/>
          </g>
        </g>
        <g id="matplotlib.axis_1" data-name="matplotlib.axis 1">
          <g id="xtick_1" data-name="xtick 1">
            <g id="line2d_1" data-name="line2d 1">
              <path id="m79574c8694" class="cls-20" d="M75.7,352.27v2.42"/>
            </g>
            <g id="text_1" data-name="text 1">
              <path id="DejaVuSans-30" d="M75.7,357.77c-.36,0-.63.17-.81.52-.18.35-.27.87-.27,1.56s.09,1.21.27,1.56c.18.35.45.52.81.52s.64-.17.82-.52c.18-.35.27-.86.27-1.56s-.09-1.21-.27-1.56c-.18-.35-.45-.52-.82-.52ZM75.7,357.23c.58,0,1.03.22,1.33.67.31.45.46,1.1.46,1.95s-.15,1.5-.46,1.95c-.31.45-.75.67-1.33.67s-1.02-.22-1.33-.67c-.31-.45-.46-1.1-.46-1.95s.15-1.5.46-1.95c.31-.45.75-.67,1.33-.67Z"/>
            </g>
          </g>
          <g id="xtick_2" data-name="xtick 2">
            <g id="line2d_2" data-name="line2d 2">
              <path id="m79574c8694-2" data-name="m79574c8694" class="cls-20" d="M134.46,352.27v2.42"/>
            </g>
            <g id="text_2" data-name="text 2">
              <path id="DejaVuSans-32" d="M133.57,361.8h2.45v.57h-3.29v-.57c.27-.27.63-.63,1.09-1.08.46-.45.75-.74.87-.87.22-.25.38-.45.47-.62.09-.17.13-.34.13-.5,0-.27-.1-.49-.29-.66-.19-.17-.45-.25-.76-.25-.22,0-.45.04-.7.11-.24.07-.5.19-.78.34v-.69c.28-.11.55-.19.79-.25.25-.06.47-.08.67-.08.54,0,.97.13,1.28.39.32.26.48.61.48,1.05,0,.21-.04.4-.12.59-.08.19-.22.4-.44.66-.06.07-.24.25-.55.57-.31.31-.75.75-1.31,1.31Z"/>
            </g>
          </g>
          <g id="xtick_3" data-name="xtick 3">
            <g id="line2d_3" data-name="line2d 3">
              <path id="m79574c8694-3" data-name="m79574c8694" class="cls-20" d="M193.23,352.27v2.42"/>
            </g>
            <g id="text_3" data-name="text 3">
              <path id="DejaVuSans-34" d="M193.65,357.92l-1.77,2.69h1.77v-2.69ZM193.47,357.32h.88v3.29h.74v.57h-.74v1.19h-.7v-1.19h-2.34v-.66l2.16-3.2Z"/>
            </g>
          </g>
          <g id="xtick_4" data-name="xtick 4">
            <g id="line2d_4" data-name="line2d 4">
              <path id="m79574c8694-4" data-name="m79574c8694" class="cls-20" d="M251.99,352.27v2.42"/>
            </g>
            <g id="text_4" data-name="text 4">
              <path id="DejaVuSans-36" d="M252.08,359.58c-.31,0-.56.1-.75.31-.18.21-.28.5-.28.86s.09.65.28.86c.18.21.43.32.75.32s.56-.11.75-.32c.18-.21.28-.5.28-.86s-.09-.65-.28-.86c-.18-.21-.43-.31-.75-.31ZM253.47,357.44v.62c-.18-.08-.35-.14-.53-.18-.18-.04-.36-.06-.53-.06-.46,0-.82.15-1.06.46-.24.3-.38.76-.42,1.38.14-.2.31-.35.51-.45.21-.1.43-.16.68-.16.52,0,.93.15,1.23.46.3.31.45.73.45,1.25s-.16.93-.47,1.25c-.31.31-.73.47-1.26.47-.6,0-1.06-.22-1.38-.67-.32-.45-.48-1.1-.48-1.95,0-.8.19-1.43.58-1.91.39-.47.91-.71,1.57-.71.18,0,.35.02.53.05s.37.08.56.15Z"/>
            </g>
          </g>
          <g id="xtick_5" data-name="xtick 5">
            <g id="line2d_5" data-name="line2d 5">
              <path id="m79574c8694-5" data-name="m79574c8694" class="cls-20" d="M310.75,352.27v2.42"/>
            </g>
            <g id="text_5" data-name="text 5">
              <path id="DejaVuSans-38" d="M310.75,359.97c-.33,0-.6.09-.79.26-.19.17-.29.41-.29.72s.1.54.29.72c.19.17.45.26.79.26s.6-.09.79-.26c.19-.18.29-.41.29-.72s-.1-.54-.29-.72c-.19-.17-.45-.26-.79-.26ZM310.05,359.68c-.3-.07-.54-.21-.7-.41-.17-.2-.25-.45-.25-.73,0-.4.15-.72.44-.96.3-.23.7-.35,1.21-.35s.92.12,1.22.35.44.55.44.96c0,.29-.08.53-.25.73-.17.2-.4.34-.7.41.34.08.6.23.79.45.19.22.28.49.28.82,0,.49-.15.87-.46,1.13-.31.26-.75.39-1.32.39s-1.01-.13-1.32-.39c-.31-.26-.46-.64-.46-1.13,0-.32.09-.59.28-.82.19-.22.45-.37.79-.45ZM309.79,358.61c0,.26.08.46.25.61.17.15.4.22.71.22s.54-.07.71-.22c.17-.15.26-.35.26-.61s-.09-.47-.26-.61c-.17-.15-.41-.22-.71-.22s-.54.07-.71.22c-.17.15-.25.35-.25.61Z"/>
            </g>
          </g>
          <g id="xtick_6" data-name="xtick 6">
            <g id="line2d_6" data-name="line2d 6">
              <path id="m79574c8694-6" data-name="m79574c8694" class="cls-20" d="M369.52,352.27v2.42"/>
            </g>
            <g id="text_6" data-name="text 6">
              <g>
                <path id="DejaVuSans-31" d="M365.87,361.8h1.15v-3.85l-1.25.24v-.62l1.24-.24h.7v4.47h1.15v.57h-2.99v-.57Z"/>
                <path id="DejaVuSans-30-2" data-name="DejaVuSans-30" d="M371.78,357.77c-.36,0-.63.17-.81.52-.18.35-.27.87-.27,1.56s.09,1.21.27,1.56c.18.35.45.52.81.52s.64-.17.82-.52c.18-.35.27-.86.27-1.56s-.09-1.21-.27-1.56c-.18-.35-.45-.52-.82-.52ZM371.78,357.23c.58,0,1.03.22,1.33.67.31.45.46,1.1.46,1.95s-.15,1.5-.46,1.95c-.31.45-.75.67-1.33.67s-1.02-.22-1.33-.67c-.31-.45-.46-1.1-.46-1.95s.15-1.5.46-1.95c.31-.45.75-.67,1.33-.67Z"/>
              </g>
            </g>
          </g>
          <g id="xtick_7" data-name="xtick 7">
            <g id="line2d_7" data-name="line2d 7">
              <path id="m79574c8694-7" data-name="m79574c8694" class="cls-20" d="M428.28,352.27v2.42"/>
            </g>
            <g id="text_7" data-name="text 7">
              <g>
                <path id="DejaVuSans-31-2" data-name="DejaVuSans-31" d="M424.64,361.8h1.15v-3.85l-1.25.24v-.62l1.24-.24h.7v4.47h1.15v.57h-2.99v-.57Z"/>
                <path id="DejaVuSans-32-2" data-name="DejaVuSans-32" d="M429.64,361.8h2.45v.57h-3.29v-.57c.27-.27.63-.63,1.09-1.08.46-.45.75-.74.87-.87.22-.25.38-.45.47-.62.09-.17.13-.34.13-.5,0-.27-.1-.49-.29-.66-.19-.17-.45-.25-.76-.25-.22,0-.45.04-.7.11-.24.07-.5.19-.78.34v-.69c.28-.11.55-.19.79-.25.25-.06.47-.08.67-.08.54,0,.97.13,1.28.39.32.26.48.61.48,1.05,0,.21-.04.4-.12.59-.08.19-.22.4-.44.66-.06.07-.24.25-.55.57-.31.31-.75.75-1.31,1.31Z"/>
              </g>
            </g>
          </g>
          <g id="xtick_8" data-name="xtick 8">
            <g id="line2d_8" data-name="line2d 8">
              <path id="m79574c8694-8" data-name="m79574c8694" class="cls-20" d="M487.04,352.27v2.42"/>
            </g>
            <g id="text_8" data-name="text 8">
              <g>
                <path id="DejaVuSans-31-3" data-name="DejaVuSans-31" d="M483.4,361.8h1.15v-3.85l-1.25.24v-.62l1.24-.24h.7v4.47h1.15v.57h-2.99v-.57Z"/>
                <path id="DejaVuSans-34-2" data-name="DejaVuSans-34" d="M489.73,357.92l-1.77,2.69h1.77v-2.69ZM489.55,357.32h.88v3.29h.74v.57h-.74v1.19h-.7v-1.19h-2.34v-.66l2.16-3.2Z"/>
              </g>
            </g>
          </g>
          <g id="text_9" data-name="text 9">
            <g>
              <path id="DejaVuSans-50" d="M270.9,367.35v1.9h.88c.33,0,.58-.08.76-.25.18-.16.27-.4.27-.7s-.09-.54-.27-.7c-.18-.16-.43-.25-.76-.25h-.88ZM270.2,366.79h1.58c.58,0,1.02.13,1.32.38.3.26.45.63.45,1.12s-.15.87-.45,1.13c-.3.25-.74.38-1.32.38h-.88v2.03h-.7v-5.05Z"/>
              <path id="DejaVuSans-45" d="M274.49,366.79h3.28v.58h-2.58v1.49h2.47v.57h-2.47v1.83h2.64v.57h-3.34v-5.05Z"/>
              <path id="DejaVuSans-28" d="M282.75,366.59c-.31.52-.54,1.03-.69,1.54-.15.51-.23,1.02-.23,1.54s.08,1.03.23,1.55.38,1.02.69,1.54h-.56c-.35-.53-.61-1.05-.78-1.56-.17-.51-.26-1.02-.26-1.52s.09-1.01.26-1.52c.17-.51.43-1.03.78-1.56h.56Z"/>
              <path id="DejaVuSans-4d" d="M284.01,366.79h1.05l1.32,3.43,1.33-3.43h1.05v5.05h-.68v-4.43l-1.34,3.46h-.7l-1.34-3.46v4.43h-.68v-5.05Z"/>
              <path id="DejaVuSans-4a" d="M290.15,366.79h.7v4.69c0,.61-.12,1.05-.36,1.32-.24.27-.62.41-1.14.41h-.27v-.57h.22c.31,0,.53-.08.66-.25.13-.17.19-.47.19-.91v-4.69Z"/>
              <path id="DejaVuSans-2f" d="M295.61,366.79h.59l-1.81,5.69h-.59l1.81-5.69Z"/>
              <path id="DejaVuSans-6b" d="M299.11,366.58h.64v3.11l1.91-1.63h.82l-2.06,1.77,2.15,2.01h-.83l-1.98-1.85v1.85h-.64v-5.26Z"/>
              <path id="DejaVuSans-57" d="M302.82,366.79h.71l1.09,4.27,1.09-4.27h.79l1.09,4.27,1.09-4.27h.71l-1.3,5.05h-.88l-1.09-4.38-1.1,4.38h-.88l-1.3-5.05Z"/>
              <path id="DejaVuSans-68" d="M313.52,369.55v2.29h-.64v-2.26c0-.36-.07-.63-.22-.8-.14-.18-.36-.27-.65-.27-.35,0-.62.11-.82.32-.2.21-.3.51-.3.87v2.14h-.64v-5.26h.64v2.06c.15-.23.33-.4.54-.51.21-.11.45-.17.72-.17.45,0,.78.13,1.01.4.23.27.34.66.34,1.19Z"/>
              <path id="DejaVuSans-29" d="M314.69,366.59h.56c.35.53.61,1.05.78,1.56.17.51.26,1.01.26,1.52s-.09,1.01-.26,1.52c-.17.51-.43,1.03-.78,1.56h-.56c.31-.52.54-1.03.69-1.54.15-.51.23-1.03.23-1.55s-.08-1.03-.23-1.54c-.15-.51-.38-1.02-.69-1.54Z"/>
            </g>
          </g>
        </g>
        <g id="matplotlib.axis_2" data-name="matplotlib.axis 2">
          <g id="ytick_1" data-name="ytick 1">
            <g id="line2d_9" data-name="line2d 9">
              <path id="m76664e3566" class="cls-20" d="M75.7,321.8h-2.49"/>
            </g>
            <g id="text_10" data-name="text 10">
              <g>
                <path id="DejaVuSans-57-2" data-name="DejaVuSans-57" d="M33.9,319.38h.71l1.09,4.27,1.09-4.27h.79l1.09,4.27,1.09-4.27h.71l-1.3,5.05h-.88l-1.09-4.38-1.1,4.38h-.88l-1.3-5.05Z"/>
                <path id="DejaVuSans-6f" d="M42.45,321.08c-.34,0-.61.13-.81.39s-.3.62-.3,1.07.1.81.3,1.07c.2.26.47.39.81.39s.61-.13.81-.39c.2-.26.3-.62.3-1.07s-.1-.8-.3-1.07c-.2-.26-.47-.39-.81-.39ZM42.45,320.55c.56,0,.99.18,1.31.53.32.35.48.84.48,1.46s-.16,1.11-.48,1.46c-.32.35-.75.53-1.31.53s-.99-.18-1.31-.53c-.32-.35-.47-.84-.47-1.46s.16-1.11.47-1.46c.32-.35.75-.53,1.31-.53Z"/>
                <path id="DejaVuSans-72" d="M47.55,321.22c-.07-.04-.15-.07-.23-.09-.08-.02-.18-.03-.28-.03-.36,0-.64.11-.83.34s-.29.56-.29.99v1.99h-.64v-3.79h.64v.59c.13-.23.31-.4.52-.51.22-.11.48-.17.79-.17.04,0,.09,0,.15,0,.05,0,.11.01.18.02v.64Z"/>
                <path id="DejaVuSans-6c" d="M48.22,319.17h.64v5.26h-.64v-5.26Z"/>
                <path id="DejaVuSans-64" d="M52.76,321.22v-2.05h.64v5.26h-.64v-.57c-.13.22-.3.39-.51.5-.2.11-.45.16-.74.16-.47,0-.85-.18-1.15-.55-.29-.37-.44-.85-.44-1.44s.15-1.07.44-1.44c.3-.36.68-.55,1.15-.55.29,0,.53.05.74.16.21.11.37.28.51.5ZM50.58,322.54c0,.46.1.82.29,1.08.19.26.46.39.8.39s.6-.13.8-.39c.19-.26.29-.62.29-1.08s-.1-.82-.29-1.08c-.19-.26-.46-.39-.8-.39s-.6.13-.8.39-.29.62-.29,1.08Z"/>
                <path id="DejaVuSans-77" d="M54.34,320.64h.64l.8,2.95.79-2.95h.75l.8,2.95.8-2.95h.64l-1.02,3.79h-.75l-.84-3.1-.84,3.1h-.75l-1.02-3.79Z"/>
                <path id="DejaVuSans-69" d="M60.53,320.64h.64v3.79h-.64v-3.79ZM60.53,319.17h.64v.79h-.64v-.79Z"/>
                <path id="DejaVuSans-64-2" data-name="DejaVuSans-64" d="M65.06,321.22v-2.05h.64v5.26h-.64v-.57c-.13.22-.3.39-.51.5-.2.11-.45.16-.74.16-.47,0-.85-.18-1.15-.55-.29-.37-.44-.85-.44-1.44s.15-1.07.44-1.44c.3-.36.68-.55,1.15-.55.29,0,.53.05.74.16.21.11.37.28.51.5ZM62.89,322.54c0,.46.1.82.29,1.08.19.26.46.39.8.39s.6-.13.8-.39c.19-.26.29-.62.29-1.08s-.1-.82-.29-1.08c-.19-.26-.46-.39-.8-.39s-.6.13-.8.39-.29.62-.29,1.08Z"/>
                <path id="DejaVuSans-65" d="M70.34,322.38v.3h-2.94c.03.43.16.75.4.98.24.22.57.34.99.34.25,0,.48-.03.71-.09s.46-.15.69-.26v.59c-.23.09-.46.17-.71.22s-.48.07-.73.07c-.62,0-1.11-.18-1.47-.53-.36-.35-.54-.83-.54-1.43s.17-1.11.52-1.47c.34-.36.81-.55,1.39-.55.52,0,.94.16,1.24.49.3.33.46.77.46,1.34ZM69.7,322.2c0-.34-.1-.61-.29-.81-.19-.2-.44-.3-.76-.3-.36,0-.64.1-.86.29s-.34.47-.37.83h2.28Z"/>
              </g>
            </g>
          </g>
          <g id="ytick_2" data-name="ytick 2">
            <g id="line2d_10" data-name="line2d 10">
              <path id="m76664e3566-2" data-name="m76664e3566" class="cls-20" d="M75.7,274.19h-2.49"/>
            </g>
            <g id="text_11" data-name="text 11">
              <g>
                <path id="DejaVuSans-46" d="M47.77,271.78h2.98v.58h-2.28v1.49h2.06v.57h-2.06v2.41h-.7v-5.05Z"/>
                <path id="DejaVuSans-72-2" data-name="DejaVuSans-72" d="M53.57,273.62c-.07-.04-.15-.07-.23-.09-.08-.02-.18-.03-.28-.03-.36,0-.64.11-.83.34s-.29.56-.29.99v1.99h-.64v-3.79h.64v.59c.13-.23.31-.4.52-.51.22-.11.48-.17.79-.17.04,0,.09,0,.15,0,.05,0,.11.01.18.02v.64Z"/>
                <path id="DejaVuSans-61" d="M56.01,274.92c-.52,0-.87.06-1.07.17s-.3.31-.3.59c0,.22.07.4.22.53.15.13.35.19.61.19.35,0,.64-.12.85-.37s.32-.57.32-.97v-.14h-.64ZM57.29,274.66v2.16h-.64v-.57c-.15.23-.33.4-.55.51-.22.11-.48.16-.8.16-.4,0-.71-.11-.95-.33-.23-.22-.35-.51-.35-.87,0-.43.15-.75.44-.96.29-.22.73-.32,1.31-.32h.9v-.06c0-.29-.1-.51-.29-.66s-.46-.23-.81-.23c-.22,0-.44.03-.65.08-.21.05-.41.13-.61.23v-.58c.23-.09.46-.15.68-.2.22-.04.43-.07.64-.07.56,0,.98.14,1.26.43.28.28.42.71.42,1.29Z"/>
                <path id="DejaVuSans-6e" d="M61.83,274.54v2.29h-.64v-2.26c0-.36-.07-.63-.22-.8-.14-.18-.36-.27-.65-.27-.35,0-.62.11-.82.32-.2.21-.3.51-.3.87v2.14h-.64v-3.79h.64v.59c.15-.23.33-.4.54-.51.21-.11.45-.17.72-.17.45,0,.78.13,1.01.4.23.27.34.66.34,1.19Z"/>
                <path id="DejaVuSans-63" d="M65.91,273.18v.58c-.18-.1-.36-.17-.54-.22s-.36-.07-.55-.07c-.41,0-.74.13-.97.38-.23.26-.34.61-.34,1.08s.11.82.34,1.08c.23.26.55.38.97.38.19,0,.37-.02.55-.07s.36-.12.54-.22v.58c-.18.08-.36.14-.55.18-.19.04-.39.06-.61.06-.59,0-1.05-.18-1.4-.54-.34-.36-.52-.84-.52-1.45s.17-1.1.52-1.46c.35-.35.83-.53,1.43-.53.2,0,.39.02.58.06.19.04.37.1.55.18Z"/>
                <path id="DejaVuSans-65-2" data-name="DejaVuSans-65" d="M70.34,274.78v.3h-2.94c.03.43.16.75.4.98.24.22.57.34.99.34.25,0,.48-.03.71-.09s.46-.15.69-.26v.59c-.23.09-.46.17-.71.22s-.48.07-.73.07c-.62,0-1.11-.18-1.47-.53-.36-.35-.54-.83-.54-1.43s.17-1.11.52-1.47c.34-.36.81-.55,1.39-.55.52,0,.94.16,1.24.49.3.33.46.77.46,1.34ZM69.71,274.59c0-.34-.1-.61-.29-.81-.19-.2-.44-.3-.76-.3-.36,0-.64.1-.86.29s-.34.47-.37.83h2.28Z"/>
              </g>
            </g>
          </g>
          <g id="ytick_3" data-name="ytick 3">
            <g id="line2d_11" data-name="line2d 11">
              <path id="m76664e3566-3" data-name="m76664e3566" class="cls-20" d="M75.7,226.59h-2.49"/>
            </g>
            <g id="text_12" data-name="text 12">
              <g>
                <path id="DejaVuSans-55" d="M56.62,224.17h.71v3.07c0,.54.1.93.3,1.17.2.24.53.36.98.36s.77-.12.98-.36c.2-.24.3-.63.3-1.17v-3.07h.7v3.15c0,.66-.17,1.15-.5,1.49-.33.34-.83.5-1.48.5s-1.15-.17-1.49-.5c-.33-.34-.5-.83-.5-1.49v-3.15Z"/>
                <path id="DejaVuSans-53" d="M65.02,224.34v.67c-.27-.12-.52-.22-.75-.28-.24-.06-.46-.09-.68-.09-.38,0-.68.07-.88.22-.21.14-.31.35-.31.62,0,.22.07.39.21.51.14.11.4.2.78.27l.42.08c.52.1.91.27,1.16.51s.37.57.37.98c0,.49-.17.86-.51,1.11-.34.25-.83.38-1.48.38-.25,0-.51-.03-.78-.08-.28-.05-.56-.13-.86-.24v-.7c.28.16.56.27.84.35.27.08.54.12.81.12.4,0,.71-.08.93-.23.22-.15.33-.37.33-.66,0-.25-.08-.44-.23-.58s-.41-.24-.77-.31l-.43-.08c-.52-.1-.9-.26-1.14-.48-.23-.22-.35-.52-.35-.9,0-.45.16-.8.48-1.05.32-.26.77-.38,1.33-.38.24,0,.49.02.74.06.25.04.51.11.77.19Z"/>
                <path id="DejaVuSans-41" d="M68.29,224.85l-.95,2.51h1.91l-.95-2.51ZM67.89,224.17h.8l1.98,5.05h-.73l-.47-1.29h-2.34l-.47,1.29h-.74l1.98-5.05Z"/>
              </g>
            </g>
          </g>
          <g id="ytick_4" data-name="ytick 4">
            <g id="line2d_12" data-name="line2d 12">
              <path id="m76664e3566-4" data-name="m76664e3566" class="cls-20" d="M75.7,178.98h-2.49"/>
            </g>
            <g id="text_13" data-name="text 13">
              <g>
                <path id="DejaVuSans-45-2" data-name="DejaVuSans-45" d="M24.76,176.57h3.28v.58h-2.58v1.49h2.47v.57h-2.47v1.83h2.64v.57h-3.34v-5.05Z"/>
                <path id="DejaVuSans-75" d="M29.16,180.12v-2.29h.64v2.27c0,.36.07.63.21.81.14.18.36.27.65.27.34,0,.62-.11.82-.32.2-.21.3-.51.3-.88v-2.15h.64v3.79h-.64v-.58c-.15.23-.33.4-.54.51-.2.11-.44.17-.71.17-.45,0-.79-.14-1.02-.41-.23-.27-.35-.67-.35-1.19Z"/>
                <path id="DejaVuSans-72-3" data-name="DejaVuSans-72" d="M35.98,178.41c-.07-.04-.15-.07-.23-.09-.08-.02-.18-.03-.28-.03-.36,0-.64.11-.83.34s-.29.56-.29.99v1.99h-.64v-3.79h.64v.59c.13-.23.31-.4.52-.51.22-.11.48-.17.79-.17.04,0,.09,0,.15,0,.05,0,.11.01.18.02v.64Z"/>
                <path id="DejaVuSans-6f-2" data-name="DejaVuSans-6f" d="M38,178.26c-.34,0-.61.13-.81.39s-.3.62-.3,1.07.1.81.3,1.07c.2.26.47.39.81.39s.61-.13.81-.39c.2-.26.3-.62.3-1.07s-.1-.8-.3-1.07c-.2-.26-.47-.39-.81-.39ZM38,177.74c.56,0,.99.18,1.31.53.32.35.48.84.48,1.46s-.16,1.11-.48,1.46c-.32.35-.75.53-1.31.53s-.99-.18-1.31-.53c-.32-.35-.47-.84-.47-1.46s.16-1.11.47-1.46c.32-.35.75-.53,1.31-.53Z"/>
                <path id="DejaVuSans-70" d="M41.46,181.05v2.01h-.64v-5.22h.64v.57c.13-.22.3-.39.51-.5.21-.11.45-.16.73-.16.47,0,.86.18,1.15.55.3.36.44.84.44,1.44s-.15,1.07-.44,1.44c-.29.36-.68.55-1.15.55-.28,0-.53-.05-.73-.16-.2-.11-.37-.28-.51-.5ZM43.63,179.72c0-.46-.1-.82-.29-1.08s-.46-.39-.8-.39-.6.13-.8.39-.29.62-.29,1.08.1.82.29,1.08c.19.26.46.39.8.39s.6-.13.8-.39c.19-.26.29-.62.29-1.08Z"/>
                <path id="DejaVuSans-65-3" data-name="DejaVuSans-65" d="M48.68,179.57v.3h-2.94c.03.43.16.75.4.98.24.22.57.34.99.34.25,0,.48-.03.71-.09s.46-.15.69-.26v.59c-.23.09-.46.17-.71.22s-.48.07-.73.07c-.62,0-1.11-.18-1.47-.53-.36-.35-.54-.83-.54-1.43s.17-1.11.52-1.47c.34-.36.81-.55,1.39-.55.52,0,.94.16,1.24.49.3.33.46.77.46,1.34ZM48.04,179.38c0-.34-.1-.61-.29-.81-.19-.2-.44-.3-.76-.3-.36,0-.64.1-.86.29s-.34.47-.37.83h2.28Z"/>
                <path id="DejaVuSans-28-2" data-name="DejaVuSans-28" d="M53.53,176.36c-.31.52-.54,1.03-.69,1.54-.15.51-.23,1.02-.23,1.54s.08,1.03.23,1.55.38,1.02.69,1.54h-.56c-.35-.53-.61-1.05-.78-1.56-.17-.51-.26-1.02-.26-1.52s.09-1.01.26-1.52c.17-.51.43-1.03.78-1.56h.56Z"/>
                <path id="DejaVuSans-45-3" data-name="DejaVuSans-45" d="M54.79,176.57h3.28v.58h-2.58v1.49h2.47v.57h-2.47v1.83h2.64v.57h-3.34v-5.05Z"/>
                <path id="DejaVuSans-45-4" data-name="DejaVuSans-45" d="M59.29,176.57h3.28v.58h-2.58v1.49h2.47v.57h-2.47v1.83h2.64v.57h-3.34v-5.05Z"/>
                <path id="DejaVuSans-41-2" data-name="DejaVuSans-41" d="M65.51,177.24l-.95,2.51h1.91l-.95-2.51ZM65.12,176.57h.8l1.98,5.05h-.73l-.47-1.29h-2.34l-.47,1.29h-.74l1.98-5.05Z"/>
                <path id="DejaVuSans-29-2" data-name="DejaVuSans-29" d="M68.52,176.36h.56c.35.53.61,1.05.78,1.56.17.51.26,1.01.26,1.52s-.09,1.01-.26,1.52c-.17.51-.43,1.03-.78,1.56h-.56c.31-.52.54-1.03.69-1.54.15-.51.23-1.03.23-1.55s-.08-1.03-.23-1.54c-.15-.51-.38-1.02-.69-1.54Z"/>
              </g>
            </g>
          </g>
          <g id="ytick_5" data-name="ytick 5">
            <g id="line2d_13" data-name="line2d 13">
              <path id="m76664e3566-5" data-name="m76664e3566" class="cls-20" d="M75.7,131.38h-2.49"/>
            </g>
            <g id="text_14" data-name="text 14">
              <g>
                <path id="DejaVuSans-43" d="M54.99,129.35v.72c-.24-.21-.49-.37-.76-.48-.27-.11-.55-.16-.85-.16-.59,0-1.05.18-1.36.53s-.47.86-.47,1.53.16,1.17.47,1.53.77.53,1.36.53c.3,0,.58-.05.85-.16s.52-.27.76-.48v.71c-.25.16-.51.28-.78.37-.27.08-.56.12-.87.12-.79,0-1.4-.23-1.86-.7-.45-.47-.68-1.11-.68-1.92s.23-1.45.68-1.92c.45-.47,1.07-.7,1.86-.7.31,0,.6.04.88.12.27.08.53.2.77.36Z"/>
                <path id="DejaVuSans-68-2" data-name="DejaVuSans-68" d="M59.28,131.72v2.29h-.64v-2.26c0-.36-.07-.63-.22-.8-.14-.18-.36-.27-.65-.27-.35,0-.62.11-.82.32-.2.21-.3.51-.3.87v2.14h-.64v-5.26h.64v2.06c.15-.23.33-.4.54-.51.21-.11.45-.17.72-.17.45,0,.78.13,1.01.4.23.27.34.66.34,1.19Z"/>
                <path id="DejaVuSans-69-2" data-name="DejaVuSans-69" d="M60.55,130.22h.64v3.79h-.64v-3.79ZM60.55,128.75h.64v.79h-.64v-.79Z"/>
                <path id="DejaVuSans-6e-2" data-name="DejaVuSans-6e" d="M65.76,131.72v2.29h-.64v-2.26c0-.36-.07-.63-.22-.8-.14-.18-.36-.27-.65-.27-.35,0-.62.11-.82.32-.2.21-.3.51-.3.87v2.14h-.64v-3.79h.64v.59c.15-.23.33-.4.54-.51.21-.11.45-.17.72-.17.45,0,.78.13,1.01.4.23.27.34.66.34,1.19Z"/>
                <path id="DejaVuSans-61-2" data-name="DejaVuSans-61" d="M68.8,132.11c-.52,0-.87.06-1.07.17s-.3.31-.3.59c0,.22.07.4.22.53.15.13.35.19.61.19.35,0,.64-.12.85-.37s.32-.57.32-.97v-.14h-.64ZM70.08,131.85v2.16h-.64v-.57c-.15.23-.33.4-.55.51-.22.11-.48.16-.8.16-.4,0-.71-.11-.95-.33-.23-.22-.35-.51-.35-.87,0-.43.15-.75.44-.96.29-.22.73-.32,1.31-.32h.9v-.06c0-.29-.1-.51-.29-.66s-.46-.23-.81-.23c-.22,0-.44.03-.65.08-.21.05-.41.13-.61.23v-.58c.23-.09.46-.15.68-.2.22-.04.43-.07.64-.07.56,0,.98.14,1.26.43.28.28.42.71.42,1.29Z"/>
              </g>
            </g>
          </g>
          <g id="text_15" data-name="text 15">
            <g>
              <path id="DejaVuSans-41-3" data-name="DejaVuSans-41" d="M15.24,251.67l2.58.93v-1.86l-2.58.93ZM14.55,252.06v-.77l5.18-1.92v.71l-1.33.46v2.27l1.33.46v.72l-5.18-1.93Z"/>
              <path id="DejaVuSans-72-4" data-name="DejaVuSans-72" d="M16.44,246.46c-.04.07-.07.15-.09.23-.02.08-.03.17-.03.27,0,.35.12.62.35.81s.57.28,1.01.28h2.05v.63h-3.89v-.63h.6c-.24-.13-.41-.3-.53-.51-.11-.21-.17-.46-.17-.76,0-.04,0-.09,0-.14,0-.05.01-.11.03-.17h.66Z"/>
              <path id="DejaVuSans-65-4" data-name="DejaVuSans-65" d="M17.63,242.72h.31v2.86c.44-.03.78-.16,1.01-.39.23-.23.35-.55.35-.96,0-.24-.03-.47-.09-.69s-.15-.45-.27-.67h.6c.1.22.17.45.22.69s.08.47.08.71c0,.6-.18,1.08-.54,1.44-.36.35-.85.53-1.47.53s-1.14-.17-1.51-.5c-.37-.33-.56-.79-.56-1.35,0-.51.17-.91.51-1.21.34-.3.79-.44,1.37-.44ZM17.44,243.35c-.35,0-.63.1-.84.29-.21.19-.31.43-.31.74,0,.35.1.62.3.83s.49.33.85.36v-2.22Z"/>
              <path id="DejaVuSans-61-3" data-name="DejaVuSans-61" d="M17.78,239.98c0,.5.06.85.18,1.04s.32.29.6.29c.23,0,.41-.07.54-.22.13-.15.2-.34.2-.59,0-.35-.13-.62-.38-.83s-.58-.31-1-.31h-.14v.62ZM17.52,238.74h2.22v.62h-.59c.24.14.41.32.52.53.11.21.17.47.17.78,0,.39-.11.7-.34.92-.22.23-.52.34-.9.34-.44,0-.77-.14-.99-.43-.22-.29-.33-.71-.33-1.28v-.87h-.06c-.29,0-.52.09-.68.28s-.24.45-.24.79c0,.22.03.43.08.63.05.2.13.4.24.59h-.59c-.09-.23-.16-.45-.2-.66-.05-.21-.07-.42-.07-.63,0-.55.15-.96.44-1.23.29-.27.73-.41,1.33-.41Z"/>
              <path id="DejaVuSans-6f-3" data-name="DejaVuSans-6f" d="M16.29,233.8c0,.33.13.6.4.79s.63.29,1.1.29.83-.1,1.1-.29c.27-.19.4-.46.4-.79s-.13-.59-.4-.79c-.27-.19-.63-.29-1.1-.29s-.83.1-1.1.29c-.27.19-.4.46-.4.79ZM15.75,233.8c0-.54.18-.97.54-1.27.36-.31.86-.46,1.5-.46s1.14.15,1.5.46c.36.31.54.73.54,1.27s-.18.97-.54,1.28c-.36.31-.86.46-1.5.46s-1.14-.15-1.5-.46c-.36-.31-.54-.73-.54-1.28Z"/>
              <path id="DejaVuSans-72-5" data-name="DejaVuSans-72" d="M16.44,228.83c-.04.07-.07.15-.09.23-.02.08-.03.17-.03.27,0,.35.12.62.35.81s.57.28,1.01.28h2.05v.63h-3.89v-.63h.6c-.24-.13-.41-.3-.53-.51-.11-.21-.17-.46-.17-.76,0-.04,0-.09,0-.14,0-.05.01-.11.03-.17h.66Z"/>
              <path id="DejaVuSans-43-2" data-name="DejaVuSans-43" d="M14.95,222.18h.74c-.22.23-.38.48-.49.74-.11.26-.16.54-.16.83,0,.58.18,1.02.54,1.32s.89.46,1.57.46,1.21-.15,1.57-.46.54-.75.54-1.32c0-.29-.05-.57-.16-.83s-.27-.51-.49-.74h.73c.17.24.29.49.38.76.08.27.12.55.12.85,0,.76-.24,1.37-.72,1.81-.48.44-1.14.66-1.97.66s-1.49-.22-1.97-.66c-.48-.44-.72-1.04-.72-1.81,0-.3.04-.59.12-.85.08-.27.21-.52.37-.75Z"/>
              <path id="DejaVuSans-6f-4" data-name="DejaVuSans-6f" d="M16.29,219.68c0,.33.13.6.4.79s.63.29,1.1.29.83-.1,1.1-.29c.27-.19.4-.46.4-.79s-.13-.59-.4-.79c-.27-.19-.63-.29-1.1-.29s-.83.1-1.1.29c-.27.19-.4.46-.4.79ZM15.75,219.68c0-.54.18-.97.54-1.27.36-.31.86-.46,1.5-.46s1.14.15,1.5.46c.36.31.54.73.54,1.27s-.18.97-.54,1.28c-.36.31-.86.46-1.5.46s-1.14-.15-1.5-.46c-.36-.31-.54-.73-.54-1.28Z"/>
              <path id="DejaVuSans-75-2" data-name="DejaVuSans-75" d="M18.2,216.98h-2.35v-.62h2.33c.37,0,.64-.07.83-.21.18-.14.28-.35.28-.63,0-.34-.11-.6-.33-.79-.22-.2-.52-.29-.9-.29h-2.2v-.62h3.89v.62h-.6c.24.15.41.33.53.53.11.2.17.43.17.69,0,.43-.14.76-.42.99-.28.22-.68.34-1.22.34Z"/>
              <path id="DejaVuSans-6e-3" data-name="DejaVuSans-6e" d="M17.39,209.38h2.35v.62h-2.33c-.37,0-.64.07-.83.21-.18.14-.27.35-.27.63,0,.34.11.6.33.79.22.19.52.29.9.29h2.2v.63h-3.89v-.63h.6c-.23-.15-.41-.32-.52-.53-.12-.2-.17-.43-.17-.7,0-.43.14-.76.41-.99.28-.22.68-.34,1.22-.34Z"/>
              <path id="DejaVuSans-74" d="M14.74,207.53h1.1v-1.28h.5v1.28h2.11c.32,0,.52-.04.61-.13s.14-.26.14-.52v-.64h.53v.64c0,.48-.09.81-.28.99-.18.18-.52.27-1.01.27h-2.11v.46h-.5v-.46h-1.1v-.63Z"/>
              <path id="DejaVuSans-72-6" data-name="DejaVuSans-72" d="M16.44,203.23c-.04.07-.07.15-.09.23-.02.08-.03.17-.03.27,0,.35.12.62.35.81s.57.28,1.01.28h2.05v.63h-3.89v-.63h.6c-.24-.13-.41-.3-.53-.51-.11-.21-.17-.46-.17-.76,0-.04,0-.09,0-.14,0-.05.01-.11.03-.17h.66Z"/>
              <path id="DejaVuSans-79" d="M20.1,201.01c.46.18.76.35.91.51.14.17.21.39.21.67v.5h-.53v-.37c0-.17-.04-.3-.13-.4-.08-.1-.28-.2-.59-.31l-.29-.11-3.83,1.53v-.66l3.04-1.18-3.04-1.18v-.66l4.25,1.66Z"/>
            </g>
          </g>
        </g>
        <g id="patch_8" data-name="patch 8">
          <path class="cls-2" d="M75.7,352.27V100.91"/>
        </g>
        <g id="patch_9" data-name="patch 9">
          <path class="cls-2" d="M510.69,352.27V100.91"/>
        </g>
        <g id="patch_10" data-name="patch 10">
          <path class="cls-2" d="M75.7,352.27h434.99"/>
        </g>
        <g id="patch_11" data-name="patch 11">
          <path class="cls-2" d="M75.7,100.91h434.99"/>
        </g>
        <g id="text_16" data-name="text 16">
          <g>
            <path id="DejaVuSans-Bold-31" class="cls-11" d="M337.82,322.81h1.18v-3.26l-1.21.24v-.89l1.2-.24h1.27v4.15h1.18v.9h-3.63v-.9Z"/>
            <path id="DejaVuSans-Bold-30" class="cls-11" d="M345.21,321.18c0-.63-.06-1.07-.18-1.33-.12-.26-.33-.39-.61-.39s-.49.13-.61.39c-.12.26-.18.7-.18,1.33s.06,1.09.18,1.35c.12.26.33.39.61.39s.49-.13.61-.39c.12-.26.18-.71.18-1.35ZM346.54,321.19c0,.84-.19,1.48-.56,1.93s-.9.68-1.58.68-1.21-.23-1.58-.68c-.37-.45-.56-1.1-.56-1.93s.19-1.48.56-1.94c.37-.45.9-.68,1.58-.68s1.21.23,1.58.68c.37.45.56,1.1.56,1.94Z"/>
            <path id="DejaVuSans-Bold-2e" class="cls-11" d="M347.61,322.4h1.25v1.31h-1.25v-1.31Z"/>
            <path id="DejaVuSans-Bold-30-2" data-name="DejaVuSans-Bold-30" class="cls-11" d="M352.86,321.18c0-.63-.06-1.07-.18-1.33-.12-.26-.33-.39-.61-.39s-.49.13-.61.39c-.12.26-.18.7-.18,1.33s.06,1.09.18,1.35c.12.26.33.39.61.39s.49-.13.61-.39c.12-.26.18-.71.18-1.35ZM354.19,321.19c0,.84-.19,1.48-.56,1.93s-.9.68-1.58.68-1.21-.23-1.58-.68c-.37-.45-.56-1.1-.56-1.93s.19-1.48.56-1.94c.37-.45.9-.68,1.58-.68s1.21.23,1.58.68c.37.45.56,1.1.56,1.94Z"/>
          </g>
        </g>
        <g id="text_17" data-name="text 17">
          <g>
            <path id="DejaVuSans-Bold-31-2" data-name="DejaVuSans-Bold-31" class="cls-11" d="M376.31,275.2h1.18v-3.26l-1.21.24v-.89l1.2-.24h1.27v4.15h1.18v.9h-3.63v-.9Z"/>
            <path id="DejaVuSans-Bold-31-3" data-name="DejaVuSans-Bold-31" class="cls-11" d="M381.26,275.2h1.18v-3.26l-1.21.24v-.89l1.2-.24h1.27v4.15h1.18v.9h-3.63v-.9Z"/>
            <path id="DejaVuSans-Bold-2e-2" data-name="DejaVuSans-Bold-2e" class="cls-11" d="M386.1,274.8h1.25v1.31h-1.25v-1.31Z"/>
            <path id="DejaVuSans-Bold-33" class="cls-11" d="M391.39,273.38c.35.09.62.24.8.46.18.22.27.49.27.83,0,.5-.2.88-.59,1.14-.39.26-.97.39-1.72.39-.27,0-.53-.02-.8-.06-.27-.04-.53-.1-.79-.19v-1c.25.12.5.21.74.28.25.06.49.09.73.09.35,0,.63-.06.81-.18.19-.12.28-.29.28-.51s-.1-.4-.29-.52-.48-.18-.86-.18h-.53v-.84h.56c.34,0,.59-.05.75-.15.16-.1.25-.26.25-.47,0-.19-.08-.34-.24-.45-.16-.11-.38-.16-.68-.16-.21,0-.43.02-.65.07-.22.05-.44.12-.66.21v-.95c.26-.07.53-.13.78-.16s.51-.05.76-.05c.67,0,1.18.11,1.51.32.33.21.5.54.5.97,0,.29-.08.54-.24.72-.16.19-.4.32-.71.4Z"/>
          </g>
        </g>
        <g id="text_18" data-name="text 18">
          <g>
            <path id="DejaVuSans-Bold-31-4" data-name="DejaVuSans-Bold-31" class="cls-11" d="M379.25,227.6h1.18v-3.26l-1.21.24v-.89l1.2-.24h1.27v4.15h1.18v.9h-3.63v-.9Z"/>
            <path id="DejaVuSans-Bold-31-5" data-name="DejaVuSans-Bold-31" class="cls-11" d="M384.2,227.6h1.18v-3.26l-1.21.24v-.89l1.2-.24h1.27v4.15h1.18v.9h-3.63v-.9Z"/>
            <path id="DejaVuSans-Bold-2e-3" data-name="DejaVuSans-Bold-2e" class="cls-11" d="M389.04,227.19h1.25v1.31h-1.25v-1.31Z"/>
            <path id="DejaVuSans-Bold-34" class="cls-11" d="M393.63,224.52l-1.46,2.11h1.46v-2.11ZM393.41,223.45h1.49v3.18h.74v.94h-.74v.92h-1.26v-.92h-2.3v-1.11l2.08-3.01Z"/>
          </g>
        </g>
        <g id="text_19" data-name="text 19">
          <g>
            <path id="DejaVuSans-Bold-31-6" data-name="DejaVuSans-Bold-31" class="cls-11" d="M423.32,180h1.18v-3.26l-1.21.24v-.89l1.2-.24h1.27v4.15h1.18v.9h-3.63v-.9Z"/>
            <path id="DejaVuSans-Bold-32" class="cls-11" d="M429.48,179.94h2.28v.96h-3.77v-.96l1.89-1.63c.17-.15.29-.29.38-.44s.12-.29.12-.44c0-.24-.08-.43-.24-.57s-.38-.22-.65-.22c-.21,0-.44.04-.68.13-.25.09-.51.22-.79.39v-1.11c.3-.1.6-.17.89-.22.29-.05.58-.08.86-.08.62,0,1.1.13,1.45.4.34.27.52.64.52,1.11,0,.27-.07.53-.22.77-.15.24-.45.56-.92.95l-1.11.95Z"/>
            <path id="DejaVuSans-Bold-2e-4" data-name="DejaVuSans-Bold-2e" class="cls-11" d="M433.11,179.59h1.25v1.31h-1.25v-1.31Z"/>
            <path id="DejaVuSans-Bold-39" class="cls-11" d="M435.8,180.78v-.93c.21.1.42.17.61.22.19.05.39.07.58.07.4,0,.71-.11.93-.32.22-.22.35-.53.39-.96-.16.11-.32.2-.5.25s-.37.08-.58.08c-.53,0-.96-.15-1.28-.45-.33-.3-.49-.7-.49-1.19,0-.54.18-.98.54-1.31s.85-.49,1.46-.49c.68,0,1.2.22,1.57.67.37.44.56,1.07.56,1.88s-.22,1.49-.65,1.97c-.43.48-1.03.71-1.78.71-.24,0-.48-.02-.7-.05-.22-.03-.44-.09-.65-.16ZM437.45,178.35c.23,0,.41-.07.53-.22.12-.15.18-.37.18-.67s-.06-.51-.18-.66c-.12-.15-.29-.22-.53-.22s-.41.07-.53.22c-.12.15-.18.37-.18.66s.06.52.18.67c.12.15.29.22.53.22Z"/>
          </g>
        </g>
        <g id="text_20" data-name="text 20">
          <g>
            <path id="DejaVuSans-Bold-31-7" data-name="DejaVuSans-Bold-31" class="cls-11" d="M458.58,132.39h1.18v-3.26l-1.21.24v-.89l1.2-.24h1.27v4.15h1.18v.9h-3.63v-.9Z"/>
            <path id="DejaVuSans-Bold-34-2" data-name="DejaVuSans-Bold-34" class="cls-11" d="M465.31,129.31l-1.46,2.11h1.46v-2.11ZM465.09,128.24h1.49v3.18h.74v.94h-.74v.92h-1.26v-.92h-2.3v-1.11l2.08-3.01Z"/>
            <path id="DejaVuSans-Bold-2e-5" data-name="DejaVuSans-Bold-2e" class="cls-11" d="M468.37,131.98h1.25v1.31h-1.25v-1.31Z"/>
            <path id="DejaVuSans-Bold-31-8" data-name="DejaVuSans-Bold-31" class="cls-11" d="M471.18,132.39h1.18v-3.26l-1.21.24v-.89l1.2-.24h1.27v4.15h1.18v.9h-3.63v-.9Z"/>
          </g>
        </g>
        <g id="text_21" data-name="text 21">
          <g>
            <path id="DejaVuSans-50-2" data-name="DejaVuSans-50" d="M209.93,91.38v2.27h1.06c.39,0,.69-.1.91-.3.21-.2.32-.48.32-.84s-.11-.64-.32-.84c-.21-.2-.52-.3-.91-.3h-1.06ZM209.09,90.7h1.9c.7,0,1.22.15,1.58.46.36.31.54.76.54,1.35s-.18,1.05-.54,1.35c-.36.31-.88.46-1.58.46h-1.06v2.43h-.84v-6.06Z"/>
            <path id="DejaVuSans-72-7" data-name="DejaVuSans-72" d="M216.75,92.91c-.09-.05-.18-.08-.28-.11-.1-.02-.21-.04-.33-.04-.43,0-.77.14-1,.41s-.35.67-.35,1.18v2.39h-.77v-4.54h.77v.71c.16-.28.37-.48.63-.61.26-.13.57-.2.94-.2.05,0,.11,0,.17.01.06,0,.13.02.21.03v.77Z"/>
            <path id="DejaVuSans-69-3" data-name="DejaVuSans-69" d="M217.56,92.22h.77v4.54h-.77v-4.54ZM217.56,90.45h.77v.95h-.77v-.95Z"/>
            <path id="DejaVuSans-6d" d="M223.56,93.09c.19-.34.42-.58.69-.74s.58-.24.94-.24c.49,0,.86.17,1.13.5.26.33.4.8.4,1.41v2.74h-.77v-2.72c0-.44-.08-.76-.24-.97-.16-.21-.4-.32-.72-.32-.4,0-.71.13-.94.39-.23.26-.35.61-.35,1.05v2.57h-.77v-2.72c0-.44-.08-.76-.24-.97s-.4-.31-.73-.31c-.39,0-.7.13-.93.39-.23.26-.35.61-.35,1.05v2.57h-.77v-4.54h.77v.71c.18-.28.38-.48.63-.62s.53-.2.87-.2.63.08.87.25c.24.17.41.41.53.73Z"/>
            <path id="DejaVuSans-61-4" data-name="DejaVuSans-61" d="M230.36,94.48c-.62,0-1.05.07-1.29.21s-.36.37-.36.71c0,.26.09.47.27.63.18.15.42.23.73.23.43,0,.77-.15,1.02-.44s.39-.68.39-1.17v-.17h-.76ZM231.89,94.17v2.59h-.77v-.69c-.18.28-.39.48-.65.61-.26.13-.58.2-.96.2-.48,0-.86-.13-1.14-.39-.28-.26-.42-.61-.42-1.05,0-.51.18-.9.53-1.15.35-.26.88-.39,1.57-.39h1.08v-.07c0-.34-.12-.61-.35-.8s-.56-.28-.98-.28c-.27,0-.53.03-.78.09-.25.06-.5.16-.73.28v-.69c.28-.11.55-.18.82-.24.26-.05.52-.08.77-.08.68,0,1.18.17,1.51.51.33.34.5.86.5,1.55Z"/>
            <path id="DejaVuSans-72-8" data-name="DejaVuSans-72" d="M236.17,92.91c-.09-.05-.18-.08-.28-.11-.1-.02-.21-.04-.33-.04-.43,0-.77.14-1,.41s-.35.67-.35,1.18v2.39h-.77v-4.54h.77v.71c.16-.28.37-.48.63-.61.26-.13.57-.2.94-.2.05,0,.11,0,.17.01.06,0,.13.02.21.03v.77Z"/>
            <path id="DejaVuSans-79-2" data-name="DejaVuSans-79" d="M238.92,97.18c-.22.54-.43.89-.63,1.06-.21.17-.48.25-.82.25h-.61v-.62h.45c.21,0,.37-.05.49-.15.12-.1.25-.33.39-.69l.14-.34-1.89-4.47h.81l1.46,3.55,1.46-3.55h.81l-2.05,4.96Z"/>
            <path id="DejaVuSans-45-5" data-name="DejaVuSans-45" d="M244.77,90.7h3.93v.69h-3.09v1.79h2.96v.69h-2.96v2.19h3.17v.69h-4.01v-6.06Z"/>
            <path id="DejaVuSans-6e-4" data-name="DejaVuSans-6e" d="M254.01,94.02v2.74h-.77v-2.72c0-.43-.09-.75-.26-.96-.17-.21-.43-.32-.77-.32-.41,0-.74.13-.98.39-.24.26-.36.61-.36,1.05v2.57h-.77v-4.54h.77v.71c.18-.27.4-.48.65-.61.25-.13.54-.2.86-.2.54,0,.94.16,1.22.48.28.32.41.8.41,1.42Z"/>
            <path id="DejaVuSans-65-5" data-name="DejaVuSans-65" d="M259.53,94.3v.36h-3.53c.03.51.19.91.48,1.17.28.27.68.4,1.19.4.29,0,.58-.04.86-.11s.55-.18.82-.32v.71c-.28.11-.56.2-.85.26s-.58.09-.88.09c-.74,0-1.33-.21-1.77-.63-.43-.42-.65-.99-.65-1.71s.21-1.33.62-1.77c.41-.44.97-.66,1.67-.66.63,0,1.12.2,1.49.59.37.39.55.93.55,1.6ZM258.77,94.08c0-.41-.12-.73-.35-.98-.23-.24-.53-.37-.91-.37-.43,0-.77.12-1.03.35s-.4.57-.44.99h2.73Z"/>
            <path id="DejaVuSans-72-9" data-name="DejaVuSans-72" d="M263.49,92.91c-.09-.05-.18-.08-.28-.11-.1-.02-.21-.04-.33-.04-.43,0-.77.14-1,.41s-.35.67-.35,1.18v2.39h-.77v-4.54h.77v.71c.16-.28.37-.48.63-.61.26-.13.57-.2.94-.2.05,0,.11,0,.17.01.06,0,.13.02.21.03v.77Z"/>
            <path id="DejaVuSans-67" d="M267.22,94.43c0-.54-.11-.96-.34-1.26-.23-.3-.55-.45-.96-.45s-.73.15-.96.45c-.23.3-.34.72-.34,1.26s.11.96.34,1.25c.23.3.55.45.96.45s.74-.15.96-.45c.23-.3.34-.72.34-1.25ZM267.99,96.2c0,.77-.18,1.35-.53,1.72-.35.38-.89.57-1.62.57-.27,0-.52-.02-.76-.06s-.47-.1-.7-.18v-.73c.22.12.45.21.67.26.22.06.44.09.67.09.5,0,.88-.13,1.13-.38.25-.26.37-.64.37-1.16v-.37c-.16.27-.36.47-.61.6s-.54.2-.89.2c-.57,0-1.03-.21-1.38-.64-.35-.42-.53-.99-.53-1.69s.18-1.27.53-1.69c.35-.42.81-.64,1.38-.64.34,0,.64.07.89.2s.45.33.61.6v-.69h.77v3.98Z"/>
            <path id="DejaVuSans-79-3" data-name="DejaVuSans-79" d="M271.51,97.18c-.22.54-.43.89-.63,1.06-.21.17-.48.25-.82.25h-.61v-.62h.45c.21,0,.37-.05.49-.15.12-.1.25-.33.39-.69l.14-.34-1.89-4.47h.81l1.46,3.55,1.46-3.55h.81l-2.05,4.96Z"/>
            <path id="DejaVuSans-43-3" data-name="DejaVuSans-43" d="M282.02,91.17v.86c-.28-.26-.59-.45-.91-.57-.32-.13-.66-.19-1.02-.19-.71,0-1.26.21-1.63.63s-.57,1.03-.57,1.84.19,1.41.57,1.83.92.63,1.63.63c.36,0,.7-.06,1.02-.19s.62-.32.91-.58v.86c-.29.19-.61.34-.94.44-.33.1-.68.15-1.04.15-.94,0-1.68-.28-2.23-.84-.54-.56-.81-1.33-.81-2.3s.27-1.74.81-2.3c.54-.56,1.28-.84,2.23-.84.37,0,.72.05,1.05.14.33.1.64.24.93.43Z"/>
            <path id="DejaVuSans-6f-5" data-name="DejaVuSans-6f" d="M285.1,92.74c-.41,0-.74.16-.97.47s-.36.74-.36,1.28.12.97.36,1.28c.24.31.56.47.98.47s.73-.16.97-.47c.24-.31.36-.74.36-1.28s-.12-.96-.36-1.28c-.24-.31-.56-.47-.97-.47ZM285.1,92.11c.67,0,1.19.21,1.57.63.38.42.57,1,.57,1.75s-.19,1.33-.57,1.75c-.38.42-.9.63-1.57.63s-1.19-.21-1.57-.63c-.38-.42-.57-1.01-.57-1.75s.19-1.33.57-1.75c.38-.42.9-.63,1.57-.63Z"/>
            <path id="DejaVuSans-6e-5" data-name="DejaVuSans-6e" d="M292.39,94.02v2.74h-.77v-2.72c0-.43-.09-.75-.26-.96-.17-.21-.43-.32-.77-.32-.41,0-.74.13-.98.39-.24.26-.36.61-.36,1.05v2.57h-.77v-4.54h.77v.71c.18-.27.4-.48.65-.61.25-.13.54-.2.86-.2.54,0,.94.16,1.22.48.28.32.41.8.41,1.42Z"/>
            <path id="DejaVuSans-73" d="M296.89,92.35v.71c-.22-.11-.44-.19-.67-.24-.23-.05-.47-.08-.73-.08-.38,0-.67.06-.86.17-.19.11-.29.28-.29.51,0,.17.07.31.2.41s.41.19.82.28l.26.06c.54.11.93.27,1.16.48s.34.5.34.87c0,.42-.17.76-.51,1-.34.25-.81.37-1.41.37-.25,0-.51-.02-.78-.07-.27-.05-.56-.12-.86-.21v-.77c.28.14.56.25.84.32.27.07.55.11.82.11.36,0,.64-.06.83-.18.19-.12.29-.29.29-.51,0-.2-.07-.36-.21-.47-.14-.11-.45-.21-.92-.31l-.27-.06c-.47-.1-.82-.25-1.03-.45-.21-.2-.32-.48-.32-.83,0-.43.16-.76.47-.99.31-.23.75-.35,1.33-.35.28,0,.55.02.8.06.25.04.48.1.69.18Z"/>
            <path id="DejaVuSans-75-3" data-name="DejaVuSans-75" d="M298.28,94.97v-2.75h.77v2.72c0,.43.09.75.26.97.17.21.43.32.78.32.41,0,.74-.13.98-.39.24-.26.36-.61.36-1.05v-2.57h.77v4.54h-.77v-.7c-.19.28-.4.48-.65.62-.25.13-.53.2-.86.2-.54,0-.94-.16-1.22-.49-.28-.32-.42-.8-.42-1.42Z"/>
            <path id="DejaVuSans-6d-2" data-name="DejaVuSans-6d" d="M307.4,93.09c.19-.34.42-.58.69-.74s.58-.24.94-.24c.49,0,.86.17,1.13.5.26.33.4.8.4,1.41v2.74h-.77v-2.72c0-.44-.08-.76-.24-.97-.16-.21-.4-.32-.72-.32-.4,0-.71.13-.94.39-.23.26-.35.61-.35,1.05v2.57h-.77v-2.72c0-.44-.08-.76-.24-.97s-.4-.31-.73-.31c-.39,0-.7.13-.93.39-.23.26-.35.61-.35,1.05v2.57h-.77v-4.54h.77v.71c.18-.28.38-.48.63-.62s.53-.2.87-.2.63.08.87.25c.24.17.41.41.53.73Z"/>
            <path id="DejaVuSans-70-2" data-name="DejaVuSans-70" d="M312.82,96.08v2.41h-.77v-6.27h.77v.69c.16-.27.37-.47.61-.6.25-.13.54-.2.88-.2.57,0,1.03.22,1.38.66.35.44.53,1.01.53,1.73s-.18,1.29-.53,1.73c-.35.44-.81.66-1.38.66-.34,0-.64-.07-.88-.2-.25-.13-.45-.33-.61-.6ZM315.43,94.49c0-.55-.12-.98-.35-1.29s-.55-.47-.96-.47-.73.16-.96.47-.35.74-.35,1.29.12.98.35,1.29c.23.31.55.47.96.47s.72-.16.96-.47c.23-.31.35-.74.35-1.29Z"/>
            <path id="DejaVuSans-74-2" data-name="DejaVuSans-74" d="M318.26,90.93v1.29h1.58v.58h-1.58v2.47c0,.37.05.61.16.71s.32.16.64.16h.79v.62h-.79c-.59,0-1-.11-1.23-.32-.22-.22-.34-.61-.34-1.17v-2.47h-.56v-.58h.56v-1.29h.77Z"/>
            <path id="DejaVuSans-69-4" data-name="DejaVuSans-69" d="M320.85,92.22h.77v4.54h-.77v-4.54ZM320.85,90.45h.77v.95h-.77v-.95Z"/>
            <path id="DejaVuSans-6f-6" data-name="DejaVuSans-6f" d="M325.02,92.74c-.41,0-.74.16-.97.47s-.36.74-.36,1.28.12.97.36,1.28c.24.31.56.47.98.47s.73-.16.97-.47c.24-.31.36-.74.36-1.28s-.12-.96-.36-1.28c-.24-.31-.56-.47-.97-.47ZM325.02,92.11c.67,0,1.19.21,1.57.63.38.42.57,1,.57,1.75s-.19,1.33-.57,1.75c-.38.42-.9.63-1.57.63s-1.19-.21-1.57-.63c-.38-.42-.57-1.01-.57-1.75s.19-1.33.57-1.75c.38-.42.9-.63,1.57-.63Z"/>
            <path id="DejaVuSans-6e-6" data-name="DejaVuSans-6e" d="M332.32,94.02v2.74h-.77v-2.72c0-.43-.09-.75-.26-.96-.17-.21-.43-.32-.77-.32-.41,0-.74.13-.98.39-.24.26-.36.61-.36,1.05v2.57h-.77v-4.54h.77v.71c.18-.27.4-.48.65-.61.25-.13.54-.2.86-.2.54,0,.94.16,1.22.48.28.32.41.8.41,1.42Z"/>
            <path id="DejaVuSans-62" d="M339.91,94.49c0-.55-.12-.98-.35-1.29s-.55-.47-.96-.47-.73.16-.96.47-.35.74-.35,1.29.12.98.35,1.29c.23.31.55.47.96.47s.72-.16.96-.47c.23-.31.35-.74.35-1.29ZM337.3,92.91c.16-.27.37-.47.61-.6.25-.13.54-.2.88-.2.57,0,1.03.22,1.38.66.35.44.53,1.01.53,1.73s-.18,1.29-.53,1.73c-.35.44-.81.66-1.38.66-.34,0-.64-.07-.88-.2-.25-.13-.45-.33-.61-.6v.68h-.77v-6.31h.77v2.46Z"/>
            <path id="DejaVuSans-79-4" data-name="DejaVuSans-79" d="M343.92,97.18c-.22.54-.43.89-.63,1.06-.21.17-.48.25-.82.25h-.61v-.62h.45c.21,0,.37-.05.49-.15.12-.1.25-.33.39-.69l.14-.34-1.89-4.47h.81l1.46,3.55,1.46-3.55h.81l-2.05,4.96Z"/>
            <path id="DejaVuSans-52" d="M352.72,93.92c.18.06.36.19.53.38s.34.46.51.8l.85,1.65h-.91l-.79-1.55c-.21-.41-.41-.67-.6-.81s-.46-.2-.79-.2h-.92v2.56h-.84v-6.06h1.9c.71,0,1.24.14,1.59.43.35.29.53.73.53,1.31,0,.38-.09.7-.27.95-.18.25-.45.42-.79.52ZM350.61,91.38v2.15h1.06c.41,0,.71-.09.92-.27s.31-.45.31-.8-.1-.62-.31-.8-.51-.27-.92-.27h-1.06Z"/>
            <path id="DejaVuSans-65-6" data-name="DejaVuSans-65" d="M359.27,94.3v.36h-3.53c.03.51.19.91.48,1.17.28.27.68.4,1.19.4.29,0,.58-.04.86-.11s.55-.18.82-.32v.71c-.28.11-.56.2-.85.26s-.58.09-.88.09c-.74,0-1.33-.21-1.77-.63-.43-.42-.65-.99-.65-1.71s.21-1.33.62-1.77c.41-.44.97-.66,1.67-.66.63,0,1.12.2,1.49.59.37.39.55.93.55,1.6ZM358.51,94.08c0-.41-.12-.73-.35-.98-.23-.24-.53-.37-.91-.37-.43,0-.77.12-1.03.35s-.4.57-.44.99h2.73Z"/>
            <path id="DejaVuSans-67-2" data-name="DejaVuSans-67" d="M363.6,94.43c0-.54-.11-.96-.34-1.26-.23-.3-.55-.45-.96-.45s-.73.15-.96.45c-.23.3-.34.72-.34,1.26s.11.96.34,1.25c.23.3.55.45.96.45s.74-.15.96-.45c.23-.3.34-.72.34-1.25ZM364.37,96.2c0,.77-.18,1.35-.53,1.72-.35.38-.89.57-1.62.57-.27,0-.52-.02-.76-.06s-.47-.1-.7-.18v-.73c.22.12.45.21.67.26.22.06.44.09.67.09.5,0,.88-.13,1.13-.38.25-.26.37-.64.37-1.16v-.37c-.16.27-.36.47-.61.6s-.54.2-.89.2c-.57,0-1.03-.21-1.38-.64-.35-.42-.53-.99-.53-1.69s.18-1.27.53-1.69c.35-.42.81-.64,1.38-.64.34,0,.64.07.89.2s.45.33.61.6v-.69h.77v3.98Z"/>
            <path id="DejaVuSans-69-5" data-name="DejaVuSans-69" d="M365.95,92.22h.77v4.54h-.77v-4.54ZM365.95,90.45h.77v.95h-.77v-.95Z"/>
            <path id="DejaVuSans-6f-7" data-name="DejaVuSans-6f" d="M370.13,92.74c-.41,0-.74.16-.97.47s-.36.74-.36,1.28.12.97.36,1.28c.24.31.56.47.98.47s.73-.16.97-.47c.24-.31.36-.74.36-1.28s-.12-.96-.36-1.28c-.24-.31-.56-.47-.97-.47ZM370.13,92.11c.67,0,1.19.21,1.57.63.38.42.57,1,.57,1.75s-.19,1.33-.57,1.75c-.38.42-.9.63-1.57.63s-1.19-.21-1.57-.63c-.38-.42-.57-1.01-.57-1.75s.19-1.33.57-1.75c.38-.42.9-.63,1.57-.63Z"/>
            <path id="DejaVuSans-6e-7" data-name="DejaVuSans-6e" d="M377.42,94.02v2.74h-.77v-2.72c0-.43-.09-.75-.26-.96-.17-.21-.43-.32-.77-.32-.41,0-.74.13-.98.39-.24.26-.36.61-.36,1.05v2.57h-.77v-4.54h.77v.71c.18-.27.4-.48.65-.61.25-.13.54-.2.86-.2.54,0,.94.16,1.22.48.28.32.41.8.41,1.42Z"/>
          </g>
        </g>
      </g>
    </g>
    <text class="cls-4" transform="translate(518.35 153.08)"><tspan x="0" y="0">Chin</tspan><tspan class="cls-21" x="23.09" y="0">a</tspan><tspan class="cls-15" x="28.48" y="0">’</tspan><tspan x="30.1" y="0">s PE </tspan><tspan class="cls-26" x="52.22" y="0">v</tspan><tspan class="cls-5" x="57.95" y="0">alue indic</tspan><tspan class="cls-27" x="106.15" y="0">a</tspan><tspan class="cls-22" x="111.89" y="0">t</tspan><tspan x="115.79" y="0">es th</tspan><tspan class="cls-27" x="139.73" y="0">a</tspan><tspan x="145.46" y="0">t its</tspan><tspan x="0" y="14.4">ele</tspan><tspan class="cls-35" x="14.86" y="14.4">c</tspan><tspan x="20.39" y="14.4">t</tspan><tspan class="cls-37" x="24.36" y="14.4">r</tspan><tspan class="cls-12" x="28.33" y="14.4">ici</tspan><tspan class="cls-39" x="39.32" y="14.4">t</tspan><tspan class="cls-5" x="43.4" y="14.4">y gene</tspan><tspan class="cls-25" x="76.99" y="14.4">r</tspan><tspan class="cls-27" x="80.85" y="14.4">a</tspan><tspan x="86.59" y="14.4" xml:space="preserve">tion is  highly</tspan><tspan x="0" y="28.8">ene</tspan><tspan class="cls-32" x="18.68" y="28.8">r</tspan><tspan x="22.51" y="28.8">g</tspan><tspan class="cls-24" x="29.22" y="28.8">y</tspan><tspan class="cls-12" x="34.82" y="28.8">-i</tspan><tspan class="cls-27" x="41.32" y="28.8">n</tspan><tspan class="cls-22" x="47.93" y="28.8">t</tspan><tspan x="51.83" y="28.8">ensi</tspan><tspan class="cls-30" x="72.06" y="28.8">v</tspan><tspan class="cls-28" x="77.71" y="28.8">e</tspan><tspan x="83.58" y="28.8">, p</tspan><tspan class="cls-37" x="95.43" y="28.8">r</tspan><tspan x="99.41" y="28.8">ima</tspan><tspan class="cls-36" x="118.01" y="28.8">r</tspan><tspan x="121.98" y="28.8">ily due </tspan><tspan class="cls-23" x="157.75" y="28.8">t</tspan><tspan x="161.65" y="28.8">o</tspan><tspan x="0" y="43.2">its </tspan><tspan class="cls-29" x="14.08" y="43.2">r</tspan><tspan x="17.88" y="43.2">elian</tspan><tspan class="cls-22" x="41.98" y="43.2">c</tspan><tspan x="47.28" y="43.2">e on</tspan><tspan class="cls-22" x="0" y="57.6">c</tspan><tspan x="5.3" y="57.6">oal-he</tspan><tspan class="cls-32" x="36.86" y="57.6">a</tspan><tspan class="cls-38" x="42.55" y="57.6">v</tspan><tspan x="48.47" y="57.6">y p</tspan><tspan class="cls-31" x="63.49" y="57.6">o</tspan><tspan class="cls-29" x="70" y="57.6">w</tspan><tspan x="78.71" y="57.6">er pla</tspan><tspan class="cls-24" x="106.63" y="57.6">n</tspan><tspan x="113.24" y="57.6">ts</tspan></text>
  </g>
</svg>