<?xml version="1.0" encoding="UTF-8"?>
<svg id="Layer_2" data-name="Layer 2" xmlns="http://www.w3.org/2000/svg" xmlns:xlink="http://www.w3.org/1999/xlink" viewBox="0 0 375 297">
  <defs>
    <style>
      .cls-1, .cls-2 {
        fill: none;
      }

      .cls-3 {
        fill: #000b84;
      }

      .cls-4 {
        letter-spacing: 0em;
      }

      .cls-5 {
        font-family: MyriadPro-Regular, 'Myriad Pro';
        font-size: 6px;
      }

      .cls-6 {
        clip-path: url(#clippath-1);
      }

      .cls-7 {
        clip-path: url(#clippath-3);
      }

      .cls-8 {
        clip-path: url(#clippath-4);
      }

      .cls-9 {
        clip-path: url(#clippath-2);
      }

      .cls-10 {
        fill: #fff;
      }

      .cls-11 {
        letter-spacing: 0em;
      }

      .cls-12 {
        letter-spacing: -.07em;
      }

      .cls-13 {
        stroke-linejoin: round;
      }

      .cls-13, .cls-2 {
        stroke: #000;
        stroke-width: .8px;
      }

      .cls-14 {
        letter-spacing: -.03em;
      }

      .cls-15 {
        letter-spacing: 0em;
      }

      .cls-16 {
        letter-spacing: 0em;
      }

      .cls-17 {
        letter-spacing: 0em;
      }

      .cls-18 {
        letter-spacing: 0em;
      }

      .cls-19 {
        letter-spacing: 0em;
      }

      .cls-20 {
        letter-spacing: 0em;
      }

      .cls-2 {
        stroke-linecap: square;
      }

      .cls-21 {
        letter-spacing: -.01em;
      }

      .cls-22 {
        letter-spacing: -.01em;
      }

      .cls-23 {
        letter-spacing: 0em;
      }

      .cls-24 {
        letter-spacing: 0em;
      }

      .cls-25 {
        letter-spacing: 0em;
      }

      .cls-26 {
        fill: #005f94;
      }

      .cls-27 {
        clip-path: url(#clippath);
      }

      .cls-28 {
        letter-spacing: .01em;
      }

      .cls-29 {
        letter-spacing: 0em;
      }

      .cls-30 {
        letter-spacing: 0em;
      }

      .cls-31 {
        letter-spacing: .01em;
      }

      .cls-32 {
        letter-spacing: 0em;
      }
    </style>
    <clipPath id="clippath">
      <rect class="cls-1" x="118.51" y="29.85" width="139.29" height="207.76"/>
    </clipPath>
    <clipPath id="clippath-1">
      <rect class="cls-1" x="118.51" y="29.85" width="139.29" height="207.76"/>
    </clipPath>
    <clipPath id="clippath-2">
      <rect class="cls-1" x="118.51" y="29.85" width="139.29" height="207.76"/>
    </clipPath>
    <clipPath id="clippath-3">
      <rect class="cls-1" x="118.51" y="29.85" width="139.29" height="207.76"/>
    </clipPath>
    <clipPath id="clippath-4">
      <rect class="cls-1" x="118.51" y="29.85" width="139.29" height="207.76"/>
    </clipPath>
  </defs>
  <g id="ai2html-settings">
    <rect class="cls-10" width="375" height="297"/>
    <g id="figure_1" data-name="figure 1">
      <g id="patch_1" data-name="patch 1">
        <path class="cls-10" d="M100.82,252h161V21H100.82v231Z"/>
      </g>
      <g id="axes_1" data-name="axes 1">
        <g id="patch_2" data-name="patch 2">
          <path class="cls-10" d="M118.51,237.61h139.29V29.86H118.51v207.76Z"/>
        </g>
        <g id="patch_3" data-name="patch 3">
          <g class="cls-27">
            <path class="cls-26" d="M124.84,237.61h21.1V97.42h-21.1v140.19Z"/>
          </g>
        </g>
        <g id="patch_4" data-name="patch 4">
          <g class="cls-6">
            <path class="cls-26" d="M151.22,237.61h21.1V79.04h-21.1v158.57Z"/>
          </g>
        </g>
        <g id="patch_5" data-name="patch 5">
          <g class="cls-9">
            <path class="cls-26" d="M177.6,237.61h21.1V77.64h-21.1v159.98Z"/>
          </g>
        </g>
        <g id="patch_6" data-name="patch 6">
          <g class="cls-7">
            <path class="cls-26" d="M203.98,237.61h21.1V56.59h-21.1v181.03Z"/>
          </g>
        </g>
        <g id="patch_7" data-name="patch 7">
          <g class="cls-8">
            <path class="cls-3" d="M230.36,237.61h21.1V39.75h-21.1v197.87Z"/>
          </g>
        </g>
        <g id="matplotlib.axis_1" data-name="matplotlib.axis 1">
          <g id="xtick_1" data-name="xtick 1">
            <g id="line2d_1" data-name="line2d 1">
              <path id="m20008f09e1" class="cls-13" d="M135.39,237.61v1.12"/>
            </g>
            <g id="text_1" data-name="text 1">
              <g>
                <path id="DejaVuSans-57" d="M125.8,239.96h.37l.57,1.98.57-1.98h.41l.57,1.98.57-1.98h.37l-.68,2.34h-.46l-.57-2.03-.58,2.03h-.46l-.68-2.34Z"/>
                <path id="DejaVuSans-6f" d="M130.29,240.74c-.18,0-.32.06-.43.18s-.16.29-.16.5.05.38.16.5c.1.12.25.18.43.18s.32-.06.42-.18c.1-.12.16-.29.16-.5s-.05-.37-.16-.49c-.1-.12-.25-.18-.42-.18ZM130.29,240.5c.29,0,.52.08.69.24.17.16.25.39.25.68s-.08.51-.25.68c-.17.16-.39.25-.69.25s-.52-.08-.69-.25c-.17-.16-.25-.39-.25-.68s.08-.51.25-.68c.17-.16.39-.24.69-.24Z"/>
                <path id="DejaVuSans-72" d="M132.96,240.81s-.08-.03-.12-.04c-.04,0-.09-.01-.15-.01-.19,0-.33.05-.44.16s-.15.26-.15.46v.92h-.34v-1.75h.34v.27c.07-.11.16-.19.27-.24.11-.05.25-.08.41-.08.02,0,.05,0,.08,0,.03,0,.06,0,.09.01v.3Z"/>
                <path id="DejaVuSans-6c" d="M133.31,239.86h.33v2.44h-.33v-2.44Z"/>
                <path id="DejaVuSans-64" d="M135.69,240.81v-.95h.33v2.44h-.33v-.26c-.07.1-.16.18-.27.23-.11.05-.24.08-.39.08-.25,0-.45-.08-.6-.25-.15-.17-.23-.39-.23-.67s.08-.5.23-.67c.15-.17.36-.25.6-.25.15,0,.28.03.39.08.11.05.2.13.27.23ZM134.54,241.42c0,.21.05.38.15.5.1.12.24.18.42.18s.32-.06.42-.18c.1-.12.15-.29.15-.5s-.05-.38-.15-.5c-.1-.12-.24-.18-.42-.18s-.32.06-.42.18-.15.29-.15.5Z"/>
                <path id="DejaVuSans-77" d="M136.52,240.54h.33l.42,1.37.42-1.37h.39l.42,1.37.42-1.37h.33l-.53,1.75h-.39l-.44-1.44-.44,1.44h-.4l-.53-1.75Z"/>
                <path id="DejaVuSans-69" d="M139.76,240.54h.33v1.75h-.33v-1.75ZM139.76,239.86h.33v.37h-.33v-.37Z"/>
                <path id="DejaVuSans-64-2" data-name="DejaVuSans-64" d="M142.13,240.81v-.95h.33v2.44h-.33v-.26c-.07.1-.16.18-.27.23-.11.05-.24.08-.39.08-.25,0-.45-.08-.6-.25-.15-.17-.23-.39-.23-.67s.08-.5.23-.67c.15-.17.36-.25.6-.25.15,0,.28.03.39.08.11.05.2.13.27.23ZM140.99,241.42c0,.21.05.38.15.5.1.12.24.18.42.18s.32-.06.42-.18c.1-.12.15-.29.15-.5s-.05-.38-.15-.5c-.1-.12-.24-.18-.42-.18s-.32.06-.42.18-.15.29-.15.5Z"/>
                <path id="DejaVuSans-65" d="M144.9,241.35v.14h-1.54c.01.2.08.35.21.45.12.1.3.16.52.16.13,0,.25-.01.37-.04s.24-.07.36-.12v.27c-.12.04-.24.08-.37.1s-.25.03-.38.03c-.33,0-.58-.08-.77-.24-.19-.16-.28-.38-.28-.66s.09-.51.27-.68c.18-.17.42-.25.73-.25.27,0,.49.08.65.23.16.15.24.36.24.62ZM144.57,241.26c0-.16-.05-.28-.15-.38-.1-.09-.23-.14-.4-.14-.19,0-.34.05-.45.14s-.18.22-.19.38h1.19Z"/>
              </g>
            </g>
          </g>
          <g id="xtick_2" data-name="xtick 2">
            <g id="line2d_2" data-name="line2d 2">
              <path id="m20008f09e1-2" data-name="m20008f09e1" class="cls-13" d="M161.77,237.61v1.12"/>
            </g>
            <g id="text_2" data-name="text 2">
              <g>
                <path id="DejaVuSans-46" d="M155.94,239.96h1.56v.27h-1.19v.69h1.08v.27h-1.08v1.12h-.37v-2.34Z"/>
                <path id="DejaVuSans-72-2" data-name="DejaVuSans-72" d="M158.98,240.81s-.08-.03-.12-.04c-.04,0-.09-.01-.15-.01-.19,0-.33.05-.44.16s-.15.26-.15.46v.92h-.34v-1.75h.34v.27c.07-.11.16-.19.27-.24.11-.05.25-.08.41-.08.02,0,.05,0,.08,0,.03,0,.06,0,.09.01v.3Z"/>
                <path id="DejaVuSans-61" d="M160.26,241.42c-.27,0-.46.03-.56.08s-.16.14-.16.27c0,.1.04.18.12.24.08.06.18.09.32.09.19,0,.34-.06.45-.17s.17-.26.17-.45v-.06h-.33ZM160.93,241.3v1h-.33v-.27c-.08.11-.17.18-.29.24-.11.05-.25.08-.42.08-.21,0-.37-.05-.5-.15-.12-.1-.18-.24-.18-.41,0-.2.08-.35.23-.45.15-.1.38-.15.69-.15h.47v-.03c0-.13-.05-.24-.15-.31s-.24-.11-.43-.11c-.12,0-.23.01-.34.04-.11.02-.22.06-.32.11v-.27c.12-.04.24-.07.36-.09.12-.02.23-.03.34-.03.3,0,.52.07.66.2.15.13.22.33.22.6Z"/>
                <path id="DejaVuSans-6e" d="M163.31,241.24v1.06h-.33v-1.05c0-.17-.04-.29-.11-.37-.08-.08-.19-.12-.34-.12-.18,0-.32.05-.43.15-.1.1-.16.23-.16.41v.99h-.34v-1.75h.34v.27c.08-.11.17-.18.28-.24.11-.05.23-.08.38-.08.23,0,.41.06.53.19.12.12.18.31.18.55Z"/>
                <path id="DejaVuSans-63" d="M165.44,240.61v.27c-.09-.05-.19-.08-.28-.1s-.19-.03-.29-.03c-.22,0-.39.06-.51.18-.12.12-.18.28-.18.5s.06.38.18.5c.12.12.29.18.51.18.1,0,.19-.01.29-.03s.19-.06.28-.1v.27c-.09.04-.19.07-.29.08-.1.02-.21.03-.32.03-.31,0-.55-.08-.73-.25-.18-.17-.27-.39-.27-.67s.09-.51.27-.67c.18-.16.43-.25.75-.25.1,0,.2,0,.3.03.1.02.19.05.29.08Z"/>
                <path id="DejaVuSans-65-2" data-name="DejaVuSans-65" d="M167.77,241.35v.14h-1.54c.01.2.08.35.21.45.12.1.3.16.52.16.13,0,.25-.01.37-.04s.24-.07.36-.12v.27c-.12.04-.24.08-.37.1s-.25.03-.38.03c-.33,0-.58-.08-.77-.24-.19-.16-.28-.38-.28-.66s.09-.51.27-.68c.18-.17.42-.25.73-.25.27,0,.49.08.65.23.16.15.24.36.24.62ZM167.44,241.26c0-.16-.05-.28-.15-.38-.1-.09-.23-.14-.4-.14-.19,0-.34.05-.45.14s-.18.22-.19.38h1.19Z"/>
              </g>
            </g>
          </g>
          <g id="xtick_3" data-name="xtick 3">
            <g id="line2d_3" data-name="line2d 3">
              <path id="m20008f09e1-3" data-name="m20008f09e1" class="cls-13" d="M188.15,237.61v1.12"/>
            </g>
            <g id="text_3" data-name="text 3">
              <g>
                <path id="DejaVuSans-55" d="M184.62,239.96h.37v1.42c0,.25.05.43.16.54.11.11.28.16.51.16s.41-.05.51-.16c.11-.11.16-.29.16-.54v-1.42h.37v1.46c0,.3-.09.54-.26.69-.18.16-.43.23-.78.23s-.6-.08-.78-.23c-.18-.16-.26-.39-.26-.69v-1.46Z"/>
                <path id="DejaVuSans-53" d="M189.02,240.04v.31c-.14-.06-.27-.1-.39-.13-.12-.03-.24-.04-.36-.04-.2,0-.35.03-.46.1-.11.07-.16.16-.16.29,0,.1.04.18.11.23.07.05.21.09.41.13l.22.04c.27.05.48.12.61.24s.2.26.2.45c0,.23-.09.4-.26.52-.18.12-.43.18-.78.18-.13,0-.27-.01-.41-.04-.14-.03-.29-.06-.45-.11v-.33c.15.07.3.13.44.16.14.04.28.05.42.05.21,0,.37-.04.49-.11.11-.07.17-.17.17-.3,0-.11-.04-.2-.12-.27s-.22-.11-.4-.15l-.22-.04c-.27-.05-.47-.12-.6-.22-.12-.1-.18-.24-.18-.42,0-.21.08-.37.25-.49.17-.12.4-.18.7-.18.13,0,.26.01.39.03.13.02.27.05.41.09Z"/>
                <path id="DejaVuSans-41" d="M190.73,240.27l-.5,1.16h1l-.5-1.16ZM190.53,239.96h.42l1.04,2.34h-.38l-.25-.6h-1.22l-.25.6h-.39l1.04-2.34Z"/>
              </g>
            </g>
          </g>
          <g id="xtick_4" data-name="xtick 4">
            <g id="line2d_4" data-name="line2d 4">
              <path id="m20008f09e1-4" data-name="m20008f09e1" class="cls-13" d="M214.53,237.61v1.12"/>
            </g>
            <g id="text_4" data-name="text 4">
              <g>
                <path id="DejaVuSans-45" d="M202.67,239.96h1.72v.27h-1.35v.69h1.29v.27h-1.29v.85h1.38v.27h-1.75v-2.34Z"/>
                <path id="DejaVuSans-75" d="M204.98,241.61v-1.06h.33v1.05c0,.17.04.29.11.37.08.08.19.12.34.12.18,0,.32-.05.43-.15.11-.1.16-.23.16-.41v-.99h.33v1.75h-.33v-.27c-.08.11-.18.19-.28.24-.11.05-.23.08-.37.08-.23,0-.41-.06-.53-.19-.12-.13-.18-.31-.18-.55Z"/>
                <path id="DejaVuSans-72-3" data-name="DejaVuSans-72" d="M208.55,240.81s-.08-.03-.12-.04c-.04,0-.09-.01-.15-.01-.19,0-.33.05-.44.16s-.15.26-.15.46v.92h-.34v-1.75h.34v.27c.07-.11.16-.19.27-.24.11-.05.25-.08.41-.08.02,0,.05,0,.08,0,.03,0,.06,0,.09.01v.3Z"/>
                <path id="DejaVuSans-6f-2" data-name="DejaVuSans-6f" d="M209.61,240.74c-.18,0-.32.06-.43.18s-.16.29-.16.5.05.38.16.5c.1.12.25.18.43.18s.32-.06.42-.18c.1-.12.16-.29.16-.5s-.05-.37-.16-.49c-.1-.12-.25-.18-.42-.18ZM209.61,240.5c.29,0,.52.08.69.24.17.16.25.39.25.68s-.08.51-.25.68c-.17.16-.39.25-.69.25s-.52-.08-.69-.25c-.17-.16-.25-.39-.25-.68s.08-.51.25-.68c.17-.16.39-.24.69-.24Z"/>
                <path id="DejaVuSans-70" d="M211.43,242.03v.93h-.34v-2.42h.34v.27c.07-.1.16-.18.27-.23.11-.05.24-.08.38-.08.25,0,.45.08.6.25.15.17.23.39.23.67s-.08.5-.23.67c-.15.17-.36.25-.6.25-.15,0-.28-.03-.38-.08-.11-.05-.2-.13-.27-.23ZM212.57,241.42c0-.21-.05-.38-.15-.5s-.24-.18-.42-.18-.32.06-.42.18-.15.29-.15.5.05.38.15.5c.1.12.24.18.42.18s.32-.06.42-.18c.1-.12.15-.29.15-.5Z"/>
                <path id="DejaVuSans-65-3" data-name="DejaVuSans-65" d="M215.21,241.35v.14h-1.54c.01.2.08.35.21.45.12.1.3.16.52.16.13,0,.25-.01.37-.04s.24-.07.36-.12v.27c-.12.04-.24.08-.37.1s-.25.03-.38.03c-.33,0-.58-.08-.77-.24-.19-.16-.28-.38-.28-.66s.09-.51.27-.68c.18-.17.42-.25.73-.25.27,0,.49.08.65.23.16.15.24.36.24.62ZM214.88,241.26c0-.16-.05-.28-.15-.38-.1-.09-.23-.14-.4-.14-.19,0-.34.05-.45.14s-.18.22-.19.38h1.19Z"/>
                <path id="DejaVuSans-28" d="M217.75,239.86c-.16.24-.28.48-.36.71-.08.23-.12.47-.12.71s.04.48.12.72.2.47.36.71h-.29c-.18-.25-.32-.49-.41-.72-.09-.24-.14-.47-.14-.71s.04-.47.13-.7c.09-.24.23-.48.41-.72h.29Z"/>
                <path id="DejaVuSans-45-2" data-name="DejaVuSans-45" d="M218.41,239.96h1.72v.27h-1.35v.69h1.29v.27h-1.29v.85h1.38v.27h-1.75v-2.34Z"/>
                <path id="DejaVuSans-45-3" data-name="DejaVuSans-45" d="M220.77,239.96h1.72v.27h-1.35v.69h1.29v.27h-1.29v.85h1.38v.27h-1.75v-2.34Z"/>
                <path id="DejaVuSans-41-2" data-name="DejaVuSans-41" d="M224.03,240.27l-.5,1.16h1l-.5-1.16ZM223.82,239.96h.42l1.04,2.34h-.38l-.25-.6h-1.22l-.25.6h-.39l1.04-2.34Z"/>
                <path id="DejaVuSans-29" d="M225.61,239.86h.29c.18.25.32.49.41.72.09.24.14.47.14.7s-.05.47-.14.71c-.09.24-.23.48-.41.72h-.29c.16-.24.28-.48.36-.71.08-.24.12-.48.12-.72s-.04-.48-.12-.71c-.08-.24-.2-.47-.36-.71Z"/>
              </g>
            </g>
          </g>
          <g id="xtick_5" data-name="xtick 5">
            <g id="line2d_5" data-name="line2d 5">
              <path id="m20008f09e1-5" data-name="m20008f09e1" class="cls-13" d="M240.91,237.61v1.12"/>
            </g>
            <g id="text_5" data-name="text 5">
              <g>
                <path id="DejaVuSans-43" d="M237.99,240.14v.33c-.12-.1-.26-.17-.4-.22-.14-.05-.29-.07-.45-.07-.31,0-.55.08-.71.25s-.25.4-.25.71.08.54.25.71.4.25.71.25c.16,0,.31-.02.45-.07s.27-.12.4-.22v.33c-.13.08-.26.13-.41.17-.14.04-.3.06-.46.06-.41,0-.74-.11-.97-.32-.24-.22-.35-.51-.35-.89s.12-.67.35-.89c.24-.22.56-.33.97-.33.16,0,.32.02.46.06.14.04.28.09.41.17Z"/>
                <path id="DejaVuSans-68" d="M240.24,241.24v1.06h-.33v-1.05c0-.17-.04-.29-.11-.37-.08-.08-.19-.12-.34-.12-.18,0-.32.05-.43.15-.1.1-.16.23-.16.41v.99h-.34v-2.44h.34v.96c.08-.11.17-.18.28-.24.11-.05.23-.08.38-.08.23,0,.41.06.53.19.12.12.18.31.18.55Z"/>
                <path id="DejaVuSans-69-2" data-name="DejaVuSans-69" d="M240.91,240.54h.33v1.75h-.33v-1.75ZM240.91,239.86h.33v.37h-.33v-.37Z"/>
                <path id="DejaVuSans-6e-2" data-name="DejaVuSans-6e" d="M243.64,241.24v1.06h-.33v-1.05c0-.17-.04-.29-.11-.37-.08-.08-.19-.12-.34-.12-.18,0-.32.05-.43.15-.1.1-.16.23-.16.41v.99h-.34v-1.75h.34v.27c.08-.11.17-.18.28-.24.11-.05.23-.08.38-.08.23,0,.41.06.53.19.12.12.18.31.18.55Z"/>
                <path id="DejaVuSans-61-2" data-name="DejaVuSans-61" d="M245.23,241.42c-.27,0-.46.03-.56.08s-.16.14-.16.27c0,.1.04.18.12.24.08.06.18.09.32.09.19,0,.34-.06.45-.17s.17-.26.17-.45v-.06h-.33ZM245.9,241.3v1h-.33v-.27c-.08.11-.17.18-.29.24-.11.05-.25.08-.42.08-.21,0-.37-.05-.5-.15-.12-.1-.18-.24-.18-.41,0-.2.08-.35.23-.45.15-.1.38-.15.69-.15h.47v-.03c0-.13-.05-.24-.15-.31s-.24-.11-.43-.11c-.12,0-.23.01-.34.04-.11.02-.22.06-.32.11v-.27c.12-.04.24-.07.36-.09.12-.02.23-.03.34-.03.3,0,.52.07.66.2.15.13.22.33.22.6Z"/>
              </g>
            </g>
          </g>
          <g id="text_6" data-name="text 6">
            <g>
              <path id="DejaVuSans-41-3" data-name="DejaVuSans-41" d="M171.94,244.74l-.6,1.4h1.2l-.6-1.4ZM171.7,244.37h.5l1.24,2.81h-.46l-.3-.72h-1.47l-.3.72h-.47l1.24-2.81Z"/>
              <path id="DejaVuSans-72-4" data-name="DejaVuSans-72" d="M175.31,245.39s-.09-.04-.15-.05c-.05-.01-.11-.02-.18-.02-.23,0-.4.06-.52.19s-.18.31-.18.55v1.11h-.4v-2.11h.4v.33c.08-.13.19-.22.33-.28.14-.06.3-.09.49-.09.03,0,.06,0,.09,0,.03,0,.07,0,.11.01v.35Z"/>
              <path id="DejaVuSans-65-4" data-name="DejaVuSans-65" d="M177.73,246.03v.17h-1.85c.02.24.1.42.25.54.15.12.36.19.62.19.15,0,.3-.02.45-.05s.29-.08.43-.15v.33c-.14.05-.29.09-.44.12s-.3.04-.46.04c-.39,0-.7-.1-.93-.29-.23-.2-.34-.46-.34-.79s.11-.62.32-.82c.22-.2.51-.3.87-.3.33,0,.59.09.78.27.19.18.29.43.29.74ZM177.32,245.93c0-.19-.06-.34-.18-.45-.12-.11-.28-.17-.48-.17-.22,0-.4.05-.54.16s-.21.26-.23.46h1.43Z"/>
              <path id="DejaVuSans-61-3" data-name="DejaVuSans-61" d="M179.5,246.12c-.32,0-.55.03-.68.1s-.19.17-.19.33c0,.12.05.22.14.29.09.07.22.11.38.11.22,0,.4-.07.54-.2s.2-.32.2-.54v-.08h-.4ZM180.3,245.97v1.2h-.4v-.32c-.09.13-.21.22-.34.28-.14.06-.3.09-.5.09-.25,0-.45-.06-.6-.18-.15-.12-.22-.28-.22-.49,0-.24.09-.42.28-.54.18-.12.46-.18.82-.18h.56v-.03c0-.16-.06-.28-.18-.37s-.29-.13-.51-.13c-.14,0-.28.01-.41.04-.13.03-.26.07-.38.13v-.32c.15-.05.29-.09.43-.11.14-.02.27-.04.4-.04.35,0,.62.08.79.24.17.16.26.4.26.72Z"/>
              <path id="DejaVuSans-6f-3" data-name="DejaVuSans-6f" d="M183.5,245.31c-.22,0-.39.07-.51.22s-.19.34-.19.59.06.45.19.59c.12.14.3.22.51.22s.38-.07.51-.22c.13-.15.19-.34.19-.59s-.06-.45-.19-.59c-.12-.15-.29-.22-.51-.22ZM183.5,245.02c.35,0,.62.1.82.29.2.2.3.47.3.81s-.1.61-.3.81c-.2.2-.47.29-.82.29s-.63-.1-.82-.29c-.2-.2-.3-.47-.3-.81s.1-.62.3-.81c.2-.2.47-.29.82-.29Z"/>
              <path id="DejaVuSans-72-5" data-name="DejaVuSans-72" d="M186.7,245.39s-.09-.04-.15-.05c-.05-.01-.11-.02-.18-.02-.23,0-.4.06-.52.19s-.18.31-.18.55v1.11h-.4v-2.11h.4v.33c.08-.13.19-.22.33-.28.14-.06.3-.09.49-.09.03,0,.06,0,.09,0,.03,0,.07,0,.11.01v.35Z"/>
              <path id="DejaVuSans-43-2" data-name="DejaVuSans-43" d="M191,244.58v.4c-.15-.12-.31-.21-.48-.27-.17-.06-.35-.09-.54-.09-.37,0-.66.1-.86.29s-.3.48-.3.85.1.65.3.85.48.29.86.29c.19,0,.37-.03.54-.09s.33-.15.48-.27v.4c-.15.09-.32.16-.49.2-.17.04-.35.07-.55.07-.49,0-.88-.13-1.17-.39-.28-.26-.43-.62-.43-1.07s.14-.81.43-1.07c.28-.26.67-.39,1.17-.39.19,0,.38.02.55.07.17.04.33.11.49.2Z"/>
              <path id="DejaVuSans-6f-4" data-name="DejaVuSans-6f" d="M192.61,245.31c-.22,0-.39.07-.51.22s-.19.34-.19.59.06.45.19.59c.12.14.3.22.51.22s.38-.07.51-.22c.13-.15.19-.34.19-.59s-.06-.45-.19-.59c-.12-.15-.29-.22-.51-.22ZM192.61,245.02c.35,0,.62.1.82.29.2.2.3.47.3.81s-.1.61-.3.81c-.2.2-.47.29-.82.29s-.63-.1-.82-.29c-.2-.2-.3-.47-.3-.81s.1-.62.3-.81c.2-.2.47-.29.82-.29Z"/>
              <path id="DejaVuSans-75-2" data-name="DejaVuSans-75" d="M194.36,246.34v-1.27h.4v1.26c0,.2.04.35.13.45.09.1.23.15.41.15.22,0,.39-.06.51-.18.13-.12.19-.28.19-.49v-1.19h.4v2.11h-.4v-.32c-.1.13-.21.22-.34.29-.13.06-.28.09-.45.09-.28,0-.49-.08-.64-.23-.15-.15-.22-.37-.22-.66Z"/>
              <path id="DejaVuSans-6e-3" data-name="DejaVuSans-6e" d="M199.27,245.9v1.27h-.4v-1.26c0-.2-.05-.35-.14-.45-.09-.1-.23-.15-.41-.15-.22,0-.39.06-.51.18-.13.12-.19.28-.19.49v1.19h-.4v-2.11h.4v.33c.1-.13.21-.22.34-.28.13-.06.28-.09.45-.09.28,0,.49.07.64.22.14.15.22.37.22.66Z"/>
              <path id="DejaVuSans-74" d="M200.47,244.47v.6h.83v.27h-.83v1.14c0,.17.03.28.08.33s.17.07.33.07h.41v.29h-.41c-.31,0-.52-.05-.64-.15-.12-.1-.18-.28-.18-.54v-1.14h-.29v-.27h.29v-.6h.4Z"/>
              <path id="DejaVuSans-72-6" data-name="DejaVuSans-72" d="M203.24,245.39s-.09-.04-.15-.05c-.05-.01-.11-.02-.18-.02-.23,0-.4.06-.52.19s-.18.31-.18.55v1.11h-.4v-2.11h.4v.33c.08-.13.19-.22.33-.28.14-.06.3-.09.49-.09.03,0,.06,0,.09,0,.03,0,.07,0,.11.01v.35Z"/>
              <path id="DejaVuSans-79" d="M204.68,247.37c-.11.25-.22.41-.33.49-.11.08-.25.11-.43.11h-.32v-.29h.24c.11,0,.2-.02.26-.07.06-.04.13-.15.2-.32l.07-.16-.99-2.07h.43l.76,1.65.76-1.65h.43l-1.07,2.3Z"/>
            </g>
          </g>
        </g>
        <g id="matplotlib.axis_2" data-name="matplotlib.axis 2">
          <g id="ytick_1" data-name="ytick 1">
            <g id="line2d_6" data-name="line2d 6">
              <path id="m8650f15f65" class="cls-13" d="M118.51,237.61h-1.3"/>
            </g>
            <g id="text_7" data-name="text 7">
              <path id="DejaVuSans-30" d="M114.71,236.7c-.19,0-.33.08-.43.24-.1.16-.14.4-.14.72s.05.56.14.72c.1.16.24.24.43.24s.33-.08.43-.24c.1-.16.14-.4.14-.72s-.05-.56-.14-.72c-.1-.16-.24-.24-.43-.24ZM114.71,236.45c.3,0,.54.1.7.31.16.21.24.51.24.9s-.08.69-.24.9c-.16.21-.39.31-.7.31s-.54-.1-.7-.31c-.16-.21-.24-.51-.24-.9s.08-.7.24-.9c.16-.21.39-.31.7-.31Z"/>
            </g>
          </g>
          <g id="ytick_2" data-name="ytick 2">
            <g id="line2d_7" data-name="line2d 7">
              <path id="m8650f15f65-2" data-name="m8650f15f65" class="cls-13" d="M118.51,209.55h-1.3"/>
            </g>
            <g id="text_8" data-name="text 8">
              <path id="DejaVuSans-32" d="M114.24,210.5h1.28v.27h-1.72v-.27c.14-.12.33-.29.57-.5.24-.21.39-.34.45-.41.12-.11.2-.21.25-.29.05-.08.07-.16.07-.23,0-.12-.05-.23-.15-.3-.1-.08-.23-.12-.4-.12-.12,0-.24.02-.37.05-.13.03-.26.09-.41.16v-.32c.15-.05.29-.09.41-.12.13-.03.25-.04.35-.04.28,0,.51.06.67.18.17.12.25.28.25.49,0,.1-.02.19-.06.27-.04.09-.12.19-.23.3-.03.03-.13.12-.29.26-.16.14-.39.35-.69.61Z"/>
            </g>
          </g>
          <g id="ytick_3" data-name="ytick 3">
            <g id="line2d_8" data-name="line2d 8">
              <path id="m8650f15f65-3" data-name="m8650f15f65" class="cls-13" d="M118.51,181.48h-1.3"/>
            </g>
            <g id="text_9" data-name="text 9">
              <path id="DejaVuSans-34" d="M114.94,180.64l-.93,1.25h.93v-1.25ZM114.84,180.36h.46v1.52h.39v.26h-.39v.55h-.37v-.55h-1.23v-.31l1.13-1.48Z"/>
            </g>
          </g>
          <g id="ytick_4" data-name="ytick 4">
            <g id="line2d_9" data-name="line2d 9">
              <path id="m8650f15f65-4" data-name="m8650f15f65" class="cls-13" d="M118.51,153.42h-1.3"/>
            </g>
            <g id="text_10" data-name="text 10">
              <path id="DejaVuSans-36" d="M114.76,153.34c-.16,0-.3.05-.39.15-.1.1-.14.23-.14.4s.05.3.14.4c.1.1.23.15.39.15s.3-.05.39-.15c.1-.1.14-.23.14-.4s-.05-.3-.14-.4c-.1-.1-.23-.15-.39-.15ZM115.49,152.35v.29c-.09-.04-.19-.07-.28-.09-.09-.02-.19-.03-.28-.03-.24,0-.43.07-.56.21-.13.14-.2.35-.22.64.07-.09.16-.16.27-.21.11-.05.23-.07.36-.07.27,0,.49.07.65.21.16.14.24.34.24.58s-.08.43-.25.58c-.16.15-.38.22-.66.22-.31,0-.55-.1-.72-.31-.17-.21-.25-.51-.25-.9,0-.37.1-.66.31-.88.2-.22.48-.33.82-.33.09,0,.19,0,.28.02s.19.04.29.07Z"/>
            </g>
          </g>
          <g id="ytick_5" data-name="ytick 5">
            <g id="line2d_10" data-name="line2d 10">
              <path id="m8650f15f65-5" data-name="m8650f15f65" class="cls-13" d="M118.51,125.35h-1.3"/>
            </g>
            <g id="text_11" data-name="text 11">
              <path id="DejaVuSans-38" d="M114.71,125.46c-.17,0-.31.04-.41.12-.1.08-.15.19-.15.33s.05.25.15.33c.1.08.24.12.41.12s.31-.04.41-.12c.1-.08.15-.19.15-.33s-.05-.25-.15-.33c-.1-.08-.24-.12-.41-.12ZM114.34,125.32c-.16-.03-.28-.1-.37-.19-.09-.09-.13-.21-.13-.34,0-.19.08-.33.23-.44.15-.11.37-.16.64-.16s.48.05.64.16.23.26.23.44c0,.13-.04.25-.13.34-.09.09-.21.16-.37.19.18.04.31.1.41.21.1.1.15.23.15.38,0,.23-.08.4-.24.52-.16.12-.39.18-.69.18s-.53-.06-.69-.18c-.16-.12-.24-.3-.24-.52,0-.15.05-.28.15-.38.1-.1.24-.17.42-.21ZM114.21,124.82c0,.12.04.22.13.28.09.07.21.1.37.1s.28-.03.37-.1c.09-.07.13-.16.13-.28s-.04-.22-.13-.28c-.09-.07-.21-.1-.37-.1s-.28.03-.37.1c-.09.07-.13.16-.13.28Z"/>
            </g>
          </g>
          <g id="ytick_6" data-name="ytick 6">
            <g id="line2d_11" data-name="line2d 11">
              <path id="m8650f15f65-6" data-name="m8650f15f65" class="cls-13" d="M118.51,97.28h-1.3"/>
            </g>
            <g id="text_12" data-name="text 12">
              <g>
                <path id="DejaVuSans-31" d="M111.62,98.24h.6v-1.78l-.65.11v-.29l.65-.11h.37v2.07h.6v.27h-1.56v-.27Z"/>
                <path id="DejaVuSans-30-2" data-name="DejaVuSans-30" d="M114.71,96.37c-.19,0-.33.08-.43.24-.1.16-.14.4-.14.72s.05.56.14.72c.1.16.24.24.43.24s.33-.08.43-.24c.1-.16.14-.4.14-.72s-.05-.56-.14-.72c-.1-.16-.24-.24-.43-.24ZM114.71,96.12c.3,0,.54.1.7.31.16.21.24.51.24.9s-.08.69-.24.9c-.16.21-.39.31-.7.31s-.54-.1-.7-.31c-.16-.21-.24-.51-.24-.9s.08-.7.24-.9c.16-.21.39-.31.7-.31Z"/>
              </g>
            </g>
          </g>
          <g id="ytick_7" data-name="ytick 7">
            <g id="line2d_12" data-name="line2d 12">
              <path id="m8650f15f65-7" data-name="m8650f15f65" class="cls-13" d="M118.51,69.22h-1.3"/>
            </g>
            <g id="text_13" data-name="text 13">
              <g>
                <path id="DejaVuSans-31-2" data-name="DejaVuSans-31" d="M111.62,70.17h.6v-1.78l-.65.11v-.29l.65-.11h.37v2.07h.6v.27h-1.56v-.27Z"/>
                <path id="DejaVuSans-32-2" data-name="DejaVuSans-32" d="M114.24,70.17h1.28v.27h-1.72v-.27c.14-.12.33-.29.57-.5.24-.21.39-.34.45-.41.12-.11.2-.21.25-.29.05-.08.07-.16.07-.23,0-.12-.05-.23-.15-.3-.1-.08-.23-.12-.4-.12-.12,0-.24.02-.37.05-.13.03-.26.09-.41.16v-.32c.15-.05.29-.09.41-.12.13-.03.25-.04.35-.04.28,0,.51.06.67.18.17.12.25.28.25.49,0,.1-.02.19-.06.27-.04.09-.12.19-.23.3-.03.03-.13.12-.29.26-.16.14-.39.35-.69.61Z"/>
              </g>
            </g>
          </g>
          <g id="ytick_8" data-name="ytick 8">
            <g id="line2d_13" data-name="line2d 13">
              <path id="m8650f15f65-8" data-name="m8650f15f65" class="cls-13" d="M118.51,41.15h-1.3"/>
            </g>
            <g id="text_14" data-name="text 14">
              <g>
                <path id="DejaVuSans-31-3" data-name="DejaVuSans-31" d="M111.62,42.1h.6v-1.78l-.65.11v-.29l.65-.11h.37v2.07h.6v.27h-1.56v-.27Z"/>
                <path id="DejaVuSans-34-2" data-name="DejaVuSans-34" d="M114.94,40.31l-.93,1.25h.93v-1.25ZM114.84,40.03h.46v1.52h.39v.26h-.39v.55h-.37v-.55h-1.23v-.31l1.13-1.48Z"/>
              </g>
            </g>
          </g>
          <g id="text_15" data-name="text 15">
            <g>
              <path id="DejaVuSans-50" d="M105.84,145.81h1.22v-.48c0-.18-.05-.31-.16-.41-.11-.1-.26-.14-.45-.14s-.35.05-.45.14c-.11.1-.16.23-.16.41v.48ZM105.47,146.19v-.86c0-.31.08-.55.25-.71.17-.16.41-.24.73-.24s.57.08.73.24c.16.16.25.4.25.71v.48h1.31v.38h-3.26Z"/>
              <path id="DejaVuSans-45-4" data-name="DejaVuSans-45" d="M105.47,143.86v-1.77h.37v1.4h.97v-1.34h.37v1.34h1.18v-1.43h.37v1.81h-3.26Z"/>
              <path id="DejaVuSans-28-2" data-name="DejaVuSans-28" d="M105.34,139.39c.33.17.67.29.99.37.33.08.66.12,1,.12s.67-.04,1-.12.66-.21,1-.37v.3c-.34.19-.68.33-1.01.42-.33.09-.66.14-.98.14s-.65-.05-.98-.14c-.33-.09-.67-.23-1.01-.42v-.3Z"/>
              <path id="DejaVuSans-4d" d="M105.47,138.71v-.57l2.22-.72-2.22-.72v-.57h3.26v.37h-2.86l2.24.72v.38l-2.24.72h2.86v.37h-3.26Z"/>
              <path id="DejaVuSans-4a" d="M105.47,135.38v-.38h3.03c.39,0,.68.06.86.19.18.13.27.33.27.62v.14h-.37v-.12c0-.17-.05-.29-.16-.35-.11-.07-.3-.1-.59-.1h-3.03Z"/>
              <path id="DejaVuSans-2f" d="M105.47,132.43v-.32l3.68.98v.32l-3.68-.98Z"/>
              <path id="DejaVuSans-6b" d="M105.34,130.53v-.35h2.01l-1.05-1.03v-.44l1.14,1.12,1.3-1.16v.45l-1.19,1.07h1.19v.35h-3.4Z"/>
              <path id="DejaVuSans-57-2" data-name="DejaVuSans-57" d="M105.47,128.52v-.38l2.76-.59-2.76-.59v-.43l2.76-.59-2.76-.59v-.39l3.26.71v.48l-2.83.59,2.83.6v.48l-3.26.7Z"/>
              <path id="DejaVuSans-68-2" data-name="DejaVuSans-68" d="M107.26,122.73h1.48v.35h-1.46c-.23,0-.4.04-.52.12-.12.08-.17.19-.17.35,0,.19.07.33.21.44.14.11.33.16.57.16h1.38v.35h-3.4v-.35h1.33c-.15-.08-.26-.18-.33-.29-.07-.11-.11-.24-.11-.39,0-.24.09-.42.26-.55.17-.12.43-.19.77-.19Z"/>
              <path id="DejaVuSans-29-2" data-name="DejaVuSans-29" d="M105.34,122.1v-.3c.34-.19.68-.33,1.01-.42.33-.09.66-.14.98-.14s.65.05.98.14c.33.09.67.23,1.01.42v.3c-.33-.17-.67-.29-1-.37-.33-.08-.66-.12-1-.12s-.67.04-1,.12c-.33.08-.66.21-.99.37Z"/>
            </g>
          </g>
        </g>
        <g id="patch_8" data-name="patch 8">
          <path class="cls-2" d="M118.51,237.61V29.86"/>
        </g>
        <g id="patch_9" data-name="patch 9">
          <path class="cls-2" d="M257.8,237.61V29.86"/>
        </g>
        <g id="patch_10" data-name="patch 10">
          <path class="cls-2" d="M118.51,237.61h139.29"/>
        </g>
        <g id="patch_11" data-name="patch 11">
          <path class="cls-2" d="M118.51,29.86h139.29"/>
        </g>
        <g id="text_16" data-name="text 16">
          <g>
            <path id="DejaVuSans-Bold-31" class="cls-10" d="M131.23,104.91h.62v-1.51l-.64.11v-.41l.63-.11h.67v1.92h.62v.42h-1.9v-.42Z"/>
            <path id="DejaVuSans-Bold-30" class="cls-10" d="M135.1,104.15c0-.29-.03-.5-.1-.62-.06-.12-.17-.18-.32-.18s-.26.06-.32.18c-.06.12-.1.33-.1.62s.03.5.1.63c.06.12.17.18.32.18s.26-.06.32-.18c.06-.12.1-.33.1-.63ZM135.8,104.16c0,.39-.1.69-.29.9s-.47.32-.83.32-.63-.11-.83-.32c-.19-.21-.29-.51-.29-.9s.1-.69.29-.9c.19-.21.47-.32.83-.32s.63.11.83.32c.19.21.29.51.29.9Z"/>
            <path id="DejaVuSans-Bold-2e" class="cls-10" d="M136.36,104.72h.66v.61h-.66v-.61Z"/>
            <path id="DejaVuSans-Bold-30-2" data-name="DejaVuSans-Bold-30" class="cls-10" d="M139.11,104.15c0-.29-.03-.5-.1-.62-.06-.12-.17-.18-.32-.18s-.26.06-.32.18c-.06.12-.1.33-.1.62s.03.5.1.63c.06.12.17.18.32.18s.26-.06.32-.18c.06-.12.1-.33.1-.63ZM139.81,104.16c0,.39-.1.69-.29.9s-.47.32-.83.32-.63-.11-.83-.32c-.19-.21-.29-.51-.29-.9s.1-.69.29-.9c.19-.21.47-.32.83-.32s.63.11.83.32c.19.21.29.51.29.9Z"/>
          </g>
        </g>
        <g id="text_17" data-name="text 17">
          <g>
            <path id="DejaVuSans-Bold-31-2" data-name="DejaVuSans-Bold-31" class="cls-10" d="M157.61,86.53h.62v-1.51l-.64.11v-.41l.63-.11h.67v1.92h.62v.42h-1.9v-.42Z"/>
            <path id="DejaVuSans-Bold-31-3" data-name="DejaVuSans-Bold-31" class="cls-10" d="M160.2,86.53h.62v-1.51l-.64.11v-.41l.63-.11h.67v1.92h.62v.42h-1.9v-.42Z"/>
            <path id="DejaVuSans-Bold-2e-2" data-name="DejaVuSans-Bold-2e" class="cls-10" d="M162.74,86.34h.66v.61h-.66v-.61Z"/>
            <path id="DejaVuSans-Bold-33" class="cls-10" d="M165.51,85.68c.18.04.32.11.42.21.1.1.14.23.14.38,0,.23-.1.41-.31.53-.21.12-.51.18-.9.18-.14,0-.28,0-.42-.03-.14-.02-.28-.05-.42-.09v-.47c.13.06.26.1.39.13.13.03.26.04.38.04.19,0,.33-.03.43-.08.1-.06.15-.14.15-.24s-.05-.19-.15-.24-.25-.08-.45-.08h-.28v-.39h.29c.18,0,.31-.02.39-.07.09-.05.13-.12.13-.22,0-.09-.04-.16-.13-.21-.08-.05-.2-.07-.35-.07-.11,0-.23.01-.34.03-.12.02-.23.05-.34.1v-.44c.14-.03.28-.06.41-.08s.27-.03.4-.03c.35,0,.62.05.79.15.18.1.26.25.26.45,0,.14-.04.25-.13.34-.08.09-.21.15-.37.18Z"/>
          </g>
        </g>
        <g id="text_18" data-name="text 18">
          <g>
            <path id="DejaVuSans-Bold-31-4" data-name="DejaVuSans-Bold-31" class="cls-10" d="M183.99,85.12h.62v-1.51l-.64.11v-.41l.63-.11h.67v1.92h.62v.42h-1.9v-.42Z"/>
            <path id="DejaVuSans-Bold-31-5" data-name="DejaVuSans-Bold-31" class="cls-10" d="M186.58,85.12h.62v-1.51l-.64.11v-.41l.63-.11h.67v1.92h.62v.42h-1.9v-.42Z"/>
            <path id="DejaVuSans-Bold-2e-3" data-name="DejaVuSans-Bold-2e" class="cls-10" d="M189.12,84.93h.66v.61h-.66v-.61Z"/>
            <path id="DejaVuSans-Bold-34" class="cls-10" d="M191.53,83.7l-.77.98h.77v-.98ZM191.41,83.2h.78v1.48h.39v.44h-.39v.43h-.66v-.43h-1.2v-.52l1.09-1.4Z"/>
          </g>
        </g>
        <g id="text_19" data-name="text 19">
          <g>
            <path id="DejaVuSans-Bold-31-6" data-name="DejaVuSans-Bold-31" class="cls-10" d="M210.37,64.07h.62v-1.51l-.64.11v-.41l.63-.11h.67v1.92h.62v.42h-1.9v-.42Z"/>
            <path id="DejaVuSans-Bold-32" class="cls-10" d="M213.6,64.05h1.2v.44h-1.97v-.44l.99-.75c.09-.07.15-.14.2-.2s.06-.13.06-.21c0-.11-.04-.2-.13-.26s-.2-.1-.34-.1c-.11,0-.23.02-.36.06-.13.04-.27.1-.42.18v-.51c.16-.04.31-.08.47-.1.15-.02.31-.04.45-.04.33,0,.58.06.76.18.18.12.27.29.27.52,0,.13-.04.25-.11.36-.08.11-.24.26-.48.44l-.58.44Z"/>
            <path id="DejaVuSans-Bold-2e-4" data-name="DejaVuSans-Bold-2e" class="cls-10" d="M215.5,63.88h.66v.61h-.66v-.61Z"/>
            <path id="DejaVuSans-Bold-39" class="cls-10" d="M216.91,64.44v-.43c.11.05.22.08.32.1.1.02.2.03.3.03.21,0,.37-.05.49-.15.12-.1.18-.25.21-.44-.08.05-.17.09-.26.12s-.19.04-.3.04c-.28,0-.5-.07-.67-.21-.17-.14-.26-.32-.26-.55,0-.25.09-.45.28-.61s.44-.23.76-.23c.35,0,.63.1.82.31.19.21.29.5.29.87s-.11.69-.34.91c-.23.22-.54.33-.93.33-.13,0-.25,0-.37-.02-.12-.02-.23-.04-.34-.07ZM217.78,63.31c.12,0,.21-.03.28-.1.06-.07.09-.17.09-.31s-.03-.24-.09-.31c-.06-.07-.15-.1-.28-.1s-.21.03-.28.1c-.06.07-.09.17-.09.31s.03.24.09.31c.06.07.15.1.28.1Z"/>
          </g>
        </g>
        <g id="text_20" data-name="text 20">
          <g>
            <path id="DejaVuSans-Bold-31-7" data-name="DejaVuSans-Bold-31" class="cls-10" d="M236.75,47.23h.62v-1.51l-.64.11v-.41l.63-.11h.67v1.92h.62v.42h-1.9v-.42Z"/>
            <path id="DejaVuSans-Bold-34-2" data-name="DejaVuSans-Bold-34" class="cls-10" d="M240.28,45.81l-.77.98h.77v-.98ZM240.17,45.31h.78v1.48h.39v.44h-.39v.43h-.66v-.43h-1.2v-.52l1.09-1.4Z"/>
            <path id="DejaVuSans-Bold-2e-5" data-name="DejaVuSans-Bold-2e" class="cls-10" d="M241.88,47.04h.66v.61h-.66v-.61Z"/>
            <path id="DejaVuSans-Bold-31-8" data-name="DejaVuSans-Bold-31" class="cls-10" d="M243.36,47.23h.62v-1.51l-.64.11v-.41l.63-.11h.67v1.92h.62v.42h-1.9v-.42Z"/>
          </g>
        </g>
        <g id="text_21" data-name="text 21">
          <g>
            <path id="DejaVuSans-50-2" data-name="DejaVuSans-50" d="M137.24,25.02v1.23h.65c.24,0,.42-.05.56-.16.13-.11.2-.26.2-.46s-.07-.35-.2-.45c-.13-.11-.32-.16-.56-.16h-.65ZM136.72,24.66h1.16c.43,0,.75.08.97.25.22.17.33.41.33.73s-.11.57-.33.73c-.22.17-.54.25-.97.25h-.65v1.32h-.51v-3.27Z"/>
            <path id="DejaVuSans-72-7" data-name="DejaVuSans-72" d="M141.41,25.85c-.05-.03-.11-.05-.17-.06-.06-.01-.13-.02-.2-.02-.27,0-.47.07-.61.22s-.21.36-.21.64v1.29h-.47v-2.46h.47v.38c.1-.15.23-.26.38-.33.16-.07.35-.11.58-.11.03,0,.07,0,.11,0,.04,0,.08,0,.13.02v.41Z"/>
            <path id="DejaVuSans-69-3" data-name="DejaVuSans-69" d="M141.9,25.47h.47v2.46h-.47v-2.46ZM141.9,24.52h.47v.51h-.47v-.51Z"/>
            <path id="DejaVuSans-6d" d="M145.57,25.95c.12-.18.26-.32.42-.4s.35-.13.58-.13c.3,0,.53.09.69.27.16.18.24.43.24.76v1.48h-.47v-1.47c0-.24-.05-.41-.15-.52-.1-.11-.24-.17-.44-.17-.24,0-.44.07-.58.21-.14.14-.21.33-.21.57v1.39h-.47v-1.47c0-.24-.05-.41-.15-.52s-.25-.17-.45-.17c-.24,0-.43.07-.57.21-.14.14-.21.33-.21.57v1.39h-.47v-2.46h.47v.38c.11-.15.24-.26.38-.33s.33-.11.53-.11.38.05.53.14c.15.09.25.22.32.39Z"/>
            <path id="DejaVuSans-61-4" data-name="DejaVuSans-61" d="M149.73,26.7c-.38,0-.64.04-.79.11s-.22.2-.22.38c0,.14.05.26.16.34.11.08.26.13.45.13.26,0,.47-.08.63-.24s.24-.37.24-.63v-.09h-.47ZM150.67,26.53v1.4h-.47v-.37c-.11.15-.24.26-.4.33-.16.07-.36.11-.59.11-.29,0-.52-.07-.7-.21-.17-.14-.26-.33-.26-.57,0-.28.11-.48.32-.62.22-.14.54-.21.96-.21h.66v-.04c0-.19-.07-.33-.21-.43s-.34-.15-.6-.15c-.16,0-.32.02-.48.05-.15.03-.3.08-.45.15v-.37c.17-.06.34-.1.5-.13.16-.03.32-.04.47-.04.41,0,.72.09.93.28.2.18.31.46.31.84Z"/>
            <path id="DejaVuSans-72-8" data-name="DejaVuSans-72" d="M153.29,25.85c-.05-.03-.11-.05-.17-.06-.06-.01-.13-.02-.2-.02-.27,0-.47.07-.61.22s-.21.36-.21.64v1.29h-.47v-2.46h.47v.38c.1-.15.23-.26.38-.33.16-.07.35-.11.58-.11.03,0,.07,0,.11,0,.04,0,.08,0,.13.02v.41Z"/>
            <path id="DejaVuSans-79-2" data-name="DejaVuSans-79" d="M154.97,28.16c-.13.29-.26.48-.39.57-.13.09-.29.13-.5.13h-.38v-.34h.28c.13,0,.23-.03.3-.08.07-.05.15-.18.24-.37l.08-.18-1.15-2.42h.5l.89,1.92.89-1.92h.5l-1.25,2.68Z"/>
            <path id="DejaVuSans-45-5" data-name="DejaVuSans-45" d="M158.54,24.66h2.4v.37h-1.89v.97h1.81v.37h-1.81v1.19h1.94v.37h-2.45v-3.27Z"/>
            <path id="DejaVuSans-6e-4" data-name="DejaVuSans-6e" d="M164.19,26.45v1.48h-.47v-1.47c0-.23-.05-.41-.16-.52-.11-.12-.26-.17-.47-.17-.25,0-.45.07-.6.21-.15.14-.22.33-.22.57v1.39h-.47v-2.46h.47v.38c.11-.15.24-.26.4-.33.15-.07.33-.11.53-.11.33,0,.58.09.74.26.17.17.25.43.25.77Z"/>
            <path id="DejaVuSans-65-5" data-name="DejaVuSans-65" d="M167.57,26.6v.2h-2.16c.02.28.12.49.29.64.17.15.42.22.73.22.18,0,.35-.02.52-.06s.34-.09.5-.17v.38c-.17.06-.34.11-.52.14s-.36.05-.54.05c-.46,0-.82-.11-1.08-.34-.27-.23-.4-.54-.4-.93s.13-.72.38-.96c.25-.24.59-.35,1.02-.35.38,0,.69.11.91.32.22.21.34.5.34.87ZM167.1,26.48c0-.22-.08-.4-.22-.53-.14-.13-.33-.2-.56-.2-.26,0-.47.06-.63.19s-.25.31-.27.54h1.67Z"/>
            <path id="DejaVuSans-72-9" data-name="DejaVuSans-72" d="M169.99,25.85c-.05-.03-.11-.05-.17-.06-.06-.01-.13-.02-.2-.02-.27,0-.47.07-.61.22s-.21.36-.21.64v1.29h-.47v-2.46h.47v.38c.1-.15.23-.26.38-.33.16-.07.35-.11.58-.11.03,0,.07,0,.11,0,.04,0,.08,0,.13.02v.41Z"/>
            <path id="DejaVuSans-67" d="M172.27,26.67c0-.29-.07-.52-.21-.68-.14-.16-.34-.24-.59-.24s-.45.08-.59.24c-.14.16-.21.39-.21.68s.07.52.21.68c.14.16.34.24.59.24s.45-.08.59-.24c.14-.16.21-.39.21-.68ZM172.74,27.63c0,.42-.11.73-.32.93-.22.2-.55.31-.99.31-.16,0-.32-.01-.47-.03s-.29-.05-.43-.1v-.39c.14.06.27.11.41.14.13.03.27.05.41.05.31,0,.54-.07.69-.21.15-.14.23-.35.23-.63v-.2c-.1.15-.22.25-.37.32s-.33.11-.54.11c-.35,0-.63-.11-.85-.34-.21-.23-.32-.53-.32-.91s.11-.68.32-.91c.21-.23.5-.34.85-.34.21,0,.39.04.54.11s.28.18.37.32v-.37h.47v2.15Z"/>
            <path id="DejaVuSans-79-3" data-name="DejaVuSans-79" d="M174.89,28.16c-.13.29-.26.48-.39.57-.13.09-.29.13-.5.13h-.38v-.34h.28c.13,0,.23-.03.3-.08.07-.05.15-.18.24-.37l.08-.18-1.15-2.42h.5l.89,1.92.89-1.92h.5l-1.25,2.68Z"/>
            <path id="DejaVuSans-43-3" data-name="DejaVuSans-43" d="M181.32,24.91v.47c-.17-.14-.36-.24-.55-.31-.2-.07-.4-.1-.63-.1-.43,0-.77.11-1,.34s-.35.56-.35.99.12.76.35.99.56.34,1,.34c.22,0,.43-.03.63-.1s.38-.17.55-.31v.46c-.18.11-.37.18-.57.24-.2.05-.41.08-.64.08-.58,0-1.03-.15-1.36-.45-.33-.3-.5-.72-.5-1.24s.17-.94.5-1.24c.33-.3.79-.46,1.36-.46.23,0,.44.03.64.08.2.05.39.13.57.23Z"/>
            <path id="DejaVuSans-6f-5" data-name="DejaVuSans-6f" d="M183.2,25.76c-.25,0-.45.08-.6.25s-.22.4-.22.69.07.53.22.69c.15.17.34.25.6.25s.45-.08.59-.25c.15-.17.22-.4.22-.69s-.07-.52-.22-.69c-.15-.17-.34-.26-.59-.26ZM183.2,25.41c.41,0,.73.11.96.34.23.23.35.54.35.95s-.12.72-.35.95c-.23.23-.55.34-.96.34s-.73-.11-.96-.34c-.23-.23-.35-.54-.35-.95s.12-.72.35-.95c.23-.23.55-.34.96-.34Z"/>
            <path id="DejaVuSans-6e-5" data-name="DejaVuSans-6e" d="M187.66,26.45v1.48h-.47v-1.47c0-.23-.05-.41-.16-.52-.11-.12-.26-.17-.47-.17-.25,0-.45.07-.6.21-.15.14-.22.33-.22.57v1.39h-.47v-2.46h.47v.38c.11-.15.24-.26.4-.33.15-.07.33-.11.53-.11.33,0,.58.09.74.26.17.17.25.43.25.77Z"/>
            <path id="DejaVuSans-73" d="M190.41,25.55v.38c-.13-.06-.27-.1-.41-.13-.14-.03-.29-.04-.44-.04-.23,0-.41.03-.52.09-.12.06-.17.15-.17.28,0,.09.04.17.12.22s.25.1.5.15l.16.03c.33.06.57.15.71.26s.21.27.21.47c0,.23-.1.41-.31.54-.21.13-.5.2-.86.2-.15,0-.31-.01-.48-.04-.17-.03-.34-.06-.52-.12v-.42c.17.08.34.14.51.17.17.04.33.06.5.06.22,0,.39-.03.51-.1.12-.07.18-.16.18-.28,0-.11-.04-.19-.13-.25-.09-.06-.27-.11-.56-.17l-.16-.03c-.29-.05-.5-.13-.63-.24-.13-.11-.19-.26-.19-.45,0-.23.1-.41.29-.53.19-.13.46-.19.81-.19.17,0,.34.01.49.03.15.02.29.05.42.1Z"/>
            <path id="DejaVuSans-75-3" data-name="DejaVuSans-75" d="M191.26,26.96v-1.49h.47v1.47c0,.23.05.41.16.52.11.12.26.17.47.17.25,0,.45-.07.6-.21.15-.14.22-.33.22-.57v-1.39h.47v2.46h-.47v-.38c-.11.15-.25.26-.4.33-.15.07-.32.11-.52.11-.33,0-.58-.09-.75-.26-.17-.18-.25-.43-.25-.77Z"/>
            <path id="DejaVuSans-6d-2" data-name="DejaVuSans-6d" d="M196.84,25.95c.12-.18.26-.32.42-.4s.35-.13.58-.13c.3,0,.53.09.69.27.16.18.24.43.24.76v1.48h-.47v-1.47c0-.24-.05-.41-.15-.52-.1-.11-.24-.17-.44-.17-.24,0-.44.07-.58.21-.14.14-.21.33-.21.57v1.39h-.47v-1.47c0-.24-.05-.41-.15-.52s-.25-.17-.45-.17c-.24,0-.43.07-.57.21-.14.14-.21.33-.21.57v1.39h-.47v-2.46h.47v.38c.11-.15.24-.26.38-.33s.33-.11.53-.11.38.05.53.14c.15.09.25.22.32.39Z"/>
            <path id="DejaVuSans-70-2" data-name="DejaVuSans-70" d="M200.15,27.56v1.3h-.47v-3.39h.47v.37c.1-.15.22-.25.37-.32.15-.07.33-.11.54-.11.35,0,.63.12.84.36.22.24.33.55.33.93s-.11.7-.33.93c-.22.24-.5.36-.84.36-.21,0-.39-.04-.54-.11-.15-.07-.27-.18-.37-.33ZM201.75,26.7c0-.3-.07-.53-.21-.7s-.34-.25-.58-.25-.44.08-.59.25-.21.4-.21.7.07.53.21.7c.14.17.34.25.59.25s.44-.08.58-.25c.14-.17.21-.4.21-.7Z"/>
            <path id="DejaVuSans-74-2" data-name="DejaVuSans-74" d="M203.48,24.78v.7h.97v.31h-.97v1.33c0,.2.03.33.1.39s.19.09.39.09h.48v.34h-.48c-.36,0-.61-.06-.75-.17-.14-.12-.21-.33-.21-.64v-1.33h-.34v-.31h.34v-.7h.47Z"/>
            <path id="DejaVuSans-69-4" data-name="DejaVuSans-69" d="M205.06,25.47h.47v2.46h-.47v-2.46ZM205.06,24.52h.47v.51h-.47v-.51Z"/>
            <path id="DejaVuSans-6f-6" data-name="DejaVuSans-6f" d="M207.61,25.76c-.25,0-.45.08-.6.25s-.22.4-.22.69.07.53.22.69c.15.17.34.25.6.25s.45-.08.59-.25c.15-.17.22-.4.22-.69s-.07-.52-.22-.69c-.15-.17-.34-.26-.59-.26ZM207.61,25.41c.41,0,.73.11.96.34.23.23.35.54.35.95s-.12.72-.35.95c-.23.23-.55.34-.96.34s-.73-.11-.96-.34c-.23-.23-.35-.54-.35-.95s.12-.72.35-.95c.23-.23.55-.34.96-.34Z"/>
            <path id="DejaVuSans-6e-6" data-name="DejaVuSans-6e" d="M212.07,26.45v1.48h-.47v-1.47c0-.23-.05-.41-.16-.52-.11-.12-.26-.17-.47-.17-.25,0-.45.07-.6.21-.15.14-.22.33-.22.57v1.39h-.47v-2.46h.47v.38c.11-.15.24-.26.4-.33.15-.07.33-.11.53-.11.33,0,.58.09.74.26.17.17.25.43.25.77Z"/>
            <path id="DejaVuSans-62" d="M216.71,26.7c0-.3-.07-.53-.21-.7s-.34-.25-.58-.25-.44.08-.59.25-.21.4-.21.7.07.53.21.7c.14.17.34.25.59.25s.44-.08.58-.25c.14-.17.21-.4.21-.7ZM215.12,25.85c.1-.15.22-.25.37-.32.15-.07.33-.11.54-.11.35,0,.63.12.84.36.22.24.33.55.33.93s-.11.7-.33.93c-.22.24-.5.36-.84.36-.21,0-.39-.04-.54-.11-.15-.07-.27-.18-.37-.33v.37h-.47v-3.41h.47v1.33Z"/>
            <path id="DejaVuSans-79-4" data-name="DejaVuSans-79" d="M219.16,28.16c-.13.29-.26.48-.39.57-.13.09-.29.13-.5.13h-.38v-.34h.28c.13,0,.23-.03.3-.08.07-.05.15-.18.24-.37l.08-.18-1.15-2.42h.5l.89,1.92.89-1.92h.5l-1.25,2.68Z"/>
            <path id="DejaVuSans-52" d="M224.55,26.39c.11.03.22.1.32.21s.21.25.31.43l.52.89h-.55l-.49-.84c-.13-.22-.25-.36-.37-.44s-.28-.11-.48-.11h-.56v1.38h-.51v-3.27h1.16c.43,0,.76.08.97.24.21.16.32.39.32.71,0,.21-.06.38-.17.51-.11.14-.27.23-.49.28ZM223.26,25.02v1.16h.65c.25,0,.44-.05.56-.15s.19-.24.19-.44-.06-.34-.19-.43-.31-.15-.56-.15h-.65Z"/>
            <path id="DejaVuSans-65-6" data-name="DejaVuSans-65" d="M228.55,26.6v.2h-2.16c.02.28.12.49.29.64.17.15.42.22.73.22.18,0,.35-.02.52-.06s.34-.09.5-.17v.38c-.17.06-.34.11-.52.14s-.36.05-.54.05c-.46,0-.82-.11-1.08-.34-.27-.23-.4-.54-.4-.93s.13-.72.38-.96c.25-.24.59-.35,1.02-.35.38,0,.69.11.91.32.22.21.34.5.34.87ZM228.09,26.48c0-.22-.08-.4-.22-.53-.14-.13-.33-.2-.56-.2-.26,0-.47.06-.63.19s-.25.31-.27.54h1.67Z"/>
            <path id="DejaVuSans-67-2" data-name="DejaVuSans-67" d="M231.2,26.67c0-.29-.07-.52-.21-.68-.14-.16-.34-.24-.59-.24s-.45.08-.59.24c-.14.16-.21.39-.21.68s.07.52.21.68c.14.16.34.24.59.24s.45-.08.59-.24c.14-.16.21-.39.21-.68ZM231.67,27.63c0,.42-.11.73-.32.93-.22.2-.55.31-.99.31-.16,0-.32-.01-.47-.03s-.29-.05-.43-.1v-.39c.14.06.27.11.41.14.13.03.27.05.41.05.31,0,.54-.07.69-.21.15-.14.23-.35.23-.63v-.2c-.1.15-.22.25-.37.32s-.33.11-.54.11c-.35,0-.63-.11-.85-.34-.21-.23-.32-.53-.32-.91s.11-.68.32-.91c.21-.23.5-.34.85-.34.21,0,.39.04.54.11s.28.18.37.32v-.37h.47v2.15Z"/>
            <path id="DejaVuSans-69-5" data-name="DejaVuSans-69" d="M232.64,25.47h.47v2.46h-.47v-2.46ZM232.64,24.52h.47v.51h-.47v-.51Z"/>
            <path id="DejaVuSans-6f-7" data-name="DejaVuSans-6f" d="M235.19,25.76c-.25,0-.45.08-.6.25s-.22.4-.22.69.07.53.22.69c.15.17.34.25.6.25s.45-.08.59-.25c.15-.17.22-.4.22-.69s-.07-.52-.22-.69c-.15-.17-.34-.26-.59-.26ZM235.19,25.41c.41,0,.73.11.96.34.23.23.35.54.35.95s-.12.72-.35.95c-.23.23-.55.34-.96.34s-.73-.11-.96-.34c-.23-.23-.35-.54-.35-.95s.12-.72.35-.95c.23-.23.55-.34.96-.34Z"/>
            <path id="DejaVuSans-6e-7" data-name="DejaVuSans-6e" d="M239.65,26.45v1.48h-.47v-1.47c0-.23-.05-.41-.16-.52-.11-.12-.26-.17-.47-.17-.25,0-.45.07-.6.21-.15.14-.22.33-.22.57v1.39h-.47v-2.46h.47v.38c.11-.15.24-.26.4-.33.15-.07.33-.11.53-.11.33,0,.58.09.74.26.17.17.25.43.25.77Z"/>
          </g>
        </g>
      </g>
    </g>
    <text class="cls-5" transform="translate(204.6 258.62)"><tspan x="0" y="0">Chin</tspan><tspan class="cls-14" x="11.54" y="0">a</tspan><tspan class="cls-12" x="14.24" y="0">’</tspan><tspan x="15.05" y="0">s PE </tspan><tspan class="cls-19" x="26.11" y="0">v</tspan><tspan class="cls-4" x="28.97" y="0">alue indic</tspan><tspan class="cls-20" x="53.08" y="0">a</tspan><tspan class="cls-15" x="55.94" y="0">t</tspan><tspan x="57.89" y="0">es th</tspan><tspan class="cls-20" x="69.86" y="0">a</tspan><tspan x="72.73" y="0">t its</tspan><tspan x="5.19" y="7.2">ele</tspan><tspan class="cls-28" x="12.62" y="7.2">c</tspan><tspan x="15.38" y="7.2">t</tspan><tspan class="cls-30" x="17.37" y="7.2">r</tspan><tspan class="cls-11" x="19.36" y="7.2">ici</tspan><tspan class="cls-32" x="24.85" y="7.2">t</tspan><tspan class="cls-4" x="26.89" y="7.2">y gene</tspan><tspan class="cls-18" x="43.69" y="7.2">r</tspan><tspan class="cls-20" x="45.62" y="7.2">a</tspan><tspan x="48.49" y="7.2" xml:space="preserve">tion is  highly</tspan><tspan x="-2.36" y="14.4">ene</tspan><tspan class="cls-25" x="6.98" y="14.4">r</tspan><tspan x="8.89" y="14.4">g</tspan><tspan class="cls-17" x="12.25" y="14.4">y</tspan><tspan class="cls-11" x="15.05" y="14.4">-i</tspan><tspan class="cls-20" x="18.29" y="14.4">n</tspan><tspan class="cls-15" x="21.6" y="14.4">t</tspan><tspan x="23.55" y="14.4">ensi</tspan><tspan class="cls-23" x="33.67" y="14.4">v</tspan><tspan class="cls-21" x="36.49" y="14.4">e</tspan><tspan x="39.43" y="14.4">, p</tspan><tspan class="cls-30" x="45.35" y="14.4">r</tspan><tspan x="47.34" y="14.4">ima</tspan><tspan class="cls-29" x="56.64" y="14.4">r</tspan><tspan x="58.63" y="14.4">ily due </tspan><tspan class="cls-16" x="76.51" y="14.4">t</tspan><tspan x="78.46" y="14.4">o</tspan><tspan x="47.21" y="21.6">its </tspan><tspan class="cls-23" x="54.25" y="21.6">r</tspan><tspan x="56.15" y="21.6">elian</tspan><tspan class="cls-15" x="68.2" y="21.6">c</tspan><tspan x="70.85" y="21.6">e on</tspan><tspan class="cls-15" x="20.77" y="28.8">c</tspan><tspan x="23.42" y="28.8">oal-he</tspan><tspan class="cls-25" x="39.2" y="28.8">a</tspan><tspan class="cls-31" x="42.05" y="28.8">v</tspan><tspan class="cls-4" x="45.01" y="28.8">y p</tspan><tspan class="cls-24" x="52.52" y="28.8">o</tspan><tspan class="cls-22" x="55.77" y="28.8">w</tspan><tspan x="60.13" y="28.8">er pla</tspan><tspan class="cls-20" x="74.09" y="28.8">n</tspan><tspan x="77.39" y="28.8">ts</tspan></text>
  </g>
</svg>