<?xml version="1.0" encoding="UTF-8"?>
<svg id="Layer_2" data-name="Layer 2" xmlns="http://www.w3.org/2000/svg" xmlns:xlink="http://www.w3.org/1999/xlink" viewBox="0 0 700 423">
  <defs>
    <style>
      .cls-1, .cls-2 {
        fill: none;
      }

      .cls-3 {
        fill: #000b84;
      }

      .cls-4 {
        letter-spacing: 0em;
      }

      .cls-5 {
        clip-path: url(#clippath-1);
      }

      .cls-6 {
        clip-path: url(#clippath-3);
      }

      .cls-7 {
        clip-path: url(#clippath-4);
      }

      .cls-8 {
        clip-path: url(#clippath-2);
      }

      .cls-9 {
        font-family: MyriadPro-Regular, 'Myriad Pro';
        font-size: 9px;
      }

      .cls-10 {
        fill: #fff;
      }

      .cls-11 {
        letter-spacing: 0em;
      }

      .cls-12 {
        letter-spacing: -.07em;
      }

      .cls-13 {
        stroke-linejoin: round;
      }

      .cls-13, .cls-2 {
        stroke: #000;
        stroke-width: .8px;
      }

      .cls-14 {
        letter-spacing: -.03em;
      }

      .cls-15 {
        letter-spacing: 0em;
      }

      .cls-16 {
        letter-spacing: 0em;
      }

      .cls-17 {
        letter-spacing: 0em;
      }

      .cls-18 {
        letter-spacing: 0em;
      }

      .cls-19 {
        letter-spacing: 0em;
      }

      .cls-20 {
        letter-spacing: 0em;
      }

      .cls-2 {
        stroke-linecap: square;
      }

      .cls-21 {
        letter-spacing: -.01em;
      }

      .cls-22 {
        letter-spacing: 0em;
      }

      .cls-23 {
        letter-spacing: 0em;
      }

      .cls-24 {
        letter-spacing: 0em;
      }

      .cls-25 {
        letter-spacing: 0em;
      }

      .cls-26 {
        fill: #005f94;
      }

      .cls-27 {
        clip-path: url(#clippath);
      }

      .cls-28 {
        letter-spacing: .01em;
      }

      .cls-29 {
        letter-spacing: 0em;
      }

      .cls-30 {
        letter-spacing: .01em;
      }

      .cls-31 {
        letter-spacing: 0em;
      }
    </style>
    <clipPath id="clippath">
      <rect class="cls-1" x="91.63" y="105.11" width="378.07" height="213.52"/>
    </clipPath>
    <clipPath id="clippath-1">
      <rect class="cls-1" x="91.63" y="105.11" width="378.07" height="213.52"/>
    </clipPath>
    <clipPath id="clippath-2">
      <rect class="cls-1" x="91.63" y="105.11" width="378.07" height="213.52"/>
    </clipPath>
    <clipPath id="clippath-3">
      <rect class="cls-1" x="91.63" y="105.11" width="378.07" height="213.52"/>
    </clipPath>
    <clipPath id="clippath-4">
      <rect class="cls-1" x="91.63" y="105.11" width="378.07" height="213.52"/>
    </clipPath>
  </defs>
  <g id="ai2html-settings">
    <path class="cls-10" d="M0,0v423h700V0H0ZM72.68,75.65c-6.45,0-6.43-9.95,0-9.95s6.43,9.95,0,9.95ZM270.37,194.94c-6.45,0-6.43-9.95,0-9.95s6.43,9.95,0,9.95ZM305.52,153.41c-6.45,0-6.43-9.95,0-9.95s6.43,9.95,0,9.95ZM470.91,207.33c-6.45,0-6.43-9.95,0-9.95s6.43,9.95,0,9.95Z"/>
    <g id="figure_1" data-name="figure 1">
      <g id="patch_1" data-name="patch 1">
        <path class="cls-10" d="M31.37,343.31h445V89.31H31.37v254Z"/>
      </g>
      <g id="axes_1" data-name="axes 1">
        <g id="patch_2" data-name="patch 2">
          <path class="cls-10" d="M91.63,318.64h378.07V105.11H91.63v213.52Z"/>
        </g>
        <g id="patch_3" data-name="patch 3">
          <g class="cls-27">
            <path class="cls-26" d="M91.63,308.93h255.11v-32.35H91.63v32.35Z"/>
          </g>
        </g>
        <g id="patch_4" data-name="patch 4">
          <g class="cls-5">
            <path class="cls-26" d="M91.63,268.49h288.56v-32.35H91.63v32.35Z"/>
          </g>
        </g>
        <g id="patch_5" data-name="patch 5">
          <g class="cls-8">
            <path class="cls-26" d="M91.63,228.05h291.12v-32.35H91.63v32.35Z"/>
          </g>
        </g>
        <g id="patch_6" data-name="patch 6">
          <g class="cls-6">
            <path class="cls-26" d="M91.63,187.61h329.42v-32.35H91.63v32.35Z"/>
          </g>
        </g>
        <g id="patch_7" data-name="patch 7">
          <g class="cls-7">
            <path class="cls-3" d="M91.63,147.17h360.07v-32.35H91.63v32.35Z"/>
          </g>
        </g>
        <g id="matplotlib.axis_1" data-name="matplotlib.axis 1">
          <g id="xtick_1" data-name="xtick 1">
            <g id="line2d_1" data-name="line2d 1">
              <path id="m79574c8694" class="cls-13" d="M91.63,318.64v2.06"/>
            </g>
            <g id="text_1" data-name="text 1">
              <path id="DejaVuSans-30" d="M91.63,323.32c-.31,0-.55.15-.71.44-.16.29-.24.73-.24,1.32s.08,1.03.24,1.32c.16.29.39.44.71.44s.55-.15.71-.44c.16-.29.24-.73.24-1.32s-.08-1.03-.24-1.32c-.16-.29-.39-.44-.71-.44ZM91.63,322.86c.51,0,.89.19,1.16.57.27.38.4.93.4,1.65s-.13,1.27-.4,1.65c-.27.38-.65.57-1.16.57s-.89-.19-1.16-.57c-.27-.38-.4-.93-.4-1.65s.13-1.27.4-1.65c.27-.38.65-.57,1.16-.57Z"/>
            </g>
          </g>
          <g id="xtick_2" data-name="xtick 2">
            <g id="line2d_2" data-name="line2d 2">
              <path id="m79574c8694-2" data-name="m79574c8694" class="cls-13" d="M142.7,318.64v2.06"/>
            </g>
            <g id="text_2" data-name="text 2">
              <path id="DejaVuSans-32" d="M141.92,326.73h2.13v.49h-2.86v-.49c.23-.23.55-.53.95-.92.4-.38.65-.63.75-.74.2-.21.33-.38.41-.53.08-.14.12-.29.12-.43,0-.23-.08-.41-.25-.56-.17-.14-.39-.22-.66-.22-.19,0-.39.03-.61.09-.21.06-.44.16-.68.29v-.59c.25-.09.47-.16.69-.21.21-.05.41-.07.59-.07.47,0,.84.11,1.12.33.28.22.42.52.42.89,0,.18-.03.34-.1.5-.07.16-.2.34-.38.56-.05.06-.21.22-.48.48-.27.27-.65.64-1.14,1.11Z"/>
            </g>
          </g>
          <g id="xtick_3" data-name="xtick 3">
            <g id="line2d_3" data-name="line2d 3">
              <path id="m79574c8694-3" data-name="m79574c8694" class="cls-13" d="M193.78,318.64v2.06"/>
            </g>
            <g id="text_3" data-name="text 3">
              <path id="DejaVuSans-34" d="M194.15,323.44l-1.54,2.29h1.54v-2.29ZM193.98,322.93h.77v2.79h.64v.48h-.64v1.01h-.61v-1.01h-2.03v-.56l1.87-2.72Z"/>
            </g>
          </g>
          <g id="xtick_4" data-name="xtick 4">
            <g id="line2d_4" data-name="line2d 4">
              <path id="m79574c8694-4" data-name="m79574c8694" class="cls-13" d="M244.85,318.64v2.06"/>
            </g>
            <g id="text_4" data-name="text 4">
              <path id="DejaVuSans-36" d="M244.92,324.85c-.27,0-.49.09-.65.27-.16.18-.24.42-.24.73s.08.55.24.73c.16.18.38.27.65.27s.49-.09.65-.27c.16-.18.24-.42.24-.73s-.08-.55-.24-.73c-.16-.18-.38-.27-.65-.27ZM246.13,323.03v.53c-.15-.07-.31-.12-.46-.16-.16-.04-.31-.06-.46-.06-.4,0-.71.13-.92.39-.21.26-.33.65-.36,1.17.12-.17.27-.29.45-.38.18-.09.38-.13.59-.13.45,0,.81.13,1.07.39.26.26.39.62.39,1.07s-.14.79-.41,1.06c-.27.27-.64.4-1.09.4-.52,0-.92-.19-1.2-.57-.28-.38-.41-.93-.41-1.65,0-.68.17-1.22.51-1.62.34-.4.79-.6,1.36-.6.15,0,.31.01.46.04s.32.07.49.13Z"/>
            </g>
          </g>
          <g id="xtick_5" data-name="xtick 5">
            <g id="line2d_5" data-name="line2d 5">
              <path id="m79574c8694-5" data-name="m79574c8694" class="cls-13" d="M295.92,318.64v2.06"/>
            </g>
            <g id="text_5" data-name="text 5">
              <path id="DejaVuSans-38" d="M295.92,325.18c-.29,0-.52.07-.68.22-.17.15-.25.35-.25.61s.08.46.25.61c.17.15.39.22.68.22s.52-.07.68-.22c.17-.15.25-.35.25-.61s-.08-.46-.25-.61c-.17-.15-.39-.22-.69-.22ZM295.31,324.94c-.26-.06-.47-.18-.61-.35-.15-.17-.22-.38-.22-.62,0-.34.13-.61.38-.81.26-.2.61-.3,1.05-.3s.8.1,1.06.3.38.47.38.81c0,.24-.07.45-.22.62-.15.17-.35.29-.61.35.29.06.52.19.69.38.16.19.25.42.25.69,0,.42-.13.73-.4.96-.27.22-.65.33-1.15.33s-.88-.11-1.15-.33c-.27-.22-.4-.54-.4-.96,0-.27.08-.5.25-.69.17-.19.39-.32.69-.38ZM295.09,324.02c0,.22.07.39.22.52.15.12.35.19.61.19s.47-.06.61-.19c.15-.12.22-.3.22-.52s-.07-.4-.22-.52c-.15-.12-.35-.19-.61-.19s-.47.06-.61.19c-.15.12-.22.3-.22.52Z"/>
            </g>
          </g>
          <g id="xtick_6" data-name="xtick 6">
            <g id="line2d_6" data-name="line2d 6">
              <path id="m79574c8694-6" data-name="m79574c8694" class="cls-13" d="M347,318.64v2.06"/>
            </g>
            <g id="text_6" data-name="text 6">
              <g>
                <path id="DejaVuSans-31" d="M343.83,326.73h1v-3.27l-1.08.21v-.53l1.08-.21h.61v3.8h1v.49h-2.59v-.49Z"/>
                <path id="DejaVuSans-30-2" data-name="DejaVuSans-30" d="M348.96,323.32c-.31,0-.55.15-.71.44-.16.29-.24.73-.24,1.32s.08,1.03.24,1.32c.16.29.39.44.71.44s.55-.15.71-.44c.16-.29.24-.73.24-1.32s-.08-1.03-.24-1.32c-.16-.29-.39-.44-.71-.44ZM348.96,322.86c.51,0,.89.19,1.16.57.27.38.4.93.4,1.65s-.13,1.27-.4,1.65c-.27.38-.65.57-1.16.57s-.89-.19-1.16-.57c-.27-.38-.4-.93-.4-1.65s.13-1.27.4-1.65c.27-.38.65-.57,1.16-.57Z"/>
              </g>
            </g>
          </g>
          <g id="xtick_7" data-name="xtick 7">
            <g id="line2d_7" data-name="line2d 7">
              <path id="m79574c8694-7" data-name="m79574c8694" class="cls-13" d="M398.07,318.64v2.06"/>
            </g>
            <g id="text_7" data-name="text 7">
              <g>
                <path id="DejaVuSans-31-2" data-name="DejaVuSans-31" d="M394.9,326.73h1v-3.27l-1.08.21v-.53l1.08-.21h.61v3.8h1v.49h-2.59v-.49Z"/>
                <path id="DejaVuSans-32-2" data-name="DejaVuSans-32" d="M399.25,326.73h2.13v.49h-2.86v-.49c.23-.23.55-.53.95-.92.4-.38.65-.63.75-.74.2-.21.33-.38.41-.53.08-.14.12-.29.12-.43,0-.23-.08-.41-.25-.56-.17-.14-.39-.22-.66-.22-.19,0-.39.03-.61.09-.21.06-.44.16-.68.29v-.59c.25-.09.47-.16.69-.21.21-.05.41-.07.59-.07.47,0,.84.11,1.12.33.28.22.42.52.42.89,0,.18-.03.34-.1.5-.07.16-.2.34-.38.56-.05.06-.21.22-.48.48-.27.27-.65.64-1.14,1.11Z"/>
              </g>
            </g>
          </g>
          <g id="xtick_8" data-name="xtick 8">
            <g id="line2d_8" data-name="line2d 8">
              <path id="m79574c8694-8" data-name="m79574c8694" class="cls-13" d="M449.14,318.64v2.06"/>
            </g>
            <g id="text_8" data-name="text 8">
              <g>
                <path id="DejaVuSans-31-3" data-name="DejaVuSans-31" d="M445.98,326.73h1v-3.27l-1.08.21v-.53l1.08-.21h.61v3.8h1v.49h-2.59v-.49Z"/>
                <path id="DejaVuSans-34-2" data-name="DejaVuSans-34" d="M451.48,323.44l-1.54,2.29h1.54v-2.29ZM451.32,322.93h.77v2.79h.64v.48h-.64v1.01h-.61v-1.01h-2.03v-.56l1.87-2.72Z"/>
              </g>
            </g>
          </g>
          <g id="text_9" data-name="text 9">
            <g>
              <path id="DejaVuSans-50" d="M261.28,331.45v1.61h.77c.28,0,.5-.07.66-.21.16-.14.23-.34.23-.6s-.08-.45-.23-.59c-.15-.14-.37-.21-.66-.21h-.77ZM260.67,330.98h1.38c.51,0,.89.11,1.15.33.26.22.39.54.39.95s-.13.74-.39.96c-.26.22-.64.32-1.15.32h-.77v1.72h-.61v-4.29Z"/>
              <path id="DejaVuSans-45" d="M264.4,330.98h2.85v.49h-2.24v1.27h2.15v.49h-2.15v1.55h2.29v.49h-2.9v-4.29Z"/>
              <path id="DejaVuSans-28" d="M271.58,330.8c-.27.44-.47.88-.6,1.31-.13.43-.2.87-.2,1.31s.07.88.2,1.31.33.87.6,1.31h-.48c-.3-.45-.53-.89-.68-1.33-.15-.43-.23-.87-.23-1.29s.07-.86.22-1.29c.15-.43.38-.88.68-1.33h.48Z"/>
              <path id="DejaVuSans-4d" d="M272.68,330.98h.91l1.15,2.92,1.16-2.92h.91v4.29h-.59v-3.76l-1.16,2.94h-.61l-1.16-2.94v3.76h-.59v-4.29Z"/>
              <path id="DejaVuSans-4a" d="M278.01,330.98h.61v3.99c0,.52-.1.89-.31,1.13-.21.23-.54.35-.99.35h-.23v-.49h.19c.27,0,.46-.07.57-.22.11-.14.17-.4.17-.77v-3.99Z"/>
              <path id="DejaVuSans-2f" d="M282.76,330.98h.51l-1.57,4.83h-.51l1.57-4.83Z"/>
              <path id="DejaVuSans-6b" d="M285.8,330.79h.56v2.64l1.66-1.39h.71l-1.79,1.5,1.87,1.71h-.72l-1.72-1.57v1.57h-.56v-4.47Z"/>
              <path id="DejaVuSans-57" d="M289.03,330.98h.62l.95,3.62.94-3.62h.69l.95,3.62.94-3.62h.62l-1.13,4.29h-.77l-.95-3.72-.96,3.72h-.77l-1.13-4.29Z"/>
              <path id="DejaVuSans-68" d="M298.33,333.32v1.94h-.56v-1.92c0-.3-.06-.53-.19-.68-.12-.15-.31-.23-.56-.23-.3,0-.54.09-.71.27-.17.18-.26.43-.26.74v1.82h-.56v-4.47h.56v1.75c.13-.19.29-.34.47-.43.18-.1.39-.14.62-.14.39,0,.68.11.88.34.2.23.3.56.3,1.01Z"/>
              <path id="DejaVuSans-29" d="M299.35,330.8h.48c.3.45.53.89.68,1.33.15.43.23.86.23,1.29s-.08.86-.23,1.29c-.15.43-.38.88-.68,1.33h-.48c.27-.44.47-.87.6-1.31.13-.43.2-.87.2-1.31s-.07-.88-.2-1.31c-.13-.43-.33-.87-.6-1.31Z"/>
            </g>
          </g>
        </g>
        <g id="matplotlib.axis_2" data-name="matplotlib.axis 2">
          <g id="ytick_1" data-name="ytick 1">
            <g id="line2d_9" data-name="line2d 9">
              <path id="m76664e3566" class="cls-13" d="M91.63,292.75h-2.16"/>
            </g>
            <g id="text_10" data-name="text 10">
              <g>
                <path id="DejaVuSans-57-2" data-name="DejaVuSans-57" d="M55.3,290.7h.62l.95,3.62.94-3.62h.69l.95,3.62.94-3.62h.62l-1.13,4.29h-.77l-.95-3.72-.96,3.72h-.77l-1.13-4.29Z"/>
                <path id="DejaVuSans-6f" d="M62.73,292.14c-.3,0-.53.11-.71.33s-.26.52-.26.91.09.69.26.91c.17.22.41.33.71.33s.53-.11.7-.33c.17-.22.26-.52.26-.91s-.09-.68-.26-.91c-.17-.22-.41-.33-.7-.33ZM62.73,291.7c.48,0,.86.15,1.14.45.28.3.41.71.41,1.24s-.14.94-.41,1.24c-.28.3-.65.45-1.14.45s-.86-.15-1.14-.45c-.27-.3-.41-.71-.41-1.24s.14-.94.41-1.24c.27-.3.65-.45,1.14-.45Z"/>
                <path id="DejaVuSans-72" d="M67.16,292.27c-.06-.03-.13-.06-.2-.08-.07-.02-.15-.02-.24-.02-.31,0-.56.1-.72.29s-.25.47-.25.84v1.69h-.56v-3.22h.56v.5c.12-.2.27-.34.46-.43.19-.09.41-.14.68-.14.04,0,.08,0,.13,0,.05,0,.1.01.15.02v.54Z"/>
                <path id="DejaVuSans-6c" d="M67.75,290.52h.56v4.47h-.56v-4.47Z"/>
                <path id="DejaVuSans-64" d="M71.69,292.26v-1.74h.56v4.47h-.56v-.48c-.12.19-.26.33-.44.43-.18.09-.39.14-.64.14-.41,0-.74-.15-1-.46-.26-.31-.38-.72-.38-1.22s.13-.91.38-1.22c.26-.31.59-.46,1-.46.25,0,.46.05.64.14.18.09.33.23.44.43ZM69.79,293.38c0,.39.08.69.25.91.17.22.4.33.69.33s.52-.11.69-.33c.17-.22.25-.53.25-.91s-.08-.69-.25-.91c-.17-.22-.4-.33-.69-.33s-.52.11-.69.33-.25.53-.25.91Z"/>
                <path id="DejaVuSans-77" d="M73.06,291.77h.56l.69,2.51.69-2.51h.65l.69,2.51.69-2.51h.56l-.88,3.22h-.65l-.73-2.64-.73,2.64h-.66l-.88-3.22Z"/>
                <path id="DejaVuSans-69" d="M78.44,291.77h.56v3.22h-.56v-3.22ZM78.44,290.52h.56v.67h-.56v-.67Z"/>
                <path id="DejaVuSans-64-2" data-name="DejaVuSans-64" d="M82.38,292.26v-1.74h.56v4.47h-.56v-.48c-.12.19-.26.33-.44.43-.18.09-.39.14-.64.14-.41,0-.74-.15-1-.46-.26-.31-.38-.72-.38-1.22s.13-.91.38-1.22c.26-.31.59-.46,1-.46.25,0,.46.05.64.14.18.09.33.23.44.43ZM80.49,293.38c0,.39.08.69.25.91.17.22.4.33.69.33s.52-.11.69-.33c.17-.22.25-.53.25-.91s-.08-.69-.25-.91c-.17-.22-.4-.33-.69-.33s-.52.11-.69.33-.25.53-.25.91Z"/>
                <path id="DejaVuSans-65" d="M86.97,293.25v.26h-2.55c.02.36.14.64.35.83.21.19.49.29.86.29.21,0,.42-.02.62-.07s.4-.12.6-.22v.5c-.2.08-.4.14-.61.18s-.42.06-.64.06c-.54,0-.97-.15-1.28-.45-.31-.3-.47-.7-.47-1.21s.15-.94.45-1.25c.3-.31.7-.46,1.21-.46.45,0,.81.14,1.08.42.26.28.4.66.4,1.13ZM86.42,293.09c0-.29-.09-.52-.25-.69-.17-.17-.39-.26-.66-.26-.31,0-.56.08-.74.25s-.29.4-.32.7h1.98Z"/>
              </g>
            </g>
          </g>
          <g id="ytick_2" data-name="ytick 2">
            <g id="line2d_10" data-name="line2d 10">
              <path id="m76664e3566-2" data-name="m76664e3566" class="cls-13" d="M91.63,252.31h-2.16"/>
            </g>
            <g id="text_11" data-name="text 11">
              <g>
                <path id="DejaVuSans-46" d="M67.36,250.26h2.59v.49h-1.98v1.26h1.79v.49h-1.79v2.05h-.61v-4.29Z"/>
                <path id="DejaVuSans-72-2" data-name="DejaVuSans-72" d="M72.4,251.83c-.06-.03-.13-.06-.2-.08-.07-.02-.15-.02-.24-.02-.31,0-.56.1-.72.29s-.25.47-.25.84v1.69h-.56v-3.22h.56v.5c.12-.2.27-.34.46-.43.19-.09.41-.14.68-.14.04,0,.08,0,.13,0,.05,0,.1.01.15.02v.54Z"/>
                <path id="DejaVuSans-61" d="M74.52,252.93c-.45,0-.76.05-.93.15s-.26.26-.26.5c0,.19.07.34.2.45.13.11.31.16.53.16.31,0,.56-.1.74-.31s.28-.48.28-.83v-.12h-.55ZM75.62,252.71v1.83h-.56v-.49c-.13.19-.28.34-.47.43-.19.09-.42.14-.69.14-.35,0-.62-.09-.83-.28-.2-.18-.31-.43-.31-.74,0-.36.13-.63.38-.82.25-.18.63-.28,1.14-.28h.78v-.05c0-.24-.08-.43-.25-.56s-.4-.2-.71-.2c-.19,0-.38.02-.56.07-.18.04-.36.11-.53.2v-.49c.2-.07.4-.13.59-.17.19-.04.38-.06.56-.06.49,0,.85.12,1.1.36.24.24.36.61.36,1.1Z"/>
                <path id="DejaVuSans-6e" d="M79.58,252.61v1.94h-.56v-1.92c0-.3-.06-.53-.19-.68-.12-.15-.31-.23-.56-.23-.3,0-.54.09-.71.27-.17.18-.26.43-.26.74v1.82h-.56v-3.22h.56v.5c.13-.19.29-.34.47-.43.18-.1.39-.14.62-.14.39,0,.68.11.88.34.2.23.3.56.3,1.01Z"/>
                <path id="DejaVuSans-63" d="M83.12,251.46v.49c-.16-.08-.31-.14-.47-.19s-.32-.06-.48-.06c-.36,0-.64.11-.84.33-.2.22-.3.52-.3.91s.1.7.3.92c.2.22.48.33.84.33.16,0,.32-.02.48-.06s.32-.1.47-.19v.49c-.16.07-.32.12-.48.15-.17.03-.34.05-.53.05-.51,0-.91-.15-1.21-.46-.3-.3-.45-.72-.45-1.23s.15-.94.45-1.24c.3-.3.72-.45,1.25-.45.17,0,.34.02.5.05.16.03.32.08.47.15Z"/>
                <path id="DejaVuSans-65-2" data-name="DejaVuSans-65" d="M86.97,252.81v.26h-2.55c.02.36.14.64.35.83.21.19.49.29.86.29.21,0,.42-.02.62-.07s.4-.12.6-.22v.5c-.2.08-.4.14-.61.18s-.42.06-.64.06c-.54,0-.97-.15-1.28-.45-.31-.3-.47-.7-.47-1.21s.15-.94.45-1.25c.3-.31.7-.46,1.21-.46.45,0,.81.14,1.08.42.26.28.4.66.4,1.13ZM86.42,252.65c0-.29-.09-.52-.25-.69-.17-.17-.39-.26-.66-.26-.31,0-.56.08-.74.25s-.29.4-.32.7h1.98Z"/>
              </g>
            </g>
          </g>
          <g id="ytick_3" data-name="ytick 3">
            <g id="line2d_11" data-name="line2d 11">
              <path id="m76664e3566-3" data-name="m76664e3566" class="cls-13" d="M91.63,211.87h-2.16"/>
            </g>
            <g id="text_12" data-name="text 12">
              <g>
                <path id="DejaVuSans-55" d="M75.05,209.82h.61v2.6c0,.46.09.79.26.99.18.2.46.3.85.3s.67-.1.85-.3c.18-.2.26-.53.26-.99v-2.6h.61v2.68c0,.56-.15.98-.44,1.27-.29.29-.72.43-1.29.43s-1-.14-1.29-.43c-.29-.29-.44-.71-.44-1.27v-2.68Z"/>
                <path id="DejaVuSans-53" d="M82.34,209.96v.57c-.23-.11-.45-.18-.65-.24-.21-.05-.4-.08-.59-.08-.33,0-.59.06-.77.18-.18.12-.27.3-.27.52,0,.19.06.33.18.43.12.1.35.17.68.23l.37.07c.45.08.79.23,1.01.44s.32.49.32.83c0,.42-.15.73-.44.95-.29.21-.72.32-1.29.32-.21,0-.44-.02-.68-.07-.24-.05-.49-.11-.75-.2v-.6c.25.13.49.23.73.3.24.07.47.1.7.1.35,0,.62-.06.81-.19.19-.13.28-.32.28-.56,0-.21-.07-.37-.2-.49s-.36-.21-.67-.27l-.37-.07c-.45-.09-.78-.22-.99-.4-.2-.18-.3-.44-.3-.77,0-.38.14-.68.42-.9.28-.22.67-.33,1.16-.33.21,0,.43.02.65.06.22.04.44.09.67.16Z"/>
                <path id="DejaVuSans-41" d="M85.19,210.39l-.83,2.13h1.66l-.83-2.13ZM84.84,209.82h.69l1.72,4.29h-.63l-.41-1.1h-2.03l-.41,1.1h-.64l1.72-4.29Z"/>
              </g>
            </g>
          </g>
          <g id="ytick_4" data-name="ytick 4">
            <g id="line2d_12" data-name="line2d 12">
              <path id="m76664e3566-4" data-name="m76664e3566" class="cls-13" d="M91.63,171.43h-2.16"/>
            </g>
            <g id="text_13" data-name="text 13">
              <g>
                <path id="DejaVuSans-45-2" data-name="DejaVuSans-45" d="M47.35,169.38h2.85v.49h-2.24v1.27h2.15v.49h-2.15v1.55h2.29v.49h-2.9v-4.29Z"/>
                <path id="DejaVuSans-75" d="M51.17,172.4v-1.95h.56v1.93c0,.3.06.53.19.69.12.15.31.23.56.23.3,0,.54-.09.71-.27.17-.18.26-.43.26-.74v-1.82h.56v3.22h-.56v-.49c-.13.2-.29.34-.47.44-.18.09-.38.14-.62.14-.39,0-.68-.11-.88-.34-.2-.23-.3-.57-.3-1.01Z"/>
                <path id="DejaVuSans-72-3" data-name="DejaVuSans-72" d="M57.11,170.95c-.06-.03-.13-.06-.2-.08-.07-.02-.15-.02-.24-.02-.31,0-.56.1-.72.29s-.25.47-.25.84v1.69h-.56v-3.22h.56v.5c.12-.2.27-.34.46-.43.19-.09.41-.14.68-.14.04,0,.08,0,.13,0,.05,0,.1.01.15.02v.54Z"/>
                <path id="DejaVuSans-6f-2" data-name="DejaVuSans-6f" d="M58.86,170.82c-.3,0-.53.11-.71.33s-.26.52-.26.91.09.69.26.91c.17.22.41.33.71.33s.53-.11.7-.33c.17-.22.26-.52.26-.91s-.09-.68-.26-.91c-.17-.22-.41-.33-.7-.33ZM58.86,170.38c.48,0,.86.15,1.14.45.28.3.41.71.41,1.24s-.14.94-.41,1.24c-.28.3-.65.45-1.14.45s-.86-.15-1.14-.45c-.27-.3-.41-.71-.41-1.24s.14-.94.41-1.24c.27-.3.65-.45,1.14-.45Z"/>
                <path id="DejaVuSans-70" d="M61.87,173.19v1.71h-.56v-4.44h.56v.49c.12-.19.26-.33.44-.43.18-.09.39-.14.64-.14.41,0,.74.15,1,.46.26.31.39.72.39,1.22s-.13.91-.39,1.22c-.26.31-.59.46-1,.46-.25,0-.46-.05-.64-.14-.18-.09-.33-.24-.44-.43ZM63.76,172.06c0-.39-.08-.69-.25-.91s-.4-.33-.69-.33-.53.11-.69.33-.25.53-.25.91.08.69.25.91c.17.22.4.33.69.33s.52-.11.69-.33c.17-.22.25-.53.25-.91Z"/>
                <path id="DejaVuSans-65-3" data-name="DejaVuSans-65" d="M68.15,171.93v.26h-2.55c.02.36.14.64.35.83.21.19.49.29.86.29.21,0,.42-.02.62-.07s.4-.12.6-.22v.5c-.2.08-.4.14-.61.18s-.42.06-.64.06c-.54,0-.97-.15-1.28-.45-.31-.3-.47-.7-.47-1.21s.15-.94.45-1.25c.3-.31.7-.46,1.21-.46.45,0,.81.14,1.08.42.26.28.4.66.4,1.13ZM67.59,171.77c0-.29-.09-.52-.25-.69-.17-.17-.39-.26-.66-.26-.31,0-.56.08-.74.25s-.29.4-.32.7h1.98Z"/>
                <path id="DejaVuSans-28-2" data-name="DejaVuSans-28" d="M72.36,169.21c-.27.44-.47.88-.6,1.31-.13.43-.2.87-.2,1.31s.07.88.2,1.31.33.87.6,1.31h-.48c-.3-.45-.53-.89-.68-1.33-.15-.43-.23-.87-.23-1.29s.07-.86.22-1.29c.15-.43.38-.88.68-1.33h.48Z"/>
                <path id="DejaVuSans-45-3" data-name="DejaVuSans-45" d="M73.46,169.38h2.85v.49h-2.24v1.27h2.15v.49h-2.15v1.55h2.29v.49h-2.9v-4.29Z"/>
                <path id="DejaVuSans-45-4" data-name="DejaVuSans-45" d="M77.36,169.38h2.85v.49h-2.24v1.27h2.15v.49h-2.15v1.55h2.29v.49h-2.9v-4.29Z"/>
                <path id="DejaVuSans-41-2" data-name="DejaVuSans-41" d="M82.77,169.95l-.83,2.13h1.66l-.83-2.13ZM82.43,169.38h.69l1.72,4.29h-.63l-.41-1.1h-2.03l-.41,1.1h-.64l1.72-4.29Z"/>
                <path id="DejaVuSans-29-2" data-name="DejaVuSans-29" d="M85.39,169.21h.48c.3.45.53.89.68,1.33.15.43.23.86.23,1.29s-.08.86-.23,1.29c-.15.43-.38.88-.68,1.33h-.48c.27-.44.47-.87.6-1.31.13-.43.2-.87.2-1.31s-.07-.88-.2-1.31c-.13-.43-.33-.87-.6-1.31Z"/>
              </g>
            </g>
          </g>
          <g id="ytick_5" data-name="ytick 5">
            <g id="line2d_13" data-name="line2d 13">
              <path id="m76664e3566-5" data-name="m76664e3566" class="cls-13" d="M91.63,130.99h-2.16"/>
            </g>
            <g id="text_14" data-name="text 14">
              <g>
                <path id="DejaVuSans-43" d="M73.63,129.27v.61c-.21-.18-.42-.32-.66-.41-.23-.09-.48-.14-.74-.14-.52,0-.91.15-1.18.45s-.41.73-.41,1.3.14,1,.41,1.3.67.45,1.18.45c.26,0,.51-.05.74-.14s.45-.23.66-.41v.61c-.21.14-.44.24-.68.31-.24.07-.49.1-.76.1-.68,0-1.22-.2-1.61-.6-.39-.4-.59-.94-.59-1.63s.2-1.23.59-1.63c.39-.4.93-.6,1.61-.6.27,0,.52.03.76.1.24.07.46.17.67.31Z"/>
                <path id="DejaVuSans-68-2" data-name="DejaVuSans-68" d="M77.36,131.29v1.94h-.56v-1.92c0-.3-.06-.53-.19-.68-.12-.15-.31-.23-.56-.23-.3,0-.54.09-.71.27-.17.18-.26.43-.26.74v1.82h-.56v-4.47h.56v1.75c.13-.19.29-.34.47-.43.18-.1.39-.14.62-.14.39,0,.68.11.88.34.2.23.3.56.3,1.01Z"/>
                <path id="DejaVuSans-69-2" data-name="DejaVuSans-69" d="M78.46,130.01h.56v3.22h-.56v-3.22ZM78.46,128.76h.56v.67h-.56v-.67Z"/>
                <path id="DejaVuSans-6e-2" data-name="DejaVuSans-6e" d="M82.99,131.29v1.94h-.56v-1.92c0-.3-.06-.53-.19-.68-.12-.15-.31-.23-.56-.23-.3,0-.54.09-.71.27-.17.18-.26.43-.26.74v1.82h-.56v-3.22h.56v.5c.13-.19.29-.34.47-.43.18-.1.39-.14.62-.14.39,0,.68.11.88.34.2.23.3.56.3,1.01Z"/>
                <path id="DejaVuSans-61-2" data-name="DejaVuSans-61" d="M85.63,131.61c-.45,0-.76.05-.93.15s-.26.26-.26.5c0,.19.07.34.2.45.13.11.31.16.53.16.31,0,.56-.1.74-.31s.28-.48.28-.83v-.12h-.55ZM86.74,131.39v1.83h-.56v-.49c-.13.19-.28.34-.47.43-.19.09-.42.14-.69.14-.35,0-.62-.09-.83-.28-.2-.18-.31-.43-.31-.74,0-.36.13-.63.38-.82.25-.18.63-.28,1.14-.28h.78v-.05c0-.24-.08-.43-.25-.56s-.4-.2-.71-.2c-.19,0-.38.02-.56.07-.18.04-.36.11-.53.2v-.49c.2-.07.4-.13.59-.17.19-.04.38-.06.56-.06.49,0,.85.12,1.1.36.24.24.36.61.36,1.1Z"/>
              </g>
            </g>
          </g>
          <g id="text_15" data-name="text 15">
            <g>
              <path id="DejaVuSans-41-3" data-name="DejaVuSans-41" d="M39.08,233.18l2.24.79v-1.58l-2.24.79ZM38.48,233.51v-.66l4.51-1.63v.6l-1.16.39v1.93l1.16.39v.61l-4.51-1.64Z"/>
              <path id="DejaVuSans-72-4" data-name="DejaVuSans-72" d="M40.13,228.75c-.04.06-.06.12-.08.19-.02.07-.03.15-.03.23,0,.3.1.53.31.69s.5.24.88.24h1.78v.53h-3.38v-.53h.53c-.21-.11-.36-.26-.46-.43-.1-.18-.15-.39-.15-.65,0-.04,0-.08,0-.12,0-.04.01-.09.02-.15h.57Z"/>
              <path id="DejaVuSans-65-4" data-name="DejaVuSans-65" d="M41.16,225.58h.27v2.43c.38-.02.67-.13.87-.33.2-.2.3-.47.3-.82,0-.2-.03-.4-.08-.59s-.13-.38-.24-.57h.53c.08.19.15.38.19.58s.07.4.07.61c0,.51-.16.92-.47,1.22-.31.3-.74.45-1.27.45s-.99-.14-1.32-.43c-.33-.28-.49-.67-.49-1.15,0-.43.15-.77.44-1.03.29-.25.69-.38,1.19-.38ZM40.99,226.11c-.3,0-.55.08-.73.24-.18.16-.27.37-.27.63,0,.29.09.53.26.71s.42.28.74.31v-1.88Z"/>
              <path id="DejaVuSans-61-3" data-name="DejaVuSans-61" d="M41.29,223.25c0,.43.05.72.15.89s.28.25.53.25c.2,0,.35-.06.47-.19.12-.12.17-.29.17-.5,0-.29-.11-.53-.33-.71s-.51-.27-.87-.27h-.12v.53ZM41.06,222.2h1.93v.53h-.51c.2.12.36.27.45.45.1.18.15.4.15.66,0,.33-.1.59-.29.79-.19.19-.45.29-.78.29-.38,0-.67-.12-.86-.36-.19-.24-.29-.6-.29-1.08v-.74h-.06c-.26,0-.45.08-.59.24s-.21.38-.21.67c0,.18.02.36.07.54.05.17.12.34.21.5h-.51c-.08-.19-.14-.38-.18-.56-.04-.18-.06-.36-.06-.53,0-.47.13-.81.38-1.04.25-.23.64-.34,1.15-.34Z"/>
              <path id="DejaVuSans-6f-3" data-name="DejaVuSans-6f" d="M40,218c0,.28.12.51.35.67s.55.25.96.25.72-.08.96-.25c.23-.16.35-.39.35-.67s-.12-.5-.35-.67c-.23-.16-.55-.25-.95-.25s-.72.08-.95.25c-.23.16-.35.39-.35.67ZM39.53,218c0-.46.16-.82.47-1.08.31-.26.75-.39,1.3-.39s.99.13,1.3.39c.31.26.47.62.47,1.08s-.16.82-.47,1.08c-.32.26-.75.39-1.3.39s-.99-.13-1.3-.39c-.31-.26-.47-.62-.47-1.08Z"/>
              <path id="DejaVuSans-72-5" data-name="DejaVuSans-72" d="M40.13,213.78c-.04.06-.06.12-.08.19-.02.07-.03.15-.03.23,0,.3.1.53.31.69s.5.24.88.24h1.78v.53h-3.38v-.53h.53c-.21-.11-.36-.26-.46-.43-.1-.18-.15-.39-.15-.65,0-.04,0-.08,0-.12,0-.04.01-.09.02-.15h.57Z"/>
              <path id="DejaVuSans-43-2" data-name="DejaVuSans-43" d="M38.83,208.13h.64c-.19.2-.33.4-.43.62-.09.22-.14.46-.14.7,0,.49.16.87.47,1.13s.77.39,1.37.39,1.05-.13,1.36-.39.47-.64.47-1.13c0-.25-.05-.48-.14-.7s-.24-.43-.43-.62h.64c.14.2.25.42.33.64.07.23.11.47.11.72,0,.65-.21,1.16-.63,1.53-.42.37-.99.56-1.71.56s-1.3-.19-1.71-.56c-.42-.37-.63-.89-.63-1.53,0-.26.04-.5.11-.72.07-.23.18-.44.32-.64Z"/>
              <path id="DejaVuSans-6f-4" data-name="DejaVuSans-6f" d="M40,206.01c0,.28.12.51.35.67s.55.25.96.25.72-.08.96-.25c.23-.16.35-.39.35-.67s-.12-.5-.35-.67c-.23-.16-.55-.25-.95-.25s-.72.08-.95.25c-.23.16-.35.39-.35.67ZM39.53,206.01c0-.46.16-.82.47-1.08.31-.26.75-.39,1.3-.39s.99.13,1.3.39c.31.26.47.62.47,1.08s-.16.82-.47,1.08c-.32.26-.75.39-1.3.39s-.99-.13-1.3-.39c-.31-.26-.47-.62-.47-1.08Z"/>
              <path id="DejaVuSans-75-2" data-name="DejaVuSans-75" d="M41.65,203.71h-2.05v-.53h2.03c.32,0,.56-.06.72-.18.16-.12.24-.3.24-.53,0-.28-.1-.51-.29-.68-.19-.17-.45-.25-.78-.25h-1.92v-.53h3.38v.53h-.52c.21.13.36.28.46.45.1.17.15.37.15.59,0,.37-.12.65-.36.84-.24.19-.59.29-1.06.29Z"/>
              <path id="DejaVuSans-6e-3" data-name="DejaVuSans-6e" d="M40.95,197.26h2.04v.53h-2.02c-.32,0-.56.06-.72.18-.16.12-.24.3-.24.53,0,.29.1.51.29.68.19.16.45.25.78.25h1.91v.53h-3.38v-.53h.53c-.2-.13-.36-.28-.46-.45-.1-.17-.15-.37-.15-.59,0-.37.12-.65.36-.84.24-.19.59-.28,1.06-.28Z"/>
              <path id="DejaVuSans-74" d="M38.65,195.68h.96v-1.09h.43v1.09h1.83c.28,0,.45-.04.53-.11s.12-.22.12-.44v-.54h.46v.54c0,.41-.08.69-.24.84-.16.15-.45.23-.87.23h-1.83v.39h-.43v-.39h-.96v-.53Z"/>
              <path id="DejaVuSans-72-6" data-name="DejaVuSans-72" d="M40.13,192.04c-.04.06-.06.12-.08.19-.02.07-.03.15-.03.23,0,.3.1.53.31.69s.5.24.88.24h1.78v.53h-3.38v-.53h.53c-.21-.11-.36-.26-.46-.43-.1-.18-.15-.39-.15-.65,0-.04,0-.08,0-.12,0-.04.01-.09.02-.15h.57Z"/>
              <path id="DejaVuSans-79" d="M43.3,190.14c.4.15.66.29.79.44.12.14.18.33.18.57v.42h-.46v-.31c0-.15-.04-.26-.11-.34-.07-.08-.24-.17-.51-.27l-.25-.09-3.33,1.3v-.56l2.64-1.01-2.64-1.01v-.56l3.69,1.41Z"/>
            </g>
          </g>
        </g>
        <g id="patch_8" data-name="patch 8">
          <path class="cls-2" d="M91.63,318.64V105.11"/>
        </g>
        <g id="patch_9" data-name="patch 9">
          <path class="cls-2" d="M469.7,318.64V105.11"/>
        </g>
        <g id="patch_10" data-name="patch 10">
          <path class="cls-2" d="M91.63,318.64h378.07"/>
        </g>
        <g id="patch_11" data-name="patch 11">
          <path class="cls-2" d="M91.63,105.11h378.07"/>
        </g>
        <g id="text_16" data-name="text 16">
          <g>
            <path id="DejaVuSans-Bold-31" class="cls-10" d="M319.45,293.61h1.03v-2.77l-1.05.21v-.75l1.05-.21h1.1v3.52h1.03v.76h-3.15v-.76Z"/>
            <path id="DejaVuSans-Bold-30" class="cls-10" d="M325.87,292.23c0-.54-.05-.91-.16-1.13-.11-.22-.28-.33-.53-.33s-.43.11-.53.33c-.11.22-.16.6-.16,1.13s.05.92.16,1.15c.11.22.28.33.53.33s.42-.11.53-.33c.11-.22.16-.6.16-1.15ZM327.03,292.24c0,.71-.16,1.26-.48,1.64s-.78.58-1.37.58-1.05-.19-1.37-.58c-.32-.39-.48-.93-.48-1.64s.16-1.26.48-1.65c.32-.39.78-.58,1.37-.58s1.05.19,1.37.58c.32.39.48.93.48,1.65Z"/>
            <path id="DejaVuSans-Bold-2e" class="cls-10" d="M327.95,293.27h1.09v1.11h-1.09v-1.11Z"/>
            <path id="DejaVuSans-Bold-30-2" data-name="DejaVuSans-Bold-30" class="cls-10" d="M332.52,292.23c0-.54-.05-.91-.16-1.13-.11-.22-.28-.33-.53-.33s-.43.11-.53.33c-.11.22-.16.6-.16,1.13s.05.92.16,1.15c.11.22.28.33.53.33s.42-.11.53-.33c.11-.22.16-.6.16-1.15ZM333.68,292.24c0,.71-.16,1.26-.48,1.64s-.78.58-1.37.58-1.05-.19-1.37-.58c-.32-.39-.48-.93-.48-1.64s.16-1.26.48-1.65c.32-.39.78-.58,1.37-.58s1.05.19,1.37.58c.32.39.48.93.48,1.65Z"/>
          </g>
        </g>
        <g id="text_17" data-name="text 17">
          <g>
            <path id="DejaVuSans-Bold-31-2" data-name="DejaVuSans-Bold-31" class="cls-10" d="M352.9,253.17h1.03v-2.77l-1.05.21v-.75l1.05-.21h1.1v3.52h1.03v.76h-3.15v-.76Z"/>
            <path id="DejaVuSans-Bold-31-3" data-name="DejaVuSans-Bold-31" class="cls-10" d="M357.2,253.17h1.03v-2.77l-1.05.21v-.75l1.05-.21h1.1v3.52h1.03v.76h-3.15v-.76Z"/>
            <path id="DejaVuSans-Bold-2e-2" data-name="DejaVuSans-Bold-2e" class="cls-10" d="M361.41,252.83h1.09v1.11h-1.09v-1.11Z"/>
            <path id="DejaVuSans-Bold-33" class="cls-10" d="M366,251.63c.3.07.53.2.69.39.16.18.24.42.24.7,0,.43-.17.75-.51.97-.34.22-.84.33-1.5.33-.23,0-.46-.02-.7-.05-.23-.04-.46-.09-.69-.16v-.85c.22.1.43.18.65.23.21.05.43.08.63.08.31,0,.54-.05.71-.15.16-.1.25-.25.25-.44s-.08-.34-.25-.44-.42-.15-.74-.15h-.46v-.71h.49c.29,0,.51-.04.65-.13.14-.09.21-.22.21-.4,0-.16-.07-.29-.21-.38-.14-.09-.33-.14-.59-.14-.19,0-.38.02-.57.06-.19.04-.38.1-.57.18v-.81c.23-.06.46-.11.68-.14s.45-.05.66-.05c.59,0,1.02.09,1.31.27.29.18.44.46.44.82,0,.25-.07.46-.21.62-.14.16-.34.27-.62.34Z"/>
          </g>
        </g>
        <g id="text_18" data-name="text 18">
          <g>
            <path id="DejaVuSans-Bold-31-4" data-name="DejaVuSans-Bold-31" class="cls-10" d="M355.45,212.73h1.03v-2.77l-1.05.21v-.75l1.05-.21h1.1v3.52h1.03v.76h-3.15v-.76Z"/>
            <path id="DejaVuSans-Bold-31-5" data-name="DejaVuSans-Bold-31" class="cls-10" d="M359.75,212.73h1.03v-2.77l-1.05.21v-.75l1.05-.21h1.1v3.52h1.03v.76h-3.15v-.76Z"/>
            <path id="DejaVuSans-Bold-2e-3" data-name="DejaVuSans-Bold-2e" class="cls-10" d="M363.96,212.39h1.09v1.11h-1.09v-1.11Z"/>
            <path id="DejaVuSans-Bold-34" class="cls-10" d="M367.95,210.12l-1.27,1.79h1.27v-1.79ZM367.76,209.21h1.29v2.7h.64v.8h-.64v.78h-1.1v-.78h-2v-.95l1.8-2.56Z"/>
          </g>
        </g>
        <g id="text_19" data-name="text 19">
          <g>
            <path id="DejaVuSans-Bold-31-6" data-name="DejaVuSans-Bold-31" class="cls-10" d="M393.76,172.29h1.03v-2.77l-1.05.21v-.75l1.05-.21h1.1v3.52h1.03v.76h-3.15v-.76Z"/>
            <path id="DejaVuSans-Bold-32" class="cls-10" d="M399.12,172.24h1.98v.81h-3.27v-.81l1.64-1.38c.15-.13.26-.25.33-.37s.11-.25.11-.38c0-.2-.07-.36-.21-.49s-.33-.18-.57-.18c-.18,0-.38.04-.59.11-.22.07-.45.18-.69.33v-.94c.26-.08.52-.14.78-.19.26-.04.51-.07.75-.07.54,0,.96.11,1.26.34.3.23.45.54.45.94,0,.23-.06.45-.19.65-.13.2-.39.47-.8.81l-.96.8Z"/>
            <path id="DejaVuSans-Bold-2e-4" data-name="DejaVuSans-Bold-2e" class="cls-10" d="M402.27,171.95h1.09v1.11h-1.09v-1.11Z"/>
            <path id="DejaVuSans-Bold-39" class="cls-10" d="M404.6,172.96v-.79c.18.08.36.14.53.19.17.04.34.06.5.06.35,0,.62-.09.81-.27.19-.18.31-.45.34-.81-.14.1-.28.17-.44.21s-.32.07-.5.07c-.46,0-.83-.13-1.12-.38-.28-.26-.42-.59-.42-1.01,0-.46.16-.83.47-1.11s.74-.42,1.27-.42c.59,0,1.04.19,1.36.57.32.38.48.91.48,1.6s-.19,1.27-.56,1.67c-.38.4-.89.61-1.55.61-.21,0-.41-.02-.61-.05-.19-.03-.38-.07-.57-.13ZM406.04,170.9c.2,0,.36-.06.46-.19.1-.13.15-.31.15-.56s-.05-.44-.15-.56c-.1-.13-.26-.19-.46-.19s-.36.06-.46.19c-.1.13-.15.31-.15.56s.05.44.15.56c.1.12.26.19.46.19Z"/>
          </g>
        </g>
        <g id="text_20" data-name="text 20">
          <g>
            <path id="DejaVuSans-Bold-31-7" data-name="DejaVuSans-Bold-31" class="cls-10" d="M424.4,131.85h1.03v-2.77l-1.05.21v-.75l1.05-.21h1.1v3.52h1.03v.76h-3.15v-.76Z"/>
            <path id="DejaVuSans-Bold-34-2" data-name="DejaVuSans-Bold-34" class="cls-10" d="M430.25,129.24l-1.27,1.79h1.27v-1.79ZM430.06,128.33h1.29v2.7h.64v.8h-.64v.78h-1.1v-.78h-2v-.95l1.8-2.56Z"/>
            <path id="DejaVuSans-Bold-2e-5" data-name="DejaVuSans-Bold-2e" class="cls-10" d="M432.91,131.51h1.09v1.11h-1.09v-1.11Z"/>
            <path id="DejaVuSans-Bold-31-8" data-name="DejaVuSans-Bold-31" class="cls-10" d="M435.35,131.85h1.03v-2.77l-1.05.21v-.75l1.05-.21h1.1v3.52h1.03v.76h-3.15v-.76Z"/>
          </g>
        </g>
        <g id="text_21" data-name="text 21">
          <g>
            <path id="DejaVuSans-50-2" data-name="DejaVuSans-50" d="M208.29,97.01v1.93h.92c.34,0,.6-.08.79-.25.19-.17.28-.41.28-.72s-.09-.55-.28-.71c-.19-.17-.45-.25-.79-.25h-.92ZM207.56,96.44h1.65c.61,0,1.06.13,1.37.39.31.26.47.64.47,1.15s-.16.89-.47,1.15c-.31.26-.77.39-1.37.39h-.92v2.07h-.73v-5.14Z"/>
            <path id="DejaVuSans-72-7" data-name="DejaVuSans-72" d="M214.22,98.32c-.07-.04-.16-.07-.24-.09-.09-.02-.19-.03-.29-.03-.38,0-.67.12-.87.35s-.3.57-.3,1v2.03h-.67v-3.86h.67v.6c.14-.23.32-.41.55-.52.22-.11.5-.17.82-.17.05,0,.1,0,.15,0,.06,0,.12.01.18.03v.65Z"/>
            <path id="DejaVuSans-69-3" data-name="DejaVuSans-69" d="M214.92,97.73h.67v3.86h-.67v-3.86ZM214.92,96.22h.67v.8h-.67v-.8Z"/>
            <path id="DejaVuSans-6d" d="M220.14,98.47c.17-.29.37-.5.6-.63s.5-.2.82-.2c.42,0,.75.14.98.42.23.28.34.68.34,1.2v2.33h-.67v-2.31c0-.37-.07-.64-.21-.82-.14-.18-.35-.27-.63-.27-.35,0-.62.11-.82.33-.2.22-.3.51-.3.89v2.18h-.67v-2.31c0-.37-.07-.65-.21-.82s-.35-.27-.64-.27c-.34,0-.61.11-.81.33-.2.22-.3.52-.3.89v2.18h-.67v-3.86h.67v.6c.15-.24.33-.41.55-.52s.46-.17.76-.17.55.07.75.21c.21.14.36.35.46.62Z"/>
            <path id="DejaVuSans-61-4" data-name="DejaVuSans-61" d="M226.05,99.65c-.54,0-.91.06-1.12.18s-.31.32-.31.6c0,.22.08.4.23.54.16.13.37.2.64.2.37,0,.67-.12.89-.37s.33-.58.33-.99v-.14h-.66ZM227.38,99.38v2.2h-.67v-.59c-.15.23-.34.41-.57.52-.23.11-.5.17-.83.17-.41,0-.75-.11-.99-.33-.24-.22-.37-.52-.37-.89,0-.43.15-.76.46-.98.31-.22.76-.33,1.37-.33h.94v-.06c0-.29-.1-.52-.3-.68s-.48-.24-.85-.24c-.23,0-.46.03-.68.08-.22.05-.43.13-.63.24v-.59c.24-.09.48-.16.71-.2.23-.04.45-.07.67-.07.59,0,1.03.14,1.32.43.29.29.43.73.43,1.32Z"/>
            <path id="DejaVuSans-72-8" data-name="DejaVuSans-72" d="M231.1,98.32c-.07-.04-.16-.07-.24-.09-.09-.02-.19-.03-.29-.03-.38,0-.67.12-.87.35s-.3.57-.3,1v2.03h-.67v-3.86h.67v.6c.14-.23.32-.41.55-.52.22-.11.5-.17.82-.17.05,0,.1,0,.15,0,.06,0,.12.01.18.03v.65Z"/>
            <path id="DejaVuSans-79-2" data-name="DejaVuSans-79" d="M233.49,101.94c-.19.46-.37.76-.55.9-.18.14-.42.21-.72.21h-.53v-.53h.39c.18,0,.33-.04.43-.12.1-.08.21-.28.34-.59l.12-.29-1.64-3.8h.71l1.27,3.02,1.27-3.02h.71l-1.78,4.22Z"/>
            <path id="DejaVuSans-45-5" data-name="DejaVuSans-45" d="M238.58,96.44h3.42v.59h-2.69v1.52h2.57v.59h-2.57v1.86h2.75v.59h-3.48v-5.14Z"/>
            <path id="DejaVuSans-6e-4" data-name="DejaVuSans-6e" d="M246.61,99.25v2.33h-.67v-2.31c0-.37-.07-.64-.22-.82-.15-.18-.37-.27-.67-.27-.36,0-.64.11-.85.33-.21.22-.31.51-.31.89v2.18h-.67v-3.86h.67v.6c.16-.23.35-.41.56-.52.22-.11.47-.17.75-.17.47,0,.82.14,1.06.41.24.27.36.68.36,1.21Z"/>
            <path id="DejaVuSans-65-5" data-name="DejaVuSans-65" d="M251.4,99.5v.31h-3.06c.03.44.17.77.41,1,.25.23.59.34,1.03.34.26,0,.5-.03.74-.09s.48-.15.72-.27v.6c-.24.1-.48.17-.74.22s-.51.08-.76.08c-.65,0-1.16-.18-1.54-.54-.38-.36-.57-.84-.57-1.46s.18-1.13.54-1.5c.36-.37.84-.56,1.45-.56.55,0,.98.17,1.29.5.32.33.48.79.48,1.36ZM250.74,99.31c0-.35-.11-.62-.31-.83-.2-.21-.46-.31-.79-.31-.37,0-.67.1-.89.3s-.35.48-.39.84h2.38Z"/>
            <path id="DejaVuSans-72-9" data-name="DejaVuSans-72" d="M254.85,98.32c-.07-.04-.16-.07-.24-.09-.09-.02-.19-.03-.29-.03-.38,0-.67.12-.87.35s-.3.57-.3,1v2.03h-.67v-3.86h.67v.6c.14-.23.32-.41.55-.52.22-.11.5-.17.82-.17.05,0,.1,0,.15,0,.06,0,.12.01.18.03v.65Z"/>
            <path id="DejaVuSans-67" d="M258.09,99.61c0-.46-.1-.82-.3-1.07-.2-.25-.48-.38-.84-.38s-.64.13-.83.38c-.2.25-.3.61-.3,1.07s.1.81.3,1.06c.2.25.48.38.83.38s.64-.13.84-.38c.2-.25.3-.61.3-1.06ZM258.75,101.11c0,.66-.15,1.14-.46,1.47-.31.32-.78.48-1.41.48-.23,0-.46-.02-.66-.05s-.41-.08-.6-.15v-.62c.2.1.39.17.58.22.19.05.39.07.58.07.44,0,.76-.11.98-.33.22-.22.33-.54.33-.98v-.31c-.14.23-.31.4-.53.51s-.47.17-.77.17c-.5,0-.9-.18-1.2-.54-.3-.36-.46-.84-.46-1.43s.15-1.08.46-1.44c.3-.36.7-.54,1.2-.54.3,0,.56.06.77.17s.39.28.53.51v-.59h.67v3.38Z"/>
            <path id="DejaVuSans-79-3" data-name="DejaVuSans-79" d="M261.81,101.94c-.19.46-.37.76-.55.9-.18.14-.42.21-.72.21h-.53v-.53h.39c.18,0,.33-.04.43-.12.1-.08.21-.28.34-.59l.12-.29-1.64-3.8h.71l1.27,3.02,1.27-3.02h.71l-1.78,4.22Z"/>
            <path id="DejaVuSans-43-3" data-name="DejaVuSans-43" d="M270.95,96.84v.73c-.25-.22-.51-.38-.79-.49-.28-.11-.58-.16-.89-.16-.62,0-1.09.18-1.42.54s-.49.88-.49,1.56.16,1.2.49,1.56.8.54,1.42.54c.31,0,.61-.05.89-.16s.54-.27.79-.49v.73c-.26.17-.53.29-.81.37-.29.08-.59.12-.91.12-.82,0-1.46-.24-1.94-.71-.47-.48-.71-1.13-.71-1.95s.24-1.48.71-1.95c.47-.48,1.12-.72,1.94-.72.32,0,.63.04.91.12.29.08.56.2.81.37Z"/>
            <path id="DejaVuSans-6f-5" data-name="DejaVuSans-6f" d="M273.62,98.17c-.36,0-.64.13-.85.4s-.31.63-.31,1.09.1.82.31,1.09c.21.27.49.4.85.4s.64-.13.84-.4c.21-.27.31-.63.31-1.09s-.1-.82-.31-1.09c-.21-.27-.49-.4-.84-.4ZM273.62,97.63c.58,0,1.03.18,1.37.54.33.36.5.85.5,1.49s-.17,1.13-.5,1.49c-.33.36-.79.54-1.37.54s-1.04-.18-1.37-.54c-.33-.36-.49-.86-.49-1.49s.16-1.13.49-1.49c.33-.36.79-.54,1.37-.54Z"/>
            <path id="DejaVuSans-6e-5" data-name="DejaVuSans-6e" d="M279.96,99.25v2.33h-.67v-2.31c0-.37-.07-.64-.22-.82-.15-.18-.37-.27-.67-.27-.36,0-.64.11-.85.33-.21.22-.31.51-.31.89v2.18h-.67v-3.86h.67v.6c.16-.23.35-.41.56-.52.22-.11.47-.17.75-.17.47,0,.82.14,1.06.41.24.27.36.68.36,1.21Z"/>
            <path id="DejaVuSans-73" d="M283.87,97.84v.6c-.19-.09-.38-.16-.59-.21-.2-.05-.41-.07-.63-.07-.33,0-.58.05-.74.14-.17.1-.25.24-.25.43,0,.15.06.26.18.35s.36.16.71.24l.23.05c.47.1.81.23,1.01.41s.3.42.3.74c0,.36-.15.64-.45.85-.3.21-.71.31-1.23.31-.22,0-.44-.02-.68-.06-.24-.04-.48-.1-.74-.18v-.65c.25.12.49.21.73.27.24.06.48.09.71.09.31,0,.55-.05.72-.15.17-.1.25-.25.25-.43,0-.17-.06-.3-.18-.4-.12-.09-.39-.18-.8-.27l-.23-.05c-.41-.08-.71-.21-.89-.38-.18-.17-.27-.41-.27-.7,0-.36.14-.64.41-.84.27-.2.65-.3,1.15-.3.25,0,.48.02.69.05.22.03.42.09.6.15Z"/>
            <path id="DejaVuSans-75-3" data-name="DejaVuSans-75" d="M285.08,100.06v-2.34h.67v2.31c0,.37.07.64.22.82.15.18.37.27.67.27.36,0,.64-.11.85-.33.21-.22.31-.52.31-.89v-2.19h.67v3.86h-.67v-.59c-.16.23-.35.41-.56.52-.21.11-.46.17-.74.17-.47,0-.82-.14-1.06-.41-.24-.28-.36-.68-.36-1.21Z"/>
            <path id="DejaVuSans-6d-2" data-name="DejaVuSans-6d" d="M293.01,98.47c.17-.29.37-.5.6-.63s.5-.2.82-.2c.42,0,.75.14.98.42.23.28.34.68.34,1.2v2.33h-.67v-2.31c0-.37-.07-.64-.21-.82-.14-.18-.35-.27-.63-.27-.35,0-.62.11-.82.33-.2.22-.3.51-.3.89v2.18h-.67v-2.31c0-.37-.07-.65-.21-.82s-.35-.27-.64-.27c-.34,0-.61.11-.81.33-.2.22-.3.52-.3.89v2.18h-.67v-3.86h.67v.6c.15-.24.33-.41.55-.52s.46-.17.76-.17.55.07.75.21c.21.14.36.35.46.62Z"/>
            <path id="DejaVuSans-70-2" data-name="DejaVuSans-70" d="M297.72,101.01v2.05h-.67v-5.33h.67v.59c.14-.23.32-.4.53-.51.21-.11.47-.17.77-.17.49,0,.89.19,1.2.56.31.37.46.86.46,1.47s-.15,1.1-.46,1.47c-.31.37-.71.56-1.2.56-.3,0-.55-.06-.77-.17-.21-.11-.39-.28-.53-.51ZM299.99,99.66c0-.47-.1-.83-.3-1.1s-.48-.4-.83-.4-.63.13-.83.4-.3.63-.3,1.1.1.83.3,1.1c.2.27.48.4.83.4s.63-.13.83-.4c.2-.27.3-.63.3-1.1Z"/>
            <path id="DejaVuSans-74-2" data-name="DejaVuSans-74" d="M302.45,96.63v1.1h1.37v.49h-1.37v2.09c0,.31.05.52.14.61s.27.13.55.13h.68v.53h-.68c-.51,0-.87-.09-1.06-.27-.2-.18-.29-.52-.29-1v-2.09h-.49v-.49h.49v-1.1h.67Z"/>
            <path id="DejaVuSans-69-4" data-name="DejaVuSans-69" d="M304.69,97.73h.67v3.86h-.67v-3.86ZM304.69,96.22h.67v.8h-.67v-.8Z"/>
            <path id="DejaVuSans-6f-6" data-name="DejaVuSans-6f" d="M308.33,98.17c-.36,0-.64.13-.85.4s-.31.63-.31,1.09.1.82.31,1.09c.21.27.49.4.85.4s.64-.13.84-.4c.21-.27.31-.63.31-1.09s-.1-.82-.31-1.09c-.21-.27-.49-.4-.84-.4ZM308.33,97.63c.58,0,1.03.18,1.37.54.33.36.5.85.5,1.49s-.17,1.13-.5,1.49c-.33.36-.79.54-1.37.54s-1.04-.18-1.37-.54c-.33-.36-.49-.86-.49-1.49s.16-1.13.49-1.49c.33-.36.79-.54,1.37-.54Z"/>
            <path id="DejaVuSans-6e-6" data-name="DejaVuSans-6e" d="M314.66,99.25v2.33h-.67v-2.31c0-.37-.07-.64-.22-.82-.15-.18-.37-.27-.67-.27-.36,0-.64.11-.85.33-.21.22-.31.51-.31.89v2.18h-.67v-3.86h.67v.6c.16-.23.35-.41.56-.52.22-.11.47-.17.75-.17.47,0,.82.14,1.06.41.24.27.36.68.36,1.21Z"/>
            <path id="DejaVuSans-62" d="M321.26,99.66c0-.47-.1-.83-.3-1.1s-.48-.4-.83-.4-.63.13-.83.4-.3.63-.3,1.1.1.83.3,1.1c.2.27.48.4.83.4s.63-.13.83-.4c.2-.27.3-.63.3-1.1ZM318.99,98.31c.14-.23.32-.4.53-.51.21-.11.47-.17.77-.17.49,0,.89.19,1.2.56.31.37.46.86.46,1.47s-.15,1.1-.46,1.47c-.31.37-.71.56-1.2.56-.3,0-.55-.06-.77-.17-.21-.11-.39-.28-.53-.51v.58h-.67v-5.36h.67v2.09Z"/>
            <path id="DejaVuSans-79-4" data-name="DejaVuSans-79" d="M324.75,101.94c-.19.46-.37.76-.55.9-.18.14-.42.21-.72.21h-.53v-.53h.39c.18,0,.33-.04.43-.12.1-.08.21-.28.34-.59l.12-.29-1.64-3.8h.71l1.27,3.02,1.27-3.02h.71l-1.78,4.22Z"/>
            <path id="DejaVuSans-52" d="M332.4,99.17c.16.05.31.16.46.32s.3.39.45.68l.74,1.41h-.79l-.69-1.32c-.18-.34-.35-.57-.52-.69s-.4-.17-.69-.17h-.8v2.17h-.73v-5.14h1.65c.62,0,1.08.12,1.38.37.3.25.46.62.46,1.11,0,.32-.08.59-.24.81-.16.21-.39.36-.69.44ZM330.57,97.01v1.83h.92c.35,0,.62-.08.8-.23s.27-.38.27-.68-.09-.53-.27-.68-.45-.23-.8-.23h-.92Z"/>
            <path id="DejaVuSans-65-6" data-name="DejaVuSans-65" d="M338.09,99.5v.31h-3.06c.03.44.17.77.41,1,.25.23.59.34,1.03.34.26,0,.5-.03.74-.09s.48-.15.72-.27v.6c-.24.1-.48.17-.74.22s-.51.08-.76.08c-.65,0-1.16-.18-1.54-.54-.38-.36-.57-.84-.57-1.46s.18-1.13.54-1.5c.36-.37.84-.56,1.45-.56.55,0,.98.17,1.29.5.32.33.48.79.48,1.36ZM337.43,99.31c0-.35-.11-.62-.31-.83-.2-.21-.46-.31-.79-.31-.37,0-.67.1-.89.3s-.35.48-.39.84h2.38Z"/>
            <path id="DejaVuSans-67-2" data-name="DejaVuSans-67" d="M341.86,99.61c0-.46-.1-.82-.3-1.07-.2-.25-.48-.38-.84-.38s-.64.13-.83.38c-.2.25-.3.61-.3,1.07s.1.81.3,1.06c.2.25.48.38.83.38s.64-.13.84-.38c.2-.25.3-.61.3-1.06ZM342.52,101.11c0,.66-.15,1.14-.46,1.47-.31.32-.78.48-1.41.48-.23,0-.46-.02-.66-.05s-.41-.08-.6-.15v-.62c.2.1.39.17.58.22.19.05.39.07.58.07.44,0,.76-.11.98-.33.22-.22.33-.54.33-.98v-.31c-.14.23-.31.4-.53.51s-.47.17-.77.17c-.5,0-.9-.18-1.2-.54-.3-.36-.46-.84-.46-1.43s.15-1.08.46-1.44c.3-.36.7-.54,1.2-.54.3,0,.56.06.77.17s.39.28.53.51v-.59h.67v3.38Z"/>
            <path id="DejaVuSans-69-5" data-name="DejaVuSans-69" d="M343.9,97.73h.67v3.86h-.67v-3.86ZM343.9,96.22h.67v.8h-.67v-.8Z"/>
            <path id="DejaVuSans-6f-7" data-name="DejaVuSans-6f" d="M347.53,98.17c-.36,0-.64.13-.85.4s-.31.63-.31,1.09.1.82.31,1.09c.21.27.49.4.85.4s.64-.13.84-.4c.21-.27.31-.63.31-1.09s-.1-.82-.31-1.09c-.21-.27-.49-.4-.84-.4ZM347.53,97.63c.58,0,1.03.18,1.37.54.33.36.5.85.5,1.49s-.17,1.13-.5,1.49c-.33.36-.79.54-1.37.54s-1.04-.18-1.37-.54c-.33-.36-.49-.86-.49-1.49s.16-1.13.49-1.49c.33-.36.79-.54,1.37-.54Z"/>
            <path id="DejaVuSans-6e-7" data-name="DejaVuSans-6e" d="M353.87,99.25v2.33h-.67v-2.31c0-.37-.07-.64-.22-.82-.15-.18-.37-.27-.67-.27-.36,0-.64.11-.85.33-.21.22-.31.51-.31.89v2.18h-.67v-3.86h.67v.6c.16-.23.35-.41.56-.52.22-.11.47-.17.75-.17.47,0,.82.14,1.06.41.24.27.36.68.36,1.21Z"/>
          </g>
        </g>
      </g>
    </g>
    <text class="cls-9" transform="translate(476.35 133.08)"><tspan x="0" y="0">Chin</tspan><tspan class="cls-14" x="17.32" y="0">a</tspan><tspan class="cls-12" x="21.36" y="0">’</tspan><tspan class="cls-11" x="22.57" y="0">s PE </tspan><tspan class="cls-20" x="39.17" y="0">v</tspan><tspan x="43.46" y="0">alue indic</tspan><tspan class="cls-19" x="79.61" y="0">a</tspan><tspan class="cls-16" x="83.92" y="0">t</tspan><tspan x="86.84" y="0">es th</tspan><tspan class="cls-19" x="104.79" y="0">a</tspan><tspan x="109.1" y="0">t its</tspan><tspan x="0" y="10.8">ele</tspan><tspan class="cls-28" x="11.14" y="10.8">c</tspan><tspan x="15.29" y="10.8">t</tspan><tspan class="cls-29" x="18.27" y="10.8">r</tspan><tspan class="cls-11" x="21.25" y="10.8">ici</tspan><tspan class="cls-31" x="29.49" y="10.8">t</tspan><tspan x="32.55" y="10.8">y gene</tspan><tspan class="cls-17" x="57.74" y="10.8">r</tspan><tspan class="cls-20" x="60.64" y="10.8">a</tspan><tspan class="cls-11" x="64.94" y="10.8" xml:space="preserve">tion is  highly</tspan><tspan x="0" y="21.6">ene</tspan><tspan class="cls-24" x="14.01" y="21.6">r</tspan><tspan x="16.88" y="21.6">g</tspan><tspan class="cls-18" x="21.92" y="21.6">y</tspan><tspan class="cls-11" x="26.12" y="21.6">-i</tspan><tspan class="cls-20" x="30.99" y="21.6">n</tspan><tspan class="cls-16" x="35.95" y="21.6">t</tspan><tspan x="38.87" y="21.6">ensi</tspan><tspan class="cls-22" x="54.04" y="21.6">v</tspan><tspan class="cls-21" x="58.28" y="21.6">e</tspan><tspan class="cls-4" x="62.68" y="21.6">, p</tspan><tspan class="cls-29" x="71.58" y="21.6">r</tspan><tspan class="cls-11" x="74.55" y="21.6">ima</tspan><tspan class="cls-29" x="88.5" y="21.6">r</tspan><tspan class="cls-11" x="91.48" y="21.6">ily due </tspan><tspan class="cls-16" x="118.31" y="21.6">t</tspan><tspan class="cls-4" x="121.24" y="21.6">o</tspan><tspan x="0" y="32.4">its </tspan><tspan class="cls-22" x="10.56" y="32.4">r</tspan><tspan x="13.41" y="32.4">elian</tspan><tspan class="cls-15" x="31.48" y="32.4">c</tspan><tspan class="cls-11" x="35.46" y="32.4">e on</tspan><tspan class="cls-15" x="0" y="43.2">c</tspan><tspan x="3.98" y="43.2">oal-he</tspan><tspan class="cls-23" x="27.65" y="43.2">a</tspan><tspan class="cls-30" x="31.91" y="43.2">v</tspan><tspan x="36.35" y="43.2">y p</tspan><tspan class="cls-25" x="47.62" y="43.2">o</tspan><tspan class="cls-22" x="52.5" y="43.2">w</tspan><tspan x="59.03" y="43.2">er pla</tspan><tspan class="cls-20" x="79.97" y="43.2">n</tspan><tspan class="cls-11" x="84.93" y="43.2">ts</tspan></text>
  </g>
</svg>