<?xml version="1.0" encoding="UTF-8"?>
<svg id="Layer_2" data-name="Layer 2" xmlns="http://www.w3.org/2000/svg" xmlns:xlink="http://www.w3.org/1999/xlink" viewBox="0 0 375 467">
  <defs>
    <style>
      .cls-1, .cls-2 {
        fill: none;
      }

      .cls-3 {
        fill: #000b84;
      }

      .cls-4 {
        font-family: MyriadPro-Regular, 'Myriad Pro';
        font-size: 12px;
      }

      .cls-5 {
        clip-path: url(#clippath-1);
      }

      .cls-6 {
        clip-path: url(#clippath-3);
      }

      .cls-7 {
        clip-path: url(#clippath-4);
      }

      .cls-8 {
        clip-path: url(#clippath-2);
      }

      .cls-9 {
        letter-spacing: 0em;
      }

      .cls-10 {
        letter-spacing: 0em;
      }

      .cls-11 {
        fill: #fff;
      }

      .cls-12 {
        letter-spacing: 0em;
      }

      .cls-13 {
        letter-spacing: 0em;
      }

      .cls-14 {
        font-family: SourceSansRoman-Bold, 'Source Sans Variable';
        font-size: 28px;
        font-variation-settings: 'wght' 700;
        font-weight: 700;
      }

      .cls-15 {
        letter-spacing: -.07em;
      }

      .cls-16 {
        letter-spacing: -.03em;
      }

      .cls-17 {
        letter-spacing: -.02em;
      }

      .cls-18 {
        letter-spacing: -.01em;
      }

      .cls-19 {
        letter-spacing: -.04em;
      }

      .cls-20 {
        stroke-linejoin: round;
      }

      .cls-20, .cls-2 {
        stroke: #000;
        stroke-width: .8px;
      }

      .cls-21 {
        letter-spacing: -.03em;
      }

      .cls-22 {
        letter-spacing: 0em;
      }

      .cls-23 {
        letter-spacing: 0em;
      }

      .cls-24 {
        letter-spacing: 0em;
      }

      .cls-25 {
        letter-spacing: 0em;
      }

      .cls-26 {
        letter-spacing: 0em;
      }

      .cls-2 {
        stroke-linecap: square;
      }

      .cls-27 {
        letter-spacing: -.01em;
      }

      .cls-28 {
        letter-spacing: -.01em;
      }

      .cls-29 {
        letter-spacing: 0em;
      }

      .cls-30 {
        letter-spacing: 0em;
      }

      .cls-31 {
        letter-spacing: 0em;
      }

      .cls-32 {
        fill: #005f94;
      }

      .cls-33 {
        clip-path: url(#clippath);
      }

      .cls-34 {
        letter-spacing: .01em;
      }

      .cls-35 {
        letter-spacing: 0em;
      }

      .cls-36 {
        letter-spacing: 0em;
      }

      .cls-37 {
        letter-spacing: .01em;
      }

      .cls-38 {
        letter-spacing: 0em;
      }
    </style>
    <clipPath id="clippath">
      <rect class="cls-1" x="111.36" y="109" width="161.79" height="241.04"/>
    </clipPath>
    <clipPath id="clippath-1">
      <rect class="cls-1" x="111.36" y="109" width="161.79" height="241.04"/>
    </clipPath>
    <clipPath id="clippath-2">
      <rect class="cls-1" x="111.36" y="109" width="161.79" height="241.04"/>
    </clipPath>
    <clipPath id="clippath-3">
      <rect class="cls-1" x="111.36" y="109" width="161.79" height="241.04"/>
    </clipPath>
    <clipPath id="clippath-4">
      <rect class="cls-1" x="111.36" y="109" width="161.79" height="241.04"/>
    </clipPath>
  </defs>
  <g id="ai2html-settings">
    <rect class="cls-11" width="375" height="467"/>
    <text class="cls-14" transform="translate(21.74 46.68)"><tspan x="0" y="0">THE </tspan><tspan class="cls-19" x="55.38" y="0">C</tspan><tspan x="70.64" y="0">O</tspan><tspan class="cls-17" x="89.79" y="0">S</tspan><tspan class="cls-10" x="104.8" y="0">T OF ENERG</tspan><tspan class="cls-16" x="249.73" y="0">Y</tspan><tspan class="cls-19" x="0" y="36">C</tspan><tspan class="cls-13" x="15.26" y="36">ONSUM</tspan><tspan class="cls-18" x="108.55" y="36">P</tspan><tspan class="cls-10" x="124.85" y="36">TION PER REGION</tspan></text>
    <g id="figure_1" data-name="figure 1">
      <g id="patch_1" data-name="patch 1">
        <path class="cls-11" d="M90.82,366.72h187V98.72H90.82v268Z"/>
      </g>
      <g id="axes_1" data-name="axes 1">
        <g id="patch_2" data-name="patch 2">
          <path class="cls-11" d="M111.36,350.03h161.79V109H111.36v241.04Z"/>
        </g>
        <g id="patch_3" data-name="patch 3">
          <g class="cls-33">
            <path class="cls-32" d="M118.72,350.03h24.51v-162.64h-24.51v162.64Z"/>
          </g>
        </g>
        <g id="patch_4" data-name="patch 4">
          <g class="cls-5">
            <path class="cls-32" d="M149.36,350.03h24.51v-183.97h-24.51v183.97Z"/>
          </g>
        </g>
        <g id="patch_5" data-name="patch 5">
          <g class="cls-8">
            <path class="cls-32" d="M180,350.03h24.51v-185.6h-24.51v185.6Z"/>
          </g>
        </g>
        <g id="patch_6" data-name="patch 6">
          <g class="cls-6">
            <path class="cls-32" d="M210.64,350.03h24.51v-210.02h-24.51v210.02Z"/>
          </g>
        </g>
        <g id="patch_7" data-name="patch 7">
          <g class="cls-7">
            <path class="cls-3" d="M241.28,350.03h24.51V120.48h-24.51v229.56Z"/>
          </g>
        </g>
        <g id="matplotlib.axis_1" data-name="matplotlib.axis 1">
          <g id="xtick_1" data-name="xtick 1">
            <g id="line2d_1" data-name="line2d 1">
              <path id="m20008f09e1" class="cls-20" d="M130.97,350.03v1.3"/>
            </g>
            <g id="text_1" data-name="text 1">
              <g>
                <path id="DejaVuSans-57" d="M119.84,352.75h.43l.66,2.29.66-2.29h.48l.66,2.29.66-2.29h.43l-.79,2.71h-.54l-.67-2.36-.67,2.36h-.54l-.79-2.71Z"/>
                <path id="DejaVuSans-6f" d="M125.04,353.67c-.21,0-.37.07-.49.21s-.18.33-.18.58.06.44.18.58c.12.14.29.21.5.21s.37-.07.49-.21c.12-.14.18-.33.18-.57s-.06-.43-.18-.57c-.12-.14-.28-.21-.49-.21ZM125.04,353.38c.34,0,.6.09.8.28.19.19.29.45.29.78s-.1.59-.29.78c-.19.19-.46.28-.8.28s-.61-.09-.8-.28c-.19-.19-.29-.45-.29-.78s.1-.6.29-.78c.19-.19.46-.28.8-.28Z"/>
                <path id="DejaVuSans-72" d="M128.15,353.74s-.09-.04-.14-.05c-.05-.01-.11-.02-.17-.02-.22,0-.39.06-.51.18s-.18.3-.18.53v1.07h-.39v-2.04h.39v.32c.08-.12.19-.22.32-.28.13-.06.29-.09.48-.09.03,0,.06,0,.09,0,.03,0,.07,0,.11.01v.34Z"/>
                <path id="DejaVuSans-6c" d="M128.56,352.64h.39v2.83h-.39v-2.83Z"/>
                <path id="DejaVuSans-64" d="M131.32,353.74v-1.1h.39v2.83h-.39v-.31c-.08.12-.18.21-.31.27-.12.06-.27.09-.45.09-.29,0-.52-.1-.7-.29-.18-.2-.27-.45-.27-.77s.09-.58.27-.77c.18-.2.41-.29.7-.29.17,0,.32.03.45.09.12.06.23.15.31.27ZM129.99,354.45c0,.25.06.44.18.58.12.14.28.21.48.21s.37-.07.49-.21c.12-.14.18-.33.18-.58s-.06-.44-.18-.58c-.12-.14-.28-.21-.49-.21s-.37.07-.48.21-.18.33-.18.58Z"/>
                <path id="DejaVuSans-77" d="M132.28,353.43h.39l.49,1.59.48-1.59h.46l.49,1.59.48-1.59h.39l-.62,2.04h-.46l-.51-1.67-.51,1.67h-.46l-.62-2.04Z"/>
                <path id="DejaVuSans-69" d="M136.05,353.43h.39v2.04h-.39v-2.04ZM136.05,352.64h.39v.42h-.39v-.42Z"/>
                <path id="DejaVuSans-64-2" data-name="DejaVuSans-64" d="M138.81,353.74v-1.1h.39v2.83h-.39v-.31c-.08.12-.18.21-.31.27-.12.06-.27.09-.45.09-.29,0-.52-.1-.7-.29-.18-.2-.27-.45-.27-.77s.09-.58.27-.77c.18-.2.41-.29.7-.29.17,0,.32.03.45.09.12.06.23.15.31.27ZM137.48,354.45c0,.25.06.44.18.58.12.14.28.21.48.21s.37-.07.49-.21c.12-.14.18-.33.18-.58s-.06-.44-.18-.58c-.12-.14-.28-.21-.49-.21s-.37.07-.48.21-.18.33-.18.58Z"/>
                <path id="DejaVuSans-65" d="M142.02,354.37v.16h-1.79c.02.23.1.41.24.53.14.12.35.18.6.18.15,0,.29-.02.43-.05s.28-.08.42-.14v.32c-.14.05-.28.09-.43.12s-.3.04-.45.04c-.38,0-.68-.09-.9-.28-.22-.19-.33-.45-.33-.77s.1-.6.31-.79c.21-.2.49-.29.85-.29.32,0,.57.09.76.26.19.18.28.42.28.72ZM141.63,354.27c0-.18-.06-.33-.18-.44-.12-.11-.27-.16-.46-.16-.22,0-.39.05-.52.16s-.21.25-.23.45h1.39Z"/>
              </g>
            </g>
          </g>
          <g id="xtick_2" data-name="xtick 2">
            <g id="line2d_2" data-name="line2d 2">
              <path id="m20008f09e1-2" data-name="m20008f09e1" class="cls-20" d="M161.61,350.03v1.3"/>
            </g>
            <g id="text_2" data-name="text 2">
              <g>
                <path id="DejaVuSans-46" d="M154.84,352.75h1.81v.31h-1.39v.8h1.25v.31h-1.25v1.3h-.43v-2.71Z"/>
                <path id="DejaVuSans-72-2" data-name="DejaVuSans-72" d="M158.37,353.74s-.09-.04-.14-.05c-.05-.01-.11-.02-.17-.02-.22,0-.39.06-.51.18s-.18.3-.18.53v1.07h-.39v-2.04h.39v.32c.08-.12.19-.22.32-.28.13-.06.29-.09.48-.09.03,0,.06,0,.09,0,.03,0,.07,0,.11.01v.34Z"/>
                <path id="DejaVuSans-61" d="M159.86,354.44c-.31,0-.53.03-.65.09s-.18.17-.18.32c0,.12.05.21.14.28.09.07.21.1.37.1.22,0,.39-.07.52-.2s.2-.31.2-.52v-.07h-.39ZM160.63,354.31v1.16h-.39v-.31c-.09.12-.2.21-.33.27-.13.06-.29.09-.49.09-.24,0-.43-.06-.58-.18-.14-.12-.21-.27-.21-.47,0-.23.09-.4.27-.52.18-.12.44-.17.8-.17h.55v-.03c0-.15-.06-.27-.18-.36s-.28-.13-.5-.13c-.14,0-.27.01-.4.04-.13.03-.25.07-.37.13v-.31c.14-.05.28-.08.41-.11.13-.02.26-.04.39-.04.34,0,.6.08.77.23.17.15.25.38.25.69Z"/>
                <path id="DejaVuSans-6e" d="M163.4,354.24v1.23h-.39v-1.22c0-.19-.04-.34-.13-.43-.09-.1-.22-.14-.39-.14-.21,0-.38.06-.5.17-.12.11-.18.27-.18.47v1.15h-.39v-2.04h.39v.32c.09-.12.2-.21.33-.27.13-.06.27-.09.44-.09.27,0,.48.07.62.22.14.14.21.36.21.64Z"/>
                <path id="DejaVuSans-63" d="M165.88,353.51v.31c-.11-.05-.22-.09-.33-.12s-.22-.04-.33-.04c-.25,0-.45.07-.59.21-.14.14-.21.33-.21.58s.07.44.21.58c.14.14.34.21.59.21.11,0,.22-.01.33-.04s.22-.07.33-.12v.31c-.11.04-.22.08-.34.1-.12.02-.24.03-.37.03-.36,0-.64-.1-.85-.29-.21-.19-.31-.45-.31-.78s.11-.59.32-.78c.21-.19.5-.29.87-.29.12,0,.24.01.35.03.11.02.22.05.33.09Z"/>
                <path id="DejaVuSans-65-2" data-name="DejaVuSans-65" d="M168.58,354.37v.16h-1.79c.02.23.1.41.24.53.14.12.35.18.6.18.15,0,.29-.02.43-.05s.28-.08.42-.14v.32c-.14.05-.28.09-.43.12s-.3.04-.45.04c-.38,0-.68-.09-.9-.28-.22-.19-.33-.45-.33-.77s.1-.6.31-.79c.21-.2.49-.29.85-.29.32,0,.57.09.76.26.19.18.28.42.28.72ZM168.19,354.27c0-.18-.06-.33-.18-.44-.12-.11-.27-.16-.46-.16-.22,0-.39.05-.52.16s-.21.25-.23.45h1.39Z"/>
              </g>
            </g>
          </g>
          <g id="xtick_3" data-name="xtick 3">
            <g id="line2d_3" data-name="line2d 3">
              <path id="m20008f09e1-3" data-name="m20008f09e1" class="cls-20" d="M192.26,350.03v1.3"/>
            </g>
            <g id="text_3" data-name="text 3">
              <g>
                <path id="DejaVuSans-55" d="M188.15,352.75h.43v1.65c0,.29.06.5.18.63.12.13.32.19.6.19s.47-.06.59-.19c.12-.13.18-.34.18-.63v-1.65h.43v1.69c0,.35-.1.62-.31.8-.2.18-.5.27-.9.27s-.7-.09-.9-.27c-.2-.18-.31-.45-.31-.8v-1.69Z"/>
                <path id="DejaVuSans-53" d="M193.26,352.84v.36c-.16-.07-.31-.12-.46-.15-.14-.03-.28-.05-.42-.05-.23,0-.41.04-.54.12-.13.08-.19.19-.19.33,0,.12.04.21.13.27.08.06.24.11.48.15l.26.05c.32.05.55.14.7.28s.23.31.23.53c0,.26-.1.46-.31.6-.2.14-.51.2-.9.2-.15,0-.31-.01-.48-.04-.17-.03-.34-.07-.52-.13v-.38c.17.08.34.15.51.19.17.04.33.06.49.06.24,0,.43-.04.56-.12.13-.08.2-.2.2-.35,0-.13-.05-.24-.14-.31s-.25-.13-.47-.17l-.26-.04c-.32-.05-.55-.14-.69-.26-.14-.12-.21-.28-.21-.49,0-.24.1-.43.29-.57.2-.14.47-.21.81-.21.15,0,.3.01.45.03.15.02.31.06.47.1Z"/>
                <path id="DejaVuSans-41" d="M195.25,353.12l-.58,1.35h1.16l-.58-1.35ZM195.01,352.75h.48l1.2,2.71h-.44l-.29-.7h-1.42l-.29.7h-.45l1.2-2.71Z"/>
              </g>
            </g>
          </g>
          <g id="xtick_4" data-name="xtick 4">
            <g id="line2d_4" data-name="line2d 4">
              <path id="m20008f09e1-4" data-name="m20008f09e1" class="cls-20" d="M222.9,350.03v1.3"/>
            </g>
            <g id="text_4" data-name="text 4">
              <g>
                <path id="DejaVuSans-45" d="M209.12,352.75h2v.31h-1.57v.8h1.5v.31h-1.5v.98h1.61v.31h-2.03v-2.71Z"/>
                <path id="DejaVuSans-75" d="M211.8,354.66v-1.23h.39v1.22c0,.19.04.34.13.43.09.1.22.14.39.14.21,0,.38-.06.5-.17.12-.12.18-.27.18-.47v-1.15h.39v2.04h-.39v-.31c-.09.12-.2.22-.33.28-.12.06-.27.09-.43.09-.27,0-.48-.07-.62-.22-.14-.15-.21-.36-.21-.64Z"/>
                <path id="DejaVuSans-72-3" data-name="DejaVuSans-72" d="M215.95,353.74s-.09-.04-.14-.05c-.05-.01-.11-.02-.17-.02-.22,0-.39.06-.51.18s-.18.3-.18.53v1.07h-.39v-2.04h.39v.32c.08-.12.19-.22.32-.28.13-.06.29-.09.48-.09.03,0,.06,0,.09,0,.03,0,.07,0,.11.01v.34Z"/>
                <path id="DejaVuSans-6f-2" data-name="DejaVuSans-6f" d="M217.18,353.67c-.21,0-.37.07-.49.21s-.18.33-.18.58.06.44.18.58c.12.14.29.21.5.21s.37-.07.49-.21c.12-.14.18-.33.18-.57s-.06-.43-.18-.57c-.12-.14-.28-.21-.49-.21ZM217.18,353.38c.34,0,.6.09.8.28.19.19.29.45.29.78s-.1.59-.29.78c-.19.19-.46.28-.8.28s-.61-.09-.8-.28c-.19-.19-.29-.45-.29-.78s.1-.6.29-.78c.19-.19.46-.28.8-.28Z"/>
                <path id="DejaVuSans-70" d="M219.29,355.16v1.08h-.39v-2.81h.39v.31c.08-.12.19-.21.31-.27.12-.06.27-.09.45-.09.29,0,.52.1.7.29.18.2.27.45.27.77s-.09.58-.27.77c-.18.2-.41.29-.7.29-.17,0-.32-.03-.45-.09-.12-.06-.23-.15-.31-.27ZM220.61,354.45c0-.25-.06-.44-.18-.58s-.28-.21-.48-.21-.37.07-.49.21-.18.33-.18.58.06.44.18.58c.12.14.28.21.49.21s.37-.07.48-.21c.12-.14.18-.33.18-.58Z"/>
                <path id="DejaVuSans-65-3" data-name="DejaVuSans-65" d="M223.68,354.37v.16h-1.79c.02.23.1.41.24.53.14.12.35.18.6.18.15,0,.29-.02.43-.05s.28-.08.42-.14v.32c-.14.05-.28.09-.43.12s-.3.04-.45.04c-.38,0-.68-.09-.9-.28-.22-.19-.33-.45-.33-.77s.1-.6.31-.79c.21-.2.49-.29.85-.29.32,0,.57.09.76.26.19.18.28.42.28.72ZM223.29,354.27c0-.18-.06-.33-.18-.44-.12-.11-.27-.16-.46-.16-.22,0-.39.05-.52.16s-.21.25-.23.45h1.39Z"/>
                <path id="DejaVuSans-28" d="M226.63,352.64c-.19.28-.33.55-.42.83-.09.27-.14.55-.14.83s.05.56.14.83.23.55.42.83h-.34c-.21-.28-.37-.56-.47-.84-.11-.27-.16-.55-.16-.82s.05-.54.16-.82c.1-.27.26-.55.48-.84h.34Z"/>
                <path id="DejaVuSans-45-2" data-name="DejaVuSans-45" d="M227.4,352.75h2v.31h-1.57v.8h1.5v.31h-1.5v.98h1.61v.31h-2.03v-2.71Z"/>
                <path id="DejaVuSans-45-3" data-name="DejaVuSans-45" d="M230.14,352.75h2v.31h-1.57v.8h1.5v.31h-1.5v.98h1.61v.31h-2.03v-2.71Z"/>
                <path id="DejaVuSans-41-2" data-name="DejaVuSans-41" d="M233.93,353.12l-.58,1.35h1.16l-.58-1.35ZM233.69,352.75h.48l1.2,2.71h-.44l-.29-.7h-1.42l-.29.7h-.45l1.2-2.71Z"/>
                <path id="DejaVuSans-29" d="M235.76,352.64h.34c.21.29.37.57.47.84.11.27.16.55.16.82s-.05.54-.16.82c-.11.27-.26.55-.47.84h-.34c.19-.28.33-.55.42-.83.09-.27.14-.55.14-.83s-.05-.56-.14-.83c-.09-.27-.23-.55-.42-.83Z"/>
              </g>
            </g>
          </g>
          <g id="xtick_5" data-name="xtick 5">
            <g id="line2d_5" data-name="line2d 5">
              <path id="m20008f09e1-5" data-name="m20008f09e1" class="cls-20" d="M253.54,350.03v1.3"/>
            </g>
            <g id="text_5" data-name="text 5">
              <g>
                <path id="DejaVuSans-43" d="M250.14,352.96v.39c-.14-.12-.3-.2-.46-.26-.16-.06-.34-.09-.52-.09-.36,0-.64.09-.83.28s-.29.46-.29.82.1.63.29.82.47.28.83.28c.18,0,.36-.03.52-.09s.32-.14.46-.26v.38c-.15.09-.31.15-.47.2-.17.04-.34.07-.53.07-.48,0-.85-.13-1.13-.38-.27-.25-.41-.59-.41-1.03s.14-.78.41-1.03c.28-.25.65-.38,1.13-.38.19,0,.37.02.53.06.17.04.32.11.47.19Z"/>
                <path id="DejaVuSans-68" d="M252.75,354.24v1.23h-.39v-1.22c0-.19-.04-.34-.13-.43-.09-.1-.22-.14-.39-.14-.21,0-.38.06-.5.17-.12.11-.18.27-.18.47v1.15h-.39v-2.83h.39v1.11c.09-.12.2-.21.33-.27.13-.06.27-.09.44-.09.27,0,.48.07.62.22.14.14.21.36.21.64Z"/>
                <path id="DejaVuSans-69-2" data-name="DejaVuSans-69" d="M253.53,353.43h.39v2.04h-.39v-2.04ZM253.53,352.64h.39v.42h-.39v-.42Z"/>
                <path id="DejaVuSans-6e-2" data-name="DejaVuSans-6e" d="M256.7,354.24v1.23h-.39v-1.22c0-.19-.04-.34-.13-.43-.09-.1-.22-.14-.39-.14-.21,0-.38.06-.5.17-.12.11-.18.27-.18.47v1.15h-.39v-2.04h.39v.32c.09-.12.2-.21.33-.27.13-.06.27-.09.44-.09.27,0,.48.07.62.22.14.14.21.36.21.64Z"/>
                <path id="DejaVuSans-61-2" data-name="DejaVuSans-61" d="M258.55,354.44c-.31,0-.53.03-.65.09s-.18.17-.18.32c0,.12.05.21.14.28.09.07.21.1.37.1.22,0,.39-.07.52-.2s.2-.31.2-.52v-.07h-.39ZM259.33,354.31v1.16h-.39v-.31c-.09.12-.2.21-.33.27-.13.06-.29.09-.49.09-.24,0-.43-.06-.58-.18-.14-.12-.21-.27-.21-.47,0-.23.09-.4.27-.52.18-.12.44-.17.8-.17h.55v-.03c0-.15-.06-.27-.18-.36s-.28-.13-.5-.13c-.14,0-.27.01-.4.04-.13.03-.25.07-.37.13v-.31c.14-.05.28-.08.41-.11.13-.02.26-.04.39-.04.34,0,.6.08.77.23.17.15.25.38.25.69Z"/>
              </g>
            </g>
          </g>
          <g id="text_6" data-name="text 6">
            <g>
              <path id="DejaVuSans-41-3" data-name="DejaVuSans-41" d="M173.43,358.3l-.7,1.62h1.39l-.7-1.62ZM173.14,357.87h.58l1.44,3.26h-.53l-.34-.84h-1.71l-.34.84h-.54l1.45-3.26Z"/>
              <path id="DejaVuSans-72-4" data-name="DejaVuSans-72" d="M177.34,359.06c-.05-.03-.11-.05-.17-.06-.06-.01-.13-.02-.2-.02-.26,0-.47.07-.61.22s-.21.36-.21.64v1.29h-.47v-2.44h.47v.38c.1-.15.23-.26.38-.33.16-.07.35-.11.57-.11.03,0,.07,0,.11,0,.04,0,.08,0,.13.02v.41Z"/>
              <path id="DejaVuSans-65-4" data-name="DejaVuSans-65" d="M180.15,359.8v.2h-2.15c.02.28.12.49.29.63.17.14.41.22.72.22.18,0,.35-.02.52-.06s.34-.09.5-.17v.38c-.17.06-.34.11-.52.14s-.35.05-.53.05c-.45,0-.81-.11-1.08-.34-.26-.23-.4-.53-.4-.92s.13-.72.38-.95c.25-.23.59-.35,1.02-.35.38,0,.68.11.91.32.22.21.33.5.33.86ZM179.68,359.68c0-.22-.07-.39-.21-.52-.14-.13-.32-.2-.55-.2-.26,0-.47.06-.62.19s-.25.3-.27.53h1.66Z"/>
              <path id="DejaVuSans-61-3" data-name="DejaVuSans-61" d="M182.2,359.9c-.38,0-.64.04-.78.11s-.22.2-.22.38c0,.14.05.26.16.34.11.08.26.12.44.12.26,0,.47-.08.62-.24s.23-.37.23-.63v-.09h-.46ZM183.13,359.73v1.39h-.47v-.37c-.11.15-.24.26-.4.33-.16.07-.35.11-.58.11-.29,0-.52-.07-.69-.21-.17-.14-.26-.33-.26-.56,0-.27.11-.48.32-.62.21-.14.53-.21.96-.21h.65v-.04c0-.18-.07-.33-.21-.43s-.34-.15-.59-.15c-.16,0-.32.02-.47.05-.15.03-.3.08-.44.15v-.37c.17-.06.34-.1.5-.13.16-.03.32-.04.47-.04.41,0,.72.09.92.27.2.18.3.46.3.83Z"/>
              <path id="DejaVuSans-6f-3" data-name="DejaVuSans-6f" d="M186.85,358.96c-.25,0-.45.08-.59.25s-.22.4-.22.69.07.52.22.69c.15.17.34.25.59.25s.45-.08.59-.25c.15-.17.22-.4.22-.69s-.07-.52-.22-.69c-.15-.17-.34-.25-.59-.25ZM186.85,358.62c.41,0,.72.11.96.34.23.23.35.54.35.94s-.12.71-.35.94c-.23.23-.55.34-.96.34s-.73-.11-.96-.34c-.23-.23-.35-.54-.35-.94s.12-.71.35-.94c.23-.23.55-.34.96-.34Z"/>
              <path id="DejaVuSans-72-5" data-name="DejaVuSans-72" d="M190.57,359.06c-.05-.03-.11-.05-.17-.06-.06-.01-.13-.02-.2-.02-.26,0-.47.07-.61.22s-.21.36-.21.64v1.29h-.47v-2.44h.47v.38c.1-.15.23-.26.38-.33.16-.07.35-.11.57-.11.03,0,.07,0,.11,0,.04,0,.08,0,.13.02v.41Z"/>
              <path id="DejaVuSans-43-2" data-name="DejaVuSans-43" d="M195.57,358.12v.46c-.17-.14-.36-.24-.55-.31-.2-.07-.4-.1-.62-.1-.43,0-.76.11-.99.34s-.34.56-.34.99.11.76.34.98.56.34.99.34c.22,0,.43-.03.62-.1s.38-.17.55-.31v.46c-.18.1-.37.18-.57.24-.2.05-.41.08-.63.08-.57,0-1.03-.15-1.36-.45-.33-.3-.49-.71-.49-1.24s.16-.94.49-1.24c.33-.3.78-.45,1.36-.45.23,0,.44.03.64.08.2.05.39.13.56.23Z"/>
              <path id="DejaVuSans-6f-4" data-name="DejaVuSans-6f" d="M197.44,358.96c-.25,0-.45.08-.59.25s-.22.4-.22.69.07.52.22.69c.15.17.34.25.59.25s.45-.08.59-.25c.15-.17.22-.4.22-.69s-.07-.52-.22-.69c-.15-.17-.34-.25-.59-.25ZM197.44,358.62c.41,0,.72.11.96.34.23.23.35.54.35.94s-.12.71-.35.94c-.23.23-.55.34-.96.34s-.73-.11-.96-.34c-.23-.23-.35-.54-.35-.94s.12-.71.35-.94c.23-.23.55-.34.96-.34Z"/>
              <path id="DejaVuSans-75-2" data-name="DejaVuSans-75" d="M199.47,360.16v-1.48h.47v1.46c0,.23.05.4.16.52.1.12.26.17.47.17.25,0,.45-.07.6-.21.15-.14.22-.33.22-.57v-1.38h.47v2.44h-.47v-.38c-.11.15-.24.26-.39.33-.15.07-.32.11-.52.11-.33,0-.57-.09-.74-.26-.17-.17-.25-.43-.25-.77Z"/>
              <path id="DejaVuSans-6e-3" data-name="DejaVuSans-6e" d="M205.17,359.65v1.47h-.47v-1.46c0-.23-.05-.4-.16-.52-.1-.11-.26-.17-.47-.17-.25,0-.45.07-.6.21-.15.14-.22.33-.22.56v1.38h-.47v-2.44h.47v.38c.11-.15.24-.26.39-.33.15-.07.33-.11.52-.11.33,0,.57.09.74.26.17.17.25.43.25.77Z"/>
              <path id="DejaVuSans-74" d="M206.56,357.99v.69h.96v.31h-.96v1.33c0,.2.03.33.09.38s.19.09.39.09h.48v.34h-.48c-.36,0-.61-.06-.75-.17-.14-.12-.21-.33-.21-.63v-1.33h-.34v-.31h.34v-.69h.47Z"/>
              <path id="DejaVuSans-72-6" data-name="DejaVuSans-72" d="M209.78,359.06c-.05-.03-.11-.05-.17-.06-.06-.01-.13-.02-.2-.02-.26,0-.47.07-.61.22s-.21.36-.21.64v1.29h-.47v-2.44h.47v.38c.1-.15.23-.26.38-.33.16-.07.35-.11.57-.11.03,0,.07,0,.11,0,.04,0,.08,0,.13.02v.41Z"/>
              <path id="DejaVuSans-79" d="M211.45,361.35c-.13.29-.26.48-.39.57-.12.09-.29.13-.5.13h-.37v-.34h.27c.13,0,.23-.03.3-.08.07-.05.15-.18.24-.37l.08-.18-1.15-2.4h.49l.89,1.91.89-1.91h.49l-1.25,2.67Z"/>
            </g>
          </g>
        </g>
        <g id="matplotlib.axis_2" data-name="matplotlib.axis 2">
          <g id="ytick_1" data-name="ytick 1">
            <g id="line2d_6" data-name="line2d 6">
              <path id="m8650f15f65" class="cls-20" d="M111.36,350.03h-1.52"/>
            </g>
            <g id="text_7" data-name="text 7">
              <path id="DejaVuSans-30" d="M106.95,348.98c-.22,0-.38.09-.5.28-.11.19-.17.47-.17.84s.06.65.17.84c.11.19.28.28.5.28s.39-.09.5-.28c.11-.19.17-.47.17-.84s-.06-.65-.17-.84c-.11-.19-.28-.28-.5-.28ZM106.95,348.69c.35,0,.62.12.81.36.19.24.28.59.28,1.05s-.09.81-.28,1.05c-.19.24-.46.36-.81.36s-.62-.12-.81-.36c-.19-.24-.28-.59-.28-1.05s.09-.81.28-1.05c.19-.24.46-.36.81-.36Z"/>
            </g>
          </g>
          <g id="ytick_2" data-name="ytick 2">
            <g id="line2d_7" data-name="line2d 7">
              <path id="m8650f15f65-2" data-name="m8650f15f65" class="cls-20" d="M111.36,317.47h-1.52"/>
            </g>
            <g id="text_8" data-name="text 8">
              <path id="DejaVuSans-32" d="M106.41,318.58h1.49v.31h-2v-.31c.16-.14.38-.34.66-.58.28-.24.46-.4.53-.47.14-.13.23-.24.29-.34.05-.09.08-.18.08-.27,0-.14-.06-.26-.18-.35-.12-.09-.27-.14-.46-.14-.13,0-.28.02-.42.06-.15.04-.31.1-.48.18v-.37c.17-.06.33-.1.48-.13.15-.03.29-.05.41-.05.33,0,.59.07.78.21.19.14.29.33.29.56,0,.11-.02.22-.07.32-.05.1-.14.22-.27.35-.04.04-.15.14-.34.3-.19.17-.45.4-.8.7Z"/>
            </g>
          </g>
          <g id="ytick_3" data-name="ytick 3">
            <g id="line2d_8" data-name="line2d 8">
              <path id="m8650f15f65-3" data-name="m8650f15f65" class="cls-20" d="M111.36,284.91h-1.52"/>
            </g>
            <g id="text_9" data-name="text 9">
              <path id="DejaVuSans-34" d="M107.21,283.93l-1.08,1.45h1.08v-1.45ZM107.1,283.61h.54v1.77h.45v.31h-.45v.64h-.42v-.64h-1.42v-.35l1.31-1.72Z"/>
            </g>
          </g>
          <g id="ytick_4" data-name="ytick 4">
            <g id="line2d_9" data-name="line2d 9">
              <path id="m8650f15f65-4" data-name="m8650f15f65" class="cls-20" d="M111.36,252.35h-1.52"/>
            </g>
            <g id="text_10" data-name="text 10">
              <path id="DejaVuSans-36" d="M107.01,252.26c-.19,0-.34.06-.46.17-.11.11-.17.27-.17.46s.06.35.17.46c.11.11.26.17.46.17s.34-.06.46-.17c.11-.11.17-.27.17-.46s-.06-.35-.17-.46c-.11-.11-.26-.17-.46-.17ZM107.86,251.11v.33c-.11-.04-.22-.08-.32-.1-.11-.02-.22-.03-.32-.03-.28,0-.5.08-.65.25-.15.16-.23.41-.25.74.08-.11.19-.19.31-.24.13-.06.26-.08.41-.08.32,0,.57.08.75.25.18.17.28.39.28.67s-.1.5-.29.67c-.19.17-.45.25-.76.25-.37,0-.64-.12-.84-.36-.19-.24-.29-.59-.29-1.05,0-.43.12-.77.36-1.03.24-.26.55-.38.95-.38.11,0,.22,0,.32.03s.22.05.34.08Z"/>
            </g>
          </g>
          <g id="ytick_5" data-name="ytick 5">
            <g id="line2d_10" data-name="line2d 10">
              <path id="m8650f15f65-5" data-name="m8650f15f65" class="cls-20" d="M111.36,219.79h-1.52"/>
            </g>
            <g id="text_11" data-name="text 11">
              <path id="DejaVuSans-38" d="M106.95,219.91c-.2,0-.36.05-.48.14-.12.09-.17.22-.17.39s.06.29.17.39c.12.09.28.14.48.14s.36-.05.48-.14c.12-.09.18-.22.18-.39s-.06-.29-.17-.39c-.12-.09-.28-.14-.48-.14ZM106.53,219.76c-.18-.04-.33-.11-.43-.22-.1-.11-.15-.24-.15-.39,0-.22.09-.39.27-.51.18-.13.43-.19.74-.19s.56.06.74.19.27.3.27.51c0,.16-.05.29-.15.39-.1.11-.24.18-.43.22.21.04.37.12.48.24.11.12.17.27.17.44,0,.26-.09.47-.28.61-.19.14-.45.21-.8.21s-.62-.07-.8-.21c-.19-.14-.28-.34-.28-.61,0-.17.06-.32.17-.44.12-.12.28-.2.48-.24ZM106.37,219.18c0,.14.05.25.15.33.1.08.25.12.43.12s.33-.04.43-.12c.1-.08.16-.19.16-.33s-.05-.25-.16-.33c-.1-.08-.25-.12-.43-.12s-.33.04-.43.12c-.1.08-.15.19-.15.33Z"/>
            </g>
          </g>
          <g id="ytick_6" data-name="ytick 6">
            <g id="line2d_11" data-name="line2d 11">
              <path id="m8650f15f65-6" data-name="m8650f15f65" class="cls-20" d="M111.36,187.23h-1.52"/>
            </g>
            <g id="text_12" data-name="text 12">
              <g>
                <path id="DejaVuSans-31" d="M103.36,188.33h.7v-2.07l-.76.13v-.33l.75-.13h.43v2.4h.7v.31h-1.82v-.31Z"/>
                <path id="DejaVuSans-30-2" data-name="DejaVuSans-30" d="M106.95,186.17c-.22,0-.38.09-.5.28-.11.19-.17.47-.17.84s.06.65.17.84c.11.19.28.28.5.28s.39-.09.5-.28c.11-.19.17-.47.17-.84s-.06-.65-.17-.84c-.11-.19-.28-.28-.5-.28ZM106.95,185.88c.35,0,.62.12.81.36.19.24.28.59.28,1.05s-.09.81-.28,1.05c-.19.24-.46.36-.81.36s-.62-.12-.81-.36c-.19-.24-.28-.59-.28-1.05s.09-.81.28-1.05c.19-.24.46-.36.81-.36Z"/>
              </g>
            </g>
          </g>
          <g id="ytick_7" data-name="ytick 7">
            <g id="line2d_12" data-name="line2d 12">
              <path id="m8650f15f65-7" data-name="m8650f15f65" class="cls-20" d="M111.36,154.66h-1.52"/>
            </g>
            <g id="text_13" data-name="text 13">
              <g>
                <path id="DejaVuSans-31-2" data-name="DejaVuSans-31" d="M103.36,155.77h.7v-2.07l-.76.13v-.33l.75-.13h.43v2.4h.7v.31h-1.82v-.31Z"/>
                <path id="DejaVuSans-32-2" data-name="DejaVuSans-32" d="M106.41,155.77h1.49v.31h-2v-.31c.16-.14.38-.34.66-.58.28-.24.46-.4.53-.47.14-.13.23-.24.29-.34.05-.09.08-.18.08-.27,0-.14-.06-.26-.18-.35-.12-.09-.27-.14-.46-.14-.13,0-.28.02-.42.06-.15.04-.31.1-.48.18v-.37c.17-.06.33-.1.48-.13.15-.03.29-.05.41-.05.33,0,.59.07.78.21.19.14.29.33.29.56,0,.11-.02.22-.07.32-.05.1-.14.22-.27.35-.04.04-.15.14-.34.3-.19.17-.45.4-.8.7Z"/>
              </g>
            </g>
          </g>
          <g id="ytick_8" data-name="ytick 8">
            <g id="line2d_13" data-name="line2d 13">
              <path id="m8650f15f65-8" data-name="m8650f15f65" class="cls-20" d="M111.36,122.1h-1.52"/>
            </g>
            <g id="text_14" data-name="text 14">
              <g>
                <path id="DejaVuSans-31-3" data-name="DejaVuSans-31" d="M103.36,123.21h.7v-2.07l-.76.13v-.33l.75-.13h.43v2.4h.7v.31h-1.82v-.31Z"/>
                <path id="DejaVuSans-34-2" data-name="DejaVuSans-34" d="M107.21,121.12l-1.08,1.45h1.08v-1.45ZM107.1,120.8h.54v1.77h.45v.31h-.45v.64h-.42v-.64h-1.42v-.35l1.31-1.72Z"/>
              </g>
            </g>
          </g>
          <g id="text_15" data-name="text 15">
            <g>
              <path id="DejaVuSans-50" d="M96.65,243.52h1.42v-.55c0-.21-.06-.36-.19-.48-.12-.11-.3-.17-.53-.17s-.4.06-.53.17c-.12.11-.19.27-.19.48v.55ZM96.23,243.96v-.99c0-.37.1-.64.29-.83.19-.19.47-.28.84-.28s.66.09.85.28c.19.19.29.46.29.83v.55h1.52v.44h-3.79Z"/>
              <path id="DejaVuSans-45-4" data-name="DejaVuSans-45" d="M96.23,241.27v-2.06h.43v1.62h1.12v-1.55h.43v1.55h1.37v-1.66h.43v2.1h-3.79Z"/>
              <path id="DejaVuSans-28-2" data-name="DejaVuSans-28" d="M96.07,236.08c.39.19.77.34,1.15.43.38.09.77.14,1.16.14s.78-.05,1.16-.14.77-.24,1.16-.43v.35c-.4.22-.79.38-1.17.49-.38.11-.76.16-1.14.16s-.76-.05-1.14-.16c-.38-.11-.77-.27-1.17-.49v-.35Z"/>
              <path id="DejaVuSans-4d" d="M96.23,235.28v-.66l2.58-.83-2.58-.84v-.66h3.79v.43h-3.33l2.6.84v.44l-2.6.84h3.33v.43h-3.79Z"/>
              <path id="DejaVuSans-4a" d="M96.23,231.43v-.44h3.52c.46,0,.79.07.99.22.21.15.31.39.31.72v.17h-.43v-.14c0-.19-.06-.33-.19-.41-.13-.08-.35-.12-.68-.12h-3.52Z"/>
              <path id="DejaVuSans-2f" d="M96.23,228v-.37l4.27,1.13v.37l-4.27-1.13Z"/>
              <path id="DejaVuSans-6b" d="M96.07,225.8v-.4h2.33l-1.22-1.2v-.51l1.33,1.3,1.51-1.35v.52l-1.39,1.24h1.39v.4h-3.95Z"/>
              <path id="DejaVuSans-57-2" data-name="DejaVuSans-57" d="M96.23,223.47v-.44l3.2-.68-3.2-.68v-.5l3.2-.68-3.2-.68v-.45l3.79.82v.55l-3.29.69,3.29.69v.55l-3.79.82Z"/>
              <path id="DejaVuSans-68-2" data-name="DejaVuSans-68" d="M98.3,216.75h1.71v.4h-1.7c-.27,0-.47.05-.6.14-.13.09-.2.23-.2.41,0,.22.08.39.24.51.16.13.38.19.66.19h1.61v.4h-3.95v-.4h1.55c-.17-.1-.3-.21-.38-.34-.08-.13-.13-.28-.13-.45,0-.28.1-.49.3-.64.2-.14.5-.22.89-.22Z"/>
              <path id="DejaVuSans-29-2" data-name="DejaVuSans-29" d="M96.07,216.01v-.35c.4-.22.79-.38,1.17-.49.38-.11.76-.16,1.14-.16s.76.05,1.14.16c.38.11.77.27,1.17.49v.35c-.39-.19-.77-.34-1.16-.43-.38-.1-.77-.14-1.16-.14s-.78.05-1.16.14c-.38.1-.77.24-1.15.43Z"/>
            </g>
          </g>
        </g>
        <g id="patch_8" data-name="patch 8">
          <path class="cls-2" d="M111.36,350.03V109"/>
        </g>
        <g id="patch_9" data-name="patch 9">
          <path class="cls-2" d="M273.15,350.03V109"/>
        </g>
        <g id="patch_10" data-name="patch 10">
          <path class="cls-2" d="M111.36,350.03h161.79"/>
        </g>
        <g id="patch_11" data-name="patch 11">
          <path class="cls-2" d="M111.36,109h161.79"/>
        </g>
        <g id="text_16" data-name="text 16">
          <g>
            <path id="DejaVuSans-Bold-31" class="cls-11" d="M126.14,196.07h.72v-1.75l-.74.13v-.48l.73-.13h.77v2.23h.72v.48h-2.21v-.48Z"/>
            <path id="DejaVuSans-Bold-30" class="cls-11" d="M130.64,195.2c0-.34-.04-.58-.11-.72-.07-.14-.2-.21-.37-.21s-.3.07-.37.21c-.07.14-.11.38-.11.72s.04.59.11.73c.07.14.2.21.37.21s.3-.07.37-.21c.07-.14.11-.38.11-.73ZM131.45,195.2c0,.45-.11.8-.34,1.04s-.55.37-.96.37-.74-.12-.96-.37c-.23-.24-.34-.59-.34-1.04s.11-.8.34-1.04c.23-.24.55-.37.96-.37s.73.12.96.37c.23.24.34.59.34,1.04Z"/>
            <path id="DejaVuSans-Bold-2e" class="cls-11" d="M132.1,195.85h.76v.7h-.76v-.7Z"/>
            <path id="DejaVuSans-Bold-30-2" data-name="DejaVuSans-Bold-30" class="cls-11" d="M135.29,195.2c0-.34-.04-.58-.11-.72-.07-.14-.2-.21-.37-.21s-.3.07-.37.21c-.07.14-.11.38-.11.72s.04.59.11.73c.07.14.2.21.37.21s.3-.07.37-.21c.07-.14.11-.38.11-.73ZM136.11,195.2c0,.45-.11.8-.34,1.04s-.55.37-.96.37-.74-.12-.96-.37c-.23-.24-.34-.59-.34-1.04s.11-.8.34-1.04c.23-.24.55-.37.96-.37s.73.12.96.37c.23.24.34.59.34,1.04Z"/>
          </g>
        </g>
        <g id="text_17" data-name="text 17">
          <g>
            <path id="DejaVuSans-Bold-31-2" data-name="DejaVuSans-Bold-31" class="cls-11" d="M156.78,174.75h.72v-1.75l-.74.13v-.48l.73-.13h.77v2.23h.72v.48h-2.21v-.48Z"/>
            <path id="DejaVuSans-Bold-31-3" data-name="DejaVuSans-Bold-31" class="cls-11" d="M159.79,174.75h.72v-1.75l-.74.13v-.48l.73-.13h.77v2.23h.72v.48h-2.21v-.48Z"/>
            <path id="DejaVuSans-Bold-2e-2" data-name="DejaVuSans-Bold-2e" class="cls-11" d="M162.74,174.53h.76v.7h-.76v-.7Z"/>
            <path id="DejaVuSans-Bold-33" class="cls-11" d="M165.96,173.77c.21.05.37.13.48.25.11.12.17.27.17.45,0,.27-.12.47-.36.61-.24.14-.59.21-1.05.21-.16,0-.32-.01-.49-.03-.16-.02-.32-.06-.48-.1v-.54c.15.07.3.11.45.15.15.03.3.05.44.05.22,0,.38-.03.5-.1.11-.06.17-.16.17-.28s-.06-.22-.18-.28-.29-.1-.52-.1h-.33v-.45h.34c.2,0,.36-.03.46-.08.1-.06.15-.14.15-.25,0-.1-.05-.18-.15-.24-.1-.06-.23-.09-.41-.09-.13,0-.26.01-.4.04-.13.03-.27.06-.4.11v-.51c.16-.04.32-.07.48-.09s.31-.03.47-.03c.41,0,.72.06.92.17.2.12.31.29.31.52,0,.16-.05.29-.15.39-.1.1-.24.17-.43.21Z"/>
          </g>
        </g>
        <g id="text_18" data-name="text 18">
          <g>
            <path id="DejaVuSans-Bold-31-4" data-name="DejaVuSans-Bold-31" class="cls-11" d="M187.42,173.12h.72v-1.75l-.74.13v-.48l.73-.13h.77v2.23h.72v.48h-2.21v-.48Z"/>
            <path id="DejaVuSans-Bold-31-5" data-name="DejaVuSans-Bold-31" class="cls-11" d="M190.43,173.12h.72v-1.75l-.74.13v-.48l.73-.13h.77v2.23h.72v.48h-2.21v-.48Z"/>
            <path id="DejaVuSans-Bold-2e-3" data-name="DejaVuSans-Bold-2e" class="cls-11" d="M193.38,172.9h.76v.7h-.76v-.7Z"/>
            <path id="DejaVuSans-Bold-34" class="cls-11" d="M196.18,171.46l-.89,1.14h.89v-1.14ZM196.04,170.89h.9v1.71h.45v.51h-.45v.49h-.77v-.49h-1.4v-.6l1.26-1.62Z"/>
          </g>
        </g>
        <g id="text_19" data-name="text 19">
          <g>
            <path id="DejaVuSans-Bold-31-6" data-name="DejaVuSans-Bold-31" class="cls-11" d="M218.06,148.7h.72v-1.75l-.74.13v-.48l.73-.13h.77v2.23h.72v.48h-2.21v-.48Z"/>
            <path id="DejaVuSans-Bold-32" class="cls-11" d="M221.82,148.67h1.39v.51h-2.29v-.51l1.15-.87c.1-.08.18-.16.23-.23s.07-.16.07-.24c0-.13-.05-.23-.15-.31s-.23-.12-.4-.12c-.13,0-.27.02-.42.07-.15.05-.31.12-.48.21v-.6c.18-.05.36-.09.54-.12.18-.03.35-.04.53-.04.38,0,.67.07.88.21.21.14.31.34.31.6,0,.15-.04.29-.13.41-.09.13-.28.3-.56.51l-.67.51Z"/>
            <path id="DejaVuSans-Bold-2e-4" data-name="DejaVuSans-Bold-2e" class="cls-11" d="M224.02,148.48h.76v.7h-.76v-.7Z"/>
            <path id="DejaVuSans-Bold-39" class="cls-11" d="M225.66,149.12v-.5c.13.05.25.09.37.12.12.03.24.04.35.04.24,0,.43-.06.57-.17.14-.12.21-.29.24-.52-.1.06-.2.11-.31.14s-.23.05-.35.05c-.32,0-.58-.08-.78-.24-.2-.16-.3-.37-.3-.64,0-.29.11-.53.33-.7s.52-.26.89-.26c.41,0,.73.12.96.36.23.24.34.58.34,1.01s-.13.8-.4,1.06c-.26.26-.62.38-1.08.38-.15,0-.29,0-.42-.03-.14-.02-.27-.05-.4-.08ZM226.66,147.81c.14,0,.25-.04.32-.12.07-.08.11-.2.11-.36s-.04-.28-.11-.36c-.07-.08-.18-.12-.32-.12s-.25.04-.32.12c-.07.08-.11.2-.11.36s.04.28.11.36c.07.08.18.12.32.12Z"/>
          </g>
        </g>
        <g id="text_20" data-name="text 20">
          <g>
            <path id="DejaVuSans-Bold-31-7" data-name="DejaVuSans-Bold-31" class="cls-11" d="M248.71,129.16h.72v-1.75l-.74.13v-.48l.73-.13h.77v2.23h.72v.48h-2.21v-.48Z"/>
            <path id="DejaVuSans-Bold-34-2" data-name="DejaVuSans-Bold-34" class="cls-11" d="M252.8,127.51l-.89,1.14h.89v-1.14ZM252.67,126.93h.9v1.71h.45v.51h-.45v.49h-.77v-.49h-1.4v-.6l1.26-1.62Z"/>
            <path id="DejaVuSans-Bold-2e-5" data-name="DejaVuSans-Bold-2e" class="cls-11" d="M254.66,128.94h.76v.7h-.76v-.7Z"/>
            <path id="DejaVuSans-Bold-31-8" data-name="DejaVuSans-Bold-31" class="cls-11" d="M256.37,129.16h.72v-1.75l-.74.13v-.48l.73-.13h.77v2.23h.72v.48h-2.21v-.48Z"/>
          </g>
        </g>
        <g id="text_21" data-name="text 21">
          <g>
            <path id="DejaVuSans-50-2" data-name="DejaVuSans-50" d="M133.12,103.39v1.43h.75c.28,0,.49-.06.64-.19.15-.12.23-.3.23-.53s-.08-.4-.23-.53c-.15-.12-.37-.19-.64-.19h-.75ZM132.52,102.96h1.35c.5,0,.87.1,1.12.29.25.19.38.47.38.85s-.13.66-.38.85c-.25.19-.63.29-1.12.29h-.75v1.53h-.6v-3.8Z"/>
            <path id="DejaVuSans-72-7" data-name="DejaVuSans-72" d="M137.97,104.35c-.06-.03-.13-.05-.2-.07-.07-.01-.15-.02-.24-.02-.31,0-.54.09-.71.26s-.25.42-.25.74v1.5h-.55v-2.85h.55v.44c.11-.17.26-.3.45-.39.18-.08.41-.13.67-.13.04,0,.08,0,.12,0,.05,0,.1.01.15.02v.48Z"/>
            <path id="DejaVuSans-69-3" data-name="DejaVuSans-69" d="M138.54,103.91h.54v2.85h-.54v-2.85ZM138.54,102.8h.54v.59h-.54v-.59Z"/>
            <path id="DejaVuSans-6d" d="M142.8,104.46c.14-.21.3-.37.49-.47s.41-.15.67-.15c.35,0,.61.1.8.31.19.21.28.5.28.89v1.72h-.55v-1.71c0-.27-.06-.48-.17-.61-.11-.13-.28-.2-.51-.2-.28,0-.51.08-.67.24-.16.16-.25.38-.25.66v1.61h-.55v-1.71c0-.27-.06-.48-.17-.61s-.29-.2-.52-.2c-.28,0-.5.08-.66.24-.16.16-.25.38-.25.66v1.61h-.55v-2.85h.55v.44c.12-.17.27-.3.45-.39s.38-.12.62-.12.45.05.61.16c.17.1.29.26.37.46Z"/>
            <path id="DejaVuSans-61-4" data-name="DejaVuSans-61" d="M147.63,105.33c-.44,0-.74.04-.91.13s-.25.23-.25.44c0,.17.06.3.19.4.13.1.3.15.52.15.3,0,.54-.09.73-.28s.27-.43.27-.73v-.1h-.54ZM148.72,105.14v1.63h-.54v-.43c-.12.17-.28.3-.46.38-.19.08-.41.12-.68.12-.34,0-.61-.08-.81-.25-.2-.16-.3-.38-.3-.66,0-.32.12-.56.37-.72.25-.16.62-.24,1.12-.24h.76v-.05c0-.22-.08-.38-.25-.5s-.4-.18-.69-.18c-.19,0-.37.02-.55.06-.18.04-.35.1-.52.18v-.43c.2-.07.39-.12.58-.15.19-.03.37-.05.55-.05.48,0,.84.11,1.07.32.24.21.36.54.36.97Z"/>
            <path id="DejaVuSans-72-8" data-name="DejaVuSans-72" d="M151.76,104.35c-.06-.03-.13-.05-.2-.07-.07-.01-.15-.02-.24-.02-.31,0-.54.09-.71.26s-.25.42-.25.74v1.5h-.55v-2.85h.55v.44c.11-.17.26-.3.45-.39.18-.08.41-.13.67-.13.04,0,.08,0,.12,0,.05,0,.1.01.15.02v.48Z"/>
            <path id="DejaVuSans-79-2" data-name="DejaVuSans-79" d="M153.71,107.03c-.15.34-.3.56-.45.66-.15.1-.34.16-.59.16h-.44v-.39h.32c.15,0,.27-.03.35-.09.08-.06.18-.2.28-.43l.1-.21-1.34-2.8h.58l1.04,2.23,1.04-2.23h.58l-1.46,3.11Z"/>
            <path id="DejaVuSans-45-5" data-name="DejaVuSans-45" d="M157.87,102.96h2.79v.43h-2.2v1.12h2.1v.43h-2.1v1.38h2.25v.43h-2.85v-3.8Z"/>
            <path id="DejaVuSans-6e-4" data-name="DejaVuSans-6e" d="M164.43,105.04v1.72h-.54v-1.71c0-.27-.06-.47-.18-.6-.12-.13-.31-.2-.55-.2-.29,0-.53.08-.7.24-.17.16-.25.38-.25.66v1.61h-.55v-2.85h.55v.44c.13-.17.28-.3.46-.38.18-.08.38-.13.61-.13.38,0,.67.1.86.3.2.2.29.5.29.89Z"/>
            <path id="DejaVuSans-65-5" data-name="DejaVuSans-65" d="M168.35,105.22v.23h-2.5c.02.32.14.57.34.74.2.17.48.25.84.25.21,0,.41-.02.61-.07s.39-.11.59-.2v.44c-.2.07-.4.13-.6.16s-.41.06-.62.06c-.53,0-.95-.13-1.26-.4-.31-.26-.46-.62-.46-1.07s.15-.84.44-1.11c.29-.27.69-.41,1.19-.41.45,0,.8.12,1.06.37.26.25.39.58.39,1.01ZM167.8,105.08c0-.26-.09-.46-.25-.61-.16-.15-.38-.23-.65-.23-.3,0-.55.07-.73.22s-.29.36-.32.62h1.94Z"/>
            <path id="DejaVuSans-72-9" data-name="DejaVuSans-72" d="M171.16,104.35c-.06-.03-.13-.05-.2-.07-.07-.01-.15-.02-.24-.02-.31,0-.54.09-.71.26s-.25.42-.25.74v1.5h-.55v-2.85h.55v.44c.11-.17.26-.3.45-.39.18-.08.41-.13.67-.13.04,0,.08,0,.12,0,.05,0,.1.01.15.02v.48Z"/>
            <path id="DejaVuSans-67" d="M173.81,105.31c0-.34-.08-.6-.24-.79-.16-.19-.39-.28-.68-.28s-.52.09-.68.28c-.16.19-.24.45-.24.79s.08.6.24.79c.16.19.39.28.68.28s.52-.09.68-.28c.16-.19.24-.45.24-.79ZM174.35,106.41c0,.48-.13.85-.38,1.08-.25.24-.63.36-1.15.36-.19,0-.37-.01-.54-.04s-.33-.06-.49-.11v-.46c.16.07.32.13.47.16.16.04.31.05.48.05.36,0,.62-.08.8-.24.18-.16.27-.4.27-.73v-.23c-.11.17-.26.29-.43.38s-.39.12-.63.12c-.41,0-.73-.13-.98-.4-.25-.27-.37-.62-.37-1.06s.12-.79.37-1.06c.25-.27.58-.4.98-.4.24,0,.46.04.63.12s.32.21.43.38v-.43h.54v2.5Z"/>
            <path id="DejaVuSans-79-3" data-name="DejaVuSans-79" d="M176.85,107.03c-.15.34-.3.56-.45.66-.15.1-.34.16-.59.16h-.44v-.39h.32c.15,0,.27-.03.35-.09.08-.06.18-.2.28-.43l.1-.21-1.34-2.8h.58l1.04,2.23,1.04-2.23h.58l-1.46,3.11Z"/>
            <path id="DejaVuSans-43-3" data-name="DejaVuSans-43" d="M184.32,103.26v.54c-.2-.16-.42-.28-.64-.36-.23-.08-.47-.12-.73-.12-.51,0-.89.13-1.16.4s-.4.65-.4,1.15.13.88.4,1.15.65.4,1.16.4c.26,0,.5-.04.73-.12s.44-.2.64-.36v.54c-.21.12-.43.21-.66.28-.23.06-.48.09-.74.09-.67,0-1.2-.18-1.58-.53-.38-.35-.58-.83-.58-1.44s.19-1.09.58-1.44c.39-.35.91-.53,1.58-.53.26,0,.51.03.75.09.23.06.45.15.66.27Z"/>
            <path id="DejaVuSans-6f-5" data-name="DejaVuSans-6f" d="M186.5,104.24c-.29,0-.52.1-.69.29s-.25.46-.25.81.08.61.25.81c.17.2.4.29.69.29s.52-.1.69-.29c.17-.2.25-.47.25-.8s-.08-.61-.25-.8c-.17-.2-.4-.3-.69-.3ZM186.5,103.85c.47,0,.85.13,1.12.4.27.26.41.63.41,1.1s-.14.83-.41,1.1c-.27.27-.64.4-1.12.4s-.85-.13-1.12-.4c-.27-.27-.4-.63-.4-1.1s.13-.83.4-1.1c.27-.26.64-.4,1.12-.4Z"/>
            <path id="DejaVuSans-6e-5" data-name="DejaVuSans-6e" d="M191.68,105.04v1.72h-.54v-1.71c0-.27-.06-.47-.18-.6-.12-.13-.31-.2-.55-.2-.29,0-.53.08-.7.24-.17.16-.25.38-.25.66v1.61h-.55v-2.85h.55v.44c.13-.17.28-.3.46-.38.18-.08.38-.13.61-.13.38,0,.67.1.86.3.2.2.29.5.29.89Z"/>
            <path id="DejaVuSans-73" d="M194.88,104v.44c-.15-.07-.31-.12-.48-.15-.17-.03-.34-.05-.52-.05-.27,0-.47.04-.61.11-.14.07-.2.18-.2.32,0,.11.05.19.14.26s.29.12.58.18l.19.04c.39.07.66.17.82.3s.24.31.24.54c0,.26-.12.47-.37.63-.24.15-.58.23-1,.23-.18,0-.36-.01-.55-.04-.19-.03-.4-.07-.61-.13v-.48c.2.09.4.16.59.2.2.04.39.07.58.07.26,0,.45-.04.59-.11.14-.08.21-.18.21-.32,0-.13-.05-.22-.15-.29-.1-.07-.32-.13-.66-.2l-.19-.04c-.34-.06-.58-.15-.73-.28-.15-.13-.22-.3-.22-.52,0-.27.11-.47.33-.62.22-.15.53-.22.94-.22.2,0,.39.01.57.04.18.02.34.06.49.11Z"/>
            <path id="DejaVuSans-75-3" data-name="DejaVuSans-75" d="M195.87,105.64v-1.73h.54v1.71c0,.27.06.47.18.61.12.13.31.2.55.2.29,0,.53-.08.7-.24.17-.16.26-.38.26-.66v-1.62h.54v2.85h-.54v-.44c-.13.17-.29.3-.46.39-.17.08-.38.13-.61.13-.38,0-.67-.1-.87-.31-.2-.2-.3-.5-.3-.89Z"/>
            <path id="DejaVuSans-6d-2" data-name="DejaVuSans-6d" d="M202.34,104.46c.14-.21.3-.37.49-.47s.41-.15.67-.15c.35,0,.61.1.8.31.19.21.28.5.28.89v1.72h-.55v-1.71c0-.27-.06-.48-.17-.61-.11-.13-.28-.2-.51-.2-.28,0-.51.08-.67.24-.16.16-.25.38-.25.66v1.61h-.55v-1.71c0-.27-.06-.48-.17-.61s-.29-.2-.52-.2c-.28,0-.5.08-.66.24-.16.16-.25.38-.25.66v1.61h-.55v-2.85h.55v.44c.12-.17.27-.3.45-.39s.38-.12.62-.12.45.05.61.16c.17.1.29.26.37.46Z"/>
            <path id="DejaVuSans-70-2" data-name="DejaVuSans-70" d="M206.19,106.34v1.51h-.55v-3.93h.55v.43c.11-.17.26-.3.43-.38.17-.08.38-.12.63-.12.4,0,.73.14.98.41.25.27.38.64.38,1.08s-.13.81-.38,1.08c-.25.27-.58.41-.98.41-.24,0-.45-.04-.63-.12-.17-.08-.32-.21-.43-.38ZM208.05,105.34c0-.34-.08-.61-.25-.81s-.39-.29-.68-.29-.52.1-.68.29-.25.47-.25.81.08.61.25.81c.16.2.39.29.68.29s.51-.1.68-.29c.16-.2.25-.47.25-.81Z"/>
            <path id="DejaVuSans-74-2" data-name="DejaVuSans-74" d="M210.05,103.1v.81h1.12v.36h-1.12v1.55c0,.23.04.38.11.45s.22.1.45.1h.56v.39h-.56c-.42,0-.71-.07-.87-.2-.16-.14-.24-.38-.24-.74v-1.55h-.4v-.36h.4v-.81h.55Z"/>
            <path id="DejaVuSans-69-4" data-name="DejaVuSans-69" d="M211.89,103.91h.54v2.85h-.54v-2.85ZM211.89,102.8h.54v.59h-.54v-.59Z"/>
            <path id="DejaVuSans-6f-6" data-name="DejaVuSans-6f" d="M214.86,104.24c-.29,0-.52.1-.69.29s-.25.46-.25.81.08.61.25.81c.17.2.4.29.69.29s.52-.1.69-.29c.17-.2.25-.47.25-.8s-.08-.61-.25-.8c-.17-.2-.4-.3-.69-.3ZM214.86,103.85c.47,0,.85.13,1.12.4.27.26.41.63.41,1.1s-.14.83-.41,1.1c-.27.27-.64.4-1.12.4s-.85-.13-1.12-.4c-.27-.27-.4-.63-.4-1.1s.13-.83.4-1.1c.27-.26.64-.4,1.12-.4Z"/>
            <path id="DejaVuSans-6e-6" data-name="DejaVuSans-6e" d="M220.04,105.04v1.72h-.54v-1.71c0-.27-.06-.47-.18-.6-.12-.13-.31-.2-.55-.2-.29,0-.53.08-.7.24-.17.16-.25.38-.25.66v1.61h-.55v-2.85h.55v.44c.13-.17.28-.3.46-.38.18-.08.38-.13.61-.13.38,0,.67.1.86.3.2.2.29.5.29.89Z"/>
            <path id="DejaVuSans-62" d="M225.43,105.34c0-.34-.08-.61-.25-.81s-.39-.29-.68-.29-.52.1-.68.29-.25.47-.25.81.08.61.25.81c.16.2.39.29.68.29s.51-.1.68-.29c.16-.2.25-.47.25-.81ZM223.58,104.35c.11-.17.26-.3.43-.38.17-.08.38-.12.63-.12.4,0,.73.14.98.41.25.27.38.64.38,1.08s-.13.81-.38,1.08c-.25.27-.58.41-.98.41-.24,0-.45-.04-.63-.12-.17-.08-.32-.21-.43-.38v.43h-.55v-3.96h.55v1.54Z"/>
            <path id="DejaVuSans-79-4" data-name="DejaVuSans-79" d="M228.27,107.03c-.15.34-.3.56-.45.66-.15.1-.34.16-.59.16h-.44v-.39h.32c.15,0,.27-.03.35-.09.08-.06.18-.2.28-.43l.1-.21-1.34-2.8h.58l1.04,2.23,1.04-2.23h.58l-1.46,3.11Z"/>
            <path id="DejaVuSans-52" d="M234.53,104.98c.13.04.25.12.37.24s.24.29.37.5l.61,1.04h-.64l-.56-.97c-.15-.25-.29-.42-.43-.51s-.32-.12-.56-.12h-.65v1.61h-.6v-3.8h1.35c.51,0,.88.09,1.13.27.25.18.37.46.37.82,0,.24-.06.44-.19.6-.13.16-.32.27-.56.33ZM233.03,103.39v1.35h.75c.29,0,.51-.06.65-.17s.22-.28.22-.5-.07-.39-.22-.5-.36-.17-.65-.17h-.75Z"/>
            <path id="DejaVuSans-65-6" data-name="DejaVuSans-65" d="M239.18,105.22v.23h-2.5c.02.32.14.57.34.74.2.17.48.25.84.25.21,0,.41-.02.61-.07s.39-.11.59-.2v.44c-.2.07-.4.13-.6.16s-.41.06-.62.06c-.53,0-.95-.13-1.26-.4-.31-.26-.46-.62-.46-1.07s.15-.84.44-1.11c.29-.27.69-.41,1.19-.41.45,0,.8.12,1.06.37.26.25.39.58.39,1.01ZM238.64,105.08c0-.26-.09-.46-.25-.61-.16-.15-.38-.23-.65-.23-.3,0-.55.07-.73.22s-.29.36-.32.62h1.94Z"/>
            <path id="DejaVuSans-67-2" data-name="DejaVuSans-67" d="M242.26,105.31c0-.34-.08-.6-.24-.79-.16-.19-.39-.28-.68-.28s-.52.09-.68.28c-.16.19-.24.45-.24.79s.08.6.24.79c.16.19.39.28.68.28s.52-.09.68-.28c.16-.19.24-.45.24-.79ZM242.8,106.41c0,.48-.13.85-.38,1.08-.25.24-.63.36-1.15.36-.19,0-.37-.01-.54-.04s-.33-.06-.49-.11v-.46c.16.07.32.13.47.16.16.04.31.05.48.05.36,0,.62-.08.8-.24.18-.16.27-.4.27-.73v-.23c-.11.17-.26.29-.43.38s-.39.12-.63.12c-.41,0-.73-.13-.98-.4-.25-.27-.37-.62-.37-1.06s.12-.79.37-1.06c.25-.27.58-.4.98-.4.24,0,.46.04.63.12s.32.21.43.38v-.43h.54v2.5Z"/>
            <path id="DejaVuSans-69-5" data-name="DejaVuSans-69" d="M243.92,103.91h.54v2.85h-.54v-2.85ZM243.92,102.8h.54v.59h-.54v-.59Z"/>
            <path id="DejaVuSans-6f-7" data-name="DejaVuSans-6f" d="M246.89,104.24c-.29,0-.52.1-.69.29s-.25.46-.25.81.08.61.25.81c.17.2.4.29.69.29s.52-.1.69-.29c.17-.2.25-.47.25-.8s-.08-.61-.25-.8c-.17-.2-.4-.3-.69-.3ZM246.89,103.85c.47,0,.85.13,1.12.4.27.26.41.63.41,1.1s-.14.83-.41,1.1c-.27.27-.64.4-1.12.4s-.85-.13-1.12-.4c-.27-.27-.4-.63-.4-1.1s.13-.83.4-1.1c.27-.26.64-.4,1.12-.4Z"/>
            <path id="DejaVuSans-6e-7" data-name="DejaVuSans-6e" d="M252.07,105.04v1.72h-.54v-1.71c0-.27-.06-.47-.18-.6-.12-.13-.31-.2-.55-.2-.29,0-.53.08-.7.24-.17.16-.25.38-.25.66v1.61h-.55v-2.85h.55v.44c.13-.17.28-.3.46-.38.18-.08.38-.13.61-.13.38,0,.67.1.86.3.2.2.29.5.29.89Z"/>
          </g>
        </g>
      </g>
    </g>
    <text class="cls-4" transform="translate(180.85 381.34)"><tspan x="0" y="0">Chin</tspan><tspan class="cls-21" x="23.09" y="0">a</tspan><tspan class="cls-15" x="28.48" y="0">’</tspan><tspan x="30.1" y="0">s PE </tspan><tspan class="cls-25" x="52.22" y="0">v</tspan><tspan class="cls-12" x="57.95" y="0">alue indic</tspan><tspan class="cls-25" x="106.15" y="0">a</tspan><tspan class="cls-23" x="111.89" y="0">t</tspan><tspan class="cls-12" x="115.79" y="0">es th</tspan><tspan class="cls-26" x="139.73" y="0">a</tspan><tspan x="145.46" y="0">t its</tspan><tspan x="10.38" y="14.4">ele</tspan><tspan class="cls-34" x="25.24" y="14.4">c</tspan><tspan x="30.77" y="14.4">t</tspan><tspan class="cls-35" x="34.74" y="14.4">r</tspan><tspan class="cls-9" x="38.71" y="14.4">ici</tspan><tspan class="cls-38" x="49.7" y="14.4">t</tspan><tspan x="53.78" y="14.4">y gene</tspan><tspan class="cls-24" x="87.37" y="14.4">r</tspan><tspan class="cls-25" x="91.23" y="14.4">a</tspan><tspan class="cls-12" x="96.97" y="14.4" xml:space="preserve">tion is  highly</tspan><tspan x="-4.73" y="28.8">ene</tspan><tspan class="cls-31" x="13.96" y="28.8">r</tspan><tspan x="17.78" y="28.8">g</tspan><tspan class="cls-26" x="24.49" y="28.8">y</tspan><tspan class="cls-9" x="30.1" y="28.8">-i</tspan><tspan class="cls-26" x="36.59" y="28.8">n</tspan><tspan class="cls-23" x="43.2" y="28.8">t</tspan><tspan class="cls-12" x="47.1" y="28.8">ensi</tspan><tspan class="cls-28" x="67.33" y="28.8">v</tspan><tspan class="cls-27" x="72.98" y="28.8">e</tspan><tspan class="cls-9" x="78.85" y="28.8">, p</tspan><tspan class="cls-36" x="90.71" y="28.8">r</tspan><tspan x="94.68" y="28.8">ima</tspan><tspan class="cls-36" x="113.28" y="28.8">r</tspan><tspan x="117.25" y="28.8">ily due </tspan><tspan class="cls-23" x="153.02" y="28.8">t</tspan><tspan x="156.92" y="28.8">o</tspan><tspan x="94.43" y="43.2">its </tspan><tspan class="cls-29" x="108.5" y="43.2">r</tspan><tspan x="112.31" y="43.2">elian</tspan><tspan class="cls-23" x="136.4" y="43.2">c</tspan><tspan x="141.71" y="43.2">e on</tspan><tspan class="cls-23" x="41.54" y="57.6">c</tspan><tspan x="46.85" y="57.6">oal-he</tspan><tspan class="cls-30" x="78.41" y="57.6">a</tspan><tspan class="cls-37" x="84.09" y="57.6">v</tspan><tspan x="90.01" y="57.6">y p</tspan><tspan class="cls-22" x="105.03" y="57.6">o</tspan><tspan class="cls-28" x="111.54" y="57.6">w</tspan><tspan x="120.25" y="57.6">er pla</tspan><tspan class="cls-25" x="148.17" y="57.6">n</tspan><tspan class="cls-12" x="154.79" y="57.6">ts</tspan></text>
  </g>
</svg>