<?xml version="1.0" encoding="UTF-8"?>
<svg id="Layer_2" data-name="Layer 2" xmlns="http://www.w3.org/2000/svg" xmlns:xlink="http://www.w3.org/1999/xlink" viewBox="0 0 375 467">
  <defs>
    <style>
      .cls-1, .cls-2 {
        fill: none;
      }

      .cls-3 {
        fill: #000b84;
      }

      .cls-4 {
        clip-path: url(#clippath-1);
      }

      .cls-5 {
        clip-path: url(#clippath-3);
      }

      .cls-6 {
        clip-path: url(#clippath-4);
      }

      .cls-7 {
        clip-path: url(#clippath-2);
      }

      .cls-8 {
        font-family: MyriadPro-Regular, 'Myriad Pro';
        font-size: 9px;
      }

      .cls-9 {
        fill: #fff;
      }

      .cls-10 {
        letter-spacing: -.07em;
      }

      .cls-11 {
        stroke-linejoin: round;
      }

      .cls-11, .cls-2 {
        stroke: #000;
        stroke-width: .8px;
      }

      .cls-12 {
        letter-spacing: -.03em;
      }

      .cls-13 {
        letter-spacing: 0em;
      }

      .cls-14 {
        letter-spacing: 0em;
      }

      .cls-15 {
        letter-spacing: 0em;
      }

      .cls-16 {
        letter-spacing: 0em;
      }

      .cls-17 {
        letter-spacing: 0em;
      }

      .cls-2 {
        stroke-linecap: square;
      }

      .cls-18 {
        letter-spacing: -.01em;
      }

      .cls-19 {
        letter-spacing: -.01em;
      }

      .cls-20 {
        letter-spacing: 0em;
      }

      .cls-21 {
        letter-spacing: 0em;
      }

      .cls-22 {
        letter-spacing: 0em;
      }

      .cls-23 {
        fill: #005f94;
      }

      .cls-24 {
        clip-path: url(#clippath);
      }

      .cls-25 {
        letter-spacing: .01em;
      }

      .cls-26 {
        letter-spacing: 0em;
      }

      .cls-27 {
        letter-spacing: .01em;
      }

      .cls-28 {
        letter-spacing: 0em;
      }
    </style>
    <clipPath id="clippath">
      <rect class="cls-1" x="118.51" y="101.16" width="139.29" height="197.87"/>
    </clipPath>
    <clipPath id="clippath-1">
      <rect class="cls-1" x="118.51" y="101.16" width="139.29" height="197.87"/>
    </clipPath>
    <clipPath id="clippath-2">
      <rect class="cls-1" x="118.51" y="101.16" width="139.29" height="197.87"/>
    </clipPath>
    <clipPath id="clippath-3">
      <rect class="cls-1" x="118.51" y="101.16" width="139.29" height="197.87"/>
    </clipPath>
    <clipPath id="clippath-4">
      <rect class="cls-1" x="118.51" y="101.16" width="139.29" height="197.87"/>
    </clipPath>
  </defs>
  <g id="ai2html-settings">
    <rect class="cls-9" width="375" height="467"/>
    <g id="figure_1" data-name="figure 1">
      <g id="patch_1" data-name="patch 1">
        <path class="cls-9" d="M100.82,312.72h161V92.72H100.82v220Z"/>
      </g>
      <g id="axes_1" data-name="axes 1">
        <g id="patch_2" data-name="patch 2">
          <path class="cls-9" d="M118.51,299.02h139.29V101.16H118.51v197.87Z"/>
        </g>
        <g id="patch_3" data-name="patch 3">
          <g class="cls-24">
            <path class="cls-23" d="M124.84,299.02h21.1v-133.51h-21.1v133.51Z"/>
          </g>
        </g>
        <g id="patch_4" data-name="patch 4">
          <g class="cls-4">
            <path class="cls-23" d="M151.22,299.02h21.1v-151.02h-21.1v151.02Z"/>
          </g>
        </g>
        <g id="patch_5" data-name="patch 5">
          <g class="cls-7">
            <path class="cls-23" d="M177.6,299.02h21.1v-152.36h-21.1v152.36Z"/>
          </g>
        </g>
        <g id="patch_6" data-name="patch 6">
          <g class="cls-5">
            <path class="cls-23" d="M203.98,299.02h21.1V126.62h-21.1v172.41Z"/>
          </g>
        </g>
        <g id="patch_7" data-name="patch 7">
          <g class="cls-6">
            <path class="cls-3" d="M230.36,299.02h21.1V110.58h-21.1v188.44Z"/>
          </g>
        </g>
        <g id="matplotlib.axis_1" data-name="matplotlib.axis 1">
          <g id="xtick_1" data-name="xtick 1">
            <g id="line2d_1" data-name="line2d 1">
              <path id="m20008f09e1" class="cls-11" d="M135.39,299.02v1.07"/>
            </g>
            <g id="text_1" data-name="text 1">
              <g>
                <path id="DejaVuSans-57" d="M125.8,301.26h.37l.57,1.88.57-1.88h.41l.57,1.88.57-1.88h.37l-.68,2.23h-.46l-.57-1.93-.58,1.93h-.46l-.68-2.23Z"/>
                <path id="DejaVuSans-6f" d="M130.29,302c-.18,0-.32.06-.43.17s-.16.27-.16.47.05.36.16.47c.1.11.25.17.43.17s.32-.06.42-.17c.1-.12.16-.27.16-.47s-.05-.35-.16-.47c-.1-.12-.25-.17-.42-.17ZM130.29,301.77c.29,0,.52.08.69.23.17.16.25.37.25.64s-.08.49-.25.64c-.17.16-.39.23-.69.23s-.52-.08-.69-.23c-.17-.16-.25-.37-.25-.64s.08-.49.25-.64c.17-.16.39-.23.69-.23Z"/>
                <path id="DejaVuSans-72" d="M132.96,302.07s-.08-.03-.12-.04c-.04,0-.09-.01-.15-.01-.19,0-.33.05-.44.15s-.15.25-.15.43v.88h-.34v-1.67h.34v.26c.07-.1.16-.18.27-.23.11-.05.25-.07.41-.07.02,0,.05,0,.08,0,.03,0,.06,0,.09.01v.28Z"/>
                <path id="DejaVuSans-6c" d="M133.31,301.16h.33v2.32h-.33v-2.32Z"/>
                <path id="DejaVuSans-64" d="M135.69,302.07v-.9h.33v2.32h-.33v-.25c-.07.1-.16.17-.27.22-.11.05-.24.07-.39.07-.25,0-.45-.08-.6-.24-.15-.16-.23-.37-.23-.64s.08-.47.23-.64c.15-.16.36-.24.6-.24.15,0,.28.02.39.07.11.05.2.12.27.22ZM134.54,302.65c0,.2.05.36.15.48.1.11.24.17.42.17s.32-.06.42-.17c.1-.11.15-.27.15-.48s-.05-.36-.15-.48c-.1-.11-.24-.17-.42-.17s-.32.06-.42.17-.15.27-.15.48Z"/>
                <path id="DejaVuSans-77" d="M136.52,301.81h.33l.42,1.3.42-1.3h.39l.42,1.3.42-1.3h.33l-.53,1.67h-.39l-.44-1.37-.44,1.37h-.4l-.53-1.67Z"/>
                <path id="DejaVuSans-69" d="M139.76,301.81h.33v1.67h-.33v-1.67ZM139.76,301.16h.33v.35h-.33v-.35Z"/>
                <path id="DejaVuSans-64-2" data-name="DejaVuSans-64" d="M142.13,302.07v-.9h.33v2.32h-.33v-.25c-.07.1-.16.17-.27.22-.11.05-.24.07-.39.07-.25,0-.45-.08-.6-.24-.15-.16-.23-.37-.23-.64s.08-.47.23-.64c.15-.16.36-.24.6-.24.15,0,.28.02.39.07.11.05.2.12.27.22ZM140.99,302.65c0,.2.05.36.15.48.1.11.24.17.42.17s.32-.06.42-.17c.1-.11.15-.27.15-.48s-.05-.36-.15-.48c-.1-.11-.24-.17-.42-.17s-.32.06-.42.17-.15.27-.15.48Z"/>
                <path id="DejaVuSans-65" d="M144.9,302.58v.13h-1.54c.01.19.08.33.21.43.12.1.3.15.52.15.13,0,.25-.01.37-.04s.24-.06.36-.12v.26c-.12.04-.24.07-.37.1s-.25.03-.38.03c-.33,0-.58-.08-.77-.23-.19-.16-.28-.37-.28-.63s.09-.49.27-.65c.18-.16.42-.24.73-.24.27,0,.49.07.65.22.16.14.24.34.24.59ZM144.57,302.5c0-.15-.05-.27-.15-.36-.1-.09-.23-.13-.4-.13-.19,0-.34.04-.45.13s-.18.21-.19.37h1.19Z"/>
              </g>
            </g>
          </g>
          <g id="xtick_2" data-name="xtick 2">
            <g id="line2d_2" data-name="line2d 2">
              <path id="m20008f09e1-2" data-name="m20008f09e1" class="cls-11" d="M161.77,299.02v1.07"/>
            </g>
            <g id="text_2" data-name="text 2">
              <g>
                <path id="DejaVuSans-46" d="M155.94,301.26h1.56v.25h-1.19v.66h1.08v.25h-1.08v1.06h-.37v-2.23Z"/>
                <path id="DejaVuSans-72-2" data-name="DejaVuSans-72" d="M158.98,302.07s-.08-.03-.12-.04c-.04,0-.09-.01-.15-.01-.19,0-.33.05-.44.15s-.15.25-.15.43v.88h-.34v-1.67h.34v.26c.07-.1.16-.18.27-.23.11-.05.25-.07.41-.07.02,0,.05,0,.08,0,.03,0,.06,0,.09.01v.28Z"/>
                <path id="DejaVuSans-61" d="M160.26,302.64c-.27,0-.46.03-.56.08s-.16.14-.16.26c0,.1.04.17.12.23.08.06.18.09.32.09.19,0,.34-.05.45-.16s.17-.25.17-.43v-.06h-.33ZM160.93,302.53v.95h-.33v-.25c-.08.1-.17.18-.29.22-.11.05-.25.07-.42.07-.21,0-.37-.05-.5-.14-.12-.1-.18-.22-.18-.39,0-.19.08-.33.23-.42.15-.1.38-.14.69-.14h.47v-.03c0-.13-.05-.22-.15-.29s-.24-.1-.43-.1c-.12,0-.23.01-.34.03-.11.02-.22.06-.32.1v-.25c.12-.04.24-.07.36-.09.12-.02.23-.03.34-.03.3,0,.52.06.66.19.15.13.22.31.22.57Z"/>
                <path id="DejaVuSans-6e" d="M163.31,302.47v1.01h-.33v-1c0-.16-.04-.28-.11-.35-.08-.08-.19-.12-.34-.12-.18,0-.32.05-.43.14-.1.09-.16.22-.16.39v.94h-.34v-1.67h.34v.26c.08-.1.17-.18.28-.23.11-.05.23-.07.38-.07.23,0,.41.06.53.18.12.12.18.29.18.52Z"/>
                <path id="DejaVuSans-63" d="M165.44,301.88v.26c-.09-.04-.19-.08-.28-.1s-.19-.03-.29-.03c-.22,0-.39.06-.51.17-.12.11-.18.27-.18.48s.06.36.18.48c.12.11.29.17.51.17.1,0,.19-.01.29-.03s.19-.05.28-.1v.25c-.09.04-.19.06-.29.08-.1.02-.21.03-.32.03-.31,0-.55-.08-.73-.24-.18-.16-.27-.37-.27-.64s.09-.49.27-.64c.18-.16.43-.23.75-.23.1,0,.2,0,.3.03.1.02.19.04.29.08Z"/>
                <path id="DejaVuSans-65-2" data-name="DejaVuSans-65" d="M167.77,302.58v.13h-1.54c.01.19.08.33.21.43.12.1.3.15.52.15.13,0,.25-.01.37-.04s.24-.06.36-.12v.26c-.12.04-.24.07-.37.1s-.25.03-.38.03c-.33,0-.58-.08-.77-.23-.19-.16-.28-.37-.28-.63s.09-.49.27-.65c.18-.16.42-.24.73-.24.27,0,.49.07.65.22.16.14.24.34.24.59ZM167.44,302.5c0-.15-.05-.27-.15-.36-.1-.09-.23-.13-.4-.13-.19,0-.34.04-.45.13s-.18.21-.19.37h1.19Z"/>
              </g>
            </g>
          </g>
          <g id="xtick_3" data-name="xtick 3">
            <g id="line2d_3" data-name="line2d 3">
              <path id="m20008f09e1-3" data-name="m20008f09e1" class="cls-11" d="M188.15,299.02v1.07"/>
            </g>
            <g id="text_3" data-name="text 3">
              <g>
                <path id="DejaVuSans-55" d="M184.62,301.26h.37v1.35c0,.24.05.41.16.52.11.1.28.16.51.16s.41-.05.51-.16c.11-.11.16-.28.16-.52v-1.35h.37v1.39c0,.29-.09.51-.26.66-.18.15-.43.22-.78.22s-.6-.07-.78-.22c-.18-.15-.26-.37-.26-.66v-1.39Z"/>
                <path id="DejaVuSans-53" d="M189.02,301.33v.29c-.14-.05-.27-.1-.39-.12-.12-.03-.24-.04-.36-.04-.2,0-.35.03-.46.1-.11.06-.16.15-.16.27,0,.1.04.17.11.22.07.05.21.09.41.12l.22.04c.27.04.48.12.61.23s.2.25.2.43c0,.22-.09.38-.26.49-.18.11-.43.17-.78.17-.13,0-.27-.01-.41-.04-.14-.02-.29-.06-.45-.11v-.31c.15.07.3.12.44.16.14.03.28.05.42.05.21,0,.37-.03.49-.1.11-.07.17-.16.17-.29,0-.11-.04-.19-.12-.26s-.22-.11-.4-.14l-.22-.04c-.27-.04-.47-.11-.6-.21-.12-.1-.18-.23-.18-.4,0-.2.08-.35.25-.47.17-.11.4-.17.7-.17.13,0,.26,0,.39.03.13.02.27.05.41.08Z"/>
                <path id="DejaVuSans-41" d="M190.73,301.55l-.5,1.11h1l-.5-1.11ZM190.53,301.26h.42l1.04,2.23h-.38l-.25-.57h-1.22l-.25.57h-.39l1.04-2.23Z"/>
              </g>
            </g>
          </g>
          <g id="xtick_4" data-name="xtick 4">
            <g id="line2d_4" data-name="line2d 4">
              <path id="m20008f09e1-4" data-name="m20008f09e1" class="cls-11" d="M214.53,299.02v1.07"/>
            </g>
            <g id="text_4" data-name="text 4">
              <g>
                <path id="DejaVuSans-45" d="M202.67,301.26h1.72v.25h-1.35v.66h1.29v.25h-1.29v.81h1.38v.25h-1.75v-2.23Z"/>
                <path id="DejaVuSans-75" d="M204.98,302.82v-1.01h.33v1c0,.16.04.28.11.36.08.08.19.12.34.12.18,0,.32-.05.43-.14.11-.09.16-.22.16-.39v-.95h.33v1.67h-.33v-.26c-.08.1-.18.18-.28.23-.11.05-.23.07-.37.07-.23,0-.41-.06-.53-.18-.12-.12-.18-.29-.18-.52Z"/>
                <path id="DejaVuSans-72-3" data-name="DejaVuSans-72" d="M208.55,302.07s-.08-.03-.12-.04c-.04,0-.09-.01-.15-.01-.19,0-.33.05-.44.15s-.15.25-.15.43v.88h-.34v-1.67h.34v.26c.07-.1.16-.18.27-.23.11-.05.25-.07.41-.07.02,0,.05,0,.08,0,.03,0,.06,0,.09.01v.28Z"/>
                <path id="DejaVuSans-6f-2" data-name="DejaVuSans-6f" d="M209.61,302c-.18,0-.32.06-.43.17s-.16.27-.16.47.05.36.16.47c.1.11.25.17.43.17s.32-.06.42-.17c.1-.12.16-.27.16-.47s-.05-.35-.16-.47c-.1-.12-.25-.17-.42-.17ZM209.61,301.77c.29,0,.52.08.69.23.17.16.25.37.25.64s-.08.49-.25.64c-.17.16-.39.23-.69.23s-.52-.08-.69-.23c-.17-.16-.25-.37-.25-.64s.08-.49.25-.64c.17-.16.39-.23.69-.23Z"/>
                <path id="DejaVuSans-70" d="M211.43,303.23v.89h-.34v-2.31h.34v.25c.07-.1.16-.17.27-.22.11-.05.24-.07.38-.07.25,0,.45.08.6.24.15.16.23.37.23.64s-.08.47-.23.64c-.15.16-.36.24-.6.24-.15,0-.28-.02-.38-.07-.11-.05-.2-.12-.27-.22ZM212.57,302.65c0-.2-.05-.36-.15-.48s-.24-.17-.42-.17-.32.06-.42.17-.15.27-.15.48.05.36.15.48c.1.11.24.17.42.17s.32-.06.42-.17c.1-.11.15-.27.15-.48Z"/>
                <path id="DejaVuSans-65-3" data-name="DejaVuSans-65" d="M215.21,302.58v.13h-1.54c.01.19.08.33.21.43.12.1.3.15.52.15.13,0,.25-.01.37-.04s.24-.06.36-.12v.26c-.12.04-.24.07-.37.1s-.25.03-.38.03c-.33,0-.58-.08-.77-.23-.19-.16-.28-.37-.28-.63s.09-.49.27-.65c.18-.16.42-.24.73-.24.27,0,.49.07.65.22.16.14.24.34.24.59ZM214.88,302.5c0-.15-.05-.27-.15-.36-.1-.09-.23-.13-.4-.13-.19,0-.34.04-.45.13s-.18.21-.19.37h1.19Z"/>
                <path id="DejaVuSans-28" d="M217.75,301.17c-.16.23-.28.45-.36.68-.08.22-.12.45-.12.68s.04.46.12.68.2.45.36.68h-.29c-.18-.23-.32-.46-.41-.69-.09-.23-.14-.45-.14-.67s.04-.45.13-.67c.09-.23.23-.45.41-.69h.29Z"/>
                <path id="DejaVuSans-45-2" data-name="DejaVuSans-45" d="M218.41,301.26h1.72v.25h-1.35v.66h1.29v.25h-1.29v.81h1.38v.25h-1.75v-2.23Z"/>
                <path id="DejaVuSans-45-3" data-name="DejaVuSans-45" d="M220.77,301.26h1.72v.25h-1.35v.66h1.29v.25h-1.29v.81h1.38v.25h-1.75v-2.23Z"/>
                <path id="DejaVuSans-41-2" data-name="DejaVuSans-41" d="M224.03,301.55l-.5,1.11h1l-.5-1.11ZM223.82,301.26h.42l1.04,2.23h-.38l-.25-.57h-1.22l-.25.57h-.39l1.04-2.23Z"/>
                <path id="DejaVuSans-29" d="M225.61,301.17h.29c.18.23.32.46.41.69.09.22.14.45.14.67s-.05.45-.14.67c-.09.23-.23.46-.41.69h-.29c.16-.23.28-.45.36-.68.08-.23.12-.45.12-.68s-.04-.46-.12-.68c-.08-.22-.2-.45-.36-.68Z"/>
              </g>
            </g>
          </g>
          <g id="xtick_5" data-name="xtick 5">
            <g id="line2d_5" data-name="line2d 5">
              <path id="m20008f09e1-5" data-name="m20008f09e1" class="cls-11" d="M240.91,299.02v1.07"/>
            </g>
            <g id="text_5" data-name="text 5">
              <g>
                <path id="DejaVuSans-43" d="M237.99,301.43v.32c-.12-.09-.26-.17-.4-.21-.14-.05-.29-.07-.45-.07-.31,0-.55.08-.71.23s-.25.38-.25.68.08.52.25.67.4.23.71.23c.16,0,.31-.02.45-.07s.27-.12.4-.21v.32c-.13.07-.26.13-.41.16-.14.04-.3.05-.46.05-.41,0-.74-.1-.97-.31-.24-.21-.35-.49-.35-.85s.12-.64.35-.85c.24-.21.56-.31.97-.31.16,0,.32.02.46.05.14.04.28.09.41.16Z"/>
                <path id="DejaVuSans-68" d="M240.24,302.47v1.01h-.33v-1c0-.16-.04-.28-.11-.35-.08-.08-.19-.12-.34-.12-.18,0-.32.05-.43.14-.1.09-.16.22-.16.39v.94h-.34v-2.32h.34v.91c.08-.1.17-.18.28-.23.11-.05.23-.07.38-.07.23,0,.41.06.53.18.12.12.18.29.18.52Z"/>
                <path id="DejaVuSans-69-2" data-name="DejaVuSans-69" d="M240.91,301.81h.33v1.67h-.33v-1.67ZM240.91,301.16h.33v.35h-.33v-.35Z"/>
                <path id="DejaVuSans-6e-2" data-name="DejaVuSans-6e" d="M243.64,302.47v1.01h-.33v-1c0-.16-.04-.28-.11-.35-.08-.08-.19-.12-.34-.12-.18,0-.32.05-.43.14-.1.09-.16.22-.16.39v.94h-.34v-1.67h.34v.26c.08-.1.17-.18.28-.23.11-.05.23-.07.38-.07.23,0,.41.06.53.18.12.12.18.29.18.52Z"/>
                <path id="DejaVuSans-61-2" data-name="DejaVuSans-61" d="M245.23,302.64c-.27,0-.46.03-.56.08s-.16.14-.16.26c0,.1.04.17.12.23.08.06.18.09.32.09.19,0,.34-.05.45-.16s.17-.25.17-.43v-.06h-.33ZM245.9,302.53v.95h-.33v-.25c-.08.1-.17.18-.29.22-.11.05-.25.07-.42.07-.21,0-.37-.05-.5-.14-.12-.1-.18-.22-.18-.39,0-.19.08-.33.23-.42.15-.1.38-.14.69-.14h.47v-.03c0-.13-.05-.22-.15-.29s-.24-.1-.43-.1c-.12,0-.23.01-.34.03-.11.02-.22.06-.32.1v-.25c.12-.04.24-.07.36-.09.12-.02.23-.03.34-.03.3,0,.52.06.66.19.15.13.22.31.22.57Z"/>
              </g>
            </g>
          </g>
          <g id="text_6" data-name="text 6">
            <g>
              <path id="DejaVuSans-41-3" data-name="DejaVuSans-41" d="M171.94,305.81l-.6,1.33h1.2l-.6-1.33ZM171.7,305.45h.5l1.24,2.67h-.46l-.3-.69h-1.47l-.3.69h-.47l1.24-2.67Z"/>
              <path id="DejaVuSans-72-4" data-name="DejaVuSans-72" d="M175.31,306.43s-.09-.04-.15-.05c-.05-.01-.11-.02-.18-.02-.23,0-.4.06-.52.18s-.18.3-.18.52v1.06h-.4v-2.01h.4v.31c.08-.12.19-.21.33-.27.14-.06.3-.09.49-.09.03,0,.06,0,.09,0,.03,0,.07,0,.11.01v.34Z"/>
              <path id="DejaVuSans-65-4" data-name="DejaVuSans-65" d="M177.73,307.04v.16h-1.85c.02.23.1.4.25.52.15.12.36.18.62.18.15,0,.3-.02.45-.05s.29-.08.43-.14v.31c-.14.05-.29.09-.44.11s-.3.04-.46.04c-.39,0-.7-.09-.93-.28-.23-.19-.34-.44-.34-.76s.11-.59.32-.78c.22-.19.51-.29.87-.29.33,0,.59.09.78.26.19.17.29.41.29.71ZM177.32,306.95c0-.18-.06-.32-.18-.43-.12-.11-.28-.16-.48-.16-.22,0-.4.05-.54.16s-.21.25-.23.44h1.43Z"/>
              <path id="DejaVuSans-61-3" data-name="DejaVuSans-61" d="M179.5,307.12c-.32,0-.55.03-.68.09s-.19.16-.19.31c0,.12.05.21.14.28.09.07.22.1.38.1.22,0,.4-.06.54-.19s.2-.3.2-.52v-.07h-.4ZM180.3,306.98v1.14h-.4v-.3c-.09.12-.21.21-.34.27-.14.06-.3.09-.5.09-.25,0-.45-.06-.6-.17-.15-.12-.22-.27-.22-.46,0-.23.09-.4.28-.51.18-.11.46-.17.82-.17h.56v-.03c0-.15-.06-.27-.18-.35s-.29-.12-.51-.12c-.14,0-.28.01-.41.04-.13.03-.26.07-.38.12v-.3c.15-.05.29-.08.43-.1.14-.02.27-.03.4-.03.35,0,.62.08.79.23.17.15.26.38.26.68Z"/>
              <path id="DejaVuSans-6f-3" data-name="DejaVuSans-6f" d="M183.5,306.35c-.22,0-.39.07-.51.21s-.19.33-.19.57.06.43.19.57c.12.14.3.21.51.21s.38-.07.51-.21c.13-.14.19-.33.19-.57s-.06-.43-.19-.56c-.12-.14-.29-.21-.51-.21ZM183.5,306.07c.35,0,.62.09.82.28.2.19.3.44.3.77s-.1.59-.3.77c-.2.19-.47.28-.82.28s-.63-.09-.82-.28c-.2-.19-.3-.44-.3-.77s.1-.59.3-.77c.2-.19.47-.28.82-.28Z"/>
              <path id="DejaVuSans-72-5" data-name="DejaVuSans-72" d="M186.7,306.43s-.09-.04-.15-.05c-.05-.01-.11-.02-.18-.02-.23,0-.4.06-.52.18s-.18.3-.18.52v1.06h-.4v-2.01h.4v.31c.08-.12.19-.21.33-.27.14-.06.3-.09.49-.09.03,0,.06,0,.09,0,.03,0,.07,0,.11.01v.34Z"/>
              <path id="DejaVuSans-43-2" data-name="DejaVuSans-43" d="M191,305.66v.38c-.15-.11-.31-.2-.48-.25-.17-.06-.35-.08-.54-.08-.37,0-.66.09-.86.28s-.3.46-.3.81.1.62.3.81.48.28.86.28c.19,0,.37-.03.54-.08s.33-.14.48-.25v.38c-.15.09-.32.15-.49.19-.17.04-.35.06-.55.06-.49,0-.88-.12-1.17-.37-.28-.25-.43-.59-.43-1.01s.14-.77.43-1.02c.28-.25.67-.37,1.17-.37.19,0,.38.02.55.06.17.04.33.11.49.19Z"/>
              <path id="DejaVuSans-6f-4" data-name="DejaVuSans-6f" d="M192.61,306.35c-.22,0-.39.07-.51.21s-.19.33-.19.57.06.43.19.57c.12.14.3.21.51.21s.38-.07.51-.21c.13-.14.19-.33.19-.57s-.06-.43-.19-.56c-.12-.14-.29-.21-.51-.21ZM192.61,306.07c.35,0,.62.09.82.28.2.19.3.44.3.77s-.1.59-.3.77c-.2.19-.47.28-.82.28s-.63-.09-.82-.28c-.2-.19-.3-.44-.3-.77s.1-.59.3-.77c.2-.19.47-.28.82-.28Z"/>
              <path id="DejaVuSans-75-2" data-name="DejaVuSans-75" d="M194.36,307.34v-1.21h.4v1.2c0,.19.04.33.13.43.09.09.23.14.41.14.22,0,.39-.06.51-.17.13-.11.19-.27.19-.46v-1.14h.4v2.01h-.4v-.31c-.1.12-.21.21-.34.27-.13.06-.28.09-.45.09-.28,0-.49-.07-.64-.21-.15-.14-.22-.35-.22-.63Z"/>
              <path id="DejaVuSans-6e-3" data-name="DejaVuSans-6e" d="M199.27,306.92v1.21h-.4v-1.2c0-.19-.05-.33-.14-.43-.09-.09-.23-.14-.41-.14-.22,0-.39.06-.51.17-.13.11-.19.27-.19.46v1.13h-.4v-2.01h.4v.31c.1-.12.21-.21.34-.27.13-.06.28-.09.45-.09.28,0,.49.07.64.21.14.14.22.35.22.63Z"/>
              <path id="DejaVuSans-74" d="M200.47,305.55v.57h.83v.26h-.83v1.09c0,.16.03.27.08.32s.17.07.33.07h.41v.28h-.41c-.31,0-.52-.05-.64-.14-.12-.1-.18-.27-.18-.52v-1.09h-.29v-.26h.29v-.57h.4Z"/>
              <path id="DejaVuSans-72-6" data-name="DejaVuSans-72" d="M203.24,306.43s-.09-.04-.15-.05c-.05-.01-.11-.02-.18-.02-.23,0-.4.06-.52.18s-.18.3-.18.52v1.06h-.4v-2.01h.4v.31c.08-.12.19-.21.33-.27.14-.06.3-.09.49-.09.03,0,.06,0,.09,0,.03,0,.07,0,.11.01v.34Z"/>
              <path id="DejaVuSans-79" d="M204.68,308.31c-.11.24-.22.39-.33.47-.11.07-.25.11-.43.11h-.32v-.28h.24c.11,0,.2-.02.26-.06.06-.04.13-.14.2-.3l.07-.15-.99-1.97h.43l.76,1.57.76-1.57h.43l-1.07,2.19Z"/>
            </g>
          </g>
        </g>
        <g id="matplotlib.axis_2" data-name="matplotlib.axis 2">
          <g id="ytick_1" data-name="ytick 1">
            <g id="line2d_6" data-name="line2d 6">
              <path id="m8650f15f65" class="cls-11" d="M118.51,299.02h-1.3"/>
            </g>
            <g id="text_7" data-name="text 7">
              <path id="DejaVuSans-30" d="M114.71,298.15c-.19,0-.33.08-.43.23-.1.15-.14.38-.14.69s.05.53.14.69c.1.15.24.23.43.23s.33-.08.43-.23c.1-.15.14-.38.14-.69s-.05-.54-.14-.69c-.1-.15-.24-.23-.43-.23ZM114.71,297.92c.3,0,.54.1.7.3.16.2.24.48.24.86s-.08.66-.24.86c-.16.2-.39.3-.7.3s-.54-.1-.7-.3c-.16-.2-.24-.48-.24-.86s.08-.66.24-.86c.16-.2.39-.3.7-.3Z"/>
            </g>
          </g>
          <g id="ytick_2" data-name="ytick 2">
            <g id="line2d_7" data-name="line2d 7">
              <path id="m8650f15f65-2" data-name="m8650f15f65" class="cls-11" d="M118.51,272.29h-1.3"/>
            </g>
            <g id="text_8" data-name="text 8">
              <path id="DejaVuSans-32" d="M114.24,273.2h1.28v.25h-1.72v-.25c.14-.12.33-.28.57-.48.24-.2.39-.33.45-.39.12-.11.2-.2.25-.28.05-.08.07-.15.07-.22,0-.12-.05-.21-.15-.29-.1-.07-.23-.11-.4-.11-.12,0-.24.02-.37.05-.13.03-.26.08-.41.15v-.3c.15-.05.29-.09.41-.11.13-.02.25-.04.35-.04.28,0,.51.06.67.17.17.12.25.27.25.46,0,.09-.02.18-.06.26-.04.08-.12.18-.23.29-.03.03-.13.11-.29.25-.16.14-.39.33-.69.58Z"/>
            </g>
          </g>
          <g id="ytick_3" data-name="ytick 3">
            <g id="line2d_8" data-name="line2d 8">
              <path id="m8650f15f65-3" data-name="m8650f15f65" class="cls-11" d="M118.51,245.56h-1.3"/>
            </g>
            <g id="text_9" data-name="text 9">
              <path id="DejaVuSans-34" d="M114.94,244.76l-.93,1.19h.93v-1.19ZM114.84,244.5h.46v1.45h.39v.25h-.39v.53h-.37v-.53h-1.23v-.29l1.13-1.41Z"/>
            </g>
          </g>
          <g id="ytick_4" data-name="ytick 4">
            <g id="line2d_9" data-name="line2d 9">
              <path id="m8650f15f65-4" data-name="m8650f15f65" class="cls-11" d="M118.51,218.83h-1.3"/>
            </g>
            <g id="text_10" data-name="text 10">
              <path id="DejaVuSans-36" d="M114.76,218.76c-.16,0-.3.05-.39.14-.1.09-.14.22-.14.38s.05.29.14.38c.1.09.23.14.39.14s.3-.05.39-.14c.1-.09.14-.22.14-.38s-.05-.29-.14-.38c-.1-.09-.23-.14-.39-.14ZM115.49,217.82v.27c-.09-.04-.19-.06-.28-.08-.09-.02-.19-.03-.28-.03-.24,0-.43.07-.56.2-.13.13-.2.34-.22.61.07-.09.16-.15.27-.2.11-.05.23-.07.36-.07.27,0,.49.07.65.2.16.14.24.32.24.55s-.08.41-.25.55c-.16.14-.38.21-.66.21-.31,0-.55-.1-.72-.3-.17-.2-.25-.48-.25-.86,0-.35.1-.63.31-.84.2-.21.48-.31.82-.31.09,0,.19,0,.28.02s.19.04.29.07Z"/>
            </g>
          </g>
          <g id="ytick_5" data-name="ytick 5">
            <g id="line2d_10" data-name="line2d 10">
              <path id="m8650f15f65-5" data-name="m8650f15f65" class="cls-11" d="M118.51,192.1h-1.3"/>
            </g>
            <g id="text_11" data-name="text 11">
              <path id="DejaVuSans-38" d="M114.71,192.21c-.17,0-.31.04-.41.12-.1.08-.15.18-.15.32s.05.24.15.32c.1.08.24.12.41.12s.31-.04.41-.12c.1-.08.15-.18.15-.32s-.05-.24-.15-.32c-.1-.08-.24-.12-.41-.12ZM114.34,192.08c-.16-.03-.28-.09-.37-.18-.09-.09-.13-.2-.13-.32,0-.18.08-.32.23-.42.15-.1.37-.16.64-.16s.48.05.64.16.23.24.23.42c0,.13-.04.24-.13.32-.09.09-.21.15-.37.18.18.03.31.1.41.2.1.1.15.22.15.36,0,.22-.08.38-.24.5-.16.12-.39.17-.69.17s-.53-.06-.69-.17c-.16-.12-.24-.28-.24-.5,0-.14.05-.26.15-.36.1-.1.24-.16.42-.2ZM114.21,191.6c0,.12.04.21.13.27.09.06.21.1.37.1s.28-.03.37-.1c.09-.06.13-.15.13-.27s-.04-.21-.13-.27c-.09-.06-.21-.1-.37-.1s-.28.03-.37.1c-.09.06-.13.15-.13.27Z"/>
            </g>
          </g>
          <g id="ytick_6" data-name="ytick 6">
            <g id="line2d_11" data-name="line2d 11">
              <path id="m8650f15f65-6" data-name="m8650f15f65" class="cls-11" d="M118.51,165.37h-1.3"/>
            </g>
            <g id="text_12" data-name="text 12">
              <g>
                <path id="DejaVuSans-31" d="M111.62,166.28h.6v-1.7l-.65.11v-.27l.65-.11h.37v1.97h.6v.25h-1.56v-.25Z"/>
                <path id="DejaVuSans-30-2" data-name="DejaVuSans-30" d="M114.71,164.51c-.19,0-.33.08-.43.23-.1.15-.14.38-.14.69s.05.53.14.69c.1.15.24.23.43.23s.33-.08.43-.23c.1-.15.14-.38.14-.69s-.05-.54-.14-.69c-.1-.15-.24-.23-.43-.23ZM114.71,164.27c.3,0,.54.1.7.3.16.2.24.48.24.86s-.08.66-.24.86c-.16.2-.39.3-.7.3s-.54-.1-.7-.3c-.16-.2-.24-.48-.24-.86s.08-.66.24-.86c.16-.2.39-.3.7-.3Z"/>
              </g>
            </g>
          </g>
          <g id="ytick_7" data-name="ytick 7">
            <g id="line2d_12" data-name="line2d 12">
              <path id="m8650f15f65-7" data-name="m8650f15f65" class="cls-11" d="M118.51,138.65h-1.3"/>
            </g>
            <g id="text_13" data-name="text 13">
              <g>
                <path id="DejaVuSans-31-2" data-name="DejaVuSans-31" d="M111.62,139.55h.6v-1.7l-.65.11v-.27l.65-.11h.37v1.97h.6v.25h-1.56v-.25Z"/>
                <path id="DejaVuSans-32-2" data-name="DejaVuSans-32" d="M114.24,139.55h1.28v.25h-1.72v-.25c.14-.12.33-.28.57-.48.24-.2.39-.33.45-.39.12-.11.2-.2.25-.28.05-.08.07-.15.07-.22,0-.12-.05-.21-.15-.29-.1-.07-.23-.11-.4-.11-.12,0-.24.02-.37.05-.13.03-.26.08-.41.15v-.3c.15-.05.29-.09.41-.11.13-.02.25-.04.35-.04.28,0,.51.06.67.17.17.12.25.27.25.46,0,.09-.02.18-.06.26-.04.08-.12.18-.23.29-.03.03-.13.11-.29.25-.16.14-.39.33-.69.58Z"/>
              </g>
            </g>
          </g>
          <g id="ytick_8" data-name="ytick 8">
            <g id="line2d_13" data-name="line2d 13">
              <path id="m8650f15f65-8" data-name="m8650f15f65" class="cls-11" d="M118.51,111.92h-1.3"/>
            </g>
            <g id="text_14" data-name="text 14">
              <g>
                <path id="DejaVuSans-31-3" data-name="DejaVuSans-31" d="M111.62,112.82h.6v-1.7l-.65.11v-.27l.65-.11h.37v1.97h.6v.25h-1.56v-.25Z"/>
                <path id="DejaVuSans-34-2" data-name="DejaVuSans-34" d="M114.94,111.11l-.93,1.19h.93v-1.19ZM114.84,110.85h.46v1.45h.39v.25h-.39v.53h-.37v-.53h-1.23v-.29l1.13-1.41Z"/>
              </g>
            </g>
          </g>
          <g id="text_15" data-name="text 15">
            <g>
              <path id="DejaVuSans-50" d="M105.84,211.59h1.22v-.45c0-.17-.05-.3-.16-.39-.11-.09-.26-.14-.45-.14s-.35.05-.45.14c-.11.09-.16.22-.16.39v.45ZM105.47,211.95v-.82c0-.3.08-.53.25-.68.17-.15.41-.23.73-.23s.57.08.73.23c.16.15.25.38.25.68v.45h1.31v.36h-3.26Z"/>
              <path id="DejaVuSans-45-4" data-name="DejaVuSans-45" d="M105.47,209.74v-1.69h.37v1.33h.97v-1.27h.37v1.27h1.18v-1.36h.37v1.72h-3.26Z"/>
              <path id="DejaVuSans-28-2" data-name="DejaVuSans-28" d="M105.34,205.48c.33.16.67.28.99.36.33.08.66.12,1,.12s.67-.04,1-.12.66-.2,1-.36v.29c-.34.18-.68.31-1.01.4-.33.09-.66.13-.98.13s-.65-.04-.98-.13c-.33-.09-.67-.22-1.01-.4v-.29Z"/>
              <path id="DejaVuSans-4d" d="M105.47,204.83v-.54l2.22-.68-2.22-.69v-.54h3.26v.35h-2.86l2.24.69v.36l-2.24.69h2.86v.35h-3.26Z"/>
              <path id="DejaVuSans-4a" d="M105.47,201.66v-.36h3.03c.39,0,.68.06.86.18.18.12.27.32.27.59v.14h-.37v-.11c0-.16-.05-.27-.16-.34-.11-.07-.3-.1-.59-.1h-3.03Z"/>
              <path id="DejaVuSans-2f" d="M105.47,198.84v-.3l3.68.93v.3l-3.68-.93Z"/>
              <path id="DejaVuSans-6b" d="M105.34,197.04v-.33h2.01l-1.05-.98v-.42l1.14,1.06,1.3-1.11v.43l-1.19,1.02h1.19v.33h-3.4Z"/>
              <path id="DejaVuSans-57-2" data-name="DejaVuSans-57" d="M105.47,195.13v-.36l2.76-.56-2.76-.56v-.41l2.76-.56-2.76-.56v-.37l3.26.67v.45l-2.83.56,2.83.57v.45l-3.26.67Z"/>
              <path id="DejaVuSans-68-2" data-name="DejaVuSans-68" d="M107.26,189.61h1.48v.33h-1.46c-.23,0-.4.04-.52.11-.12.07-.17.19-.17.33,0,.18.07.32.21.42.14.1.33.15.57.15h1.38v.33h-3.4v-.33h1.33c-.15-.08-.26-.17-.33-.28-.07-.11-.11-.23-.11-.37,0-.23.09-.4.26-.52.17-.12.43-.18.77-.18Z"/>
              <path id="DejaVuSans-29-2" data-name="DejaVuSans-29" d="M105.34,189.01v-.29c.34-.18.68-.31,1.01-.4.33-.09.66-.13.98-.13s.65.04.98.13c.33.09.67.22,1.01.4v.29c-.33-.16-.67-.28-1-.36-.33-.08-.66-.12-1-.12s-.67.04-1,.12c-.33.08-.66.2-.99.36Z"/>
            </g>
          </g>
        </g>
        <g id="patch_8" data-name="patch 8">
          <path class="cls-2" d="M118.51,299.02V101.16"/>
        </g>
        <g id="patch_9" data-name="patch 9">
          <path class="cls-2" d="M257.8,299.02V101.16"/>
        </g>
        <g id="patch_10" data-name="patch 10">
          <path class="cls-2" d="M118.51,299.02h139.29"/>
        </g>
        <g id="patch_11" data-name="patch 11">
          <path class="cls-2" d="M118.51,101.16h139.29"/>
        </g>
        <g id="text_16" data-name="text 16">
          <g>
            <path id="DejaVuSans-Bold-31" class="cls-9" d="M131.23,172.64h.62v-1.44l-.64.11v-.39l.63-.11h.67v1.83h.62v.4h-1.9v-.4Z"/>
            <path id="DejaVuSans-Bold-30" class="cls-9" d="M135.1,171.92c0-.28-.03-.47-.1-.59-.06-.11-.17-.17-.32-.17s-.26.06-.32.17c-.06.11-.1.31-.1.59s.03.48.1.6c.06.12.17.17.32.17s.26-.06.32-.17c.06-.12.1-.31.1-.6ZM135.8,171.92c0,.37-.1.65-.29.85s-.47.3-.83.3-.63-.1-.83-.3c-.19-.2-.29-.49-.29-.85s.1-.66.29-.86c.19-.2.47-.3.83-.3s.63.1.83.3c.19.2.29.49.29.86Z"/>
            <path id="DejaVuSans-Bold-2e" class="cls-9" d="M136.36,172.46h.66v.58h-.66v-.58Z"/>
            <path id="DejaVuSans-Bold-30-2" data-name="DejaVuSans-Bold-30" class="cls-9" d="M139.11,171.92c0-.28-.03-.47-.1-.59-.06-.11-.17-.17-.32-.17s-.26.06-.32.17c-.06.11-.1.31-.1.59s.03.48.1.6c.06.12.17.17.32.17s.26-.06.32-.17c.06-.12.1-.31.1-.6ZM139.81,171.92c0,.37-.1.65-.29.85s-.47.3-.83.3-.63-.1-.83-.3c-.19-.2-.29-.49-.29-.85s.1-.66.29-.86c.19-.2.47-.3.83-.3s.63.1.83.3c.19.2.29.49.29.86Z"/>
          </g>
        </g>
        <g id="text_17" data-name="text 17">
          <g>
            <path id="DejaVuSans-Bold-31-2" data-name="DejaVuSans-Bold-31" class="cls-9" d="M157.61,155.13h.62v-1.44l-.64.11v-.39l.63-.11h.67v1.83h.62v.4h-1.9v-.4Z"/>
            <path id="DejaVuSans-Bold-31-3" data-name="DejaVuSans-Bold-31" class="cls-9" d="M160.2,155.13h.62v-1.44l-.64.11v-.39l.63-.11h.67v1.83h.62v.4h-1.9v-.4Z"/>
            <path id="DejaVuSans-Bold-2e-2" data-name="DejaVuSans-Bold-2e" class="cls-9" d="M162.74,154.95h.66v.58h-.66v-.58Z"/>
            <path id="DejaVuSans-Bold-33" class="cls-9" d="M165.51,154.33c.18.04.32.11.42.2.1.1.14.22.14.37,0,.22-.1.39-.31.5-.21.11-.51.17-.9.17-.14,0-.28,0-.42-.03-.14-.02-.28-.05-.42-.08v-.44c.13.05.26.09.39.12.13.03.26.04.38.04.19,0,.33-.03.43-.08.1-.05.15-.13.15-.23s-.05-.18-.15-.23-.25-.08-.45-.08h-.28v-.37h.29c.18,0,.31-.02.39-.07.09-.05.13-.11.13-.21,0-.09-.04-.15-.13-.2-.08-.05-.2-.07-.35-.07-.11,0-.23.01-.34.03-.12.02-.23.05-.34.09v-.42c.14-.03.28-.06.41-.07s.27-.02.4-.02c.35,0,.62.05.79.14.18.09.26.24.26.43,0,.13-.04.24-.13.32-.08.08-.21.14-.37.18Z"/>
          </g>
        </g>
        <g id="text_18" data-name="text 18">
          <g>
            <path id="DejaVuSans-Bold-31-4" data-name="DejaVuSans-Bold-31" class="cls-9" d="M183.99,153.79h.62v-1.44l-.64.11v-.39l.63-.11h.67v1.83h.62v.4h-1.9v-.4Z"/>
            <path id="DejaVuSans-Bold-31-5" data-name="DejaVuSans-Bold-31" class="cls-9" d="M186.58,153.79h.62v-1.44l-.64.11v-.39l.63-.11h.67v1.83h.62v.4h-1.9v-.4Z"/>
            <path id="DejaVuSans-Bold-2e-3" data-name="DejaVuSans-Bold-2e" class="cls-9" d="M189.12,153.61h.66v.58h-.66v-.58Z"/>
            <path id="DejaVuSans-Bold-34" class="cls-9" d="M191.53,152.44l-.77.93h.77v-.93ZM191.41,151.96h.78v1.41h.39v.42h-.39v.41h-.66v-.41h-1.2v-.49l1.09-1.33Z"/>
          </g>
        </g>
        <g id="text_19" data-name="text 19">
          <g>
            <path id="DejaVuSans-Bold-31-6" data-name="DejaVuSans-Bold-31" class="cls-9" d="M210.37,133.75h.62v-1.44l-.64.11v-.39l.63-.11h.67v1.83h.62v.4h-1.9v-.4Z"/>
            <path id="DejaVuSans-Bold-32" class="cls-9" d="M213.6,133.72h1.2v.42h-1.97v-.42l.99-.72c.09-.07.15-.13.2-.19s.06-.13.06-.2c0-.1-.04-.19-.13-.25s-.2-.1-.34-.1c-.11,0-.23.02-.36.06-.13.04-.27.1-.42.17v-.49c.16-.04.31-.08.47-.1.15-.02.31-.03.45-.03.33,0,.58.06.76.18.18.12.27.28.27.49,0,.12-.04.23-.11.34-.08.1-.24.25-.48.42l-.58.42Z"/>
            <path id="DejaVuSans-Bold-2e-4" data-name="DejaVuSans-Bold-2e" class="cls-9" d="M215.5,133.57h.66v.58h-.66v-.58Z"/>
            <path id="DejaVuSans-Bold-39" class="cls-9" d="M216.91,134.09v-.41c.11.04.22.08.32.1.1.02.2.03.3.03.21,0,.37-.05.49-.14.12-.1.18-.24.21-.42-.08.05-.17.09-.26.11s-.19.04-.3.04c-.28,0-.5-.07-.67-.2-.17-.13-.26-.31-.26-.52,0-.24.09-.43.28-.58s.44-.22.76-.22c.35,0,.63.1.82.29.19.2.29.47.29.83s-.11.66-.34.87c-.23.21-.54.32-.93.32-.13,0-.25,0-.37-.02-.12-.02-.23-.04-.34-.07ZM217.78,133.02c.12,0,.21-.03.28-.1.06-.07.09-.16.09-.29s-.03-.23-.09-.29c-.06-.07-.15-.1-.28-.1s-.21.03-.28.1c-.06.07-.09.16-.09.29s.03.23.09.29c.06.06.15.1.28.1Z"/>
          </g>
        </g>
        <g id="text_20" data-name="text 20">
          <g>
            <path id="DejaVuSans-Bold-31-7" data-name="DejaVuSans-Bold-31" class="cls-9" d="M236.75,117.71h.62v-1.44l-.64.11v-.39l.63-.11h.67v1.83h.62v.4h-1.9v-.4Z"/>
            <path id="DejaVuSans-Bold-34-2" data-name="DejaVuSans-Bold-34" class="cls-9" d="M240.28,116.35l-.77.93h.77v-.93ZM240.17,115.88h.78v1.41h.39v.42h-.39v.41h-.66v-.41h-1.2v-.49l1.09-1.33Z"/>
            <path id="DejaVuSans-Bold-2e-5" data-name="DejaVuSans-Bold-2e" class="cls-9" d="M241.88,117.53h.66v.58h-.66v-.58Z"/>
            <path id="DejaVuSans-Bold-31-8" data-name="DejaVuSans-Bold-31" class="cls-9" d="M243.36,117.71h.62v-1.44l-.64.11v-.39l.63-.11h.67v1.83h.62v.4h-1.9v-.4Z"/>
          </g>
        </g>
        <g id="text_21" data-name="text 21">
          <g>
            <path id="DejaVuSans-50-2" data-name="DejaVuSans-50" d="M137.24,96.55v1.17h.65c.24,0,.42-.05.56-.15.13-.1.2-.25.2-.43s-.07-.33-.2-.43c-.13-.1-.32-.15-.56-.15h-.65ZM136.72,96.21h1.16c.43,0,.75.08.97.24.22.16.33.39.33.69s-.11.54-.33.7c-.22.16-.54.24-.97.24h-.65v1.25h-.51v-3.12Z"/>
            <path id="DejaVuSans-72-7" data-name="DejaVuSans-72" d="M141.41,97.34c-.05-.02-.11-.04-.17-.05-.06-.01-.13-.02-.2-.02-.27,0-.47.07-.61.21s-.21.34-.21.61v1.23h-.47v-2.34h.47v.36c.1-.14.23-.25.38-.32.16-.07.35-.1.58-.1.03,0,.07,0,.11,0,.04,0,.08,0,.13.02v.39Z"/>
            <path id="DejaVuSans-69-3" data-name="DejaVuSans-69" d="M141.9,96.98h.47v2.34h-.47v-2.34ZM141.9,96.07h.47v.49h-.47v-.49Z"/>
            <path id="DejaVuSans-6d" d="M145.57,97.43c.12-.17.26-.3.42-.38s.35-.12.58-.12c.3,0,.53.09.69.26.16.17.24.41.24.73v1.41h-.47v-1.4c0-.22-.05-.39-.15-.5-.1-.11-.24-.16-.44-.16-.24,0-.44.07-.58.2-.14.13-.21.31-.21.54v1.32h-.47v-1.4c0-.23-.05-.39-.15-.5s-.25-.16-.45-.16c-.24,0-.43.07-.57.2-.14.13-.21.31-.21.54v1.32h-.47v-2.34h.47v.36c.11-.14.24-.25.38-.32s.33-.1.53-.1.38.04.53.13c.15.09.25.21.32.38Z"/>
            <path id="DejaVuSans-61-4" data-name="DejaVuSans-61" d="M149.73,98.15c-.38,0-.64.04-.79.11s-.22.19-.22.36c0,.14.05.24.16.32.11.08.26.12.45.12.26,0,.47-.08.63-.23s.24-.35.24-.6v-.09h-.47ZM150.67,97.99v1.33h-.47v-.35c-.11.14-.24.25-.4.31-.16.07-.36.1-.59.1-.29,0-.52-.07-.7-.2-.17-.13-.26-.31-.26-.54,0-.26.11-.46.32-.59.22-.13.54-.2.96-.2h.66v-.04c0-.18-.07-.31-.21-.41s-.34-.15-.6-.15c-.16,0-.32.02-.48.05-.15.03-.3.08-.45.14v-.36c.17-.05.34-.09.5-.12.16-.03.32-.04.47-.04.41,0,.72.09.93.26.2.18.31.44.31.8Z"/>
            <path id="DejaVuSans-72-8" data-name="DejaVuSans-72" d="M153.29,97.34c-.05-.02-.11-.04-.17-.05-.06-.01-.13-.02-.2-.02-.27,0-.47.07-.61.21s-.21.34-.21.61v1.23h-.47v-2.34h.47v.36c.1-.14.23-.25.38-.32.16-.07.35-.1.58-.1.03,0,.07,0,.11,0,.04,0,.08,0,.13.02v.39Z"/>
            <path id="DejaVuSans-79-2" data-name="DejaVuSans-79" d="M154.97,99.54c-.13.28-.26.46-.39.54-.13.09-.29.13-.5.13h-.38v-.32h.28c.13,0,.23-.03.3-.08.07-.05.15-.17.24-.35l.08-.18-1.15-2.3h.5l.89,1.83.89-1.83h.5l-1.25,2.56Z"/>
            <path id="DejaVuSans-45-5" data-name="DejaVuSans-45" d="M158.54,96.21h2.4v.36h-1.89v.92h1.81v.35h-1.81v1.13h1.94v.35h-2.45v-3.12Z"/>
            <path id="DejaVuSans-6e-4" data-name="DejaVuSans-6e" d="M164.19,97.91v1.41h-.47v-1.4c0-.22-.05-.39-.16-.5-.11-.11-.26-.17-.47-.17-.25,0-.45.07-.6.2-.15.13-.22.31-.22.54v1.32h-.47v-2.34h.47v.36c.11-.14.24-.25.4-.32.15-.07.33-.1.53-.1.33,0,.58.08.74.25.17.17.25.41.25.73Z"/>
            <path id="DejaVuSans-65-5" data-name="DejaVuSans-65" d="M167.57,98.06v.19h-2.16c.02.26.12.47.29.6.17.14.42.21.73.21.18,0,.35-.02.52-.05s.34-.09.5-.16v.36c-.17.06-.34.1-.52.13s-.36.05-.54.05c-.46,0-.82-.11-1.08-.33-.27-.22-.4-.51-.4-.88s.13-.69.38-.91c.25-.23.59-.34,1.02-.34.38,0,.69.1.91.3.22.2.34.48.34.83ZM167.1,97.94c0-.21-.08-.38-.22-.5-.14-.13-.33-.19-.56-.19-.26,0-.47.06-.63.18s-.25.29-.27.51h1.67Z"/>
            <path id="DejaVuSans-72-9" data-name="DejaVuSans-72" d="M169.99,97.34c-.05-.02-.11-.04-.17-.05-.06-.01-.13-.02-.2-.02-.27,0-.47.07-.61.21s-.21.34-.21.61v1.23h-.47v-2.34h.47v.36c.1-.14.23-.25.38-.32.16-.07.35-.1.58-.1.03,0,.07,0,.11,0,.04,0,.08,0,.13.02v.39Z"/>
            <path id="DejaVuSans-67" d="M172.27,98.13c0-.28-.07-.49-.21-.65-.14-.15-.34-.23-.59-.23s-.45.08-.59.23c-.14.15-.21.37-.21.65s.07.49.21.65c.14.15.34.23.59.23s.45-.08.59-.23c.14-.15.21-.37.21-.65ZM172.74,99.03c0,.4-.11.69-.32.89-.22.19-.55.29-.99.29-.16,0-.32-.01-.47-.03s-.29-.05-.43-.09v-.37c.14.06.27.11.41.14.13.03.27.04.41.04.31,0,.54-.07.69-.2.15-.13.23-.33.23-.6v-.19c-.1.14-.22.24-.37.31s-.33.1-.54.1c-.35,0-.63-.11-.85-.33-.21-.22-.32-.51-.32-.87s.11-.65.32-.87c.21-.22.5-.33.85-.33.21,0,.39.03.54.1s.28.17.37.31v-.35h.47v2.05Z"/>
            <path id="DejaVuSans-79-3" data-name="DejaVuSans-79" d="M174.89,99.54c-.13.28-.26.46-.39.54-.13.09-.29.13-.5.13h-.38v-.32h.28c.13,0,.23-.03.3-.08.07-.05.15-.17.24-.35l.08-.18-1.15-2.3h.5l.89,1.83.89-1.83h.5l-1.25,2.56Z"/>
            <path id="DejaVuSans-43-3" data-name="DejaVuSans-43" d="M181.32,96.45v.44c-.17-.13-.36-.23-.55-.3-.2-.07-.4-.1-.63-.1-.43,0-.77.11-1,.33s-.35.53-.35.95.12.73.35.94.56.33,1,.33c.22,0,.43-.03.63-.1s.38-.16.55-.3v.44c-.18.1-.37.18-.57.23-.2.05-.41.07-.64.07-.58,0-1.03-.14-1.36-.43-.33-.29-.5-.68-.5-1.18s.17-.9.5-1.19c.33-.29.79-.43,1.36-.43.23,0,.44.02.64.07.2.05.39.12.57.22Z"/>
            <path id="DejaVuSans-6f-5" data-name="DejaVuSans-6f" d="M183.2,97.25c-.25,0-.45.08-.6.24s-.22.38-.22.66.07.5.22.66c.15.16.34.24.6.24s.45-.08.59-.24c.15-.16.22-.38.22-.66s-.07-.5-.22-.66c-.15-.16-.34-.24-.59-.24ZM183.2,96.93c.41,0,.73.11.96.33.23.22.35.52.35.9s-.12.68-.35.9c-.23.22-.55.33-.96.33s-.73-.11-.96-.33c-.23-.22-.35-.52-.35-.9s.12-.68.35-.9c.23-.22.55-.33.96-.33Z"/>
            <path id="DejaVuSans-6e-5" data-name="DejaVuSans-6e" d="M187.66,97.91v1.41h-.47v-1.4c0-.22-.05-.39-.16-.5-.11-.11-.26-.17-.47-.17-.25,0-.45.07-.6.2-.15.13-.22.31-.22.54v1.32h-.47v-2.34h.47v.36c.11-.14.24-.25.4-.32.15-.07.33-.1.53-.1.33,0,.58.08.74.25.17.17.25.41.25.73Z"/>
            <path id="DejaVuSans-73" d="M190.41,97.05v.36c-.13-.06-.27-.1-.41-.12-.14-.03-.29-.04-.44-.04-.23,0-.41.03-.52.09-.12.06-.17.15-.17.26,0,.09.04.16.12.21s.25.1.5.15l.16.03c.33.06.57.14.71.25s.21.26.21.45c0,.22-.1.39-.31.52-.21.13-.5.19-.86.19-.15,0-.31-.01-.48-.04-.17-.02-.34-.06-.52-.11v-.4c.17.07.34.13.51.17.17.04.33.05.5.05.22,0,.39-.03.51-.09.12-.06.18-.15.18-.26,0-.1-.04-.18-.13-.24-.09-.06-.27-.11-.56-.16l-.16-.03c-.29-.05-.5-.13-.63-.23-.13-.1-.19-.25-.19-.43,0-.22.1-.39.29-.51.19-.12.46-.18.81-.18.17,0,.34.01.49.03.15.02.29.05.42.09Z"/>
            <path id="DejaVuSans-75-3" data-name="DejaVuSans-75" d="M191.26,98.4v-1.42h.47v1.4c0,.22.05.39.16.5.11.11.26.17.47.17.25,0,.45-.07.6-.2.15-.13.22-.31.22-.54v-1.33h.47v2.34h-.47v-.36c-.11.14-.25.25-.4.32-.15.07-.32.1-.52.1-.33,0-.58-.08-.75-.25-.17-.17-.25-.41-.25-.73Z"/>
            <path id="DejaVuSans-6d-2" data-name="DejaVuSans-6d" d="M196.84,97.43c.12-.17.26-.3.42-.38s.35-.12.58-.12c.3,0,.53.09.69.26.16.17.24.41.24.73v1.41h-.47v-1.4c0-.22-.05-.39-.15-.5-.1-.11-.24-.16-.44-.16-.24,0-.44.07-.58.2-.14.13-.21.31-.21.54v1.32h-.47v-1.4c0-.23-.05-.39-.15-.5s-.25-.16-.45-.16c-.24,0-.43.07-.57.2-.14.13-.21.31-.21.54v1.32h-.47v-2.34h.47v.36c.11-.14.24-.25.38-.32s.33-.1.53-.1.38.04.53.13c.15.09.25.21.32.38Z"/>
            <path id="DejaVuSans-70-2" data-name="DejaVuSans-70" d="M200.15,98.97v1.24h-.47v-3.23h.47v.35c.1-.14.22-.24.37-.31.15-.07.33-.1.54-.1.35,0,.63.11.84.34.22.23.33.52.33.89s-.11.66-.33.89c-.22.23-.5.34-.84.34-.21,0-.39-.03-.54-.1-.15-.07-.27-.17-.37-.31ZM201.75,98.16c0-.28-.07-.5-.21-.67s-.34-.24-.58-.24-.44.08-.59.24-.21.38-.21.67.07.5.21.67c.14.16.34.24.59.24s.44-.08.58-.24c.14-.16.21-.38.21-.67Z"/>
            <path id="DejaVuSans-74-2" data-name="DejaVuSans-74" d="M203.48,96.32v.66h.97v.3h-.97v1.27c0,.19.03.31.1.37s.19.08.39.08h.48v.32h-.48c-.36,0-.61-.06-.75-.17-.14-.11-.21-.31-.21-.6v-1.27h-.34v-.3h.34v-.66h.47Z"/>
            <path id="DejaVuSans-69-4" data-name="DejaVuSans-69" d="M205.06,96.98h.47v2.34h-.47v-2.34ZM205.06,96.07h.47v.49h-.47v-.49Z"/>
            <path id="DejaVuSans-6f-6" data-name="DejaVuSans-6f" d="M207.61,97.25c-.25,0-.45.08-.6.24s-.22.38-.22.66.07.5.22.66c.15.16.34.24.6.24s.45-.08.59-.24c.15-.16.22-.38.22-.66s-.07-.5-.22-.66c-.15-.16-.34-.24-.59-.24ZM207.61,96.93c.41,0,.73.11.96.33.23.22.35.52.35.9s-.12.68-.35.9c-.23.22-.55.33-.96.33s-.73-.11-.96-.33c-.23-.22-.35-.52-.35-.9s.12-.68.35-.9c.23-.22.55-.33.96-.33Z"/>
            <path id="DejaVuSans-6e-6" data-name="DejaVuSans-6e" d="M212.07,97.91v1.41h-.47v-1.4c0-.22-.05-.39-.16-.5-.11-.11-.26-.17-.47-.17-.25,0-.45.07-.6.2-.15.13-.22.31-.22.54v1.32h-.47v-2.34h.47v.36c.11-.14.24-.25.4-.32.15-.07.33-.1.53-.1.33,0,.58.08.74.25.17.17.25.41.25.73Z"/>
            <path id="DejaVuSans-62" d="M216.71,98.16c0-.28-.07-.5-.21-.67s-.34-.24-.58-.24-.44.08-.59.24-.21.38-.21.67.07.5.21.67c.14.16.34.24.59.24s.44-.08.58-.24c.14-.16.21-.38.21-.67ZM215.12,97.34c.1-.14.22-.24.37-.31.15-.07.33-.1.54-.1.35,0,.63.11.84.34.22.23.33.52.33.89s-.11.66-.33.89c-.22.23-.5.34-.84.34-.21,0-.39-.03-.54-.1-.15-.07-.27-.17-.37-.31v.35h-.47v-3.25h.47v1.27Z"/>
            <path id="DejaVuSans-79-4" data-name="DejaVuSans-79" d="M219.16,99.54c-.13.28-.26.46-.39.54-.13.09-.29.13-.5.13h-.38v-.32h.28c.13,0,.23-.03.3-.08.07-.05.15-.17.24-.35l.08-.18-1.15-2.3h.5l.89,1.83.89-1.83h.5l-1.25,2.56Z"/>
            <path id="DejaVuSans-52" d="M224.55,97.86c.11.03.22.1.32.2s.21.24.31.41l.52.85h-.55l-.49-.8c-.13-.21-.25-.35-.37-.42s-.28-.1-.48-.1h-.56v1.32h-.51v-3.12h1.16c.43,0,.76.07.97.22.21.15.32.37.32.67,0,.2-.06.36-.17.49-.11.13-.27.22-.49.27ZM223.26,96.55v1.11h.65c.25,0,.44-.05.56-.14s.19-.23.19-.41-.06-.32-.19-.41-.31-.14-.56-.14h-.65Z"/>
            <path id="DejaVuSans-65-6" data-name="DejaVuSans-65" d="M228.55,98.06v.19h-2.16c.02.26.12.47.29.6.17.14.42.21.73.21.18,0,.35-.02.52-.05s.34-.09.5-.16v.36c-.17.06-.34.1-.52.13s-.36.05-.54.05c-.46,0-.82-.11-1.08-.33-.27-.22-.4-.51-.4-.88s.13-.69.38-.91c.25-.23.59-.34,1.02-.34.38,0,.69.1.91.3.22.2.34.48.34.83ZM228.09,97.94c0-.21-.08-.38-.22-.5-.14-.13-.33-.19-.56-.19-.26,0-.47.06-.63.18s-.25.29-.27.51h1.67Z"/>
            <path id="DejaVuSans-67-2" data-name="DejaVuSans-67" d="M231.2,98.13c0-.28-.07-.49-.21-.65-.14-.15-.34-.23-.59-.23s-.45.08-.59.23c-.14.15-.21.37-.21.65s.07.49.21.65c.14.15.34.23.59.23s.45-.08.59-.23c.14-.15.21-.37.21-.65ZM231.67,99.03c0,.4-.11.69-.32.89-.22.19-.55.29-.99.29-.16,0-.32-.01-.47-.03s-.29-.05-.43-.09v-.37c.14.06.27.11.41.14.13.03.27.04.41.04.31,0,.54-.07.69-.2.15-.13.23-.33.23-.6v-.19c-.1.14-.22.24-.37.31s-.33.1-.54.1c-.35,0-.63-.11-.85-.33-.21-.22-.32-.51-.32-.87s.11-.65.32-.87c.21-.22.5-.33.85-.33.21,0,.39.03.54.1s.28.17.37.31v-.35h.47v2.05Z"/>
            <path id="DejaVuSans-69-5" data-name="DejaVuSans-69" d="M232.64,96.98h.47v2.34h-.47v-2.34ZM232.64,96.07h.47v.49h-.47v-.49Z"/>
            <path id="DejaVuSans-6f-7" data-name="DejaVuSans-6f" d="M235.19,97.25c-.25,0-.45.08-.6.24s-.22.38-.22.66.07.5.22.66c.15.16.34.24.6.24s.45-.08.59-.24c.15-.16.22-.38.22-.66s-.07-.5-.22-.66c-.15-.16-.34-.24-.59-.24ZM235.19,96.93c.41,0,.73.11.96.33.23.22.35.52.35.9s-.12.68-.35.9c-.23.22-.55.33-.96.33s-.73-.11-.96-.33c-.23-.22-.35-.52-.35-.9s.12-.68.35-.9c.23-.22.55-.33.96-.33Z"/>
            <path id="DejaVuSans-6e-7" data-name="DejaVuSans-6e" d="M239.65,97.91v1.41h-.47v-1.4c0-.22-.05-.39-.16-.5-.11-.11-.26-.17-.47-.17-.25,0-.45.07-.6.2-.15.13-.22.31-.22.54v1.32h-.47v-2.34h.47v.36c.11-.14.24-.25.4-.32.15-.07.33-.1.53-.1.33,0,.58.08.74.25.17.17.25.41.25.73Z"/>
          </g>
        </g>
      </g>
    </g>
    <text class="cls-8" transform="translate(170.73 334.34)"><tspan x="0" y="0">Chin</tspan><tspan class="cls-12" x="17.32" y="0">a</tspan><tspan class="cls-10" x="21.36" y="0">’</tspan><tspan x="22.57" y="0">s PE </tspan><tspan class="cls-16" x="39.17" y="0">v</tspan><tspan x="43.46" y="0">alue indic</tspan><tspan class="cls-16" x="79.61" y="0">a</tspan><tspan class="cls-14" x="83.91" y="0">t</tspan><tspan x="86.84" y="0">es th</tspan><tspan class="cls-16" x="104.79" y="0">a</tspan><tspan x="109.1" y="0">t its</tspan><tspan x="7.79" y="10.8">ele</tspan><tspan class="cls-25" x="18.93" y="10.8">c</tspan><tspan x="23.08" y="10.8">t</tspan><tspan class="cls-26" x="26.05" y="10.8">r</tspan><tspan x="29.03" y="10.8">ici</tspan><tspan class="cls-28" x="37.28" y="10.8">t</tspan><tspan x="40.34" y="10.8">y gene</tspan><tspan class="cls-15" x="65.53" y="10.8">r</tspan><tspan class="cls-17" x="68.43" y="10.8">a</tspan><tspan x="72.73" y="10.8" xml:space="preserve">tion is  highly</tspan><tspan x="-3.55" y="21.6">ene</tspan><tspan class="cls-22" x="10.47" y="21.6">r</tspan><tspan x="13.34" y="21.6">g</tspan><tspan class="cls-17" x="18.37" y="21.6">y</tspan><tspan x="22.57" y="21.6">-i</tspan><tspan class="cls-16" x="27.44" y="21.6">n</tspan><tspan class="cls-14" x="32.4" y="21.6">t</tspan><tspan x="35.32" y="21.6">ensi</tspan><tspan class="cls-19" x="50.5" y="21.6">v</tspan><tspan class="cls-18" x="54.74" y="21.6">e</tspan><tspan x="59.14" y="21.6">, p</tspan><tspan class="cls-26" x="68.03" y="21.6">r</tspan><tspan x="71.01" y="21.6">ima</tspan><tspan class="cls-26" x="84.96" y="21.6">r</tspan><tspan x="87.94" y="21.6">ily due </tspan><tspan class="cls-13" x="114.77" y="21.6">t</tspan><tspan x="117.69" y="21.6">o</tspan><tspan x="70.82" y="32.4">its </tspan><tspan class="cls-20" x="81.38" y="32.4">r</tspan><tspan x="84.23" y="32.4">elian</tspan><tspan class="cls-14" x="102.3" y="32.4">c</tspan><tspan x="106.28" y="32.4">e on</tspan><tspan class="cls-13" x="31.16" y="43.2">c</tspan><tspan x="35.14" y="43.2">oal-he</tspan><tspan class="cls-22" x="58.8" y="43.2">a</tspan><tspan class="cls-27" x="63.07" y="43.2">v</tspan><tspan x="67.51" y="43.2">y p</tspan><tspan class="cls-21" x="78.78" y="43.2">o</tspan><tspan class="cls-20" x="83.65" y="43.2">w</tspan><tspan x="90.19" y="43.2">er pla</tspan><tspan class="cls-16" x="111.13" y="43.2">n</tspan><tspan x="116.09" y="43.2">ts</tspan></text>
  </g>
</svg>