<?xml version="1.0" encoding="UTF-8"?>
<svg id="Layer_2" data-name="Layer 2" xmlns="http://www.w3.org/2000/svg" xmlns:xlink="http://www.w3.org/1999/xlink" viewBox="0 0 700 263">
  <defs>
    <style>
      .cls-1, .cls-2 {
        fill: none;
      }

      .cls-3 {
        fill: #e37539;
      }

      .cls-4 {
        clip-path: url(#clippath-1);
      }

      .cls-5 {
        clip-path: url(#clippath-3);
      }

      .cls-6 {
        clip-path: url(#clippath-4);
      }

      .cls-7 {
        clip-path: url(#clippath-2);
      }

      .cls-8 {
        font-family: MyriadPro-Regular, 'Myriad Pro';
        font-size: 9px;
      }

      .cls-9 {
        letter-spacing: 0em;
      }

      .cls-10 {
        fill: #fff;
      }

      .cls-11 {
        letter-spacing: 0em;
      }

      .cls-12 {
        letter-spacing: -.01em;
      }

      .cls-13 {
        stroke-linejoin: round;
      }

      .cls-13, .cls-2 {
        stroke: #000;
        stroke-width: .8px;
      }

      .cls-14 {
        letter-spacing: 0em;
      }

      .cls-15 {
        letter-spacing: 0em;
      }

      .cls-16 {
        letter-spacing: 0em;
      }

      .cls-17 {
        letter-spacing: 0em;
      }

      .cls-2 {
        stroke-linecap: square;
      }

      .cls-18 {
        letter-spacing: -.01em;
      }

      .cls-19 {
        letter-spacing: 0em;
      }

      .cls-20 {
        letter-spacing: 0em;
      }

      .cls-21 {
        letter-spacing: 0em;
      }

      .cls-22 {
        letter-spacing: 0em;
      }

      .cls-23 {
        clip-path: url(#clippath);
      }

      .cls-24 {
        letter-spacing: .02em;
      }

      .cls-25 {
        fill: #f1b343;
      }
    </style>
    <clipPath id="clippath">
      <rect class="cls-1" x="105.42" y="25.96" width="354.81" height="208.9"/>
    </clipPath>
    <clipPath id="clippath-1">
      <rect class="cls-1" x="105.42" y="25.96" width="354.81" height="208.9"/>
    </clipPath>
    <clipPath id="clippath-2">
      <rect class="cls-1" x="105.42" y="25.96" width="354.81" height="208.9"/>
    </clipPath>
    <clipPath id="clippath-3">
      <rect class="cls-1" x="105.42" y="25.96" width="354.81" height="208.9"/>
    </clipPath>
    <clipPath id="clippath-4">
      <rect class="cls-1" x="105.42" y="25.96" width="354.81" height="208.9"/>
    </clipPath>
  </defs>
  <g id="ai2html-settings">
    <path class="cls-10" d="M0,0v263h700V0H0ZM72.68,47.03c-6.45,0-6.43-6.19,0-6.19s6.43,6.19,0,6.19ZM270.37,121.2c-6.45,0-6.43-6.19,0-6.19s6.43,6.19,0,6.19ZM305.52,95.38c-6.45,0-6.43-6.19,0-6.19s6.43,6.19,0,6.19ZM470.91,128.91c-6.45,0-6.43-6.19,0-6.19s6.43,6.19,0,6.19Z"/>
    <g id="figure_1" data-name="figure 1">
      <g id="patch_1" data-name="patch 1">
        <path class="cls-10" d="M48.87,259h417.63V10.5H48.87v248.5Z"/>
      </g>
      <g id="axes_1" data-name="axes 1">
        <g id="patch_2" data-name="patch 2">
          <path class="cls-10" d="M105.42,234.86h354.81V25.96H105.42v208.9Z"/>
        </g>
        <g id="patch_3" data-name="patch 3">
          <g class="cls-23">
            <path class="cls-3" d="M105.42,225.37h337.92v-31.65H105.42v31.65Z"/>
          </g>
        </g>
        <g id="patch_4" data-name="patch 4">
          <g class="cls-4">
            <path class="cls-25" d="M105.42,185.8h291.97v-31.65H105.42v31.65Z"/>
          </g>
        </g>
        <g id="patch_5" data-name="patch 5">
          <g class="cls-7">
            <path class="cls-25" d="M105.42,146.24h252.98v-31.65H105.42v31.65Z"/>
          </g>
        </g>
        <g id="patch_6" data-name="patch 6">
          <g class="cls-5">
            <path class="cls-25" d="M105.42,106.67h220.24v-31.65H105.42v31.65Z"/>
          </g>
        </g>
        <g id="patch_7" data-name="patch 7">
          <g class="cls-6">
            <path class="cls-25" d="M105.42,67.11h166.58v-31.65H105.42v31.65Z"/>
          </g>
        </g>
        <g id="matplotlib.axis_1" data-name="matplotlib.axis 1">
          <g id="xtick_1" data-name="xtick 1">
            <g id="line2d_1" data-name="line2d 1">
              <path id="m2ea6c773c6" class="cls-13" d="M105.42,234.86v2.01"/>
            </g>
            <g id="text_1" data-name="text 1">
              <path id="DejaVuSans-30" d="M105.42,239.44c-.29,0-.52.14-.66.43-.15.29-.22.72-.22,1.3s.07,1.01.22,1.29c.15.29.37.43.66.43s.52-.14.67-.43c.15-.29.22-.72.22-1.29s-.07-1.01-.22-1.3c-.15-.29-.37-.43-.67-.43ZM105.42,238.99c.47,0,.84.19,1.09.56.25.37.38.91.38,1.62s-.13,1.24-.38,1.62c-.25.37-.61.56-1.09.56s-.84-.19-1.09-.56c-.25-.37-.38-.91-.38-1.62s.13-1.25.38-1.62c.25-.37.61-.56,1.09-.56Z"/>
            </g>
          </g>
          <g id="xtick_2" data-name="xtick 2">
            <g id="line2d_2" data-name="line2d 2">
              <path id="m2ea6c773c6-2" data-name="m2ea6c773c6" class="cls-13" d="M174,234.86v2.01"/>
            </g>
            <g id="text_2" data-name="text 2">
              <path id="DejaVuSans-32" d="M173.27,242.78h2v.48h-2.68v-.48c.22-.22.51-.52.89-.9.38-.38.61-.62.71-.73.18-.2.31-.38.38-.52.07-.14.11-.28.11-.42,0-.22-.08-.4-.24-.54-.16-.14-.36-.21-.62-.21-.18,0-.37.03-.57.09-.2.06-.41.16-.64.28v-.57c.23-.09.45-.16.65-.21.2-.05.38-.07.55-.07.44,0,.79.11,1.05.33.26.22.39.51.39.87,0,.17-.03.34-.1.49-.06.15-.18.34-.36.55-.05.05-.2.21-.45.47-.25.26-.61.62-1.07,1.09Z"/>
            </g>
          </g>
          <g id="xtick_3" data-name="xtick 3">
            <g id="line2d_3" data-name="line2d 3">
              <path id="m2ea6c773c6-3" data-name="m2ea6c773c6" class="cls-13" d="M242.58,234.86v2.01"/>
            </g>
            <g id="text_3" data-name="text 3">
              <path id="DejaVuSans-34" d="M242.92,239.56l-1.44,2.24h1.44v-2.24ZM242.77,239.07h.72v2.73h.6v.47h-.6v.99h-.57v-.99h-1.91v-.55l1.76-2.66Z"/>
            </g>
          </g>
          <g id="xtick_4" data-name="xtick 4">
            <g id="line2d_4" data-name="line2d 4">
              <path id="m2ea6c773c6-4" data-name="m2ea6c773c6" class="cls-13" d="M311.16,234.86v2.01"/>
            </g>
            <g id="text_4" data-name="text 4">
              <path id="DejaVuSans-36" d="M311.23,240.94c-.26,0-.46.09-.61.26-.15.17-.22.41-.22.72s.07.54.22.72c.15.17.35.26.61.26s.46-.09.61-.26c.15-.18.22-.41.22-.72s-.07-.54-.22-.72c-.15-.17-.35-.26-.61-.26ZM312.36,239.16v.52c-.14-.07-.29-.12-.44-.15-.15-.04-.29-.05-.44-.05-.38,0-.67.13-.87.38-.2.25-.31.63-.34,1.15.11-.16.25-.29.42-.37.17-.09.35-.13.56-.13.42,0,.76.13,1.01.38.25.26.37.6.37,1.04s-.13.78-.39,1.04c-.26.26-.6.39-1.03.39-.49,0-.86-.19-1.12-.56-.26-.37-.39-.91-.39-1.62,0-.66.16-1.19.48-1.59.32-.39.74-.59,1.28-.59.14,0,.29.01.44.04s.3.07.46.13Z"/>
            </g>
          </g>
          <g id="xtick_5" data-name="xtick 5">
            <g id="line2d_5" data-name="line2d 5">
              <path id="m2ea6c773c6-5" data-name="m2ea6c773c6" class="cls-13" d="M379.73,234.86v2.01"/>
            </g>
            <g id="text_5" data-name="text 5">
              <path id="DejaVuSans-38" d="M379.73,241.27c-.27,0-.49.07-.64.22-.16.14-.23.34-.23.6s.08.45.23.6c.16.14.37.22.64.22s.49-.07.64-.22c.16-.15.24-.34.24-.6s-.08-.45-.23-.6c-.16-.14-.37-.22-.64-.22ZM379.16,241.03c-.25-.06-.44-.17-.57-.34-.14-.17-.2-.37-.2-.61,0-.33.12-.6.36-.79.24-.19.57-.29.99-.29s.75.1.99.29.36.46.36.79c0,.24-.07.44-.21.61-.14.17-.33.28-.57.34.28.06.49.19.64.37.15.19.23.41.23.68,0,.41-.13.72-.38.94-.25.22-.61.33-1.07.33s-.82-.11-1.07-.33c-.25-.22-.38-.53-.38-.94,0-.27.08-.49.23-.68.16-.19.37-.31.65-.37ZM378.95,240.13c0,.22.07.39.2.51.14.12.33.18.58.18s.44-.06.58-.18c.14-.12.21-.29.21-.51s-.07-.39-.21-.51c-.14-.12-.33-.18-.58-.18s-.44.06-.58.18c-.14.12-.2.29-.2.51Z"/>
            </g>
          </g>
          <g id="xtick_6" data-name="xtick 6">
            <g id="line2d_6" data-name="line2d 6">
              <path id="m2ea6c773c6-6" data-name="m2ea6c773c6" class="cls-13" d="M448.31,234.86v2.01"/>
            </g>
            <g id="text_6" data-name="text 6">
              <g>
                <path id="DejaVuSans-31" d="M445.34,242.78h.93v-3.2l-1.02.2v-.52l1.01-.2h.57v3.72h.93v.48h-2.44v-.48Z"/>
                <path id="DejaVuSans-30-2" data-name="DejaVuSans-30" d="M450.15,239.44c-.29,0-.52.14-.66.43-.15.29-.22.72-.22,1.3s.07,1.01.22,1.29c.15.29.37.43.66.43s.52-.14.67-.43c.15-.29.22-.72.22-1.29s-.07-1.01-.22-1.3c-.15-.29-.37-.43-.67-.43ZM450.15,238.99c.47,0,.84.19,1.09.56.25.37.38.91.38,1.62s-.13,1.24-.38,1.62c-.25.37-.61.56-1.09.56s-.84-.19-1.09-.56c-.25-.37-.38-.91-.38-1.62s.13-1.25.38-1.62c.25-.37.61-.56,1.09-.56Z"/>
              </g>
            </g>
          </g>
          <g id="text_7" data-name="text 7">
            <g>
              <path id="DejaVuSans-41" d="M239.74,247.49l-.78,2.09h1.56l-.78-2.09ZM239.42,246.93h.65l1.61,4.19h-.59l-.39-1.08h-1.91l-.39,1.08h-.6l1.61-4.19Z"/>
              <path id="DejaVuSans-44" d="M242.87,247.4v3.26h.69c.58,0,1.01-.13,1.28-.39.27-.26.41-.68.41-1.24s-.14-.97-.41-1.23-.7-.39-1.28-.39h-.69ZM242.29,246.93h1.18c.82,0,1.42.17,1.8.51.38.34.58.87.58,1.59s-.19,1.25-.58,1.59c-.38.34-.99.51-1.8.51h-1.18v-4.19Z"/>
              <path id="DejaVuSans-50" d="M247.33,247.4v1.58h.72c.27,0,.47-.07.62-.2.15-.14.22-.33.22-.58s-.07-.44-.22-.58c-.15-.14-.35-.2-.62-.2h-.72ZM246.76,246.93h1.29c.47,0,.83.11,1.07.32.24.21.36.52.36.93s-.12.73-.36.94c-.24.21-.6.32-1.07.32h-.72v1.69h-.57v-4.19Z"/>
              <path id="DejaVuSans-65" d="M252.74,249.43v.25h-2.4c.02.36.13.63.32.81.19.19.46.28.81.28.2,0,.39-.02.58-.07s.37-.12.56-.22v.49c-.19.08-.38.14-.58.18s-.4.06-.6.06c-.51,0-.91-.15-1.2-.44-.3-.29-.44-.69-.44-1.19s.14-.92.42-1.23c.28-.3.66-.45,1.13-.45.43,0,.76.14,1.01.41.25.27.37.64.37,1.11ZM252.22,249.27c0-.28-.08-.51-.24-.68-.16-.17-.36-.25-.62-.25-.29,0-.52.08-.7.24s-.28.39-.3.69h1.86Z"/>
              <path id="DejaVuSans-28" d="M256.69,246.76c-.25.43-.44.86-.56,1.28-.12.42-.18.85-.18,1.28s.06.86.19,1.28.31.85.56,1.28h-.45c-.28-.44-.49-.87-.64-1.3-.14-.42-.21-.85-.21-1.27s.07-.84.21-1.26c.14-.42.35-.86.64-1.3h.45Z"/>
              <path id="DejaVuSans-d7" d="M261.22,248.04l-1.3,1.29,1.3,1.28-.34.34-1.3-1.29-1.3,1.29-.33-.34,1.29-1.28-1.29-1.29.33-.34,1.3,1.29,1.3-1.29.34.34Z"/>
              <path id="DejaVuSans-31-2" data-name="DejaVuSans-31" d="M262.73,250.65h.93v-3.2l-1.02.2v-.52l1.01-.2h.57v3.72h.93v.48h-2.44v-.48Z"/>
              <path id="DejaVuSans-30-3" data-name="DejaVuSans-30" d="M267.55,247.31c-.29,0-.52.14-.66.43-.15.29-.22.72-.22,1.3s.07,1.01.22,1.29c.15.29.37.43.66.43s.52-.14.67-.43c.15-.29.22-.72.22-1.29s-.07-1.01-.22-1.3c-.15-.29-.37-.43-.67-.43ZM267.55,246.86c.47,0,.84.19,1.09.56.25.37.38.91.38,1.62s-.13,1.24-.38,1.62c-.25.37-.61.56-1.09.56s-.84-.19-1.09-.56c-.25-.37-.38-.91-.38-1.62s.13-1.25.38-1.62c.25-.37.61-.56,1.09-.56Z"/>
              <path id="DejaVuSans-5e" d="M272.1,246.93l1.54,1.56h-.57l-1.25-1.11-1.25,1.11h-.57l1.54-1.56h.56Z"/>
              <path id="DejaVuSans-2d" d="M274.54,249.32h1.53v.46h-1.53v-.46Z"/>
              <path id="DejaVuSans-38-2" data-name="DejaVuSans-38" d="M278.19,249.14c-.27,0-.49.07-.64.22-.16.14-.23.34-.23.6s.08.45.23.6c.16.14.37.22.64.22s.49-.07.64-.22c.16-.15.24-.34.24-.6s-.08-.45-.23-.6c-.16-.14-.37-.22-.64-.22ZM277.62,248.9c-.25-.06-.44-.17-.57-.34-.14-.17-.2-.37-.2-.61,0-.33.12-.6.36-.79.24-.19.57-.29.99-.29s.75.1.99.29.36.46.36.79c0,.24-.07.44-.21.61-.14.17-.33.28-.57.34.28.06.49.19.64.37.15.19.23.41.23.68,0,.41-.13.72-.38.94-.25.22-.61.33-1.07.33s-.82-.11-1.07-.33c-.25-.22-.38-.53-.38-.94,0-.27.08-.49.23-.68.16-.19.37-.31.65-.37ZM277.41,248c0,.22.07.39.2.51.14.12.33.18.58.18s.44-.06.58-.18c.14-.12.21-.29.21-.51s-.07-.39-.21-.51c-.14-.12-.33-.18-.58-.18s-.44.06-.58.18c-.14.12-.2.29-.2.51Z"/>
              <path id="DejaVuSans-6b" d="M282.41,246.76h.52v2.58l1.56-1.36h.67l-1.68,1.47,1.75,1.67h-.68l-1.61-1.54v1.54h-.52v-4.37Z"/>
              <path id="DejaVuSans-67" d="M287.87,249.52c0-.37-.08-.66-.23-.87-.16-.21-.37-.31-.66-.31s-.5.1-.65.31c-.16.21-.23.5-.23.87s.08.66.23.87c.16.21.37.31.65.31s.5-.1.66-.31c.16-.21.23-.5.23-.87ZM288.4,250.74c0,.54-.12.93-.36,1.19-.24.26-.61.39-1.1.39-.18,0-.36-.01-.52-.04s-.32-.07-.47-.12v-.5c.15.08.3.14.45.18.15.04.3.06.46.06.34,0,.6-.09.77-.27.17-.18.25-.44.25-.8v-.26c-.11.19-.25.32-.41.42s-.37.14-.6.14c-.39,0-.7-.15-.94-.44-.24-.29-.36-.68-.36-1.17s.12-.88.36-1.17c.24-.29.55-.44.94-.44.23,0,.44.05.6.14s.31.23.41.42v-.48h.52v2.76Z"/>
              <path id="DejaVuSans-53" d="M293.87,247.07v.55c-.22-.1-.42-.18-.61-.23-.19-.05-.38-.08-.56-.08-.31,0-.55.06-.72.18-.17.12-.25.29-.25.51,0,.19.06.33.17.42.11.09.33.17.64.23l.35.07c.43.08.74.22.94.43s.3.47.3.82c0,.41-.14.72-.41.92-.27.21-.68.31-1.21.31-.2,0-.41-.02-.64-.07-.23-.04-.46-.11-.7-.2v-.58c.23.13.46.23.68.29.22.07.44.1.66.1.33,0,.58-.06.76-.19.18-.13.27-.31.27-.55,0-.21-.06-.37-.19-.48s-.34-.2-.63-.26l-.35-.07c-.43-.08-.74-.22-.93-.4-.19-.18-.29-.43-.29-.75,0-.37.13-.66.4-.88.26-.21.63-.32,1.09-.32.2,0,.4.02.61.05.21.04.42.09.63.16Z"/>
              <path id="DejaVuSans-62" d="M297.27,249.56c0-.38-.08-.68-.24-.89s-.37-.32-.65-.32-.49.11-.65.32-.24.51-.24.89.08.68.24.89c.16.22.37.32.65.32s.49-.11.65-.32c.16-.22.24-.51.24-.89ZM295.5,248.46c.11-.19.25-.33.42-.42.17-.09.37-.14.6-.14.39,0,.7.15.94.45.24.3.36.7.36,1.2s-.12.89-.36,1.2c-.24.3-.55.45-.94.45-.23,0-.43-.05-.6-.14-.17-.09-.31-.23-.42-.42v.47h-.52v-4.37h.52v1.7Z"/>
              <path id="DejaVuSans-65-2" data-name="DejaVuSans-65" d="M303.23,249.43v.25h-2.4c.02.36.13.63.32.81.19.19.46.28.81.28.2,0,.39-.02.58-.07s.37-.12.56-.22v.49c-.19.08-.38.14-.58.18s-.4.06-.6.06c-.51,0-.91-.15-1.2-.44-.3-.29-.44-.69-.44-1.19s.14-.92.42-1.23c.28-.3.66-.45,1.13-.45.43,0,.76.14,1.01.41.25.27.37.64.37,1.11ZM302.71,249.27c0-.28-.08-.51-.24-.68-.16-.17-.36-.25-.62-.25-.29,0-.52.08-.7.24s-.28.39-.3.69h1.86Z"/>
              <path id="DejaVuSans-71" d="M304.4,249.56c0,.38.08.68.24.89.16.22.37.32.65.32s.49-.11.65-.32c.16-.22.24-.51.24-.89s-.08-.68-.24-.89c-.16-.22-.38-.32-.65-.32s-.49.11-.65.32-.24.51-.24.89ZM306.18,250.66c-.11.19-.25.33-.42.42-.17.09-.37.14-.6.14-.38,0-.7-.15-.94-.45-.24-.3-.36-.7-.36-1.2s.12-.89.36-1.2c.24-.3.55-.45.94-.45.23,0,.44.05.6.14.17.09.31.23.42.42v-.48h.52v4.34h-.52v-1.67Z"/>
              <path id="DejaVuSans-2f" d="M310.54,246.93h.48l-1.47,4.73h-.48l1.47-4.73Z"/>
              <path id="DejaVuSans-6b-2" data-name="DejaVuSans-6b" d="M313.39,246.76h.52v2.58l1.56-1.36h.67l-1.68,1.47,1.75,1.67h-.68l-1.61-1.54v1.54h-.52v-4.37Z"/>
              <path id="DejaVuSans-57" d="M316.42,246.93h.58l.89,3.54.89-3.54h.64l.89,3.54.89-3.54h.58l-1.06,4.19h-.72l-.89-3.64-.9,3.64h-.72l-1.06-4.19Z"/>
              <path id="DejaVuSans-68" d="M325.14,249.23v1.9h-.52v-1.88c0-.3-.06-.52-.18-.67-.12-.15-.29-.22-.53-.22-.28,0-.5.09-.67.27-.16.18-.24.42-.24.73v1.78h-.52v-4.37h.52v1.71c.13-.19.27-.33.44-.42.17-.09.36-.14.59-.14.36,0,.64.11.83.34.19.22.28.55.28.99Z"/>
              <path id="DejaVuSans-29" d="M326.1,246.76h.45c.28.44.49.87.64,1.3.14.42.21.84.21,1.26s-.07.84-.21,1.27c-.14.42-.35.86-.64,1.3h-.45c.25-.43.44-.86.56-1.28.12-.42.19-.85.19-1.28s-.06-.86-.19-1.28c-.12-.42-.31-.85-.56-1.28Z"/>
            </g>
          </g>
        </g>
        <g id="matplotlib.axis_2" data-name="matplotlib.axis 2">
          <g id="ytick_1" data-name="ytick 1">
            <g id="line2d_7" data-name="line2d 7">
              <path id="mba1110d7f2" class="cls-13" d="M105.42,209.54h-2.03"/>
            </g>
            <g id="text_8" data-name="text 8">
              <g>
                <path id="DejaVuSans-55" d="M89.86,207.53h.58v2.55c0,.45.08.77.25.97.16.2.43.3.8.3s.63-.1.8-.3c.16-.2.25-.52.25-.97v-2.55h.57v2.62c0,.55-.14.96-.41,1.24-.27.28-.67.42-1.21.42s-.94-.14-1.21-.42c-.27-.28-.41-.69-.41-1.24v-2.62Z"/>
                <path id="DejaVuSans-53-2" data-name="DejaVuSans-53" d="M96.71,207.67v.55c-.22-.1-.42-.18-.61-.23-.19-.05-.38-.08-.56-.08-.31,0-.55.06-.72.18-.17.12-.25.29-.25.51,0,.19.06.33.17.42.11.09.33.17.64.23l.35.07c.43.08.74.22.94.43s.3.47.3.82c0,.41-.14.72-.41.92-.27.21-.68.31-1.21.31-.2,0-.41-.02-.64-.07-.23-.04-.46-.11-.7-.2v-.58c.23.13.46.23.68.29.22.07.44.1.66.1.33,0,.58-.06.76-.19.18-.13.27-.31.27-.55,0-.21-.06-.37-.19-.48s-.34-.2-.63-.26l-.35-.07c-.43-.08-.74-.22-.93-.4-.19-.18-.29-.43-.29-.75,0-.37.13-.66.4-.88.26-.21.63-.32,1.09-.32.2,0,.4.02.61.05.21.04.42.09.63.16Z"/>
                <path id="DejaVuSans-41-2" data-name="DejaVuSans-41" d="M99.38,208.09l-.78,2.09h1.56l-.78-2.09ZM99.05,207.53h.65l1.61,4.19h-.59l-.39-1.08h-1.91l-.39,1.08h-.6l1.61-4.19Z"/>
              </g>
            </g>
          </g>
          <g id="ytick_2" data-name="ytick 2">
            <g id="line2d_8" data-name="line2d 8">
              <path id="mba1110d7f2-2" data-name="mba1110d7f2" class="cls-13" d="M105.42,169.98h-2.03"/>
            </g>
            <g id="text_9" data-name="text 9">
              <g>
                <path id="DejaVuSans-43" d="M88.53,168.29v.6c-.19-.18-.4-.31-.62-.4-.22-.09-.45-.13-.7-.13-.48,0-.85.15-1.11.44s-.39.72-.39,1.27.13.98.39,1.27.63.44,1.11.44c.25,0,.48-.04.7-.13s.42-.22.62-.4v.59c-.2.13-.41.24-.64.3-.22.07-.46.1-.71.1-.64,0-1.14-.19-1.51-.58-.37-.39-.55-.92-.55-1.59s.18-1.21.55-1.59c.37-.39.87-.58,1.51-.58.25,0,.49.03.71.1.22.07.43.17.63.3Z"/>
                <path id="DejaVuSans-68-2" data-name="DejaVuSans-68" d="M92.03,170.26v1.9h-.52v-1.88c0-.3-.06-.52-.18-.67-.12-.15-.29-.22-.53-.22-.28,0-.5.09-.67.27-.16.18-.24.42-.24.73v1.78h-.52v-4.37h.52v1.71c.13-.19.27-.33.44-.42.17-.09.36-.14.59-.14.36,0,.64.11.83.34.19.22.28.55.28.99Z"/>
                <path id="DejaVuSans-69" d="M93.07,169.02h.52v3.15h-.52v-3.15ZM93.07,167.79h.52v.66h-.52v-.66Z"/>
                <path id="DejaVuSans-6e" d="M97.31,170.26v1.9h-.52v-1.88c0-.3-.06-.52-.18-.67-.12-.15-.29-.22-.53-.22-.28,0-.5.09-.67.27-.16.18-.24.42-.24.73v1.78h-.52v-3.15h.52v.49c.13-.19.27-.33.44-.42.17-.09.36-.14.59-.14.36,0,.64.11.83.34.19.22.28.55.28.99Z"/>
                <path id="DejaVuSans-61" d="M99.8,170.58c-.42,0-.71.05-.88.14s-.24.26-.24.49c0,.18.06.33.18.44.12.11.29.16.5.16.29,0,.52-.1.7-.3s.26-.47.26-.81v-.12h-.52ZM100.84,170.37v1.79h-.52v-.48c-.12.19-.27.33-.44.42-.18.09-.39.14-.65.14-.32,0-.58-.09-.77-.27-.19-.18-.29-.42-.29-.73,0-.35.12-.62.36-.8.24-.18.6-.27,1.07-.27h.73v-.05c0-.24-.08-.42-.24-.55s-.38-.2-.66-.2c-.18,0-.36.02-.53.06-.17.04-.34.11-.49.19v-.48c.19-.07.38-.13.55-.16.18-.04.35-.05.52-.05.46,0,.8.12,1.03.35.23.24.34.59.34,1.07Z"/>
              </g>
            </g>
          </g>
          <g id="ytick_3" data-name="ytick 3">
            <g id="line2d_9" data-name="line2d 9">
              <path id="mba1110d7f2-3" data-name="mba1110d7f2" class="cls-13" d="M105.42,130.41h-2.03"/>
            </g>
            <g id="text_10" data-name="text 10">
              <g>
                <path id="DejaVuSans-57-2" data-name="DejaVuSans-57" d="M71.33,128.4h.58l.89,3.54.89-3.54h.64l.89,3.54.89-3.54h.58l-1.06,4.19h-.72l-.89-3.64-.9,3.64h-.72l-1.06-4.19Z"/>
                <path id="DejaVuSans-6f" d="M78.3,129.81c-.28,0-.5.11-.66.32s-.24.51-.24.89.08.67.24.89c.16.22.38.32.66.32s.5-.11.66-.33c.16-.22.24-.51.24-.89s-.08-.67-.24-.89c-.16-.22-.38-.33-.66-.33ZM78.3,129.38c.45,0,.81.15,1.07.44.26.29.39.7.39,1.21s-.13.92-.39,1.21c-.26.29-.61.44-1.07.44s-.81-.15-1.07-.44c-.26-.29-.39-.7-.39-1.21s.13-.92.39-1.21c.26-.29.61-.44,1.07-.44Z"/>
                <path id="DejaVuSans-72" d="M82.46,129.93c-.06-.03-.12-.06-.19-.07-.07-.02-.14-.02-.23-.02-.29,0-.52.09-.68.28s-.24.46-.24.82v1.66h-.52v-3.15h.52v.49c.11-.19.25-.33.43-.43.18-.09.39-.14.64-.14.04,0,.08,0,.12,0,.04,0,.09.01.14.02v.53Z"/>
                <path id="DejaVuSans-6c" d="M83.01,128.23h.52v4.37h-.52v-4.37Z"/>
                <path id="DejaVuSans-64" d="M86.71,129.93v-1.7h.52v4.37h-.52v-.47c-.11.19-.25.33-.42.42-.17.09-.37.14-.6.14-.38,0-.7-.15-.94-.45-.24-.3-.36-.7-.36-1.2s.12-.89.36-1.2c.24-.3.55-.45.94-.45.23,0,.44.05.6.14.17.09.31.23.42.42ZM84.93,131.03c0,.38.08.68.24.89.16.22.37.32.65.32s.49-.11.65-.32c.16-.22.24-.51.24-.89s-.08-.68-.24-.89c-.16-.22-.38-.32-.65-.32s-.49.11-.65.32-.24.51-.24.89Z"/>
                <path id="DejaVuSans-77" d="M88,129.45h.52l.65,2.45.65-2.45h.61l.65,2.45.65-2.45h.52l-.83,3.15h-.61l-.68-2.58-.69,2.58h-.62l-.83-3.15Z"/>
                <path id="DejaVuSans-69-2" data-name="DejaVuSans-69" d="M93.04,129.45h.52v3.15h-.52v-3.15ZM93.04,128.23h.52v.66h-.52v-.66Z"/>
                <path id="DejaVuSans-64-2" data-name="DejaVuSans-64" d="M96.74,129.93v-1.7h.52v4.37h-.52v-.47c-.11.19-.25.33-.42.42-.17.09-.37.14-.6.14-.38,0-.7-.15-.94-.45-.24-.3-.36-.7-.36-1.2s.12-.89.36-1.2c.24-.3.55-.45.94-.45.23,0,.44.05.6.14.17.09.31.23.42.42ZM94.97,131.03c0,.38.08.68.24.89.16.22.37.32.65.32s.49-.11.65-.32c.16-.22.24-.51.24-.89s-.08-.68-.24-.89c-.16-.22-.38-.32-.65-.32s-.49.11-.65.32-.24.51-.24.89Z"/>
                <path id="DejaVuSans-65-3" data-name="DejaVuSans-65" d="M101.05,130.89v.25h-2.4c.02.36.13.63.32.81.19.19.46.28.81.28.2,0,.39-.02.58-.07s.37-.12.56-.22v.49c-.19.08-.38.14-.58.18s-.4.06-.6.06c-.51,0-.91-.15-1.2-.44-.3-.29-.44-.69-.44-1.19s.14-.92.42-1.23c.28-.3.66-.45,1.13-.45.43,0,.76.14,1.01.41.25.27.37.64.37,1.11ZM100.53,130.74c0-.28-.08-.51-.24-.68-.16-.17-.36-.25-.62-.25-.29,0-.52.08-.7.24s-.28.39-.3.69h1.86Z"/>
              </g>
            </g>
          </g>
          <g id="ytick_4" data-name="ytick 4">
            <g id="line2d_10" data-name="line2d 10">
              <path id="mba1110d7f2-4" data-name="mba1110d7f2" class="cls-13" d="M105.42,90.85h-2.03"/>
            </g>
            <g id="text_11" data-name="text 11">
              <g>
                <path id="DejaVuSans-45" d="M63.87,88.84h2.67v.48h-2.1v1.24h2.01v.48h-2.01v1.52h2.15v.48h-2.72v-4.19Z"/>
                <path id="DejaVuSans-75" d="M67.46,91.79v-1.9h.52v1.88c0,.3.06.52.17.67.12.15.29.22.53.22.28,0,.5-.09.67-.27.16-.18.25-.42.25-.73v-1.78h.52v3.15h-.52v-.48c-.13.19-.27.33-.44.43-.17.09-.36.14-.58.14-.36,0-.64-.11-.83-.34-.19-.22-.28-.55-.28-.99Z"/>
                <path id="DejaVuSans-72-2" data-name="DejaVuSans-72" d="M73.02,90.37c-.06-.03-.12-.06-.19-.07-.07-.02-.14-.02-.23-.02-.29,0-.52.09-.68.28s-.24.46-.24.82v1.66h-.52v-3.15h.52v.49c.11-.19.25-.33.43-.43.18-.09.39-.14.64-.14.04,0,.08,0,.12,0,.04,0,.09.01.14.02v.53Z"/>
                <path id="DejaVuSans-6f-2" data-name="DejaVuSans-6f" d="M74.67,90.25c-.28,0-.5.11-.66.32s-.24.51-.24.89.08.67.24.89c.16.22.38.32.66.32s.5-.11.66-.33c.16-.22.24-.51.24-.89s-.08-.67-.24-.89c-.16-.22-.38-.33-.66-.33ZM74.67,89.81c.45,0,.81.15,1.07.44.26.29.39.7.39,1.21s-.13.92-.39,1.21c-.26.29-.61.44-1.07.44s-.81-.15-1.07-.44c-.26-.29-.39-.7-.39-1.21s.13-.92.39-1.21c.26-.29.61-.44,1.07-.44Z"/>
                <path id="DejaVuSans-70" d="M77.49,92.56v1.67h-.52v-4.34h.52v.48c.11-.19.25-.33.42-.42.17-.09.37-.14.6-.14.39,0,.7.15.94.45.24.3.36.7.36,1.2s-.12.89-.36,1.2c-.24.3-.55.45-.94.45-.23,0-.43-.05-.6-.14-.17-.09-.31-.23-.42-.42ZM79.27,91.46c0-.38-.08-.68-.24-.89s-.37-.32-.65-.32-.49.11-.65.32-.24.51-.24.89.08.68.24.89c.16.22.37.32.65.32s.49-.11.65-.32c.16-.22.24-.51.24-.89Z"/>
                <path id="DejaVuSans-65-4" data-name="DejaVuSans-65" d="M83.38,91.33v.25h-2.4c.02.36.13.63.32.81.19.19.46.28.81.28.2,0,.39-.02.58-.07s.37-.12.56-.22v.49c-.19.08-.38.14-.58.18s-.4.06-.6.06c-.51,0-.91-.15-1.2-.44-.3-.29-.44-.69-.44-1.19s.14-.92.42-1.23c.28-.3.66-.45,1.13-.45.43,0,.76.14,1.01.41.25.27.37.64.37,1.11ZM82.86,91.18c0-.28-.08-.51-.24-.68-.16-.17-.36-.25-.62-.25-.29,0-.52.08-.7.24s-.28.39-.3.69h1.86Z"/>
                <path id="DejaVuSans-28-2" data-name="DejaVuSans-28" d="M87.33,88.67c-.25.43-.44.86-.56,1.28-.12.42-.18.85-.18,1.28s.06.86.19,1.28.31.85.56,1.28h-.45c-.28-.44-.49-.87-.64-1.3-.14-.42-.21-.85-.21-1.27s.07-.84.21-1.26c.14-.42.35-.86.64-1.3h.45Z"/>
                <path id="DejaVuSans-45-2" data-name="DejaVuSans-45" d="M88.37,88.84h2.67v.48h-2.1v1.24h2.01v.48h-2.01v1.52h2.15v.48h-2.72v-4.19Z"/>
                <path id="DejaVuSans-45-3" data-name="DejaVuSans-45" d="M92.03,88.84h2.67v.48h-2.1v1.24h2.01v.48h-2.01v1.52h2.15v.48h-2.72v-4.19Z"/>
                <path id="DejaVuSans-41-3" data-name="DejaVuSans-41" d="M97.11,89.4l-.78,2.09h1.56l-.78-2.09ZM96.79,88.84h.65l1.61,4.19h-.59l-.39-1.08h-1.91l-.39,1.08h-.6l1.61-4.19Z"/>
                <path id="DejaVuSans-29-2" data-name="DejaVuSans-29" d="M99.56,88.67h.45c.28.44.49.87.64,1.3.14.42.21.84.21,1.26s-.07.84-.21,1.27c-.14.42-.35.86-.64,1.3h-.45c.25-.43.44-.86.56-1.28.12-.42.19-.85.19-1.28s-.06-.86-.19-1.28c-.12-.42-.31-.85-.56-1.28Z"/>
              </g>
            </g>
          </g>
          <g id="ytick_5" data-name="ytick 5">
            <g id="line2d_11" data-name="line2d 11">
              <path id="mba1110d7f2-5" data-name="mba1110d7f2" class="cls-13" d="M105.42,51.28h-2.03"/>
            </g>
            <g id="text_12" data-name="text 12">
              <g>
                <path id="DejaVuSans-46" d="M82.64,49.27h2.43v.48h-1.86v1.24h1.68v.48h-1.68v2h-.57v-4.19Z"/>
                <path id="DejaVuSans-72-3" data-name="DejaVuSans-72" d="M87.37,50.8c-.06-.03-.12-.06-.19-.07-.07-.02-.14-.02-.23-.02-.29,0-.52.09-.68.28s-.24.46-.24.82v1.66h-.52v-3.15h.52v.49c.11-.19.25-.33.43-.43.18-.09.39-.14.64-.14.04,0,.08,0,.12,0,.04,0,.09.01.14.02v.53Z"/>
                <path id="DejaVuSans-61-2" data-name="DejaVuSans-61" d="M89.36,51.89c-.42,0-.71.05-.88.14s-.24.26-.24.49c0,.18.06.33.18.44.12.11.29.16.5.16.29,0,.52-.1.7-.3s.26-.47.26-.81v-.12h-.52ZM90.4,51.67v1.79h-.52v-.48c-.12.19-.27.33-.44.42-.18.09-.39.14-.65.14-.32,0-.58-.09-.77-.27-.19-.18-.29-.42-.29-.73,0-.35.12-.62.36-.8.24-.18.6-.27,1.07-.27h.73v-.05c0-.24-.08-.42-.24-.55s-.38-.2-.66-.2c-.18,0-.36.02-.53.06-.17.04-.34.11-.49.19v-.48c.19-.07.38-.13.55-.16.18-.04.35-.05.52-.05.46,0,.8.12,1.03.35.23.24.34.59.34,1.07Z"/>
                <path id="DejaVuSans-6e-2" data-name="DejaVuSans-6e" d="M94.11,51.57v1.9h-.52v-1.88c0-.3-.06-.52-.18-.67-.12-.15-.29-.22-.53-.22-.28,0-.5.09-.67.27-.16.18-.24.42-.24.73v1.78h-.52v-3.15h.52v.49c.13-.19.27-.33.44-.42.17-.09.36-.14.59-.14.36,0,.64.11.83.34.19.22.28.55.28.99Z"/>
                <path id="DejaVuSans-63" d="M97.43,50.44v.48c-.15-.08-.3-.14-.44-.18s-.3-.06-.45-.06c-.34,0-.6.11-.79.32-.19.21-.28.51-.28.89s.09.68.28.9c.19.21.45.32.79.32.15,0,.3-.02.45-.06s.3-.1.44-.18v.48c-.15.07-.3.12-.45.15-.16.03-.32.05-.5.05-.48,0-.86-.15-1.14-.45-.28-.3-.42-.7-.42-1.21s.14-.92.43-1.21c.28-.29.67-.44,1.17-.44.16,0,.32.02.47.05.15.03.3.08.44.15Z"/>
                <path id="DejaVuSans-65-5" data-name="DejaVuSans-65" d="M101.05,51.76v.25h-2.4c.02.36.13.63.32.81.19.19.46.28.81.28.2,0,.39-.02.58-.07s.37-.12.56-.22v.49c-.19.08-.38.14-.58.18s-.4.06-.6.06c-.51,0-.91-.15-1.2-.44-.3-.29-.44-.69-.44-1.19s.14-.92.42-1.23c.28-.3.66-.45,1.13-.45.43,0,.76.14,1.01.41.25.27.37.64.37,1.11ZM100.53,51.61c0-.28-.08-.51-.24-.68-.16-.17-.36-.25-.62-.25-.29,0-.52.08-.7.24s-.28.39-.3.69h1.86Z"/>
              </g>
            </g>
          </g>
          <g id="text_13" data-name="text 13">
            <g>
              <path id="DejaVuSans-41-4" data-name="DejaVuSans-41" d="M56.11,151.26l2.1.77v-1.54l-2.1.77ZM55.54,151.58v-.64l4.23-1.6v.59l-1.08.38v1.89l1.08.38v.6l-4.23-1.6Z"/>
              <path id="DejaVuSans-72-4" data-name="DejaVuSans-72" d="M57.09,146.93c-.03.06-.06.12-.07.19-.02.07-.02.14-.02.23,0,.29.1.52.29.67s.47.23.83.23h1.67v.52h-3.17v-.52h.49c-.19-.11-.34-.25-.43-.42-.09-.17-.14-.39-.14-.64,0-.04,0-.07,0-.12,0-.04.01-.09.02-.14h.53Z"/>
              <path id="DejaVuSans-65-6" data-name="DejaVuSans-65" d="M58.06,143.82h.25v2.38c.36-.02.63-.13.82-.32.19-.19.28-.46.28-.8,0-.2-.02-.39-.07-.58s-.12-.37-.22-.56h.49c.08.19.14.38.18.57s.06.39.06.59c0,.5-.15.9-.44,1.19-.29.29-.69.44-1.2.44s-.93-.14-1.24-.42c-.31-.28-.46-.65-.46-1.13,0-.42.14-.76.41-1,.27-.25.65-.37,1.12-.37ZM57.9,144.34c-.28,0-.51.08-.68.24-.17.15-.26.36-.26.61,0,.29.08.52.25.69s.4.27.69.3v-1.84Z"/>
              <path id="DejaVuSans-61-3" data-name="DejaVuSans-61" d="M58.18,141.54c0,.42.05.71.14.87s.26.24.49.24c.18,0,.33-.06.44-.18.11-.12.16-.29.16-.49,0-.29-.1-.52-.31-.69s-.48-.26-.82-.26h-.12v.51ZM57.96,140.51h1.81v.52h-.48c.19.12.33.27.43.44.09.18.14.39.14.65,0,.32-.09.58-.27.77-.18.19-.43.28-.73.28-.36,0-.63-.12-.81-.36-.18-.24-.27-.59-.27-1.06v-.73h-.05c-.24,0-.43.08-.56.23s-.2.38-.2.66c0,.18.02.36.07.53.04.17.11.33.2.49h-.48c-.07-.19-.13-.37-.16-.55-.04-.18-.06-.35-.06-.52,0-.46.12-.8.36-1.02.24-.22.6-.34,1.08-.34Z"/>
              <path id="DejaVuSans-6f-3" data-name="DejaVuSans-6f" d="M56.96,136.4c0,.28.11.5.33.66s.52.24.9.24.68-.08.9-.24c.22-.16.33-.38.33-.66s-.11-.49-.33-.65c-.22-.16-.52-.24-.9-.24s-.67.08-.89.24c-.22.16-.33.38-.33.65ZM56.52,136.4c0-.45.15-.8.44-1.06.29-.26.7-.39,1.22-.39s.93.13,1.22.39c.3.26.44.61.44,1.06s-.15.8-.44,1.06c-.3.26-.7.38-1.22.38s-.93-.13-1.22-.38c-.29-.26-.44-.61-.44-1.06Z"/>
              <path id="DejaVuSans-72-5" data-name="DejaVuSans-72" d="M57.09,132.28c-.03.06-.06.12-.07.19-.02.07-.02.14-.02.23,0,.29.1.52.29.67s.47.23.83.23h1.67v.52h-3.17v-.52h.49c-.19-.11-.34-.25-.43-.42-.09-.17-.14-.39-.14-.64,0-.04,0-.07,0-.12,0-.04.01-.09.02-.14h.53Z"/>
              <path id="DejaVuSans-43-2" data-name="DejaVuSans-43" d="M55.87,126.74h.6c-.18.19-.31.39-.4.61-.09.22-.13.45-.13.69,0,.48.15.85.44,1.1s.72.38,1.28.38.98-.13,1.28-.38.44-.62.44-1.1c0-.24-.04-.47-.13-.69s-.22-.42-.4-.61h.6c.14.2.24.41.31.63.07.22.1.46.1.7,0,.64-.2,1.14-.59,1.5-.39.36-.93.55-1.61.55s-1.22-.18-1.61-.55c-.39-.37-.59-.87-.59-1.5,0-.25.03-.49.1-.71.07-.22.17-.43.3-.63Z"/>
              <path id="DejaVuSans-6f-4" data-name="DejaVuSans-6f" d="M56.96,124.67c0,.28.11.5.33.66s.52.24.9.24.68-.08.9-.24c.22-.16.33-.38.33-.66s-.11-.49-.33-.65c-.22-.16-.52-.24-.9-.24s-.67.08-.89.24c-.22.16-.33.38-.33.65ZM56.52,124.67c0-.45.15-.8.44-1.06.29-.26.7-.39,1.22-.39s.93.13,1.22.39c.3.26.44.61.44,1.06s-.15.8-.44,1.06c-.3.26-.7.38-1.22.38s-.93-.13-1.22-.38c-.29-.26-.44-.61-.44-1.06Z"/>
              <path id="DejaVuSans-75-2" data-name="DejaVuSans-75" d="M58.52,122.42h-1.92v-.52h1.9c.3,0,.53-.06.68-.17.15-.12.22-.29.22-.52,0-.28-.09-.5-.27-.66-.18-.16-.42-.24-.73-.24h-1.8v-.52h3.17v.52h-.49c.19.13.34.27.43.44.09.17.14.36.14.58,0,.36-.11.64-.34.82-.23.19-.56.28-.99.28Z"/>
              <path id="DejaVuSans-6e-3" data-name="DejaVuSans-6e" d="M57.86,116.11h1.92v.52h-1.9c-.3,0-.52.06-.67.17-.15.12-.22.29-.22.52,0,.28.09.5.27.66.18.16.42.24.73.24h1.79v.52h-3.17v-.52h.49c-.19-.12-.33-.27-.43-.44-.09-.17-.14-.36-.14-.58,0-.36.11-.63.34-.82.23-.19.56-.28,1-.28Z"/>
              <path id="DejaVuSans-74" d="M55.7,114.57h.9v-1.06h.41v1.06h1.72c.26,0,.42-.04.5-.11s.11-.21.11-.43v-.53h.44v.53c0,.4-.07.67-.22.83-.15.15-.42.23-.82.23h-1.72v.38h-.41v-.38h-.9v-.52Z"/>
              <path id="DejaVuSans-72-6" data-name="DejaVuSans-72" d="M57.09,111c-.03.06-.06.12-.07.19-.02.07-.02.14-.02.23,0,.29.1.52.29.67s.47.23.83.23h1.67v.52h-3.17v-.52h.49c-.19-.11-.34-.25-.43-.42-.09-.17-.14-.39-.14-.64,0-.04,0-.07,0-.12,0-.04.01-.09.02-.14h.53Z"/>
              <path id="DejaVuSans-79" d="M60.07,109.15c.38.15.62.29.74.43.12.14.17.32.17.56v.41h-.44v-.3c0-.14-.03-.25-.1-.33-.07-.08-.23-.17-.48-.26l-.24-.09-3.12,1.27v-.55l2.48-.98-2.48-.98v-.55l3.47,1.38Z"/>
            </g>
          </g>
        </g>
        <g id="patch_8" data-name="patch 8">
          <path class="cls-2" d="M105.42,234.86V25.96"/>
        </g>
        <g id="patch_9" data-name="patch 9">
          <path class="cls-2" d="M460.24,234.86V25.96"/>
        </g>
        <g id="patch_10" data-name="patch 10">
          <path class="cls-2" d="M105.42,234.86h354.81"/>
        </g>
        <g id="patch_11" data-name="patch 11">
          <path class="cls-2" d="M105.42,25.96h354.81"/>
        </g>
        <g id="text_14" data-name="text 14">
          <g>
            <path id="DejaVuSans-Bold-39" class="cls-10" d="M361.03,211.04v-.78c.17.08.34.14.5.18.16.04.32.06.47.06.33,0,.58-.09.76-.27.18-.18.29-.44.32-.8-.13.09-.26.16-.41.21s-.3.07-.47.07c-.43,0-.78-.12-1.05-.37-.27-.25-.4-.58-.4-.99,0-.45.15-.81.44-1.08s.69-.41,1.19-.41c.55,0,.98.18,1.28.55.3.37.45.89.45,1.56s-.18,1.24-.53,1.63c-.35.4-.84.59-1.45.59-.2,0-.39-.01-.57-.04-.18-.03-.36-.07-.53-.13ZM362.38,209.02c.19,0,.33-.06.43-.18.1-.12.14-.31.14-.55s-.05-.43-.14-.55c-.1-.12-.24-.19-.43-.19s-.33.06-.43.19c-.1.12-.14.31-.14.55s.05.43.14.55c.1.12.24.18.43.18Z"/>
            <path id="DejaVuSans-Bold-2e" class="cls-10" d="M365.08,210.04h1.02v1.09h-1.02v-1.09Z"/>
            <path id="DejaVuSans-Bold-38" class="cls-10" d="M368.71,209.25c-.2,0-.36.06-.47.17-.11.11-.16.27-.16.47s.05.36.16.47c.11.11.27.16.47.16s.36-.05.46-.16c.11-.11.16-.27.16-.47s-.05-.37-.16-.48-.26-.16-.46-.16ZM367.91,208.9c-.26-.08-.45-.2-.58-.35-.13-.16-.19-.36-.19-.6,0-.35.13-.62.4-.81.27-.19.66-.28,1.17-.28s.9.09,1.17.28c.27.18.4.45.4.81,0,.24-.07.44-.2.6-.13.16-.33.28-.58.35.29.08.5.21.65.38.15.18.22.4.22.67,0,.42-.14.73-.42.94-.28.21-.69.32-1.24.32s-.96-.11-1.24-.32c-.28-.21-.42-.53-.42-.94,0-.27.07-.49.22-.67.15-.18.36-.3.65-.38ZM368.17,208.06c0,.17.05.29.14.38s.23.13.4.13.3-.04.39-.13c.09-.09.14-.22.14-.38s-.05-.29-.14-.38c-.09-.09-.22-.13-.39-.13s-.31.04-.4.13-.14.22-.14.38Z"/>
            <path id="DejaVuSans-Bold-36" class="cls-10" d="M372.83,209.06c-.19,0-.33.06-.43.18-.1.12-.14.31-.14.55s.05.43.14.55c.1.12.24.18.43.18s.34-.06.43-.18c.1-.12.14-.31.14-.55s-.05-.43-.14-.55c-.1-.12-.24-.18-.43-.18ZM374.17,207.04v.78c-.18-.08-.35-.15-.51-.19-.16-.04-.31-.06-.46-.06-.32,0-.58.09-.76.27-.18.18-.29.44-.32.8.12-.09.26-.16.4-.21.15-.05.3-.07.48-.07.43,0,.78.13,1.05.38.27.25.4.58.4.99,0,.45-.15.81-.44,1.08-.3.27-.69.41-1.19.41-.55,0-.97-.18-1.28-.55-.3-.37-.45-.89-.45-1.57s.18-1.24.53-1.63c.35-.4.84-.59,1.45-.59.19,0,.38.01.57.04s.36.07.54.13Z"/>
          </g>
        </g>
        <g id="text_15" data-name="text 15">
          <g>
            <path id="DejaVuSans-Bold-38-2" data-name="DejaVuSans-Bold-38" class="cls-10" d="M316.52,169.69c-.2,0-.36.06-.47.17-.11.11-.16.27-.16.47s.05.36.16.47c.11.11.27.16.47.16s.36-.05.46-.16c.11-.11.16-.27.16-.47s-.05-.37-.16-.48-.26-.16-.46-.16ZM315.73,169.33c-.26-.08-.45-.2-.58-.35-.13-.16-.19-.36-.19-.6,0-.35.13-.62.4-.81.27-.19.66-.28,1.17-.28s.9.09,1.17.28c.27.18.4.45.4.81,0,.24-.07.44-.2.6-.13.16-.33.28-.58.35.29.08.5.21.65.38.15.18.22.4.22.67,0,.42-.14.73-.42.94-.28.21-.69.32-1.24.32s-.96-.11-1.24-.32c-.28-.21-.42-.53-.42-.94,0-.27.07-.49.22-.67.15-.18.36-.3.65-.38ZM315.98,168.49c0,.17.05.29.14.38s.23.13.4.13.3-.04.39-.13c.09-.09.14-.22.14-.38s-.05-.29-.14-.38c-.09-.09-.22-.13-.39-.13s-.31.04-.4.13-.14.22-.14.38Z"/>
            <path id="DejaVuSans-Bold-2e-2" data-name="DejaVuSans-Bold-2e" class="cls-10" d="M319.13,170.48h1.02v1.09h-1.02v-1.09Z"/>
            <path id="DejaVuSans-Bold-35" class="cls-10" d="M321.36,167.37h2.71v.8h-1.84v.65c.08-.02.17-.04.25-.05.08-.01.17-.02.26-.02.52,0,.92.13,1.2.38s.43.61.43,1.07-.16.81-.47,1.07c-.31.26-.75.38-1.3.38-.24,0-.48-.02-.71-.07-.24-.05-.47-.12-.7-.21v-.85c.23.13.45.23.66.3.21.07.4.1.59.1.26,0,.47-.06.62-.19.15-.13.23-.3.23-.52s-.08-.4-.23-.52c-.15-.13-.36-.19-.62-.19-.16,0-.32.02-.5.06-.18.04-.37.1-.57.19v-2.36Z"/>
            <path id="DejaVuSans-Bold-32" class="cls-10" d="M326.45,170.77h1.86v.79h-3.07v-.79l1.54-1.35c.14-.12.24-.24.31-.36s.1-.24.1-.37c0-.2-.07-.35-.2-.47s-.31-.18-.53-.18c-.17,0-.36.04-.56.11-.2.07-.42.18-.65.32v-.92c.25-.08.49-.14.73-.18.24-.04.47-.06.71-.06.51,0,.9.11,1.18.33.28.22.42.53.42.92,0,.23-.06.44-.18.64-.12.2-.37.46-.75.79l-.9.79Z"/>
          </g>
        </g>
        <g id="text_16" data-name="text 16">
          <g>
            <path id="DejaVuSans-Bold-37" class="cls-10" d="M275.91,127.8h3.19v.61l-1.65,3.58h-1.06l1.56-3.4h-2.04v-.8Z"/>
            <path id="DejaVuSans-Bold-2e-3" data-name="DejaVuSans-Bold-2e" class="cls-10" d="M280.14,130.91h1.02v1.09h-1.02v-1.09Z"/>
            <path id="DejaVuSans-Bold-33" class="cls-10" d="M284.46,129.74c.29.07.5.2.65.38.15.18.22.41.22.69,0,.42-.16.73-.48.95-.32.22-.79.32-1.4.32-.22,0-.44-.02-.65-.05-.22-.03-.43-.09-.65-.16v-.83c.2.1.41.18.61.23.2.05.4.08.59.08.29,0,.51-.05.66-.15.15-.1.23-.24.23-.43s-.08-.34-.24-.43-.39-.15-.7-.15h-.44v-.7h.46c.27,0,.48-.04.61-.13.13-.09.2-.21.2-.39,0-.16-.07-.28-.2-.37-.13-.09-.31-.13-.55-.13-.18,0-.35.02-.53.06-.18.04-.36.1-.54.17v-.79c.22-.06.43-.1.64-.13s.42-.04.62-.04c.55,0,.96.09,1.23.27.27.18.41.45.41.81,0,.25-.07.45-.2.6-.13.16-.32.27-.58.33Z"/>
            <path id="DejaVuSans-Bold-38-3" data-name="DejaVuSans-Bold-38" class="cls-10" d="M287.81,130.12c-.2,0-.36.06-.47.17-.11.11-.16.27-.16.47s.05.36.16.47c.11.11.27.16.47.16s.36-.05.46-.16c.11-.11.16-.27.16-.47s-.05-.37-.16-.48-.26-.16-.46-.16ZM287.02,129.77c-.26-.08-.45-.2-.58-.35-.13-.16-.19-.36-.19-.6,0-.35.13-.62.4-.81.27-.19.66-.28,1.17-.28s.9.09,1.17.28c.27.18.4.45.4.81,0,.24-.07.44-.2.6-.13.16-.33.28-.58.35.29.08.5.21.65.38.15.18.22.4.22.67,0,.42-.14.73-.42.94-.28.21-.69.32-1.24.32s-.96-.11-1.24-.32c-.28-.21-.42-.53-.42-.94,0-.27.07-.49.22-.67.15-.18.36-.3.65-.38ZM287.27,128.93c0,.17.05.29.14.38s.23.13.4.13.3-.04.39-.13c.09-.09.14-.22.14-.38s-.05-.29-.14-.38c-.09-.09-.22-.13-.39-.13s-.31.04-.4.13-.14.22-.14.38Z"/>
          </g>
        </g>
        <g id="text_17" data-name="text 17">
          <g>
            <path id="DejaVuSans-Bold-36-2" data-name="DejaVuSans-Bold-36" class="cls-10" d="M244.87,90.36c-.19,0-.33.06-.43.18-.1.12-.14.31-.14.55s.05.43.14.55c.1.12.24.18.43.18s.34-.06.43-.18c.1-.12.14-.31.14-.55s-.05-.43-.14-.55c-.1-.12-.24-.18-.43-.18ZM246.22,88.35v.78c-.18-.08-.35-.15-.51-.19-.16-.04-.31-.06-.46-.06-.32,0-.58.09-.76.27-.18.18-.29.44-.32.8.12-.09.26-.16.4-.21.15-.05.3-.07.48-.07.43,0,.78.13,1.05.38.27.25.4.58.4.99,0,.45-.15.81-.44,1.08-.3.27-.69.41-1.19.41-.55,0-.97-.18-1.28-.55-.3-.37-.45-.89-.45-1.57s.18-1.24.53-1.63c.35-.4.84-.59,1.45-.59.19,0,.38.01.57.04s.36.07.54.13Z"/>
            <path id="DejaVuSans-Bold-2e-4" data-name="DejaVuSans-Bold-2e" class="cls-10" d="M247.4,91.35h1.02v1.09h-1.02v-1.09Z"/>
            <path id="DejaVuSans-Bold-34" class="cls-10" d="M251.15,89.13l-1.19,1.76h1.19v-1.76ZM250.96,88.24h1.21v2.65h.6v.78h-.6v.76h-1.03v-.76h-1.87v-.93l1.69-2.5Z"/>
            <path id="DejaVuSans-Bold-32-2" data-name="DejaVuSans-Bold-32" class="cls-10" d="M254.72,91.64h1.86v.79h-3.07v-.79l1.54-1.35c.14-.12.24-.24.31-.36s.1-.24.1-.37c0-.2-.07-.35-.2-.47s-.31-.18-.53-.18c-.17,0-.36.04-.56.11-.2.07-.42.18-.65.32v-.92c.25-.08.49-.14.73-.18.24-.04.47-.06.71-.06.51,0,.9.11,1.18.33.28.22.42.53.42.92,0,.23-.06.44-.18.64-.12.2-.37.46-.75.79l-.9.79Z"/>
          </g>
        </g>
        <g id="text_18" data-name="text 18">
          <g>
            <path id="DejaVuSans-Bold-34-2" data-name="DejaVuSans-Bold-34" class="cls-10" d="M191.24,49.57l-1.19,1.76h1.19v-1.76ZM191.06,48.67h1.21v2.65h.6v.78h-.6v.76h-1.03v-.76h-1.87v-.93l1.69-2.5Z"/>
            <path id="DejaVuSans-Bold-2e-5" data-name="DejaVuSans-Bold-2e" class="cls-10" d="M193.74,51.78h1.02v1.09h-1.02v-1.09Z"/>
            <path id="DejaVuSans-Bold-38-4" data-name="DejaVuSans-Bold-38" class="cls-10" d="M197.37,50.99c-.2,0-.36.06-.47.17-.11.11-.16.27-.16.47s.05.36.16.47c.11.11.27.16.47.16s.36-.05.46-.16c.11-.11.16-.27.16-.47s-.05-.37-.16-.48-.26-.16-.46-.16ZM196.57,50.64c-.26-.08-.45-.2-.58-.35-.13-.16-.19-.36-.19-.6,0-.35.13-.62.4-.81.27-.19.66-.28,1.17-.28s.9.09,1.17.28c.27.18.4.45.4.81,0,.24-.07.44-.2.6-.13.16-.33.28-.58.35.29.08.5.21.65.38.15.18.22.4.22.67,0,.42-.14.73-.42.94-.28.21-.69.32-1.24.32s-.96-.11-1.24-.32c-.28-.21-.42-.53-.42-.94,0-.27.07-.49.22-.67.15-.18.36-.3.65-.38ZM196.83,49.8c0,.17.05.29.14.38s.23.13.4.13.3-.04.39-.13c.09-.09.14-.22.14-.38s-.05-.29-.14-.38c-.09-.09-.22-.13-.39-.13s-.31.04-.4.13-.14.22-.14.38Z"/>
            <path id="DejaVuSans-Bold-36-3" data-name="DejaVuSans-Bold-36" class="cls-10" d="M201.48,50.8c-.19,0-.33.06-.43.18-.1.12-.14.31-.14.55s.05.43.14.55c.1.12.24.18.43.18s.34-.06.43-.18c.1-.12.14-.31.14-.55s-.05-.43-.14-.55c-.1-.12-.24-.18-.43-.18ZM202.83,48.78v.78c-.18-.08-.35-.15-.51-.19-.16-.04-.31-.06-.46-.06-.32,0-.58.09-.76.27-.18.18-.29.44-.32.8.12-.09.26-.16.4-.21.15-.05.3-.07.48-.07.43,0,.78.13,1.05.38.27.25.4.58.4.99,0,.45-.15.81-.44,1.08-.3.27-.69.41-1.19.41-.55,0-.97-.18-1.28-.55-.3-.37-.45-.89-.45-1.57s.18-1.24.53-1.63c.35-.4.84-.59,1.45-.59.19,0,.38.01.57.04s.36.07.54.13Z"/>
          </g>
        </g>
        <g id="text_19" data-name="text 19">
          <g>
            <path id="DejaVuSans-41-5" data-name="DejaVuSans-41" d="M220.62,18.15l-.93,2.5h1.87l-.93-2.5ZM220.23,17.48h.78l1.93,5.03h-.71l-.46-1.29h-2.29l-.46,1.29h-.72l1.94-5.03Z"/>
            <path id="DejaVuSans-62-2" data-name="DejaVuSans-62" d="M226.39,20.62c0-.46-.09-.81-.28-1.07s-.45-.39-.78-.39-.59.13-.78.39-.28.62-.28,1.07.09.81.28,1.07c.19.26.45.39.78.39s.59-.13.78-.39c.19-.26.28-.62.28-1.07ZM224.26,19.31c.13-.22.3-.39.5-.5.2-.11.44-.16.72-.16.46,0,.84.18,1.13.55.29.36.43.84.43,1.44s-.14,1.07-.43,1.44c-.29.36-.66.55-1.13.55-.28,0-.52-.05-.72-.16-.2-.11-.37-.28-.5-.5v.57h-.63v-5.25h.63v2.04Z"/>
            <path id="DejaVuSans-69-3" data-name="DejaVuSans-69" d="M228.08,18.73h.63v3.78h-.63v-3.78ZM228.08,17.26h.63v.79h-.63v-.79Z"/>
            <path id="DejaVuSans-6f-5" data-name="DejaVuSans-6f" d="M231.48,19.17c-.33,0-.6.13-.8.39s-.29.62-.29,1.07.1.81.29,1.07c.19.26.46.39.8.39s.6-.13.79-.39c.2-.26.29-.62.29-1.07s-.1-.8-.29-1.06c-.19-.26-.46-.39-.79-.39ZM231.48,18.64c.54,0,.97.18,1.28.53.31.35.47.84.47,1.45s-.16,1.1-.47,1.45c-.31.35-.74.53-1.28.53s-.97-.18-1.28-.53c-.31-.35-.46-.84-.46-1.45s.15-1.1.46-1.45c.31-.35.74-.53,1.28-.53Z"/>
            <path id="DejaVuSans-74-2" data-name="DejaVuSans-74" d="M234.89,17.66v1.07h1.29v.48h-1.29v2.05c0,.31.04.51.13.59s.26.13.52.13h.64v.52h-.64c-.48,0-.82-.09-1-.27-.18-.18-.28-.5-.28-.98v-2.05h-.46v-.48h.46v-1.07h.63Z"/>
            <path id="DejaVuSans-69-4" data-name="DejaVuSans-69" d="M237,18.73h.63v3.78h-.63v-3.78ZM237,17.26h.63v.79h-.63v-.79Z"/>
            <path id="DejaVuSans-63-2" data-name="DejaVuSans-63" d="M241.67,18.88v.58c-.18-.1-.35-.17-.53-.22s-.36-.07-.54-.07c-.41,0-.72.13-.95.38-.22.25-.34.61-.34,1.07s.11.82.34,1.07c.22.25.54.38.95.38.18,0,.36-.02.54-.07s.35-.12.53-.22v.57c-.17.08-.36.14-.54.18-.19.04-.38.06-.6.06-.57,0-1.03-.18-1.37-.54-.34-.36-.51-.84-.51-1.45s.17-1.1.51-1.45c.34-.35.81-.53,1.4-.53.19,0,.38.02.56.06.18.04.36.1.53.18Z"/>
            <path id="DejaVuSans-44-2" data-name="DejaVuSans-44" d="M245.68,18.04v3.91h.83c.7,0,1.21-.16,1.54-.47.32-.31.49-.81.49-1.49s-.16-1.17-.49-1.48-.84-.47-1.54-.47h-.83ZM245,17.48h1.41c.98,0,1.7.2,2.16.61.46.41.69,1.04.69,1.9s-.23,1.51-.69,1.91c-.46.41-1.18.61-2.16.61h-1.41v-5.03Z"/>
            <path id="DejaVuSans-65-7" data-name="DejaVuSans-65" d="M253.59,20.47v.3h-2.88c.03.43.16.75.39.98.23.22.56.34.97.34.24,0,.47-.03.7-.09s.45-.15.67-.26v.59c-.22.09-.45.17-.69.22s-.47.07-.72.07c-.61,0-1.09-.18-1.44-.53-.35-.35-.53-.83-.53-1.42s.17-1.11.5-1.47c.34-.36.79-.54,1.36-.54.51,0,.92.16,1.21.49.3.33.45.77.45,1.33ZM252.96,20.28c0-.34-.1-.61-.29-.81-.19-.2-.43-.3-.74-.3-.35,0-.63.1-.84.29s-.33.47-.36.83h2.23Z"/>
            <path id="DejaVuSans-70-2" data-name="DejaVuSans-70" d="M255.22,21.94v2h-.63v-5.21h.63v.57c.13-.22.3-.39.5-.5.2-.11.44-.16.72-.16.46,0,.84.18,1.13.55.29.36.43.84.43,1.44s-.14,1.07-.43,1.44c-.29.36-.66.55-1.13.55-.28,0-.52-.05-.72-.16-.2-.11-.37-.28-.5-.5ZM257.35,20.62c0-.46-.09-.81-.28-1.07s-.45-.39-.78-.39-.59.13-.78.39-.28.62-.28,1.07.09.81.28,1.07c.19.26.45.39.78.39s.59-.13.78-.39c.19-.26.28-.62.28-1.07Z"/>
            <path id="DejaVuSans-6c-2" data-name="DejaVuSans-6c" d="M259.03,17.26h.63v5.25h-.63v-5.25Z"/>
            <path id="DejaVuSans-65-8" data-name="DejaVuSans-65" d="M264.22,20.47v.3h-2.88c.03.43.16.75.39.98.23.22.56.34.97.34.24,0,.47-.03.7-.09s.45-.15.67-.26v.59c-.22.09-.45.17-.69.22s-.47.07-.72.07c-.61,0-1.09-.18-1.44-.53-.35-.35-.53-.83-.53-1.42s.17-1.11.5-1.47c.34-.36.79-.54,1.36-.54.51,0,.92.16,1.21.49.3.33.45.77.45,1.33ZM263.6,20.28c0-.34-.1-.61-.29-.81-.19-.2-.43-.3-.74-.3-.35,0-.63.1-.84.29s-.33.47-.36.83h2.23Z"/>
            <path id="DejaVuSans-74-3" data-name="DejaVuSans-74" d="M265.87,17.66v1.07h1.29v.48h-1.29v2.05c0,.31.04.51.13.59s.26.13.52.13h.64v.52h-.64c-.48,0-.82-.09-1-.27-.18-.18-.28-.5-.28-.98v-2.05h-.46v-.48h.46v-1.07h.63Z"/>
            <path id="DejaVuSans-69-5" data-name="DejaVuSans-69" d="M267.98,18.73h.63v3.78h-.63v-3.78ZM267.98,17.26h.63v.79h-.63v-.79Z"/>
            <path id="DejaVuSans-6f-6" data-name="DejaVuSans-6f" d="M271.38,19.17c-.33,0-.6.13-.8.39s-.29.62-.29,1.07.1.81.29,1.07c.19.26.46.39.8.39s.6-.13.79-.39c.2-.26.29-.62.29-1.07s-.1-.8-.29-1.06c-.19-.26-.46-.39-.79-.39ZM271.38,18.64c.54,0,.97.18,1.28.53.31.35.47.84.47,1.45s-.16,1.1-.47,1.45c-.31.35-.74.53-1.28.53s-.97-.18-1.28-.53c-.31-.35-.46-.84-.46-1.45s.15-1.1.46-1.45c.31-.35.74-.53,1.28-.53Z"/>
            <path id="DejaVuSans-6e-4" data-name="DejaVuSans-6e" d="M277.33,20.23v2.28h-.63v-2.26c0-.36-.07-.62-.21-.8-.14-.18-.35-.27-.63-.27-.34,0-.6.11-.8.32-.2.21-.29.5-.29.87v2.13h-.63v-3.78h.63v.59c.15-.23.33-.4.53-.51.2-.11.44-.17.7-.17.44,0,.77.13.99.4.22.27.34.66.34,1.18Z"/>
            <path id="DejaVuSans-50-2" data-name="DejaVuSans-50" d="M281.51,18.04v1.89h.86c.32,0,.57-.08.74-.25.17-.16.26-.4.26-.7s-.09-.53-.26-.7c-.17-.16-.42-.25-.74-.25h-.86ZM280.82,17.48h1.55c.57,0,1,.13,1.29.38.29.26.44.63.44,1.12s-.15.87-.44,1.13c-.29.25-.72.38-1.29.38h-.86v2.02h-.69v-5.03Z"/>
            <path id="DejaVuSans-6f-7" data-name="DejaVuSans-6f" d="M286.21,19.17c-.33,0-.6.13-.8.39s-.29.62-.29,1.07.1.81.29,1.07c.19.26.46.39.8.39s.6-.13.79-.39c.2-.26.29-.62.29-1.07s-.1-.8-.29-1.06c-.19-.26-.46-.39-.79-.39ZM286.21,18.64c.54,0,.97.18,1.28.53.31.35.47.84.47,1.45s-.16,1.1-.47,1.45c-.31.35-.74.53-1.28.53s-.97-.18-1.28-.53c-.31-.35-.46-.84-.46-1.45s.15-1.1.46-1.45c.31-.35.74-.53,1.28-.53Z"/>
            <path id="DejaVuSans-74-4" data-name="DejaVuSans-74" d="M289.61,17.66v1.07h1.29v.48h-1.29v2.05c0,.31.04.51.13.59s.26.13.52.13h.64v.52h-.64c-.48,0-.82-.09-1-.27-.18-.18-.28-.5-.28-.98v-2.05h-.46v-.48h.46v-1.07h.63Z"/>
            <path id="DejaVuSans-65-9" data-name="DejaVuSans-65" d="M294.98,20.47v.3h-2.88c.03.43.16.75.39.98.23.22.56.34.97.34.24,0,.47-.03.7-.09s.45-.15.67-.26v.59c-.22.09-.45.17-.69.22s-.47.07-.72.07c-.61,0-1.09-.18-1.44-.53-.35-.35-.53-.83-.53-1.42s.17-1.11.5-1.47c.34-.36.79-.54,1.36-.54.51,0,.92.16,1.21.49.3.33.45.77.45,1.33ZM294.36,20.28c0-.34-.1-.61-.29-.81-.19-.2-.43-.3-.74-.3-.35,0-.63.1-.84.29s-.33.47-.36.83h2.23Z"/>
            <path id="DejaVuSans-6e-5" data-name="DejaVuSans-6e" d="M299.17,20.23v2.28h-.63v-2.26c0-.36-.07-.62-.21-.8-.14-.18-.35-.27-.63-.27-.34,0-.6.11-.8.32-.2.21-.29.5-.29.87v2.13h-.63v-3.78h.63v.59c.15-.23.33-.4.53-.51.2-.11.44-.17.7-.17.44,0,.77.13.99.4.22.27.34.66.34,1.18Z"/>
            <path id="DejaVuSans-74-5" data-name="DejaVuSans-74" d="M301.04,17.66v1.07h1.29v.48h-1.29v2.05c0,.31.04.51.13.59s.26.13.52.13h.64v.52h-.64c-.48,0-.82-.09-1-.27-.18-.18-.28-.5-.28-.98v-2.05h-.46v-.48h.46v-1.07h.63Z"/>
            <path id="DejaVuSans-69-6" data-name="DejaVuSans-69" d="M303.15,18.73h.63v3.78h-.63v-3.78ZM303.15,17.26h.63v.79h-.63v-.79Z"/>
            <path id="DejaVuSans-61-4" data-name="DejaVuSans-61" d="M306.81,20.61c-.51,0-.86.06-1.05.17s-.29.31-.29.59c0,.22.07.39.22.52.15.13.35.19.6.19.35,0,.63-.12.84-.37s.31-.57.31-.97v-.14h-.62ZM308.06,20.35v2.15h-.63v-.57c-.14.23-.32.4-.53.51-.21.11-.47.16-.78.16-.39,0-.7-.11-.93-.33-.23-.22-.34-.51-.34-.87,0-.42.14-.74.43-.96.29-.22.71-.32,1.28-.32h.88v-.06c0-.29-.09-.51-.28-.66s-.45-.23-.8-.23c-.22,0-.43.03-.64.08-.21.05-.4.13-.59.23v-.57c.23-.09.45-.15.67-.2.22-.04.42-.07.63-.07.55,0,.96.14,1.23.42.27.28.41.71.41,1.29Z"/>
            <path id="DejaVuSans-6c-3" data-name="DejaVuSans-6c" d="M309.35,17.26h.63v5.25h-.63v-5.25Z"/>
            <path id="DejaVuSans-62-3" data-name="DejaVuSans-62" d="M316.23,20.62c0-.46-.09-.81-.28-1.07s-.45-.39-.78-.39-.59.13-.78.39-.28.62-.28,1.07.09.81.28,1.07c.19.26.45.39.78.39s.59-.13.78-.39c.19-.26.28-.62.28-1.07ZM314.1,19.31c.13-.22.3-.39.5-.5.2-.11.44-.16.72-.16.46,0,.84.18,1.13.55.29.36.43.84.43,1.44s-.14,1.07-.43,1.44c-.29.36-.66.55-1.13.55-.28,0-.52-.05-.72-.16-.2-.11-.37-.28-.5-.5v.57h-.63v-5.25h.63v2.04Z"/>
            <path id="DejaVuSans-79-2" data-name="DejaVuSans-79" d="M319.5,22.86c-.18.45-.35.74-.52.88-.17.14-.39.21-.67.21h-.5v-.52h.37c.17,0,.31-.04.4-.12.1-.08.2-.27.32-.57l.11-.28-1.54-3.71h.66l1.19,2.95,1.19-2.95h.66l-1.67,4.13Z"/>
            <path id="DejaVuSans-52" d="M326.68,20.15c.15.05.29.16.43.32s.28.38.42.67l.7,1.38h-.74l-.65-1.29c-.17-.34-.33-.56-.49-.67s-.37-.17-.64-.17h-.75v2.13h-.69v-5.03h1.55c.58,0,1.01.12,1.3.36.29.24.43.6.43,1.09,0,.32-.07.58-.22.79-.15.21-.36.35-.65.43ZM324.96,18.04v1.79h.86c.33,0,.58-.08.75-.23s.25-.37.25-.67-.08-.52-.25-.67-.42-.22-.75-.22h-.86Z"/>
            <path id="DejaVuSans-65-10" data-name="DejaVuSans-65" d="M332.02,20.47v.3h-2.88c.03.43.16.75.39.98.23.22.56.34.97.34.24,0,.47-.03.7-.09s.45-.15.67-.26v.59c-.22.09-.45.17-.69.22s-.47.07-.72.07c-.61,0-1.09-.18-1.44-.53-.35-.35-.53-.83-.53-1.42s.17-1.11.5-1.47c.34-.36.79-.54,1.36-.54.51,0,.92.16,1.21.49.3.33.45.77.45,1.33ZM331.4,20.28c0-.34-.1-.61-.29-.81-.19-.2-.43-.3-.74-.3-.35,0-.63.1-.84.29s-.33.47-.36.83h2.23Z"/>
            <path id="DejaVuSans-67-2" data-name="DejaVuSans-67" d="M335.55,20.58c0-.45-.09-.8-.28-1.04-.19-.25-.45-.37-.79-.37s-.6.12-.78.37c-.19.25-.28.59-.28,1.04s.09.79.28,1.04c.19.25.45.37.78.37s.6-.12.79-.37c.19-.25.28-.59.28-1.04ZM336.18,22.04c0,.64-.14,1.12-.43,1.43-.29.31-.73.47-1.32.47-.22,0-.43-.02-.62-.05s-.38-.08-.57-.15v-.6c.18.1.36.17.54.22.18.05.36.07.55.07.41,0,.72-.11.92-.32.2-.21.31-.53.31-.96v-.31c-.13.22-.29.39-.5.5s-.44.17-.72.17c-.47,0-.84-.18-1.13-.53-.29-.35-.43-.82-.43-1.4s.14-1.05.43-1.4c.29-.35.66-.53,1.13-.53.28,0,.52.06.72.17s.37.28.5.5v-.57h.63v3.31Z"/>
            <path id="DejaVuSans-69-7" data-name="DejaVuSans-69" d="M337.47,18.73h.63v3.78h-.63v-3.78ZM337.47,17.26h.63v.79h-.63v-.79Z"/>
            <path id="DejaVuSans-6f-8" data-name="DejaVuSans-6f" d="M340.88,19.17c-.33,0-.6.13-.8.39s-.29.62-.29,1.07.1.81.29,1.07c.19.26.46.39.8.39s.6-.13.79-.39c.2-.26.29-.62.29-1.07s-.1-.8-.29-1.06c-.19-.26-.46-.39-.79-.39ZM340.88,18.64c.54,0,.97.18,1.28.53.31.35.47.84.47,1.45s-.16,1.1-.47,1.45c-.31.35-.74.53-1.28.53s-.97-.18-1.28-.53c-.31-.35-.46-.84-.46-1.45s.15-1.1.46-1.45c.31-.35.74-.53,1.28-.53Z"/>
            <path id="DejaVuSans-6e-6" data-name="DejaVuSans-6e" d="M346.82,20.23v2.28h-.63v-2.26c0-.36-.07-.62-.21-.8-.14-.18-.35-.27-.63-.27-.34,0-.6.11-.8.32-.2.21-.29.5-.29.87v2.13h-.63v-3.78h.63v.59c.15-.23.33-.4.53-.51.2-.11.44-.17.7-.17.44,0,.77.13.99.4.22.27.34.66.34,1.18Z"/>
          </g>
        </g>
      </g>
    </g>
    <text class="cls-8" transform="translate(475.56 193.14)"><tspan class="cls-20" x="0" y="0">T</tspan><tspan class="cls-9" x="4.41" y="0">he USA </tspan><tspan class="cls-19" x="33.5" y="0">r</tspan><tspan x="36.35" y="0">elies he</tspan><tspan class="cls-22" x="64.57" y="0">a</tspan><tspan x="68.84" y="0">vily on non-</tspan><tspan class="cls-19" x="113.08" y="0">r</tspan><tspan class="cls-11" x="115.94" y="0">ene</tspan><tspan class="cls-17" x="129.95" y="0">w</tspan><tspan x="136.54" y="0">able</tspan><tspan x="23.35" y="10.8">ene</tspan><tspan class="cls-21" x="37.36" y="10.8">r</tspan><tspan class="cls-15" x="40.23" y="10.8">g</tspan><tspan x="45.21" y="10.8">ies like </tspan><tspan class="cls-12" x="72.16" y="10.8">f</tspan><tspan x="74.67" y="10.8" xml:space="preserve">ossil fuels -  meaning</tspan><tspan x="4.46" y="21.6">mo</tspan><tspan class="cls-19" x="16.9" y="21.6">r</tspan><tspan class="cls-11" x="19.75" y="21.6">e depletion of n</tspan><tspan class="cls-17" x="78.91" y="21.6">a</tspan><tspan x="83.21" y="21.6">tu</tspan><tspan class="cls-16" x="91.15" y="21.6">r</tspan><tspan x="94.05" y="21.6">al </tspan><tspan class="cls-19" x="102.42" y="21.6">r</tspan><tspan class="cls-11" x="105.27" y="21.6">esou</tspan><tspan class="cls-19" x="123.24" y="21.6">r</tspan><tspan class="cls-14" x="126.1" y="21.6">c</tspan><tspan x="130.08" y="21.6">es per</tspan><tspan class="cls-24" x="24.01" y="32.4">k</tspan><tspan x="28.39" y="32.4">il</tspan><tspan class="cls-20" x="32.62" y="32.4">o</tspan><tspan class="cls-17" x="37.49" y="32.4">wa</tspan><tspan x="48.38" y="32.4">t</tspan><tspan class="cls-16" x="51.36" y="32.4">t</tspan><tspan class="cls-11" x="54.3" y="32.4">-hour of ene</tspan><tspan class="cls-22" x="100.29" y="32.4">r</tspan><tspan class="cls-11" x="103.17" y="32.4">gy p</tspan><tspan class="cls-19" x="119.46" y="32.4">r</tspan><tspan x="122.32" y="32.4">odu</tspan><tspan class="cls-15" x="137.29" y="32.4">c</tspan><tspan x="141.27" y="32.4">e</tspan><tspan class="cls-18" x="145.78" y="32.4">d</tspan><tspan class="cls-9" x="150.77" y="32.4">.</tspan></text>
  </g>
</svg>