<?xml version="1.0" encoding="UTF-8"?>
<svg id="Layer_2" data-name="Layer 2" xmlns="http://www.w3.org/2000/svg" xmlns:xlink="http://www.w3.org/1999/xlink" viewBox="0 0 375 470">
  <defs>
    <style>
      .cls-1, .cls-2 {
        fill: none;
      }

      .cls-3 {
        fill: #e37539;
      }

      .cls-4 {
        letter-spacing: 0em;
      }

      .cls-5 {
        font-family: MyriadPro-Regular, 'Myriad Pro';
        font-size: 6px;
      }

      .cls-6 {
        clip-path: url(#clippath-1);
      }

      .cls-7 {
        clip-path: url(#clippath-3);
      }

      .cls-8 {
        clip-path: url(#clippath-4);
      }

      .cls-9 {
        clip-path: url(#clippath-2);
      }

      .cls-10 {
        fill: #fff;
      }

      .cls-11 {
        letter-spacing: 0em;
      }

      .cls-12 {
        fill: #f1b143;
      }

      .cls-13 {
        letter-spacing: -.01em;
      }

      .cls-14 {
        stroke-linejoin: round;
      }

      .cls-14, .cls-2 {
        stroke: #000;
        stroke-width: .8px;
      }

      .cls-15 {
        letter-spacing: 0em;
      }

      .cls-16 {
        letter-spacing: 0em;
      }

      .cls-17 {
        letter-spacing: 0em;
      }

      .cls-18 {
        letter-spacing: 0em;
      }

      .cls-19 {
        letter-spacing: 0em;
      }

      .cls-2 {
        stroke-linecap: square;
      }

      .cls-20 {
        letter-spacing: -.01em;
      }

      .cls-21 {
        letter-spacing: 0em;
      }

      .cls-22 {
        letter-spacing: 0em;
      }

      .cls-23 {
        letter-spacing: 0em;
      }

      .cls-24 {
        clip-path: url(#clippath);
      }

      .cls-25 {
        letter-spacing: .02em;
      }

      .cls-26 {
        fill: #f1b343;
      }
    </style>
    <clipPath id="clippath">
      <rect class="cls-1" x="119.92" y="92.09" width="139.08" height="198.04"/>
    </clipPath>
    <clipPath id="clippath-1">
      <rect class="cls-1" x="119.92" y="92.09" width="139.08" height="198.04"/>
    </clipPath>
    <clipPath id="clippath-2">
      <rect class="cls-1" x="119.92" y="92.09" width="139.08" height="198.04"/>
    </clipPath>
    <clipPath id="clippath-3">
      <rect class="cls-1" x="119.92" y="92.09" width="139.08" height="198.04"/>
    </clipPath>
    <clipPath id="clippath-4">
      <rect class="cls-1" x="119.92" y="92.09" width="139.08" height="198.04"/>
    </clipPath>
  </defs>
  <g id="ai2html-settings">
    <rect class="cls-1" width="375" height="470"/>
    <g id="patch_1" data-name="patch 1">
      <path class="cls-10" d="M88,384h170v-229H88v229Z"/>
    </g>
    <g id="axes_1" data-name="axes 1">
      <g id="patch_2" data-name="patch 2">
        <path class="cls-10" d="M119.92,290.13h139.08V92.09H119.92v198.04Z"/>
      </g>
      <g id="patch_3" data-name="patch 3">
        <g class="cls-24">
          <path class="cls-3" d="M126.24,290.13h21.07V101.52h-21.07v188.61Z"/>
        </g>
      </g>
      <g id="patch_4" data-name="patch 4">
        <g class="cls-6">
          <path class="cls-12" d="M152.58,290.13h21.07V127.17h-21.07v162.97Z"/>
        </g>
      </g>
      <g id="patch_5" data-name="patch 5">
        <g class="cls-9">
          <path class="cls-26" d="M178.92,290.13h21.07v-141.21h-21.07v141.21Z"/>
        </g>
      </g>
      <g id="patch_6" data-name="patch 6">
        <g class="cls-7">
          <path class="cls-26" d="M205.26,290.13h21.07v-122.93h-21.07v122.93Z"/>
        </g>
      </g>
      <g id="patch_7" data-name="patch 7">
        <g class="cls-8">
          <path class="cls-26" d="M231.6,290.13h21.07v-92.98h-21.07v92.98Z"/>
        </g>
      </g>
      <g id="matplotlib.axis_1" data-name="matplotlib.axis 1">
        <g id="xtick_1" data-name="xtick 1">
          <g id="line2d_1" data-name="line2d 1">
            <path id="m17464f404b" class="cls-14" d="M136.78,290.13v1.07"/>
          </g>
          <g id="text_1" data-name="text 1">
            <g>
              <path id="DejaVuSans-55" d="M133.25,292.37h.37v1.35c0,.24.05.41.16.52.11.1.28.16.51.16s.41-.05.51-.16c.11-.11.16-.28.16-.52v-1.35h.37v1.39c0,.29-.09.51-.26.66-.17.15-.43.22-.77.22s-.6-.07-.78-.22c-.17-.15-.26-.37-.26-.66v-1.39Z"/>
              <path id="DejaVuSans-53" d="M137.64,292.44v.29c-.14-.05-.27-.1-.39-.12-.12-.03-.24-.04-.36-.04-.2,0-.35.03-.46.1-.11.06-.16.15-.16.27,0,.1.04.17.11.22.07.05.21.09.41.12l.22.04c.27.04.48.12.61.23s.2.25.2.43c0,.22-.09.38-.26.49-.18.11-.43.17-.77.17-.13,0-.26-.01-.41-.04-.14-.02-.29-.06-.45-.11v-.31c.15.07.29.12.44.16.14.03.28.05.42.05.21,0,.37-.03.48-.1.11-.07.17-.16.17-.29,0-.11-.04-.19-.12-.26s-.22-.11-.4-.14l-.22-.04c-.27-.04-.47-.11-.59-.21-.12-.1-.18-.23-.18-.4,0-.2.08-.35.25-.47.17-.11.4-.17.7-.17.13,0,.26,0,.39.03.13.02.27.05.41.08Z"/>
              <path id="DejaVuSans-41" d="M139.35,292.67l-.5,1.11h1l-.5-1.11ZM139.14,292.37h.42l1.03,2.23h-.38l-.25-.57h-1.22l-.25.57h-.39l1.04-2.23Z"/>
            </g>
          </g>
        </g>
        <g id="xtick_2" data-name="xtick 2">
          <g id="line2d_2" data-name="line2d 2">
            <path id="m17464f404b-2" data-name="m17464f404b" class="cls-14" d="M163.12,290.13v1.07"/>
          </g>
          <g id="text_2" data-name="text 2">
            <g>
              <path id="DejaVuSans-43" d="M160.2,292.54v.32c-.12-.09-.26-.17-.4-.21-.14-.05-.29-.07-.45-.07-.31,0-.55.08-.71.23s-.25.38-.25.68.08.52.25.67.4.23.71.23c.16,0,.31-.02.45-.07s.27-.12.4-.21v.32c-.13.07-.26.13-.41.16-.14.04-.29.05-.45.05-.41,0-.73-.1-.97-.31-.24-.21-.35-.49-.35-.85s.12-.64.35-.85c.24-.21.56-.31.97-.31.16,0,.31.02.46.05.14.04.28.09.4.16Z"/>
              <path id="DejaVuSans-68" d="M162.44,293.59v1.01h-.33v-1c0-.16-.04-.28-.11-.36-.08-.08-.19-.12-.34-.12-.18,0-.32.05-.43.14-.1.09-.16.22-.16.39v.95h-.34v-2.32h.34v.91c.08-.1.17-.18.28-.23.11-.05.23-.07.38-.07.23,0,.41.06.53.18.12.12.18.29.18.52Z"/>
              <path id="DejaVuSans-69" d="M163.11,292.93h.33v1.67h-.33v-1.67ZM163.11,292.27h.33v.35h-.33v-.35Z"/>
              <path id="DejaVuSans-6e" d="M165.84,293.59v1.01h-.33v-1c0-.16-.04-.28-.11-.36-.08-.08-.19-.12-.34-.12-.18,0-.32.05-.43.14-.1.09-.16.22-.16.39v.95h-.34v-1.67h.34v.26c.08-.1.17-.18.28-.23.11-.05.23-.07.38-.07.23,0,.41.06.53.18.12.12.18.29.18.52Z"/>
              <path id="DejaVuSans-61" d="M167.43,293.76c-.27,0-.46.03-.56.08s-.16.14-.16.26c0,.1.04.17.12.23.08.06.18.09.32.09.19,0,.33-.05.45-.16s.17-.25.17-.43v-.06h-.33ZM168.09,293.64v.95h-.33v-.25c-.08.1-.17.18-.29.22-.11.05-.25.07-.42.07-.21,0-.37-.05-.5-.14-.12-.1-.18-.22-.18-.39,0-.19.08-.33.23-.43.15-.1.38-.14.69-.14h.47v-.03c0-.13-.05-.22-.15-.29s-.24-.1-.43-.1c-.12,0-.23.01-.34.03-.11.02-.22.06-.32.1v-.25c.12-.04.24-.07.36-.09.12-.02.23-.03.34-.03.29,0,.51.06.66.19.15.13.22.32.22.57Z"/>
            </g>
          </g>
        </g>
        <g id="xtick_3" data-name="xtick 3">
          <g id="line2d_3" data-name="line2d 3">
            <path id="m17464f404b-3" data-name="m17464f404b" class="cls-14" d="M189.46,290.13v1.07"/>
          </g>
          <g id="text_3" data-name="text 3">
            <g>
              <path id="DejaVuSans-57" d="M179.89,292.37h.37l.57,1.88.57-1.88h.41l.57,1.88.57-1.88h.37l-.68,2.23h-.46l-.57-1.94-.58,1.94h-.46l-.68-2.23Z"/>
              <path id="DejaVuSans-6f" d="M184.36,293.12c-.18,0-.32.06-.43.17s-.16.27-.16.47.05.36.16.47c.1.12.25.17.43.17s.32-.06.42-.17c.1-.12.16-.27.16-.47s-.05-.36-.16-.47c-.1-.12-.24-.17-.42-.17ZM184.36,292.89c.29,0,.52.08.68.23.17.16.25.37.25.64s-.08.49-.25.64c-.17.16-.39.23-.68.23s-.52-.08-.69-.23c-.17-.16-.25-.37-.25-.64s.08-.49.25-.64c.17-.16.39-.23.69-.23Z"/>
              <path id="DejaVuSans-72" d="M187.03,293.18s-.08-.03-.12-.04c-.04,0-.09-.01-.15-.01-.19,0-.33.05-.44.15s-.15.25-.15.44v.88h-.34v-1.67h.34v.26c.07-.1.16-.18.27-.23.11-.05.25-.07.41-.07.02,0,.05,0,.08,0,.03,0,.06,0,.09.01v.28Z"/>
              <path id="DejaVuSans-6c" d="M187.38,292.27h.33v2.32h-.33v-2.32Z"/>
              <path id="DejaVuSans-64" d="M189.75,293.18v-.91h.33v2.32h-.33v-.25c-.07.1-.16.17-.27.22-.11.05-.24.07-.39.07-.25,0-.45-.08-.6-.24-.15-.16-.23-.37-.23-.64s.08-.47.23-.64c.15-.16.35-.24.6-.24.15,0,.28.02.39.07.11.05.2.12.27.22ZM188.61,293.76c0,.2.05.36.15.48.1.12.24.17.42.17s.32-.06.42-.17c.1-.12.15-.27.15-.48s-.05-.36-.15-.48c-.1-.12-.24-.17-.42-.17s-.32.06-.42.17-.15.27-.15.48Z"/>
              <path id="DejaVuSans-77" d="M190.58,292.93h.33l.42,1.31.42-1.31h.39l.42,1.31.42-1.31h.33l-.53,1.67h-.39l-.44-1.37-.44,1.37h-.39l-.53-1.67Z"/>
              <path id="DejaVuSans-69-2" data-name="DejaVuSans-69" d="M193.82,292.93h.33v1.67h-.33v-1.67ZM193.82,292.27h.33v.35h-.33v-.35Z"/>
              <path id="DejaVuSans-64-2" data-name="DejaVuSans-64" d="M196.19,293.18v-.91h.33v2.32h-.33v-.25c-.07.1-.16.17-.27.22-.11.05-.24.07-.39.07-.25,0-.45-.08-.6-.24-.15-.16-.23-.37-.23-.64s.08-.47.23-.64c.15-.16.35-.24.6-.24.15,0,.28.02.39.07.11.05.2.12.27.22ZM195.05,293.76c0,.2.05.36.15.48.1.12.24.17.42.17s.32-.06.42-.17c.1-.12.15-.27.15-.48s-.05-.36-.15-.48c-.1-.12-.24-.17-.42-.17s-.32.06-.42.17-.15.27-.15.48Z"/>
              <path id="DejaVuSans-65" d="M198.96,293.69v.13h-1.54c.01.19.08.33.21.43.12.1.3.15.52.15.13,0,.25-.01.37-.04s.24-.06.36-.12v.26c-.12.04-.24.07-.37.1s-.25.03-.38.03c-.32,0-.58-.08-.77-.23-.19-.16-.28-.37-.28-.63s.09-.49.27-.65c.18-.16.42-.24.73-.24.27,0,.49.07.65.22.16.14.24.34.24.59ZM198.62,293.61c0-.15-.05-.27-.15-.36-.1-.09-.23-.13-.4-.13-.19,0-.34.04-.45.13s-.18.21-.19.37h1.19Z"/>
            </g>
          </g>
        </g>
        <g id="xtick_4" data-name="xtick 4">
          <g id="line2d_4" data-name="line2d 4">
            <path id="m17464f404b-4" data-name="m17464f404b" class="cls-14" d="M215.8,290.13v1.07"/>
          </g>
          <g id="text_4" data-name="text 4">
            <g>
              <path id="DejaVuSans-45" d="M203.96,292.37h1.72v.25h-1.35v.66h1.29v.25h-1.29v.81h1.38v.25h-1.75v-2.23Z"/>
              <path id="DejaVuSans-75" d="M206.26,293.94v-1.01h.33v1c0,.16.04.28.11.36.08.08.19.12.34.12.18,0,.32-.05.43-.14.11-.09.16-.22.16-.39v-.95h.33v1.67h-.33v-.26c-.08.1-.18.18-.28.23-.11.05-.23.07-.37.07-.23,0-.41-.06-.53-.18-.12-.12-.18-.29-.18-.52Z"/>
              <path id="DejaVuSans-72-2" data-name="DejaVuSans-72" d="M209.83,293.18s-.08-.03-.12-.04c-.04,0-.09-.01-.15-.01-.19,0-.33.05-.44.15s-.15.25-.15.44v.88h-.34v-1.67h.34v.26c.07-.1.16-.18.27-.23.11-.05.25-.07.41-.07.02,0,.05,0,.08,0,.03,0,.06,0,.09.01v.28Z"/>
              <path id="DejaVuSans-6f-2" data-name="DejaVuSans-6f" d="M210.88,293.12c-.18,0-.32.06-.43.17s-.16.27-.16.47.05.36.16.47c.1.12.25.17.43.17s.32-.06.42-.17c.1-.12.16-.27.16-.47s-.05-.36-.16-.47c-.1-.12-.24-.17-.42-.17ZM210.88,292.89c.29,0,.52.08.68.23.17.16.25.37.25.64s-.08.49-.25.64c-.17.16-.39.23-.68.23s-.52-.08-.69-.23c-.17-.16-.25-.37-.25-.64s.08-.49.25-.64c.17-.16.39-.23.69-.23Z"/>
              <path id="DejaVuSans-70" d="M212.7,294.35v.89h-.34v-2.31h.34v.25c.07-.1.16-.17.27-.22.11-.05.24-.07.38-.07.25,0,.45.08.6.24.15.16.23.37.23.64s-.08.47-.23.64c-.15.16-.36.24-.6.24-.15,0-.28-.02-.38-.07-.11-.05-.2-.12-.27-.22ZM213.83,293.76c0-.2-.05-.36-.15-.48s-.24-.17-.42-.17-.32.06-.42.17-.15.27-.15.48.05.36.15.48c.1.12.24.17.42.17s.32-.06.42-.17c.1-.12.15-.27.15-.48Z"/>
              <path id="DejaVuSans-65-2" data-name="DejaVuSans-65" d="M216.48,293.69v.13h-1.54c.01.19.08.33.21.43.12.1.3.15.52.15.13,0,.25-.01.37-.04s.24-.06.36-.12v.26c-.12.04-.24.07-.37.1s-.25.03-.38.03c-.32,0-.58-.08-.77-.23-.19-.16-.28-.37-.28-.63s.09-.49.27-.65c.18-.16.42-.24.73-.24.27,0,.49.07.65.22.16.14.24.34.24.59ZM216.14,293.61c0-.15-.05-.27-.15-.36-.1-.09-.23-.13-.4-.13-.19,0-.34.04-.45.13s-.18.21-.19.37h1.19Z"/>
              <path id="DejaVuSans-28" d="M219.01,292.28c-.16.23-.28.46-.36.68-.08.22-.12.45-.12.68s.04.46.12.68.2.45.36.68h-.29c-.18-.23-.32-.46-.41-.69-.09-.23-.14-.45-.14-.67s.04-.45.13-.67c.09-.23.23-.46.41-.69h.29Z"/>
              <path id="DejaVuSans-45-2" data-name="DejaVuSans-45" d="M219.67,292.37h1.72v.25h-1.35v.66h1.29v.25h-1.29v.81h1.38v.25h-1.75v-2.23Z"/>
              <path id="DejaVuSans-45-3" data-name="DejaVuSans-45" d="M222.03,292.37h1.72v.25h-1.35v.66h1.29v.25h-1.29v.81h1.38v.25h-1.75v-2.23Z"/>
              <path id="DejaVuSans-41-2" data-name="DejaVuSans-41" d="M225.28,292.67l-.5,1.11h1l-.5-1.11ZM225.08,292.37h.42l1.03,2.23h-.38l-.25-.57h-1.22l-.25.57h-.39l1.04-2.23Z"/>
              <path id="DejaVuSans-29" d="M226.86,292.28h.29c.18.23.32.46.41.69.09.22.14.45.14.67s-.05.45-.14.67c-.09.23-.23.46-.41.69h-.29c.16-.23.28-.45.36-.68.08-.23.12-.45.12-.68s-.04-.46-.12-.68c-.08-.22-.2-.45-.36-.68Z"/>
            </g>
          </g>
        </g>
        <g id="xtick_5" data-name="xtick 5">
          <g id="line2d_5" data-name="line2d 5">
            <path id="m17464f404b-5" data-name="m17464f404b" class="cls-14" d="M242.14,290.13v1.07"/>
          </g>
          <g id="text_5" data-name="text 5">
            <g>
              <path id="DejaVuSans-46" d="M236.32,292.37h1.56v.25h-1.19v.66h1.08v.25h-1.08v1.06h-.37v-2.23Z"/>
              <path id="DejaVuSans-72-3" data-name="DejaVuSans-72" d="M239.35,293.18s-.08-.03-.12-.04c-.04,0-.09-.01-.15-.01-.19,0-.33.05-.44.15s-.15.25-.15.44v.88h-.34v-1.67h.34v.26c.07-.1.16-.18.27-.23.11-.05.25-.07.41-.07.02,0,.05,0,.08,0,.03,0,.06,0,.09.01v.28Z"/>
              <path id="DejaVuSans-61-2" data-name="DejaVuSans-61" d="M240.63,293.76c-.27,0-.46.03-.56.08s-.16.14-.16.26c0,.1.04.17.12.23.08.06.18.09.32.09.19,0,.33-.05.45-.16s.17-.25.17-.43v-.06h-.33ZM241.3,293.64v.95h-.33v-.25c-.08.1-.17.18-.29.22-.11.05-.25.07-.42.07-.21,0-.37-.05-.5-.14-.12-.1-.18-.22-.18-.39,0-.19.08-.33.23-.43.15-.1.38-.14.69-.14h.47v-.03c0-.13-.05-.22-.15-.29s-.24-.1-.43-.1c-.12,0-.23.01-.34.03-.11.02-.22.06-.32.1v-.25c.12-.04.24-.07.36-.09.12-.02.23-.03.34-.03.29,0,.51.06.66.19.15.13.22.32.22.57Z"/>
              <path id="DejaVuSans-6e-2" data-name="DejaVuSans-6e" d="M243.68,293.59v1.01h-.33v-1c0-.16-.04-.28-.11-.36-.08-.08-.19-.12-.34-.12-.18,0-.32.05-.43.14-.1.09-.16.22-.16.39v.95h-.34v-1.67h.34v.26c.08-.1.17-.18.28-.23.11-.05.23-.07.38-.07.23,0,.41.06.53.18.12.12.18.29.18.52Z"/>
              <path id="DejaVuSans-63" d="M245.81,292.99v.26c-.09-.04-.19-.08-.28-.1s-.19-.03-.29-.03c-.22,0-.39.06-.51.17-.12.11-.18.27-.18.48s.06.36.18.48c.12.11.29.17.51.17.1,0,.19-.01.29-.03s.19-.05.28-.1v.25c-.09.04-.19.06-.29.08-.1.02-.21.03-.32.03-.31,0-.55-.08-.73-.24-.18-.16-.27-.37-.27-.64s.09-.49.27-.64c.18-.16.43-.23.75-.23.1,0,.2,0,.3.03.1.02.19.04.29.08Z"/>
              <path id="DejaVuSans-65-3" data-name="DejaVuSans-65" d="M248.13,293.69v.13h-1.54c.01.19.08.33.21.43.12.1.3.15.52.15.13,0,.25-.01.37-.04s.24-.06.36-.12v.26c-.12.04-.24.07-.37.1s-.25.03-.38.03c-.32,0-.58-.08-.77-.23-.19-.16-.28-.37-.28-.63s.09-.49.27-.65c.18-.16.42-.24.73-.24.27,0,.49.07.65.22.16.14.24.34.24.59ZM247.8,293.61c0-.15-.05-.27-.15-.36-.1-.09-.23-.13-.4-.13-.19,0-.34.04-.45.13s-.18.21-.19.37h1.19Z"/>
            </g>
          </g>
        </g>
        <g id="text_6" data-name="text 6">
          <g>
            <path id="DejaVuSans-41-3" data-name="DejaVuSans-41" d="M173.27,296.93l-.6,1.33h1.2l-.6-1.33ZM173.03,296.57h.5l1.24,2.68h-.46l-.3-.69h-1.47l-.3.69h-.46l1.24-2.68Z"/>
            <path id="DejaVuSans-72-4" data-name="DejaVuSans-72" d="M176.64,297.55s-.09-.04-.15-.05c-.05-.01-.11-.02-.18-.02-.23,0-.4.06-.52.18s-.18.3-.18.52v1.06h-.4v-2.01h.4v.31c.08-.12.19-.21.33-.27.14-.06.3-.09.49-.09.03,0,.06,0,.09,0,.03,0,.07,0,.11.01v.34Z"/>
            <path id="DejaVuSans-65-4" data-name="DejaVuSans-65" d="M179.05,298.16v.16h-1.84c.02.23.1.4.25.52.15.12.36.18.62.18.15,0,.3-.02.45-.05s.29-.08.43-.14v.31c-.14.05-.29.09-.44.11s-.3.04-.46.04c-.39,0-.7-.09-.93-.28-.23-.19-.34-.44-.34-.76s.11-.59.32-.78c.22-.19.51-.29.87-.29.33,0,.59.09.78.26.19.17.29.41.29.71ZM178.65,298.06c0-.18-.06-.32-.18-.43-.12-.11-.28-.16-.48-.16-.22,0-.4.05-.54.16s-.21.25-.23.44h1.43Z"/>
            <path id="DejaVuSans-61-3" data-name="DejaVuSans-61" d="M180.82,298.24c-.32,0-.55.03-.67.09s-.19.16-.19.31c0,.12.05.21.14.28.09.07.22.1.38.1.22,0,.4-.06.54-.19s.2-.3.2-.52v-.07h-.4ZM181.62,298.1v1.15h-.4v-.3c-.09.12-.21.21-.34.27-.14.06-.3.09-.5.09-.25,0-.45-.06-.6-.17-.15-.12-.22-.27-.22-.46,0-.23.09-.4.28-.51.18-.11.46-.17.82-.17h.56v-.03c0-.15-.06-.27-.18-.35s-.29-.12-.51-.12c-.14,0-.28.01-.41.04-.13.03-.26.07-.38.12v-.31c.15-.05.29-.08.43-.1.14-.02.27-.03.4-.03.35,0,.62.08.79.23.17.15.26.38.26.68Z"/>
            <path id="DejaVuSans-6f-3" data-name="DejaVuSans-6f" d="M184.81,297.47c-.21,0-.38.07-.51.21s-.19.33-.19.57.06.43.19.57c.12.14.3.21.51.21s.38-.07.51-.21c.13-.14.19-.33.19-.57s-.06-.43-.19-.57c-.12-.14-.29-.21-.51-.21ZM184.81,297.19c.35,0,.62.09.82.28.2.19.3.44.3.77s-.1.59-.3.77c-.2.19-.47.28-.82.28s-.62-.09-.82-.28c-.2-.19-.3-.45-.3-.77s.1-.59.3-.77c.2-.19.47-.28.82-.28Z"/>
            <path id="DejaVuSans-72-5" data-name="DejaVuSans-72" d="M188.01,297.55s-.09-.04-.15-.05c-.05-.01-.11-.02-.18-.02-.23,0-.4.06-.52.18s-.18.3-.18.52v1.06h-.4v-2.01h.4v.31c.08-.12.19-.21.33-.27.14-.06.3-.09.49-.09.03,0,.06,0,.09,0,.03,0,.07,0,.11.01v.34Z"/>
            <path id="DejaVuSans-43-2" data-name="DejaVuSans-43" d="M192.3,296.78v.38c-.15-.11-.31-.2-.47-.25-.17-.06-.35-.08-.54-.08-.37,0-.66.09-.85.28s-.3.46-.3.81.1.62.3.81.48.28.85.28c.19,0,.37-.03.54-.08s.33-.14.47-.25v.38c-.15.09-.32.15-.49.19-.17.04-.35.06-.55.06-.49,0-.88-.12-1.17-.37-.28-.25-.42-.59-.42-1.02s.14-.77.42-1.02c.28-.25.67-.37,1.17-.37.19,0,.38.02.55.06.17.04.33.11.49.19Z"/>
            <path id="DejaVuSans-6f-4" data-name="DejaVuSans-6f" d="M193.91,297.47c-.21,0-.38.07-.51.21s-.19.33-.19.57.06.43.19.57c.12.14.3.21.51.21s.38-.07.51-.21c.13-.14.19-.33.19-.57s-.06-.43-.19-.57c-.12-.14-.29-.21-.51-.21ZM193.91,297.19c.35,0,.62.09.82.28.2.19.3.44.3.77s-.1.59-.3.77c-.2.19-.47.28-.82.28s-.62-.09-.82-.28c-.2-.19-.3-.45-.3-.77s.1-.59.3-.77c.2-.19.47-.28.82-.28Z"/>
            <path id="DejaVuSans-75-2" data-name="DejaVuSans-75" d="M195.66,298.45v-1.22h.4v1.2c0,.19.04.33.13.43.09.09.23.14.41.14.22,0,.39-.06.51-.17.13-.11.19-.27.19-.46v-1.14h.4v2.01h-.4v-.31c-.1.12-.21.21-.34.27-.13.06-.28.09-.45.09-.28,0-.49-.07-.64-.22-.15-.14-.22-.35-.22-.63Z"/>
            <path id="DejaVuSans-6e-3" data-name="DejaVuSans-6e" d="M200.56,298.03v1.21h-.4v-1.2c0-.19-.05-.33-.14-.43-.09-.09-.23-.14-.41-.14-.22,0-.39.06-.51.17-.13.11-.19.27-.19.46v1.13h-.4v-2.01h.4v.31c.1-.12.21-.21.34-.27.13-.06.28-.09.45-.09.28,0,.49.07.64.21.14.14.22.35.22.63Z"/>
            <path id="DejaVuSans-74" d="M201.76,296.67v.57h.83v.26h-.83v1.09c0,.16.03.27.08.32s.17.07.33.07h.41v.28h-.41c-.31,0-.52-.05-.64-.14-.12-.1-.18-.27-.18-.52v-1.09h-.29v-.26h.29v-.57h.4Z"/>
            <path id="DejaVuSans-72-6" data-name="DejaVuSans-72" d="M204.53,297.55s-.09-.04-.15-.05c-.05-.01-.11-.02-.18-.02-.23,0-.4.06-.52.18s-.18.3-.18.52v1.06h-.4v-2.01h.4v.31c.08-.12.19-.21.33-.27.14-.06.3-.09.49-.09.03,0,.06,0,.09,0,.03,0,.07,0,.11.01v.34Z"/>
            <path id="DejaVuSans-79" d="M205.96,299.43c-.11.24-.22.39-.33.47-.11.07-.25.11-.43.11h-.32v-.28h.24c.11,0,.2-.02.26-.06.06-.04.13-.14.2-.3l.07-.15-.99-1.97h.42l.76,1.57.76-1.57h.42l-1.07,2.19Z"/>
          </g>
        </g>
      </g>
      <g id="matplotlib.axis_2" data-name="matplotlib.axis 2">
        <g id="ytick_1" data-name="ytick 1">
          <g id="line2d_6" data-name="line2d 6">
            <path id="mc7e323b204" class="cls-14" d="M119.92,290.13h-1.3"/>
          </g>
          <g id="text_7" data-name="text 7">
            <path id="DejaVuSans-30" d="M116.13,289.26c-.19,0-.33.08-.43.23-.09.15-.14.38-.14.69s.05.53.14.69c.1.15.24.23.43.23s.33-.08.43-.23c.1-.15.14-.38.14-.69s-.05-.54-.14-.69c-.09-.15-.24-.23-.43-.23ZM116.13,289.03c.3,0,.54.1.7.3.16.2.24.48.24.86s-.08.66-.24.86c-.16.2-.39.3-.7.3s-.54-.1-.7-.3c-.16-.2-.24-.48-.24-.86s.08-.66.24-.86c.16-.2.39-.3.7-.3Z"/>
          </g>
        </g>
        <g id="ytick_2" data-name="ytick 2">
          <g id="line2d_7" data-name="line2d 7">
            <path id="mc7e323b204-2" data-name="mc7e323b204" class="cls-14" d="M119.92,251.86h-1.3"/>
          </g>
          <g id="text_8" data-name="text 8">
            <path id="DejaVuSans-32" d="M115.66,252.76h1.28v.25h-1.72v-.25c.14-.12.33-.28.57-.48.24-.2.39-.33.45-.39.12-.11.2-.2.25-.28.05-.08.07-.15.07-.22,0-.12-.05-.22-.15-.29-.1-.07-.23-.11-.4-.11-.12,0-.24.02-.36.05-.13.03-.26.08-.41.15v-.3c.15-.05.29-.09.41-.11.13-.02.25-.04.35-.04.28,0,.51.06.67.17.17.12.25.27.25.46,0,.09-.02.18-.06.26-.04.08-.12.18-.23.29-.03.03-.13.11-.29.25-.16.14-.39.33-.69.58Z"/>
          </g>
        </g>
        <g id="ytick_3" data-name="ytick 3">
          <g id="line2d_8" data-name="line2d 8">
            <path id="mc7e323b204-3" data-name="mc7e323b204" class="cls-14" d="M119.92,213.58h-1.3"/>
          </g>
          <g id="text_9" data-name="text 9">
            <path id="DejaVuSans-34" d="M116.35,212.77l-.93,1.19h.93v-1.19ZM116.25,212.51h.46v1.45h.39v.25h-.39v.53h-.37v-.53h-1.22v-.29l1.13-1.41Z"/>
          </g>
        </g>
        <g id="ytick_4" data-name="ytick 4">
          <g id="line2d_9" data-name="line2d 9">
            <path id="mc7e323b204-4" data-name="mc7e323b204" class="cls-14" d="M119.92,175.3h-1.3"/>
          </g>
          <g id="text_10" data-name="text 10">
            <path id="DejaVuSans-36" d="M116.17,175.23c-.16,0-.3.05-.39.14-.1.09-.14.22-.14.38s.05.29.14.38c.1.09.23.14.39.14s.3-.05.39-.14c.1-.09.14-.22.14-.38s-.05-.29-.14-.38c-.1-.09-.23-.14-.39-.14ZM116.9,174.28v.27c-.09-.04-.19-.06-.28-.08-.09-.02-.19-.03-.28-.03-.24,0-.43.07-.56.2-.13.13-.2.34-.22.61.07-.09.16-.15.27-.2.11-.05.23-.07.36-.07.27,0,.49.07.65.2.16.14.24.32.24.55s-.08.41-.25.55c-.16.14-.38.21-.66.21-.31,0-.55-.1-.72-.3-.17-.2-.25-.48-.25-.86,0-.35.1-.63.31-.84.2-.21.48-.31.82-.31.09,0,.19,0,.28.02s.19.04.29.07Z"/>
          </g>
        </g>
        <g id="ytick_5" data-name="ytick 5">
          <g id="line2d_10" data-name="line2d 10">
            <path id="mc7e323b204-5" data-name="mc7e323b204" class="cls-14" d="M119.92,137.02h-1.3"/>
          </g>
          <g id="text_11" data-name="text 11">
            <path id="DejaVuSans-38" d="M116.13,137.12c-.17,0-.31.04-.41.12-.1.08-.15.18-.15.32s.05.24.15.32c.1.08.24.12.41.12s.31-.04.41-.12c.1-.08.15-.18.15-.32s-.05-.24-.15-.32c-.1-.08-.24-.12-.41-.12ZM115.76,137c-.16-.03-.28-.09-.37-.18-.09-.09-.13-.2-.13-.32,0-.18.08-.32.23-.42.15-.1.37-.16.63-.16s.48.05.64.16.23.24.23.42c0,.13-.04.24-.13.32-.09.09-.21.15-.37.18.18.03.31.1.41.2.1.1.15.22.15.36,0,.22-.08.38-.24.5-.16.12-.39.17-.69.17s-.53-.06-.69-.17c-.16-.12-.24-.28-.24-.5,0-.14.05-.26.15-.36.1-.1.24-.17.41-.2ZM115.63,136.52c0,.12.04.21.13.27.09.06.21.1.37.1s.28-.03.37-.1c.09-.06.13-.15.13-.27s-.04-.21-.13-.27c-.09-.06-.21-.1-.37-.1s-.28.03-.37.1c-.09.06-.13.15-.13.27Z"/>
          </g>
        </g>
        <g id="ytick_6" data-name="ytick 6">
          <g id="line2d_11" data-name="line2d 11">
            <path id="mc7e323b204-6" data-name="mc7e323b204" class="cls-14" d="M119.92,98.74h-1.3"/>
          </g>
          <g id="text_12" data-name="text 12">
            <g>
              <path id="DejaVuSans-31" d="M113.04,99.65h.6v-1.7l-.65.11v-.27l.65-.11h.37v1.98h.6v.25h-1.56v-.25Z"/>
              <path id="DejaVuSans-30-2" data-name="DejaVuSans-30" d="M116.13,97.87c-.19,0-.33.08-.43.23-.09.15-.14.38-.14.69s.05.53.14.69c.1.15.24.23.43.23s.33-.08.43-.23c.1-.15.14-.38.14-.69s-.05-.54-.14-.69c-.09-.15-.24-.23-.43-.23ZM116.13,97.64c.3,0,.54.1.7.3.16.2.24.48.24.86s-.08.66-.24.86c-.16.2-.39.3-.7.3s-.54-.1-.7-.3c-.16-.2-.24-.48-.24-.86s.08-.66.24-.86c.16-.2.39-.3.7-.3Z"/>
            </g>
          </g>
        </g>
        <g id="text_13" data-name="text 13">
          <g>
            <path id="DejaVuSans-41-4" data-name="DejaVuSans-41" d="M107.34,218.37l1.62.49v-.98l-1.62.49ZM106.9,218.58v-.41l3.26-1.02v.38l-.84.24v1.21l.84.24v.38l-3.26-1.02Z"/>
            <path id="DejaVuSans-44" d="M107.27,216.4h2.53v-.44c0-.37-.1-.64-.3-.81-.2-.17-.53-.26-.96-.26s-.76.09-.96.26-.3.44-.3.81v.44ZM106.9,216.76v-.74c0-.52.13-.9.39-1.14.26-.24.67-.36,1.23-.36s.97.12,1.24.37c.26.24.39.62.39,1.14v.74h-3.26Z"/>
            <path id="DejaVuSans-50" d="M107.27,213.57h1.22v-.46c0-.17-.05-.3-.16-.39-.11-.09-.26-.14-.45-.14s-.35.05-.45.14c-.11.09-.16.22-.16.39v.46ZM106.9,213.93v-.82c0-.3.08-.53.25-.68.17-.15.41-.23.72-.23s.56.08.73.23c.16.15.25.38.25.68v.46h1.31v.36h-3.26Z"/>
            <path id="DejaVuSans-65-5" data-name="DejaVuSans-65" d="M108.84,210.15h.2v1.52c.28-.01.49-.08.63-.21.14-.12.22-.29.22-.51,0-.13-.02-.25-.06-.37s-.09-.24-.17-.35h.38c.06.12.11.24.14.36s.05.25.05.38c0,.32-.11.57-.34.76-.23.19-.53.28-.92.28s-.72-.09-.95-.27c-.23-.18-.35-.42-.35-.72,0-.27.11-.48.32-.64.21-.16.5-.24.86-.24ZM108.72,210.48c-.22,0-.39.05-.52.15-.13.1-.2.23-.2.39,0,.18.06.33.19.44s.3.17.53.19v-1.18Z"/>
            <path id="DejaVuSans-28-2" data-name="DejaVuSans-28" d="M106.77,207.65c.33.16.66.28.99.36.33.08.66.12.99.12s.67-.04,1-.12.66-.2.99-.36v.29c-.34.18-.68.31-1.01.4-.33.09-.66.13-.98.13s-.65-.04-.98-.13c-.33-.09-.66-.22-1.01-.4v-.29Z"/>
            <path id="DejaVuSans-d7" d="M107.76,204.78l1,.82,1-.82.26.21-1,.82,1,.82-.26.21-1-.82-1,.82-.26-.21,1-.82-1-.82.26-.21Z"/>
            <path id="DejaVuSans-31-2" data-name="DejaVuSans-31" d="M109.79,203.83v-.59h-2.48l.16.64h-.4l-.16-.64v-.36h2.89v-.59h.37v1.54h-.37Z"/>
            <path id="DejaVuSans-30-3" data-name="DejaVuSans-30" d="M107.19,200.78c0,.19.11.33.33.42.22.09.56.14,1.01.14s.78-.05,1-.14c.22-.09.33-.23.33-.42s-.11-.33-.33-.42c-.22-.09-.56-.14-1-.14s-.78.05-1.01.14c-.22.09-.33.23-.33.42ZM106.84,200.78c0-.3.14-.53.43-.69.29-.16.71-.24,1.26-.24s.97.08,1.26.24c.29.16.43.39.43.69s-.14.53-.43.69c-.29.16-.71.24-1.26.24s-.97-.08-1.26-.24c-.29-.16-.43-.39-.43-.69Z"/>
            <path id="DejaVuSans-5e" d="M106.9,197.9l1.21-.97v.36l-.86.79.86.79v.36l-1.21-.97v-.35Z"/>
            <path id="DejaVuSans-2d" d="M108.76,196.36v-.97h.36v.97h-.36Z"/>
            <path id="DejaVuSans-38-2" data-name="DejaVuSans-38" d="M108.61,194.04c0,.17.06.31.17.41.11.1.27.15.46.15s.35-.05.46-.15c.11-.1.17-.23.17-.41s-.06-.31-.17-.41c-.11-.1-.27-.15-.46-.15s-.35.05-.46.15c-.11.1-.17.23-.17.41ZM108.43,194.41c-.05.16-.13.28-.26.36-.13.09-.29.13-.47.13-.26,0-.47-.08-.62-.23-.15-.15-.23-.36-.23-.63s.08-.48.23-.63.36-.23.62-.23c.19,0,.34.04.47.13.13.09.22.21.26.36.05-.17.15-.31.29-.41.14-.1.32-.15.53-.15.32,0,.56.08.73.24.17.16.25.38.25.68s-.08.52-.25.68c-.17.16-.41.24-.73.24-.21,0-.38-.05-.53-.15-.14-.1-.24-.23-.29-.41ZM107.73,194.54c.17,0,.3-.04.39-.13.09-.09.14-.21.14-.36s-.05-.28-.14-.36c-.09-.09-.23-.13-.39-.13s-.3.04-.39.13c-.09.09-.14.21-.14.36s.05.28.14.36c.09.09.23.13.39.13Z"/>
            <path id="DejaVuSans-6b" d="M106.77,191.38v-.33h2l-1.05-.98v-.42l1.14,1.06,1.3-1.11v.43l-1.19,1.02h1.19v.33h-3.39Z"/>
            <path id="DejaVuSans-67" d="M108.91,187.92c-.29,0-.52.05-.68.15-.16.1-.24.24-.24.41s.08.31.24.41c.16.1.38.15.68.15s.51-.05.67-.15c.16-.1.24-.24.24-.41s-.08-.32-.24-.41c-.16-.1-.38-.15-.67-.15ZM109.86,187.59c.42,0,.72.08.93.23.2.15.3.38.3.7,0,.12-.01.23-.03.33s-.05.2-.1.3h-.39c.06-.1.11-.19.14-.29.03-.09.05-.19.05-.29,0-.22-.07-.38-.21-.49-.14-.11-.34-.16-.62-.16h-.2c.14.07.25.16.32.26s.11.23.11.38c0,.25-.11.44-.34.59-.23.15-.53.23-.91.23s-.68-.08-.91-.23c-.23-.15-.34-.35-.34-.59,0-.15.04-.28.11-.38s.18-.19.32-.26h-.37v-.33h2.14Z"/>
            <path id="DejaVuSans-53-2" data-name="DejaVuSans-53" d="M107.01,184.12h.43c-.08.14-.14.27-.18.39-.04.12-.06.24-.06.35,0,.2.05.35.14.46.09.11.23.16.4.16.14,0,.25-.04.33-.11.07-.07.13-.21.18-.4l.05-.22c.06-.27.17-.47.33-.6s.37-.19.63-.19c.32,0,.56.09.72.26.16.17.24.43.24.76,0,.13-.02.26-.05.4-.03.14-.09.29-.15.44h-.45c.1-.15.18-.29.23-.43.05-.14.08-.28.08-.42,0-.21-.05-.37-.15-.48-.1-.11-.24-.17-.42-.17-.16,0-.28.04-.37.12s-.16.21-.2.4l-.05.22c-.07.27-.17.47-.31.59-.14.12-.33.18-.58.18-.29,0-.51-.08-.68-.25-.17-.17-.25-.4-.25-.69,0-.13.01-.25.04-.38.03-.13.07-.26.12-.4Z"/>
            <path id="DejaVuSans-62" d="M108.94,181.97c-.29,0-.53.05-.69.15s-.25.24-.25.41.08.31.25.41.4.15.69.15.53-.05.69-.15c.17-.1.25-.24.25-.41s-.08-.31-.25-.41c-.17-.1-.4-.15-.69-.15ZM108.09,183.09c-.15-.07-.25-.16-.32-.26-.07-.11-.11-.23-.11-.38,0-.24.12-.44.35-.59.24-.15.54-.23.93-.23s.69.08.93.23c.24.15.35.35.35.59,0,.15-.04.27-.11.38-.07.11-.18.19-.32.26h.37v.33h-3.39v-.33h1.32Z"/>
            <path id="DejaVuSans-65-6" data-name="DejaVuSans-65" d="M108.84,178.2h.2v1.52c.28-.01.49-.08.63-.21.14-.12.22-.29.22-.51,0-.13-.02-.25-.06-.37s-.09-.24-.17-.35h.38c.06.12.11.24.14.36s.05.25.05.38c0,.32-.11.57-.34.76-.23.19-.53.28-.92.28s-.72-.09-.95-.27c-.23-.18-.35-.42-.35-.72,0-.27.11-.48.32-.64.21-.16.5-.24.86-.24ZM108.72,178.53c-.22,0-.39.05-.52.15-.13.1-.2.23-.2.39,0,.18.06.33.19.44s.3.17.53.19v-1.18Z"/>
            <path id="DejaVuSans-71" d="M108.94,177.46c.29,0,.53-.05.69-.15.17-.1.25-.24.25-.41s-.08-.31-.25-.41c-.17-.1-.4-.15-.69-.15s-.53.05-.69.15c-.17.1-.25.24-.25.41s.08.31.25.41.4.15.69.15ZM109.79,176.34c.15.07.25.16.32.26.07.11.11.23.11.38,0,.24-.12.44-.35.59-.24.15-.55.23-.93.23s-.69-.08-.93-.23c-.24-.15-.35-.35-.35-.59,0-.15.04-.28.11-.38.07-.11.18-.19.32-.26h-.37v-.33h3.37v.33h-1.3Z"/>
            <path id="DejaVuSans-2f" d="M106.9,173.58v-.3l3.67.93v.3l-3.67-.93Z"/>
            <path id="DejaVuSans-6b-2" data-name="DejaVuSans-6b" d="M106.77,171.77v-.33h2l-1.05-.98v-.42l1.14,1.06,1.3-1.11v.43l-1.19,1.02h1.19v.33h-3.39Z"/>
            <path id="DejaVuSans-57-2" data-name="DejaVuSans-57" d="M106.9,169.86v-.37l2.75-.56-2.75-.56v-.41l2.75-.56-2.75-.56v-.37l3.26.67v.46l-2.83.56,2.83.57v.46l-3.26.67Z"/>
            <path id="DejaVuSans-68-2" data-name="DejaVuSans-68" d="M108.68,164.34h1.47v.33h-1.46c-.23,0-.4.04-.52.11-.11.07-.17.19-.17.33,0,.18.07.32.21.42.14.1.33.15.56.15h1.38v.33h-3.39v-.33h1.33c-.15-.08-.26-.17-.33-.28-.07-.11-.11-.23-.11-.37,0-.23.09-.4.26-.52.17-.12.43-.18.77-.18Z"/>
            <path id="DejaVuSans-29-2" data-name="DejaVuSans-29" d="M106.77,163.73v-.29c.34-.18.68-.31,1.01-.4.33-.09.65-.13.98-.13s.65.04.98.13c.33.09.67.22,1.01.4v.29c-.33-.16-.66-.28-.99-.36-.33-.08-.66-.12-1-.12s-.67.04-.99.12c-.33.08-.66.2-.99.36Z"/>
          </g>
        </g>
      </g>
      <g id="patch_8" data-name="patch 8">
        <path class="cls-2" d="M119.92,290.13V92.09"/>
      </g>
      <g id="patch_9" data-name="patch 9">
        <path class="cls-2" d="M259,290.13V92.09"/>
      </g>
      <g id="patch_10" data-name="patch 10">
        <path class="cls-2" d="M119.92,290.13h139.08"/>
      </g>
      <g id="patch_11" data-name="patch 11">
        <path class="cls-2" d="M119.92,92.09h139.08"/>
      </g>
      <g id="text_14" data-name="text 14">
        <g>
          <path id="DejaVuSans-Bold-39" class="cls-10" d="M132.56,111.88v-.41c.11.04.22.08.32.1.1.02.2.03.3.03.21,0,.37-.05.49-.14.12-.1.18-.24.21-.42-.08.05-.17.09-.26.11s-.19.04-.3.04c-.28,0-.5-.07-.67-.2-.17-.13-.26-.31-.26-.52,0-.24.09-.43.28-.58s.44-.22.76-.22c.35,0,.63.1.82.29.19.2.29.47.29.83s-.11.66-.34.87c-.23.21-.54.32-.93.32-.13,0-.25,0-.37-.02-.12-.02-.23-.04-.34-.07ZM133.42,110.81c.12,0,.21-.03.28-.1.06-.07.09-.16.09-.29s-.03-.23-.09-.29c-.06-.07-.15-.1-.28-.1s-.21.03-.28.1c-.06.07-.09.16-.09.29s.03.23.09.29c.06.06.15.1.28.1Z"/>
          <path id="DejaVuSans-Bold-2e" class="cls-10" d="M135.15,111.35h.65v.58h-.65v-.58Z"/>
          <path id="DejaVuSans-Bold-38" class="cls-10" d="M137.48,110.93c-.13,0-.23.03-.3.09-.07.06-.11.14-.11.25s.04.19.11.25c.07.06.17.09.3.09s.23-.03.3-.09c.07-.06.1-.14.1-.25s-.03-.19-.1-.25-.17-.09-.3-.09ZM136.97,110.75c-.16-.04-.29-.1-.37-.19-.08-.08-.13-.19-.13-.32,0-.19.09-.33.26-.43.17-.1.42-.15.75-.15s.58.05.75.15c.17.1.26.24.26.43,0,.13-.04.23-.13.32-.08.08-.21.15-.37.19.18.04.32.11.42.2.09.09.14.21.14.36,0,.22-.09.39-.27.5-.18.11-.44.17-.79.17s-.62-.06-.8-.17c-.18-.11-.27-.28-.27-.5,0-.14.05-.26.14-.36.09-.09.23-.16.42-.2ZM137.14,110.3c0,.09.03.16.09.2s.15.07.26.07.19-.02.25-.07c.06-.05.09-.12.09-.2s-.03-.16-.09-.2c-.06-.05-.14-.07-.25-.07s-.2.02-.26.07-.09.12-.09.2Z"/>
          <path id="DejaVuSans-Bold-36" class="cls-10" d="M140.12,110.83c-.12,0-.21.03-.28.1-.06.06-.09.16-.09.29s.03.23.09.29c.06.06.15.1.28.1s.22-.03.28-.1c.06-.07.09-.16.09-.29s-.03-.23-.09-.29c-.06-.07-.15-.1-.28-.1ZM140.99,109.76v.41c-.12-.04-.22-.08-.33-.1-.1-.02-.2-.03-.3-.03-.21,0-.37.05-.49.14-.12.09-.18.24-.2.42.08-.05.17-.09.26-.11.09-.02.2-.04.31-.04.28,0,.5.07.67.2.17.13.26.31.26.52,0,.24-.1.43-.29.57-.19.14-.44.22-.76.22-.35,0-.63-.1-.82-.29-.19-.2-.29-.47-.29-.83s.11-.66.34-.87c.23-.21.54-.32.93-.32.12,0,.25,0,.36.02s.23.04.35.07Z"/>
        </g>
      </g>
      <g id="text_15" data-name="text 15">
        <g>
          <path id="DejaVuSans-Bold-38-2" data-name="DejaVuSans-Bold-38" class="cls-10" d="M159.82,136.58c-.13,0-.23.03-.3.09-.07.06-.11.14-.11.25s.04.19.11.25c.07.06.17.09.3.09s.23-.03.3-.09c.07-.06.1-.14.1-.25s-.03-.19-.1-.25-.17-.09-.3-.09ZM159.31,136.39c-.16-.04-.29-.1-.37-.19-.08-.08-.13-.19-.13-.32,0-.19.09-.33.26-.43.17-.1.42-.15.75-.15s.58.05.75.15c.17.1.26.24.26.43,0,.13-.04.23-.13.32-.08.08-.21.15-.37.19.18.04.32.11.42.2.09.09.14.21.14.36,0,.22-.09.39-.27.5-.18.11-.44.17-.79.17s-.62-.06-.8-.17c-.18-.11-.27-.28-.27-.5,0-.14.05-.26.14-.36.09-.09.23-.16.42-.2ZM159.47,135.94c0,.09.03.16.09.2s.15.07.26.07.19-.02.25-.07c.06-.05.09-.12.09-.2s-.03-.16-.09-.2c-.06-.05-.14-.07-.25-.07s-.2.02-.26.07-.09.12-.09.2Z"/>
          <path id="DejaVuSans-Bold-2e-2" data-name="DejaVuSans-Bold-2e" class="cls-10" d="M161.5,137h.65v.58h-.65v-.58Z"/>
          <path id="DejaVuSans-Bold-35" class="cls-10" d="M162.92,135.35h1.74v.42h-1.18v.35c.05-.01.11-.02.16-.03.05,0,.11-.01.17-.01.33,0,.59.07.77.2s.28.33.28.57-.1.43-.3.57c-.2.14-.48.2-.83.2-.15,0-.31-.01-.46-.04-.15-.02-.3-.06-.45-.11v-.45c.15.07.29.12.42.16.13.03.26.05.38.05.17,0,.3-.03.4-.1.1-.07.15-.16.15-.28s-.05-.21-.15-.28c-.1-.07-.23-.1-.4-.1-.1,0-.21.01-.32.03-.11.02-.24.05-.37.1v-1.25Z"/>
          <path id="DejaVuSans-Bold-32" class="cls-10" d="M166.19,137.16h1.19v.42h-1.97v-.42l.99-.72c.09-.07.15-.13.2-.19s.06-.13.06-.2c0-.1-.04-.19-.13-.25s-.2-.1-.34-.1c-.11,0-.23.02-.36.06-.13.04-.27.1-.42.17v-.49c.16-.04.31-.08.47-.1.15-.02.3-.03.45-.03.32,0,.58.06.76.18.18.12.27.28.27.49,0,.12-.04.23-.11.34-.08.1-.24.25-.48.42l-.58.42Z"/>
        </g>
      </g>
      <g id="text_16" data-name="text 16">
        <g>
          <path id="DejaVuSans-Bold-37" class="cls-10" d="M185.12,157.11h2.04v.32l-1.06,1.91h-.68l1-1.81h-1.31v-.42Z"/>
          <path id="DejaVuSans-Bold-2e-3" data-name="DejaVuSans-Bold-2e" class="cls-10" d="M187.84,158.76h.65v.58h-.65v-.58Z"/>
          <path id="DejaVuSans-Bold-33" class="cls-10" d="M190.6,158.14c.18.04.32.11.42.2.1.1.14.22.14.37,0,.22-.1.39-.31.5-.21.12-.51.17-.9.17-.14,0-.28,0-.42-.03-.14-.02-.28-.05-.42-.08v-.44c.13.05.26.09.39.12.13.03.26.04.38.04.19,0,.33-.03.43-.08.1-.05.15-.13.15-.23s-.05-.18-.15-.23-.25-.08-.45-.08h-.28v-.37h.29c.18,0,.31-.02.39-.07.09-.05.13-.11.13-.21,0-.09-.04-.15-.13-.2-.08-.05-.2-.07-.35-.07-.11,0-.23.01-.34.03-.12.02-.23.05-.34.09v-.42c.14-.03.27-.06.41-.07s.27-.02.4-.02c.35,0,.62.05.79.14.18.09.26.24.26.43,0,.13-.04.24-.13.32-.08.08-.21.14-.37.18Z"/>
          <path id="DejaVuSans-Bold-38-3" data-name="DejaVuSans-Bold-38" class="cls-10" d="M192.76,158.34c-.13,0-.23.03-.3.09-.07.06-.11.14-.11.25s.04.19.11.25c.07.06.17.09.3.09s.23-.03.3-.09c.07-.06.1-.14.1-.25s-.03-.19-.1-.25-.17-.09-.3-.09ZM192.24,158.15c-.16-.04-.29-.1-.37-.19-.08-.08-.13-.19-.13-.32,0-.19.09-.33.26-.43.17-.1.42-.15.75-.15s.58.05.75.15c.17.1.26.24.26.43,0,.13-.04.23-.13.32-.08.08-.21.15-.37.19.18.04.32.11.42.2.09.09.14.21.14.36,0,.22-.09.39-.27.5-.18.11-.44.17-.79.17s-.62-.06-.8-.17c-.18-.11-.27-.28-.27-.5,0-.14.05-.26.14-.36.09-.09.23-.16.42-.2ZM192.41,157.71c0,.09.03.16.09.2s.15.07.26.07.19-.02.25-.07c.06-.05.09-.12.09-.2s-.03-.16-.09-.2c-.06-.05-.14-.07-.25-.07s-.2.02-.26.07-.09.12-.09.2Z"/>
        </g>
      </g>
      <g id="text_17" data-name="text 17">
        <g>
          <path id="DejaVuSans-Bold-36-2" data-name="DejaVuSans-Bold-36" class="cls-10" d="M212.56,176.52c-.12,0-.21.03-.28.1-.06.06-.09.16-.09.29s.03.23.09.29c.06.06.15.1.28.1s.22-.03.28-.1c.06-.07.09-.16.09-.29s-.03-.23-.09-.29c-.06-.07-.15-.1-.28-.1ZM213.42,175.45v.41c-.12-.04-.22-.08-.33-.1-.1-.02-.2-.03-.3-.03-.21,0-.37.05-.49.14-.12.09-.18.24-.2.42.08-.05.17-.09.26-.11.09-.02.2-.04.31-.04.28,0,.5.07.67.2.17.13.26.31.26.52,0,.24-.1.43-.29.57-.19.14-.44.22-.76.22-.35,0-.63-.1-.82-.29-.19-.2-.29-.47-.29-.83s.11-.66.34-.87c.23-.21.54-.32.93-.32.12,0,.25,0,.36.02s.23.04.35.07Z"/>
          <path id="DejaVuSans-Bold-2e-4" data-name="DejaVuSans-Bold-2e" class="cls-10" d="M214.18,177.04h.65v.58h-.65v-.58Z"/>
          <path id="DejaVuSans-Bold-34" class="cls-10" d="M216.58,175.86l-.77.93h.77v-.93ZM216.47,175.39h.78v1.41h.39v.42h-.39v.41h-.66v-.41h-1.2v-.49l1.09-1.33Z"/>
          <path id="DejaVuSans-Bold-32-2" data-name="DejaVuSans-Bold-32" class="cls-10" d="M218.87,177.19h1.19v.42h-1.97v-.42l.99-.72c.09-.07.15-.13.2-.19s.06-.13.06-.2c0-.1-.04-.19-.13-.25s-.2-.1-.34-.1c-.11,0-.23.02-.36.06-.13.04-.27.1-.42.17v-.49c.16-.04.31-.08.47-.1.15-.02.3-.03.45-.03.32,0,.58.06.76.18.18.12.27.28.27.49,0,.12-.04.23-.11.34-.08.1-.24.25-.48.42l-.58.42Z"/>
        </g>
      </g>
      <g id="text_18" data-name="text 18">
        <g>
          <path id="DejaVuSans-Bold-34-2" data-name="DejaVuSans-Bold-34" class="cls-10" d="M238.92,205.81l-.77.93h.77v-.93ZM238.8,205.34h.78v1.41h.39v.42h-.39v.41h-.66v-.41h-1.2v-.49l1.09-1.33Z"/>
          <path id="DejaVuSans-Bold-2e-5" data-name="DejaVuSans-Bold-2e" class="cls-10" d="M240.52,206.99h.65v.58h-.65v-.58Z"/>
          <path id="DejaVuSans-Bold-38-4" data-name="DejaVuSans-Bold-38" class="cls-10" d="M242.85,206.57c-.13,0-.23.03-.3.09-.07.06-.11.14-.11.25s.04.19.11.25c.07.06.17.09.3.09s.23-.03.3-.09c.07-.06.1-.14.1-.25s-.03-.19-.1-.25-.17-.09-.3-.09ZM242.34,206.38c-.16-.04-.29-.1-.37-.19-.08-.08-.13-.19-.13-.32,0-.19.09-.33.26-.43.17-.1.42-.15.75-.15s.58.05.75.15c.17.1.26.24.26.43,0,.13-.04.23-.13.32-.08.08-.21.15-.37.19.18.04.32.11.42.2.09.09.14.21.14.36,0,.22-.09.39-.27.5-.18.11-.44.17-.79.17s-.62-.06-.8-.17c-.18-.11-.27-.28-.27-.5,0-.14.05-.26.14-.36.09-.09.23-.16.42-.2ZM242.5,205.94c0,.09.03.16.09.2s.15.07.26.07.19-.02.25-.07c.06-.05.09-.12.09-.2s-.03-.16-.09-.2c-.06-.05-.14-.07-.25-.07s-.2.02-.26.07-.09.12-.09.2Z"/>
          <path id="DejaVuSans-Bold-36-3" data-name="DejaVuSans-Bold-36" class="cls-10" d="M245.49,206.47c-.12,0-.21.03-.28.1-.06.06-.09.16-.09.29s.03.23.09.29c.06.06.15.1.28.1s.22-.03.28-.1c.06-.07.09-.16.09-.29s-.03-.23-.09-.29c-.06-.07-.15-.1-.28-.1ZM246.35,205.4v.41c-.12-.04-.22-.08-.33-.1-.1-.02-.2-.03-.3-.03-.21,0-.37.05-.49.14-.12.09-.18.24-.2.42.08-.05.17-.09.26-.11.09-.02.2-.04.31-.04.28,0,.5.07.67.2.17.13.26.31.26.52,0,.24-.1.43-.29.57-.19.14-.44.22-.76.22-.35,0-.63-.1-.82-.29-.19-.2-.29-.47-.29-.83s.11-.66.34-.87c.23-.21.54-.32.93-.32.12,0,.25,0,.36.02s.23.04.35.07Z"/>
        </g>
      </g>
      <g id="text_19" data-name="text 19">
        <g>
          <path id="DejaVuSans-41-5" data-name="DejaVuSans-41" d="M142.9,87.55l-.7,1.55h1.4l-.7-1.55ZM142.61,87.13h.58l1.45,3.12h-.53l-.35-.8h-1.71l-.35.8h-.54l1.45-3.12Z"/>
          <path id="DejaVuSans-62-2" data-name="DejaVuSans-62" d="M147.22,89.08c0-.28-.07-.5-.21-.67s-.34-.24-.58-.24-.44.08-.58.24-.21.38-.21.67.07.5.21.67c.14.16.34.24.58.24s.44-.08.58-.24c.14-.16.21-.38.21-.67ZM145.62,88.27c.1-.14.22-.24.37-.31.15-.07.33-.1.54-.1.35,0,.63.11.84.34.22.23.32.52.32.89s-.11.66-.32.89c-.22.23-.5.34-.84.34-.21,0-.39-.03-.54-.1-.15-.07-.27-.17-.37-.31v.35h-.47v-3.25h.47v1.27Z"/>
          <path id="DejaVuSans-69-3" data-name="DejaVuSans-69" d="M148.48,87.91h.47v2.34h-.47v-2.34ZM148.48,87h.47v.49h-.47v-.49Z"/>
          <path id="DejaVuSans-6f-5" data-name="DejaVuSans-6f" d="M151.03,88.18c-.25,0-.45.08-.6.24s-.22.38-.22.66.07.5.22.66c.15.16.34.24.6.24s.45-.08.59-.24c.15-.16.22-.38.22-.66s-.07-.5-.22-.66c-.15-.16-.34-.24-.59-.24ZM151.03,87.86c.41,0,.73.11.96.33.23.22.35.52.35.9s-.12.68-.35.9c-.23.22-.55.33-.96.33s-.73-.11-.96-.33c-.23-.22-.35-.52-.35-.9s.12-.69.35-.9c.23-.22.55-.33.96-.33Z"/>
          <path id="DejaVuSans-74-2" data-name="DejaVuSans-74" d="M153.57,87.25v.66h.96v.3h-.96v1.27c0,.19.03.31.1.37s.19.08.39.08h.48v.32h-.48c-.36,0-.61-.06-.75-.17-.14-.11-.21-.31-.21-.61v-1.27h-.34v-.3h.34v-.66h.47Z"/>
          <path id="DejaVuSans-69-4" data-name="DejaVuSans-69" d="M155.15,87.91h.47v2.34h-.47v-2.34ZM155.15,87h.47v.49h-.47v-.49Z"/>
          <path id="DejaVuSans-63-2" data-name="DejaVuSans-63" d="M158.65,88v.36c-.13-.06-.27-.11-.4-.14s-.27-.04-.4-.04c-.3,0-.54.08-.71.24-.17.16-.25.38-.25.67s.08.51.25.67c.17.16.4.24.71.24.14,0,.27-.01.4-.04s.27-.07.4-.14v.36c-.13.05-.27.09-.41.11-.14.03-.29.04-.45.04-.43,0-.77-.11-1.02-.33-.25-.22-.38-.52-.38-.9s.13-.68.38-.9c.26-.22.61-.33,1.05-.33.14,0,.28.01.42.04.14.02.27.06.4.11Z"/>
          <path id="DejaVuSans-44-2" data-name="DejaVuSans-44" d="M161.66,87.48v2.43h.62c.52,0,.91-.1,1.15-.29.24-.2.36-.5.36-.92s-.12-.72-.36-.92-.63-.29-1.15-.29h-.62ZM161.14,87.13h1.06c.74,0,1.28.13,1.62.38.34.25.52.64.52,1.18s-.17.93-.52,1.19c-.35.25-.88.38-1.62.38h-1.06v-3.12Z"/>
          <path id="DejaVuSans-65-7" data-name="DejaVuSans-65" d="M167.57,88.99v.19h-2.15c.02.26.12.47.29.61.17.14.42.21.73.21.18,0,.35-.02.52-.05s.34-.09.5-.16v.36c-.17.06-.34.1-.52.13s-.36.05-.54.05c-.45,0-.81-.11-1.08-.33-.27-.22-.4-.51-.4-.88s.13-.69.38-.91c.25-.23.59-.34,1.02-.34.38,0,.69.1.91.3.22.2.33.48.33.83ZM167.1,88.87c0-.21-.07-.38-.21-.5-.14-.13-.33-.19-.56-.19-.26,0-.47.06-.63.18s-.25.29-.27.51h1.67Z"/>
          <path id="DejaVuSans-70-2" data-name="DejaVuSans-70" d="M168.79,89.9v1.24h-.47v-3.23h.47v.36c.1-.14.22-.24.37-.31.15-.07.33-.1.54-.1.35,0,.63.11.84.34.22.23.32.52.32.89s-.11.66-.32.89c-.22.23-.5.34-.84.34-.21,0-.39-.03-.54-.1-.15-.07-.27-.17-.37-.31ZM170.38,89.08c0-.28-.07-.5-.21-.67s-.34-.24-.58-.24-.44.08-.58.24-.21.38-.21.67.07.5.21.67c.14.16.34.24.58.24s.44-.08.58-.24c.14-.16.21-.38.21-.67Z"/>
          <path id="DejaVuSans-6c-2" data-name="DejaVuSans-6c" d="M171.65,87h.47v3.25h-.47v-3.25Z"/>
          <path id="DejaVuSans-65-8" data-name="DejaVuSans-65" d="M175.53,88.99v.19h-2.15c.02.26.12.47.29.61.17.14.42.21.73.21.18,0,.35-.02.52-.05s.34-.09.5-.16v.36c-.17.06-.34.1-.52.13s-.36.05-.54.05c-.45,0-.81-.11-1.08-.33-.27-.22-.4-.51-.4-.88s.13-.69.38-.91c.25-.23.59-.34,1.02-.34.38,0,.69.1.91.3.22.2.33.48.33.83ZM175.06,88.87c0-.21-.07-.38-.21-.5-.14-.13-.33-.19-.56-.19-.26,0-.47.06-.63.18s-.25.29-.27.51h1.67Z"/>
          <path id="DejaVuSans-74-3" data-name="DejaVuSans-74" d="M176.76,87.25v.66h.96v.3h-.96v1.27c0,.19.03.31.1.37s.19.08.39.08h.48v.32h-.48c-.36,0-.61-.06-.75-.17-.14-.11-.21-.31-.21-.61v-1.27h-.34v-.3h.34v-.66h.47Z"/>
          <path id="DejaVuSans-69-5" data-name="DejaVuSans-69" d="M178.34,87.91h.47v2.34h-.47v-2.34ZM178.34,87h.47v.49h-.47v-.49Z"/>
          <path id="DejaVuSans-6f-6" data-name="DejaVuSans-6f" d="M180.89,88.18c-.25,0-.45.08-.6.24s-.22.38-.22.66.07.5.22.66c.15.16.34.24.6.24s.45-.08.59-.24c.15-.16.22-.38.22-.66s-.07-.5-.22-.66c-.15-.16-.34-.24-.59-.24ZM180.89,87.86c.41,0,.73.11.96.33.23.22.35.52.35.9s-.12.68-.35.9c-.23.22-.55.33-.96.33s-.73-.11-.96-.33c-.23-.22-.35-.52-.35-.9s.12-.69.35-.9c.23-.22.55-.33.96-.33Z"/>
          <path id="DejaVuSans-6e-4" data-name="DejaVuSans-6e" d="M185.35,88.84v1.41h-.47v-1.4c0-.22-.05-.39-.16-.5-.11-.11-.26-.17-.47-.17-.25,0-.45.07-.6.2-.15.13-.22.31-.22.54v1.32h-.47v-2.34h.47v.36c.11-.14.24-.25.4-.32.15-.07.33-.1.53-.1.33,0,.57.08.74.25.17.17.25.41.25.73Z"/>
          <path id="DejaVuSans-50-2" data-name="DejaVuSans-50" d="M188.47,87.48v1.17h.65c.24,0,.42-.05.55-.15.13-.1.2-.25.2-.43s-.07-.33-.2-.43c-.13-.1-.32-.15-.55-.15h-.65ZM187.95,87.13h1.16c.43,0,.75.08.97.24.22.16.33.39.33.7s-.11.54-.33.7c-.22.16-.54.24-.97.24h-.65v1.25h-.51v-3.12Z"/>
          <path id="DejaVuSans-6f-7" data-name="DejaVuSans-6f" d="M191.99,88.18c-.25,0-.45.08-.6.24s-.22.38-.22.66.07.5.22.66c.15.16.34.24.6.24s.45-.08.59-.24c.15-.16.22-.38.22-.66s-.07-.5-.22-.66c-.15-.16-.34-.24-.59-.24ZM191.99,87.86c.41,0,.73.11.96.33.23.22.35.52.35.9s-.12.68-.35.9c-.23.22-.55.33-.96.33s-.73-.11-.96-.33c-.23-.22-.35-.52-.35-.9s.12-.69.35-.9c.23-.22.55-.33.96-.33Z"/>
          <path id="DejaVuSans-74-4" data-name="DejaVuSans-74" d="M194.54,87.25v.66h.96v.3h-.96v1.27c0,.19.03.31.1.37s.19.08.39.08h.48v.32h-.48c-.36,0-.61-.06-.75-.17-.14-.11-.21-.31-.21-.61v-1.27h-.34v-.3h.34v-.66h.47Z"/>
          <path id="DejaVuSans-65-9" data-name="DejaVuSans-65" d="M198.55,88.99v.19h-2.15c.02.26.12.47.29.61.17.14.42.21.73.21.18,0,.35-.02.52-.05s.34-.09.5-.16v.36c-.17.06-.34.1-.52.13s-.36.05-.54.05c-.45,0-.81-.11-1.08-.33-.27-.22-.4-.51-.4-.88s.13-.69.38-.91c.25-.23.59-.34,1.02-.34.38,0,.69.1.91.3.22.2.33.48.33.83ZM198.09,88.87c0-.21-.07-.38-.21-.5-.14-.13-.33-.19-.56-.19-.26,0-.47.06-.63.18s-.25.29-.27.51h1.67Z"/>
          <path id="DejaVuSans-6e-5" data-name="DejaVuSans-6e" d="M201.69,88.84v1.41h-.47v-1.4c0-.22-.05-.39-.16-.5-.11-.11-.26-.17-.47-.17-.25,0-.45.07-.6.2-.15.13-.22.31-.22.54v1.32h-.47v-2.34h.47v.36c.11-.14.24-.25.4-.32.15-.07.33-.1.53-.1.33,0,.57.08.74.25.17.17.25.41.25.73Z"/>
          <path id="DejaVuSans-74-5" data-name="DejaVuSans-74" d="M203.09,87.25v.66h.96v.3h-.96v1.27c0,.19.03.31.1.37s.19.08.39.08h.48v.32h-.48c-.36,0-.61-.06-.75-.17-.14-.11-.21-.31-.21-.61v-1.27h-.34v-.3h.34v-.66h.47Z"/>
          <path id="DejaVuSans-69-6" data-name="DejaVuSans-69" d="M204.67,87.91h.47v2.34h-.47v-2.34ZM204.67,87h.47v.49h-.47v-.49Z"/>
          <path id="DejaVuSans-61-4" data-name="DejaVuSans-61" d="M207.41,89.08c-.38,0-.64.04-.79.11s-.22.19-.22.36c0,.14.05.24.16.33.11.08.26.12.45.12.26,0,.47-.08.63-.23s.24-.35.24-.6v-.09h-.47ZM208.34,88.92v1.34h-.47v-.36c-.11.14-.24.25-.4.31-.16.07-.35.1-.59.1-.29,0-.52-.07-.7-.2-.17-.13-.26-.31-.26-.54,0-.26.11-.46.32-.6.21-.13.54-.2.96-.2h.66v-.04c0-.18-.07-.31-.21-.41s-.34-.15-.6-.15c-.16,0-.32.02-.48.05-.15.03-.3.08-.44.14v-.36c.17-.05.34-.09.5-.12.16-.03.32-.04.47-.04.41,0,.72.09.92.26.2.18.31.44.31.8Z"/>
          <path id="DejaVuSans-6c-3" data-name="DejaVuSans-6c" d="M209.31,87h.47v3.25h-.47v-3.25Z"/>
          <path id="DejaVuSans-62-3" data-name="DejaVuSans-62" d="M214.46,89.08c0-.28-.07-.5-.21-.67s-.34-.24-.58-.24-.44.08-.58.24-.21.38-.21.67.07.5.21.67c.14.16.34.24.58.24s.44-.08.58-.24c.14-.16.21-.38.21-.67ZM212.86,88.27c.1-.14.22-.24.37-.31.15-.07.33-.1.54-.1.35,0,.63.11.84.34.22.23.32.52.32.89s-.11.66-.32.89c-.22.23-.5.34-.84.34-.21,0-.39-.03-.54-.1-.15-.07-.27-.17-.37-.31v.35h-.47v-3.25h.47v1.27Z"/>
          <path id="DejaVuSans-79-2" data-name="DejaVuSans-79" d="M216.9,90.47c-.13.28-.26.46-.39.55-.13.09-.29.13-.5.13h-.37v-.32h.28c.13,0,.23-.03.3-.08.07-.05.15-.17.24-.36l.08-.18-1.15-2.3h.5l.89,1.83.89-1.83h.5l-1.25,2.56Z"/>
          <path id="DejaVuSans-52" d="M222.28,88.79c.11.03.22.1.32.2s.21.24.31.41l.52.85h-.55l-.49-.8c-.13-.21-.25-.35-.37-.42s-.28-.1-.48-.1h-.56v1.32h-.51v-3.12h1.16c.43,0,.76.07.97.22.21.15.32.37.32.68,0,.2-.06.36-.17.49-.11.13-.27.22-.48.27ZM220.99,87.48v1.11h.65c.25,0,.43-.05.56-.14s.19-.23.19-.41-.06-.32-.19-.41-.31-.14-.56-.14h-.65Z"/>
          <path id="DejaVuSans-65-10" data-name="DejaVuSans-65" d="M226.28,88.99v.19h-2.15c.02.26.12.47.29.61.17.14.42.21.73.21.18,0,.35-.02.52-.05s.34-.09.5-.16v.36c-.17.06-.34.1-.52.13s-.36.05-.54.05c-.45,0-.81-.11-1.08-.33-.27-.22-.4-.51-.4-.88s.13-.69.38-.91c.25-.23.59-.34,1.02-.34.38,0,.69.1.91.3.22.2.33.48.33.83ZM225.81,88.87c0-.21-.07-.38-.21-.5-.14-.13-.33-.19-.56-.19-.26,0-.47.06-.63.18s-.25.29-.27.51h1.67Z"/>
          <path id="DejaVuSans-67-2" data-name="DejaVuSans-67" d="M228.92,89.06c0-.28-.07-.49-.21-.65-.14-.15-.34-.23-.59-.23s-.45.08-.59.23c-.14.15-.21.37-.21.65s.07.49.21.65c.14.15.34.23.59.23s.45-.08.59-.23c.14-.15.21-.37.21-.65ZM229.39,89.96c0,.4-.11.69-.32.89-.21.19-.54.29-.99.29-.16,0-.32-.01-.47-.03s-.29-.05-.42-.09v-.37c.14.06.27.11.41.14.13.03.27.04.41.04.31,0,.54-.07.69-.2.15-.13.23-.33.23-.6v-.19c-.1.14-.22.24-.37.31s-.33.1-.54.1c-.35,0-.63-.11-.84-.33-.21-.22-.32-.51-.32-.87s.11-.65.32-.87c.21-.22.5-.33.84-.33.21,0,.39.03.54.1s.27.17.37.31v-.36h.47v2.05Z"/>
          <path id="DejaVuSans-69-7" data-name="DejaVuSans-69" d="M230.35,87.91h.47v2.34h-.47v-2.34ZM230.35,87h.47v.49h-.47v-.49Z"/>
          <path id="DejaVuSans-6f-8" data-name="DejaVuSans-6f" d="M232.91,88.18c-.25,0-.45.08-.6.24s-.22.38-.22.66.07.5.22.66c.15.16.34.24.6.24s.45-.08.59-.24c.15-.16.22-.38.22-.66s-.07-.5-.22-.66c-.15-.16-.34-.24-.59-.24ZM232.91,87.86c.41,0,.73.11.96.33.23.22.35.52.35.9s-.12.68-.35.9c-.23.22-.55.33-.96.33s-.73-.11-.96-.33c-.23-.22-.35-.52-.35-.9s.12-.69.35-.9c.23-.22.55-.33.96-.33Z"/>
          <path id="DejaVuSans-6e-6" data-name="DejaVuSans-6e" d="M237.36,88.84v1.41h-.47v-1.4c0-.22-.05-.39-.16-.5-.11-.11-.26-.17-.47-.17-.25,0-.45.07-.6.2-.15.13-.22.31-.22.54v1.32h-.47v-2.34h.47v.36c.11-.14.24-.25.4-.32.15-.07.33-.1.53-.1.33,0,.57.08.74.25.17.17.25.41.25.73Z"/>
        </g>
      </g>
    </g>
    <text class="cls-5" transform="translate(74.93 308.77)"><tspan class="cls-22" x="0" y="0">T</tspan><tspan x="2.94" y="0">he USA </tspan><tspan class="cls-21" x="22.33" y="0">r</tspan><tspan x="24.23" y="0">elies he</tspan><tspan class="cls-23" x="43.05" y="0">a</tspan><tspan x="45.89" y="0">vily on non-</tspan><tspan class="cls-21" x="75.39" y="0">r</tspan><tspan x="77.29" y="0">ene</tspan><tspan class="cls-19" x="86.63" y="0">w</tspan><tspan class="cls-4" x="91.02" y="0">able</tspan><tspan x="15.56" y="7.2">ene</tspan><tspan class="cls-23" x="24.91" y="7.2">r</tspan><tspan class="cls-15" x="26.82" y="7.2">g</tspan><tspan x="30.14" y="7.2">ies like </tspan><tspan class="cls-13" x="48.11" y="7.2">f</tspan><tspan x="49.78" y="7.2" xml:space="preserve">ossil fuels -  meaning</tspan><tspan x="2.97" y="14.4">mo</tspan><tspan class="cls-21" x="11.27" y="14.4">r</tspan><tspan x="13.17" y="14.4">e depletion of n</tspan><tspan class="cls-19" x="52.61" y="14.4">a</tspan><tspan x="55.48" y="14.4">tu</tspan><tspan class="cls-17" x="60.77" y="14.4">r</tspan><tspan x="62.7" y="14.4">al </tspan><tspan class="cls-20" x="68.28" y="14.4">r</tspan><tspan x="70.18" y="14.4">esou</tspan><tspan class="cls-20" x="82.16" y="14.4">r</tspan><tspan class="cls-16" x="84.06" y="14.4">c</tspan><tspan x="86.72" y="14.4">es per</tspan><tspan class="cls-25" x="16.01" y="21.6">k</tspan><tspan x="18.92" y="21.6">il</tspan><tspan class="cls-22" x="21.74" y="21.6">o</tspan><tspan class="cls-19" x="25" y="21.6">wa</tspan><tspan x="32.26" y="21.6">t</tspan><tspan class="cls-18" x="34.24" y="21.6">t</tspan><tspan x="36.2" y="21.6">-hour of ene</tspan><tspan class="cls-23" x="66.86" y="21.6">r</tspan><tspan class="cls-4" x="68.78" y="21.6">gy p</tspan><tspan class="cls-20" x="79.64" y="21.6">r</tspan><tspan x="81.54" y="21.6">odu</tspan><tspan class="cls-15" x="91.53" y="21.6">c</tspan><tspan class="cls-11" x="94.18" y="21.6">e</tspan><tspan class="cls-20" x="97.19" y="21.6">d</tspan><tspan x="100.51" y="21.6">.</tspan></text>
  </g>
</svg>