<?xml version="1.0" encoding="UTF-8"?>
<svg id="Layer_2" data-name="Layer 2" xmlns="http://www.w3.org/2000/svg" xmlns:xlink="http://www.w3.org/1999/xlink" viewBox="0 0 700 423">
  <defs>
    <style>
      .cls-1, .cls-2 {
        fill: none;
      }

      .cls-3 {
        fill: #e37539;
      }

      .cls-4 {
        font-family: MyriadPro-Regular, 'Myriad Pro';
        font-size: 12px;
      }

      .cls-5 {
        clip-path: url(#clippath-1);
      }

      .cls-6 {
        clip-path: url(#clippath-3);
      }

      .cls-7 {
        clip-path: url(#clippath-4);
      }

      .cls-8 {
        clip-path: url(#clippath-2);
      }

      .cls-9 {
        letter-spacing: 0em;
      }

      .cls-10 {
        letter-spacing: 0em;
      }

      .cls-11 {
        fill: #fff;
      }

      .cls-12 {
        letter-spacing: 0em;
      }

      .cls-13 {
        font-family: SourceSansRoman-Bold, 'Source Sans Variable';
        font-size: 28px;
        font-variation-settings: 'wght' 700;
        font-weight: 700;
      }

      .cls-14 {
        letter-spacing: -.07em;
      }

      .cls-15 {
        letter-spacing: -.03em;
      }

      .cls-16 {
        letter-spacing: -.01em;
      }

      .cls-17 {
        letter-spacing: -.02em;
      }

      .cls-18 {
        letter-spacing: -.01em;
      }

      .cls-19 {
        letter-spacing: -.05em;
      }

      .cls-20 {
        letter-spacing: -.04em;
      }

      .cls-21 {
        letter-spacing: -.04em;
      }

      .cls-22 {
        stroke-linejoin: round;
      }

      .cls-22, .cls-2 {
        stroke: #000;
        stroke-width: .8px;
      }

      .cls-23 {
        letter-spacing: 0em;
      }

      .cls-24 {
        letter-spacing: 0em;
      }

      .cls-25 {
        letter-spacing: 0em;
      }

      .cls-26 {
        letter-spacing: 0em;
      }

      .cls-27 {
        letter-spacing: 0em;
      }

      .cls-28 {
        letter-spacing: 0em;
      }

      .cls-2 {
        stroke-linecap: square;
      }

      .cls-29 {
        letter-spacing: -.01em;
      }

      .cls-30 {
        letter-spacing: -.01em;
      }

      .cls-31 {
        letter-spacing: 0em;
      }

      .cls-32 {
        letter-spacing: 0em;
      }

      .cls-33 {
        letter-spacing: 0em;
      }

      .cls-34 {
        letter-spacing: 0em;
      }

      .cls-35 {
        letter-spacing: 0em;
      }

      .cls-36 {
        letter-spacing: 0em;
      }

      .cls-37 {
        clip-path: url(#clippath);
      }

      .cls-38 {
        letter-spacing: .02em;
      }

      .cls-39 {
        fill: #f1b343;
      }
    </style>
    <clipPath id="clippath">
      <rect class="cls-1" x="73.29" y="152.55" width="390.81" height="223.61"/>
    </clipPath>
    <clipPath id="clippath-1">
      <rect class="cls-1" x="73.29" y="152.55" width="390.81" height="223.61"/>
    </clipPath>
    <clipPath id="clippath-2">
      <rect class="cls-1" x="73.29" y="152.55" width="390.81" height="223.61"/>
    </clipPath>
    <clipPath id="clippath-3">
      <rect class="cls-1" x="73.29" y="152.55" width="390.81" height="223.61"/>
    </clipPath>
    <clipPath id="clippath-4">
      <rect class="cls-1" x="73.29" y="152.55" width="390.81" height="223.61"/>
    </clipPath>
  </defs>
  <g id="ai2html-settings">
    <g>
      <path class="cls-1" d="M0,0v423h700V0H0ZM72.68,75.65c-6.45,0-6.43-9.95,0-9.95s6.43,9.95,0,9.95ZM270.37,194.94c-6.45,0-6.43-9.95,0-9.95s6.43,9.95,0,9.95ZM305.52,153.41c-6.45,0-6.43-9.95,0-9.95s6.43,9.95,0,9.95ZM470.91,207.33c-6.45,0-6.43-9.95,0-9.95s6.43,9.95,0,9.95Z"/>
      <text class="cls-13" transform="translate(73.74 51.31)"><tspan x="0" y="0">THE EN</tspan><tspan class="cls-36" x="89.35" y="0">V</tspan><tspan x="104.69" y="0">IRONMEN</tspan><tspan class="cls-21" x="223.35" y="0">T</tspan><tspan class="cls-36" x="237.8" y="0">A</tspan><tspan x="253.62" y="0">L IM</tspan><tspan class="cls-19" x="303.49" y="0">P</tspan><tspan class="cls-30" x="318.78" y="0">A</tspan><tspan class="cls-29" x="334.54" y="0">C</tspan><tspan x="350.5" y="0">T OF </tspan><tspan class="cls-35" x="411.09" y="0">A</tspan><tspan x="426.91" y="0">I</tspan><tspan class="cls-17" x="435.34" y="0">-</tspan><tspan class="cls-10" x="444.19" y="0">RE</tspan><tspan class="cls-24" x="476.7" y="0">L</tspan><tspan class="cls-14" x="491.03" y="0">A</tspan><tspan x="505.03" y="0">TED</tspan><tspan x="0" y="36">ENERG</tspan><tspan class="cls-15" x="84.33" y="36">Y</tspan><tspan x="98.33" y="36"> </tspan><tspan class="cls-20" x="103.93" y="36">C</tspan><tspan x="119.19" y="36">ONSUM</tspan><tspan class="cls-18" x="212.49" y="36">P</tspan><tspan x="228.79" y="36">TION</tspan></text>
      <g id="figure_1" data-name="figure 1">
        <g id="patch_1" data-name="patch 1">
          <path class="cls-11" d="M11,402h460V136H11v266Z"/>
        </g>
        <g id="axes_1" data-name="axes 1">
          <g id="patch_2" data-name="patch 2">
            <path class="cls-11" d="M73.29,376.16h390.81v-223.61H73.29v223.61Z"/>
          </g>
          <g id="patch_3" data-name="patch 3">
            <g class="cls-37">
              <path class="cls-3" d="M73.29,366h372.2v-33.88H73.29v33.88Z"/>
            </g>
          </g>
          <g id="patch_4" data-name="patch 4">
            <g class="cls-5">
              <path class="cls-39" d="M73.29,323.65h321.6v-33.88H73.29v33.88Z"/>
            </g>
          </g>
          <g id="patch_5" data-name="patch 5">
            <g class="cls-8">
              <path class="cls-39" d="M73.29,281.3h278.65v-33.88H73.29v33.88Z"/>
            </g>
          </g>
          <g id="patch_6" data-name="patch 6">
            <g class="cls-6">
              <path class="cls-39" d="M73.29,238.95h242.58v-33.88H73.29v33.88Z"/>
            </g>
          </g>
          <g id="patch_7" data-name="patch 7">
            <g class="cls-7">
              <path class="cls-39" d="M73.29,196.6h183.48v-33.88H73.29v33.88Z"/>
            </g>
          </g>
          <g id="matplotlib.axis_1" data-name="matplotlib.axis 1">
            <g id="xtick_1" data-name="xtick 1">
              <g id="line2d_1" data-name="line2d 1">
                <path id="m2ea6c773c6" class="cls-22" d="M73.29,376.16v2.16"/>
              </g>
              <g id="text_1" data-name="text 1">
                <path id="DejaVuSans-30" d="M73.28,381.06c-.32,0-.57.15-.73.46-.16.31-.24.77-.24,1.39s.08,1.08.24,1.38c.16.31.41.46.73.46s.57-.15.73-.46c.16-.31.25-.77.25-1.38s-.08-1.08-.25-1.39c-.16-.31-.41-.46-.73-.46ZM73.28,380.58c.52,0,.92.2,1.2.6.28.4.41.98.41,1.73s-.14,1.33-.41,1.73c-.28.4-.67.6-1.2.6s-.92-.2-1.2-.6c-.28-.4-.41-.98-.41-1.73s.14-1.34.41-1.73c.28-.4.67-.6,1.2-.6Z"/>
              </g>
            </g>
            <g id="xtick_2" data-name="xtick 2">
              <g id="line2d_2" data-name="line2d 2">
                <path id="m2ea6c773c6-2" data-name="m2ea6c773c6" class="cls-22" d="M148.82,376.16v2.16"/>
              </g>
              <g id="text_2" data-name="text 2">
                <path id="DejaVuSans-32" d="M148.01,384.64h2.2v.51h-2.96v-.51c.24-.24.56-.56.98-.96.41-.4.67-.66.78-.78.2-.22.34-.4.42-.55.08-.15.12-.3.12-.45,0-.24-.09-.43-.26-.58-.17-.15-.4-.23-.68-.23-.2,0-.41.03-.63.1-.22.07-.45.17-.7.3v-.61c.25-.1.49-.17.71-.22.22-.05.42-.08.61-.08.48,0,.87.12,1.15.35.29.23.43.54.43.93,0,.18-.04.36-.11.53-.07.16-.2.36-.39.58-.05.06-.22.23-.5.5-.28.28-.67.67-1.18,1.17Z"/>
              </g>
            </g>
            <g id="xtick_3" data-name="xtick 3">
              <g id="line2d_3" data-name="line2d 3">
                <path id="m2ea6c773c6-3" data-name="m2ea6c773c6" class="cls-22" d="M224.36,376.16v2.16"/>
              </g>
              <g id="text_3" data-name="text 3">
                <path id="DejaVuSans-34" d="M224.74,381.19l-1.59,2.4h1.59v-2.4ZM224.57,380.66h.79v2.93h.66v.51h-.66v1.06h-.63v-1.06h-2.1v-.59l1.94-2.84Z"/>
              </g>
            </g>
            <g id="xtick_4" data-name="xtick 4">
              <g id="line2d_4" data-name="line2d 4">
                <path id="m2ea6c773c6-4" data-name="m2ea6c773c6" class="cls-22" d="M299.89,376.16v2.16"/>
              </g>
              <g id="text_4" data-name="text 4">
                <path id="DejaVuSans-36" d="M299.97,382.67c-.28,0-.51.09-.67.28-.17.19-.25.44-.25.77s.08.58.25.77c.17.19.39.28.67.28s.51-.09.67-.28c.17-.19.25-.44.25-.77s-.08-.58-.25-.77c-.17-.19-.39-.28-.67-.28ZM301.22,380.76v.55c-.16-.07-.32-.13-.48-.16-.16-.04-.32-.06-.48-.06-.42,0-.73.14-.95.41-.22.27-.34.68-.38,1.23.12-.17.28-.31.46-.4.19-.09.39-.14.61-.14.47,0,.84.14,1.11.41.27.27.41.65.41,1.12s-.14.83-.42,1.11c-.28.28-.66.42-1.13.42-.54,0-.95-.2-1.24-.6-.28-.4-.43-.98-.43-1.73,0-.71.17-1.28.52-1.7.35-.42.82-.63,1.41-.63.16,0,.32.02.48.05s.33.08.5.13Z"/>
              </g>
            </g>
            <g id="xtick_5" data-name="xtick 5">
              <g id="line2d_5" data-name="line2d 5">
                <path id="m2ea6c773c6-5" data-name="m2ea6c773c6" class="cls-22" d="M375.43,376.16v2.16"/>
              </g>
              <g id="text_5" data-name="text 5">
                <path id="DejaVuSans-38" d="M375.43,383.02c-.3,0-.54.08-.71.23-.17.15-.26.37-.26.64s.09.48.26.64c.17.15.41.23.71.23s.54-.08.71-.23c.17-.16.26-.37.26-.64s-.09-.48-.26-.64c-.17-.15-.41-.23-.71-.23ZM374.8,382.76c-.27-.06-.48-.19-.63-.36-.15-.18-.23-.4-.23-.65,0-.36.13-.64.4-.85.27-.21.63-.31,1.09-.31s.83.1,1.09.31.4.49.4.85c0,.26-.08.47-.23.65-.15.18-.36.3-.63.36.3.07.54.2.71.4.17.2.25.44.25.73,0,.44-.14.77-.41,1-.28.23-.67.35-1.18.35s-.91-.12-1.18-.35c-.28-.23-.41-.57-.41-1,0-.29.09-.53.26-.73.17-.2.41-.33.71-.4ZM374.57,381.8c0,.23.08.41.23.54.15.13.36.2.63.2s.48-.07.63-.2c.15-.13.23-.31.23-.54s-.08-.41-.23-.54c-.15-.13-.36-.2-.63-.2s-.48.07-.63.2c-.15.13-.23.31-.23.54Z"/>
              </g>
            </g>
            <g id="xtick_6" data-name="xtick 6">
              <g id="line2d_6" data-name="line2d 6">
                <path id="m2ea6c773c6-6" data-name="m2ea6c773c6" class="cls-22" d="M450.97,376.16v2.16"/>
              </g>
              <g id="text_6" data-name="text 6">
                <g>
                  <path id="DejaVuSans-31" d="M447.69,384.64h1.03v-3.43l-1.12.22v-.55l1.11-.22h.63v3.98h1.03v.51h-2.68v-.51Z"/>
                  <path id="DejaVuSans-30-2" data-name="DejaVuSans-30" d="M453,381.06c-.32,0-.57.15-.73.46-.16.31-.24.77-.24,1.39s.08,1.08.24,1.38c.16.31.41.46.73.46s.57-.15.73-.46c.16-.31.25-.77.25-1.38s-.08-1.08-.25-1.39c-.16-.31-.41-.46-.73-.46ZM453,380.58c.52,0,.92.2,1.2.6.28.4.41.98.41,1.73s-.14,1.33-.41,1.73c-.28.4-.67.6-1.2.6s-.92-.2-1.2-.6c-.28-.4-.41-.98-.41-1.73s.14-1.34.41-1.73c.28-.4.67-.6,1.2-.6Z"/>
                </g>
              </g>
            </g>
            <g id="text_7" data-name="text 7">
              <g>
                <path id="DejaVuSans-41" d="M221.23,389.68l-.86,2.23h1.71l-.86-2.23ZM220.88,389.09h.71l1.77,4.49h-.65l-.42-1.15h-2.1l-.42,1.15h-.66l1.78-4.49Z"/>
                <path id="DejaVuSans-44" d="M224.68,389.58v3.49h.76c.64,0,1.11-.14,1.41-.42.3-.28.45-.72.45-1.33s-.15-1.04-.45-1.32-.77-.42-1.41-.42h-.76ZM224.05,389.09h1.29c.9,0,1.56.18,1.99.54.42.36.63.93.63,1.7s-.21,1.34-.64,1.71c-.42.36-1.09.54-1.98.54h-1.29v-4.49Z"/>
                <path id="DejaVuSans-50" d="M229.59,389.58v1.69h.79c.29,0,.52-.07.68-.22.16-.15.24-.35.24-.63s-.08-.48-.24-.62c-.16-.15-.39-.22-.68-.22h-.79ZM228.96,389.09h1.42c.52,0,.92.11,1.18.34.27.23.4.56.4,1s-.13.78-.4,1c-.27.23-.66.34-1.18.34h-.79v1.8h-.63v-4.49Z"/>
                <path id="DejaVuSans-65" d="M235.55,391.75v.27h-2.64c.03.38.14.67.36.87.21.2.51.3.89.3.22,0,.43-.03.64-.08s.41-.13.62-.23v.52c-.21.08-.42.15-.63.19s-.44.07-.66.07c-.56,0-1-.16-1.32-.47-.33-.31-.49-.74-.49-1.27s.15-.99.46-1.31c.31-.32.73-.49,1.25-.49.47,0,.84.15,1.12.44.27.29.41.69.41,1.19ZM234.98,391.59c0-.3-.09-.54-.26-.72-.17-.18-.4-.27-.68-.27-.32,0-.58.09-.77.26s-.3.42-.33.74h2.05Z"/>
                <path id="DejaVuSans-28" d="M239.9,388.9c-.28.46-.49.92-.62,1.37-.14.45-.2.91-.2,1.37s.07.92.2,1.37.34.91.62,1.37h-.5c-.31-.47-.54-.93-.7-1.39-.16-.45-.23-.91-.23-1.36s.08-.9.23-1.35c.15-.45.39-.92.7-1.39h.5Z"/>
                <path id="DejaVuSans-d7" d="M244.89,390.27l-1.43,1.38,1.43,1.37-.37.36-1.43-1.38-1.43,1.38-.37-.36,1.42-1.37-1.42-1.38.37-.36,1.43,1.38,1.43-1.38.37.36Z"/>
                <path id="DejaVuSans-31-2" data-name="DejaVuSans-31" d="M246.56,393.06h1.03v-3.43l-1.12.22v-.55l1.11-.22h.63v3.98h1.03v.51h-2.68v-.51Z"/>
                <path id="DejaVuSans-30-3" data-name="DejaVuSans-30" d="M251.86,389.49c-.32,0-.57.15-.73.46-.16.31-.24.77-.24,1.39s.08,1.08.24,1.38c.16.31.41.46.73.46s.57-.15.73-.46c.16-.31.25-.77.25-1.38s-.08-1.08-.25-1.39c-.16-.31-.41-.46-.73-.46ZM251.86,389c.52,0,.92.2,1.2.6.28.4.41.98.41,1.73s-.14,1.33-.41,1.73c-.28.4-.67.6-1.2.6s-.92-.2-1.2-.6c-.28-.4-.41-.98-.41-1.73s.14-1.34.41-1.73c.28-.4.67-.6,1.2-.6Z"/>
                <path id="DejaVuSans-5e" d="M256.88,389.09l1.69,1.68h-.63l-1.37-1.19-1.37,1.19h-.63l1.69-1.68h.61Z"/>
                <path id="DejaVuSans-2d" d="M259.56,391.64h1.68v.49h-1.68v-.49Z"/>
                <path id="DejaVuSans-38-2" data-name="DejaVuSans-38" d="M263.59,391.44c-.3,0-.54.08-.71.23-.17.15-.26.37-.26.64s.09.48.26.64c.17.15.41.23.71.23s.54-.08.71-.23c.17-.16.26-.37.26-.64s-.09-.48-.26-.64c-.17-.15-.41-.23-.71-.23ZM262.96,391.18c-.27-.06-.48-.19-.63-.36-.15-.18-.23-.4-.23-.65,0-.36.13-.64.4-.85.27-.21.63-.31,1.09-.31s.83.1,1.09.31.4.49.4.85c0,.26-.08.47-.23.65-.15.18-.36.3-.63.36.3.07.54.2.71.4.17.2.25.44.25.73,0,.44-.14.77-.41,1-.28.23-.67.35-1.18.35s-.91-.12-1.18-.35c-.28-.23-.41-.57-.41-1,0-.29.09-.53.26-.73.17-.2.41-.33.71-.4ZM262.72,390.23c0,.23.08.41.23.54.15.13.36.2.63.2s.48-.07.63-.2c.15-.13.23-.31.23-.54s-.08-.41-.23-.54c-.15-.13-.36-.2-.63-.2s-.48.07-.63.2c-.15.13-.23.31-.23.54Z"/>
                <path id="DejaVuSans-6b" d="M268.23,388.9h.58v2.76l1.71-1.45h.73l-1.85,1.57,1.93,1.79h-.75l-1.78-1.64v1.64h-.58v-4.68Z"/>
                <path id="DejaVuSans-67" d="M274.25,391.85c0-.4-.09-.71-.26-.93-.17-.22-.41-.33-.72-.33s-.55.11-.72.33c-.17.22-.26.53-.26.93s.09.71.26.93c.17.22.41.33.72.33s.55-.11.72-.33c.17-.22.26-.53.26-.93ZM274.82,393.16c0,.57-.13,1-.4,1.28-.26.28-.67.42-1.21.42-.2,0-.39-.01-.57-.04s-.35-.07-.52-.13v-.54c.17.09.33.15.5.19.16.04.33.06.5.06.38,0,.66-.09.85-.28.19-.19.28-.48.28-.86v-.27c-.12.2-.27.35-.46.45s-.41.15-.66.15c-.43,0-.77-.16-1.04-.47-.26-.31-.39-.73-.39-1.25s.13-.94.39-1.25c.26-.31.61-.47,1.04-.47.26,0,.48.05.66.15s.34.25.46.44v-.51h.57v2.95Z"/>
                <path id="DejaVuSans-53" d="M280.86,389.23v.59c-.24-.11-.46-.19-.68-.25-.21-.05-.42-.08-.61-.08-.34,0-.61.06-.79.19-.19.13-.28.31-.28.55,0,.2.06.35.19.45.12.1.36.18.7.24l.38.08c.47.09.82.24,1.04.46s.34.51.34.87c0,.44-.15.77-.45.99-.3.22-.75.34-1.33.34-.22,0-.45-.02-.7-.07-.25-.05-.51-.12-.77-.21v-.63c.26.14.51.24.75.31.25.07.49.1.72.1.36,0,.64-.07.83-.2.2-.14.29-.33.29-.58,0-.22-.07-.39-.21-.52s-.37-.22-.69-.28l-.38-.07c-.47-.09-.81-.23-1.02-.42-.21-.19-.31-.46-.31-.8,0-.4.15-.71.44-.94.29-.23.69-.34,1.2-.34.22,0,.44.02.67.06.23.04.46.09.7.17Z"/>
                <path id="DejaVuSans-62" d="M284.6,391.89c0-.41-.09-.73-.26-.96s-.41-.35-.72-.35-.54.12-.72.35-.26.55-.26.96.09.73.26.96c.17.23.41.35.72.35s.54-.12.72-.35c.17-.23.26-.55.26-.96ZM282.65,390.72c.12-.2.27-.35.46-.45.18-.1.4-.15.66-.15.42,0,.77.16,1.03.49.27.32.4.75.4,1.28s-.13.96-.4,1.28c-.26.32-.61.49-1.03.49-.26,0-.48-.05-.66-.15-.18-.1-.34-.25-.46-.45v.51h-.58v-4.68h.58v1.82Z"/>
                <path id="DejaVuSans-65-2" data-name="DejaVuSans-65" d="M291.17,391.75v.27h-2.64c.03.38.14.67.36.87.21.2.51.3.89.3.22,0,.43-.03.64-.08s.41-.13.62-.23v.52c-.21.08-.42.15-.63.19s-.44.07-.66.07c-.56,0-1-.16-1.32-.47-.33-.31-.49-.74-.49-1.27s.15-.99.46-1.31c.31-.32.73-.49,1.25-.49.47,0,.84.15,1.12.44.27.29.41.69.41,1.19ZM290.59,391.59c0-.3-.09-.54-.26-.72-.17-.18-.4-.27-.68-.27-.32,0-.58.09-.77.26s-.3.42-.33.74h2.05Z"/>
                <path id="DejaVuSans-71" d="M292.45,391.89c0,.41.09.73.26.96.17.23.41.35.72.35s.54-.12.72-.35c.18-.23.26-.55.26-.96s-.09-.73-.26-.96c-.17-.23-.41-.35-.72-.35s-.54.12-.72.35-.26.55-.26.96ZM294.41,393.07c-.12.2-.27.35-.46.45-.18.1-.4.15-.66.15-.42,0-.77-.16-1.03-.49-.26-.33-.4-.75-.4-1.28s.13-.96.4-1.28c.27-.32.61-.49,1.03-.49.26,0,.48.05.66.15.18.1.34.25.46.45v-.51h.57v4.65h-.57v-1.79Z"/>
                <path id="DejaVuSans-2f" d="M299.22,389.09h.53l-1.62,5.06h-.53l1.62-5.06Z"/>
                <path id="DejaVuSans-6b-2" data-name="DejaVuSans-6b" d="M302.36,388.9h.58v2.76l1.71-1.45h.73l-1.85,1.57,1.93,1.79h-.75l-1.78-1.64v1.64h-.58v-4.68Z"/>
                <path id="DejaVuSans-57" d="M305.69,389.09h.64l.98,3.79.98-3.79h.71l.98,3.79.98-3.79h.64l-1.17,4.49h-.79l-.98-3.9-.99,3.9h-.79l-1.17-4.49Z"/>
                <path id="DejaVuSans-68" d="M315.3,391.54v2.03h-.57v-2.01c0-.32-.06-.56-.19-.71-.13-.16-.32-.24-.58-.24-.31,0-.55.1-.73.29-.18.19-.27.45-.27.78v1.9h-.58v-4.68h.58v1.83c.14-.2.3-.35.49-.45.19-.1.4-.15.64-.15.4,0,.7.12.91.36.21.24.31.59.31,1.06Z"/>
                <path id="DejaVuSans-29" d="M316.36,388.9h.5c.31.47.54.94.7,1.39.16.45.23.9.23,1.35s-.08.9-.23,1.36c-.16.45-.39.92-.7,1.39h-.5c.28-.46.48-.92.62-1.37.14-.45.2-.91.2-1.37s-.07-.92-.2-1.37c-.14-.45-.34-.91-.62-1.37Z"/>
              </g>
            </g>
          </g>
          <g id="matplotlib.axis_2" data-name="matplotlib.axis 2">
            <g id="ytick_1" data-name="ytick 1">
              <g id="line2d_7" data-name="line2d 7">
                <path id="mba1110d7f2" class="cls-22" d="M73.29,349.06h-2.24"/>
              </g>
              <g id="text_8" data-name="text 8">
                <g>
                  <path id="DejaVuSans-55" d="M56.15,346.91h.63v2.73c0,.48.09.83.27,1.04.18.21.47.32.88.32s.7-.11.88-.32c.18-.21.27-.56.27-1.04v-2.73h.63v2.8c0,.58-.15,1.03-.45,1.33-.3.3-.74.45-1.33.45s-1.03-.15-1.33-.45c-.3-.3-.45-.74-.45-1.33v-2.8Z"/>
                  <path id="DejaVuSans-53-2" data-name="DejaVuSans-53" d="M63.69,347.06v.59c-.24-.11-.46-.19-.68-.25-.21-.05-.42-.08-.61-.08-.34,0-.61.06-.79.19-.19.13-.28.31-.28.55,0,.2.06.35.19.45.12.1.36.18.7.24l.38.08c.47.09.82.24,1.04.46s.34.51.34.87c0,.44-.15.77-.45.99-.3.22-.75.34-1.33.34-.22,0-.45-.02-.7-.07-.25-.05-.51-.12-.77-.21v-.63c.26.14.51.24.75.31.25.07.49.1.72.1.36,0,.64-.07.83-.2.2-.14.29-.33.29-.58,0-.22-.07-.39-.21-.52s-.37-.22-.69-.28l-.38-.07c-.47-.09-.81-.23-1.02-.42-.21-.19-.31-.46-.31-.8,0-.4.15-.71.44-.94.29-.23.69-.34,1.2-.34.22,0,.44.02.67.06.23.04.46.09.7.17Z"/>
                  <path id="DejaVuSans-41-2" data-name="DejaVuSans-41" d="M66.63,347.51l-.86,2.23h1.71l-.86-2.23ZM66.27,346.91h.71l1.77,4.49h-.65l-.42-1.15h-2.1l-.42,1.15h-.66l1.78-4.49Z"/>
                </g>
              </g>
            </g>
            <g id="ytick_2" data-name="ytick 2">
              <g id="line2d_8" data-name="line2d 8">
                <path id="mba1110d7f2-2" data-name="mba1110d7f2" class="cls-22" d="M73.29,306.71h-2.24"/>
              </g>
              <g id="text_9" data-name="text 9">
                <g>
                  <path id="DejaVuSans-43" d="M54.68,304.9v.64c-.21-.19-.44-.33-.68-.43-.24-.09-.5-.14-.77-.14-.53,0-.94.16-1.22.47s-.42.77-.42,1.36.14,1.04.42,1.36.69.47,1.22.47c.27,0,.53-.05.77-.14s.47-.24.68-.43v.63c-.22.14-.45.25-.7.33-.25.07-.51.11-.78.11-.71,0-1.26-.21-1.67-.62-.41-.42-.61-.98-.61-1.7s.2-1.29.61-1.71c.41-.42.96-.62,1.67-.62.28,0,.54.04.79.11.25.07.48.18.69.32Z"/>
                  <path id="DejaVuSans-68-2" data-name="DejaVuSans-68" d="M58.53,307.01v2.03h-.57v-2.01c0-.32-.06-.56-.19-.71-.13-.16-.32-.24-.58-.24-.31,0-.55.1-.73.29-.18.19-.27.45-.27.78v1.9h-.58v-4.68h.58v1.83c.14-.2.3-.35.49-.45.19-.1.4-.15.64-.15.4,0,.7.12.91.36.21.24.31.59.31,1.06Z"/>
                  <path id="DejaVuSans-69" d="M59.68,305.68h.57v3.37h-.57v-3.37ZM59.68,304.37h.57v.7h-.57v-.7Z"/>
                  <path id="DejaVuSans-6e" d="M64.36,307.01v2.03h-.57v-2.01c0-.32-.06-.56-.19-.71-.13-.16-.32-.24-.58-.24-.31,0-.55.1-.73.29-.18.19-.27.45-.27.78v1.9h-.58v-3.37h.58v.52c.14-.2.3-.35.49-.45.19-.1.4-.15.64-.15.4,0,.7.12.91.36.21.24.31.59.31,1.06Z"/>
                  <path id="DejaVuSans-61" d="M67.09,307.36c-.46,0-.79.05-.96.15s-.27.28-.27.52c0,.2.07.35.2.47.13.11.32.17.55.17.32,0,.57-.11.77-.33s.29-.51.29-.87v-.12h-.57ZM68.23,307.13v1.92h-.57v-.51c-.13.2-.29.35-.49.45-.2.1-.43.15-.72.15-.36,0-.64-.1-.85-.29-.21-.19-.32-.45-.32-.78,0-.38.13-.66.39-.86.26-.19.66-.29,1.18-.29h.81v-.05c0-.25-.09-.45-.26-.59s-.42-.21-.73-.21c-.2,0-.39.02-.58.07-.19.05-.37.12-.55.21v-.51c.21-.08.41-.14.61-.18.2-.04.39-.06.58-.06.51,0,.88.13,1.13.38.25.25.37.63.37,1.15Z"/>
                </g>
              </g>
            </g>
            <g id="ytick_3" data-name="ytick 3">
              <g id="line2d_9" data-name="line2d 9">
                <path id="mba1110d7f2-3" data-name="mba1110d7f2" class="cls-22" d="M73.29,264.36h-2.24"/>
              </g>
              <g id="text_10" data-name="text 10">
                <g>
                  <path id="DejaVuSans-57-2" data-name="DejaVuSans-57" d="M35.73,262.21h.64l.98,3.79.98-3.79h.71l.98,3.79.98-3.79h.64l-1.17,4.49h-.79l-.98-3.9-.99,3.9h-.79l-1.17-4.49Z"/>
                  <path id="DejaVuSans-6f" d="M43.42,263.72c-.31,0-.55.12-.73.35s-.27.55-.27.95.09.72.27.95c.18.23.42.35.73.35s.55-.12.73-.35c.18-.23.27-.55.27-.95s-.09-.72-.27-.95c-.18-.23-.42-.35-.73-.35ZM43.42,263.25c.5,0,.89.16,1.18.47.29.31.43.74.43,1.3s-.14.98-.43,1.3c-.28.31-.68.47-1.18.47s-.89-.16-1.18-.47c-.28-.31-.43-.75-.43-1.3s.14-.99.43-1.3c.28-.31.68-.47,1.18-.47Z"/>
                  <path id="DejaVuSans-72" d="M48,263.85c-.06-.04-.13-.06-.21-.08-.08-.02-.16-.03-.25-.03-.32,0-.57.1-.75.3s-.26.5-.26.88v1.77h-.58v-3.37h.58v.52c.12-.2.28-.36.47-.46.19-.1.43-.15.71-.15.04,0,.08,0,.13,0,.05,0,.1.01.16.02v.57Z"/>
                  <path id="DejaVuSans-6c" d="M48.6,262.02h.57v4.68h-.57v-4.68Z"/>
                  <path id="DejaVuSans-64" d="M52.67,263.84v-1.82h.57v4.68h-.57v-.51c-.12.2-.27.35-.46.45-.18.1-.4.15-.66.15-.42,0-.77-.16-1.03-.49-.26-.33-.4-.75-.4-1.28s.13-.96.4-1.28c.27-.32.61-.49,1.03-.49.26,0,.48.05.66.15.18.1.34.25.46.45ZM50.72,265.02c0,.41.09.73.26.96.17.23.41.35.72.35s.54-.12.72-.35c.18-.23.26-.55.26-.96s-.09-.73-.26-.96c-.17-.23-.41-.35-.72-.35s-.54.12-.72.35-.26.55-.26.96Z"/>
                  <path id="DejaVuSans-77" d="M54.09,263.33h.57l.72,2.63.71-2.63h.68l.72,2.63.71-2.63h.57l-.91,3.37h-.68l-.75-2.76-.75,2.76h-.68l-.91-3.37Z"/>
                  <path id="DejaVuSans-69-2" data-name="DejaVuSans-69" d="M59.65,263.33h.57v3.37h-.57v-3.37ZM59.65,262.02h.57v.7h-.57v-.7Z"/>
                  <path id="DejaVuSans-64-2" data-name="DejaVuSans-64" d="M63.73,263.84v-1.82h.57v4.68h-.57v-.51c-.12.2-.27.35-.46.45-.18.1-.4.15-.66.15-.42,0-.77-.16-1.03-.49-.26-.33-.4-.75-.4-1.28s.13-.96.4-1.28c.27-.32.61-.49,1.03-.49.26,0,.48.05.66.15.18.1.34.25.46.45ZM61.77,265.02c0,.41.09.73.26.96.17.23.41.35.72.35s.54-.12.72-.35c.18-.23.26-.55.26-.96s-.09-.73-.26-.96c-.17-.23-.41-.35-.72-.35s-.54.12-.72.35-.26.55-.26.96Z"/>
                  <path id="DejaVuSans-65-3" data-name="DejaVuSans-65" d="M68.47,264.87v.27h-2.64c.03.38.14.67.36.87.21.2.51.3.89.3.22,0,.43-.03.64-.08s.41-.13.62-.23v.52c-.21.08-.42.15-.63.19s-.44.07-.66.07c-.56,0-1-.16-1.32-.47-.33-.31-.49-.74-.49-1.27s.15-.99.46-1.31c.31-.32.73-.49,1.25-.49.47,0,.84.15,1.12.44.27.29.41.69.41,1.19ZM67.9,264.71c0-.3-.09-.54-.26-.72-.17-.18-.4-.27-.68-.27-.32,0-.58.09-.77.26s-.3.42-.33.74h2.05Z"/>
                </g>
              </g>
            </g>
            <g id="ytick_4" data-name="ytick 4">
              <g id="line2d_10" data-name="line2d 10">
                <path id="mba1110d7f2-4" data-name="mba1110d7f2" class="cls-22" d="M73.29,222.01h-2.24"/>
              </g>
              <g id="text_11" data-name="text 11">
                <g>
                  <path id="DejaVuSans-45" d="M27.51,219.86h2.94v.51h-2.31v1.33h2.22v.51h-2.22v1.63h2.37v.51h-3v-4.49Z"/>
                  <path id="DejaVuSans-75" d="M31.47,223.02v-2.04h.57v2.02c0,.32.06.56.19.72.13.16.32.24.58.24.31,0,.55-.1.73-.29.18-.19.27-.45.27-.78v-1.91h.57v3.37h-.57v-.52c-.14.2-.3.36-.49.46-.18.1-.4.15-.64.15-.4,0-.71-.12-.91-.36-.21-.24-.31-.59-.31-1.06Z"/>
                  <path id="DejaVuSans-72-2" data-name="DejaVuSans-72" d="M37.6,221.5c-.06-.04-.13-.06-.21-.08-.08-.02-.16-.03-.25-.03-.32,0-.57.1-.75.3s-.26.5-.26.88v1.77h-.58v-3.37h.58v.52c.12-.2.28-.36.47-.46.19-.1.43-.15.71-.15.04,0,.08,0,.13,0,.05,0,.1.01.16.02v.57Z"/>
                  <path id="DejaVuSans-6f-2" data-name="DejaVuSans-6f" d="M39.41,221.37c-.31,0-.55.12-.73.35s-.27.55-.27.95.09.72.27.95c.18.23.42.35.73.35s.55-.12.73-.35c.18-.23.27-.55.27-.95s-.09-.72-.27-.95c-.18-.23-.42-.35-.73-.35ZM39.41,220.9c.5,0,.89.16,1.18.47.29.31.43.74.43,1.3s-.14.98-.43,1.3c-.28.31-.68.47-1.18.47s-.89-.16-1.18-.47c-.28-.31-.43-.75-.43-1.3s.14-.99.43-1.3c.28-.31.68-.47,1.18-.47Z"/>
                  <path id="DejaVuSans-70" d="M42.52,223.84v1.79h-.58v-4.65h.58v.51c.12-.2.27-.35.46-.45.18-.1.4-.15.66-.15.42,0,.77.16,1.03.49.27.32.4.75.4,1.28s-.13.96-.4,1.28c-.26.32-.61.49-1.03.49-.26,0-.48-.05-.66-.15-.18-.1-.34-.25-.46-.45ZM44.48,222.67c0-.41-.09-.73-.26-.96s-.41-.35-.72-.35-.54.12-.72.35-.26.55-.26.96.09.73.26.96c.17.23.41.35.72.35s.54-.12.72-.35c.17-.23.26-.55.26-.96Z"/>
                  <path id="DejaVuSans-65-4" data-name="DejaVuSans-65" d="M49.01,222.52v.27h-2.64c.03.38.14.67.36.87.21.2.51.3.89.3.22,0,.43-.03.64-.08s.41-.13.62-.23v.52c-.21.08-.42.15-.63.19s-.44.07-.66.07c-.56,0-1-.16-1.32-.47-.33-.31-.49-.74-.49-1.27s.15-.99.46-1.31c.31-.32.73-.49,1.25-.49.47,0,.84.15,1.12.44.27.29.41.69.41,1.19ZM48.44,222.36c0-.3-.09-.54-.26-.72-.17-.18-.4-.27-.68-.27-.32,0-.58.09-.77.26s-.3.42-.33.74h2.05Z"/>
                  <path id="DejaVuSans-28-2" data-name="DejaVuSans-28" d="M53.36,219.67c-.28.46-.49.92-.62,1.37-.14.45-.2.91-.2,1.37s.07.92.2,1.37.34.91.62,1.37h-.5c-.31-.47-.54-.93-.7-1.39-.16-.45-.23-.91-.23-1.36s.08-.9.23-1.35c.15-.45.39-.92.7-1.39h.5Z"/>
                  <path id="DejaVuSans-45-2" data-name="DejaVuSans-45" d="M54.5,219.86h2.94v.51h-2.31v1.33h2.22v.51h-2.22v1.63h2.37v.51h-3v-4.49Z"/>
                  <path id="DejaVuSans-45-3" data-name="DejaVuSans-45" d="M58.54,219.86h2.94v.51h-2.31v1.33h2.22v.51h-2.22v1.63h2.37v.51h-3v-4.49Z"/>
                  <path id="DejaVuSans-41-3" data-name="DejaVuSans-41" d="M64.13,220.46l-.86,2.23h1.71l-.86-2.23ZM63.78,219.86h.71l1.77,4.49h-.65l-.42-1.15h-2.1l-.42,1.15h-.66l1.78-4.49Z"/>
                  <path id="DejaVuSans-29-2" data-name="DejaVuSans-29" d="M66.83,219.67h.5c.31.47.54.94.7,1.39.16.45.23.9.23,1.35s-.08.9-.23,1.36c-.16.45-.39.92-.7,1.39h-.5c.28-.46.48-.92.62-1.37.14-.45.2-.91.2-1.37s-.07-.92-.2-1.37c-.14-.45-.34-.91-.62-1.37Z"/>
                </g>
              </g>
            </g>
            <g id="ytick_5" data-name="ytick 5">
              <g id="line2d_11" data-name="line2d 11">
                <path id="mba1110d7f2-5" data-name="mba1110d7f2" class="cls-22" d="M73.29,179.66h-2.24"/>
              </g>
              <g id="text_12" data-name="text 12">
                <g>
                  <path id="DejaVuSans-46" d="M48.19,177.51h2.68v.51h-2.05v1.32h1.85v.51h-1.85v2.14h-.63v-4.49Z"/>
                  <path id="DejaVuSans-72-3" data-name="DejaVuSans-72" d="M53.41,179.14c-.06-.04-.13-.06-.21-.08-.08-.02-.16-.03-.25-.03-.32,0-.57.1-.75.3s-.26.5-.26.88v1.77h-.58v-3.37h.58v.52c.12-.2.28-.36.47-.46.19-.1.43-.15.71-.15.04,0,.08,0,.13,0,.05,0,.1.01.16.02v.57Z"/>
                  <path id="DejaVuSans-61-2" data-name="DejaVuSans-61" d="M55.6,180.3c-.46,0-.79.05-.96.15s-.27.28-.27.52c0,.2.07.35.2.47.13.11.32.17.55.17.32,0,.57-.11.77-.33s.29-.51.29-.87v-.12h-.57ZM56.74,180.07v1.92h-.57v-.51c-.13.2-.29.35-.49.45-.2.1-.43.15-.72.15-.36,0-.64-.1-.85-.29-.21-.19-.32-.45-.32-.78,0-.38.13-.66.39-.86.26-.19.66-.29,1.18-.29h.81v-.05c0-.25-.09-.45-.26-.59s-.42-.21-.73-.21c-.2,0-.39.02-.58.07-.19.05-.37.12-.55.21v-.51c.21-.08.41-.14.61-.18.2-.04.39-.06.58-.06.51,0,.88.13,1.13.38.25.25.37.63.37,1.15Z"/>
                  <path id="DejaVuSans-6e-2" data-name="DejaVuSans-6e" d="M60.83,179.96v2.03h-.57v-2.01c0-.32-.06-.56-.19-.71-.13-.16-.32-.24-.58-.24-.31,0-.55.1-.73.29-.18.19-.27.45-.27.78v1.9h-.58v-3.37h.58v.52c.14-.2.3-.35.49-.45.19-.1.4-.15.64-.15.4,0,.7.12.91.36.21.24.31.59.31,1.06Z"/>
                  <path id="DejaVuSans-63" d="M64.49,178.76v.52c-.16-.09-.33-.15-.49-.19s-.33-.06-.49-.06c-.37,0-.66.11-.87.34-.21.23-.31.55-.31.96s.1.73.31.96c.21.23.5.34.87.34.17,0,.33-.02.49-.06s.33-.11.49-.19v.51c-.16.07-.33.13-.5.16-.17.04-.35.05-.55.05-.53,0-.94-.16-1.25-.48-.31-.32-.46-.75-.46-1.29s.16-.98.47-1.29c.31-.31.74-.47,1.29-.47.18,0,.35.02.52.05.17.03.33.09.49.16Z"/>
                  <path id="DejaVuSans-65-5" data-name="DejaVuSans-65" d="M68.47,180.17v.27h-2.64c.03.38.14.67.36.87.21.2.51.3.89.3.22,0,.43-.03.64-.08s.41-.13.62-.23v.52c-.21.08-.42.15-.63.19s-.44.07-.66.07c-.56,0-1-.16-1.32-.47-.33-.31-.49-.74-.49-1.27s.15-.99.46-1.31c.31-.32.73-.49,1.25-.49.47,0,.84.15,1.12.44.27.29.41.69.41,1.19ZM67.9,180.01c0-.3-.09-.54-.26-.72-.17-.18-.4-.27-.68-.27-.32,0-.58.09-.77.26s-.3.42-.33.74h2.05Z"/>
                </g>
              </g>
            </g>
            <g id="text_13" data-name="text 13">
              <g>
                <path id="DejaVuSans-41-4" data-name="DejaVuSans-41" d="M18.97,286.67l2.32.82v-1.65l-2.32.83ZM18.35,287.02v-.69l4.66-1.71v.63l-1.19.41v2.02l1.19.41v.64l-4.66-1.71Z"/>
                <path id="DejaVuSans-72-4" data-name="DejaVuSans-72" d="M20.05,282.03c-.04.06-.06.13-.08.2-.02.07-.03.15-.03.24,0,.31.11.55.32.72s.51.25.91.25h1.84v.56h-3.49v-.56h.54c-.21-.12-.37-.27-.47-.45-.1-.19-.15-.41-.15-.68,0-.04,0-.08,0-.13,0-.05.01-.1.02-.15h.59Z"/>
                <path id="DejaVuSans-65-6" data-name="DejaVuSans-65" d="M21.11,278.71h.28v2.54c.4-.02.7-.14.9-.34.21-.21.31-.49.31-.86,0-.21-.03-.42-.08-.62s-.14-.4-.24-.59h.54c.09.2.15.4.2.61s.07.42.07.63c0,.54-.16.96-.49,1.28-.32.31-.76.47-1.32.47s-1.03-.15-1.36-.45c-.34-.3-.5-.7-.5-1.2,0-.45.15-.81.45-1.07.3-.26.71-.4,1.23-.4ZM20.94,279.27c-.31,0-.56.09-.75.25-.19.17-.28.38-.28.66,0,.31.09.56.27.74s.44.29.76.32v-1.97Z"/>
                <path id="DejaVuSans-61-3" data-name="DejaVuSans-61" d="M21.25,276.27c0,.45.05.76.16.93s.29.26.54.26c.2,0,.37-.06.49-.19.12-.13.18-.31.18-.53,0-.31-.11-.55-.34-.74s-.53-.28-.9-.28h-.13v.55ZM21.01,275.17h1.99v.55h-.53c.21.13.37.28.47.47.1.19.15.42.15.69,0,.34-.1.62-.3.82-.2.2-.47.3-.81.3-.39,0-.69-.13-.89-.38-.2-.25-.3-.63-.3-1.14v-.78h-.06c-.26,0-.47.08-.61.25s-.22.4-.22.71c0,.19.02.38.07.56.05.18.12.36.22.53h-.53c-.08-.2-.14-.4-.18-.59-.04-.19-.06-.38-.06-.56,0-.49.13-.85.39-1.09.26-.24.66-.36,1.19-.36Z"/>
                <path id="DejaVuSans-6f-3" data-name="DejaVuSans-6f" d="M19.91,270.77c0,.3.12.53.36.7s.57.26.99.26.75-.09.99-.26c.24-.17.36-.41.36-.71s-.12-.53-.36-.7c-.24-.17-.57-.26-.99-.26s-.74.09-.98.26c-.24.17-.36.41-.36.7ZM19.43,270.77c0-.48.16-.86.49-1.13.32-.28.77-.41,1.35-.41s1.02.14,1.35.41c.33.27.49.65.49,1.13s-.16.86-.49,1.14c-.33.27-.77.41-1.35.41s-1.02-.14-1.35-.41c-.32-.27-.49-.65-.49-1.14Z"/>
                <path id="DejaVuSans-72-5" data-name="DejaVuSans-72" d="M20.05,266.36c-.04.06-.06.13-.08.2-.02.07-.03.15-.03.24,0,.31.11.55.32.72s.51.25.91.25h1.84v.56h-3.49v-.56h.54c-.21-.12-.37-.27-.47-.45-.1-.19-.15-.41-.15-.68,0-.04,0-.08,0-.13,0-.05.01-.1.02-.15h.59Z"/>
                <path id="DejaVuSans-43-2" data-name="DejaVuSans-43" d="M18.71,260.43h.66c-.2.2-.35.42-.44.65-.1.23-.15.48-.15.74,0,.51.16.91.49,1.18s.8.41,1.41.41,1.08-.14,1.41-.41.49-.67.49-1.18c0-.26-.05-.51-.15-.74s-.25-.45-.44-.65h.66c.15.21.26.44.34.68.07.24.11.49.11.75,0,.68-.22,1.22-.65,1.61-.43.39-1.02.59-1.77.59s-1.34-.2-1.77-.59c-.43-.39-.65-.93-.65-1.61,0-.27.04-.52.11-.76.07-.24.18-.46.33-.67Z"/>
                <path id="DejaVuSans-6f-4" data-name="DejaVuSans-6f" d="M19.91,258.21c0,.3.12.53.36.7s.57.26.99.26.75-.09.99-.26c.24-.17.36-.41.36-.71s-.12-.53-.36-.7c-.24-.17-.57-.26-.99-.26s-.74.09-.98.26c-.24.17-.36.41-.36.7ZM19.43,258.21c0-.48.16-.86.49-1.13.32-.28.77-.41,1.35-.41s1.02.14,1.35.41c.33.27.49.65.49,1.13s-.16.86-.49,1.14c-.33.27-.77.41-1.35.41s-1.02-.14-1.35-.41c-.32-.27-.49-.65-.49-1.14Z"/>
                <path id="DejaVuSans-75-2" data-name="DejaVuSans-75" d="M21.63,255.81h-2.12v-.55h2.09c.33,0,.58-.06.74-.19.17-.12.25-.31.25-.56,0-.3-.1-.53-.3-.71-.2-.17-.47-.26-.81-.26h-1.98v-.55h3.49v.55h-.54c.21.13.37.29.47.47.1.18.15.38.15.62,0,.39-.12.68-.37.88-.25.2-.61.3-1.1.3Z"/>
                <path id="DejaVuSans-6e-3" data-name="DejaVuSans-6e" d="M20.89,249.05h2.11v.55h-2.09c-.33,0-.58.06-.74.19-.16.12-.25.31-.25.56,0,.3.1.53.3.71.2.17.47.26.81.26h1.97v.56h-3.49v-.56h.54c-.21-.13-.37-.29-.47-.47-.1-.18-.16-.39-.16-.62,0-.39.12-.68.37-.88.25-.2.61-.3,1.1-.3Z"/>
                <path id="DejaVuSans-74" d="M18.52,247.4h.99v-1.14h.45v1.14h1.9c.28,0,.47-.04.55-.11s.12-.23.12-.46v-.57h.48v.57c0,.43-.08.72-.25.88-.17.16-.47.24-.9.24h-1.9v.41h-.45v-.41h-.99v-.56Z"/>
                <path id="DejaVuSans-72-6" data-name="DejaVuSans-72" d="M20.05,243.58c-.04.06-.06.13-.08.2-.02.07-.03.15-.03.24,0,.31.11.55.32.72s.51.25.91.25h1.84v.56h-3.49v-.56h.54c-.21-.12-.37-.27-.47-.45-.1-.19-.15-.41-.15-.68,0-.04,0-.08,0-.13,0-.05.01-.1.02-.15h.59Z"/>
                <path id="DejaVuSans-79" d="M23.33,241.6c.42.16.69.31.81.46.13.15.19.35.19.59v.44h-.48v-.33c0-.15-.04-.27-.11-.35-.07-.08-.25-.18-.53-.28l-.26-.1-3.44,1.36v-.59l2.73-1.05-2.73-1.05v-.59l3.82,1.48Z"/>
              </g>
            </g>
          </g>
          <g id="patch_8" data-name="patch 8">
            <path class="cls-2" d="M73.29,376.16v-223.61"/>
          </g>
          <g id="patch_9" data-name="patch 9">
            <path class="cls-2" d="M464.1,376.16v-223.61"/>
          </g>
          <g id="patch_10" data-name="patch 10">
            <path class="cls-2" d="M73.29,376.16h390.81"/>
          </g>
          <g id="patch_11" data-name="patch 11">
            <path class="cls-2" d="M73.29,152.55h390.81"/>
          </g>
          <g id="text_14" data-name="text 14">
            <g>
              <path id="DejaVuSans-Bold-39" class="cls-11" d="M354.83,350.66v-.83c.19.09.37.15.55.19.18.04.35.06.52.06.36,0,.64-.1.84-.29.2-.19.32-.48.35-.85-.14.1-.29.18-.45.23s-.33.08-.52.08c-.48,0-.86-.13-1.15-.4-.29-.27-.44-.62-.44-1.06,0-.48.16-.87.49-1.16s.76-.44,1.31-.44c.61,0,1.08.2,1.41.59.33.39.5.95.5,1.67s-.19,1.33-.58,1.75c-.39.42-.92.64-1.6.64-.22,0-.43-.02-.63-.05-.2-.03-.39-.08-.59-.14ZM356.31,348.5c.21,0,.37-.07.47-.2.11-.13.16-.33.16-.59s-.05-.46-.16-.59c-.11-.13-.26-.2-.47-.2s-.37.07-.47.2c-.11.13-.16.33-.16.59s.05.46.16.59c.11.13.26.2.47.2Z"/>
              <path id="DejaVuSans-Bold-2e" class="cls-11" d="M359.29,349.59h1.12v1.16h-1.12v-1.16Z"/>
              <path id="DejaVuSans-Bold-38" class="cls-11" d="M363.29,348.75c-.22,0-.4.06-.52.18-.12.12-.18.29-.18.51s.06.39.18.51c.12.12.29.18.52.18s.39-.06.51-.18c.12-.12.18-.29.18-.51s-.06-.39-.18-.51-.29-.18-.51-.18ZM362.41,348.37c-.28-.08-.5-.21-.64-.38-.14-.17-.21-.38-.21-.64,0-.38.15-.67.44-.86.29-.2.72-.3,1.29-.3s.99.1,1.28.3c.29.2.44.49.44.87,0,.25-.07.47-.22.64-.14.17-.36.3-.64.38.32.08.55.22.72.41.16.19.24.43.24.72,0,.45-.15.78-.46,1.01-.31.23-.76.34-1.36.34s-1.06-.11-1.37-.34c-.31-.23-.46-.56-.46-1.01,0-.29.08-.53.24-.72.16-.19.4-.33.72-.41ZM362.69,347.47c0,.18.05.32.15.41s.25.14.44.14.33-.05.43-.14c.1-.1.15-.23.15-.41s-.05-.31-.15-.41c-.1-.1-.25-.14-.43-.14s-.34.05-.44.14-.15.23-.15.41Z"/>
              <path id="DejaVuSans-Bold-36" class="cls-11" d="M367.82,348.54c-.21,0-.37.07-.47.2-.11.13-.16.33-.16.59s.05.46.16.59c.11.13.26.2.47.2s.37-.07.48-.2c.11-.13.16-.33.16-.59s-.05-.46-.16-.59c-.11-.13-.26-.2-.48-.2ZM369.31,346.39v.83c-.2-.09-.38-.16-.56-.2-.17-.04-.34-.06-.51-.06-.36,0-.64.1-.84.29-.2.19-.32.47-.35.85.14-.1.29-.17.45-.22.16-.05.34-.07.53-.07.48,0,.86.13,1.15.4.29.27.44.62.44,1.05,0,.48-.16.87-.49,1.16-.33.29-.76.43-1.31.43-.6,0-1.07-.2-1.41-.59-.33-.39-.5-.95-.5-1.68s.19-1.32.58-1.75c.39-.42.92-.64,1.6-.64.21,0,.42.02.62.05s.4.08.6.14Z"/>
            </g>
          </g>
          <g id="text_15" data-name="text 15">
            <g>
              <path id="DejaVuSans-Bold-38-2" data-name="DejaVuSans-Bold-38" class="cls-11" d="M305.81,306.4c-.22,0-.4.06-.52.18-.12.12-.18.29-.18.51s.06.39.18.51c.12.12.29.18.52.18s.39-.06.51-.18c.12-.12.18-.29.18-.51s-.06-.39-.18-.51-.29-.18-.51-.18ZM304.93,306.02c-.28-.08-.5-.21-.64-.38-.14-.17-.21-.38-.21-.64,0-.38.15-.67.44-.86.29-.2.72-.3,1.29-.3s.99.1,1.28.3c.29.2.44.49.44.87,0,.25-.07.47-.22.64-.14.17-.36.3-.64.38.32.08.55.22.72.41.16.19.24.43.24.72,0,.45-.15.78-.46,1.01-.31.23-.76.34-1.36.34s-1.06-.11-1.37-.34c-.31-.23-.46-.56-.46-1.01,0-.29.08-.53.24-.72.16-.19.4-.33.72-.41ZM305.21,305.12c0,.18.05.32.15.41s.25.14.44.14.33-.05.43-.14c.1-.1.15-.23.15-.41s-.05-.31-.15-.41c-.1-.1-.25-.14-.43-.14s-.34.05-.44.14-.15.23-.15.41Z"/>
              <path id="DejaVuSans-Bold-2e-2" data-name="DejaVuSans-Bold-2e" class="cls-11" d="M308.68,307.24h1.12v1.16h-1.12v-1.16Z"/>
              <path id="DejaVuSans-Bold-35" class="cls-11" d="M311.13,303.92h2.99v.85h-2.03v.69c.09-.02.18-.04.28-.06.09-.01.19-.02.29-.02.57,0,1.01.14,1.33.41s.47.66.47,1.14-.17.86-.52,1.14c-.34.27-.82.41-1.43.41-.26,0-.53-.02-.78-.07-.26-.05-.52-.12-.77-.22v-.91c.25.14.49.25.72.32.23.07.44.1.64.1.29,0,.52-.07.69-.21.17-.14.25-.32.25-.56s-.08-.42-.25-.56c-.17-.14-.4-.2-.69-.2-.17,0-.36.02-.55.07-.19.04-.4.11-.63.2v-2.53Z"/>
              <path id="DejaVuSans-Bold-32" class="cls-11" d="M316.74,307.56h2.05v.85h-3.39v-.85l1.7-1.45c.15-.13.26-.26.34-.39s.11-.26.11-.39c0-.21-.07-.38-.22-.51s-.34-.19-.58-.19c-.19,0-.39.04-.61.12-.22.08-.46.19-.71.34v-.99c.27-.09.54-.15.8-.2.26-.05.52-.07.78-.07.56,0,.99.12,1.3.36.31.24.46.57.46.99,0,.24-.07.47-.2.68-.13.21-.41.49-.83.85l-1,.84Z"/>
            </g>
          </g>
          <g id="text_16" data-name="text 16">
            <g>
              <path id="DejaVuSans-Bold-37" class="cls-11" d="M261.07,261.57h3.51v.65l-1.82,3.84h-1.17l1.72-3.64h-2.24v-.85Z"/>
              <path id="DejaVuSans-Bold-2e-3" data-name="DejaVuSans-Bold-2e" class="cls-11" d="M265.74,264.89h1.12v1.16h-1.12v-1.16Z"/>
              <path id="DejaVuSans-Bold-33" class="cls-11" d="M270.49,263.64c.31.08.55.21.72.41.16.19.25.44.25.74,0,.45-.18.78-.53,1.02-.35.23-.87.35-1.55.35-.24,0-.48-.02-.72-.06-.24-.04-.48-.09-.71-.17v-.89c.22.11.45.19.67.25.22.06.44.08.65.08.32,0,.56-.05.73-.16.17-.11.25-.26.25-.46s-.09-.36-.26-.46-.43-.16-.77-.16h-.48v-.75h.51c.3,0,.53-.05.67-.14.15-.09.22-.23.22-.42,0-.17-.07-.3-.22-.4-.14-.09-.35-.14-.61-.14-.19,0-.39.02-.59.06-.2.04-.39.1-.59.19v-.85c.24-.06.47-.11.7-.14s.46-.05.69-.05c.6,0,1.06.1,1.36.29.3.19.45.48.45.86,0,.26-.07.48-.22.64-.14.17-.36.29-.64.35Z"/>
              <path id="DejaVuSans-Bold-38-3" data-name="DejaVuSans-Bold-38" class="cls-11" d="M274.18,264.05c-.22,0-.4.06-.52.18-.12.12-.18.29-.18.51s.06.39.18.51c.12.12.29.18.52.18s.39-.06.51-.18c.12-.12.18-.29.18-.51s-.06-.39-.18-.51-.29-.18-.51-.18ZM273.3,263.67c-.28-.08-.5-.21-.64-.38-.14-.17-.21-.38-.21-.64,0-.38.15-.67.44-.86.29-.2.72-.3,1.29-.3s.99.1,1.28.3c.29.2.44.49.44.87,0,.25-.07.47-.22.64-.14.17-.36.3-.64.38.32.08.55.22.72.41.16.19.24.43.24.72,0,.45-.15.78-.46,1.01-.31.23-.76.34-1.36.34s-1.06-.11-1.37-.34c-.31-.23-.46-.56-.46-1.01,0-.29.08-.53.24-.72.16-.19.4-.33.72-.41ZM273.59,262.77c0,.18.05.32.15.41s.25.14.44.14.33-.05.43-.14c.1-.1.15-.23.15-.41s-.05-.31-.15-.41c-.1-.1-.25-.14-.43-.14s-.34.05-.44.14-.15.23-.15.41Z"/>
            </g>
          </g>
          <g id="text_17" data-name="text 17">
            <g>
              <path id="DejaVuSans-Bold-36-2" data-name="DejaVuSans-Bold-36" class="cls-11" d="M226.88,221.49c-.21,0-.37.07-.47.2-.11.13-.16.33-.16.59s.05.46.16.59c.11.13.26.2.47.2s.37-.07.48-.2c.11-.13.16-.33.16-.59s-.05-.46-.16-.59c-.11-.13-.26-.2-.48-.2ZM228.37,219.33v.83c-.2-.09-.38-.16-.56-.2-.17-.04-.34-.06-.51-.06-.36,0-.64.1-.84.29-.2.19-.32.47-.35.85.14-.1.29-.17.45-.22.16-.05.34-.07.53-.07.48,0,.86.13,1.15.4.29.27.44.62.44,1.05,0,.48-.16.87-.49,1.16-.33.29-.76.43-1.31.43-.6,0-1.07-.2-1.41-.59-.33-.39-.5-.95-.5-1.68s.19-1.32.58-1.75c.39-.42.92-.64,1.6-.64.21,0,.42.02.62.05s.4.08.6.14Z"/>
              <path id="DejaVuSans-Bold-2e-4" data-name="DejaVuSans-Bold-2e" class="cls-11" d="M229.67,222.54h1.12v1.16h-1.12v-1.16Z"/>
              <path id="DejaVuSans-Bold-34" class="cls-11" d="M233.8,220.17l-1.32,1.88h1.32v-1.88ZM233.6,219.22h1.34v2.83h.66v.84h-.66v.82h-1.14v-.82h-2.06v-.99l1.86-2.68Z"/>
              <path id="DejaVuSans-Bold-32-2" data-name="DejaVuSans-Bold-32" class="cls-11" d="M237.73,222.86h2.05v.85h-3.39v-.85l1.7-1.45c.15-.13.26-.26.34-.39s.11-.26.11-.39c0-.21-.07-.38-.22-.51s-.34-.19-.58-.19c-.19,0-.39.04-.61.12-.22.08-.46.19-.71.34v-.99c.27-.09.54-.15.8-.2.26-.05.52-.07.78-.07.56,0,.99.12,1.3.36.31.24.46.57.46.99,0,.24-.07.47-.2.68-.13.21-.41.49-.83.85l-1,.84Z"/>
            </g>
          </g>
          <g id="text_18" data-name="text 18">
            <g>
              <path id="DejaVuSans-Bold-34-2" data-name="DejaVuSans-Bold-34" class="cls-11" d="M167.82,177.82l-1.32,1.88h1.32v-1.88ZM167.62,176.87h1.34v2.83h.66v.84h-.66v.82h-1.14v-.82h-2.06v-.99l1.86-2.68Z"/>
              <path id="DejaVuSans-Bold-2e-5" data-name="DejaVuSans-Bold-2e" class="cls-11" d="M170.56,180.19h1.12v1.16h-1.12v-1.16Z"/>
              <path id="DejaVuSans-Bold-38-4" data-name="DejaVuSans-Bold-38" class="cls-11" d="M174.56,179.35c-.22,0-.4.06-.52.18-.12.12-.18.29-.18.51s.06.39.18.51c.12.12.29.18.52.18s.39-.06.51-.18c.12-.12.18-.29.18-.51s-.06-.39-.18-.51-.29-.18-.51-.18ZM173.68,178.96c-.28-.08-.5-.21-.64-.38-.14-.17-.21-.38-.21-.64,0-.38.15-.67.44-.86.29-.2.72-.3,1.29-.3s.99.1,1.28.3c.29.2.44.49.44.87,0,.25-.07.47-.22.64-.14.17-.36.3-.64.38.32.08.55.22.72.41.16.19.24.43.24.72,0,.45-.15.78-.46,1.01-.31.23-.76.34-1.36.34s-1.06-.11-1.37-.34c-.31-.23-.46-.56-.46-1.01,0-.29.08-.53.24-.72.16-.19.4-.33.72-.41ZM173.96,178.07c0,.18.05.32.15.41s.25.14.44.14.33-.05.43-.14c.1-.1.15-.23.15-.41s-.05-.31-.15-.41c-.1-.1-.25-.14-.43-.14s-.34.05-.44.14-.15.23-.15.41Z"/>
              <path id="DejaVuSans-Bold-36-3" data-name="DejaVuSans-Bold-36" class="cls-11" d="M179.09,179.14c-.21,0-.37.07-.47.2-.11.13-.16.33-.16.59s.05.46.16.59c.11.13.26.2.47.2s.37-.07.48-.2c.11-.13.16-.33.16-.59s-.05-.46-.16-.59c-.11-.13-.26-.2-.48-.2ZM180.58,176.98v.83c-.2-.09-.38-.16-.56-.2-.17-.04-.34-.06-.51-.06-.36,0-.64.1-.84.29-.2.19-.32.47-.35.85.14-.1.29-.17.45-.22.16-.05.34-.07.53-.07.48,0,.86.13,1.15.4.29.27.44.62.44,1.05,0,.48-.16.87-.49,1.16-.33.29-.76.43-1.31.43-.6,0-1.07-.2-1.41-.59-.33-.39-.5-.95-.5-1.68s.19-1.32.58-1.75c.39-.42.92-.64,1.6-.64.21,0,.42.02.62.05s.4.08.6.14Z"/>
            </g>
          </g>
          <g id="text_19" data-name="text 19">
            <g>
              <path id="DejaVuSans-41-5" data-name="DejaVuSans-41" d="M200.17,144.19l-1.03,2.68h2.06l-1.03-2.68ZM199.74,143.47h.86l2.13,5.39h-.79l-.51-1.38h-2.52l-.51,1.38h-.8l2.13-5.39Z"/>
              <path id="DejaVuSans-62-2" data-name="DejaVuSans-62" d="M206.53,146.84c0-.49-.1-.87-.31-1.15s-.49-.42-.86-.42-.65.14-.86.42-.31.66-.31,1.15.1.87.31,1.15c.21.28.5.42.86.42s.65-.14.86-.42c.21-.28.31-.66.31-1.15ZM204.18,145.43c.15-.24.33-.42.55-.53.22-.12.49-.18.79-.18.51,0,.92.19,1.24.58.32.39.48.9.48,1.54s-.16,1.15-.48,1.54c-.32.39-.73.58-1.24.58-.31,0-.57-.06-.79-.18-.22-.12-.4-.3-.55-.54v.61h-.69v-5.61h.69v2.19Z"/>
              <path id="DejaVuSans-69-3" data-name="DejaVuSans-69" d="M208.38,144.82h.69v4.04h-.69v-4.04ZM208.38,143.24h.69v.84h-.69v-.84Z"/>
              <path id="DejaVuSans-6f-5" data-name="DejaVuSans-6f" d="M212.14,145.28c-.37,0-.66.14-.88.42s-.32.66-.32,1.14.11.86.32,1.14c.21.28.51.42.88.42s.66-.14.87-.42c.21-.28.32-.66.32-1.14s-.11-.86-.32-1.14c-.21-.28-.5-.42-.87-.42ZM212.14,144.72c.6,0,1.07.19,1.41.56.34.37.51.89.51,1.56s-.17,1.18-.51,1.56c-.34.38-.81.56-1.41.56s-1.07-.19-1.41-.56c-.34-.38-.51-.9-.51-1.56s.17-1.18.51-1.56c.34-.38.81-.56,1.41-.56Z"/>
              <path id="DejaVuSans-74-2" data-name="DejaVuSans-74" d="M215.89,143.67v1.15h1.42v.52h-1.42v2.19c0,.33.05.54.14.63s.28.14.57.14h.71v.56h-.71c-.53,0-.9-.1-1.1-.29-.2-.19-.3-.54-.3-1.04v-2.19h-.51v-.52h.51v-1.15h.69Z"/>
              <path id="DejaVuSans-69-4" data-name="DejaVuSans-69" d="M218.21,144.82h.69v4.04h-.69v-4.04ZM218.21,143.24h.69v.84h-.69v-.84Z"/>
              <path id="DejaVuSans-63-2" data-name="DejaVuSans-63" d="M223.36,144.97v.62c-.19-.1-.39-.18-.59-.23s-.39-.08-.59-.08c-.45,0-.79.14-1.04.41-.25.27-.37.66-.37,1.15s.12.88.37,1.15c.25.27.59.41,1.04.41.2,0,.4-.03.59-.08s.39-.13.59-.23v.61c-.19.09-.39.15-.6.19-.21.04-.42.07-.66.07-.63,0-1.13-.19-1.51-.57-.37-.38-.56-.9-.56-1.55s.19-1.18.56-1.55c.38-.38.89-.57,1.55-.57.21,0,.42.02.62.06.2.04.4.1.59.19Z"/>
              <path id="DejaVuSans-44-2" data-name="DejaVuSans-44" d="M227.78,144.07v4.19h.91c.77,0,1.34-.17,1.69-.5.36-.34.54-.87.54-1.6s-.18-1.25-.54-1.59-.92-.5-1.69-.5h-.91ZM227.02,143.47h1.55c1.08,0,1.88.22,2.38.65.51.43.76,1.11.76,2.04s-.25,1.61-.76,2.05c-.51.43-1.3.65-2.38.65h-1.55v-5.39Z"/>
              <path id="DejaVuSans-65-7" data-name="DejaVuSans-65" d="M236.48,146.67v.32h-3.17c.03.46.17.81.43,1.04.26.24.61.36,1.07.36.26,0,.52-.03.77-.09s.5-.16.74-.28v.63c-.25.1-.5.18-.76.23s-.52.08-.79.08c-.67,0-1.2-.19-1.59-.56-.39-.38-.59-.88-.59-1.52s.19-1.19.56-1.57c.37-.39.87-.58,1.5-.58.56,0,1.01.18,1.34.53.33.35.49.82.49,1.43ZM235.8,146.47c0-.36-.11-.65-.32-.87-.21-.22-.48-.33-.82-.33-.38,0-.69.1-.92.31s-.36.5-.4.88h2.46Z"/>
              <path id="DejaVuSans-70-2" data-name="DejaVuSans-70" d="M238.28,148.25v2.14h-.69v-5.58h.69v.61c.15-.24.33-.42.55-.53.22-.12.49-.18.79-.18.51,0,.92.19,1.24.58.32.39.48.9.48,1.54s-.16,1.15-.48,1.54c-.32.39-.73.58-1.24.58-.31,0-.57-.06-.79-.18-.22-.12-.4-.3-.55-.54ZM240.62,146.84c0-.49-.1-.87-.31-1.15s-.49-.42-.86-.42-.65.14-.86.42-.31.66-.31,1.15.1.87.31,1.15c.21.28.5.42.86.42s.65-.14.86-.42c.21-.28.31-.66.31-1.15Z"/>
              <path id="DejaVuSans-6c-2" data-name="DejaVuSans-6c" d="M242.48,143.24h.69v5.61h-.69v-5.61Z"/>
              <path id="DejaVuSans-65-8" data-name="DejaVuSans-65" d="M248.2,146.67v.32h-3.17c.03.46.17.81.43,1.04.26.24.61.36,1.07.36.26,0,.52-.03.77-.09s.5-.16.74-.28v.63c-.25.1-.5.18-.76.23s-.52.08-.79.08c-.67,0-1.2-.19-1.59-.56-.39-.38-.59-.88-.59-1.52s.19-1.19.56-1.57c.37-.39.87-.58,1.5-.58.56,0,1.01.18,1.34.53.33.35.49.82.49,1.43ZM247.51,146.47c0-.36-.11-.65-.32-.87-.21-.22-.48-.33-.82-.33-.38,0-.69.1-.92.31s-.36.5-.4.88h2.46Z"/>
              <path id="DejaVuSans-74-3" data-name="DejaVuSans-74" d="M250.01,143.67v1.15h1.42v.52h-1.42v2.19c0,.33.05.54.14.63s.28.14.57.14h.71v.56h-.71c-.53,0-.9-.1-1.1-.29-.2-.19-.3-.54-.3-1.04v-2.19h-.51v-.52h.51v-1.15h.69Z"/>
              <path id="DejaVuSans-69-5" data-name="DejaVuSans-69" d="M252.33,144.82h.69v4.04h-.69v-4.04ZM252.33,143.24h.69v.84h-.69v-.84Z"/>
              <path id="DejaVuSans-6f-6" data-name="DejaVuSans-6f" d="M256.09,145.28c-.37,0-.66.14-.88.42s-.32.66-.32,1.14.11.86.32,1.14c.21.28.51.42.88.42s.66-.14.87-.42c.21-.28.32-.66.32-1.14s-.11-.86-.32-1.14c-.21-.28-.5-.42-.87-.42ZM256.09,144.72c.6,0,1.07.19,1.41.56.34.37.51.89.51,1.56s-.17,1.18-.51,1.56c-.34.38-.81.56-1.41.56s-1.07-.19-1.41-.56c-.34-.38-.51-.9-.51-1.56s.17-1.18.51-1.56c.34-.38.81-.56,1.41-.56Z"/>
              <path id="DejaVuSans-6e-4" data-name="DejaVuSans-6e" d="M262.64,146.42v2.44h-.69v-2.42c0-.38-.08-.67-.23-.86-.15-.19-.39-.29-.7-.29-.37,0-.67.11-.88.34-.21.23-.32.54-.32.93v2.28h-.69v-4.04h.69v.63c.17-.24.36-.42.58-.54.22-.12.48-.18.77-.18.48,0,.85.14,1.09.43.25.29.37.71.37,1.27Z"/>
              <path id="DejaVuSans-50-2" data-name="DejaVuSans-50" d="M267.24,144.07v2.02h.95c.35,0,.62-.09.82-.26.19-.18.29-.43.29-.75s-.1-.57-.29-.75c-.19-.18-.46-.26-.82-.26h-.95ZM266.48,143.47h1.71c.63,0,1.1.14,1.42.41.32.27.48.67.48,1.2s-.16.93-.48,1.21c-.32.27-.79.41-1.42.41h-.95v2.16h-.76v-5.39Z"/>
              <path id="DejaVuSans-6f-7" data-name="DejaVuSans-6f" d="M272.42,145.28c-.37,0-.66.14-.88.42s-.32.66-.32,1.14.11.86.32,1.14c.21.28.51.42.88.42s.66-.14.87-.42c.21-.28.32-.66.32-1.14s-.11-.86-.32-1.14c-.21-.28-.5-.42-.87-.42ZM272.42,144.72c.6,0,1.07.19,1.41.56.34.37.51.89.51,1.56s-.17,1.18-.51,1.56c-.34.38-.81.56-1.41.56s-1.07-.19-1.41-.56c-.34-.38-.51-.9-.51-1.56s.17-1.18.51-1.56c.34-.38.81-.56,1.41-.56Z"/>
              <path id="DejaVuSans-74-4" data-name="DejaVuSans-74" d="M276.17,143.67v1.15h1.42v.52h-1.42v2.19c0,.33.05.54.14.63s.28.14.57.14h.71v.56h-.71c-.53,0-.9-.1-1.1-.29-.2-.19-.3-.54-.3-1.04v-2.19h-.51v-.52h.51v-1.15h.69Z"/>
              <path id="DejaVuSans-65-9" data-name="DejaVuSans-65" d="M282.08,146.67v.32h-3.17c.03.46.17.81.43,1.04.26.24.61.36,1.07.36.26,0,.52-.03.77-.09s.5-.16.74-.28v.63c-.25.1-.5.18-.76.23s-.52.08-.79.08c-.67,0-1.2-.19-1.59-.56-.39-.38-.59-.88-.59-1.52s.19-1.19.56-1.57c.37-.39.87-.58,1.5-.58.56,0,1.01.18,1.34.53.33.35.49.82.49,1.43ZM281.39,146.47c0-.36-.11-.65-.32-.87-.21-.22-.48-.33-.82-.33-.38,0-.69.1-.92.31s-.36.5-.4.88h2.46Z"/>
              <path id="DejaVuSans-6e-5" data-name="DejaVuSans-6e" d="M286.69,146.42v2.44h-.69v-2.42c0-.38-.08-.67-.23-.86-.15-.19-.39-.29-.7-.29-.37,0-.67.11-.88.34-.21.23-.32.54-.32.93v2.28h-.69v-4.04h.69v.63c.17-.24.36-.42.58-.54.22-.12.48-.18.77-.18.48,0,.85.14,1.09.43.25.29.37.71.37,1.27Z"/>
              <path id="DejaVuSans-74-5" data-name="DejaVuSans-74" d="M288.75,143.67v1.15h1.42v.52h-1.42v2.19c0,.33.05.54.14.63s.28.14.57.14h.71v.56h-.71c-.53,0-.9-.1-1.1-.29-.2-.19-.3-.54-.3-1.04v-2.19h-.51v-.52h.51v-1.15h.69Z"/>
              <path id="DejaVuSans-69-6" data-name="DejaVuSans-69" d="M291.07,144.82h.69v4.04h-.69v-4.04ZM291.07,143.24h.69v.84h-.69v-.84Z"/>
              <path id="DejaVuSans-61-4" data-name="DejaVuSans-61" d="M295.11,146.83c-.56,0-.94.06-1.16.18s-.32.33-.32.63c0,.24.08.42.24.56.16.14.38.21.66.21.38,0,.69-.13.92-.39s.35-.61.35-1.04v-.15h-.69ZM296.48,146.55v2.31h-.69v-.61c-.16.24-.35.43-.59.54-.23.12-.52.18-.86.18-.43,0-.77-.12-1.02-.35-.25-.23-.38-.54-.38-.93,0-.45.16-.8.47-1.03.32-.23.79-.35,1.41-.35h.97v-.07c0-.31-.1-.54-.31-.71s-.5-.25-.88-.25c-.24,0-.47.03-.7.08-.23.06-.44.14-.65.25v-.61c.25-.09.5-.16.73-.21.24-.05.47-.07.69-.07.61,0,1.06.15,1.36.45.3.3.45.76.45,1.38Z"/>
              <path id="DejaVuSans-6c-3" data-name="DejaVuSans-6c" d="M297.9,143.24h.69v5.61h-.69v-5.61Z"/>
              <path id="DejaVuSans-62-3" data-name="DejaVuSans-62" d="M305.48,146.84c0-.49-.1-.87-.31-1.15s-.49-.42-.86-.42-.65.14-.86.42-.31.66-.31,1.15.1.87.31,1.15c.21.28.5.42.86.42s.65-.14.86-.42c.21-.28.31-.66.31-1.15ZM303.14,145.43c.15-.24.33-.42.55-.53.22-.12.49-.18.79-.18.51,0,.92.19,1.24.58.32.39.48.9.48,1.54s-.16,1.15-.48,1.54c-.32.39-.73.58-1.24.58-.31,0-.57-.06-.79-.18-.22-.12-.4-.3-.55-.54v.61h-.69v-5.61h.69v2.19Z"/>
              <path id="DejaVuSans-79-2" data-name="DejaVuSans-79" d="M309.08,149.23c-.19.48-.38.79-.57.94-.18.15-.43.22-.74.22h-.55v-.56h.4c.19,0,.34-.04.44-.13.11-.09.22-.29.35-.61l.12-.3-1.7-3.98h.73l1.31,3.16,1.31-3.16h.73l-1.84,4.42Z"/>
              <path id="DejaVuSans-52" d="M316.99,146.33c.16.05.32.17.47.34s.31.41.46.71l.77,1.47h-.81l-.71-1.38c-.19-.36-.36-.6-.54-.72s-.41-.18-.71-.18h-.82v2.28h-.76v-5.39h1.71c.64,0,1.12.13,1.43.39.31.26.47.65.47,1.16,0,.34-.08.62-.25.85-.16.22-.4.38-.71.46ZM315.1,144.07v1.91h.95c.36,0,.64-.08.83-.24s.28-.4.28-.72-.09-.55-.28-.71-.46-.24-.83-.24h-.95Z"/>
              <path id="DejaVuSans-65-10" data-name="DejaVuSans-65" d="M322.88,146.67v.32h-3.17c.03.46.17.81.43,1.04.26.24.61.36,1.07.36.26,0,.52-.03.77-.09s.5-.16.74-.28v.63c-.25.1-.5.18-.76.23s-.52.08-.79.08c-.67,0-1.2-.19-1.59-.56-.39-.38-.59-.88-.59-1.52s.19-1.19.56-1.57c.37-.39.87-.58,1.5-.58.56,0,1.01.18,1.34.53.33.35.49.82.49,1.43ZM322.19,146.47c0-.36-.11-.65-.32-.87-.21-.22-.48-.33-.82-.33-.38,0-.69.1-.92.31s-.36.5-.4.88h2.46Z"/>
              <path id="DejaVuSans-67-2" data-name="DejaVuSans-67" d="M326.77,146.79c0-.48-.1-.85-.31-1.12-.21-.26-.49-.4-.87-.4s-.66.13-.86.4c-.21.26-.31.64-.31,1.12s.1.85.31,1.12c.21.26.49.4.86.4s.66-.13.87-.4c.21-.26.31-.64.31-1.12ZM327.46,148.36c0,.69-.16,1.2-.48,1.53-.32.34-.8.5-1.46.5-.24,0-.47-.02-.69-.05s-.42-.09-.63-.16v-.65c.2.11.4.18.6.23.2.05.4.08.6.08.45,0,.79-.11,1.01-.34.22-.23.34-.57.34-1.03v-.33c-.14.24-.32.42-.55.53s-.49.18-.8.18c-.51,0-.93-.19-1.24-.57-.31-.38-.47-.88-.47-1.5s.16-1.13.47-1.5c.31-.38.73-.57,1.24-.57.31,0,.58.06.8.18s.4.3.55.53v-.61h.69v3.54Z"/>
              <path id="DejaVuSans-69-7" data-name="DejaVuSans-69" d="M328.88,144.82h.69v4.04h-.69v-4.04ZM328.88,143.24h.69v.84h-.69v-.84Z"/>
              <path id="DejaVuSans-6f-8" data-name="DejaVuSans-6f" d="M332.63,145.28c-.37,0-.66.14-.88.42s-.32.66-.32,1.14.11.86.32,1.14c.21.28.51.42.88.42s.66-.14.87-.42c.21-.28.32-.66.32-1.14s-.11-.86-.32-1.14c-.21-.28-.5-.42-.87-.42ZM332.63,144.72c.6,0,1.07.19,1.41.56.34.37.51.89.51,1.56s-.17,1.18-.51,1.56c-.34.38-.81.56-1.41.56s-1.07-.19-1.41-.56c-.34-.38-.51-.9-.51-1.56s.17-1.18.51-1.56c.34-.38.81-.56,1.41-.56Z"/>
              <path id="DejaVuSans-6e-6" data-name="DejaVuSans-6e" d="M339.18,146.42v2.44h-.69v-2.42c0-.38-.08-.67-.23-.86-.15-.19-.39-.29-.7-.29-.37,0-.67.11-.88.34-.21.23-.32.54-.32.93v2.28h-.69v-4.04h.69v.63c.17-.24.36-.42.58-.54.22-.12.48-.18.77-.18.48,0,.85.14,1.09.43.25.29.37.71.37,1.27Z"/>
            </g>
          </g>
        </g>
      </g>
    </g>
    <text class="cls-4" transform="translate(473.23 311.48)"><tspan class="cls-32" x="0" y="0">T</tspan><tspan x="5.88" y="0">he USA </tspan><tspan class="cls-30" x="44.66" y="0">r</tspan><tspan class="cls-12" x="48.47" y="0">elies he</tspan><tspan class="cls-34" x="86.1" y="0">a</tspan><tspan x="91.79" y="0">vily on non-</tspan><tspan class="cls-30" x="150.78" y="0">r</tspan><tspan class="cls-12" x="154.58" y="0">ene</tspan><tspan class="cls-28" x="173.27" y="0">w</tspan><tspan class="cls-9" x="182.05" y="0">able</tspan><tspan x="31.13" y="14.4">ene</tspan><tspan class="cls-33" x="49.81" y="14.4">r</tspan><tspan class="cls-23" x="53.64" y="14.4">g</tspan><tspan x="60.28" y="14.4">ies like </tspan><tspan class="cls-16" x="96.21" y="14.4">f</tspan><tspan x="99.56" y="14.4" xml:space="preserve">ossil fuels -  meaning</tspan><tspan x="5.94" y="28.8">mo</tspan><tspan class="cls-31" x="22.54" y="28.8">r</tspan><tspan class="cls-12" x="26.34" y="28.8">e depletion of n</tspan><tspan class="cls-28" x="105.21" y="28.8">a</tspan><tspan class="cls-12" x="110.95" y="28.8">tu</tspan><tspan class="cls-27" x="121.53" y="28.8">r</tspan><tspan x="125.4" y="28.8">al </tspan><tspan class="cls-30" x="136.56" y="28.8">r</tspan><tspan class="cls-12" x="140.36" y="28.8">esou</tspan><tspan class="cls-31" x="164.33" y="28.8">r</tspan><tspan class="cls-26" x="168.13" y="28.8">c</tspan><tspan x="173.43" y="28.8">es per</tspan><tspan class="cls-38" x="32.02" y="43.2">k</tspan><tspan class="cls-9" x="37.85" y="43.2">il</tspan><tspan class="cls-25" x="43.49" y="43.2">o</tspan><tspan class="cls-28" x="49.99" y="43.2">wa</tspan><tspan class="cls-12" x="64.51" y="43.2">t</tspan><tspan class="cls-27" x="68.48" y="43.2">t</tspan><tspan class="cls-9" x="72.4" y="43.2">-hour of ene</tspan><tspan class="cls-33" x="133.73" y="43.2">r</tspan><tspan x="137.55" y="43.2">gy p</tspan><tspan class="cls-31" x="159.29" y="43.2">r</tspan><tspan x="163.09" y="43.2">odu</tspan><tspan class="cls-26" x="183.06" y="43.2">c</tspan><tspan x="188.36" y="43.2">e</tspan><tspan class="cls-30" x="194.37" y="43.2">d</tspan><tspan x="201.02" y="43.2">.</tspan></text>
  </g>
</svg>