<?xml version="1.0" encoding="UTF-8"?>
<svg id="Layer_2" data-name="Layer 2" xmlns="http://www.w3.org/2000/svg" xmlns:xlink="http://www.w3.org/1999/xlink" viewBox="0 0 375 470">
  <defs>
    <style>
      .cls-1, .cls-2 {
        fill: none;
      }

      .cls-3 {
        fill: #e37539;
      }

      .cls-4 {
        clip-path: url(#clippath-1);
      }

      .cls-5 {
        clip-path: url(#clippath-3);
      }

      .cls-6 {
        clip-path: url(#clippath-4);
      }

      .cls-7 {
        clip-path: url(#clippath-2);
      }

      .cls-8 {
        font-family: MyriadPro-Regular, 'Myriad Pro';
        font-size: 9px;
      }

      .cls-9 {
        letter-spacing: 0em;
      }

      .cls-10 {
        fill: #fff;
      }

      .cls-11 {
        fill: #f1b143;
      }

      .cls-12 {
        letter-spacing: 0em;
      }

      .cls-13 {
        letter-spacing: -.01em;
      }

      .cls-14 {
        stroke-linejoin: round;
      }

      .cls-14, .cls-2 {
        stroke: #000;
        stroke-width: .8px;
      }

      .cls-15 {
        letter-spacing: 0em;
      }

      .cls-16 {
        letter-spacing: 0em;
      }

      .cls-17 {
        letter-spacing: 0em;
      }

      .cls-18 {
        letter-spacing: 0em;
      }

      .cls-2 {
        stroke-linecap: square;
      }

      .cls-19 {
        letter-spacing: -.01em;
      }

      .cls-20 {
        letter-spacing: 0em;
      }

      .cls-21 {
        letter-spacing: 0em;
      }

      .cls-22 {
        letter-spacing: 0em;
      }

      .cls-23 {
        letter-spacing: 0em;
      }

      .cls-24 {
        clip-path: url(#clippath);
      }

      .cls-25 {
        letter-spacing: .02em;
      }

      .cls-26 {
        fill: #f1b343;
      }
    </style>
    <clipPath id="clippath">
      <rect class="cls-1" x="119.92" y="99.9" width="139.08" height="190.61"/>
    </clipPath>
    <clipPath id="clippath-1">
      <rect class="cls-1" x="119.92" y="99.9" width="139.08" height="190.61"/>
    </clipPath>
    <clipPath id="clippath-2">
      <rect class="cls-1" x="119.92" y="99.9" width="139.08" height="190.61"/>
    </clipPath>
    <clipPath id="clippath-3">
      <rect class="cls-1" x="119.92" y="99.9" width="139.08" height="190.61"/>
    </clipPath>
    <clipPath id="clippath-4">
      <rect class="cls-1" x="119.92" y="99.9" width="139.08" height="190.61"/>
    </clipPath>
  </defs>
  <g id="ai2html-settings">
    <rect class="cls-1" width="375" height="470"/>
    <g id="patch_1" data-name="patch 1">
      <path class="cls-10" d="M88,384h170v-229H88v229Z"/>
    </g>
    <g id="axes_1" data-name="axes 1">
      <g id="patch_2" data-name="patch 2">
        <path class="cls-10" d="M119.92,290.5h139.08V99.9H119.92v190.61Z"/>
      </g>
      <g id="patch_3" data-name="patch 3">
        <g class="cls-24">
          <path class="cls-3" d="M126.24,290.5h21.07V108.97h-21.07v181.53Z"/>
        </g>
      </g>
      <g id="patch_4" data-name="patch 4">
        <g class="cls-4">
          <path class="cls-11" d="M152.58,290.5h21.07v-156.85h-21.07v156.85Z"/>
        </g>
      </g>
      <g id="patch_5" data-name="patch 5">
        <g class="cls-7">
          <path class="cls-26" d="M178.92,290.5h21.07v-135.9h-21.07v135.9Z"/>
        </g>
      </g>
      <g id="patch_6" data-name="patch 6">
        <g class="cls-5">
          <path class="cls-26" d="M205.26,290.5h21.07v-118.31h-21.07v118.31Z"/>
        </g>
      </g>
      <g id="patch_7" data-name="patch 7">
        <g class="cls-6">
          <path class="cls-26" d="M231.6,290.5h21.07v-89.48h-21.07v89.48Z"/>
        </g>
      </g>
      <g id="matplotlib.axis_1" data-name="matplotlib.axis 1">
        <g id="xtick_1" data-name="xtick 1">
          <g id="line2d_1" data-name="line2d 1">
            <path id="m17464f404b" class="cls-14" d="M136.78,290.5v1.03"/>
          </g>
          <g id="text_1" data-name="text 1">
            <g>
              <path id="DejaVuSans-55" d="M133.25,292.66h.37v1.3c0,.23.05.4.16.5.11.1.28.15.51.15s.41-.05.51-.15c.11-.1.16-.27.16-.5v-1.3h.37v1.34c0,.28-.09.49-.26.63-.17.14-.43.21-.77.21s-.6-.07-.78-.21c-.17-.14-.26-.35-.26-.63v-1.34Z"/>
              <path id="DejaVuSans-53" d="M137.64,292.73v.28c-.14-.05-.27-.09-.39-.12-.12-.03-.24-.04-.36-.04-.2,0-.35.03-.46.09-.11.06-.16.15-.16.26,0,.1.04.17.11.22.07.05.21.09.41.12l.22.04c.27.04.48.11.61.22s.2.24.2.42c0,.21-.09.37-.26.47-.18.11-.43.16-.77.16-.13,0-.26-.01-.41-.03-.14-.02-.29-.06-.45-.1v-.3c.15.07.29.12.44.15.14.03.28.05.42.05.21,0,.37-.03.48-.1.11-.07.17-.16.17-.28,0-.11-.04-.19-.12-.25s-.22-.1-.4-.13l-.22-.03c-.27-.04-.47-.11-.59-.2-.12-.09-.18-.22-.18-.38,0-.19.08-.34.25-.45.17-.11.4-.16.7-.16.13,0,.26,0,.39.03.13.02.27.05.41.08Z"/>
              <path id="DejaVuSans-41" d="M139.35,292.94l-.5,1.07h1l-.5-1.07ZM139.14,292.66h.42l1.03,2.15h-.38l-.25-.55h-1.22l-.25.55h-.39l1.04-2.15Z"/>
            </g>
          </g>
        </g>
        <g id="xtick_2" data-name="xtick 2">
          <g id="line2d_2" data-name="line2d 2">
            <path id="m17464f404b-2" data-name="m17464f404b" class="cls-14" d="M163.12,290.5v1.03"/>
          </g>
          <g id="text_2" data-name="text 2">
            <g>
              <path id="DejaVuSans-43" d="M160.2,292.82v.31c-.12-.09-.26-.16-.4-.2-.14-.05-.29-.07-.45-.07-.31,0-.55.07-.71.22s-.25.37-.25.65.08.5.25.65.4.22.71.22c.16,0,.31-.02.45-.07s.27-.11.4-.2v.3c-.13.07-.26.12-.41.16-.14.03-.29.05-.45.05-.41,0-.73-.1-.97-.3-.24-.2-.35-.47-.35-.81s.12-.62.35-.82c.24-.2.56-.3.97-.3.16,0,.31.02.46.05.14.03.28.09.4.15Z"/>
              <path id="DejaVuSans-68" d="M162.44,293.83v.97h-.33v-.96c0-.15-.04-.27-.11-.34-.08-.08-.19-.11-.34-.11-.18,0-.32.05-.43.14-.1.09-.16.21-.16.37v.91h-.34v-2.24h.34v.88c.08-.1.17-.17.28-.22.11-.05.23-.07.38-.07.23,0,.41.06.53.17.12.11.18.28.18.5Z"/>
              <path id="DejaVuSans-69" d="M163.11,293.19h.33v1.61h-.33v-1.61ZM163.11,292.56h.33v.34h-.33v-.34Z"/>
              <path id="DejaVuSans-6e" d="M165.84,293.83v.97h-.33v-.96c0-.15-.04-.27-.11-.34-.08-.08-.19-.11-.34-.11-.18,0-.32.05-.43.14-.1.09-.16.21-.16.37v.91h-.34v-1.61h.34v.25c.08-.1.17-.17.28-.22.11-.05.23-.07.38-.07.23,0,.41.06.53.17.12.11.18.28.18.5Z"/>
              <path id="DejaVuSans-61" d="M167.43,293.99c-.27,0-.46.02-.56.07s-.16.13-.16.25c0,.09.04.17.12.22.08.05.18.08.32.08.19,0,.33-.05.45-.16s.17-.24.17-.41v-.06h-.33ZM168.09,293.88v.92h-.33v-.24c-.08.1-.17.17-.29.22-.11.05-.25.07-.42.07-.21,0-.37-.05-.5-.14-.12-.09-.18-.22-.18-.37,0-.18.08-.32.23-.41.15-.09.38-.14.69-.14h.47v-.03c0-.12-.05-.22-.15-.28s-.24-.1-.43-.1c-.12,0-.23.01-.34.03-.11.02-.22.06-.32.1v-.24c.12-.04.24-.07.36-.08.12-.02.23-.03.34-.03.29,0,.51.06.66.18.15.12.22.3.22.55Z"/>
            </g>
          </g>
        </g>
        <g id="xtick_3" data-name="xtick 3">
          <g id="line2d_3" data-name="line2d 3">
            <path id="m17464f404b-3" data-name="m17464f404b" class="cls-14" d="M189.46,290.5v1.03"/>
          </g>
          <g id="text_3" data-name="text 3">
            <g>
              <path id="DejaVuSans-57" d="M179.89,292.66h.37l.57,1.81.57-1.81h.41l.57,1.81.57-1.81h.37l-.68,2.15h-.46l-.57-1.86-.58,1.86h-.46l-.68-2.15Z"/>
              <path id="DejaVuSans-6f" d="M184.36,293.38c-.18,0-.32.06-.43.17s-.16.26-.16.45.05.34.16.45c.1.11.25.17.43.17s.32-.06.42-.17c.1-.11.16-.26.16-.45s-.05-.34-.16-.45c-.1-.11-.24-.17-.42-.17ZM184.36,293.15c.29,0,.52.07.68.22.17.15.25.36.25.62s-.08.47-.25.62c-.17.15-.39.22-.68.22s-.52-.07-.69-.22c-.17-.15-.25-.36-.25-.62s.08-.47.25-.62c.17-.15.39-.22.69-.22Z"/>
              <path id="DejaVuSans-72" d="M187.03,293.44s-.08-.03-.12-.04c-.04,0-.09-.01-.15-.01-.19,0-.33.05-.44.15s-.15.24-.15.42v.85h-.34v-1.61h.34v.25c.07-.1.16-.17.27-.22.11-.05.25-.07.41-.07.02,0,.05,0,.08,0,.03,0,.06,0,.09.01v.27Z"/>
              <path id="DejaVuSans-6c" d="M187.38,292.56h.33v2.24h-.33v-2.24Z"/>
              <path id="DejaVuSans-64" d="M189.75,293.44v-.87h.33v2.24h-.33v-.24c-.07.1-.16.17-.27.21-.11.05-.24.07-.39.07-.25,0-.45-.08-.6-.23-.15-.16-.23-.36-.23-.61s.08-.46.23-.61c.15-.16.35-.23.6-.23.15,0,.28.02.39.07.11.05.2.12.27.21ZM188.61,294c0,.19.05.35.15.46.1.11.24.17.42.17s.32-.06.42-.17c.1-.11.15-.26.15-.46s-.05-.35-.15-.46c-.1-.11-.24-.17-.42-.17s-.32.06-.42.17-.15.26-.15.46Z"/>
              <path id="DejaVuSans-77" d="M190.58,293.19h.33l.42,1.26.42-1.26h.39l.42,1.26.42-1.26h.33l-.53,1.61h-.39l-.44-1.32-.44,1.32h-.39l-.53-1.61Z"/>
              <path id="DejaVuSans-69-2" data-name="DejaVuSans-69" d="M193.82,293.19h.33v1.61h-.33v-1.61ZM193.82,292.56h.33v.34h-.33v-.34Z"/>
              <path id="DejaVuSans-64-2" data-name="DejaVuSans-64" d="M196.19,293.44v-.87h.33v2.24h-.33v-.24c-.07.1-.16.17-.27.21-.11.05-.24.07-.39.07-.25,0-.45-.08-.6-.23-.15-.16-.23-.36-.23-.61s.08-.46.23-.61c.15-.16.35-.23.6-.23.15,0,.28.02.39.07.11.05.2.12.27.21ZM195.05,294c0,.19.05.35.15.46.1.11.24.17.42.17s.32-.06.42-.17c.1-.11.15-.26.15-.46s-.05-.35-.15-.46c-.1-.11-.24-.17-.42-.17s-.32.06-.42.17-.15.26-.15.46Z"/>
              <path id="DejaVuSans-65" d="M198.96,293.93v.13h-1.54c.01.18.08.32.21.42.12.1.3.14.52.14.13,0,.25-.01.37-.04s.24-.06.36-.11v.25c-.12.04-.24.07-.37.09s-.25.03-.38.03c-.32,0-.58-.07-.77-.22-.19-.15-.28-.35-.28-.61s.09-.47.27-.63c.18-.15.42-.23.73-.23.27,0,.49.07.65.21.16.14.24.33.24.57ZM198.62,293.85c0-.14-.05-.26-.15-.35-.1-.09-.23-.13-.4-.13-.19,0-.34.04-.45.13s-.18.2-.19.35h1.19Z"/>
            </g>
          </g>
        </g>
        <g id="xtick_4" data-name="xtick 4">
          <g id="line2d_4" data-name="line2d 4">
            <path id="m17464f404b-4" data-name="m17464f404b" class="cls-14" d="M215.8,290.5v1.03"/>
          </g>
          <g id="text_4" data-name="text 4">
            <g>
              <path id="DejaVuSans-45" d="M203.96,292.66h1.72v.24h-1.35v.64h1.29v.24h-1.29v.78h1.38v.24h-1.75v-2.15Z"/>
              <path id="DejaVuSans-75" d="M206.26,294.17v-.97h.33v.96c0,.15.04.27.11.34.08.08.19.11.34.11.18,0,.32-.05.43-.14.11-.09.16-.22.16-.37v-.91h.33v1.61h-.33v-.25c-.08.1-.18.17-.28.22-.11.05-.23.07-.37.07-.23,0-.41-.06-.53-.17-.12-.11-.18-.28-.18-.5Z"/>
              <path id="DejaVuSans-72-2" data-name="DejaVuSans-72" d="M209.83,293.44s-.08-.03-.12-.04c-.04,0-.09-.01-.15-.01-.19,0-.33.05-.44.15s-.15.24-.15.42v.85h-.34v-1.61h.34v.25c.07-.1.16-.17.27-.22.11-.05.25-.07.41-.07.02,0,.05,0,.08,0,.03,0,.06,0,.09.01v.27Z"/>
              <path id="DejaVuSans-6f-2" data-name="DejaVuSans-6f" d="M210.88,293.38c-.18,0-.32.06-.43.17s-.16.26-.16.45.05.34.16.45c.1.11.25.17.43.17s.32-.06.42-.17c.1-.11.16-.26.16-.45s-.05-.34-.16-.45c-.1-.11-.24-.17-.42-.17ZM210.88,293.15c.29,0,.52.07.68.22.17.15.25.36.25.62s-.08.47-.25.62c-.17.15-.39.22-.68.22s-.52-.07-.69-.22c-.17-.15-.25-.36-.25-.62s.08-.47.25-.62c.17-.15.39-.22.69-.22Z"/>
              <path id="DejaVuSans-70" d="M212.7,294.56v.85h-.34v-2.22h.34v.24c.07-.1.16-.17.27-.21.11-.05.24-.07.38-.07.25,0,.45.08.6.23.15.16.23.36.23.61s-.08.46-.23.61c-.15.16-.36.23-.6.23-.15,0-.28-.02-.38-.07-.11-.05-.2-.12-.27-.21ZM213.83,294c0-.19-.05-.35-.15-.46s-.24-.17-.42-.17-.32.06-.42.17-.15.26-.15.46.05.35.15.46c.1.11.24.17.42.17s.32-.06.42-.17c.1-.11.15-.26.15-.46Z"/>
              <path id="DejaVuSans-65-2" data-name="DejaVuSans-65" d="M216.48,293.93v.13h-1.54c.01.18.08.32.21.42.12.1.3.14.52.14.13,0,.25-.01.37-.04s.24-.06.36-.11v.25c-.12.04-.24.07-.37.09s-.25.03-.38.03c-.32,0-.58-.07-.77-.22-.19-.15-.28-.35-.28-.61s.09-.47.27-.63c.18-.15.42-.23.73-.23.27,0,.49.07.65.21.16.14.24.33.24.57ZM216.14,293.85c0-.14-.05-.26-.15-.35-.1-.09-.23-.13-.4-.13-.19,0-.34.04-.45.13s-.18.2-.19.35h1.19Z"/>
              <path id="DejaVuSans-28" d="M219.01,292.57c-.16.22-.28.44-.36.65-.08.22-.12.43-.12.66s.04.44.12.66.2.44.36.65h-.29c-.18-.23-.32-.45-.41-.66-.09-.22-.14-.43-.14-.65s.04-.43.13-.65c.09-.22.23-.44.41-.66h.29Z"/>
              <path id="DejaVuSans-45-2" data-name="DejaVuSans-45" d="M219.67,292.66h1.72v.24h-1.35v.64h1.29v.24h-1.29v.78h1.38v.24h-1.75v-2.15Z"/>
              <path id="DejaVuSans-45-3" data-name="DejaVuSans-45" d="M222.03,292.66h1.72v.24h-1.35v.64h1.29v.24h-1.29v.78h1.38v.24h-1.75v-2.15Z"/>
              <path id="DejaVuSans-41-2" data-name="DejaVuSans-41" d="M225.28,292.94l-.5,1.07h1l-.5-1.07ZM225.08,292.66h.42l1.03,2.15h-.38l-.25-.55h-1.22l-.25.55h-.39l1.04-2.15Z"/>
              <path id="DejaVuSans-29" d="M226.86,292.57h.29c.18.23.32.45.41.66.09.22.14.43.14.65s-.05.43-.14.65c-.09.22-.23.44-.41.66h-.29c.16-.22.28-.44.36-.65.08-.22.12-.44.12-.66s-.04-.44-.12-.66c-.08-.22-.2-.43-.36-.65Z"/>
            </g>
          </g>
        </g>
        <g id="xtick_5" data-name="xtick 5">
          <g id="line2d_5" data-name="line2d 5">
            <path id="m17464f404b-5" data-name="m17464f404b" class="cls-14" d="M242.14,290.5v1.03"/>
          </g>
          <g id="text_5" data-name="text 5">
            <g>
              <path id="DejaVuSans-46" d="M236.32,292.66h1.56v.24h-1.19v.63h1.08v.24h-1.08v1.02h-.37v-2.15Z"/>
              <path id="DejaVuSans-72-3" data-name="DejaVuSans-72" d="M239.35,293.44s-.08-.03-.12-.04c-.04,0-.09-.01-.15-.01-.19,0-.33.05-.44.15s-.15.24-.15.42v.85h-.34v-1.61h.34v.25c.07-.1.16-.17.27-.22.11-.05.25-.07.41-.07.02,0,.05,0,.08,0,.03,0,.06,0,.09.01v.27Z"/>
              <path id="DejaVuSans-61-2" data-name="DejaVuSans-61" d="M240.63,293.99c-.27,0-.46.02-.56.07s-.16.13-.16.25c0,.09.04.17.12.22.08.05.18.08.32.08.19,0,.33-.05.45-.16s.17-.24.17-.41v-.06h-.33ZM241.3,293.88v.92h-.33v-.24c-.08.1-.17.17-.29.22-.11.05-.25.07-.42.07-.21,0-.37-.05-.5-.14-.12-.09-.18-.22-.18-.37,0-.18.08-.32.23-.41.15-.09.38-.14.69-.14h.47v-.03c0-.12-.05-.22-.15-.28s-.24-.1-.43-.1c-.12,0-.23.01-.34.03-.11.02-.22.06-.32.1v-.24c.12-.04.24-.07.36-.08.12-.02.23-.03.34-.03.29,0,.51.06.66.18.15.12.22.3.22.55Z"/>
              <path id="DejaVuSans-6e-2" data-name="DejaVuSans-6e" d="M243.68,293.83v.97h-.33v-.96c0-.15-.04-.27-.11-.34-.08-.08-.19-.11-.34-.11-.18,0-.32.05-.43.14-.1.09-.16.21-.16.37v.91h-.34v-1.61h.34v.25c.08-.1.17-.17.28-.22.11-.05.23-.07.38-.07.23,0,.41.06.53.17.12.11.18.28.18.5Z"/>
              <path id="DejaVuSans-63" d="M245.81,293.25v.25c-.09-.04-.19-.07-.28-.09s-.19-.03-.29-.03c-.22,0-.39.05-.51.16-.12.11-.18.26-.18.46s.06.35.18.46c.12.11.29.16.51.16.1,0,.19-.01.29-.03s.19-.05.28-.09v.24c-.09.03-.19.06-.29.08-.1.02-.21.03-.32.03-.31,0-.55-.08-.73-.23-.18-.15-.27-.36-.27-.62s.09-.47.27-.62c.18-.15.43-.23.75-.23.1,0,.2,0,.3.03.1.02.19.04.29.07Z"/>
              <path id="DejaVuSans-65-3" data-name="DejaVuSans-65" d="M248.13,293.93v.13h-1.54c.01.18.08.32.21.42.12.1.3.14.52.14.13,0,.25-.01.37-.04s.24-.06.36-.11v.25c-.12.04-.24.07-.37.09s-.25.03-.38.03c-.32,0-.58-.07-.77-.22-.19-.15-.28-.35-.28-.61s.09-.47.27-.63c.18-.15.42-.23.73-.23.27,0,.49.07.65.21.16.14.24.33.24.57ZM247.8,293.85c0-.14-.05-.26-.15-.35-.1-.09-.23-.13-.4-.13-.19,0-.34.04-.45.13s-.18.2-.19.35h1.19Z"/>
            </g>
          </g>
        </g>
        <g id="text_6" data-name="text 6">
          <g>
            <path id="DejaVuSans-41-3" data-name="DejaVuSans-41" d="M173.27,297.04l-.6,1.28h1.2l-.6-1.28ZM173.03,296.7h.5l1.24,2.58h-.46l-.3-.66h-1.47l-.3.66h-.46l1.24-2.58Z"/>
            <path id="DejaVuSans-72-4" data-name="DejaVuSans-72" d="M176.64,297.64s-.09-.04-.15-.05c-.05,0-.11-.01-.18-.01-.23,0-.4.06-.52.17s-.18.28-.18.5v1.02h-.4v-1.93h.4v.3c.08-.12.19-.2.33-.26.14-.06.3-.09.49-.09.03,0,.06,0,.09,0,.03,0,.07,0,.11.01v.33Z"/>
            <path id="DejaVuSans-65-4" data-name="DejaVuSans-65" d="M179.05,298.23v.16h-1.84c.02.22.1.39.25.5.15.11.36.17.62.17.15,0,.3-.01.45-.04s.29-.07.43-.13v.3c-.14.05-.29.08-.44.11s-.3.04-.46.04c-.39,0-.7-.09-.93-.27-.23-.18-.34-.42-.34-.73s.11-.57.32-.75c.22-.19.51-.28.87-.28.33,0,.59.08.78.25.19.17.29.39.29.68ZM178.65,298.14c0-.17-.06-.31-.18-.42-.12-.1-.28-.16-.48-.16-.22,0-.4.05-.54.15s-.21.24-.23.42h1.43Z"/>
            <path id="DejaVuSans-61-3" data-name="DejaVuSans-61" d="M180.82,298.3c-.32,0-.55.03-.67.09s-.19.16-.19.3c0,.11.05.2.14.27.09.07.22.1.38.1.22,0,.4-.06.54-.19s.2-.29.2-.5v-.07h-.4ZM181.62,298.17v1.1h-.4v-.29c-.09.12-.21.2-.34.26-.14.06-.3.08-.5.08-.25,0-.45-.06-.6-.17-.15-.11-.22-.26-.22-.45,0-.22.09-.38.28-.49.18-.11.46-.17.82-.17h.56v-.03c0-.15-.06-.26-.18-.34s-.29-.12-.51-.12c-.14,0-.28.01-.41.04-.13.03-.26.07-.38.12v-.29c.15-.04.29-.08.43-.1.14-.02.27-.03.4-.03.35,0,.62.07.79.22.17.14.26.36.26.66Z"/>
            <path id="DejaVuSans-6f-3" data-name="DejaVuSans-6f" d="M184.81,297.57c-.21,0-.38.07-.51.2s-.19.31-.19.55.06.41.19.55c.12.13.3.2.51.2s.38-.07.51-.2c.13-.13.19-.32.19-.55s-.06-.41-.19-.54c-.12-.13-.29-.2-.51-.2ZM184.81,297.3c.35,0,.62.09.82.27.2.18.3.43.3.74s-.1.56-.3.74c-.2.18-.47.27-.82.27s-.62-.09-.82-.27c-.2-.18-.3-.43-.3-.74s.1-.57.3-.74c.2-.18.47-.27.82-.27Z"/>
            <path id="DejaVuSans-72-5" data-name="DejaVuSans-72" d="M188.01,297.64s-.09-.04-.15-.05c-.05,0-.11-.01-.18-.01-.23,0-.4.06-.52.17s-.18.28-.18.5v1.02h-.4v-1.93h.4v.3c.08-.12.19-.2.33-.26.14-.06.3-.09.49-.09.03,0,.06,0,.09,0,.03,0,.07,0,.11.01v.33Z"/>
            <path id="DejaVuSans-43-2" data-name="DejaVuSans-43" d="M192.3,296.9v.37c-.15-.11-.31-.19-.47-.24-.17-.05-.35-.08-.54-.08-.37,0-.66.09-.85.27s-.3.44-.3.78.1.6.3.78.48.27.85.27c.19,0,.37-.03.54-.08s.33-.14.47-.25v.36c-.15.08-.32.14-.49.19-.17.04-.35.06-.55.06-.49,0-.88-.12-1.17-.36-.28-.24-.42-.56-.42-.98s.14-.74.42-.98c.28-.24.67-.36,1.17-.36.19,0,.38.02.55.06.17.04.33.1.49.18Z"/>
            <path id="DejaVuSans-6f-4" data-name="DejaVuSans-6f" d="M193.91,297.57c-.21,0-.38.07-.51.2s-.19.31-.19.55.06.41.19.55c.12.13.3.2.51.2s.38-.07.51-.2c.13-.13.19-.32.19-.55s-.06-.41-.19-.54c-.12-.13-.29-.2-.51-.2ZM193.91,297.3c.35,0,.62.09.82.27.2.18.3.43.3.74s-.1.56-.3.74c-.2.18-.47.27-.82.27s-.62-.09-.82-.27c-.2-.18-.3-.43-.3-.74s.1-.57.3-.74c.2-.18.47-.27.82-.27Z"/>
            <path id="DejaVuSans-75-2" data-name="DejaVuSans-75" d="M195.66,298.51v-1.17h.4v1.16c0,.18.04.32.13.41.09.09.23.14.41.14.22,0,.39-.05.51-.16.13-.11.19-.26.19-.45v-1.09h.4v1.93h-.4v-.3c-.1.12-.21.2-.34.26-.13.06-.28.09-.45.09-.28,0-.49-.07-.64-.21-.15-.14-.22-.34-.22-.61Z"/>
            <path id="DejaVuSans-6e-3" data-name="DejaVuSans-6e" d="M200.56,298.11v1.17h-.4v-1.16c0-.18-.05-.32-.14-.41-.09-.09-.23-.14-.41-.14-.22,0-.39.05-.51.16-.13.11-.19.26-.19.45v1.09h-.4v-1.93h.4v.3c.1-.12.21-.2.34-.26.13-.06.28-.09.45-.09.28,0,.49.07.64.21.14.14.22.34.22.61Z"/>
            <path id="DejaVuSans-74" d="M201.76,296.79v.55h.83v.25h-.83v1.05c0,.16.03.26.08.3s.17.07.33.07h.41v.27h-.41c-.31,0-.52-.05-.64-.14-.12-.09-.18-.26-.18-.5v-1.05h-.29v-.25h.29v-.55h.4Z"/>
            <path id="DejaVuSans-72-6" data-name="DejaVuSans-72" d="M204.53,297.64s-.09-.04-.15-.05c-.05,0-.11-.01-.18-.01-.23,0-.4.06-.52.17s-.18.28-.18.5v1.02h-.4v-1.93h.4v.3c.08-.12.19-.2.33-.26.14-.06.3-.09.49-.09.03,0,.06,0,.09,0,.03,0,.07,0,.11.01v.33Z"/>
            <path id="DejaVuSans-79" d="M205.96,299.45c-.11.23-.22.38-.33.45-.11.07-.25.11-.43.11h-.32v-.27h.24c.11,0,.2-.02.26-.06.06-.04.13-.14.2-.29l.07-.14-.99-1.9h.42l.76,1.51.76-1.51h.42l-1.07,2.11Z"/>
          </g>
        </g>
      </g>
      <g id="matplotlib.axis_2" data-name="matplotlib.axis 2">
        <g id="ytick_1" data-name="ytick 1">
          <g id="line2d_6" data-name="line2d 6">
            <path id="mc7e323b204" class="cls-14" d="M119.92,290.5h-1.3"/>
          </g>
          <g id="text_7" data-name="text 7">
            <path id="DejaVuSans-30" d="M116.13,289.67c-.19,0-.33.07-.43.22-.09.15-.14.37-.14.66s.05.51.14.66c.1.15.24.22.43.22s.33-.07.43-.22c.1-.15.14-.37.14-.66s-.05-.52-.14-.66c-.09-.15-.24-.22-.43-.22ZM116.13,289.44c.3,0,.54.1.7.29.16.19.24.47.24.83s-.08.64-.24.83c-.16.19-.39.29-.7.29s-.54-.1-.7-.29c-.16-.19-.24-.47-.24-.83s.08-.64.24-.83c.16-.19.39-.29.7-.29Z"/>
          </g>
        </g>
        <g id="ytick_2" data-name="ytick 2">
          <g id="line2d_7" data-name="line2d 7">
            <path id="mc7e323b204-2" data-name="mc7e323b204" class="cls-14" d="M119.92,253.66h-1.3"/>
          </g>
          <g id="text_8" data-name="text 8">
            <path id="DejaVuSans-32" d="M115.66,254.54h1.28v.24h-1.72v-.24c.14-.11.33-.27.57-.46.24-.19.39-.32.45-.37.12-.1.2-.19.25-.26.05-.07.07-.14.07-.21,0-.11-.05-.21-.15-.28-.1-.07-.23-.11-.4-.11-.12,0-.24.02-.36.05-.13.03-.26.08-.41.14v-.29c.15-.05.29-.08.41-.11.13-.02.25-.04.35-.04.28,0,.51.06.67.17.17.11.25.26.25.45,0,.09-.02.17-.06.25-.04.08-.12.17-.23.28-.03.03-.13.11-.29.24-.16.13-.39.32-.69.56Z"/>
          </g>
        </g>
        <g id="ytick_3" data-name="ytick 3">
          <g id="line2d_8" data-name="line2d 8">
            <path id="mc7e323b204-3" data-name="mc7e323b204" class="cls-14" d="M119.92,216.82h-1.3"/>
          </g>
          <g id="text_9" data-name="text 9">
            <path id="DejaVuSans-34" d="M116.35,216.05l-.93,1.15h.93v-1.15ZM116.25,215.8h.46v1.4h.39v.24h-.39v.51h-.37v-.51h-1.22v-.28l1.13-1.36Z"/>
          </g>
        </g>
        <g id="ytick_4" data-name="ytick 4">
          <g id="line2d_9" data-name="line2d 9">
            <path id="mc7e323b204-4" data-name="mc7e323b204" class="cls-14" d="M119.92,179.98h-1.3"/>
          </g>
          <g id="text_10" data-name="text 10">
            <path id="DejaVuSans-36" d="M116.17,179.91c-.16,0-.3.04-.39.13-.1.09-.14.21-.14.37s.05.28.14.37c.1.09.23.13.39.13s.3-.04.39-.13c.1-.09.14-.21.14-.37s-.05-.28-.14-.37c-.1-.09-.23-.13-.39-.13ZM116.9,179v.26c-.09-.03-.19-.06-.28-.08-.09-.02-.19-.03-.28-.03-.24,0-.43.06-.56.19-.13.13-.2.32-.22.59.07-.08.16-.15.27-.19.11-.04.23-.07.36-.07.27,0,.49.07.65.2.16.13.24.31.24.53s-.08.4-.25.53c-.16.13-.38.2-.66.2-.31,0-.55-.1-.72-.29-.17-.19-.25-.47-.25-.83,0-.34.1-.61.31-.81.2-.2.48-.3.82-.3.09,0,.19,0,.28.02s.19.04.29.06Z"/>
          </g>
        </g>
        <g id="ytick_5" data-name="ytick 5">
          <g id="line2d_10" data-name="line2d 10">
            <path id="mc7e323b204-5" data-name="mc7e323b204" class="cls-14" d="M119.92,143.14h-1.3"/>
          </g>
          <g id="text_11" data-name="text 11">
            <path id="DejaVuSans-38" d="M116.13,143.24c-.17,0-.31.04-.41.11-.1.07-.15.18-.15.3s.05.23.15.3c.1.07.24.11.41.11s.31-.04.41-.11c.1-.07.15-.18.15-.3s-.05-.23-.15-.3c-.1-.07-.24-.11-.41-.11ZM115.76,143.12c-.16-.03-.28-.09-.37-.17-.09-.09-.13-.19-.13-.31,0-.17.08-.31.23-.41.15-.1.37-.15.63-.15s.48.05.64.15.23.24.23.41c0,.12-.04.23-.13.31-.09.09-.21.14-.37.17.18.03.31.1.41.19.1.09.15.21.15.35,0,.21-.08.37-.24.48-.16.11-.39.17-.69.17s-.53-.06-.69-.17c-.16-.11-.24-.27-.24-.48,0-.14.05-.25.15-.35.1-.1.24-.16.41-.19ZM115.63,142.66c0,.11.04.2.13.26.09.06.21.09.37.09s.28-.03.37-.09c.09-.06.13-.15.13-.26s-.04-.2-.13-.26c-.09-.06-.21-.09-.37-.09s-.28.03-.37.09c-.09.06-.13.15-.13.26Z"/>
          </g>
        </g>
        <g id="ytick_6" data-name="ytick 6">
          <g id="line2d_11" data-name="line2d 11">
            <path id="mc7e323b204-6" data-name="mc7e323b204" class="cls-14" d="M119.92,106.3h-1.3"/>
          </g>
          <g id="text_12" data-name="text 12">
            <g>
              <path id="DejaVuSans-31" d="M113.04,107.18h.6v-1.64l-.65.1v-.26l.65-.1h.37v1.9h.6v.24h-1.56v-.24Z"/>
              <path id="DejaVuSans-30-2" data-name="DejaVuSans-30" d="M116.13,105.47c-.19,0-.33.07-.43.22-.09.15-.14.37-.14.66s.05.51.14.66c.1.15.24.22.43.22s.33-.07.43-.22c.1-.15.14-.37.14-.66s-.05-.52-.14-.66c-.09-.15-.24-.22-.43-.22ZM116.13,105.24c.3,0,.54.1.7.29.16.19.24.47.24.83s-.08.64-.24.83c-.16.19-.39.29-.7.29s-.54-.1-.7-.29c-.16-.19-.24-.47-.24-.83s.08-.64.24-.83c.16-.19.39-.29.7-.29Z"/>
            </g>
          </g>
        </g>
        <g id="text_13" data-name="text 13">
          <g>
            <path id="DejaVuSans-41-4" data-name="DejaVuSans-41" d="M107.34,221.44l1.62.47v-.95l-1.62.47ZM106.9,221.64v-.4l3.26-.98v.36l-.84.23v1.16l.84.23v.37l-3.26-.98Z"/>
            <path id="DejaVuSans-44" d="M107.27,219.54h2.53v-.42c0-.36-.1-.62-.3-.78-.2-.16-.53-.25-.96-.25s-.76.08-.96.25-.3.42-.3.78v.42ZM106.9,219.88v-.72c0-.5.13-.87.39-1.1.26-.23.67-.35,1.23-.35s.97.12,1.24.35c.26.23.39.6.39,1.1v.72h-3.26Z"/>
            <path id="DejaVuSans-50" d="M107.27,216.82h1.22v-.44c0-.16-.05-.29-.16-.38-.11-.09-.26-.13-.45-.13s-.35.04-.45.13c-.11.09-.16.21-.16.38v.44ZM106.9,217.16v-.79c0-.29.08-.51.25-.65.17-.15.41-.22.72-.22s.56.07.73.22c.16.15.25.37.25.65v.44h1.31v.35h-3.26Z"/>
            <path id="DejaVuSans-65-5" data-name="DejaVuSans-65" d="M108.84,213.52h.2v1.46c.28-.01.49-.08.63-.2.14-.12.22-.28.22-.49,0-.12-.02-.24-.06-.35s-.09-.23-.17-.34h.38c.06.11.11.23.14.35s.05.24.05.36c0,.31-.11.55-.34.73-.23.18-.53.27-.92.27s-.72-.09-.95-.26c-.23-.17-.35-.4-.35-.69,0-.26.11-.47.32-.62.21-.15.5-.23.86-.23ZM108.72,213.84c-.22,0-.39.05-.52.15-.13.09-.2.22-.2.38,0,.18.06.32.19.42s.3.17.53.18v-1.13Z"/>
            <path id="DejaVuSans-28-2" data-name="DejaVuSans-28" d="M106.77,211.12c.33.15.66.27.99.34.33.07.66.11.99.11s.67-.04,1-.11.66-.19.99-.34v.28c-.34.17-.68.3-1.01.39-.33.09-.66.13-.98.13s-.65-.04-.98-.13c-.33-.09-.66-.21-1.01-.39v-.28Z"/>
            <path id="DejaVuSans-d7" d="M107.76,208.36l1,.79,1-.79.26.21-1,.79,1,.79-.26.2-1-.79-1,.79-.26-.2,1-.79-1-.79.26-.21Z"/>
            <path id="DejaVuSans-31-2" data-name="DejaVuSans-31" d="M109.79,207.44v-.57h-2.48l.16.62h-.4l-.16-.62v-.35h2.89v-.57h.37v1.48h-.37Z"/>
            <path id="DejaVuSans-30-3" data-name="DejaVuSans-30" d="M107.19,204.51c0,.18.11.31.33.4.22.09.56.14,1.01.14s.78-.05,1-.14c.22-.09.33-.23.33-.4s-.11-.32-.33-.41c-.22-.09-.56-.14-1-.14s-.78.05-1.01.14c-.22.09-.33.23-.33.41ZM106.84,204.51c0-.29.14-.51.43-.66.29-.15.71-.23,1.26-.23s.97.08,1.26.23c.29.15.43.37.43.66s-.14.51-.43.66c-.29.15-.71.23-1.26.23s-.97-.08-1.26-.23c-.29-.15-.43-.37-.43-.66Z"/>
            <path id="DejaVuSans-5e" d="M106.9,201.73l1.21-.94v.35l-.86.76.86.76v.35l-1.21-.94v-.34Z"/>
            <path id="DejaVuSans-2d" d="M108.76,200.25v-.93h.36v.93h-.36Z"/>
            <path id="DejaVuSans-38-2" data-name="DejaVuSans-38" d="M108.61,198.02c0,.17.06.3.17.39.11.09.27.14.46.14s.35-.05.46-.14c.11-.09.17-.23.17-.39s-.06-.3-.17-.39c-.11-.1-.27-.14-.46-.14s-.35.05-.46.14c-.11.09-.17.23-.17.39ZM108.43,198.37c-.05.15-.13.27-.26.35-.13.08-.29.12-.47.12-.26,0-.47-.07-.62-.22-.15-.15-.23-.35-.23-.6s.08-.46.23-.6.36-.22.62-.22c.19,0,.34.04.47.13.13.08.22.2.26.35.05-.17.15-.3.29-.39.14-.09.32-.14.53-.14.32,0,.56.08.73.23.17.15.25.37.25.65s-.08.5-.25.65c-.17.15-.41.23-.73.23-.21,0-.38-.05-.53-.14-.14-.09-.24-.23-.29-.39ZM107.73,198.5c.17,0,.3-.04.39-.12.09-.08.14-.2.14-.35s-.05-.27-.14-.35c-.09-.08-.23-.13-.39-.13s-.3.04-.39.13c-.09.08-.14.2-.14.35s.05.27.14.35c.09.08.23.12.39.12Z"/>
            <path id="DejaVuSans-6b" d="M106.77,195.46v-.32h2l-1.05-.95v-.41l1.14,1.02,1.3-1.07v.41l-1.19.98h1.19v.32h-3.39Z"/>
            <path id="DejaVuSans-67" d="M108.91,192.13c-.29,0-.52.05-.68.14-.16.09-.24.23-.24.4s.08.3.24.4c.16.09.38.14.68.14s.51-.05.67-.14c.16-.09.24-.23.24-.4s-.08-.3-.24-.4c-.16-.09-.38-.14-.67-.14ZM109.86,191.81c.42,0,.72.07.93.22.2.15.3.37.3.67,0,.11-.01.22-.03.32s-.05.2-.1.29h-.39c.06-.09.11-.19.14-.28.03-.09.05-.18.05-.28,0-.21-.07-.36-.21-.47-.14-.1-.34-.16-.62-.16h-.2c.14.07.25.15.32.25s.11.22.11.37c0,.24-.11.43-.34.57-.23.14-.53.22-.91.22s-.68-.07-.91-.22c-.23-.14-.34-.34-.34-.57,0-.14.04-.27.11-.37s.18-.19.32-.25h-.37v-.32h2.14Z"/>
            <path id="DejaVuSans-53-2" data-name="DejaVuSans-53" d="M107.01,188.48h.43c-.08.13-.14.26-.18.37-.04.12-.06.23-.06.34,0,.19.05.34.14.44.09.1.23.15.4.15.14,0,.25-.03.33-.1.07-.07.13-.2.18-.39l.05-.21c.06-.26.17-.45.33-.58s.37-.19.63-.19c.32,0,.56.08.72.25.16.17.24.41.24.74,0,.12-.02.25-.05.39-.03.14-.09.28-.15.43h-.45c.1-.14.18-.28.23-.42.05-.14.08-.27.08-.4,0-.2-.05-.35-.15-.46-.1-.11-.24-.16-.42-.16-.16,0-.28.04-.37.12s-.16.2-.2.38l-.05.21c-.07.26-.17.45-.31.56-.14.12-.33.17-.58.17-.29,0-.51-.08-.68-.24-.17-.16-.25-.38-.25-.66,0-.12.01-.24.04-.37.03-.13.07-.25.12-.38Z"/>
            <path id="DejaVuSans-62" d="M108.94,186.4c-.29,0-.53.05-.69.14s-.25.23-.25.4.08.3.25.4.4.14.69.14.53-.05.69-.14c.17-.1.25-.23.25-.4s-.08-.3-.25-.4c-.17-.1-.4-.14-.69-.14ZM108.09,187.48c-.15-.07-.25-.15-.32-.25-.07-.1-.11-.22-.11-.36,0-.23.12-.43.35-.57.24-.15.54-.22.93-.22s.69.07.93.22c.24.15.35.34.35.57,0,.14-.04.26-.11.36-.07.1-.18.19-.32.25h.37v.32h-3.39v-.32h1.32Z"/>
            <path id="DejaVuSans-65-6" data-name="DejaVuSans-65" d="M108.84,182.77h.2v1.46c.28-.01.49-.08.63-.2.14-.12.22-.28.22-.49,0-.12-.02-.24-.06-.35s-.09-.23-.17-.34h.38c.06.11.11.23.14.35s.05.24.05.36c0,.31-.11.55-.34.73-.23.18-.53.27-.92.27s-.72-.09-.95-.26c-.23-.17-.35-.4-.35-.69,0-.26.11-.47.32-.62.21-.15.5-.23.86-.23ZM108.72,183.09c-.22,0-.39.05-.52.15-.13.09-.2.22-.2.38,0,.18.06.32.19.42s.3.17.53.18v-1.13Z"/>
            <path id="DejaVuSans-71" d="M108.94,182.06c.29,0,.53-.05.69-.14.17-.1.25-.23.25-.4s-.08-.3-.25-.4c-.17-.1-.4-.15-.69-.15s-.53.05-.69.15c-.17.1-.25.23-.25.4s.08.3.25.4.4.14.69.14ZM109.79,180.98c.15.07.25.15.32.25.07.1.11.22.11.37,0,.23-.12.42-.35.57-.24.15-.55.22-.93.22s-.69-.07-.93-.22c-.24-.15-.35-.34-.35-.57,0-.14.04-.26.11-.37.07-.1.18-.19.32-.25h-.37v-.32h3.37v.32h-1.3Z"/>
            <path id="DejaVuSans-2f" d="M106.9,178.32v-.29l3.67.9v.29l-3.67-.9Z"/>
            <path id="DejaVuSans-6b-2" data-name="DejaVuSans-6b" d="M106.77,176.59v-.32h2l-1.05-.95v-.41l1.14,1.02,1.3-1.07v.41l-1.19.98h1.19v.32h-3.39Z"/>
            <path id="DejaVuSans-57-2" data-name="DejaVuSans-57" d="M106.9,174.75v-.35l2.75-.54-2.75-.54v-.39l2.75-.54-2.75-.54v-.35l3.26.65v.44l-2.83.54,2.83.55v.44l-3.26.64Z"/>
            <path id="DejaVuSans-68-2" data-name="DejaVuSans-68" d="M108.68,169.43h1.47v.32h-1.46c-.23,0-.4.04-.52.11-.11.07-.17.18-.17.32,0,.17.07.31.21.41.14.1.33.15.56.15h1.38v.32h-3.39v-.32h1.33c-.15-.08-.26-.17-.33-.27-.07-.1-.11-.22-.11-.36,0-.22.09-.39.26-.5.17-.11.43-.17.77-.17Z"/>
            <path id="DejaVuSans-29-2" data-name="DejaVuSans-29" d="M106.77,168.85v-.28c.34-.17.68-.3,1.01-.39.33-.09.65-.13.98-.13s.65.04.98.13c.33.09.67.21,1.01.39v.28c-.33-.15-.66-.27-.99-.34-.33-.08-.66-.11-1-.11s-.67.04-.99.11c-.33.08-.66.19-.99.34Z"/>
          </g>
        </g>
      </g>
      <g id="patch_8" data-name="patch 8">
        <path class="cls-2" d="M119.92,290.5V99.9"/>
      </g>
      <g id="patch_9" data-name="patch 9">
        <path class="cls-2" d="M259,290.5V99.9"/>
      </g>
      <g id="patch_10" data-name="patch 10">
        <path class="cls-2" d="M119.92,290.5h139.08"/>
      </g>
      <g id="patch_11" data-name="patch 11">
        <path class="cls-2" d="M119.92,99.9h139.08"/>
      </g>
      <g id="text_14" data-name="text 14">
        <g>
          <path id="DejaVuSans-Bold-39" class="cls-10" d="M132.56,118.95v-.4c.11.04.22.07.32.09.1.02.2.03.3.03.21,0,.37-.05.49-.14.12-.09.18-.23.21-.41-.08.05-.17.08-.26.11s-.19.04-.3.04c-.28,0-.5-.06-.67-.19-.17-.13-.26-.3-.26-.5,0-.23.09-.42.28-.56s.44-.21.76-.21c.35,0,.63.09.82.28.19.19.29.46.29.8s-.11.63-.34.84c-.23.2-.54.3-.93.3-.13,0-.25,0-.37-.02-.12-.01-.23-.04-.34-.07ZM133.42,117.92c.12,0,.21-.03.28-.09.06-.06.09-.16.09-.28s-.03-.22-.09-.28c-.06-.06-.15-.1-.28-.1s-.21.03-.28.1c-.06.06-.09.16-.09.28s.03.22.09.28c.06.06.15.09.28.09Z"/>
          <path id="DejaVuSans-Bold-2e" class="cls-10" d="M135.15,118.44h.65v.56h-.65v-.56Z"/>
          <path id="DejaVuSans-Bold-38" class="cls-10" d="M137.48,118.04c-.13,0-.23.03-.3.09-.07.06-.11.14-.11.24s.04.19.11.24c.07.06.17.08.3.08s.23-.03.3-.08c.07-.06.1-.14.1-.24s-.03-.19-.1-.24-.17-.08-.3-.08ZM136.97,117.85c-.16-.04-.29-.1-.37-.18-.08-.08-.13-.18-.13-.3,0-.18.09-.32.26-.41.17-.1.42-.14.75-.14s.58.05.75.14c.17.09.26.23.26.41,0,.12-.04.22-.13.3-.08.08-.21.14-.37.18.18.04.32.11.42.2.09.09.14.2.14.34,0,.21-.09.37-.27.48-.18.11-.44.16-.79.16s-.62-.05-.8-.16c-.18-.11-.27-.27-.27-.48,0-.14.05-.25.14-.34.09-.09.23-.16.42-.2ZM137.14,117.42c0,.09.03.15.09.2s.15.07.26.07.19-.02.25-.07c.06-.05.09-.11.09-.2s-.03-.15-.09-.2c-.06-.05-.14-.07-.25-.07s-.2.02-.26.07-.09.11-.09.2Z"/>
          <path id="DejaVuSans-Bold-36" class="cls-10" d="M140.12,117.94c-.12,0-.21.03-.28.09-.06.06-.09.16-.09.28s.03.22.09.28c.06.06.15.09.28.09s.22-.03.28-.09c.06-.06.09-.16.09-.28s-.03-.22-.09-.28c-.06-.06-.15-.09-.28-.09ZM140.99,116.91v.4c-.12-.04-.22-.08-.33-.1-.1-.02-.2-.03-.3-.03-.21,0-.37.05-.49.14-.12.09-.18.23-.2.41.08-.05.17-.08.26-.11.09-.02.2-.04.31-.04.28,0,.5.06.67.19.17.13.26.3.26.5,0,.23-.1.41-.29.55-.19.14-.44.21-.76.21-.35,0-.63-.09-.82-.28-.19-.19-.29-.46-.29-.8s.11-.63.34-.84c.23-.2.54-.3.93-.3.12,0,.25,0,.36.02s.23.04.35.07Z"/>
        </g>
      </g>
      <g id="text_15" data-name="text 15">
        <g>
          <path id="DejaVuSans-Bold-38-2" data-name="DejaVuSans-Bold-38" class="cls-10" d="M159.82,142.72c-.13,0-.23.03-.3.09-.07.06-.11.14-.11.24s.04.19.11.24c.07.06.17.08.3.08s.23-.03.3-.08c.07-.06.1-.14.1-.24s-.03-.19-.1-.24-.17-.08-.3-.08ZM159.31,142.54c-.16-.04-.29-.1-.37-.18-.08-.08-.13-.18-.13-.3,0-.18.09-.32.26-.41.17-.1.42-.14.75-.14s.58.05.75.14c.17.09.26.23.26.41,0,.12-.04.22-.13.3-.08.08-.21.14-.37.18.18.04.32.11.42.2.09.09.14.2.14.34,0,.21-.09.37-.27.48-.18.11-.44.16-.79.16s-.62-.05-.8-.16c-.18-.11-.27-.27-.27-.48,0-.14.05-.25.14-.34.09-.09.23-.16.42-.2ZM159.47,142.11c0,.09.03.15.09.2s.15.07.26.07.19-.02.25-.07c.06-.05.09-.11.09-.2s-.03-.15-.09-.2c-.06-.05-.14-.07-.25-.07s-.2.02-.26.07-.09.11-.09.2Z"/>
          <path id="DejaVuSans-Bold-2e-2" data-name="DejaVuSans-Bold-2e" class="cls-10" d="M161.5,143.12h.65v.56h-.65v-.56Z"/>
          <path id="DejaVuSans-Bold-35" class="cls-10" d="M162.92,141.53h1.74v.41h-1.18v.33c.05-.01.11-.02.16-.03.05,0,.11,0,.17,0,.33,0,.59.07.77.2s.28.31.28.55-.1.41-.3.55c-.2.13-.48.2-.83.2-.15,0-.31-.01-.46-.04-.15-.02-.3-.06-.45-.11v-.44c.15.07.29.12.42.15.13.03.26.05.38.05.17,0,.3-.03.4-.1.1-.07.15-.15.15-.27s-.05-.2-.15-.27c-.1-.07-.23-.1-.4-.1-.1,0-.21.01-.32.03-.11.02-.24.05-.37.1v-1.21Z"/>
          <path id="DejaVuSans-Bold-32" class="cls-10" d="M166.19,143.27h1.19v.41h-1.97v-.41l.99-.69c.09-.06.15-.12.2-.19s.06-.12.06-.19c0-.1-.04-.18-.13-.24s-.2-.09-.34-.09c-.11,0-.23.02-.36.06-.13.04-.27.09-.42.16v-.47c.16-.04.31-.07.47-.09.15-.02.3-.03.45-.03.32,0,.58.06.76.17.18.11.27.27.27.47,0,.12-.04.23-.11.33-.08.1-.24.24-.48.41l-.58.4Z"/>
        </g>
      </g>
      <g id="text_16" data-name="text 16">
        <g>
          <path id="DejaVuSans-Bold-37" class="cls-10" d="M185.12,162.48h2.04v.31l-1.06,1.83h-.68l1-1.74h-1.31v-.41Z"/>
          <path id="DejaVuSans-Bold-2e-3" data-name="DejaVuSans-Bold-2e" class="cls-10" d="M187.84,164.07h.65v.56h-.65v-.56Z"/>
          <path id="DejaVuSans-Bold-33" class="cls-10" d="M190.6,163.47c.18.04.32.1.42.2.1.09.14.21.14.35,0,.21-.1.37-.31.49-.21.11-.51.17-.9.17-.14,0-.28,0-.42-.03-.14-.02-.28-.04-.42-.08v-.43c.13.05.26.09.39.12.13.03.26.04.38.04.19,0,.33-.03.43-.08.1-.05.15-.12.15-.22s-.05-.17-.15-.22-.25-.08-.45-.08h-.28v-.36h.29c.18,0,.31-.02.39-.07.09-.04.13-.11.13-.2,0-.08-.04-.15-.13-.19-.08-.05-.2-.07-.35-.07-.11,0-.23.01-.34.03-.12.02-.23.05-.34.09v-.41c.14-.03.27-.05.41-.07s.27-.02.4-.02c.35,0,.62.05.79.14.18.09.26.23.26.41,0,.13-.04.23-.13.31-.08.08-.21.14-.37.17Z"/>
          <path id="DejaVuSans-Bold-38-3" data-name="DejaVuSans-Bold-38" class="cls-10" d="M192.76,163.66c-.13,0-.23.03-.3.09-.07.06-.11.14-.11.24s.04.19.11.24c.07.06.17.08.3.08s.23-.03.3-.08c.07-.06.1-.14.1-.24s-.03-.19-.1-.24-.17-.08-.3-.08ZM192.24,163.48c-.16-.04-.29-.1-.37-.18-.08-.08-.13-.18-.13-.3,0-.18.09-.32.26-.41.17-.1.42-.14.75-.14s.58.05.75.14c.17.09.26.23.26.41,0,.12-.04.22-.13.3-.08.08-.21.14-.37.18.18.04.32.11.42.2.09.09.14.2.14.34,0,.21-.09.37-.27.48-.18.11-.44.16-.79.16s-.62-.05-.8-.16c-.18-.11-.27-.27-.27-.48,0-.14.05-.25.14-.34.09-.09.23-.16.42-.2ZM192.41,163.05c0,.09.03.15.09.2s.15.07.26.07.19-.02.25-.07c.06-.05.09-.11.09-.2s-.03-.15-.09-.2c-.06-.05-.14-.07-.25-.07s-.2.02-.26.07-.09.11-.09.2Z"/>
        </g>
      </g>
      <g id="text_17" data-name="text 17">
        <g>
          <path id="DejaVuSans-Bold-36-2" data-name="DejaVuSans-Bold-36" class="cls-10" d="M212.56,181.15c-.12,0-.21.03-.28.09-.06.06-.09.16-.09.28s.03.22.09.28c.06.06.15.09.28.09s.22-.03.28-.09c.06-.06.09-.16.09-.28s-.03-.22-.09-.28c-.06-.06-.15-.09-.28-.09ZM213.42,180.12v.4c-.12-.04-.22-.08-.33-.1-.1-.02-.2-.03-.3-.03-.21,0-.37.05-.49.14-.12.09-.18.23-.2.41.08-.05.17-.08.26-.11.09-.02.2-.04.31-.04.28,0,.5.06.67.19.17.13.26.3.26.5,0,.23-.1.41-.29.55-.19.14-.44.21-.76.21-.35,0-.63-.09-.82-.28-.19-.19-.29-.46-.29-.8s.11-.63.34-.84c.23-.2.54-.3.93-.3.12,0,.25,0,.36.02s.23.04.35.07Z"/>
          <path id="DejaVuSans-Bold-2e-4" data-name="DejaVuSans-Bold-2e" class="cls-10" d="M214.18,181.66h.65v.56h-.65v-.56Z"/>
          <path id="DejaVuSans-Bold-34" class="cls-10" d="M216.58,180.52l-.77.9h.77v-.9ZM216.47,180.07h.78v1.35h.39v.4h-.39v.39h-.66v-.39h-1.2v-.47l1.09-1.28Z"/>
          <path id="DejaVuSans-Bold-32-2" data-name="DejaVuSans-Bold-32" class="cls-10" d="M218.87,181.81h1.19v.41h-1.97v-.41l.99-.69c.09-.06.15-.12.2-.19s.06-.12.06-.19c0-.1-.04-.18-.13-.24s-.2-.09-.34-.09c-.11,0-.23.02-.36.06-.13.04-.27.09-.42.16v-.47c.16-.04.31-.07.47-.09.15-.02.3-.03.45-.03.32,0,.58.06.76.17.18.11.27.27.27.47,0,.12-.04.23-.11.33-.08.1-.24.24-.48.41l-.58.4Z"/>
        </g>
      </g>
      <g id="text_18" data-name="text 18">
        <g>
          <path id="DejaVuSans-Bold-34-2" data-name="DejaVuSans-Bold-34" class="cls-10" d="M238.92,209.35l-.77.9h.77v-.9ZM238.8,208.9h.78v1.35h.39v.4h-.39v.39h-.66v-.39h-1.2v-.47l1.09-1.28Z"/>
          <path id="DejaVuSans-Bold-2e-5" data-name="DejaVuSans-Bold-2e" class="cls-10" d="M240.52,210.49h.65v.56h-.65v-.56Z"/>
          <path id="DejaVuSans-Bold-38-4" data-name="DejaVuSans-Bold-38" class="cls-10" d="M242.85,210.08c-.13,0-.23.03-.3.09-.07.06-.11.14-.11.24s.04.19.11.24c.07.06.17.08.3.08s.23-.03.3-.08c.07-.06.1-.14.1-.24s-.03-.19-.1-.24-.17-.08-.3-.08ZM242.34,209.9c-.16-.04-.29-.1-.37-.18-.08-.08-.13-.18-.13-.3,0-.18.09-.32.26-.41.17-.1.42-.14.75-.14s.58.05.75.14c.17.09.26.23.26.41,0,.12-.04.22-.13.3-.08.08-.21.14-.37.18.18.04.32.11.42.2.09.09.14.2.14.34,0,.21-.09.37-.27.48-.18.11-.44.16-.79.16s-.62-.05-.8-.16c-.18-.11-.27-.27-.27-.48,0-.14.05-.25.14-.34.09-.09.23-.16.42-.2ZM242.5,209.47c0,.09.03.15.09.2s.15.07.26.07.19-.02.25-.07c.06-.05.09-.11.09-.2s-.03-.15-.09-.2c-.06-.05-.14-.07-.25-.07s-.2.02-.26.07-.09.11-.09.2Z"/>
          <path id="DejaVuSans-Bold-36-3" data-name="DejaVuSans-Bold-36" class="cls-10" d="M245.49,209.98c-.12,0-.21.03-.28.09-.06.06-.09.16-.09.28s.03.22.09.28c.06.06.15.09.28.09s.22-.03.28-.09c.06-.06.09-.16.09-.28s-.03-.22-.09-.28c-.06-.06-.15-.09-.28-.09ZM246.35,208.95v.4c-.12-.04-.22-.08-.33-.1-.1-.02-.2-.03-.3-.03-.21,0-.37.05-.49.14-.12.09-.18.23-.2.41.08-.05.17-.08.26-.11.09-.02.2-.04.31-.04.28,0,.5.06.67.19.17.13.26.3.26.5,0,.23-.1.41-.29.55-.19.14-.44.21-.76.21-.35,0-.63-.09-.82-.28-.19-.19-.29-.46-.29-.8s.11-.63.34-.84c.23-.2.54-.3.93-.3.12,0,.25,0,.36.02s.23.04.35.07Z"/>
        </g>
      </g>
      <g id="text_19" data-name="text 19">
        <g>
          <path id="DejaVuSans-41-5" data-name="DejaVuSans-41" d="M142.9,95.53l-.7,1.5h1.4l-.7-1.5ZM142.61,95.13h.58l1.45,3h-.53l-.35-.77h-1.71l-.35.77h-.54l1.45-3Z"/>
          <path id="DejaVuSans-62-2" data-name="DejaVuSans-62" d="M147.22,97.01c0-.27-.07-.49-.21-.64s-.34-.23-.58-.23-.44.08-.58.23-.21.37-.21.64.07.49.21.64c.14.15.34.23.58.23s.44-.08.58-.23c.14-.15.21-.37.21-.64ZM145.62,96.22c.1-.13.22-.23.37-.3.15-.07.33-.1.54-.1.35,0,.63.11.84.33.22.22.32.5.32.86s-.11.64-.32.86c-.22.22-.5.33-.84.33-.21,0-.39-.03-.54-.1-.15-.07-.27-.16-.37-.3v.34h-.47v-3.13h.47v1.22Z"/>
          <path id="DejaVuSans-69-3" data-name="DejaVuSans-69" d="M148.48,95.88h.47v2.25h-.47v-2.25ZM148.48,95h.47v.47h-.47v-.47Z"/>
          <path id="DejaVuSans-6f-5" data-name="DejaVuSans-6f" d="M151.03,96.14c-.25,0-.45.08-.6.23s-.22.37-.22.64.07.48.22.64c.15.15.34.23.6.23s.45-.08.59-.23c.15-.16.22-.37.22-.64s-.07-.48-.22-.63c-.15-.16-.34-.23-.59-.23ZM151.03,95.82c.41,0,.73.1.96.31.23.21.35.5.35.87s-.12.66-.35.87c-.23.21-.55.31-.96.31s-.73-.1-.96-.31c-.23-.21-.35-.5-.35-.87s.12-.66.35-.87c.23-.21.55-.31.96-.31Z"/>
          <path id="DejaVuSans-74-2" data-name="DejaVuSans-74" d="M153.57,95.24v.64h.96v.29h-.96v1.22c0,.18.03.3.1.35s.19.08.39.08h.48v.31h-.48c-.36,0-.61-.05-.75-.16-.14-.11-.21-.3-.21-.58v-1.22h-.34v-.29h.34v-.64h.47Z"/>
          <path id="DejaVuSans-69-4" data-name="DejaVuSans-69" d="M155.15,95.88h.47v2.25h-.47v-2.25ZM155.15,95h.47v.47h-.47v-.47Z"/>
          <path id="DejaVuSans-63-2" data-name="DejaVuSans-63" d="M158.65,95.96v.35c-.13-.06-.27-.1-.4-.13s-.27-.04-.4-.04c-.3,0-.54.08-.71.23-.17.15-.25.37-.25.64s.08.49.25.64c.17.15.4.23.71.23.14,0,.27-.01.4-.04s.27-.07.4-.13v.34c-.13.05-.27.08-.41.11-.14.02-.29.04-.45.04-.43,0-.77-.11-1.02-.32-.25-.21-.38-.5-.38-.86s.13-.66.38-.87c.26-.21.61-.32,1.05-.32.14,0,.28.01.42.04.14.02.27.06.4.1Z"/>
          <path id="DejaVuSans-44-2" data-name="DejaVuSans-44" d="M161.66,95.46v2.34h.62c.52,0,.91-.09,1.15-.28.24-.19.36-.48.36-.89s-.12-.7-.36-.88-.63-.28-1.15-.28h-.62ZM161.14,95.13h1.06c.74,0,1.28.12,1.62.36.34.24.52.62.52,1.14s-.17.9-.52,1.14c-.35.24-.88.36-1.62.36h-1.06v-3Z"/>
          <path id="DejaVuSans-65-7" data-name="DejaVuSans-65" d="M167.57,96.91v.18h-2.15c.02.25.12.45.29.58.17.13.42.2.73.2.18,0,.35-.02.52-.05s.34-.09.5-.16v.35c-.17.06-.34.1-.52.13s-.36.04-.54.04c-.45,0-.81-.1-1.08-.31-.27-.21-.4-.49-.4-.85s.13-.66.38-.88c.25-.22.59-.33,1.02-.33.38,0,.69.1.91.29.22.19.33.46.33.8ZM167.1,96.8c0-.2-.07-.36-.21-.48-.14-.12-.33-.18-.56-.18-.26,0-.47.06-.63.18s-.25.28-.27.49h1.67Z"/>
          <path id="DejaVuSans-70-2" data-name="DejaVuSans-70" d="M168.79,97.79v1.2h-.47v-3.11h.47v.34c.1-.13.22-.23.37-.3.15-.07.33-.1.54-.1.35,0,.63.11.84.33.22.22.32.5.32.86s-.11.64-.32.86c-.22.22-.5.33-.84.33-.21,0-.39-.03-.54-.1-.15-.07-.27-.16-.37-.3ZM170.38,97.01c0-.27-.07-.49-.21-.64s-.34-.23-.58-.23-.44.08-.58.23-.21.37-.21.64.07.49.21.64c.14.15.34.23.58.23s.44-.08.58-.23c.14-.15.21-.37.21-.64Z"/>
          <path id="DejaVuSans-6c-2" data-name="DejaVuSans-6c" d="M171.65,95h.47v3.13h-.47v-3.13Z"/>
          <path id="DejaVuSans-65-8" data-name="DejaVuSans-65" d="M175.53,96.91v.18h-2.15c.02.25.12.45.29.58.17.13.42.2.73.2.18,0,.35-.02.52-.05s.34-.09.5-.16v.35c-.17.06-.34.1-.52.13s-.36.04-.54.04c-.45,0-.81-.1-1.08-.31-.27-.21-.4-.49-.4-.85s.13-.66.38-.88c.25-.22.59-.33,1.02-.33.38,0,.69.1.91.29.22.19.33.46.33.8ZM175.06,96.8c0-.2-.07-.36-.21-.48-.14-.12-.33-.18-.56-.18-.26,0-.47.06-.63.18s-.25.28-.27.49h1.67Z"/>
          <path id="DejaVuSans-74-3" data-name="DejaVuSans-74" d="M176.76,95.24v.64h.96v.29h-.96v1.22c0,.18.03.3.1.35s.19.08.39.08h.48v.31h-.48c-.36,0-.61-.05-.75-.16-.14-.11-.21-.3-.21-.58v-1.22h-.34v-.29h.34v-.64h.47Z"/>
          <path id="DejaVuSans-69-5" data-name="DejaVuSans-69" d="M178.34,95.88h.47v2.25h-.47v-2.25ZM178.34,95h.47v.47h-.47v-.47Z"/>
          <path id="DejaVuSans-6f-6" data-name="DejaVuSans-6f" d="M180.89,96.14c-.25,0-.45.08-.6.23s-.22.37-.22.64.07.48.22.64c.15.15.34.23.6.23s.45-.08.59-.23c.15-.16.22-.37.22-.64s-.07-.48-.22-.63c-.15-.16-.34-.23-.59-.23ZM180.89,95.82c.41,0,.73.1.96.31.23.21.35.5.35.87s-.12.66-.35.87c-.23.21-.55.31-.96.31s-.73-.1-.96-.31c-.23-.21-.35-.5-.35-.87s.12-.66.35-.87c.23-.21.55-.31.96-.31Z"/>
          <path id="DejaVuSans-6e-4" data-name="DejaVuSans-6e" d="M185.35,96.77v1.36h-.47v-1.35c0-.21-.05-.37-.16-.48-.11-.11-.26-.16-.47-.16-.25,0-.45.06-.6.19-.15.13-.22.3-.22.52v1.27h-.47v-2.25h.47v.35c.11-.14.24-.24.4-.3.15-.07.33-.1.53-.1.33,0,.57.08.74.24.17.16.25.4.25.71Z"/>
          <path id="DejaVuSans-50-2" data-name="DejaVuSans-50" d="M188.47,95.46v1.13h.65c.24,0,.42-.05.55-.15.13-.1.2-.24.2-.42s-.07-.32-.2-.42c-.13-.1-.32-.15-.55-.15h-.65ZM187.95,95.13h1.16c.43,0,.75.08.97.23.22.15.33.38.33.67s-.11.52-.33.67c-.22.15-.54.23-.97.23h-.65v1.21h-.51v-3Z"/>
          <path id="DejaVuSans-6f-7" data-name="DejaVuSans-6f" d="M191.99,96.14c-.25,0-.45.08-.6.23s-.22.37-.22.64.07.48.22.64c.15.15.34.23.6.23s.45-.08.59-.23c.15-.16.22-.37.22-.64s-.07-.48-.22-.63c-.15-.16-.34-.23-.59-.23ZM191.99,95.82c.41,0,.73.1.96.31.23.21.35.5.35.87s-.12.66-.35.87c-.23.21-.55.31-.96.31s-.73-.1-.96-.31c-.23-.21-.35-.5-.35-.87s.12-.66.35-.87c.23-.21.55-.31.96-.31Z"/>
          <path id="DejaVuSans-74-4" data-name="DejaVuSans-74" d="M194.54,95.24v.64h.96v.29h-.96v1.22c0,.18.03.3.1.35s.19.08.39.08h.48v.31h-.48c-.36,0-.61-.05-.75-.16-.14-.11-.21-.3-.21-.58v-1.22h-.34v-.29h.34v-.64h.47Z"/>
          <path id="DejaVuSans-65-9" data-name="DejaVuSans-65" d="M198.55,96.91v.18h-2.15c.02.25.12.45.29.58.17.13.42.2.73.2.18,0,.35-.02.52-.05s.34-.09.5-.16v.35c-.17.06-.34.1-.52.13s-.36.04-.54.04c-.45,0-.81-.1-1.08-.31-.27-.21-.4-.49-.4-.85s.13-.66.38-.88c.25-.22.59-.33,1.02-.33.38,0,.69.1.91.29.22.19.33.46.33.8ZM198.09,96.8c0-.2-.07-.36-.21-.48-.14-.12-.33-.18-.56-.18-.26,0-.47.06-.63.18s-.25.28-.27.49h1.67Z"/>
          <path id="DejaVuSans-6e-5" data-name="DejaVuSans-6e" d="M201.69,96.77v1.36h-.47v-1.35c0-.21-.05-.37-.16-.48-.11-.11-.26-.16-.47-.16-.25,0-.45.06-.6.19-.15.13-.22.3-.22.52v1.27h-.47v-2.25h.47v.35c.11-.14.24-.24.4-.3.15-.07.33-.1.53-.1.33,0,.57.08.74.24.17.16.25.4.25.71Z"/>
          <path id="DejaVuSans-74-5" data-name="DejaVuSans-74" d="M203.09,95.24v.64h.96v.29h-.96v1.22c0,.18.03.3.1.35s.19.08.39.08h.48v.31h-.48c-.36,0-.61-.05-.75-.16-.14-.11-.21-.3-.21-.58v-1.22h-.34v-.29h.34v-.64h.47Z"/>
          <path id="DejaVuSans-69-6" data-name="DejaVuSans-69" d="M204.67,95.88h.47v2.25h-.47v-2.25ZM204.67,95h.47v.47h-.47v-.47Z"/>
          <path id="DejaVuSans-61-4" data-name="DejaVuSans-61" d="M207.41,97c-.38,0-.64.03-.79.1s-.22.19-.22.35c0,.13.05.24.16.31.11.08.26.12.45.12.26,0,.47-.07.63-.22s.24-.34.24-.58v-.08h-.47ZM208.34,96.85v1.29h-.47v-.34c-.11.14-.24.24-.4.3-.16.07-.35.1-.59.1-.29,0-.52-.06-.7-.19-.17-.13-.26-.3-.26-.52,0-.25.11-.44.32-.57.21-.13.54-.19.96-.19h.66v-.04c0-.17-.07-.3-.21-.4s-.34-.14-.6-.14c-.16,0-.32.02-.48.05-.15.03-.3.08-.44.14v-.34c.17-.05.34-.09.5-.12.16-.03.32-.04.47-.04.41,0,.72.08.92.25.2.17.31.42.31.77Z"/>
          <path id="DejaVuSans-6c-3" data-name="DejaVuSans-6c" d="M209.31,95h.47v3.13h-.47v-3.13Z"/>
          <path id="DejaVuSans-62-3" data-name="DejaVuSans-62" d="M214.46,97.01c0-.27-.07-.49-.21-.64s-.34-.23-.58-.23-.44.08-.58.23-.21.37-.21.64.07.49.21.64c.14.15.34.23.58.23s.44-.08.58-.23c.14-.15.21-.37.21-.64ZM212.86,96.22c.1-.13.22-.23.37-.3.15-.07.33-.1.54-.1.35,0,.63.11.84.33.22.22.32.5.32.86s-.11.64-.32.86c-.22.22-.5.33-.84.33-.21,0-.39-.03-.54-.1-.15-.07-.27-.16-.37-.3v.34h-.47v-3.13h.47v1.22Z"/>
          <path id="DejaVuSans-79-2" data-name="DejaVuSans-79" d="M216.9,98.34c-.13.27-.26.44-.39.52-.13.08-.29.12-.5.12h-.37v-.31h.28c.13,0,.23-.02.3-.07.07-.05.15-.16.24-.34l.08-.17-1.15-2.22h.5l.89,1.76.89-1.76h.5l-1.25,2.46Z"/>
          <path id="DejaVuSans-52" d="M222.28,96.72c.11.03.22.09.32.19s.21.23.31.4l.52.82h-.55l-.49-.77c-.13-.2-.25-.33-.37-.4s-.28-.1-.48-.1h-.56v1.27h-.51v-3h1.16c.43,0,.76.07.97.22.21.14.32.36.32.65,0,.19-.06.35-.17.47-.11.12-.27.21-.48.26ZM220.99,95.46v1.07h.65c.25,0,.43-.05.56-.14s.19-.22.19-.4-.06-.31-.19-.4-.31-.13-.56-.13h-.65Z"/>
          <path id="DejaVuSans-65-10" data-name="DejaVuSans-65" d="M226.28,96.91v.18h-2.15c.02.25.12.45.29.58.17.13.42.2.73.2.18,0,.35-.02.52-.05s.34-.09.5-.16v.35c-.17.06-.34.1-.52.13s-.36.04-.54.04c-.45,0-.81-.1-1.08-.31-.27-.21-.4-.49-.4-.85s.13-.66.38-.88c.25-.22.59-.33,1.02-.33.38,0,.69.1.91.29.22.19.33.46.33.8ZM225.81,96.8c0-.2-.07-.36-.21-.48-.14-.12-.33-.18-.56-.18-.26,0-.47.06-.63.18s-.25.28-.27.49h1.67Z"/>
          <path id="DejaVuSans-67-2" data-name="DejaVuSans-67" d="M228.92,96.98c0-.27-.07-.48-.21-.62-.14-.15-.34-.22-.59-.22s-.45.07-.59.22c-.14.15-.21.35-.21.62s.07.47.21.62c.14.15.34.22.59.22s.45-.07.59-.22c.14-.15.21-.35.21-.62ZM229.39,97.85c0,.38-.11.67-.32.86-.21.19-.54.28-.99.28-.16,0-.32,0-.47-.03s-.29-.05-.42-.09v-.36c.14.06.27.1.41.13.13.03.27.04.41.04.31,0,.54-.06.69-.19.15-.13.23-.32.23-.57v-.18c-.1.13-.22.23-.37.3s-.33.1-.54.1c-.35,0-.63-.11-.84-.32-.21-.21-.32-.49-.32-.84s.11-.63.32-.84c.21-.21.5-.32.84-.32.21,0,.39.03.54.1s.27.16.37.3v-.34h.47v1.97Z"/>
          <path id="DejaVuSans-69-7" data-name="DejaVuSans-69" d="M230.35,95.88h.47v2.25h-.47v-2.25ZM230.35,95h.47v.47h-.47v-.47Z"/>
          <path id="DejaVuSans-6f-8" data-name="DejaVuSans-6f" d="M232.91,96.14c-.25,0-.45.08-.6.23s-.22.37-.22.64.07.48.22.64c.15.15.34.23.6.23s.45-.08.59-.23c.15-.16.22-.37.22-.64s-.07-.48-.22-.63c-.15-.16-.34-.23-.59-.23ZM232.91,95.82c.41,0,.73.1.96.31.23.21.35.5.35.87s-.12.66-.35.87c-.23.21-.55.31-.96.31s-.73-.1-.96-.31c-.23-.21-.35-.5-.35-.87s.12-.66.35-.87c.23-.21.55-.31.96-.31Z"/>
          <path id="DejaVuSans-6e-6" data-name="DejaVuSans-6e" d="M237.36,96.77v1.36h-.47v-1.35c0-.21-.05-.37-.16-.48-.11-.11-.26-.16-.47-.16-.25,0-.45.06-.6.19-.15.13-.22.3-.22.52v1.27h-.47v-2.25h.47v.35c.11-.14.24-.24.4-.3.15-.07.33-.1.53-.1.33,0,.57.08.74.24.17.16.25.4.25.71Z"/>
        </g>
      </g>
    </g>
    <text class="cls-8" transform="translate(33.05 320.77)"><tspan class="cls-21" x="0" y="0">T</tspan><tspan class="cls-9" x="4.41" y="0">he USA </tspan><tspan class="cls-20" x="33.5" y="0">r</tspan><tspan x="36.35" y="0">elies he</tspan><tspan class="cls-23" x="64.57" y="0">a</tspan><tspan x="68.84" y="0">vily on non-</tspan><tspan class="cls-20" x="113.08" y="0">r</tspan><tspan class="cls-12" x="115.94" y="0">ene</tspan><tspan class="cls-18" x="129.95" y="0">w</tspan><tspan x="136.54" y="0">able</tspan><tspan x="23.35" y="10.8">ene</tspan><tspan class="cls-22" x="37.36" y="10.8">r</tspan><tspan class="cls-16" x="40.23" y="10.8">g</tspan><tspan x="45.21" y="10.8">ies like </tspan><tspan class="cls-13" x="72.16" y="10.8">f</tspan><tspan x="74.67" y="10.8" xml:space="preserve">ossil fuels -  meaning</tspan><tspan x="4.46" y="21.6">mo</tspan><tspan class="cls-20" x="16.9" y="21.6">r</tspan><tspan class="cls-12" x="19.75" y="21.6">e depletion of n</tspan><tspan class="cls-18" x="78.91" y="21.6">a</tspan><tspan x="83.21" y="21.6">tu</tspan><tspan class="cls-17" x="91.15" y="21.6">r</tspan><tspan x="94.05" y="21.6">al </tspan><tspan class="cls-20" x="102.42" y="21.6">r</tspan><tspan class="cls-12" x="105.27" y="21.6">esou</tspan><tspan class="cls-20" x="123.24" y="21.6">r</tspan><tspan class="cls-15" x="126.1" y="21.6">c</tspan><tspan x="130.08" y="21.6">es per</tspan><tspan class="cls-25" x="24.01" y="32.4">k</tspan><tspan x="28.39" y="32.4">il</tspan><tspan class="cls-21" x="32.62" y="32.4">o</tspan><tspan class="cls-18" x="37.49" y="32.4">wa</tspan><tspan x="48.38" y="32.4">t</tspan><tspan class="cls-17" x="51.36" y="32.4">t</tspan><tspan class="cls-12" x="54.3" y="32.4">-hour of ene</tspan><tspan class="cls-23" x="100.29" y="32.4">r</tspan><tspan class="cls-12" x="103.17" y="32.4">gy p</tspan><tspan class="cls-20" x="119.46" y="32.4">r</tspan><tspan x="122.32" y="32.4">odu</tspan><tspan class="cls-16" x="137.29" y="32.4">c</tspan><tspan x="141.27" y="32.4">e</tspan><tspan class="cls-19" x="145.78" y="32.4">d</tspan><tspan class="cls-9" x="150.77" y="32.4">.</tspan></text>
  </g>
</svg>