<?xml version="1.0" encoding="UTF-8"?>
<svg id="Layer_2" data-name="Layer 2" xmlns="http://www.w3.org/2000/svg" xmlns:xlink="http://www.w3.org/1999/xlink" viewBox="0 0 699 425">
  <defs>
    <style>
      .cls-1, .cls-2 {
        fill: none;
      }

      .cls-3 {
        fill: #e37539;
      }

      .cls-4 {
        clip-path: url(#clippath-1);
      }

      .cls-5 {
        clip-path: url(#clippath-3);
      }

      .cls-6 {
        clip-path: url(#clippath-4);
      }

      .cls-7 {
        clip-path: url(#clippath-2);
      }

      .cls-8 {
        font-family: MyriadPro-Regular, 'Myriad Pro';
        font-size: 9px;
      }

      .cls-9 {
        letter-spacing: 0em;
      }

      .cls-10 {
        fill: #fff;
      }

      .cls-11 {
        letter-spacing: 0em;
      }

      .cls-12 {
        letter-spacing: -.01em;
      }

      .cls-13 {
        stroke-linejoin: round;
      }

      .cls-13, .cls-2 {
        stroke: #000;
        stroke-width: .8px;
      }

      .cls-14 {
        letter-spacing: 0em;
      }

      .cls-15 {
        letter-spacing: 0em;
      }

      .cls-16 {
        letter-spacing: 0em;
      }

      .cls-17 {
        letter-spacing: 0em;
      }

      .cls-2 {
        stroke-linecap: square;
      }

      .cls-18 {
        letter-spacing: -.01em;
      }

      .cls-19 {
        letter-spacing: 0em;
      }

      .cls-20 {
        letter-spacing: 0em;
      }

      .cls-21 {
        letter-spacing: 0em;
      }

      .cls-22 {
        letter-spacing: 0em;
      }

      .cls-23 {
        clip-path: url(#clippath);
      }

      .cls-24 {
        letter-spacing: .02em;
      }

      .cls-25 {
        fill: #f1b343;
      }
    </style>
    <clipPath id="clippath">
      <rect class="cls-1" x="110.84" y="108.5" width="344.09" height="195.87"/>
    </clipPath>
    <clipPath id="clippath-1">
      <rect class="cls-1" x="110.84" y="108.5" width="344.09" height="195.87"/>
    </clipPath>
    <clipPath id="clippath-2">
      <rect class="cls-1" x="110.84" y="108.5" width="344.09" height="195.87"/>
    </clipPath>
    <clipPath id="clippath-3">
      <rect class="cls-1" x="110.84" y="108.5" width="344.09" height="195.87"/>
    </clipPath>
    <clipPath id="clippath-4">
      <rect class="cls-1" x="110.84" y="108.5" width="344.09" height="195.87"/>
    </clipPath>
  </defs>
  <g id="ai2html-settings">
    <path class="cls-1" d="M0,0v425h699V0H0ZM72.58,76c-6.44,0-6.43-10,0-10s6.43,10,0,10ZM269.98,195.86c-6.44,0-6.43-10,0-10s6.43,10,0,10ZM305.09,154.14c-6.44,0-6.43-10,0-10s6.43,10,0,10ZM470.24,208.31c-6.44,0-6.43-10,0-10s6.43,10,0,10Z"/>
    <g id="figure_1" data-name="figure 1">
      <g id="patch_1" data-name="patch 1">
        <path class="cls-10" d="M56,327h405V94H56v233Z"/>
      </g>
      <g id="axes_1" data-name="axes 1">
        <g id="patch_2" data-name="patch 2">
          <path class="cls-10" d="M110.84,304.37h344.09V108.5H110.84v195.87Z"/>
        </g>
        <g id="patch_3" data-name="patch 3">
          <g class="cls-23">
            <path class="cls-3" d="M110.84,295.47h327.7v-29.68H110.84v29.68Z"/>
          </g>
        </g>
        <g id="patch_4" data-name="patch 4">
          <g class="cls-4">
            <path class="cls-25" d="M110.84,258.37h283.14v-29.68H110.84v29.68Z"/>
          </g>
        </g>
        <g id="patch_5" data-name="patch 5">
          <g class="cls-7">
            <path class="cls-25" d="M110.84,221.27h245.34v-29.68H110.84v29.68Z"/>
          </g>
        </g>
        <g id="patch_6" data-name="patch 6">
          <g class="cls-5">
            <path class="cls-25" d="M110.84,184.18h213.58v-29.68H110.84v29.68Z"/>
          </g>
        </g>
        <g id="patch_7" data-name="patch 7">
          <g class="cls-6">
            <path class="cls-25" d="M110.84,147.08h161.54v-29.68H110.84v29.68Z"/>
          </g>
        </g>
        <g id="matplotlib.axis_1" data-name="matplotlib.axis 1">
          <g id="xtick_1" data-name="xtick 1">
            <g id="line2d_1" data-name="line2d 1">
              <path id="m2ea6c773c6" class="cls-13" d="M110.84,304.37v1.89"/>
            </g>
            <g id="text_1" data-name="text 1">
              <path id="DejaVuSans-30" d="M110.84,308.66c-.29,0-.5.13-.64.4-.14.27-.22.67-.22,1.22s.07.94.22,1.21c.14.27.36.4.64.4s.5-.13.65-.4c.14-.27.22-.67.22-1.21s-.07-.95-.22-1.22c-.14-.27-.36-.4-.65-.4ZM110.84,308.24c.46,0,.81.17,1.05.52.24.35.36.85.36,1.52s-.12,1.17-.36,1.52c-.24.35-.59.52-1.05.52s-.81-.17-1.05-.52c-.24-.35-.36-.85-.36-1.52s.12-1.17.36-1.52c.24-.35.59-.52,1.05-.52Z"/>
            </g>
          </g>
          <g id="xtick_2" data-name="xtick 2">
            <g id="line2d_2" data-name="line2d 2">
              <path id="m2ea6c773c6-2" data-name="m2ea6c773c6" class="cls-13" d="M177.34,304.37v1.89"/>
            </g>
            <g id="text_2" data-name="text 2">
              <path id="DejaVuSans-32" d="M176.63,311.79h1.94v.45h-2.6v-.45c.21-.21.5-.49.86-.84.36-.35.59-.58.69-.68.18-.19.3-.35.37-.49.07-.13.11-.26.11-.39,0-.21-.08-.38-.23-.51-.15-.13-.35-.2-.6-.2-.17,0-.36.03-.55.09-.19.06-.4.15-.62.26v-.54c.22-.09.43-.15.63-.19.19-.04.37-.07.53-.07.42,0,.76.1,1.02.31.25.2.38.48.38.82,0,.16-.03.32-.09.46-.06.14-.18.31-.34.51-.05.05-.19.2-.44.44-.24.24-.59.58-1.04,1.02Z"/>
            </g>
          </g>
          <g id="xtick_3" data-name="xtick 3">
            <g id="line2d_3" data-name="line2d 3">
              <path id="m2ea6c773c6-3" data-name="m2ea6c773c6" class="cls-13" d="M243.85,304.37v1.89"/>
            </g>
            <g id="text_3" data-name="text 3">
              <path id="DejaVuSans-34" d="M244.18,308.77l-1.4,2.1h1.4v-2.1ZM244.04,308.31h.7v2.56h.59v.44h-.59v.93h-.55v-.93h-1.85v-.51l1.71-2.49Z"/>
            </g>
          </g>
          <g id="xtick_4" data-name="xtick 4">
            <g id="line2d_4" data-name="line2d 4">
              <path id="m2ea6c773c6-4" data-name="m2ea6c773c6" class="cls-13" d="M310.35,304.37v1.89"/>
            </g>
            <g id="text_4" data-name="text 4">
              <path id="DejaVuSans-36" d="M310.42,310.06c-.25,0-.45.08-.59.25-.15.16-.22.39-.22.67s.07.51.22.67c.15.16.34.25.59.25s.45-.08.59-.25c.15-.16.22-.39.22-.67s-.07-.51-.22-.67c-.15-.16-.34-.25-.59-.25ZM311.52,308.4v.48c-.14-.06-.28-.11-.42-.14-.14-.03-.28-.05-.42-.05-.37,0-.65.12-.84.36-.19.24-.3.6-.33,1.07.11-.15.24-.27.41-.35.16-.08.34-.12.54-.12.41,0,.74.12.98.36.24.24.36.57.36.98s-.12.73-.37.97c-.25.24-.58.37-.99.37-.47,0-.84-.17-1.09-.52-.25-.35-.38-.85-.38-1.52,0-.62.15-1.12.46-1.49.31-.37.72-.55,1.24-.55.14,0,.28.01.42.04s.29.07.44.12Z"/>
            </g>
          </g>
          <g id="xtick_5" data-name="xtick 5">
            <g id="line2d_5" data-name="line2d 5">
              <path id="m2ea6c773c6-5" data-name="m2ea6c773c6" class="cls-13" d="M376.86,304.37v1.89"/>
            </g>
            <g id="text_5" data-name="text 5">
              <path id="DejaVuSans-38" d="M376.86,310.37c-.26,0-.47.07-.62.2-.15.14-.23.32-.23.56s.08.42.23.56c.15.14.36.2.62.2s.47-.07.62-.2c.15-.14.23-.32.23-.56s-.08-.42-.23-.56c-.15-.14-.36-.2-.62-.2ZM376.3,310.15c-.24-.06-.42-.16-.56-.32-.13-.16-.2-.35-.2-.57,0-.31.12-.56.35-.74.23-.18.55-.27.96-.27s.73.09.96.27.35.43.35.74c0,.22-.07.42-.2.57-.13.16-.32.26-.55.32.27.06.48.18.62.35.15.17.22.39.22.64,0,.38-.12.67-.36.88-.24.2-.59.31-1.04.31s-.8-.1-1.04-.31c-.24-.2-.36-.5-.36-.88,0-.25.07-.46.23-.64.15-.17.36-.29.63-.35ZM376.1,309.31c0,.2.07.36.2.48.13.11.32.17.56.17s.42-.06.56-.17c.13-.11.2-.27.2-.48s-.07-.36-.2-.48c-.13-.11-.32-.17-.56-.17s-.43.06-.56.17c-.13.11-.2.27-.2.48Z"/>
            </g>
          </g>
          <g id="xtick_6" data-name="xtick 6">
            <g id="line2d_6" data-name="line2d 6">
              <path id="m2ea6c773c6-6" data-name="m2ea6c773c6" class="cls-13" d="M443.36,304.37v1.89"/>
            </g>
            <g id="text_6" data-name="text 6">
              <g>
                <path id="DejaVuSans-31" d="M440.48,311.79h.91v-3l-.99.19v-.48l.98-.19h.55v3.48h.91v.45h-2.36v-.45Z"/>
                <path id="DejaVuSans-30-2" data-name="DejaVuSans-30" d="M445.15,308.66c-.29,0-.5.13-.64.4-.14.27-.22.67-.22,1.22s.07.94.22,1.21c.14.27.36.4.64.4s.5-.13.65-.4c.14-.27.22-.67.22-1.21s-.07-.95-.22-1.22c-.14-.27-.36-.4-.65-.4ZM445.15,308.24c.46,0,.81.17,1.05.52.24.35.36.85.36,1.52s-.12,1.17-.36,1.52c-.24.35-.59.52-1.05.52s-.81-.17-1.05-.52c-.24-.35-.36-.85-.36-1.52s.12-1.17.36-1.52c.24-.35.59-.52,1.05-.52Z"/>
              </g>
            </g>
          </g>
          <g id="text_7" data-name="text 7">
            <g>
              <path id="DejaVuSans-41" d="M241.1,316.21l-.75,1.96h1.51l-.75-1.96ZM240.78,315.69h.63l1.56,3.93h-.58l-.37-1.01h-1.85l-.37,1.01h-.59l1.57-3.93Z"/>
              <path id="DejaVuSans-44" d="M244.13,316.12v3.06h.67c.57,0,.98-.12,1.24-.37.26-.25.39-.63.39-1.16s-.13-.91-.39-1.16-.68-.37-1.24-.37h-.67ZM243.57,315.69h1.14c.79,0,1.38.16,1.75.48.37.32.56.81.56,1.49s-.19,1.18-.56,1.49c-.37.32-.96.48-1.75.48h-1.14v-3.93Z"/>
              <path id="DejaVuSans-50" d="M248.46,316.12v1.48h.7c.26,0,.46-.06.6-.19.14-.13.21-.31.21-.55s-.07-.42-.21-.55c-.14-.13-.34-.19-.6-.19h-.7ZM247.9,315.69h1.25c.46,0,.81.1,1.04.3.24.2.35.49.35.88s-.12.68-.35.88c-.23.2-.58.3-1.04.3h-.7v1.58h-.55v-3.93Z"/>
              <path id="DejaVuSans-65" d="M253.7,318.02v.24h-2.32c.02.33.13.59.31.76.19.17.45.26.78.26.19,0,.38-.02.56-.07s.36-.11.54-.21v.46c-.18.07-.37.13-.56.17s-.38.06-.58.06c-.49,0-.88-.14-1.17-.41-.29-.27-.43-.64-.43-1.11s.14-.87.41-1.15c.27-.28.64-.43,1.1-.43.41,0,.74.13.98.38.24.26.36.6.36,1.04ZM253.2,317.88c0-.26-.08-.48-.23-.63-.15-.16-.35-.24-.6-.24-.28,0-.51.08-.68.23s-.27.37-.29.65h1.8Z"/>
              <path id="DejaVuSans-28" d="M257.53,315.53c-.24.4-.43.8-.55,1.2-.12.39-.18.8-.18,1.2s.06.81.18,1.2.3.8.54,1.2h-.44c-.27-.41-.48-.82-.62-1.22-.14-.4-.2-.79-.2-1.19s.07-.79.2-1.18c.14-.4.34-.8.62-1.22h.44Z"/>
              <path id="DejaVuSans-d7" d="M261.93,316.72l-1.26,1.21,1.26,1.2-.33.32-1.26-1.21-1.26,1.21-.32-.32,1.25-1.2-1.25-1.21.32-.32,1.26,1.21,1.26-1.21.33.32Z"/>
              <path id="DejaVuSans-31-2" data-name="DejaVuSans-31" d="M263.39,319.17h.91v-3l-.99.19v-.48l.98-.19h.55v3.48h.91v.45h-2.36v-.45Z"/>
              <path id="DejaVuSans-30-3" data-name="DejaVuSans-30" d="M268.06,316.04c-.29,0-.5.13-.64.4-.14.27-.22.67-.22,1.22s.07.94.22,1.21c.14.27.36.4.64.4s.5-.13.65-.4c.14-.27.22-.67.22-1.21s-.07-.95-.22-1.22c-.14-.27-.36-.4-.65-.4ZM268.06,315.62c.46,0,.81.17,1.05.52.24.35.36.85.36,1.52s-.12,1.17-.36,1.52c-.24.35-.59.52-1.05.52s-.81-.17-1.05-.52c-.24-.35-.36-.85-.36-1.52s.12-1.17.36-1.52c.24-.35.59-.52,1.05-.52Z"/>
              <path id="DejaVuSans-5e" d="M272.48,315.69l1.49,1.47h-.55l-1.21-1.04-1.21,1.04h-.55l1.49-1.47h.54Z"/>
              <path id="DejaVuSans-2d" d="M274.84,317.93h1.48v.43h-1.48v-.43Z"/>
              <path id="DejaVuSans-38-2" data-name="DejaVuSans-38" d="M278.38,317.75c-.26,0-.47.07-.62.2-.15.14-.23.32-.23.56s.08.42.23.56c.15.14.36.2.62.2s.47-.07.62-.2c.15-.14.23-.32.23-.56s-.08-.42-.23-.56c-.15-.14-.36-.2-.62-.2ZM277.83,317.53c-.24-.06-.42-.16-.56-.32-.13-.16-.2-.35-.2-.57,0-.31.12-.56.35-.74.23-.18.55-.27.96-.27s.73.09.96.27.35.43.35.74c0,.22-.07.42-.2.57-.13.16-.32.26-.55.32.27.06.48.18.62.35.15.17.22.39.22.64,0,.38-.12.67-.36.88-.24.2-.59.31-1.04.31s-.8-.1-1.04-.31c-.24-.2-.36-.5-.36-.88,0-.25.07-.46.23-.64.15-.17.36-.29.63-.35ZM277.63,316.69c0,.2.07.36.2.48.13.11.32.17.56.17s.42-.06.56-.17c.13-.11.2-.27.2-.48s-.07-.36-.2-.48c-.13-.11-.32-.17-.56-.17s-.43.06-.56.17c-.13.11-.2.27-.2.48Z"/>
              <path id="DejaVuSans-6b" d="M282.47,315.52h.51v2.42l1.51-1.27h.65l-1.63,1.38,1.7,1.57h-.66l-1.56-1.44v1.44h-.51v-4.1Z"/>
              <path id="DejaVuSans-67" d="M287.78,318.11c0-.35-.08-.62-.23-.82-.15-.19-.36-.29-.64-.29s-.48.1-.63.29c-.15.19-.23.46-.23.82s.08.62.23.81c.15.19.36.29.63.29s.48-.1.64-.29c.15-.19.23-.46.23-.81ZM288.28,319.25c0,.5-.12.88-.35,1.12-.23.24-.59.37-1.07.37-.18,0-.35-.01-.5-.04s-.31-.06-.46-.12v-.47c.15.08.29.13.44.17.14.04.29.06.44.06.33,0,.58-.08.74-.25.16-.17.25-.42.25-.75v-.24c-.1.17-.24.3-.4.39s-.36.13-.59.13c-.38,0-.68-.14-.91-.41-.23-.28-.35-.64-.35-1.1s.12-.82.35-1.1c.23-.28.53-.41.91-.41.23,0,.42.04.59.13s.3.22.4.39v-.45h.51v2.58Z"/>
              <path id="DejaVuSans-53" d="M293.59,315.82v.52c-.21-.1-.41-.17-.6-.22-.19-.05-.37-.07-.54-.07-.3,0-.53.06-.7.17-.16.11-.25.27-.25.48,0,.17.05.31.16.39.11.09.32.16.62.21l.33.07c.41.08.72.21.92.4s.3.45.3.76c0,.38-.13.67-.4.87-.27.2-.66.29-1.17.29-.19,0-.4-.02-.62-.06-.22-.04-.45-.1-.68-.19v-.55c.23.12.45.21.66.27.22.06.43.09.64.09.32,0,.56-.06.73-.18.17-.12.26-.29.26-.51,0-.19-.06-.34-.19-.45s-.33-.19-.61-.25l-.34-.06c-.41-.08-.71-.2-.9-.37-.18-.17-.28-.4-.28-.7,0-.35.13-.62.38-.82.26-.2.61-.3,1.06-.3.19,0,.39.02.59.05.2.03.4.08.61.15Z"/>
              <path id="DejaVuSans-62" d="M296.89,318.15c0-.36-.08-.64-.23-.84s-.36-.3-.63-.3-.48.1-.63.3-.23.48-.23.84.08.64.23.84c.15.2.36.3.63.3s.48-.1.63-.3c.15-.2.23-.48.23-.84ZM295.17,317.12c.11-.18.24-.31.4-.39.16-.09.36-.13.58-.13.37,0,.68.14.91.43.23.28.35.66.35,1.12s-.12.84-.35,1.12c-.23.28-.54.43-.91.43-.23,0-.42-.04-.58-.13-.16-.09-.3-.22-.4-.39v.44h-.51v-4.1h.51v1.6Z"/>
              <path id="DejaVuSans-65-2" data-name="DejaVuSans-65" d="M302.67,318.02v.24h-2.32c.02.33.13.59.31.76.19.17.45.26.78.26.19,0,.38-.02.56-.07s.36-.11.54-.21v.46c-.18.07-.37.13-.56.17s-.38.06-.58.06c-.49,0-.88-.14-1.17-.41-.29-.27-.43-.64-.43-1.11s.14-.87.41-1.15c.27-.28.64-.43,1.1-.43.41,0,.74.13.98.38.24.26.36.6.36,1.04ZM302.16,317.88c0-.26-.08-.48-.23-.63-.15-.16-.35-.24-.6-.24-.28,0-.51.08-.68.23s-.27.37-.29.65h1.8Z"/>
              <path id="DejaVuSans-71" d="M303.8,318.15c0,.36.08.64.23.84.15.2.36.3.63.3s.48-.1.63-.3c.15-.2.23-.48.23-.84s-.08-.64-.23-.84c-.15-.2-.36-.3-.63-.3s-.48.1-.63.3-.23.48-.23.84ZM305.52,319.18c-.11.18-.24.31-.4.39-.16.09-.36.13-.58.13-.37,0-.67-.14-.91-.43-.23-.28-.35-.66-.35-1.12s.12-.84.35-1.12c.23-.28.54-.43.91-.43.23,0,.42.04.58.13.16.08.3.21.4.39v-.45h.51v4.07h-.51v-1.56Z"/>
              <path id="DejaVuSans-2f" d="M309.76,315.69h.47l-1.43,4.43h-.47l1.43-4.43Z"/>
              <path id="DejaVuSans-6b-2" data-name="DejaVuSans-6b" d="M312.52,315.52h.51v2.42l1.51-1.27h.65l-1.63,1.38,1.7,1.57h-.66l-1.56-1.44v1.44h-.51v-4.1Z"/>
              <path id="DejaVuSans-57" d="M315.46,315.69h.56l.86,3.32.86-3.32h.62l.86,3.32.86-3.32h.56l-1.03,3.93h-.7l-.86-3.41-.87,3.41h-.7l-1.03-3.93Z"/>
              <path id="DejaVuSans-68" d="M323.92,317.84v1.78h-.51v-1.76c0-.28-.06-.49-.17-.63-.11-.14-.28-.21-.51-.21-.27,0-.49.08-.65.25-.16.17-.24.39-.24.68v1.67h-.51v-4.1h.51v1.61c.12-.18.26-.31.43-.4.16-.09.35-.13.57-.13.35,0,.62.1.8.31.18.21.27.52.27.93Z"/>
              <path id="DejaVuSans-29" d="M324.85,315.53h.44c.27.41.48.82.62,1.22.14.4.2.79.2,1.18s-.07.79-.2,1.19c-.14.4-.34.8-.62,1.22h-.44c.24-.4.42-.8.54-1.2.12-.4.18-.8.18-1.2s-.06-.81-.18-1.2c-.12-.4-.3-.79-.54-1.2Z"/>
            </g>
          </g>
        </g>
        <g id="matplotlib.axis_2" data-name="matplotlib.axis 2">
          <g id="ytick_1" data-name="ytick 1">
            <g id="line2d_7" data-name="line2d 7">
              <path id="mba1110d7f2" class="cls-13" d="M110.84,280.63h-1.97"/>
            </g>
            <g id="text_8" data-name="text 8">
              <g>
                <path id="DejaVuSans-55" d="M95.75,278.74h.56v2.39c0,.42.08.72.24.91.16.18.42.28.78.28s.61-.09.77-.28c.16-.19.24-.49.24-.91v-2.39h.56v2.45c0,.51-.13.9-.4,1.16-.26.26-.65.39-1.17.39s-.91-.13-1.18-.39c-.26-.26-.4-.65-.4-1.16v-2.45Z"/>
                <path id="DejaVuSans-53-2" data-name="DejaVuSans-53" d="M102.39,278.87v.52c-.21-.1-.41-.17-.6-.22-.19-.05-.37-.07-.54-.07-.3,0-.53.06-.7.17-.16.11-.25.27-.25.48,0,.17.05.31.16.39.11.09.32.16.62.21l.33.07c.41.08.72.21.92.4s.3.45.3.76c0,.38-.13.67-.4.87-.27.2-.66.29-1.17.29-.19,0-.4-.02-.62-.06-.22-.04-.45-.1-.68-.19v-.55c.23.12.45.21.66.27.22.06.43.09.64.09.32,0,.56-.06.73-.18.17-.12.26-.29.26-.51,0-.19-.06-.34-.19-.45s-.33-.19-.61-.25l-.34-.06c-.41-.08-.71-.2-.9-.37-.18-.17-.28-.4-.28-.7,0-.35.13-.62.38-.82.26-.2.61-.3,1.06-.3.19,0,.39.02.59.05.2.03.4.08.61.15Z"/>
                <path id="DejaVuSans-41-2" data-name="DejaVuSans-41" d="M104.98,279.27l-.75,1.96h1.51l-.75-1.96ZM104.66,278.74h.63l1.56,3.93h-.58l-.37-1.01h-1.85l-.37,1.01h-.59l1.57-3.93Z"/>
              </g>
            </g>
          </g>
          <g id="ytick_2" data-name="ytick 2">
            <g id="line2d_8" data-name="line2d 8">
              <path id="mba1110d7f2-2" data-name="mba1110d7f2" class="cls-13" d="M110.84,243.53h-1.97"/>
            </g>
            <g id="text_9" data-name="text 9">
              <g>
                <path id="DejaVuSans-43" d="M94.46,241.95v.56c-.19-.17-.39-.29-.6-.37-.21-.08-.44-.12-.67-.12-.47,0-.83.14-1.08.41s-.37.67-.37,1.19.12.91.37,1.19.61.41,1.08.41c.24,0,.46-.04.67-.12s.41-.21.6-.37v.56c-.19.13-.4.22-.62.28-.22.06-.45.09-.69.09-.62,0-1.11-.18-1.47-.55-.36-.36-.54-.86-.54-1.49s.18-1.13.54-1.49c.36-.36.85-.55,1.47-.55.24,0,.48.03.69.09.22.06.42.16.61.28Z"/>
                <path id="DejaVuSans-68-2" data-name="DejaVuSans-68" d="M97.85,243.8v1.78h-.51v-1.76c0-.28-.06-.49-.17-.63-.11-.14-.28-.21-.51-.21-.27,0-.49.08-.65.25-.16.17-.24.39-.24.68v1.67h-.51v-4.1h.51v1.61c.12-.18.26-.31.43-.4.16-.09.35-.13.57-.13.35,0,.62.1.8.31.18.21.27.52.27.93Z"/>
                <path id="DejaVuSans-69" d="M98.86,242.63h.51v2.95h-.51v-2.95ZM98.86,241.48h.51v.61h-.51v-.61Z"/>
                <path id="DejaVuSans-6e" d="M102.98,243.8v1.78h-.51v-1.76c0-.28-.06-.49-.17-.63-.11-.14-.28-.21-.51-.21-.27,0-.49.08-.65.25-.16.17-.24.39-.24.68v1.67h-.51v-2.95h.51v.46c.12-.18.26-.31.43-.4.16-.09.35-.13.57-.13.35,0,.62.1.8.31.18.21.27.52.27.93Z"/>
                <path id="DejaVuSans-61" d="M105.38,244.1c-.41,0-.69.04-.85.13s-.24.24-.24.46c0,.17.06.31.18.41.12.1.28.15.48.15.28,0,.51-.1.68-.29s.25-.44.25-.76v-.11h-.5ZM106.39,243.9v1.68h-.51v-.45c-.12.18-.26.31-.43.4-.17.09-.38.13-.63.13-.31,0-.57-.08-.75-.25-.19-.17-.28-.4-.28-.68,0-.33.12-.58.35-.75.23-.17.58-.25,1.04-.25h.71v-.05c0-.22-.08-.4-.23-.52s-.37-.18-.64-.18c-.18,0-.35.02-.51.06-.17.04-.33.1-.48.18v-.45c.18-.07.36-.12.54-.15.17-.03.34-.05.51-.05.45,0,.78.11,1,.33.22.22.33.56.33,1.01Z"/>
              </g>
            </g>
          </g>
          <g id="ytick_3" data-name="ytick 3">
            <g id="line2d_9" data-name="line2d 9">
              <path id="mba1110d7f2-3" data-name="mba1110d7f2" class="cls-13" d="M110.84,206.43h-1.97"/>
            </g>
            <g id="text_10" data-name="text 10">
              <g>
                <path id="DejaVuSans-57-2" data-name="DejaVuSans-57" d="M77.77,204.55h.56l.86,3.32.86-3.32h.62l.86,3.32.86-3.32h.56l-1.03,3.93h-.7l-.86-3.41-.87,3.41h-.7l-1.03-3.93Z"/>
                <path id="DejaVuSans-6f" d="M84.54,205.87c-.27,0-.48.1-.64.3s-.24.48-.24.83.08.63.23.83c.16.2.37.3.64.3s.48-.1.64-.31c.16-.2.24-.48.24-.83s-.08-.63-.24-.83c-.16-.2-.37-.31-.64-.31ZM84.54,205.46c.44,0,.78.14,1.04.41.25.27.38.65.38,1.14s-.13.86-.38,1.14c-.25.27-.6.41-1.04.41s-.79-.14-1.04-.41c-.25-.28-.37-.65-.37-1.14s.12-.86.37-1.14c.25-.27.6-.41,1.04-.41Z"/>
                <path id="DejaVuSans-72" d="M88.57,205.99c-.06-.03-.12-.05-.19-.07-.07-.02-.14-.02-.22-.02-.29,0-.51.09-.66.27s-.23.43-.23.77v1.55h-.51v-2.95h.51v.46c.11-.18.24-.31.41-.4.17-.09.38-.13.62-.13.03,0,.07,0,.12,0,.04,0,.09.01.14.02v.5Z"/>
                <path id="DejaVuSans-6c" d="M89.1,204.38h.51v4.1h-.51v-4.1Z"/>
                <path id="DejaVuSans-64" d="M92.69,205.98v-1.6h.51v4.1h-.51v-.44c-.11.18-.24.31-.4.39-.16.09-.36.13-.58.13-.37,0-.67-.14-.91-.43-.23-.28-.35-.66-.35-1.12s.12-.84.35-1.12c.23-.28.54-.43.91-.43.23,0,.42.04.58.13.16.08.3.21.4.39ZM90.97,207.01c0,.36.08.64.23.84.15.2.36.3.63.3s.48-.1.63-.3c.15-.2.23-.48.23-.84s-.08-.64-.23-.84c-.15-.2-.36-.3-.63-.3s-.48.1-.63.3-.23.48-.23.84Z"/>
                <path id="DejaVuSans-77" d="M93.94,205.53h.51l.63,2.3.63-2.3h.6l.63,2.3.63-2.3h.51l-.81,2.95h-.6l-.66-2.42-.66,2.42h-.6l-.8-2.95Z"/>
                <path id="DejaVuSans-69-2" data-name="DejaVuSans-69" d="M98.84,205.53h.51v2.95h-.51v-2.95ZM98.84,204.38h.51v.61h-.51v-.61Z"/>
                <path id="DejaVuSans-64-2" data-name="DejaVuSans-64" d="M102.42,205.98v-1.6h.51v4.1h-.51v-.44c-.11.18-.24.31-.4.39-.16.09-.36.13-.58.13-.37,0-.67-.14-.91-.43-.23-.28-.35-.66-.35-1.12s.12-.84.35-1.12c.23-.28.54-.43.91-.43.23,0,.42.04.58.13.16.08.3.21.4.39ZM100.7,207.01c0,.36.08.64.23.84.15.2.36.3.63.3s.48-.1.63-.3c.15-.2.23-.48.23-.84s-.08-.64-.23-.84c-.15-.2-.36-.3-.63-.3s-.48.1-.63.3-.23.48-.23.84Z"/>
                <path id="DejaVuSans-65-3" data-name="DejaVuSans-65" d="M106.6,206.89v.24h-2.32c.02.33.13.59.31.76.19.17.45.26.78.26.19,0,.38-.02.56-.07s.36-.11.54-.21v.46c-.18.07-.37.13-.56.17s-.38.06-.58.06c-.49,0-.88-.14-1.17-.41-.29-.27-.43-.64-.43-1.11s.14-.87.41-1.15c.27-.28.64-.43,1.1-.43.41,0,.74.13.98.38.24.26.36.6.36,1.04ZM106.1,206.74c0-.26-.08-.48-.23-.63-.15-.16-.35-.24-.6-.24-.28,0-.51.08-.68.23s-.27.37-.29.65h1.8Z"/>
              </g>
            </g>
          </g>
          <g id="ytick_4" data-name="ytick 4">
            <g id="line2d_10" data-name="line2d 10">
              <path id="mba1110d7f2-4" data-name="mba1110d7f2" class="cls-13" d="M110.84,169.34h-1.97"/>
            </g>
            <g id="text_11" data-name="text 11">
              <g>
                <path id="DejaVuSans-45" d="M70.54,167.45h2.59v.45h-2.04v1.16h1.95v.45h-1.95v1.43h2.09v.45h-2.64v-3.93Z"/>
                <path id="DejaVuSans-75" d="M74.02,170.22v-1.79h.51v1.77c0,.28.06.49.17.63.11.14.28.21.51.21.27,0,.49-.08.65-.25.16-.17.24-.39.24-.68v-1.67h.51v2.95h-.51v-.45c-.12.18-.26.31-.43.4-.16.09-.35.13-.56.13-.35,0-.62-.11-.81-.32-.18-.21-.27-.52-.27-.92Z"/>
                <path id="DejaVuSans-72-2" data-name="DejaVuSans-72" d="M79.42,168.89c-.06-.03-.12-.05-.19-.07-.07-.02-.14-.02-.22-.02-.29,0-.51.09-.66.27s-.23.43-.23.77v1.55h-.51v-2.95h.51v.46c.11-.18.24-.31.41-.4.17-.09.38-.13.62-.13.03,0,.07,0,.12,0,.04,0,.09.01.14.02v.5Z"/>
                <path id="DejaVuSans-6f-2" data-name="DejaVuSans-6f" d="M81.02,168.78c-.27,0-.48.1-.64.3s-.24.48-.24.83.08.63.23.83c.16.2.37.3.64.3s.48-.1.64-.31c.16-.2.24-.48.24-.83s-.08-.63-.24-.83c-.16-.2-.37-.31-.64-.31ZM81.02,168.37c.44,0,.78.14,1.04.41.25.27.38.65.38,1.14s-.13.86-.38,1.14c-.25.27-.6.41-1.04.41s-.79-.14-1.04-.41c-.25-.28-.37-.65-.37-1.14s.12-.86.37-1.14c.25-.27.6-.41,1.04-.41Z"/>
                <path id="DejaVuSans-70" d="M83.75,170.94v1.56h-.51v-4.07h.51v.45c.11-.18.24-.31.4-.39.16-.09.36-.13.58-.13.37,0,.68.14.91.43.23.28.35.66.35,1.12s-.12.84-.35,1.12c-.23.28-.54.43-.91.43-.23,0-.42-.04-.58-.13-.16-.09-.3-.22-.4-.39ZM85.47,169.91c0-.36-.08-.64-.23-.84s-.36-.3-.63-.3-.48.1-.63.3-.23.48-.23.84.08.64.23.84c.15.2.36.3.63.3s.48-.1.63-.3c.15-.2.23-.48.23-.84Z"/>
                <path id="DejaVuSans-65-4" data-name="DejaVuSans-65" d="M89.47,169.79v.24h-2.32c.02.33.13.59.31.76.19.17.45.26.78.26.19,0,.38-.02.56-.07s.36-.11.54-.21v.46c-.18.07-.37.13-.56.17s-.38.06-.58.06c-.49,0-.88-.14-1.17-.41-.29-.27-.43-.64-.43-1.11s.14-.87.41-1.15c.27-.28.64-.43,1.1-.43.41,0,.74.13.98.38.24.26.36.6.36,1.04ZM88.96,169.65c0-.26-.08-.48-.23-.63-.15-.16-.35-.24-.6-.24-.28,0-.51.08-.68.23s-.27.37-.29.65h1.8Z"/>
                <path id="DejaVuSans-28-2" data-name="DejaVuSans-28" d="M93.3,167.29c-.24.4-.43.8-.55,1.2-.12.39-.18.8-.18,1.2s.06.81.18,1.2.3.8.54,1.2h-.44c-.27-.41-.48-.82-.62-1.22-.14-.4-.2-.79-.2-1.19s.07-.79.2-1.18c.14-.4.34-.8.62-1.22h.44Z"/>
                <path id="DejaVuSans-45-2" data-name="DejaVuSans-45" d="M94.3,167.45h2.59v.45h-2.04v1.16h1.95v.45h-1.95v1.43h2.09v.45h-2.64v-3.93Z"/>
                <path id="DejaVuSans-45-3" data-name="DejaVuSans-45" d="M97.85,167.45h2.59v.45h-2.04v1.16h1.95v.45h-1.95v1.43h2.09v.45h-2.64v-3.93Z"/>
                <path id="DejaVuSans-41-3" data-name="DejaVuSans-41" d="M102.78,167.98l-.75,1.96h1.51l-.75-1.96ZM102.47,167.45h.63l1.56,3.93h-.58l-.37-1.01h-1.85l-.37,1.01h-.59l1.57-3.93Z"/>
                <path id="DejaVuSans-29-2" data-name="DejaVuSans-29" d="M105.16,167.29h.44c.27.41.48.82.62,1.22.14.4.2.79.2,1.18s-.07.79-.2,1.19c-.14.4-.34.8-.62,1.22h-.44c.24-.4.42-.8.54-1.2.12-.4.18-.8.18-1.2s-.06-.81-.18-1.2c-.12-.4-.3-.79-.54-1.2Z"/>
              </g>
            </g>
          </g>
          <g id="ytick_5" data-name="ytick 5">
            <g id="line2d_11" data-name="line2d 11">
              <path id="mba1110d7f2-5" data-name="mba1110d7f2" class="cls-13" d="M110.84,132.24h-1.97"/>
            </g>
            <g id="text_12" data-name="text 12">
              <g>
                <path id="DejaVuSans-46" d="M88.75,130.36h2.36v.45h-1.8v1.16h1.63v.45h-1.63v1.88h-.55v-3.93Z"/>
                <path id="DejaVuSans-72-3" data-name="DejaVuSans-72" d="M93.33,131.79c-.06-.03-.12-.05-.19-.07-.07-.02-.14-.02-.22-.02-.29,0-.51.09-.66.27s-.23.43-.23.77v1.55h-.51v-2.95h.51v.46c.11-.18.24-.31.41-.4.17-.09.38-.13.62-.13.03,0,.07,0,.12,0,.04,0,.09.01.14.02v.5Z"/>
                <path id="DejaVuSans-61-2" data-name="DejaVuSans-61" d="M95.26,132.81c-.41,0-.69.04-.85.13s-.24.24-.24.46c0,.17.06.31.18.41.12.1.28.15.48.15.28,0,.51-.1.68-.29s.25-.44.25-.76v-.11h-.5ZM96.27,132.61v1.68h-.51v-.45c-.12.18-.26.31-.43.4-.17.09-.38.13-.63.13-.31,0-.57-.08-.75-.25-.19-.17-.28-.4-.28-.68,0-.33.12-.58.35-.75.23-.17.58-.25,1.04-.25h.71v-.05c0-.22-.08-.4-.23-.52s-.37-.18-.64-.18c-.18,0-.35.02-.51.06-.17.04-.33.1-.48.18v-.45c.18-.07.36-.12.54-.15.17-.03.34-.05.51-.05.45,0,.78.11,1,.33.22.22.33.56.33,1.01Z"/>
                <path id="DejaVuSans-6e-2" data-name="DejaVuSans-6e" d="M99.87,132.51v1.78h-.51v-1.76c0-.28-.06-.49-.17-.63-.11-.14-.28-.21-.51-.21-.27,0-.49.08-.65.25-.16.17-.24.39-.24.68v1.67h-.51v-2.95h.51v.46c.12-.18.26-.31.43-.4.16-.09.35-.13.57-.13.35,0,.62.1.8.31.18.21.27.52.27.93Z"/>
                <path id="DejaVuSans-63" d="M103.09,131.45v.45c-.14-.08-.29-.13-.43-.17s-.29-.06-.44-.06c-.33,0-.58.1-.76.3-.18.2-.27.48-.27.84s.09.64.27.84c.18.2.44.3.76.3.15,0,.29-.02.44-.06s.29-.09.43-.17v.45c-.14.06-.29.11-.44.14-.15.03-.31.05-.48.05-.46,0-.83-.14-1.1-.42-.27-.28-.41-.66-.41-1.13s.14-.86.41-1.13c.28-.28.65-.41,1.13-.41.16,0,.31.02.46.05.15.03.29.08.43.14Z"/>
                <path id="DejaVuSans-65-5" data-name="DejaVuSans-65" d="M106.6,132.69v.24h-2.32c.02.33.13.59.31.76.19.17.45.26.78.26.19,0,.38-.02.56-.07s.36-.11.54-.21v.46c-.18.07-.37.13-.56.17s-.38.06-.58.06c-.49,0-.88-.14-1.17-.41-.29-.27-.43-.64-.43-1.11s.14-.87.41-1.15c.27-.28.64-.43,1.1-.43.41,0,.74.13.98.38.24.26.36.6.36,1.04ZM106.1,132.55c0-.26-.08-.48-.23-.63-.15-.16-.35-.24-.6-.24-.28,0-.51.08-.68.23s-.27.37-.29.65h1.8Z"/>
              </g>
            </g>
          </g>
          <g id="text_13" data-name="text 13">
            <g>
              <path id="DejaVuSans-41-4" data-name="DejaVuSans-41" d="M63.01,225.98l2.04.72v-1.45l-2.04.72ZM62.47,226.28v-.6l4.1-1.5v.55l-1.05.36v1.77l1.05.36v.56l-4.1-1.5Z"/>
              <path id="DejaVuSans-72-4" data-name="DejaVuSans-72" d="M63.96,221.92c-.03.05-.06.11-.07.18-.02.06-.02.13-.02.21,0,.27.09.48.28.63s.45.22.8.22h1.62v.49h-3.08v-.49h.48c-.19-.1-.33-.23-.42-.4-.09-.16-.14-.36-.14-.6,0-.03,0-.07,0-.11,0-.04.01-.09.02-.13h.52Z"/>
              <path id="DejaVuSans-65-6" data-name="DejaVuSans-65" d="M64.9,219.01h.25v2.23c.35-.02.61-.12.8-.3.18-.18.27-.43.27-.75,0-.19-.02-.37-.07-.54s-.12-.35-.21-.52h.48c.08.17.14.35.18.54s.06.37.06.56c0,.47-.14.84-.43,1.12-.29.27-.67.41-1.16.41s-.9-.13-1.2-.39c-.3-.26-.44-.61-.44-1.06,0-.4.13-.71.4-.94.27-.23.63-.35,1.09-.35ZM64.76,219.49c-.28,0-.5.08-.66.22-.17.14-.25.34-.25.58,0,.27.08.49.24.65s.38.26.67.28v-1.73Z"/>
              <path id="DejaVuSans-61-3" data-name="DejaVuSans-61" d="M65.02,216.87c0,.39.05.66.14.81s.25.23.48.23c.18,0,.32-.06.43-.17.1-.11.16-.27.16-.46,0-.27-.1-.48-.3-.65s-.46-.24-.79-.24h-.11v.48ZM64.81,215.9h1.76v.48h-.47c.19.11.32.25.41.41.09.17.13.37.13.61,0,.3-.09.54-.27.72-.18.18-.41.27-.71.27-.35,0-.61-.11-.78-.33-.18-.22-.26-.55-.26-.99v-.68h-.05c-.23,0-.41.07-.54.22s-.19.35-.19.62c0,.17.02.33.06.49.04.16.11.31.19.46h-.47c-.07-.18-.12-.35-.16-.52-.04-.17-.05-.33-.05-.49,0-.43.12-.75.35-.96.23-.21.58-.32,1.05-.32Z"/>
              <path id="DejaVuSans-6f-3" data-name="DejaVuSans-6f" d="M63.85,212.05c0,.26.11.46.32.62s.5.23.87.23.66-.08.87-.23c.21-.15.32-.36.32-.62s-.11-.46-.32-.61c-.21-.15-.5-.23-.87-.23s-.65.08-.87.23c-.21.15-.32.36-.32.61ZM63.42,212.05c0-.42.14-.75.43-.99.29-.24.68-.36,1.19-.36s.9.12,1.19.36c.29.24.43.57.43.99s-.14.75-.43.99c-.29.24-.68.36-1.19.36s-.9-.12-1.19-.36c-.29-.24-.43-.57-.43-.99Z"/>
              <path id="DejaVuSans-72-5" data-name="DejaVuSans-72" d="M63.96,208.18c-.03.05-.06.11-.07.18-.02.06-.02.13-.02.21,0,.27.09.48.28.63s.45.22.8.22h1.62v.49h-3.08v-.49h.48c-.19-.1-.33-.23-.42-.4-.09-.16-.14-.36-.14-.6,0-.03,0-.07,0-.11,0-.04.01-.09.02-.13h.52Z"/>
              <path id="DejaVuSans-43-2" data-name="DejaVuSans-43" d="M62.78,203h.58c-.17.18-.3.37-.39.57-.09.2-.13.42-.13.65,0,.45.14.79.43,1.03s.7.36,1.24.36.95-.12,1.24-.36.43-.58.43-1.03c0-.23-.04-.44-.13-.65s-.22-.39-.39-.57h.58c.13.19.23.38.3.59.07.21.1.43.1.66,0,.6-.19,1.06-.57,1.41-.38.34-.9.51-1.56.51s-1.18-.17-1.56-.51c-.38-.34-.57-.81-.57-1.41,0-.23.03-.46.1-.66.07-.21.16-.4.29-.59Z"/>
              <path id="DejaVuSans-6f-4" data-name="DejaVuSans-6f" d="M63.85,201.05c0,.26.11.46.32.62s.5.23.87.23.66-.08.87-.23c.21-.15.32-.36.32-.62s-.11-.46-.32-.61c-.21-.15-.5-.23-.87-.23s-.65.08-.87.23c-.21.15-.32.36-.32.61ZM63.42,201.05c0-.42.14-.75.43-.99.29-.24.68-.36,1.19-.36s.9.12,1.19.36c.29.24.43.57.43.99s-.14.75-.43.99c-.29.24-.68.36-1.19.36s-.9-.12-1.19-.36c-.29-.24-.43-.57-.43-.99Z"/>
              <path id="DejaVuSans-75-2" data-name="DejaVuSans-75" d="M65.35,198.94h-1.86v-.48h1.84c.29,0,.51-.05.66-.16.15-.11.22-.27.22-.49,0-.26-.09-.47-.26-.62-.17-.15-.41-.23-.71-.23h-1.74v-.48h3.08v.48h-.47c.19.12.33.25.42.41.09.16.14.34.14.54,0,.34-.11.6-.33.77-.22.18-.54.26-.96.26Z"/>
              <path id="DejaVuSans-6e-3" data-name="DejaVuSans-6e" d="M64.71,193.02h1.86v.48h-1.84c-.29,0-.51.05-.65.16-.14.11-.22.27-.22.49,0,.26.09.47.26.62.17.15.41.23.71.23h1.74v.49h-3.08v-.49h.48c-.19-.12-.32-.25-.41-.41-.09-.16-.14-.34-.14-.54,0-.34.11-.59.33-.77.22-.17.54-.26.97-.26Z"/>
              <path id="DejaVuSans-74" d="M62.62,191.58h.87v-1h.39v1h1.67c.25,0,.41-.03.48-.1s.11-.2.11-.4v-.5h.42v.5c0,.37-.07.63-.22.77-.15.14-.41.21-.8.21h-1.67v.36h-.39v-.36h-.87v-.49Z"/>
              <path id="DejaVuSans-72-6" data-name="DejaVuSans-72" d="M63.96,188.23c-.03.05-.06.11-.07.18-.02.06-.02.13-.02.21,0,.27.09.48.28.63s.45.22.8.22h1.62v.49h-3.08v-.49h.48c-.19-.1-.33-.23-.42-.4-.09-.16-.14-.36-.14-.6,0-.03,0-.07,0-.11,0-.04.01-.09.02-.13h.52Z"/>
              <path id="DejaVuSans-79" d="M66.85,186.5c.37.14.6.27.72.4.11.13.17.3.17.52v.39h-.42v-.28c0-.13-.03-.24-.1-.31-.07-.07-.22-.16-.47-.25l-.23-.09-3.03,1.19v-.51l2.41-.92-2.41-.92v-.51l3.36,1.3Z"/>
            </g>
          </g>
        </g>
        <g id="patch_8" data-name="patch 8">
          <path class="cls-2" d="M110.84,304.37V108.5"/>
        </g>
        <g id="patch_9" data-name="patch 9">
          <path class="cls-2" d="M454.93,304.37V108.5"/>
        </g>
        <g id="patch_10" data-name="patch 10">
          <path class="cls-2" d="M110.84,304.37h344.09"/>
        </g>
        <g id="patch_11" data-name="patch 11">
          <path class="cls-2" d="M110.84,108.5h344.09"/>
        </g>
        <g id="text_14" data-name="text 14">
          <g>
            <path id="DejaVuSans-Bold-39" class="cls-10" d="M358.72,282.03v-.73c.17.08.33.13.48.17.15.04.31.06.46.06.32,0,.56-.08.74-.25.18-.17.28-.42.31-.75-.12.09-.26.15-.4.2s-.29.07-.46.07c-.42,0-.76-.12-1.02-.35-.26-.23-.39-.54-.39-.93,0-.42.14-.76.43-1.02s.67-.38,1.15-.38c.53,0,.95.17,1.24.52.29.35.44.83.44,1.47s-.17,1.16-.51,1.53c-.34.37-.81.56-1.41.56-.19,0-.38-.01-.55-.04-.18-.03-.35-.07-.52-.12ZM360.02,280.13c.19,0,.32-.06.42-.17.09-.12.14-.29.14-.52s-.05-.4-.14-.52c-.09-.12-.23-.17-.42-.17s-.32.06-.42.17c-.09.12-.14.29-.14.52s.05.4.14.52c.09.11.23.17.42.17Z"/>
            <path id="DejaVuSans-Bold-2e" class="cls-10" d="M362.65,281.1h.99v1.02h-.99v-1.02Z"/>
            <path id="DejaVuSans-Bold-38" class="cls-10" d="M366.17,280.36c-.2,0-.35.05-.46.16-.11.1-.16.25-.16.44s.05.34.16.44c.11.1.26.15.46.15s.35-.05.45-.15c.1-.1.16-.25.16-.44s-.05-.34-.16-.45-.25-.15-.45-.15ZM365.39,280.02c-.25-.07-.44-.18-.56-.33-.13-.15-.19-.34-.19-.56,0-.33.13-.58.39-.76.26-.17.64-.26,1.14-.26s.87.09,1.13.26c.26.17.39.43.39.76,0,.22-.06.41-.19.56-.13.15-.32.26-.56.33.28.07.49.19.63.36.14.17.21.38.21.63,0,.39-.14.68-.41.88-.27.2-.67.3-1.2.3s-.93-.1-1.21-.3c-.27-.2-.41-.49-.41-.88,0-.25.07-.46.21-.63.14-.17.35-.29.63-.36ZM365.64,279.23c0,.16.05.28.14.36s.22.13.39.13.29-.04.38-.13c.09-.08.14-.2.14-.36s-.05-.28-.14-.36c-.09-.08-.22-.13-.38-.13s-.3.04-.39.13-.14.2-.14.36Z"/>
            <path id="DejaVuSans-Bold-36" class="cls-10" d="M370.16,280.17c-.19,0-.32.06-.42.17-.09.11-.14.29-.14.52s.05.4.14.52c.09.11.23.17.42.17s.33-.06.42-.17c.09-.12.14-.29.14-.52s-.05-.4-.14-.52c-.09-.12-.23-.17-.42-.17ZM371.46,278.29v.73c-.17-.08-.34-.14-.49-.18-.15-.04-.3-.06-.45-.06-.31,0-.56.08-.74.25-.18.17-.28.42-.31.75.12-.09.25-.15.39-.19.14-.04.3-.06.46-.06.42,0,.76.12,1.01.35.26.23.39.54.39.92,0,.42-.14.76-.43,1.01-.29.25-.67.38-1.16.38-.53,0-.95-.17-1.24-.52-.29-.35-.44-.84-.44-1.47s.17-1.16.51-1.53c.34-.37.81-.56,1.4-.56.19,0,.37.01.55.04s.35.07.53.13Z"/>
          </g>
        </g>
        <g id="text_15" data-name="text 15">
          <g>
            <path id="DejaVuSans-Bold-38-2" data-name="DejaVuSans-Bold-38" class="cls-10" d="M315.56,243.26c-.2,0-.35.05-.46.16-.11.1-.16.25-.16.44s.05.34.16.44c.11.1.26.15.46.15s.35-.05.45-.15c.1-.1.16-.25.16-.44s-.05-.34-.16-.45-.25-.15-.45-.15ZM314.79,242.92c-.25-.07-.44-.18-.56-.33-.13-.15-.19-.34-.19-.56,0-.33.13-.58.39-.76.26-.17.64-.26,1.14-.26s.87.09,1.13.26c.26.17.39.43.39.76,0,.22-.06.41-.19.56-.13.15-.32.26-.56.33.28.07.49.19.63.36.14.17.21.38.21.63,0,.39-.14.68-.41.88-.27.2-.67.3-1.2.3s-.93-.1-1.21-.3c-.27-.2-.41-.49-.41-.88,0-.25.07-.46.21-.63.14-.17.35-.29.63-.36ZM315.03,242.14c0,.16.05.28.14.36s.22.13.39.13.29-.04.38-.13c.09-.08.14-.2.14-.36s-.05-.28-.14-.36c-.09-.08-.22-.13-.38-.13s-.3.04-.39.13-.14.2-.14.36Z"/>
            <path id="DejaVuSans-Bold-2e-2" data-name="DejaVuSans-Bold-2e" class="cls-10" d="M318.09,244h.99v1.02h-.99v-1.02Z"/>
            <path id="DejaVuSans-Bold-35" class="cls-10" d="M320.25,241.09h2.63v.75h-1.79v.61c.08-.02.16-.04.24-.05.08-.01.17-.02.25-.02.5,0,.89.12,1.17.36s.42.57.42,1-.15.76-.45,1c-.3.24-.72.36-1.26.36-.23,0-.46-.02-.69-.06-.23-.04-.45-.11-.68-.2v-.8c.22.12.44.22.64.28.2.06.39.09.57.09.26,0,.46-.06.6-.18.15-.12.22-.28.22-.49s-.07-.37-.22-.49c-.15-.12-.35-.18-.6-.18-.15,0-.31.02-.49.06-.17.04-.36.1-.55.17v-2.21Z"/>
            <path id="DejaVuSans-Bold-32" class="cls-10" d="M325.18,244.27h1.8v.74h-2.98v-.74l1.5-1.27c.13-.12.23-.23.3-.34s.1-.23.1-.34c0-.18-.06-.33-.19-.44s-.3-.17-.52-.17c-.16,0-.35.03-.54.1-.2.07-.41.17-.63.3v-.86c.24-.08.47-.13.71-.17.23-.04.46-.06.68-.06.49,0,.87.1,1.14.31.27.21.41.5.41.87,0,.21-.06.41-.17.6-.12.18-.36.43-.73.74l-.88.74Z"/>
          </g>
        </g>
        <g id="text_16" data-name="text 16">
          <g>
            <path id="DejaVuSans-Bold-37" class="cls-10" d="M276.17,203.99h3.09v.57l-1.6,3.36h-1.03l1.51-3.19h-1.97v-.75Z"/>
            <path id="DejaVuSans-Bold-2e-3" data-name="DejaVuSans-Bold-2e" class="cls-10" d="M280.28,206.9h.99v1.02h-.99v-1.02Z"/>
            <path id="DejaVuSans-Bold-33" class="cls-10" d="M284.46,205.8c.28.07.49.19.63.36.14.17.22.38.22.65,0,.39-.16.69-.47.89-.31.2-.76.3-1.36.3-.21,0-.42-.02-.63-.05-.21-.03-.42-.08-.63-.15v-.78c.2.09.39.17.59.21.2.05.39.07.58.07.28,0,.49-.05.64-.14.15-.09.22-.23.22-.4s-.08-.31-.23-.41-.38-.14-.68-.14h-.42v-.65h.44c.27,0,.46-.04.59-.12.13-.08.2-.2.2-.36,0-.15-.06-.27-.19-.35-.13-.08-.3-.12-.54-.12-.17,0-.34.02-.52.06-.17.04-.35.09-.52.16v-.74c.21-.06.42-.1.62-.13s.41-.04.6-.04c.53,0,.93.08,1.2.25.26.17.4.42.4.76,0,.23-.06.42-.19.56-.13.15-.31.25-.56.31Z"/>
            <path id="DejaVuSans-Bold-38-3" data-name="DejaVuSans-Bold-38" class="cls-10" d="M287.71,206.16c-.2,0-.35.05-.46.16-.11.1-.16.25-.16.44s.05.34.16.44c.11.1.26.15.46.15s.35-.05.45-.15c.1-.1.16-.25.16-.44s-.05-.34-.16-.45-.25-.15-.45-.15ZM286.94,205.83c-.25-.07-.44-.18-.56-.33-.13-.15-.19-.34-.19-.56,0-.33.13-.58.39-.76.26-.17.64-.26,1.14-.26s.87.09,1.13.26c.26.17.39.43.39.76,0,.22-.06.41-.19.56-.13.15-.32.26-.56.33.28.07.49.19.63.36.14.17.21.38.21.63,0,.39-.14.68-.41.88-.27.2-.67.3-1.2.3s-.93-.1-1.21-.3c-.27-.2-.41-.49-.41-.88,0-.25.07-.46.21-.63.14-.17.35-.29.63-.36ZM287.19,205.04c0,.16.05.28.14.36s.22.13.39.13.29-.04.38-.13c.09-.08.14-.2.14-.36s-.05-.28-.14-.36c-.09-.08-.22-.13-.38-.13s-.3.04-.39.13-.14.2-.14.36Z"/>
          </g>
        </g>
        <g id="text_17" data-name="text 17">
          <g>
            <path id="DejaVuSans-Bold-36-2" data-name="DejaVuSans-Bold-36" class="cls-10" d="M246.07,168.88c-.19,0-.32.06-.42.17-.09.11-.14.29-.14.52s.05.4.14.52c.09.11.23.17.42.17s.33-.06.42-.17c.09-.12.14-.29.14-.52s-.05-.4-.14-.52c-.09-.12-.23-.17-.42-.17ZM247.38,167v.73c-.17-.08-.34-.14-.49-.18-.15-.04-.3-.06-.45-.06-.31,0-.56.08-.74.25-.18.17-.28.42-.31.75.12-.09.25-.15.39-.19.14-.04.3-.06.46-.06.42,0,.76.12,1.01.35.26.23.39.54.39.92,0,.42-.14.76-.43,1.01-.29.25-.67.38-1.16.38-.53,0-.95-.17-1.24-.52-.29-.35-.44-.84-.44-1.47s.17-1.16.51-1.53c.34-.37.81-.56,1.4-.56.19,0,.37.01.55.04s.35.07.53.13Z"/>
            <path id="DejaVuSans-Bold-2e-4" data-name="DejaVuSans-Bold-2e" class="cls-10" d="M248.52,169.81h.99v1.02h-.99v-1.02Z"/>
            <path id="DejaVuSans-Bold-34" class="cls-10" d="M252.16,167.73l-1.16,1.65h1.16v-1.65ZM251.98,166.89h1.18v2.48h.58v.73h-.58v.72h-1v-.72h-1.82v-.87l1.64-2.35Z"/>
            <path id="DejaVuSans-Bold-32-2" data-name="DejaVuSans-Bold-32" class="cls-10" d="M255.62,170.08h1.8v.74h-2.98v-.74l1.5-1.27c.13-.12.23-.23.3-.34s.1-.23.1-.34c0-.18-.06-.33-.19-.44s-.3-.17-.52-.17c-.16,0-.35.03-.54.1-.2.07-.41.17-.63.3v-.86c.24-.08.47-.13.71-.17.23-.04.46-.06.68-.06.49,0,.87.1,1.14.31.27.21.41.5.41.87,0,.21-.06.41-.17.6-.12.18-.36.43-.73.74l-.88.74Z"/>
          </g>
        </g>
        <g id="text_18" data-name="text 18">
          <g>
            <path id="DejaVuSans-Bold-34-2" data-name="DejaVuSans-Bold-34" class="cls-10" d="M194.07,130.63l-1.16,1.65h1.16v-1.65ZM193.89,129.8h1.18v2.48h.58v.73h-.58v.72h-1v-.72h-1.82v-.87l1.64-2.35Z"/>
            <path id="DejaVuSans-Bold-2e-5" data-name="DejaVuSans-Bold-2e" class="cls-10" d="M196.48,132.71h.99v1.02h-.99v-1.02Z"/>
            <path id="DejaVuSans-Bold-38-4" data-name="DejaVuSans-Bold-38" class="cls-10" d="M200,131.97c-.2,0-.35.05-.46.16-.11.1-.16.25-.16.44s.05.34.16.44c.11.1.26.15.46.15s.35-.05.45-.15c.1-.1.16-.25.16-.44s-.05-.34-.16-.45-.25-.15-.45-.15ZM199.23,131.63c-.25-.07-.44-.18-.56-.33-.13-.15-.19-.34-.19-.56,0-.33.13-.58.39-.76.26-.17.64-.26,1.14-.26s.87.09,1.13.26c.26.17.39.43.39.76,0,.22-.06.41-.19.56-.13.15-.32.26-.56.33.28.07.49.19.63.36.14.17.21.38.21.63,0,.39-.14.68-.41.88-.27.2-.67.3-1.2.3s-.93-.1-1.21-.3c-.27-.2-.41-.49-.41-.88,0-.25.07-.46.21-.63.14-.17.35-.29.63-.36ZM199.48,130.85c0,.16.05.28.14.36s.22.13.39.13.29-.04.38-.13c.09-.08.14-.2.14-.36s-.05-.28-.14-.36c-.09-.08-.22-.13-.38-.13s-.3.04-.39.13-.14.2-.14.36Z"/>
            <path id="DejaVuSans-Bold-36-3" data-name="DejaVuSans-Bold-36" class="cls-10" d="M204,131.79c-.19,0-.32.06-.42.17-.09.11-.14.29-.14.52s.05.4.14.52c.09.11.23.17.42.17s.33-.06.42-.17c.09-.12.14-.29.14-.52s-.05-.4-.14-.52c-.09-.12-.23-.17-.42-.17ZM205.3,129.9v.73c-.17-.08-.34-.14-.49-.18-.15-.04-.3-.06-.45-.06-.31,0-.56.08-.74.25-.18.17-.28.42-.31.75.12-.09.25-.15.39-.19.14-.04.3-.06.46-.06.42,0,.76.12,1.01.35.26.23.39.54.39.92,0,.42-.14.76-.43,1.01-.29.25-.67.38-1.16.38-.53,0-.95-.17-1.24-.52-.29-.35-.44-.84-.44-1.47s.17-1.16.51-1.53c.34-.37.81-.56,1.4-.56.19,0,.37.01.55.04s.35.07.53.13Z"/>
          </g>
        </g>
        <g id="text_19" data-name="text 19">
          <g>
            <path id="DejaVuSans-41-5" data-name="DejaVuSans-41" d="M222.55,101.17l-.9,2.35h1.81l-.91-2.35ZM222.18,100.54h.76l1.88,4.72h-.69l-.45-1.21h-2.22l-.45,1.21h-.7l1.88-4.72Z"/>
            <path id="DejaVuSans-62-2" data-name="DejaVuSans-62" d="M228.15,103.49c0-.43-.09-.76-.28-1.01s-.44-.37-.76-.37-.57.12-.76.37-.28.58-.28,1.01.09.76.28,1.01c.18.24.44.37.76.37s.57-.12.76-.37c.18-.24.28-.58.28-1.01ZM226.09,102.26c.13-.21.29-.37.48-.47.19-.1.43-.15.7-.15.45,0,.81.17,1.09.51.28.34.42.79.42,1.35s-.14,1.01-.42,1.35c-.28.34-.64.51-1.09.51-.27,0-.5-.05-.7-.15-.19-.1-.36-.26-.48-.47v.53h-.61v-4.92h.61v1.92Z"/>
            <path id="DejaVuSans-69-3" data-name="DejaVuSans-69" d="M229.78,101.72h.61v3.54h-.61v-3.54ZM229.78,100.34h.61v.74h-.61v-.74Z"/>
            <path id="DejaVuSans-6f-5" data-name="DejaVuSans-6f" d="M233.09,102.13c-.32,0-.58.12-.77.37s-.28.58-.28,1,.09.76.28,1c.19.24.45.37.77.37s.58-.12.77-.37c.19-.24.28-.58.28-1s-.09-.75-.28-1c-.19-.25-.44-.37-.77-.37ZM233.09,101.64c.53,0,.94.16,1.24.49.3.33.45.78.45,1.36s-.15,1.03-.45,1.36c-.3.33-.72.49-1.24.49s-.94-.16-1.24-.49c-.3-.33-.45-.79-.45-1.36s.15-1.04.45-1.36c.3-.33.72-.49,1.24-.49Z"/>
            <path id="DejaVuSans-74-2" data-name="DejaVuSans-74" d="M236.39,100.72v1.01h1.25v.45h-1.25v1.92c0,.29.04.47.12.56s.25.12.5.12h.62v.49h-.62c-.47,0-.79-.08-.97-.25-.18-.17-.27-.47-.27-.92v-1.92h-.45v-.45h.45v-1.01h.61Z"/>
            <path id="DejaVuSans-69-4" data-name="DejaVuSans-69" d="M238.44,101.72h.61v3.54h-.61v-3.54ZM238.44,100.34h.61v.74h-.61v-.74Z"/>
            <path id="DejaVuSans-63-2" data-name="DejaVuSans-63" d="M242.97,101.86v.54c-.17-.09-.34-.16-.52-.2s-.35-.07-.52-.07c-.39,0-.7.12-.92.36-.22.24-.33.57-.33,1.01s.11.77.33,1.01c.22.24.52.36.92.36.18,0,.35-.02.52-.07s.34-.11.52-.2v.54c-.17.08-.34.13-.53.17-.18.04-.37.06-.58.06-.56,0-1-.17-1.33-.5-.33-.34-.49-.79-.49-1.36s.17-1.03.5-1.36c.33-.33.78-.5,1.36-.5.19,0,.37.02.55.06.18.04.35.09.52.16Z"/>
            <path id="DejaVuSans-44-2" data-name="DejaVuSans-44" d="M246.86,101.07v3.67h.8c.68,0,1.18-.15,1.49-.44.32-.3.47-.76.47-1.4s-.16-1.09-.47-1.39-.81-.44-1.49-.44h-.8ZM246.19,100.54h1.37c.95,0,1.65.19,2.1.57.45.38.67.97.67,1.78s-.22,1.41-.67,1.79c-.45.38-1.15.57-2.1.57h-1.37v-4.72Z"/>
            <path id="DejaVuSans-65-7" data-name="DejaVuSans-65" d="M254.52,103.35v.28h-2.79c.03.4.15.71.38.92.23.21.54.31.94.31.23,0,.46-.03.68-.08s.44-.14.65-.25v.55c-.22.09-.44.16-.67.2s-.46.07-.7.07c-.59,0-1.06-.16-1.4-.49-.34-.33-.52-.77-.52-1.33s.16-1.04.49-1.38c.33-.34.77-.51,1.32-.51.5,0,.89.15,1.18.46.29.31.43.72.43,1.25ZM253.92,103.18c0-.32-.1-.57-.28-.76-.18-.19-.42-.29-.72-.29-.34,0-.61.09-.81.28s-.32.44-.35.77h2.16Z"/>
            <path id="DejaVuSans-70-2" data-name="DejaVuSans-70" d="M256.11,104.73v1.88h-.61v-4.89h.61v.54c.13-.21.29-.37.48-.47.19-.1.43-.15.7-.15.45,0,.81.17,1.09.51.28.34.42.79.42,1.35s-.14,1.01-.42,1.35c-.28.34-.64.51-1.09.51-.27,0-.5-.05-.7-.15-.19-.1-.36-.26-.48-.47ZM258.17,103.49c0-.43-.09-.76-.28-1.01s-.44-.37-.76-.37-.57.12-.76.37-.28.58-.28,1.01.09.76.28,1.01c.18.24.44.37.76.37s.57-.12.76-.37c.18-.24.28-.58.28-1.01Z"/>
            <path id="DejaVuSans-6c-2" data-name="DejaVuSans-6c" d="M259.8,100.34h.61v4.92h-.61v-4.92Z"/>
            <path id="DejaVuSans-65-8" data-name="DejaVuSans-65" d="M264.84,103.35v.28h-2.79c.03.4.15.71.38.92.23.21.54.31.94.31.23,0,.46-.03.68-.08s.44-.14.65-.25v.55c-.22.09-.44.16-.67.2s-.46.07-.7.07c-.59,0-1.06-.16-1.4-.49-.34-.33-.52-.77-.52-1.33s.16-1.04.49-1.38c.33-.34.77-.51,1.32-.51.5,0,.89.15,1.18.46.29.31.43.72.43,1.25ZM264.23,103.18c0-.32-.1-.57-.28-.76-.18-.19-.42-.29-.72-.29-.34,0-.61.09-.81.28s-.32.44-.35.77h2.16Z"/>
            <path id="DejaVuSans-74-3" data-name="DejaVuSans-74" d="M266.43,100.72v1.01h1.25v.45h-1.25v1.92c0,.29.04.47.12.56s.25.12.5.12h.62v.49h-.62c-.47,0-.79-.08-.97-.25-.18-.17-.27-.47-.27-.92v-1.92h-.45v-.45h.45v-1.01h.61Z"/>
            <path id="DejaVuSans-69-5" data-name="DejaVuSans-69" d="M268.48,101.72h.61v3.54h-.61v-3.54ZM268.48,100.34h.61v.74h-.61v-.74Z"/>
            <path id="DejaVuSans-6f-6" data-name="DejaVuSans-6f" d="M271.78,102.13c-.32,0-.58.12-.77.37s-.28.58-.28,1,.09.76.28,1c.19.24.45.37.77.37s.58-.12.77-.37c.19-.24.28-.58.28-1s-.09-.75-.28-1c-.19-.25-.44-.37-.77-.37ZM271.78,101.64c.53,0,.94.16,1.24.49.3.33.45.78.45,1.36s-.15,1.03-.45,1.36c-.3.33-.72.49-1.24.49s-.94-.16-1.24-.49c-.3-.33-.45-.79-.45-1.36s.15-1.04.45-1.36c.3-.33.72-.49,1.24-.49Z"/>
            <path id="DejaVuSans-6e-4" data-name="DejaVuSans-6e" d="M277.55,103.12v2.14h-.61v-2.12c0-.34-.07-.59-.2-.75-.14-.17-.34-.25-.61-.25-.33,0-.59.1-.78.3-.19.2-.28.47-.28.82v2h-.61v-3.54h.61v.55c.15-.21.32-.37.51-.48.2-.11.42-.16.68-.16.42,0,.74.13.96.38.22.25.33.62.33,1.11Z"/>
            <path id="DejaVuSans-50-2" data-name="DejaVuSans-50" d="M281.6,101.07v1.77h.84c.31,0,.55-.08.72-.23.17-.15.25-.37.25-.66s-.08-.5-.25-.65c-.17-.15-.41-.23-.72-.23h-.84ZM280.93,100.54h1.5c.55,0,.97.12,1.25.36.28.24.42.59.42,1.05s-.14.82-.42,1.06c-.28.24-.7.36-1.25.36h-.84v1.9h-.67v-4.72Z"/>
            <path id="DejaVuSans-6f-7" data-name="DejaVuSans-6f" d="M286.16,102.13c-.32,0-.58.12-.77.37s-.28.58-.28,1,.09.76.28,1c.19.24.45.37.77.37s.58-.12.77-.37c.19-.24.28-.58.28-1s-.09-.75-.28-1c-.19-.25-.44-.37-.77-.37ZM286.16,101.64c.53,0,.94.16,1.24.49.3.33.45.78.45,1.36s-.15,1.03-.45,1.36c-.3.33-.72.49-1.24.49s-.94-.16-1.24-.49c-.3-.33-.45-.79-.45-1.36s.15-1.04.45-1.36c.3-.33.72-.49,1.24-.49Z"/>
            <path id="DejaVuSans-74-4" data-name="DejaVuSans-74" d="M289.46,100.72v1.01h1.25v.45h-1.25v1.92c0,.29.04.47.12.56s.25.12.5.12h.62v.49h-.62c-.47,0-.79-.08-.97-.25-.18-.17-.27-.47-.27-.92v-1.92h-.45v-.45h.45v-1.01h.61Z"/>
            <path id="DejaVuSans-65-9" data-name="DejaVuSans-65" d="M294.67,103.35v.28h-2.79c.03.4.15.71.38.92.23.21.54.31.94.31.23,0,.46-.03.68-.08s.44-.14.65-.25v.55c-.22.09-.44.16-.67.2s-.46.07-.7.07c-.59,0-1.06-.16-1.4-.49-.34-.33-.52-.77-.52-1.33s.16-1.04.49-1.38c.33-.34.77-.51,1.32-.51.5,0,.89.15,1.18.46.29.31.43.72.43,1.25ZM294.06,103.18c0-.32-.1-.57-.28-.76-.18-.19-.42-.29-.72-.29-.34,0-.61.09-.81.28s-.32.44-.35.77h2.16Z"/>
            <path id="DejaVuSans-6e-5" data-name="DejaVuSans-6e" d="M298.73,103.12v2.14h-.61v-2.12c0-.34-.07-.59-.2-.75-.14-.17-.34-.25-.61-.25-.33,0-.59.1-.78.3-.19.2-.28.47-.28.82v2h-.61v-3.54h.61v.55c.15-.21.32-.37.51-.48.2-.11.42-.16.68-.16.42,0,.74.13.96.38.22.25.33.62.33,1.11Z"/>
            <path id="DejaVuSans-74-5" data-name="DejaVuSans-74" d="M300.54,100.72v1.01h1.25v.45h-1.25v1.92c0,.29.04.47.12.56s.25.12.5.12h.62v.49h-.62c-.47,0-.79-.08-.97-.25-.18-.17-.27-.47-.27-.92v-1.92h-.45v-.45h.45v-1.01h.61Z"/>
            <path id="DejaVuSans-69-6" data-name="DejaVuSans-69" d="M302.59,101.72h.61v3.54h-.61v-3.54ZM302.59,100.34h.61v.74h-.61v-.74Z"/>
            <path id="DejaVuSans-61-4" data-name="DejaVuSans-61" d="M306.14,103.48c-.49,0-.83.05-1.02.16s-.28.29-.28.55c0,.21.07.37.21.49.14.12.33.18.58.18.34,0,.61-.11.81-.34s.3-.53.3-.91v-.13h-.6ZM307.35,103.24v2.02h-.61v-.54c-.14.21-.31.37-.52.48-.21.1-.46.15-.76.15-.38,0-.68-.1-.9-.31-.22-.2-.33-.48-.33-.82,0-.4.14-.7.42-.9.28-.2.69-.3,1.24-.3h.85v-.06c0-.27-.09-.47-.28-.62s-.44-.22-.77-.22c-.21,0-.42.02-.62.07-.2.05-.39.12-.58.22v-.54c.22-.08.44-.14.65-.18.21-.04.41-.06.61-.06.53,0,.93.13,1.2.4.26.26.4.67.4,1.21Z"/>
            <path id="DejaVuSans-6c-3" data-name="DejaVuSans-6c" d="M308.6,100.34h.61v4.92h-.61v-4.92Z"/>
            <path id="DejaVuSans-62-3" data-name="DejaVuSans-62" d="M315.27,103.49c0-.43-.09-.76-.28-1.01s-.44-.37-.76-.37-.57.12-.76.37-.28.58-.28,1.01.09.76.28,1.01c.18.24.44.37.76.37s.57-.12.76-.37c.18-.24.28-.58.28-1.01ZM313.21,102.26c.13-.21.29-.37.48-.47.19-.1.43-.15.7-.15.45,0,.81.17,1.09.51.28.34.42.79.42,1.35s-.14,1.01-.42,1.35c-.28.34-.64.51-1.09.51-.27,0-.5-.05-.7-.15-.19-.1-.36-.26-.48-.47v.53h-.61v-4.92h.61v1.92Z"/>
            <path id="DejaVuSans-79-2" data-name="DejaVuSans-79" d="M318.44,105.59c-.17.42-.34.7-.5.82-.16.13-.38.19-.65.19h-.49v-.49h.36c.17,0,.3-.04.39-.11.09-.08.2-.25.31-.54l.11-.26-1.49-3.48h.64l1.15,2.77,1.15-2.77h.64l-1.62,3.87Z"/>
            <path id="DejaVuSans-52" d="M325.4,103.05c.14.05.28.15.42.3s.27.36.41.63l.68,1.29h-.72l-.63-1.21c-.16-.32-.32-.53-.47-.63s-.36-.15-.62-.15h-.73v1.99h-.67v-4.72h1.5c.56,0,.98.11,1.26.34.28.23.42.57.42,1.02,0,.3-.07.54-.22.74-.14.2-.35.33-.63.41ZM323.74,101.07v1.67h.84c.32,0,.56-.07.73-.21s.25-.35.25-.63-.08-.48-.25-.62-.41-.21-.73-.21h-.84Z"/>
            <path id="DejaVuSans-65-10" data-name="DejaVuSans-65" d="M330.59,103.35v.28h-2.79c.03.4.15.71.38.92.23.21.54.31.94.31.23,0,.46-.03.68-.08s.44-.14.65-.25v.55c-.22.09-.44.16-.67.2s-.46.07-.7.07c-.59,0-1.06-.16-1.4-.49-.34-.33-.52-.77-.52-1.33s.16-1.04.49-1.38c.33-.34.77-.51,1.32-.51.5,0,.89.15,1.18.46.29.31.43.72.43,1.25ZM329.98,103.18c0-.32-.1-.57-.28-.76-.18-.19-.42-.29-.72-.29-.34,0-.61.09-.81.28s-.32.44-.35.77h2.16Z"/>
            <path id="DejaVuSans-67-2" data-name="DejaVuSans-67" d="M334.01,103.45c0-.42-.09-.75-.27-.98-.18-.23-.43-.35-.76-.35s-.58.12-.76.35c-.18.23-.27.56-.27.98s.09.74.27.98c.18.23.43.35.76.35s.58-.12.76-.35c.18-.23.27-.56.27-.98ZM334.62,104.82c0,.6-.14,1.05-.42,1.34-.28.29-.71.44-1.28.44-.21,0-.41-.02-.6-.05s-.37-.08-.55-.14v-.57c.18.09.35.16.53.2.17.04.35.07.53.07.4,0,.7-.1.89-.3.2-.2.3-.5.3-.9v-.29c-.13.21-.29.37-.48.47s-.43.15-.7.15c-.45,0-.82-.17-1.09-.5-.28-.33-.42-.77-.42-1.32s.14-.99.42-1.32c.28-.33.64-.5,1.09-.5.27,0,.51.05.7.15s.36.26.48.47v-.54h.61v3.1Z"/>
            <path id="DejaVuSans-69-7" data-name="DejaVuSans-69" d="M335.87,101.72h.61v3.54h-.61v-3.54ZM335.87,100.34h.61v.74h-.61v-.74Z"/>
            <path id="DejaVuSans-6f-8" data-name="DejaVuSans-6f" d="M339.17,102.13c-.32,0-.58.12-.77.37s-.28.58-.28,1,.09.76.28,1c.19.24.45.37.77.37s.58-.12.77-.37c.19-.24.28-.58.28-1s-.09-.75-.28-1c-.19-.25-.44-.37-.77-.37ZM339.17,101.64c.53,0,.94.16,1.24.49.3.33.45.78.45,1.36s-.15,1.03-.45,1.36c-.3.33-.72.49-1.24.49s-.94-.16-1.24-.49c-.3-.33-.45-.79-.45-1.36s.15-1.04.45-1.36c.3-.33.72-.49,1.24-.49Z"/>
            <path id="DejaVuSans-6e-6" data-name="DejaVuSans-6e" d="M344.94,103.12v2.14h-.61v-2.12c0-.34-.07-.59-.2-.75-.14-.17-.34-.25-.61-.25-.33,0-.59.1-.78.3-.19.2-.28.47-.28.82v2h-.61v-3.54h.61v.55c.15-.21.32-.37.51-.48.2-.11.42-.16.68-.16.42,0,.74.13.96.38.22.25.33.62.33,1.11Z"/>
          </g>
        </g>
      </g>
    </g>
    <text class="cls-8" transform="translate(461.11 264.48)"><tspan class="cls-20" x="0" y="0">T</tspan><tspan class="cls-9" x="4.41" y="0">he USA </tspan><tspan class="cls-19" x="33.5" y="0">r</tspan><tspan x="36.35" y="0">elies he</tspan><tspan class="cls-22" x="64.57" y="0">a</tspan><tspan x="68.84" y="0">vily on non-</tspan><tspan class="cls-19" x="113.08" y="0">r</tspan><tspan class="cls-11" x="115.94" y="0">ene</tspan><tspan class="cls-17" x="129.95" y="0">w</tspan><tspan x="136.54" y="0">able</tspan><tspan x="23.35" y="10.8">ene</tspan><tspan class="cls-21" x="37.36" y="10.8">r</tspan><tspan class="cls-15" x="40.23" y="10.8">g</tspan><tspan x="45.21" y="10.8">ies like </tspan><tspan class="cls-12" x="72.16" y="10.8">f</tspan><tspan x="74.67" y="10.8" xml:space="preserve">ossil fuels -  meaning</tspan><tspan x="4.46" y="21.6">mo</tspan><tspan class="cls-19" x="16.9" y="21.6">r</tspan><tspan class="cls-11" x="19.75" y="21.6">e depletion of n</tspan><tspan class="cls-17" x="78.91" y="21.6">a</tspan><tspan x="83.21" y="21.6">tu</tspan><tspan class="cls-16" x="91.15" y="21.6">r</tspan><tspan x="94.05" y="21.6">al </tspan><tspan class="cls-19" x="102.42" y="21.6">r</tspan><tspan class="cls-11" x="105.27" y="21.6">esou</tspan><tspan class="cls-19" x="123.24" y="21.6">r</tspan><tspan class="cls-14" x="126.1" y="21.6">c</tspan><tspan x="130.08" y="21.6">es per</tspan><tspan class="cls-24" x="24.01" y="32.4">k</tspan><tspan x="28.39" y="32.4">il</tspan><tspan class="cls-20" x="32.62" y="32.4">o</tspan><tspan class="cls-17" x="37.49" y="32.4">wa</tspan><tspan x="48.38" y="32.4">t</tspan><tspan class="cls-16" x="51.36" y="32.4">t</tspan><tspan class="cls-11" x="54.3" y="32.4">-hour of ene</tspan><tspan class="cls-22" x="100.29" y="32.4">r</tspan><tspan class="cls-11" x="103.17" y="32.4">gy p</tspan><tspan class="cls-19" x="119.46" y="32.4">r</tspan><tspan x="122.32" y="32.4">odu</tspan><tspan class="cls-15" x="137.29" y="32.4">c</tspan><tspan x="141.27" y="32.4">e</tspan><tspan class="cls-18" x="145.78" y="32.4">d</tspan><tspan class="cls-9" x="150.77" y="32.4">.</tspan></text>
  </g>
</svg>