<?xml version="1.0" encoding="UTF-8"?>
<svg id="Layer_2" data-name="Layer 2" xmlns="http://www.w3.org/2000/svg" xmlns:xlink="http://www.w3.org/1999/xlink" viewBox="0 0 375 609">
  <defs>
    <style>
      .cls-1, .cls-2 {
        fill: none;
      }

      .cls-3 {
        fill: #e37539;
      }

      .cls-4 {
        font-family: MyriadPro-Regular, 'Myriad Pro';
        font-size: 12px;
      }

      .cls-5 {
        clip-path: url(#clippath-1);
      }

      .cls-6 {
        clip-path: url(#clippath-3);
      }

      .cls-7 {
        clip-path: url(#clippath-4);
      }

      .cls-8 {
        clip-path: url(#clippath-2);
      }

      .cls-9 {
        letter-spacing: 0em;
      }

      .cls-10 {
        letter-spacing: 0em;
      }

      .cls-11 {
        fill: #fff;
      }

      .cls-12 {
        fill: #f1b143;
      }

      .cls-13 {
        letter-spacing: 0em;
      }

      .cls-14 {
        font-family: SourceSansRoman-Bold, 'Source Sans Variable';
        font-size: 28px;
        font-variation-settings: 'wght' 700;
        font-weight: 700;
      }

      .cls-15 {
        letter-spacing: -.07em;
      }

      .cls-16 {
        letter-spacing: -.03em;
      }

      .cls-17 {
        letter-spacing: -.01em;
      }

      .cls-18 {
        letter-spacing: -.02em;
      }

      .cls-19 {
        letter-spacing: -.01em;
      }

      .cls-20 {
        letter-spacing: -.05em;
      }

      .cls-21 {
        letter-spacing: -.04em;
      }

      .cls-22 {
        letter-spacing: -.04em;
      }

      .cls-23 {
        stroke-linejoin: round;
      }

      .cls-23, .cls-2 {
        stroke: #000;
        stroke-width: .8px;
      }

      .cls-24 {
        letter-spacing: 0em;
      }

      .cls-25 {
        letter-spacing: 0em;
      }

      .cls-26 {
        letter-spacing: 0em;
      }

      .cls-27 {
        letter-spacing: 0em;
      }

      .cls-28 {
        letter-spacing: 0em;
      }

      .cls-29 {
        letter-spacing: 0em;
      }

      .cls-2 {
        stroke-linecap: square;
      }

      .cls-30 {
        letter-spacing: -.01em;
      }

      .cls-31 {
        letter-spacing: -.01em;
      }

      .cls-32 {
        letter-spacing: 0em;
      }

      .cls-33 {
        letter-spacing: 0em;
      }

      .cls-34 {
        letter-spacing: 0em;
      }

      .cls-35 {
        letter-spacing: 0em;
      }

      .cls-36 {
        letter-spacing: 0em;
      }

      .cls-37 {
        letter-spacing: 0em;
      }

      .cls-38 {
        letter-spacing: 0em;
      }

      .cls-39 {
        clip-path: url(#clippath);
      }

      .cls-40 {
        letter-spacing: .02em;
      }

      .cls-41 {
        fill: #f1b343;
      }
    </style>
    <clipPath id="clippath">
      <rect class="cls-1" x="95.34" y="138.9" width="164.66" height="229.66"/>
    </clipPath>
    <clipPath id="clippath-1">
      <rect class="cls-1" x="95.34" y="138.9" width="164.66" height="229.66"/>
    </clipPath>
    <clipPath id="clippath-2">
      <rect class="cls-1" x="95.34" y="138.9" width="164.66" height="229.66"/>
    </clipPath>
    <clipPath id="clippath-3">
      <rect class="cls-1" x="95.34" y="138.9" width="164.66" height="229.66"/>
    </clipPath>
    <clipPath id="clippath-4">
      <rect class="cls-1" x="95.34" y="138.9" width="164.66" height="229.66"/>
    </clipPath>
  </defs>
  <g id="ai2html-settings">
    <rect class="cls-1" width="375" height="609"/>
    <text class="cls-14" transform="translate(28.74 47.68)"><tspan x="0" y="0">EN</tspan><tspan class="cls-37" x="33.96" y="0">V</tspan><tspan x="49.31" y="0">IRONMEN</tspan><tspan class="cls-22" x="167.97" y="0">T</tspan><tspan class="cls-38" x="182.42" y="0">A</tspan><tspan x="198.24" y="0">L IM</tspan><tspan class="cls-20" x="248.11" y="0">P</tspan><tspan class="cls-32" x="263.39" y="0">A</tspan><tspan class="cls-30" x="279.16" y="0">C</tspan><tspan x="295.12" y="0">T</tspan><tspan x="0" y="36">OF </tspan><tspan class="cls-38" x="39.42" y="36">A</tspan><tspan x="55.24" y="36">I</tspan><tspan class="cls-18" x="63.67" y="36">-</tspan><tspan class="cls-10" x="72.52" y="36">RE</tspan><tspan class="cls-25" x="105.03" y="36">L</tspan><tspan class="cls-15" x="119.36" y="36">A</tspan><tspan x="133.36" y="36">TED</tspan><tspan x="0" y="72">ENERG</tspan><tspan class="cls-16" x="84.33" y="72">Y</tspan><tspan x="98.33" y="72"> </tspan><tspan class="cls-21" x="103.93" y="72">C</tspan><tspan x="119.19" y="72">ONSUM</tspan><tspan class="cls-19" x="212.49" y="72">P</tspan><tspan x="228.79" y="72">TION</tspan></text>
    <g id="patch_1" data-name="patch 1">
      <path class="cls-11" d="M88,384h170v-229H88v229Z"/>
    </g>
    <g id="axes_1" data-name="axes 1">
      <g id="patch_2" data-name="patch 2">
        <path class="cls-11" d="M95.34,368.56h164.66v-229.66H95.34v229.66Z"/>
      </g>
      <g id="patch_3" data-name="patch 3">
        <g class="cls-39">
          <path class="cls-3" d="M102.82,368.56h24.95v-218.72h-24.95v218.72Z"/>
        </g>
      </g>
      <g id="patch_4" data-name="patch 4">
        <g class="cls-5">
          <path class="cls-12" d="M134.01,368.56h24.95v-188.98h-24.95v188.98Z"/>
        </g>
      </g>
      <g id="patch_5" data-name="patch 5">
        <g class="cls-8">
          <path class="cls-41" d="M165.19,368.56h24.95v-163.75h-24.95v163.75Z"/>
        </g>
      </g>
      <g id="patch_6" data-name="patch 6">
        <g class="cls-6">
          <path class="cls-41" d="M196.38,368.56h24.95v-142.55h-24.95v142.55Z"/>
        </g>
      </g>
      <g id="patch_7" data-name="patch 7">
        <g class="cls-7">
          <path class="cls-41" d="M227.57,368.56h24.95v-107.82h-24.95v107.82Z"/>
        </g>
      </g>
      <g id="matplotlib.axis_1" data-name="matplotlib.axis 1">
        <g id="xtick_1" data-name="xtick 1">
          <g id="line2d_1" data-name="line2d 1">
            <path id="m17464f404b" class="cls-23" d="M115.29,368.56v1.24"/>
          </g>
          <g id="text_1" data-name="text 1">
            <g>
              <path id="DejaVuSans-55" d="M111.12,371.15h.44v1.57c0,.28.06.48.19.6.12.12.33.18.61.18s.48-.06.6-.18c.12-.12.19-.32.19-.6v-1.57h.44v1.61c0,.34-.1.59-.31.76-.21.17-.51.26-.92.26s-.71-.09-.92-.26c-.21-.17-.31-.43-.31-.76v-1.61Z"/>
              <path id="DejaVuSans-53" d="M116.32,371.23v.34c-.16-.06-.32-.11-.47-.14-.15-.03-.29-.05-.42-.05-.24,0-.42.04-.55.11-.13.07-.19.18-.19.32,0,.11.04.2.13.26.09.06.25.1.49.14l.26.04c.32.05.56.14.72.26s.23.29.23.5c0,.25-.1.44-.31.57-.21.13-.51.19-.92.19-.15,0-.31-.01-.49-.04-.17-.03-.35-.07-.53-.12v-.36c.18.08.35.14.52.18.17.04.34.06.5.06.25,0,.44-.04.57-.12.13-.08.2-.19.2-.34,0-.13-.05-.23-.15-.3s-.26-.13-.48-.16l-.27-.04c-.32-.05-.56-.13-.7-.24-.14-.11-.22-.27-.22-.46,0-.23.1-.41.3-.54.2-.13.48-.2.83-.2.15,0,.3.01.46.03.16.02.32.05.48.1Z"/>
              <path id="DejaVuSans-41" d="M118.35,371.49l-.59,1.29h1.18l-.59-1.29ZM118.1,371.15h.49l1.22,2.59h-.45l-.29-.66h-1.45l-.29.66h-.46l1.23-2.59Z"/>
            </g>
          </g>
        </g>
        <g id="xtick_2" data-name="xtick 2">
          <g id="line2d_2" data-name="line2d 2">
            <path id="m17464f404b-2" data-name="m17464f404b" class="cls-23" d="M146.48,368.56v1.24"/>
          </g>
          <g id="text_2" data-name="text 2">
            <g>
              <path id="DejaVuSans-43" d="M143.03,371.35v.37c-.15-.11-.3-.19-.47-.25-.17-.05-.34-.08-.53-.08-.37,0-.65.09-.84.27s-.29.44-.29.78.1.6.29.78.48.27.84.27c.19,0,.36-.03.53-.08s.32-.14.47-.25v.37c-.15.08-.31.15-.48.19-.17.04-.35.06-.54.06-.49,0-.87-.12-1.15-.36-.28-.24-.42-.57-.42-.98s.14-.74.42-.98c.28-.24.66-.36,1.15-.36.19,0,.37.02.54.06.17.04.33.1.48.18Z"/>
              <path id="DejaVuSans-68" d="M145.68,372.56v1.17h-.4v-1.16c0-.18-.04-.32-.13-.41-.09-.09-.22-.14-.4-.14-.21,0-.38.05-.51.16-.12.11-.19.26-.19.45v1.1h-.4v-2.69h.4v1.06c.09-.12.21-.2.33-.26.13-.06.28-.09.44-.09.28,0,.49.07.63.21.14.14.21.34.21.61Z"/>
              <path id="DejaVuSans-69" d="M146.47,371.79h.4v1.94h-.4v-1.94ZM146.47,371.04h.4v.4h-.4v-.4Z"/>
              <path id="DejaVuSans-6e" d="M149.7,372.56v1.17h-.4v-1.16c0-.18-.04-.32-.13-.41-.09-.09-.22-.14-.4-.14-.21,0-.38.05-.51.16-.12.11-.19.26-.19.45v1.1h-.4v-1.94h.4v.3c.09-.12.21-.2.33-.26.13-.06.28-.09.44-.09.28,0,.49.07.63.21.14.14.21.34.21.61Z"/>
              <path id="DejaVuSans-61" d="M151.58,372.76c-.32,0-.54.03-.66.09s-.19.16-.19.3c0,.11.05.2.14.27.09.07.22.1.38.1.22,0,.4-.06.53-.19s.2-.29.2-.5v-.07h-.39ZM152.37,372.63v1.11h-.4v-.29c-.09.12-.2.2-.34.26-.13.06-.3.08-.49.08-.25,0-.44-.06-.59-.17-.15-.11-.22-.26-.22-.45,0-.22.09-.38.27-.49.18-.11.45-.17.81-.17h.56v-.03c0-.15-.06-.26-.18-.34s-.29-.12-.5-.12c-.14,0-.27.01-.4.04-.13.03-.26.07-.38.12v-.29c.14-.05.28-.08.42-.1.14-.02.27-.03.4-.03.35,0,.61.07.78.22.17.15.26.37.26.66Z"/>
            </g>
          </g>
        </g>
        <g id="xtick_3" data-name="xtick 3">
          <g id="line2d_3" data-name="line2d 3">
            <path id="m17464f404b-3" data-name="m17464f404b" class="cls-23" d="M177.67,368.56v1.24"/>
          </g>
          <g id="text_3" data-name="text 3">
            <g>
              <path id="DejaVuSans-57" d="M166.33,371.15h.44l.68,2.19.67-2.19h.49l.68,2.19.67-2.19h.44l-.81,2.59h-.55l-.68-2.24-.68,2.24h-.55l-.8-2.59Z"/>
              <path id="DejaVuSans-6f" d="M171.63,372.02c-.21,0-.38.07-.5.2s-.19.32-.19.55.06.41.18.55c.12.13.29.2.5.2s.38-.07.5-.2c.12-.13.19-.32.19-.55s-.06-.41-.19-.55c-.12-.13-.29-.2-.5-.2ZM171.63,371.75c.34,0,.61.09.81.27.2.18.3.43.3.75s-.1.57-.3.75c-.2.18-.47.27-.81.27s-.62-.09-.81-.27c-.2-.18-.29-.43-.29-.75s.1-.57.29-.75c.2-.18.47-.27.81-.27Z"/>
              <path id="DejaVuSans-72" d="M174.79,372.09s-.09-.04-.15-.05c-.05,0-.11-.01-.17-.01-.22,0-.4.06-.52.18s-.18.29-.18.5v1.02h-.4v-1.94h.4v.3c.08-.12.19-.21.32-.26.13-.06.3-.09.49-.09.03,0,.06,0,.09,0,.03,0,.07,0,.11.01v.33Z"/>
              <path id="DejaVuSans-6c" d="M175.21,371.04h.4v2.69h-.4v-2.69Z"/>
              <path id="DejaVuSans-64" d="M178.02,372.09v-1.05h.4v2.69h-.4v-.29c-.08.12-.19.2-.32.26-.13.06-.28.08-.46.08-.29,0-.53-.09-.71-.28-.18-.19-.27-.43-.27-.74s.09-.55.27-.74c.18-.19.42-.28.71-.28.18,0,.33.03.46.08.13.06.23.14.32.26ZM176.67,372.77c0,.23.06.42.18.55.12.13.28.2.49.2s.37-.07.49-.2c.12-.13.18-.32.18-.55s-.06-.42-.18-.55c-.12-.13-.28-.2-.49-.2s-.37.07-.49.2-.18.32-.18.55Z"/>
              <path id="DejaVuSans-77" d="M179,371.79h.4l.49,1.51.49-1.51h.47l.49,1.51.49-1.51h.4l-.63,1.94h-.47l-.52-1.59-.52,1.59h-.47l-.63-1.94Z"/>
              <path id="DejaVuSans-69-2" data-name="DejaVuSans-69" d="M182.83,371.79h.4v1.94h-.4v-1.94ZM182.83,371.04h.4v.4h-.4v-.4Z"/>
              <path id="DejaVuSans-64-2" data-name="DejaVuSans-64" d="M185.64,372.09v-1.05h.4v2.69h-.4v-.29c-.08.12-.19.2-.32.26-.13.06-.28.08-.46.08-.29,0-.53-.09-.71-.28-.18-.19-.27-.43-.27-.74s.09-.55.27-.74c.18-.19.42-.28.71-.28.18,0,.33.03.46.08.13.06.23.14.32.26ZM184.29,372.77c0,.23.06.42.18.55.12.13.28.2.49.2s.37-.07.49-.2c.12-.13.18-.32.18-.55s-.06-.42-.18-.55c-.12-.13-.28-.2-.49-.2s-.37.07-.49.2-.18.32-.18.55Z"/>
              <path id="DejaVuSans-65" d="M188.91,372.68v.16h-1.82c.02.22.1.39.25.5.15.11.35.17.61.17.15,0,.3-.01.44-.04s.28-.07.43-.14v.3c-.14.05-.29.09-.44.11s-.3.04-.45.04c-.38,0-.69-.09-.91-.27-.22-.18-.34-.42-.34-.73s.11-.57.32-.76c.21-.19.5-.28.86-.28.32,0,.58.08.77.25.19.17.28.4.28.68ZM188.52,372.59c0-.17-.06-.31-.18-.42-.12-.1-.28-.16-.47-.16-.22,0-.4.05-.53.15s-.21.24-.23.42h1.41Z"/>
            </g>
          </g>
        </g>
        <g id="xtick_4" data-name="xtick 4">
          <g id="line2d_4" data-name="line2d 4">
            <path id="m17464f404b-4" data-name="m17464f404b" class="cls-23" d="M208.85,368.56v1.24"/>
          </g>
          <g id="text_4" data-name="text 4">
            <g>
              <path id="DejaVuSans-45" d="M194.83,371.15h2.03v.29h-1.6v.77h1.53v.29h-1.53v.94h1.63v.29h-2.07v-2.59Z"/>
              <path id="DejaVuSans-75" d="M197.56,372.97v-1.17h.4v1.16c0,.18.04.32.13.41.09.09.22.14.4.14.21,0,.38-.05.51-.16.12-.11.19-.26.19-.45v-1.1h.4v1.94h-.4v-.3c-.1.12-.21.21-.33.26-.13.06-.27.09-.44.09-.28,0-.49-.07-.63-.21-.14-.14-.21-.34-.21-.61Z"/>
              <path id="DejaVuSans-72-2" data-name="DejaVuSans-72" d="M201.79,372.09s-.09-.04-.15-.05c-.05,0-.11-.01-.17-.01-.22,0-.4.06-.52.18s-.18.29-.18.5v1.02h-.4v-1.94h.4v.3c.08-.12.19-.21.32-.26.13-.06.3-.09.49-.09.03,0,.06,0,.09,0,.03,0,.07,0,.11.01v.33Z"/>
              <path id="DejaVuSans-6f-2" data-name="DejaVuSans-6f" d="M203.04,372.02c-.21,0-.38.07-.5.2s-.19.32-.19.55.06.41.18.55c.12.13.29.2.5.2s.38-.07.5-.2c.12-.13.19-.32.19-.55s-.06-.41-.19-.55c-.12-.13-.29-.2-.5-.2ZM203.04,371.75c.34,0,.61.09.81.27.2.18.3.43.3.75s-.1.57-.3.75c-.2.18-.47.27-.81.27s-.62-.09-.81-.27c-.2-.18-.29-.43-.29-.75s.1-.57.29-.75c.2-.18.47-.27.81-.27Z"/>
              <path id="DejaVuSans-70" d="M205.18,373.44v1.03h-.4v-2.68h.4v.29c.08-.12.19-.2.32-.26.13-.06.28-.08.46-.08.29,0,.53.09.71.28.18.19.27.43.27.74s-.09.55-.27.74c-.18.19-.42.28-.71.28-.18,0-.33-.03-.46-.08-.13-.06-.23-.14-.32-.26ZM206.53,372.77c0-.23-.06-.42-.18-.55s-.28-.2-.49-.2-.37.07-.49.2-.18.32-.18.55.06.42.18.55c.12.13.28.2.49.2s.37-.07.49-.2c.12-.13.18-.32.18-.55Z"/>
              <path id="DejaVuSans-65-2" data-name="DejaVuSans-65" d="M209.66,372.68v.16h-1.82c.02.22.1.39.25.5.15.11.35.17.61.17.15,0,.3-.01.44-.04s.28-.07.43-.14v.3c-.14.05-.29.09-.44.11s-.3.04-.45.04c-.38,0-.69-.09-.91-.27-.22-.18-.34-.42-.34-.73s.11-.57.32-.76c.21-.19.5-.28.86-.28.32,0,.58.08.77.25.19.17.28.4.28.68ZM209.26,372.59c0-.17-.06-.31-.18-.42-.12-.1-.28-.16-.47-.16-.22,0-.4.05-.53.15s-.21.24-.23.42h1.41Z"/>
              <path id="DejaVuSans-28" d="M212.66,371.04c-.19.27-.33.53-.43.79-.09.26-.14.52-.14.79s.05.53.14.79.24.52.43.79h-.34c-.21-.27-.38-.54-.48-.8-.11-.26-.16-.52-.16-.78s.05-.52.16-.78c.11-.26.27-.53.48-.8h.34Z"/>
              <path id="DejaVuSans-45-2" data-name="DejaVuSans-45" d="M213.44,371.15h2.03v.29h-1.6v.77h1.53v.29h-1.53v.94h1.63v.29h-2.07v-2.59Z"/>
              <path id="DejaVuSans-45-3" data-name="DejaVuSans-45" d="M216.22,371.15h2.03v.29h-1.6v.77h1.53v.29h-1.53v.94h1.63v.29h-2.07v-2.59Z"/>
              <path id="DejaVuSans-41-2" data-name="DejaVuSans-41" d="M220.08,371.49l-.59,1.29h1.18l-.59-1.29ZM219.84,371.15h.49l1.22,2.59h-.45l-.29-.66h-1.45l-.29.66h-.46l1.23-2.59Z"/>
              <path id="DejaVuSans-29" d="M221.94,371.04h.34c.21.27.38.54.48.8.11.26.16.52.16.78s-.05.52-.16.78c-.11.26-.27.53-.48.8h-.34c.19-.26.33-.53.43-.79.09-.26.14-.53.14-.79s-.05-.53-.14-.79c-.09-.26-.24-.52-.43-.79Z"/>
            </g>
          </g>
        </g>
        <g id="xtick_5" data-name="xtick 5">
          <g id="line2d_5" data-name="line2d 5">
            <path id="m17464f404b-5" data-name="m17464f404b" class="cls-23" d="M240.04,368.56v1.24"/>
          </g>
          <g id="text_5" data-name="text 5">
            <g>
              <path id="DejaVuSans-46" d="M233.15,371.15h1.85v.29h-1.41v.76h1.27v.29h-1.27v1.23h-.43v-2.59Z"/>
              <path id="DejaVuSans-72-3" data-name="DejaVuSans-72" d="M236.74,372.09s-.09-.04-.15-.05c-.05,0-.11-.01-.17-.01-.22,0-.4.06-.52.18s-.18.29-.18.5v1.02h-.4v-1.94h.4v.3c.08-.12.19-.21.32-.26.13-.06.3-.09.49-.09.03,0,.06,0,.09,0,.03,0,.07,0,.11.01v.33Z"/>
              <path id="DejaVuSans-61-2" data-name="DejaVuSans-61" d="M238.25,372.76c-.32,0-.54.03-.66.09s-.19.16-.19.3c0,.11.05.2.14.27.09.07.22.1.38.1.22,0,.4-.06.53-.19s.2-.29.2-.5v-.07h-.39ZM239.04,372.63v1.11h-.4v-.29c-.09.12-.2.2-.34.26-.13.06-.3.08-.49.08-.25,0-.44-.06-.59-.17-.15-.11-.22-.26-.22-.45,0-.22.09-.38.27-.49.18-.11.45-.17.81-.17h.56v-.03c0-.15-.06-.26-.18-.34s-.29-.12-.5-.12c-.14,0-.27.01-.4.04-.13.03-.26.07-.38.12v-.29c.14-.05.28-.08.42-.1.14-.02.27-.03.4-.03.35,0,.61.07.78.22.17.15.26.37.26.66Z"/>
              <path id="DejaVuSans-6e-2" data-name="DejaVuSans-6e" d="M241.86,372.56v1.17h-.4v-1.16c0-.18-.04-.32-.13-.41-.09-.09-.22-.14-.4-.14-.21,0-.38.05-.51.16-.12.11-.19.26-.19.45v1.1h-.4v-1.94h.4v.3c.09-.12.21-.2.33-.26.13-.06.28-.09.44-.09.28,0,.49.07.63.21.14.14.21.34.21.61Z"/>
              <path id="DejaVuSans-63" d="M244.38,371.87v.3c-.11-.05-.22-.09-.34-.11s-.23-.04-.34-.04c-.26,0-.46.07-.6.2-.14.13-.21.31-.21.55s.07.42.21.55c.14.13.34.2.6.2.11,0,.23-.01.34-.04s.22-.06.34-.11v.29c-.11.04-.23.07-.34.09-.12.02-.24.03-.38.03-.36,0-.65-.09-.87-.28-.21-.18-.32-.43-.32-.74s.11-.56.32-.75c.22-.18.51-.27.89-.27.12,0,.24.01.36.03.12.02.23.05.34.09Z"/>
              <path id="DejaVuSans-65-3" data-name="DejaVuSans-65" d="M247.13,372.68v.16h-1.82c.02.22.1.39.25.5.15.11.35.17.61.17.15,0,.3-.01.44-.04s.28-.07.43-.14v.3c-.14.05-.29.09-.44.11s-.3.04-.45.04c-.38,0-.69-.09-.91-.27-.22-.18-.34-.42-.34-.73s.11-.57.32-.76c.21-.19.5-.28.86-.28.32,0,.58.08.77.25.19.17.28.4.28.68ZM246.74,372.59c0-.17-.06-.31-.18-.42-.12-.1-.28-.16-.47-.16-.22,0-.4.05-.53.15s-.21.24-.23.42h1.41Z"/>
            </g>
          </g>
        </g>
        <g id="text_6" data-name="text 6">
          <g>
            <path id="DejaVuSans-41-3" data-name="DejaVuSans-41" d="M158.51,376.43l-.71,1.54h1.42l-.71-1.54ZM158.21,376.02h.59l1.47,3.1h-.54l-.35-.8h-1.74l-.35.8h-.55l1.47-3.1Z"/>
            <path id="DejaVuSans-72-4" data-name="DejaVuSans-72" d="M162.49,377.15c-.05-.02-.11-.04-.17-.05-.06-.01-.13-.02-.21-.02-.27,0-.47.07-.62.21s-.22.34-.22.61v1.23h-.48v-2.33h.48v.36c.1-.14.23-.25.39-.31.16-.07.35-.1.58-.1.03,0,.07,0,.11,0,.04,0,.08,0,.13.02v.39Z"/>
            <path id="DejaVuSans-65-4" data-name="DejaVuSans-65" d="M165.34,377.86v.19h-2.18c.02.26.12.46.3.6.18.14.42.21.74.21.18,0,.36-.02.53-.05s.34-.09.51-.16v.36c-.17.06-.35.1-.52.13s-.36.05-.54.05c-.46,0-.83-.11-1.1-.32-.27-.22-.4-.51-.4-.88s.13-.68.38-.91c.26-.22.6-.34,1.03-.34.39,0,.7.1.92.3.23.2.34.48.34.82ZM164.87,377.75c0-.21-.08-.38-.22-.5-.14-.13-.33-.19-.56-.19-.26,0-.48.06-.64.18s-.25.29-.28.51h1.69Z"/>
            <path id="DejaVuSans-61-3" data-name="DejaVuSans-61" d="M167.44,377.95c-.38,0-.65.04-.8.11s-.22.19-.22.36c0,.14.06.24.17.32.11.08.26.12.45.12.26,0,.48-.08.63-.23s.24-.35.24-.6v-.09h-.47ZM168.38,377.8v1.33h-.47v-.35c-.11.14-.24.25-.41.31-.16.07-.36.1-.59.1-.3,0-.53-.07-.71-.2-.17-.13-.26-.31-.26-.54,0-.26.11-.46.33-.59.22-.13.54-.2.97-.2h.67v-.04c0-.18-.07-.31-.22-.41s-.35-.14-.61-.14c-.17,0-.33.02-.48.05-.16.03-.31.08-.45.14v-.35c.17-.05.34-.09.51-.12.16-.03.32-.04.48-.04.42,0,.73.09.94.26.21.17.31.44.31.79Z"/>
            <path id="DejaVuSans-6f-3" data-name="DejaVuSans-6f" d="M172.16,377.06c-.25,0-.46.08-.6.24s-.22.38-.22.66.07.5.22.66c.15.16.35.24.61.24s.45-.08.6-.24c.15-.16.22-.38.22-.66s-.07-.49-.22-.66c-.15-.16-.35-.24-.6-.24ZM172.16,376.74c.41,0,.74.11.97.32.24.22.35.51.35.9s-.12.68-.35.9c-.24.22-.56.33-.97.33s-.74-.11-.97-.33c-.23-.22-.35-.52-.35-.9s.12-.68.35-.9c.24-.22.56-.32.97-.32Z"/>
            <path id="DejaVuSans-72-5" data-name="DejaVuSans-72" d="M175.95,377.15c-.05-.02-.11-.04-.17-.05-.06-.01-.13-.02-.21-.02-.27,0-.47.07-.62.21s-.22.34-.22.61v1.23h-.48v-2.33h.48v.36c.1-.14.23-.25.39-.31.16-.07.35-.1.58-.1.03,0,.07,0,.11,0,.04,0,.08,0,.13.02v.39Z"/>
            <path id="DejaVuSans-43-2" data-name="DejaVuSans-43" d="M181.04,376.26v.44c-.18-.13-.36-.23-.56-.29-.2-.07-.41-.1-.63-.1-.44,0-.78.11-1.01.33s-.35.53-.35.94.12.72.35.94.57.33,1.01.33c.22,0,.43-.03.63-.1s.39-.16.56-.3v.44c-.18.1-.38.17-.58.22-.2.05-.42.07-.65.07-.58,0-1.04-.14-1.38-.43-.34-.29-.5-.68-.5-1.18s.17-.89.5-1.18c.34-.29.8-.43,1.38-.43.23,0,.45.02.65.07.2.05.4.12.57.22Z"/>
            <path id="DejaVuSans-6f-4" data-name="DejaVuSans-6f" d="M182.94,377.06c-.25,0-.46.08-.6.24s-.22.38-.22.66.07.5.22.66c.15.16.35.24.61.24s.45-.08.6-.24c.15-.16.22-.38.22-.66s-.07-.49-.22-.66c-.15-.16-.35-.24-.6-.24ZM182.94,376.74c.41,0,.74.11.97.32.24.22.35.51.35.9s-.12.68-.35.9c-.24.22-.56.33-.97.33s-.74-.11-.97-.33c-.23-.22-.35-.52-.35-.9s.12-.68.35-.9c.24-.22.56-.32.97-.32Z"/>
            <path id="DejaVuSans-75-2" data-name="DejaVuSans-75" d="M185.01,378.21v-1.41h.47v1.39c0,.22.05.39.16.5.11.11.27.16.48.16.26,0,.46-.07.61-.2.15-.13.22-.31.22-.54v-1.32h.47v2.33h-.47v-.36c-.12.14-.25.25-.4.32-.15.07-.33.1-.53.1-.33,0-.58-.08-.76-.25-.17-.17-.26-.41-.26-.73Z"/>
            <path id="DejaVuSans-6e-3" data-name="DejaVuSans-6e" d="M190.81,377.72v1.41h-.47v-1.39c0-.22-.05-.39-.16-.49-.11-.11-.27-.16-.48-.16-.26,0-.46.07-.61.2-.15.13-.22.31-.22.54v1.32h-.48v-2.33h.48v.36c.11-.14.25-.24.4-.31.15-.07.33-.1.53-.1.33,0,.58.08.75.25.17.17.26.41.26.73Z"/>
            <path id="DejaVuSans-74" d="M192.23,376.14v.66h.98v.3h-.98v1.26c0,.19.03.31.1.37s.2.08.39.08h.49v.32h-.49c-.37,0-.62-.05-.76-.16-.14-.11-.21-.31-.21-.6v-1.26h-.35v-.3h.35v-.66h.48Z"/>
            <path id="DejaVuSans-72-6" data-name="DejaVuSans-72" d="M195.51,377.15c-.05-.02-.11-.04-.17-.05-.06-.01-.13-.02-.21-.02-.27,0-.47.07-.62.21s-.22.34-.22.61v1.23h-.48v-2.33h.48v.36c.1-.14.23-.25.39-.31.16-.07.35-.1.58-.1.03,0,.07,0,.11,0,.04,0,.08,0,.13.02v.39Z"/>
            <path id="DejaVuSans-79" d="M197.21,379.34c-.13.28-.26.46-.39.54-.13.08-.3.13-.51.13h-.38v-.32h.28c.13,0,.23-.03.3-.08.07-.05.15-.17.24-.35l.09-.17-1.17-2.29h.5l.9,1.82.9-1.82h.5l-1.27,2.54Z"/>
          </g>
        </g>
      </g>
      <g id="matplotlib.axis_2" data-name="matplotlib.axis 2">
        <g id="ytick_1" data-name="ytick 1">
          <g id="line2d_6" data-name="line2d 6">
            <path id="mc7e323b204" class="cls-23" d="M95.34,368.56h-1.54"/>
          </g>
          <g id="text_7" data-name="text 7">
            <path id="DejaVuSans-30" d="M90.85,367.55c-.22,0-.39.09-.5.27-.11.18-.17.44-.17.8s.06.62.17.8c.11.18.28.27.5.27s.39-.09.51-.27c.11-.18.17-.44.17-.8s-.06-.62-.17-.8c-.11-.18-.28-.27-.51-.27ZM90.85,367.27c.36,0,.64.11.83.34.19.23.28.56.28,1s-.09.77-.28,1c-.19.23-.47.34-.83.34s-.63-.11-.82-.34c-.19-.23-.28-.56-.28-1s.09-.77.28-1c.19-.23.46-.34.82-.34Z"/>
          </g>
        </g>
        <g id="ytick_2" data-name="ytick 2">
          <g id="line2d_7" data-name="line2d 7">
            <path id="mc7e323b204-2" data-name="mc7e323b204" class="cls-23" d="M95.34,324.17h-1.54"/>
          </g>
          <g id="text_8" data-name="text 8">
            <path id="DejaVuSans-32" d="M90.29,325.22h1.52v.29h-2.04v-.29c.16-.14.39-.32.67-.55.28-.23.46-.38.54-.45.14-.13.24-.23.29-.32.06-.09.08-.17.08-.26,0-.14-.06-.25-.18-.34-.12-.09-.28-.13-.47-.13-.14,0-.28.02-.43.06-.15.04-.31.1-.48.17v-.35c.17-.06.34-.1.49-.13.15-.03.29-.04.42-.04.33,0,.6.07.8.2.2.13.3.31.3.54,0,.11-.02.21-.07.3-.05.09-.14.21-.27.34-.04.03-.15.13-.34.29-.19.16-.46.38-.81.67Z"/>
          </g>
        </g>
        <g id="ytick_3" data-name="ytick 3">
          <g id="line2d_8" data-name="line2d 8">
            <path id="mc7e323b204-3" data-name="mc7e323b204" class="cls-23" d="M95.34,279.78h-1.54"/>
          </g>
          <g id="text_9" data-name="text 9">
            <path id="DejaVuSans-34" d="M91.11,278.85l-1.1,1.38h1.1v-1.38ZM91,278.54h.55v1.69h.46v.29h-.46v.61h-.43v-.61h-1.45v-.34l1.34-1.64Z"/>
          </g>
        </g>
        <g id="ytick_4" data-name="ytick 4">
          <g id="line2d_9" data-name="line2d 9">
            <path id="mc7e323b204-4" data-name="mc7e323b204" class="cls-23" d="M95.34,235.39h-1.54"/>
          </g>
          <g id="text_10" data-name="text 10">
            <path id="DejaVuSans-36" d="M90.9,235.31c-.2,0-.35.05-.46.16-.11.11-.17.25-.17.44s.06.33.17.44c.11.11.27.16.46.16s.35-.05.46-.16c.11-.11.17-.26.17-.44s-.06-.33-.17-.44c-.11-.11-.27-.16-.46-.16ZM91.77,234.21v.32c-.11-.04-.22-.07-.33-.09-.11-.02-.22-.03-.33-.03-.29,0-.51.08-.66.23-.15.16-.24.39-.26.71.08-.1.19-.18.32-.23.13-.05.27-.08.42-.08.32,0,.58.08.76.24.19.16.28.37.28.64s-.1.48-.29.64c-.2.16-.45.24-.78.24-.37,0-.66-.11-.85-.34-.2-.23-.29-.56-.29-1,0-.41.12-.73.36-.98.24-.24.56-.36.97-.36.11,0,.22,0,.33.03s.23.04.35.08Z"/>
          </g>
        </g>
        <g id="ytick_5" data-name="ytick 5">
          <g id="line2d_10" data-name="line2d 10">
            <path id="mc7e323b204-5" data-name="mc7e323b204" class="cls-23" d="M95.34,191.01h-1.54"/>
          </g>
          <g id="text_11" data-name="text 11">
            <path id="DejaVuSans-38" d="M90.85,191.13c-.21,0-.37.04-.49.13-.12.09-.18.21-.18.37s.06.28.18.37c.12.09.28.13.49.13s.37-.04.49-.13c.12-.09.18-.21.18-.37s-.06-.28-.18-.37c-.12-.09-.28-.13-.49-.13ZM90.41,190.98c-.19-.04-.33-.11-.44-.21-.1-.1-.16-.23-.16-.38,0-.21.09-.37.27-.49.18-.12.43-.18.75-.18s.57.06.75.18.27.28.27.49c0,.15-.05.27-.16.38-.1.1-.25.17-.43.21.21.04.37.12.49.23.12.11.18.25.18.42,0,.25-.09.44-.28.58-.19.13-.46.2-.82.2s-.63-.07-.82-.2c-.19-.13-.28-.33-.28-.58,0-.16.06-.3.18-.42.12-.11.28-.19.49-.23ZM90.25,190.42c0,.13.05.24.16.31.1.07.25.11.44.11s.33-.04.44-.11c.11-.07.16-.18.16-.31s-.05-.24-.16-.31c-.11-.07-.25-.11-.44-.11s-.33.04-.44.11c-.1.07-.16.18-.16.31Z"/>
          </g>
        </g>
        <g id="ytick_6" data-name="ytick 6">
          <g id="line2d_11" data-name="line2d 11">
            <path id="mc7e323b204-6" data-name="mc7e323b204" class="cls-23" d="M95.34,146.62h-1.54"/>
          </g>
          <g id="text_12" data-name="text 12">
            <g>
              <path id="DejaVuSans-31" d="M87.19,147.67h.71v-1.97l-.77.12v-.32l.77-.12h.43v2.29h.71v.29h-1.85v-.29Z"/>
              <path id="DejaVuSans-30-2" data-name="DejaVuSans-30" d="M90.85,145.61c-.22,0-.39.09-.5.27-.11.18-.17.44-.17.8s.06.62.17.8c.11.18.28.27.5.27s.39-.09.51-.27c.11-.18.17-.44.17-.8s-.06-.62-.17-.8c-.11-.18-.28-.27-.51-.27ZM90.85,145.33c.36,0,.64.11.83.34.19.23.28.56.28,1s-.09.77-.28,1c-.19.23-.47.34-.83.34s-.63-.11-.82-.34c-.19-.23-.28-.56-.28-1s.09-.77.28-1c.19-.23.46-.34.82-.34Z"/>
            </g>
          </g>
        </g>
        <g id="text_13" data-name="text 13">
          <g>
            <path id="DejaVuSans-41-4" data-name="DejaVuSans-41" d="M80.44,285.34l1.92.57v-1.14l-1.92.57ZM79.93,285.58v-.48l3.85-1.18v.44l-.99.28v1.4l.99.28v.44l-3.85-1.18Z"/>
            <path id="DejaVuSans-44" d="M80.36,283.05h3v-.51c0-.43-.12-.74-.36-.94-.24-.2-.62-.3-1.14-.3s-.89.1-1.13.3-.36.51-.36.94v.51ZM79.93,283.47v-.86c0-.6.16-1.04.47-1.32.31-.28.8-.42,1.46-.42s1.15.14,1.46.42c.31.28.47.72.47,1.32v.86h-3.85Z"/>
            <path id="DejaVuSans-50" d="M80.36,279.77h1.45v-.53c0-.2-.06-.35-.19-.45-.13-.11-.3-.16-.54-.16s-.41.05-.53.16c-.13.11-.19.26-.19.45v.53ZM79.93,280.19v-.95c0-.35.1-.61.29-.79.2-.18.48-.27.86-.27s.67.09.86.27c.19.18.29.44.29.79v.53h1.55v.42h-3.85Z"/>
            <path id="DejaVuSans-65-5" data-name="DejaVuSans-65" d="M82.22,275.81h.23v1.76c.33-.02.58-.1.75-.24.17-.14.26-.34.26-.59,0-.15-.02-.29-.07-.43s-.11-.27-.2-.41h.45c.07.14.13.28.17.42s.06.29.06.44c0,.37-.13.67-.4.88-.27.22-.63.33-1.09.33s-.85-.1-1.13-.31c-.28-.21-.42-.48-.42-.83,0-.31.13-.56.38-.74.25-.18.59-.27,1.02-.27ZM82.08,276.19c-.26,0-.47.06-.62.18-.16.11-.23.27-.23.45,0,.21.07.38.22.51s.36.2.63.22v-1.36Z"/>
            <path id="DejaVuSans-28-2" data-name="DejaVuSans-28" d="M79.77,272.91c.4.19.79.32,1.17.41.39.09.78.13,1.18.13s.79-.05,1.18-.14.78-.23,1.18-.41v.33c-.4.21-.8.36-1.19.47-.39.1-.78.15-1.16.15s-.77-.05-1.16-.15c-.39-.1-.79-.26-1.19-.47v-.33Z"/>
            <path id="DejaVuSans-d7" d="M80.94,269.58l1.19.95,1.18-.95.31.25-1.18.95,1.18.95-.31.25-1.18-.95-1.19.95-.31-.25,1.19-.95-1.19-.95.31-.25Z"/>
            <path id="DejaVuSans-31-2" data-name="DejaVuSans-31" d="M83.34,268.47v-.69h-2.94l.19.75h-.47l-.19-.74v-.42h3.42v-.69h.44v1.79h-.44Z"/>
            <path id="DejaVuSans-30-3" data-name="DejaVuSans-30" d="M80.27,264.94c0,.22.13.38.4.49.26.11.66.16,1.19.16s.92-.05,1.19-.16c.26-.11.4-.27.4-.49s-.13-.38-.4-.49c-.26-.11-.66-.16-1.19-.16s-.93.05-1.19.16c-.26.11-.4.27-.4.49ZM79.86,264.94c0-.35.17-.61.51-.8.34-.18.84-.28,1.49-.28s1.14.09,1.49.28c.34.18.51.45.51.8s-.17.61-.51.8c-.34.18-.84.28-1.49.28s-1.15-.09-1.49-.28c-.34-.18-.51-.45-.51-.8Z"/>
            <path id="DejaVuSans-5e" d="M79.93,261.6l1.44-1.13v.42l-1.02.91,1.02.91v.42l-1.44-1.13v-.41Z"/>
            <path id="DejaVuSans-2d" d="M82.12,259.81v-1.12h.42v1.12h-.42Z"/>
            <path id="DejaVuSans-38-2" data-name="DejaVuSans-38" d="M81.95,257.13c0,.2.07.36.2.47.13.11.32.17.55.17s.41-.06.55-.17c.13-.11.2-.27.2-.47s-.07-.36-.2-.47c-.13-.12-.32-.17-.55-.17s-.41.06-.55.17c-.13.11-.2.27-.2.47ZM81.73,257.55c-.06.18-.16.32-.31.42-.15.1-.34.15-.56.15-.31,0-.55-.09-.73-.26-.18-.18-.27-.42-.27-.73s.09-.55.27-.73.42-.26.73-.26c.22,0,.41.05.56.15.15.1.26.24.31.42.06-.2.17-.36.34-.47.17-.11.38-.17.62-.17.37,0,.66.09.86.28.2.18.3.45.3.79s-.1.6-.3.79c-.2.18-.49.28-.86.28-.25,0-.45-.06-.62-.17-.17-.11-.29-.27-.34-.47ZM80.91,257.7c.2,0,.35-.05.47-.15.11-.1.17-.24.17-.42s-.06-.32-.17-.42c-.11-.1-.27-.15-.47-.15s-.36.05-.47.15c-.11.1-.17.24-.17.42s.06.32.17.42c.11.1.27.15.47.15Z"/>
            <path id="DejaVuSans-6b" d="M79.77,254.04v-.38h2.37l-1.25-1.14v-.49l1.35,1.23,1.54-1.29v.5l-1.41,1.18h1.41v.38h-4.02Z"/>
            <path id="DejaVuSans-67" d="M82.3,250.03c-.34,0-.61.06-.8.17-.19.11-.28.27-.28.48s.09.36.28.48c.19.11.46.17.8.17s.61-.06.8-.17c.19-.11.28-.27.28-.48s-.09-.37-.28-.48c-.19-.11-.46-.17-.8-.17ZM83.42,249.64c.49,0,.86.09,1.1.26.24.18.36.44.36.81,0,.13-.01.26-.04.38s-.06.23-.11.35h-.46c.08-.11.13-.22.17-.33.04-.11.05-.22.05-.33,0-.25-.08-.44-.24-.56-.16-.12-.41-.19-.74-.19h-.24c.17.08.3.18.38.3s.13.27.13.44c0,.29-.13.51-.4.69-.27.17-.63.26-1.07.26s-.81-.09-1.08-.26c-.27-.17-.41-.4-.41-.69,0-.17.04-.32.13-.44s.21-.22.38-.3h-.44v-.38h2.53Z"/>
            <path id="DejaVuSans-53-2" data-name="DejaVuSans-53" d="M80.06,245.63h.51c-.09.16-.17.31-.21.45-.05.14-.07.28-.07.41,0,.23.06.4.17.53.11.12.27.19.47.19.17,0,.3-.04.39-.12.09-.08.16-.24.21-.47l.06-.25c.07-.31.2-.54.39-.69s.44-.22.75-.22c.37,0,.66.1.85.3.19.2.29.5.29.89,0,.15-.02.3-.06.47-.04.17-.1.34-.18.51h-.54c.12-.17.21-.34.27-.5.06-.16.09-.32.09-.48,0-.24-.06-.42-.18-.55-.12-.13-.28-.2-.5-.2-.19,0-.34.05-.44.14s-.19.25-.24.46l-.06.26c-.08.31-.2.54-.36.68-.17.14-.4.21-.69.21-.34,0-.61-.1-.81-.29-.2-.19-.29-.46-.29-.8,0-.15.02-.29.05-.44.03-.15.08-.31.15-.46Z"/>
            <path id="DejaVuSans-62" d="M82.34,243.13c-.35,0-.62.06-.82.17s-.3.27-.3.48.1.36.3.48.47.17.82.17.62-.06.82-.17c.2-.12.3-.27.3-.48s-.1-.36-.3-.48c-.2-.12-.47-.17-.82-.17ZM81.33,244.43c-.17-.08-.3-.18-.38-.3-.08-.12-.13-.27-.13-.44,0-.28.14-.51.42-.69.28-.18.65-.27,1.1-.27s.82.09,1.1.27c.28.18.42.41.42.69,0,.17-.04.32-.13.44-.08.12-.21.22-.38.3h.43v.38h-4.02v-.38h1.56Z"/>
            <path id="DejaVuSans-65-6" data-name="DejaVuSans-65" d="M82.22,238.76h.23v1.76c.33-.02.58-.1.75-.24.17-.14.26-.34.26-.59,0-.15-.02-.29-.07-.43s-.11-.27-.2-.41h.45c.07.14.13.28.17.42s.06.29.06.44c0,.37-.13.67-.4.88-.27.22-.63.33-1.09.33s-.85-.1-1.13-.31c-.28-.21-.42-.48-.42-.83,0-.31.13-.56.38-.74.25-.18.59-.27,1.02-.27ZM82.08,239.14c-.26,0-.47.06-.62.18-.16.11-.23.27-.23.45,0,.21.07.38.22.51s.36.2.63.22v-1.36Z"/>
            <path id="DejaVuSans-71" d="M82.34,237.9c.35,0,.62-.06.82-.17.2-.12.3-.27.3-.48s-.1-.36-.3-.48c-.2-.12-.47-.17-.82-.17s-.62.06-.82.17c-.2.12-.3.28-.3.48s.1.36.3.48.47.17.82.17ZM83.35,236.6c.17.08.3.18.38.3.08.12.13.27.13.44,0,.28-.14.51-.42.69-.28.18-.65.26-1.1.26s-.82-.09-1.1-.26c-.28-.18-.42-.41-.42-.69,0-.17.04-.32.13-.44.08-.12.21-.22.38-.3h-.44v-.38h3.99v.38h-1.53Z"/>
            <path id="DejaVuSans-2f" d="M79.93,233.4v-.35l4.35,1.08v.35l-4.35-1.08Z"/>
            <path id="DejaVuSans-6b-2" data-name="DejaVuSans-6b" d="M79.77,231.3v-.38h2.37l-1.25-1.14v-.49l1.35,1.23,1.54-1.29v.5l-1.41,1.18h1.41v.38h-4.02Z"/>
            <path id="DejaVuSans-57-2" data-name="DejaVuSans-57" d="M79.93,229.08v-.42l3.26-.65-3.26-.65v-.47l3.26-.65-3.26-.65v-.43l3.85.78v.53l-3.35.65,3.35.66v.53l-3.85.78Z"/>
            <path id="DejaVuSans-68-2" data-name="DejaVuSans-68" d="M82.04,222.68h1.75v.38h-1.73c-.27,0-.48.04-.61.13-.14.09-.2.21-.2.39,0,.21.08.37.25.49.16.12.39.18.67.18h1.63v.38h-4.02v-.38h1.58c-.17-.09-.3-.2-.39-.32-.09-.12-.13-.27-.13-.43,0-.27.1-.47.31-.61.21-.14.51-.21.91-.21Z"/>
            <path id="DejaVuSans-29-2" data-name="DejaVuSans-29" d="M79.77,221.98v-.33c.41-.21.8-.36,1.19-.47.39-.1.78-.15,1.16-.15s.77.05,1.16.15c.39.1.79.26,1.19.47v.33c-.39-.18-.79-.32-1.18-.41-.39-.09-.78-.14-1.18-.14s-.79.05-1.18.14c-.39.09-.78.23-1.17.41Z"/>
          </g>
        </g>
      </g>
      <g id="patch_8" data-name="patch 8">
        <path class="cls-2" d="M95.34,368.56v-229.66"/>
      </g>
      <g id="patch_9" data-name="patch 9">
        <path class="cls-2" d="M260,368.56v-229.66"/>
      </g>
      <g id="patch_10" data-name="patch 10">
        <path class="cls-2" d="M95.34,368.56h164.66"/>
      </g>
      <g id="patch_11" data-name="patch 11">
        <path class="cls-2" d="M95.34,138.9h164.66"/>
      </g>
      <g id="text_14" data-name="text 14">
        <g>
          <path id="DejaVuSans-Bold-39" class="cls-11" d="M110.3,161.86v-.48c.13.05.26.09.38.11.12.02.24.04.36.04.25,0,.44-.06.58-.17.14-.11.22-.27.24-.49-.1.06-.2.1-.31.13s-.23.04-.36.04c-.33,0-.59-.08-.8-.23-.2-.15-.3-.36-.3-.61,0-.28.11-.5.34-.67s.53-.25.9-.25c.42,0,.74.11.97.34.23.23.34.55.34.96s-.13.76-.4,1.01c-.27.24-.64.37-1.1.37-.15,0-.29,0-.43-.03-.14-.02-.27-.04-.4-.08ZM111.32,160.61c.15,0,.25-.04.33-.11.07-.08.11-.19.11-.34s-.04-.26-.11-.34c-.07-.08-.18-.11-.33-.11s-.25.04-.33.11c-.07.08-.11.19-.11.34s.04.27.11.34c.07.08.18.11.33.11Z"/>
          <path id="DejaVuSans-Bold-2e" class="cls-11" d="M113.37,161.24h.77v.67h-.77v-.67Z"/>
          <path id="DejaVuSans-Bold-38" class="cls-11" d="M116.13,160.76c-.15,0-.27.03-.36.1-.08.07-.12.17-.12.29s.04.22.12.29c.08.07.2.1.36.1s.27-.03.35-.1c.08-.07.12-.16.12-.29s-.04-.23-.12-.29-.2-.1-.35-.1ZM115.53,160.54c-.2-.05-.34-.12-.44-.22-.1-.1-.15-.22-.15-.37,0-.22.1-.38.3-.5.2-.11.5-.17.89-.17s.68.06.89.17c.2.11.3.28.3.5,0,.15-.05.27-.15.37-.1.1-.25.17-.44.22.22.05.38.13.49.24.11.11.17.25.17.41,0,.26-.11.45-.32.58-.21.13-.53.2-.94.2s-.73-.07-.95-.2c-.21-.13-.32-.32-.32-.58,0-.17.06-.3.17-.41.11-.11.28-.19.49-.24ZM115.72,160.02c0,.1.04.18.11.24s.17.08.3.08.23-.03.3-.08c.07-.06.11-.13.11-.24s-.04-.18-.11-.24c-.07-.06-.17-.08-.3-.08s-.23.03-.3.08-.11.13-.11.24Z"/>
          <path id="DejaVuSans-Bold-36" class="cls-11" d="M119.26,160.64c-.15,0-.25.04-.33.11-.07.08-.11.19-.11.34s.04.26.11.34c.07.08.18.11.33.11s.26-.04.33-.11c.07-.08.11-.19.11-.34s-.04-.26-.11-.34c-.07-.08-.18-.11-.33-.11ZM120.28,159.39v.48c-.14-.05-.26-.09-.39-.12-.12-.02-.24-.04-.35-.04-.25,0-.44.06-.58.17-.14.11-.22.27-.24.49.09-.06.2-.1.31-.13.11-.03.23-.04.36-.04.33,0,.59.08.79.23.2.15.3.36.3.61,0,.28-.11.5-.34.67-.22.17-.53.25-.91.25-.42,0-.74-.11-.97-.34-.23-.23-.34-.55-.34-.97s.13-.76.4-1.01c.27-.24.63-.37,1.1-.37.15,0,.29,0,.43.03s.28.05.41.08Z"/>
        </g>
      </g>
      <g id="text_15" data-name="text 15">
        <g>
          <path id="DejaVuSans-Bold-38-2" data-name="DejaVuSans-Bold-38" class="cls-11" d="M142.58,190.49c-.15,0-.27.03-.36.1-.08.07-.12.17-.12.29s.04.22.12.29c.08.07.2.1.36.1s.27-.03.35-.1c.08-.07.12-.16.12-.29s-.04-.23-.12-.29-.2-.1-.35-.1ZM141.98,190.28c-.2-.05-.34-.12-.44-.22-.1-.1-.15-.22-.15-.37,0-.22.1-.38.3-.5.2-.11.5-.17.89-.17s.68.06.89.17c.2.11.3.28.3.5,0,.15-.05.27-.15.37-.1.1-.25.17-.44.22.22.05.38.13.49.24.11.11.17.25.17.41,0,.26-.11.45-.32.58-.21.13-.53.2-.94.2s-.73-.07-.95-.2c-.21-.13-.32-.32-.32-.58,0-.17.06-.3.17-.41.11-.11.28-.19.49-.24ZM142.17,189.76c0,.1.04.18.11.24s.17.08.3.08.23-.03.3-.08c.07-.06.11-.13.11-.24s-.04-.18-.11-.24c-.07-.06-.17-.08-.3-.08s-.23.03-.3.08-.11.13-.11.24Z"/>
          <path id="DejaVuSans-Bold-2e-2" data-name="DejaVuSans-Bold-2e" class="cls-11" d="M144.56,190.98h.77v.67h-.77v-.67Z"/>
          <path id="DejaVuSans-Bold-35" class="cls-11" d="M146.25,189.07h2.06v.49h-1.4v.4c.06-.01.13-.02.19-.03.06,0,.13-.01.2-.01.39,0,.7.08.91.24s.33.38.33.66-.12.5-.36.66c-.24.16-.57.24-.99.24-.18,0-.36-.01-.54-.04-.18-.03-.36-.07-.53-.13v-.52c.17.08.34.14.5.18.16.04.31.06.44.06.2,0,.36-.04.47-.12.12-.08.17-.19.17-.32s-.06-.24-.17-.32c-.12-.08-.27-.12-.47-.12-.12,0-.25.01-.38.04-.13.02-.28.06-.43.11v-1.45Z"/>
          <path id="DejaVuSans-Bold-32" class="cls-11" d="M150.12,191.16h1.41v.49h-2.33v-.49l1.17-.83c.11-.08.18-.15.23-.22s.08-.15.08-.23c0-.12-.05-.22-.15-.29s-.24-.11-.4-.11c-.13,0-.27.02-.42.07-.15.04-.32.11-.49.2v-.57c.19-.05.37-.09.55-.11.18-.03.36-.04.54-.04.38,0,.68.07.9.2.21.14.32.33.32.57,0,.14-.05.27-.14.39-.09.12-.28.28-.57.49l-.69.48Z"/>
        </g>
      </g>
      <g id="text_16" data-name="text 16">
        <g>
          <path id="DejaVuSans-Bold-37" class="cls-11" d="M172.53,214.3h2.42v.38l-1.25,2.21h-.81l1.19-2.1h-1.55v-.49Z"/>
          <path id="DejaVuSans-Bold-2e-3" data-name="DejaVuSans-Bold-2e" class="cls-11" d="M175.75,216.22h.77v.67h-.77v-.67Z"/>
          <path id="DejaVuSans-Bold-33" class="cls-11" d="M179.02,215.49c.22.05.38.12.49.23.11.11.17.25.17.43,0,.26-.12.45-.37.58-.24.13-.6.2-1.07.2-.17,0-.33-.01-.5-.03-.17-.02-.33-.05-.49-.1v-.51c.16.06.31.11.46.14.15.03.3.05.45.05.22,0,.39-.03.5-.09.12-.06.18-.15.18-.26s-.06-.21-.18-.27-.3-.09-.53-.09h-.33v-.43h.35c.21,0,.36-.03.46-.08.1-.05.15-.13.15-.24,0-.1-.05-.18-.15-.23-.1-.05-.24-.08-.42-.08-.13,0-.27.01-.4.04-.14.02-.27.06-.41.11v-.49c.16-.04.33-.06.49-.08s.32-.03.47-.03c.42,0,.73.06.94.17.21.11.31.28.31.5,0,.15-.05.27-.15.37-.1.1-.24.16-.44.2Z"/>
          <path id="DejaVuSans-Bold-38-3" data-name="DejaVuSans-Bold-38" class="cls-11" d="M181.57,215.73c-.15,0-.27.03-.36.1-.08.07-.12.17-.12.29s.04.22.12.29c.08.07.2.1.36.1s.27-.03.35-.1c.08-.07.12-.16.12-.29s-.04-.23-.12-.29-.2-.1-.35-.1ZM180.97,215.51c-.2-.05-.34-.12-.44-.22-.1-.1-.15-.22-.15-.37,0-.22.1-.38.3-.5.2-.11.5-.17.89-.17s.68.06.89.17c.2.11.3.28.3.5,0,.15-.05.27-.15.37-.1.1-.25.17-.44.22.22.05.38.13.49.24.11.11.17.25.17.41,0,.26-.11.45-.32.58-.21.13-.53.2-.94.2s-.73-.07-.95-.2c-.21-.13-.32-.32-.32-.58,0-.17.06-.3.17-.41.11-.11.28-.19.49-.24ZM181.16,214.99c0,.1.04.18.11.24s.17.08.3.08.23-.03.3-.08c.07-.06.11-.13.11-.24s-.04-.18-.11-.24c-.07-.06-.17-.08-.3-.08s-.23.03-.3.08-.11.13-.11.24Z"/>
        </g>
      </g>
      <g id="text_17" data-name="text 17">
        <g>
          <path id="DejaVuSans-Bold-36-2" data-name="DejaVuSans-Bold-36" class="cls-11" d="M205.01,236.81c-.15,0-.25.04-.33.11-.07.08-.11.19-.11.34s.04.26.11.34c.07.08.18.11.33.11s.26-.04.33-.11c.07-.08.11-.19.11-.34s-.04-.26-.11-.34c-.07-.08-.18-.11-.33-.11ZM206.04,235.56v.48c-.14-.05-.26-.09-.39-.12-.12-.02-.24-.04-.35-.04-.25,0-.44.06-.58.17-.14.11-.22.27-.24.49.09-.06.2-.1.31-.13.11-.03.23-.04.36-.04.33,0,.59.08.79.23.2.15.3.36.3.61,0,.28-.11.5-.34.67-.22.17-.53.25-.91.25-.42,0-.74-.11-.97-.34-.23-.23-.34-.55-.34-.97s.13-.76.4-1.01c.27-.24.63-.37,1.1-.37.15,0,.29,0,.43.03s.28.05.41.08Z"/>
          <path id="DejaVuSans-Bold-2e-4" data-name="DejaVuSans-Bold-2e" class="cls-11" d="M206.93,237.41h.77v.67h-.77v-.67Z"/>
          <path id="DejaVuSans-Bold-34" class="cls-11" d="M209.78,236.04l-.91,1.08h.91v-1.08ZM209.64,235.5h.92v1.63h.46v.48h-.46v.47h-.78v-.47h-1.42v-.57l1.29-1.54Z"/>
          <path id="DejaVuSans-Bold-32-2" data-name="DejaVuSans-Bold-32" class="cls-11" d="M212.49,237.59h1.41v.49h-2.33v-.49l1.17-.83c.11-.08.18-.15.23-.22s.08-.15.08-.23c0-.12-.05-.22-.15-.29s-.24-.11-.4-.11c-.13,0-.27.02-.42.07-.15.04-.32.11-.49.2v-.57c.19-.05.37-.09.55-.11.18-.03.36-.04.54-.04.38,0,.68.07.9.2.21.14.32.33.32.57,0,.14-.05.27-.14.39-.09.12-.28.28-.57.49l-.69.48Z"/>
        </g>
      </g>
      <g id="text_18" data-name="text 18">
        <g>
          <path id="DejaVuSans-Bold-34-2" data-name="DejaVuSans-Bold-34" class="cls-11" d="M236.23,270.78l-.91,1.08h.91v-1.08ZM236.09,270.23h.92v1.63h.46v.48h-.46v.47h-.78v-.47h-1.42v-.57l1.29-1.54Z"/>
          <path id="DejaVuSans-Bold-2e-5" data-name="DejaVuSans-Bold-2e" class="cls-11" d="M238.12,272.14h.77v.67h-.77v-.67Z"/>
          <path id="DejaVuSans-Bold-38-4" data-name="DejaVuSans-Bold-38" class="cls-11" d="M240.88,271.66c-.15,0-.27.03-.36.1-.08.07-.12.17-.12.29s.04.22.12.29c.08.07.2.1.36.1s.27-.03.35-.1c.08-.07.12-.16.12-.29s-.04-.23-.12-.29-.2-.1-.35-.1ZM240.27,271.44c-.2-.05-.34-.12-.44-.22-.1-.1-.15-.22-.15-.37,0-.22.1-.38.3-.5.2-.11.5-.17.89-.17s.68.06.89.17c.2.11.3.28.3.5,0,.15-.05.27-.15.37-.1.1-.25.17-.44.22.22.05.38.13.49.24.11.11.17.25.17.41,0,.26-.11.45-.32.58-.21.13-.53.2-.94.2s-.73-.07-.95-.2c-.21-.13-.32-.32-.32-.58,0-.17.06-.3.17-.41.11-.11.28-.19.49-.24ZM240.47,270.92c0,.1.04.18.11.24s.17.08.3.08.23-.03.3-.08c.07-.06.11-.13.11-.24s-.04-.18-.11-.24c-.07-.06-.17-.08-.3-.08s-.23.03-.3.08-.11.13-.11.24Z"/>
          <path id="DejaVuSans-Bold-36-3" data-name="DejaVuSans-Bold-36" class="cls-11" d="M244,271.54c-.15,0-.25.04-.33.11-.07.08-.11.19-.11.34s.04.26.11.34c.07.08.18.11.33.11s.26-.04.33-.11c.07-.08.11-.19.11-.34s-.04-.26-.11-.34c-.07-.08-.18-.11-.33-.11ZM245.03,270.3v.48c-.14-.05-.26-.09-.39-.12-.12-.02-.24-.04-.35-.04-.25,0-.44.06-.58.17-.14.11-.22.27-.24.49.09-.06.2-.1.31-.13.11-.03.23-.04.36-.04.33,0,.59.08.79.23.2.15.3.36.3.61,0,.28-.11.5-.34.67-.22.17-.53.25-.91.25-.42,0-.74-.11-.97-.34-.23-.23-.34-.55-.34-.97s.13-.76.4-1.01c.27-.24.63-.37,1.1-.37.15,0,.29,0,.43.03s.28.05.41.08Z"/>
        </g>
      </g>
      <g id="text_19" data-name="text 19">
        <g>
          <path id="DejaVuSans-41-5" data-name="DejaVuSans-41" d="M122.54,133.64l-.83,1.8h1.65l-.83-1.8ZM122.2,133.15h.69l1.71,3.62h-.63l-.41-.93h-2.03l-.41.93h-.64l1.72-3.62Z"/>
          <path id="DejaVuSans-62-2" data-name="DejaVuSans-62" d="M127.66,135.42c0-.33-.08-.59-.25-.77s-.4-.28-.69-.28-.52.09-.69.28-.25.44-.25.77.08.59.25.77c.17.19.4.28.69.28s.52-.09.69-.28c.17-.19.25-.44.25-.77ZM125.77,134.47c.12-.16.26-.28.44-.36.18-.08.39-.12.64-.12.41,0,.74.13,1,.39.26.26.38.61.38,1.03s-.13.77-.38,1.03c-.26.26-.59.39-1,.39-.25,0-.46-.04-.64-.12-.18-.08-.32-.2-.44-.36v.41h-.56v-3.77h.56v1.47Z"/>
          <path id="DejaVuSans-69-3" data-name="DejaVuSans-69" d="M129.15,134.06h.55v2.72h-.55v-2.72ZM129.15,133h.55v.57h-.55v-.57Z"/>
          <path id="DejaVuSans-6f-5" data-name="DejaVuSans-6f" d="M132.17,134.37c-.3,0-.53.09-.7.28s-.26.44-.26.77.09.58.26.77c.17.19.41.28.71.28s.53-.09.7-.28c.17-.19.26-.44.26-.77s-.09-.58-.26-.76c-.17-.19-.41-.28-.7-.28ZM132.17,133.99c.48,0,.86.13,1.14.38.28.25.41.6.41,1.05s-.14.79-.41,1.05c-.27.25-.65.38-1.14.38s-.86-.13-1.14-.38c-.27-.25-.41-.6-.41-1.05s.14-.79.41-1.05c.27-.25.65-.38,1.14-.38Z"/>
          <path id="DejaVuSans-74-2" data-name="DejaVuSans-74" d="M135.18,133.29v.77h1.14v.35h-1.14v1.47c0,.22.04.36.11.43s.23.09.46.09h.57v.37h-.57c-.43,0-.72-.06-.89-.19-.16-.13-.24-.36-.24-.7v-1.47h-.41v-.35h.41v-.77h.56Z"/>
          <path id="DejaVuSans-69-4" data-name="DejaVuSans-69" d="M137.05,134.06h.55v2.72h-.55v-2.72ZM137.05,133h.55v.57h-.55v-.57Z"/>
          <path id="DejaVuSans-63-2" data-name="DejaVuSans-63" d="M141.2,134.16v.42c-.16-.07-.31-.12-.47-.16s-.32-.05-.48-.05c-.36,0-.64.09-.84.28-.2.18-.3.44-.3.77s.1.59.3.77c.2.18.48.27.84.27.16,0,.32-.02.48-.05s.31-.09.47-.16v.41c-.15.06-.32.1-.48.13-.17.03-.34.04-.53.04-.51,0-.91-.13-1.21-.39-.3-.26-.45-.6-.45-1.04s.15-.79.45-1.04c.3-.25.72-.38,1.24-.38.17,0,.34.01.5.04.16.03.32.07.47.13Z"/>
          <path id="DejaVuSans-44-2" data-name="DejaVuSans-44" d="M144.75,133.56v2.81h.74c.62,0,1.07-.11,1.36-.34.29-.23.43-.58.43-1.07s-.14-.84-.43-1.07-.74-.34-1.36-.34h-.74ZM144.14,133.15h1.25c.87,0,1.51.15,1.92.44.41.29.61.75.61,1.37s-.2,1.08-.61,1.38c-.41.29-1.05.44-1.91.44h-1.25v-3.62Z"/>
          <path id="DejaVuSans-65-7" data-name="DejaVuSans-65" d="M151.75,135.3v.22h-2.55c.02.31.14.54.35.7.21.16.49.24.86.24.21,0,.42-.02.62-.06s.4-.1.6-.19v.42c-.2.07-.4.12-.61.16s-.42.05-.64.05c-.54,0-.96-.13-1.28-.38-.31-.25-.47-.59-.47-1.02s.15-.8.45-1.06c.3-.26.7-.39,1.21-.39.45,0,.81.12,1.08.35.26.23.4.55.4.96ZM151.2,135.17c0-.24-.09-.44-.25-.58-.17-.15-.39-.22-.66-.22-.31,0-.56.07-.74.21s-.29.34-.32.59h1.98Z"/>
          <path id="DejaVuSans-70-2" data-name="DejaVuSans-70" d="M153.2,136.37v1.44h-.56v-3.75h.56v.41c.12-.16.26-.28.44-.36.18-.08.39-.12.64-.12.41,0,.74.13,1,.39.26.26.38.61.38,1.03s-.13.77-.38,1.03c-.26.26-.59.39-1,.39-.25,0-.46-.04-.64-.12-.18-.08-.32-.2-.44-.36ZM155.09,135.42c0-.33-.08-.59-.25-.77s-.4-.28-.69-.28-.52.09-.69.28-.25.44-.25.77.08.59.25.77c.17.19.4.28.69.28s.52-.09.69-.28c.17-.19.25-.44.25-.77Z"/>
          <path id="DejaVuSans-6c-2" data-name="DejaVuSans-6c" d="M156.58,133h.55v3.77h-.55v-3.77Z"/>
          <path id="DejaVuSans-65-8" data-name="DejaVuSans-65" d="M161.18,135.3v.22h-2.55c.02.31.14.54.35.7.21.16.49.24.86.24.21,0,.42-.02.62-.06s.4-.1.6-.19v.42c-.2.07-.4.12-.61.16s-.42.05-.64.05c-.54,0-.96-.13-1.28-.38-.31-.25-.47-.59-.47-1.02s.15-.8.45-1.06c.3-.26.7-.39,1.21-.39.45,0,.81.12,1.08.35.26.23.4.55.4.96ZM160.62,135.17c0-.24-.09-.44-.25-.58-.17-.15-.39-.22-.66-.22-.31,0-.56.07-.74.21s-.29.34-.32.59h1.98Z"/>
          <path id="DejaVuSans-74-3" data-name="DejaVuSans-74" d="M162.64,133.29v.77h1.14v.35h-1.14v1.47c0,.22.04.36.11.43s.23.09.46.09h.57v.37h-.57c-.43,0-.72-.06-.89-.19-.16-.13-.24-.36-.24-.7v-1.47h-.41v-.35h.41v-.77h.56Z"/>
          <path id="DejaVuSans-69-5" data-name="DejaVuSans-69" d="M164.51,134.06h.55v2.72h-.55v-2.72ZM164.51,133h.55v.57h-.55v-.57Z"/>
          <path id="DejaVuSans-6f-6" data-name="DejaVuSans-6f" d="M167.53,134.37c-.3,0-.53.09-.7.28s-.26.44-.26.77.09.58.26.77c.17.19.41.28.71.28s.53-.09.7-.28c.17-.19.26-.44.26-.77s-.09-.58-.26-.76c-.17-.19-.41-.28-.7-.28ZM167.53,133.99c.48,0,.86.13,1.14.38.28.25.41.6.41,1.05s-.14.79-.41,1.05c-.27.25-.65.38-1.14.38s-.86-.13-1.14-.38c-.27-.25-.41-.6-.41-1.05s.14-.79.41-1.05c.27-.25.65-.38,1.14-.38Z"/>
          <path id="DejaVuSans-6e-4" data-name="DejaVuSans-6e" d="M172.8,135.13v1.64h-.55v-1.62c0-.26-.06-.45-.19-.58-.12-.13-.31-.19-.56-.19-.3,0-.54.08-.71.23-.17.15-.26.36-.26.63v1.53h-.56v-2.72h.56v.42c.13-.16.29-.29.47-.37.18-.08.39-.12.62-.12.39,0,.68.1.88.29.2.19.3.48.3.85Z"/>
          <path id="DejaVuSans-50-2" data-name="DejaVuSans-50" d="M176.5,133.56v1.36h.77c.28,0,.5-.06.66-.18.15-.12.23-.29.23-.5s-.08-.38-.23-.5c-.15-.12-.37-.18-.66-.18h-.77ZM175.89,133.15h1.37c.5,0,.89.09,1.14.28.26.18.39.45.39.81s-.13.63-.39.81c-.26.18-.64.27-1.14.27h-.77v1.45h-.61v-3.62Z"/>
          <path id="DejaVuSans-6f-7" data-name="DejaVuSans-6f" d="M180.67,134.37c-.3,0-.53.09-.7.28s-.26.44-.26.77.09.58.26.77c.17.19.41.28.71.28s.53-.09.7-.28c.17-.19.26-.44.26-.77s-.09-.58-.26-.76c-.17-.19-.41-.28-.7-.28ZM180.67,133.99c.48,0,.86.13,1.14.38.28.25.41.6.41,1.05s-.14.79-.41,1.05c-.27.25-.65.38-1.14.38s-.86-.13-1.14-.38c-.27-.25-.41-.6-.41-1.05s.14-.79.41-1.05c.27-.25.65-.38,1.14-.38Z"/>
          <path id="DejaVuSans-74-4" data-name="DejaVuSans-74" d="M183.68,133.29v.77h1.14v.35h-1.14v1.47c0,.22.04.36.11.43s.23.09.46.09h.57v.37h-.57c-.43,0-.72-.06-.89-.19-.16-.13-.24-.36-.24-.7v-1.47h-.41v-.35h.41v-.77h.56Z"/>
          <path id="DejaVuSans-65-9" data-name="DejaVuSans-65" d="M188.44,135.3v.22h-2.55c.02.31.14.54.35.7.21.16.49.24.86.24.21,0,.42-.02.62-.06s.4-.1.6-.19v.42c-.2.07-.4.12-.61.16s-.42.05-.64.05c-.54,0-.96-.13-1.28-.38-.31-.25-.47-.59-.47-1.02s.15-.8.45-1.06c.3-.26.7-.39,1.21-.39.45,0,.81.12,1.08.35.26.23.4.55.4.96ZM187.88,135.17c0-.24-.09-.44-.25-.58-.17-.15-.39-.22-.66-.22-.31,0-.56.07-.74.21s-.29.34-.32.59h1.98Z"/>
          <path id="DejaVuSans-6e-5" data-name="DejaVuSans-6e" d="M192.15,135.13v1.64h-.55v-1.62c0-.26-.06-.45-.19-.58-.12-.13-.31-.19-.56-.19-.3,0-.54.08-.71.23-.17.15-.26.36-.26.63v1.53h-.56v-2.72h.56v.42c.13-.16.29-.29.47-.37.18-.08.39-.12.62-.12.39,0,.68.1.88.29.2.19.3.48.3.85Z"/>
          <path id="DejaVuSans-74-5" data-name="DejaVuSans-74" d="M193.8,133.29v.77h1.14v.35h-1.14v1.47c0,.22.04.36.11.43s.23.09.46.09h.57v.37h-.57c-.43,0-.72-.06-.89-.19-.16-.13-.24-.36-.24-.7v-1.47h-.41v-.35h.41v-.77h.56Z"/>
          <path id="DejaVuSans-69-6" data-name="DejaVuSans-69" d="M195.67,134.06h.55v2.72h-.55v-2.72ZM195.67,133h.55v.57h-.55v-.57Z"/>
          <path id="DejaVuSans-61-4" data-name="DejaVuSans-61" d="M198.92,135.41c-.45,0-.76.04-.93.12s-.26.22-.26.42c0,.16.06.28.19.38.13.09.31.14.53.14.31,0,.55-.09.74-.26s.28-.41.28-.7v-.1h-.55ZM200.03,135.22v1.55h-.55v-.41c-.13.16-.28.29-.47.36-.19.08-.42.12-.69.12-.35,0-.62-.08-.82-.23-.2-.16-.31-.37-.31-.63,0-.31.13-.54.38-.69.25-.16.63-.23,1.14-.23h.78v-.04c0-.21-.08-.36-.25-.48s-.4-.17-.71-.17c-.19,0-.38.02-.56.06-.18.04-.36.09-.53.17v-.41c.2-.06.4-.11.59-.14.19-.03.38-.05.56-.05.49,0,.85.1,1.09.31.24.2.36.51.36.93Z"/>
          <path id="DejaVuSans-6c-3" data-name="DejaVuSans-6c" d="M201.17,133h.55v3.77h-.55v-3.77Z"/>
          <path id="DejaVuSans-62-3" data-name="DejaVuSans-62" d="M207.26,135.42c0-.33-.08-.59-.25-.77s-.4-.28-.69-.28-.52.09-.69.28-.25.44-.25.77.08.59.25.77c.17.19.4.28.69.28s.52-.09.69-.28c.17-.19.25-.44.25-.77ZM205.38,134.47c.12-.16.26-.28.44-.36.18-.08.39-.12.64-.12.41,0,.74.13,1,.39.26.26.38.61.38,1.03s-.13.77-.38,1.03c-.26.26-.59.39-1,.39-.25,0-.46-.04-.64-.12-.18-.08-.32-.2-.44-.36v.41h-.56v-3.77h.56v1.47Z"/>
          <path id="DejaVuSans-79-2" data-name="DejaVuSans-79" d="M210.16,137.02c-.16.32-.31.53-.46.63-.15.1-.35.15-.6.15h-.44v-.37h.33c.15,0,.27-.03.35-.09.08-.06.18-.2.28-.41l.1-.2-1.36-2.67h.59l1.05,2.12,1.05-2.12h.59l-1.48,2.97Z"/>
          <path id="DejaVuSans-52" d="M216.52,135.08c.13.04.26.11.38.23s.25.28.37.48l.62.99h-.65l-.57-.93c-.15-.24-.29-.4-.43-.48s-.33-.12-.57-.12h-.66v1.53h-.61v-3.62h1.37c.51,0,.9.09,1.15.26.25.17.38.43.38.78,0,.23-.07.42-.2.57-.13.15-.32.25-.57.31ZM215,133.56v1.28h.77c.29,0,.51-.05.66-.16s.22-.27.22-.48-.07-.37-.22-.48-.37-.16-.66-.16h-.77Z"/>
          <path id="DejaVuSans-65-10" data-name="DejaVuSans-65" d="M221.26,135.3v.22h-2.55c.02.31.14.54.35.7.21.16.49.24.86.24.21,0,.42-.02.62-.06s.4-.1.6-.19v.42c-.2.07-.4.12-.61.16s-.42.05-.64.05c-.54,0-.96-.13-1.28-.38-.31-.25-.47-.59-.47-1.02s.15-.8.45-1.06c.3-.26.7-.39,1.21-.39.45,0,.81.12,1.08.35.26.23.4.55.4.96ZM220.71,135.17c0-.24-.09-.44-.25-.58-.17-.15-.39-.22-.66-.22-.31,0-.56.07-.74.21s-.29.34-.32.59h1.98Z"/>
          <path id="DejaVuSans-67-2" data-name="DejaVuSans-67" d="M224.39,135.38c0-.32-.08-.57-.25-.75-.17-.18-.4-.27-.7-.27s-.53.09-.69.27c-.17.18-.25.43-.25.75s.08.57.25.75c.17.18.4.27.69.27s.53-.09.7-.27c.17-.18.25-.43.25-.75ZM224.94,136.44c0,.46-.13.81-.38,1.03-.25.23-.64.34-1.17.34-.19,0-.38-.01-.55-.03s-.34-.06-.5-.11v-.43c.16.07.32.12.48.16.16.03.32.05.48.05.36,0,.64-.08.82-.23.18-.15.27-.38.27-.69v-.22c-.11.16-.26.28-.44.36s-.39.12-.64.12c-.41,0-.75-.13-1-.38-.25-.25-.38-.59-.38-1.01s.13-.76.38-1.01c.25-.25.59-.38,1-.38.25,0,.46.04.64.12s.33.2.44.36v-.41h.55v2.38Z"/>
          <path id="DejaVuSans-69-7" data-name="DejaVuSans-69" d="M226.09,134.06h.55v2.72h-.55v-2.72ZM226.09,133h.55v.57h-.55v-.57Z"/>
          <path id="DejaVuSans-6f-8" data-name="DejaVuSans-6f" d="M229.11,134.37c-.3,0-.53.09-.7.28s-.26.44-.26.77.09.58.26.77c.17.19.41.28.71.28s.53-.09.7-.28c.17-.19.26-.44.26-.77s-.09-.58-.26-.76c-.17-.19-.41-.28-.7-.28ZM229.11,133.99c.48,0,.86.13,1.14.38.28.25.41.6.41,1.05s-.14.79-.41,1.05c-.27.25-.65.38-1.14.38s-.86-.13-1.14-.38c-.27-.25-.41-.6-.41-1.05s.14-.79.41-1.05c.27-.25.65-.38,1.14-.38Z"/>
          <path id="DejaVuSans-6e-6" data-name="DejaVuSans-6e" d="M234.38,135.13v1.64h-.55v-1.62c0-.26-.06-.45-.19-.58-.12-.13-.31-.19-.56-.19-.3,0-.54.08-.71.23-.17.15-.26.36-.26.63v1.53h-.56v-2.72h.56v.42c.13-.16.29-.29.47-.37.18-.08.39-.12.62-.12.39,0,.68.1.88.29.2.19.3.48.3.85Z"/>
        </g>
      </g>
    </g>
    <text class="cls-4" transform="translate(17.18 401.77)"><tspan class="cls-34" x="0" y="0">T</tspan><tspan x="5.88" y="0">he USA </tspan><tspan class="cls-31" x="44.66" y="0">r</tspan><tspan class="cls-13" x="48.47" y="0">elies he</tspan><tspan class="cls-36" x="86.1" y="0">a</tspan><tspan x="91.79" y="0">vily on non-</tspan><tspan class="cls-31" x="150.78" y="0">r</tspan><tspan class="cls-13" x="154.58" y="0">ene</tspan><tspan class="cls-29" x="173.27" y="0">w</tspan><tspan class="cls-9" x="182.05" y="0">able</tspan><tspan x="31.13" y="14.4">ene</tspan><tspan class="cls-35" x="49.81" y="14.4">r</tspan><tspan class="cls-24" x="53.64" y="14.4">g</tspan><tspan x="60.28" y="14.4">ies like </tspan><tspan class="cls-17" x="96.21" y="14.4">f</tspan><tspan x="99.56" y="14.4" xml:space="preserve">ossil fuels -  meaning</tspan><tspan x="5.94" y="28.8">mo</tspan><tspan class="cls-33" x="22.54" y="28.8">r</tspan><tspan class="cls-13" x="26.34" y="28.8">e depletion of n</tspan><tspan class="cls-29" x="105.21" y="28.8">a</tspan><tspan class="cls-13" x="110.95" y="28.8">tu</tspan><tspan class="cls-28" x="121.53" y="28.8">r</tspan><tspan x="125.4" y="28.8">al </tspan><tspan class="cls-31" x="136.56" y="28.8">r</tspan><tspan class="cls-13" x="140.36" y="28.8">esou</tspan><tspan class="cls-33" x="164.33" y="28.8">r</tspan><tspan class="cls-27" x="168.13" y="28.8">c</tspan><tspan x="173.43" y="28.8">es per</tspan><tspan class="cls-40" x="32.02" y="43.2">k</tspan><tspan class="cls-9" x="37.85" y="43.2">il</tspan><tspan class="cls-26" x="43.49" y="43.2">o</tspan><tspan class="cls-29" x="49.99" y="43.2">wa</tspan><tspan class="cls-13" x="64.51" y="43.2">t</tspan><tspan class="cls-28" x="68.48" y="43.2">t</tspan><tspan class="cls-9" x="72.4" y="43.2">-hour of ene</tspan><tspan class="cls-35" x="133.73" y="43.2">r</tspan><tspan x="137.55" y="43.2">gy p</tspan><tspan class="cls-33" x="159.29" y="43.2">r</tspan><tspan x="163.09" y="43.2">odu</tspan><tspan class="cls-27" x="183.06" y="43.2">c</tspan><tspan x="188.36" y="43.2">e</tspan><tspan class="cls-31" x="194.37" y="43.2">d</tspan><tspan x="201.02" y="43.2">.</tspan></text>
  </g>
</svg>